<svg width="12" height="12" viewBox="0 0 12 12" fill="none" xmlns="http://www.w3.org/2000/svg">
<path fill-rule="evenodd" clip-rule="evenodd" d="M6 0.395996C6.19891 0.395996 6.38968 0.475016 6.53033 0.615666C6.67098 0.756316 6.75 0.947086 6.75 1.146V5.396H11C11.1989 5.396 11.3897 5.47502 11.5303 5.61567C11.671 5.75632 11.75 5.94709 11.75 6.146C11.75 6.34491 11.671 6.53568 11.5303 6.67633C11.3897 6.81698 11.1989 6.896 11 6.896H6.75V11.146C6.75 11.3449 6.67098 11.5357 6.53033 11.6763C6.38968 11.817 6.19891 11.896 6 11.896C5.80109 11.896 5.61032 11.817 5.46967 11.6763C5.32902 11.5357 5.25 11.3449 5.25 11.146V6.896H1C0.80109 6.896 0.61032 6.81698 0.46967 6.67633C0.32902 6.53568 0.25 6.34491 0.25 6.146C0.25 5.94709 0.32902 5.75632 0.46967 5.61567C0.61032 5.47502 0.80109 5.396 1 5.396H5.25V1.146C5.25 0.947086 5.32902 0.756316 5.46967 0.615666C5.61032 0.475016 5.80109 0.395996 6 0.395996Z" fill="#334BFA"/>
</svg>
