<svg width="22" height="22" viewBox="0 0 22 22" fill="none" xmlns="http://www.w3.org/2000/svg">
<path fill-rule="evenodd" clip-rule="evenodd" d="M3 0.439453C1.48122 0.439453 0.25 1.67067 0.25 3.18945C0.25 4.44823 1.09575 5.50947 2.25 5.83594V14.7895L2.25 14.8225C2.24999 15.9146 2.24999 16.7801 2.30699 17.4777C2.36527 18.1911 2.48688 18.7947 2.76772 19.3459C3.22312 20.2397 3.94978 20.9663 4.84354 21.4217C5.39472 21.7026 5.99834 21.8242 6.71173 21.8825C7.40935 21.9395 8.27484 21.9395 9.36698 21.9395H9.4H12.6H12.633C13.7252 21.9395 14.5906 21.9395 15.2883 21.8825C16.0017 21.8242 16.6053 21.7026 17.1565 21.4217C18.0502 20.9663 18.7769 20.2397 19.2323 19.3459C19.5131 18.7947 19.6347 18.1911 19.693 17.4777C19.75 16.7801 19.75 15.9146 19.75 14.8225V14.7895V5.83594C20.9043 5.50947 21.75 4.44823 21.75 3.18945C21.75 1.67067 20.5188 0.439453 19 0.439453H3ZM18.25 5.93945H3.75V14.7895C3.75 15.9219 3.75058 16.7262 3.80201 17.3556C3.85271 17.9762 3.94909 18.3605 4.10423 18.6649C4.41582 19.2764 4.913 19.7736 5.52453 20.0852C5.829 20.2404 6.21325 20.3367 6.83388 20.3874C7.46326 20.4389 8.26752 20.4395 9.4 20.4395H12.6C13.7325 20.4395 14.5367 20.4389 15.1661 20.3874C15.7867 20.3367 16.171 20.2404 16.4755 20.0852C17.087 19.7736 17.5842 19.2764 17.8958 18.6649C18.0509 18.3605 18.1473 17.9762 18.198 17.3556C18.2494 16.7262 18.25 15.9219 18.25 14.7895V5.93945ZM19 4.43945C19.6904 4.43945 20.25 3.87981 20.25 3.18945C20.25 2.4991 19.6904 1.93945 19 1.93945H3C2.30964 1.93945 1.75 2.4991 1.75 3.18945C1.75 3.87981 2.30964 4.43945 3 4.43945H19ZM7.25 9.18945C7.25 8.77524 7.58579 8.43945 8 8.43945H14C14.4142 8.43945 14.75 8.77524 14.75 9.18945C14.75 9.60367 14.4142 9.93945 14 9.93945H8C7.58579 9.93945 7.25 9.60367 7.25 9.18945Z" fill="#181818" fill-opacity="0.4"/>
</svg>
