<svg width="22" height="22" viewBox="0 0 22 22" fill="none" xmlns="http://www.w3.org/2000/svg">
<path fill-rule="evenodd" clip-rule="evenodd" d="M3 0.25C1.48122 0.25 0.25 1.48122 0.25 3C0.25 4.25878 1.09575 5.32002 2.25 5.64648V14.6L2.25 14.633C2.24999 15.7251 2.24999 16.5906 2.30699 17.2883C2.36527 18.0017 2.48688 18.6053 2.76772 19.1565C3.22312 20.0502 3.94978 20.7769 4.84354 21.2323C5.39472 21.5131 5.99834 21.6347 6.71173 21.693C7.40935 21.75 8.27484 21.75 9.36698 21.75H9.4H12.6H12.633C13.7252 21.75 14.5906 21.75 15.2883 21.693C16.0017 21.6347 16.6053 21.5131 17.1565 21.2323C18.0502 20.7769 18.7769 20.0502 19.2323 19.1565C19.5131 18.6053 19.6347 18.0017 19.693 17.2883C19.75 16.5906 19.75 15.7252 19.75 14.633V14.6V5.64648C20.9043 5.32002 21.75 4.25878 21.75 3C21.75 1.48122 20.5188 0.25 19 0.25H3ZM18.25 5.75H3.75V14.6C3.75 15.7325 3.75058 16.5367 3.80201 17.1661C3.85271 17.7867 3.94909 18.171 4.10423 18.4755C4.41582 19.087 4.913 19.5842 5.52453 19.8958C5.829 20.0509 6.21325 20.1473 6.83388 20.198C7.46326 20.2494 8.26752 20.25 9.4 20.25H12.6C13.7325 20.25 14.5367 20.2494 15.1661 20.198C15.7867 20.1473 16.171 20.0509 16.4755 19.8958C17.087 19.5842 17.5842 19.087 17.8958 18.4755C18.0509 18.171 18.1473 17.7867 18.198 17.1661C18.2494 16.5367 18.25 15.7325 18.25 14.6V5.75ZM19 4.25C19.6904 4.25 20.25 3.69036 20.25 3C20.25 2.30964 19.6904 1.75 19 1.75H3C2.30964 1.75 1.75 2.30964 1.75 3C1.75 3.69036 2.30964 4.25 3 4.25H19ZM7.25 9C7.25 8.58579 7.58579 8.25 8 8.25H14C14.4142 8.25 14.75 8.58579 14.75 9C14.75 9.41421 14.4142 9.75 14 9.75H8C7.58579 9.75 7.25 9.41421 7.25 9Z" fill="#334BFA"/>
</svg>
