<svg width="22" height="22" viewBox="0 0 22 22" fill="none" xmlns="http://www.w3.org/2000/svg">
<path fill-rule="evenodd" clip-rule="evenodd" d="M9.47982 0.250213L9.37102 0.250105C8.85842 0.24934 8.40851 0.248668 8.00762 0.406335C7.65709 0.5442 7.34677 0.767864 7.10513 1.05682C6.82878 1.38727 6.68715 1.81431 6.52577 2.30085L6.49147 2.4041L6.20943 3.25021H2.75H0.75C0.335786 3.25021 0 3.586 0 4.00021C0 4.41443 0.335786 4.75021 0.75 4.75021H2.04282L2.64693 15.0201L2.64881 15.052C2.70958 16.0851 2.7578 16.9051 2.84968 17.5654C2.94376 18.2415 3.09057 18.8115 3.38159 19.3289C3.85467 20.1699 4.5727 20.847 5.4401 21.2698C5.97368 21.53 6.55125 21.6431 7.23175 21.6973C7.89635 21.7502 8.7177 21.7502 9.75268 21.7502H9.78459H11.7154H11.7473C12.7823 21.7502 13.6037 21.7502 14.2682 21.6973C14.9487 21.6431 15.5263 21.53 16.0599 21.2698C16.9273 20.847 17.6453 20.1699 18.1184 19.3289C18.4094 18.8115 18.5562 18.2415 18.6503 17.5654C18.7422 16.9051 18.7904 16.0853 18.8512 15.0522V15.0522L18.8512 15.0521L18.8531 15.0201L19.4572 4.75021H20.75C21.1642 4.75021 21.5 4.41443 21.5 4.00021C21.5 3.586 21.1642 3.25021 20.75 3.25021H18.75H15.2906L15.0085 2.4041L14.9742 2.30084C14.8129 1.8143 14.6712 1.38727 14.3949 1.05682C14.1532 0.767864 13.8429 0.5442 13.4924 0.406335C13.0915 0.248668 12.6416 0.24934 12.129 0.250105L12.0202 0.250213H9.47982ZM14.7325 4.75021C14.7441 4.75048 14.7557 4.75049 14.7673 4.75021H17.9546L17.3557 14.932C17.2926 16.0042 17.2473 16.7645 17.1646 17.3587C17.0832 17.9439 16.9726 18.3063 16.811 18.5935C16.4873 19.169 15.9961 19.6322 15.4026 19.9215C15.1064 20.0659 14.7381 20.1551 14.1491 20.202C13.5511 20.2497 12.7894 20.2502 11.7154 20.2502H9.78459C8.71057 20.2502 7.94893 20.2497 7.35087 20.202C6.76191 20.1551 6.3936 20.0659 6.09742 19.9215C5.50394 19.6322 5.01265 19.169 4.68897 18.5935C4.52743 18.3063 4.41679 17.9439 4.33537 17.3587C4.25269 16.7645 4.20741 16.0042 4.14434 14.932L3.54541 4.75021H6.7327C6.74433 4.75049 6.75594 4.75048 6.76751 4.75021H14.7325ZM13.7094 3.25021L13.5855 2.87844C13.3686 2.22761 13.3133 2.10174 13.2442 2.01908C13.1637 1.92276 13.0602 1.84821 12.9434 1.80225C12.8431 1.76282 12.7062 1.75021 12.0202 1.75021H9.47982C8.79379 1.75021 8.65691 1.76282 8.55663 1.80225C8.43979 1.84821 8.33635 1.92276 8.2558 2.01908C8.18668 2.10174 8.13144 2.22761 7.91449 2.87844L7.79057 3.25021H13.7094ZM9.5 9.00021C9.5 8.586 9.16421 8.25021 8.75 8.25021C8.33579 8.25021 8 8.586 8 9.00021V16.0002C8 16.4144 8.33579 16.7502 8.75 16.7502C9.16421 16.7502 9.5 16.4144 9.5 16.0002V9.00021ZM12.75 8.25021C13.1642 8.25021 13.5 8.586 13.5 9.00021V13.0002C13.5 13.4144 13.1642 13.7502 12.75 13.7502C12.3358 13.7502 12 13.4144 12 13.0002V9.00021C12 8.586 12.3358 8.25021 12.75 8.25021Z" fill="#FA336F"/>
</svg>
