<svg width="11" height="19" viewBox="0 0 11 19" fill="none" xmlns="http://www.w3.org/2000/svg">
<path fill-rule="evenodd" clip-rule="evenodd" d="M1.95457 0.885742C1.43608 0.885892 0.938881 1.09161 0.572337 1.45766C0.205792 1.8237 -8.11837e-05 2.32009 2.40741e-08 2.83764C-8.00933e-05 3.35519 0.205794 3.85158 0.572339 4.21762C0.938883 4.58367 1.43608 4.78939 1.95457 4.78954C2.21137 4.78958 2.46566 4.73912 2.70292 4.64104C2.94019 4.54296 3.15577 4.39919 3.33736 4.21793C3.51894 4.03667 3.66298 3.82148 3.76123 3.58465C3.85949 3.34781 3.91004 3.09398 3.91 2.83764C3.91004 2.5813 3.85949 2.32747 3.76123 2.09064C3.66298 1.8538 3.51894 1.63861 3.33736 1.45735C3.15577 1.27609 2.94019 1.13232 2.70293 1.03424C2.46566 0.936163 2.21137 0.885703 1.95457 0.885742ZM1.95457 7.54822C1.43608 7.54837 0.938881 7.75409 0.572337 8.12013C0.205792 8.48618 -8.12828e-05 8.98256 2.40741e-08 9.50011C-8.00933e-05 10.0177 0.205794 10.5141 0.572339 10.8801C0.938883 11.2461 1.43608 11.4519 1.95457 11.452C2.21137 11.4521 2.46566 11.4016 2.70292 11.3035C2.94019 11.2054 3.15577 11.0617 3.33736 10.8804C3.51894 10.6991 3.66298 10.484 3.76123 10.2471C3.85949 10.0103 3.91004 9.75645 3.91 9.50011C3.91004 9.24378 3.85949 8.98994 3.76123 8.75311C3.66298 8.51627 3.51894 8.30108 3.33736 8.11983C3.15577 7.93857 2.94019 7.79479 2.70293 7.69671C2.46566 7.59864 2.21137 7.54818 1.95457 7.54822ZM1.95457 14.2107C1.43608 14.2108 0.938881 14.4166 0.572337 14.7826C0.205792 15.1486 -8.12828e-05 15.645 2.40741e-08 16.1626C-8.00933e-05 16.6801 0.205794 17.1765 0.572339 17.5426C0.938883 17.9086 1.43608 18.1143 1.95457 18.1145C2.21137 18.1145 2.46566 18.0641 2.70292 17.966C2.94019 17.8679 3.15577 17.7241 3.33736 17.5429C3.51894 17.3616 3.66298 17.1464 3.76123 16.9096C3.85949 16.6728 3.91004 16.4189 3.91 16.1626C3.91004 15.9063 3.85949 15.6524 3.76123 15.4156C3.66298 15.1787 3.51894 14.9636 3.33736 14.7823C3.15577 14.601 2.94019 14.4573 2.70293 14.3592C2.46566 14.2611 2.21137 14.2106 1.95457 14.2107Z" fill="#888888" fill-opacity="0.5"/>
<path fill-rule="evenodd" clip-rule="evenodd" d="M8.63523 0.885742C8.11674 0.885892 7.61955 1.09161 7.253 1.45766C6.88646 1.8237 6.68058 2.32009 6.68066 2.83764C6.68058 3.35519 6.88646 3.85158 7.253 4.21762C7.61955 4.58367 8.11674 4.78939 8.63523 4.78954C8.89203 4.78958 9.14633 4.73912 9.38359 4.64104C9.62085 4.54296 9.83643 4.39919 10.018 4.21793C10.1996 4.03667 10.3436 3.82148 10.4419 3.58465C10.5402 3.34781 10.5907 3.09398 10.5907 2.83764C10.5907 2.5813 10.5402 2.32747 10.4419 2.09064C10.3436 1.8538 10.1996 1.63861 10.018 1.45735C9.83643 1.27609 9.62085 1.13232 9.38359 1.03424C9.14633 0.936163 8.89203 0.885703 8.63523 0.885742ZM8.63523 7.54821C8.11674 7.54836 7.61955 7.75408 7.253 8.12013C6.88646 8.48617 6.68058 8.98256 6.68066 9.50011C6.68058 10.0177 6.88646 10.514 7.253 10.8801C7.61955 11.2461 8.11674 11.4519 8.63523 11.452C8.89203 11.452 9.14633 11.4016 9.38359 11.3035C9.62085 11.2054 9.83643 11.0617 10.018 10.8804C10.1996 10.6991 10.3436 10.484 10.4419 10.2471C10.5402 10.0103 10.5907 9.75645 10.5907 9.50011C10.5907 9.24377 10.5402 8.98994 10.4419 8.75311C10.3436 8.51627 10.1996 8.30108 10.018 8.11982C9.83643 7.93856 9.62085 7.79479 9.38359 7.69671C9.14633 7.59863 8.89203 7.54817 8.63523 7.54821ZM8.63523 14.2107C8.11674 14.2108 7.61955 14.4166 7.253 14.7826C6.88646 15.1486 6.68058 15.645 6.68066 16.1626C6.68058 16.6801 6.88646 17.1765 7.253 17.5426C7.61955 17.9086 8.11674 18.1143 8.63523 18.1145C8.89203 18.1145 9.14633 18.0641 9.38359 17.966C9.62085 17.8679 9.83643 17.7241 10.018 17.5429C10.1996 17.3616 10.3436 17.1464 10.4419 16.9096C10.5402 16.6728 10.5907 16.4189 10.5907 16.1626C10.5907 15.9062 10.5402 15.6524 10.4419 15.4156C10.3436 15.1787 10.1996 14.9636 10.018 14.7823C9.83643 14.601 9.62085 14.4573 9.38359 14.3592C9.14633 14.2611 8.89203 14.2106 8.63523 14.2107Z" fill="#888888" fill-opacity="0.5"/>
</svg>
