<svg width="18" height="22" viewBox="0 0 18 22" fill="none" xmlns="http://www.w3.org/2000/svg">
<path fill-rule="evenodd" clip-rule="evenodd" d="M10 1.52247C9.66088 1.50145 9.21555 1.50001 8.52818 1.50001C7.22114 1.50001 6.28262 1.50051 5.54411 1.55645C4.81343 1.61178 4.33979 1.71822 3.95363 1.89832C3.04825 2.32057 2.32056 3.04827 1.8983 3.95364C1.7182 4.33981 1.61177 4.81344 1.55643 5.54413C1.5005 6.28263 1.5 7.22115 1.5 8.52819V12.75C1.5 14.1625 1.50058 15.1768 1.56563 15.9729C1.62996 16.7603 1.75359 17.268 1.96322 17.6795C2.37068 18.4792 3.02085 19.1293 3.82054 19.5368C4.23197 19.7464 4.7397 19.8701 5.52708 19.9344C6.32322 19.9994 7.33749 20 8.75 20C10.1625 20 11.1768 19.9994 11.9729 19.9344C12.7603 19.8701 13.268 19.7464 13.6795 19.5368C14.4791 19.1293 15.1293 18.4792 15.5368 17.6795C15.7464 17.268 15.87 16.7603 15.9344 15.9729C15.9994 15.1768 16 14.1625 16 12.75V9.06372C16 8.33845 15.9984 7.86273 15.9755 7.50004H13.95H13.9196C13.3854 7.50005 12.9396 7.50006 12.5753 7.4703C12.1954 7.43927 11.8388 7.37215 11.5015 7.20031C10.9841 6.93666 10.5634 6.51596 10.2997 5.99852C10.1279 5.66125 10.0608 5.3046 10.0297 4.92471C9.99998 4.56048 9.99999 4.11463 10 3.58048V3.55004V1.52247ZM15.5901 6.00004C15.5252 5.86328 15.453 5.72988 15.3737 5.60046C15.1217 5.18917 14.7665 4.8272 13.8765 3.9372L13.4978 3.55852C12.6739 2.73455 12.3388 2.40537 11.9623 2.16553C11.8134 2.07066 11.659 1.98533 11.5 1.90993V3.55004C11.5 4.12247 11.5006 4.50669 11.5248 4.80256C11.5482 5.08969 11.5901 5.22697 11.6362 5.31753C11.7561 5.55273 11.9473 5.74396 12.1825 5.8638C12.2731 5.90994 12.4104 5.95183 12.6975 5.97529C12.9934 5.99946 13.3776 6.00004 13.95 6.00004H15.5901ZM10.9236 0.13635C10.3079 -0.000174312 9.66471 -0.000105468 8.61987 6.29028e-06L8.52818 1.27872e-05L8.49716 1.2668e-05C7.22781 8.73407e-06 6.2326 5.57502e-06 5.43083 0.0607287C4.61473 0.122537 3.93819 0.250401 3.31962 0.538895C2.0947 1.11018 1.11017 2.09471 0.538882 3.31963C0.250389 3.93821 0.122525 4.61474 0.0607161 5.43085C-7.07587e-06 6.23261 -3.91683e-06 7.22782 7.66844e-08 8.49718V8.52819V12.75V12.7836C-4.63208e-06 14.1553 -8.26797e-06 15.2307 0.0706119 16.0951C0.142522 16.9752 0.291379 17.7023 0.626713 18.3605C1.17798 19.4424 2.05762 20.322 3.13955 20.8733C3.79768 21.2086 4.52479 21.3575 5.40494 21.4294C6.26927 21.5 7.34469 21.5 8.71637 21.5H8.71642H8.75H8.78358H8.78363C10.1553 21.5 11.2307 21.5 12.0951 21.4294C12.9752 21.3575 13.7023 21.2086 14.3604 20.8733C15.4424 20.322 16.322 19.4424 16.8733 18.3605C17.2086 17.7023 17.3575 16.9752 17.4294 16.0951C17.5 15.2307 17.5 14.1553 17.5 12.7836V12.7836V12.75V9.06372L17.5 8.9647C17.5001 7.83624 17.5002 7.14143 17.3411 6.47877C17.2003 5.89206 16.9679 5.33118 16.6527 4.81671C16.2966 4.23565 15.8052 3.74441 15.0072 2.94657L15.0072 2.94655L14.9372 2.87654L14.5585 2.49786L14.4937 2.43301C13.7549 1.69412 13.3002 1.23926 12.7683 0.900416C12.2026 0.540106 11.5784 0.28152 10.9236 0.13635ZM6.21967 10.2197C6.51256 9.92679 6.98744 9.92679 7.28033 10.2197L8.75 11.6894L10.2197 10.2197C10.5126 9.92679 10.9874 9.92679 11.2803 10.2197C11.5732 10.5126 11.5732 10.9874 11.2803 11.2803L9.81066 12.75L11.2803 14.2197C11.5732 14.5126 11.5732 14.9874 11.2803 15.2803C10.9874 15.5732 10.5126 15.5732 10.2197 15.2803L8.75 13.8107L7.28033 15.2803C6.98744 15.5732 6.51256 15.5732 6.21967 15.2803C5.92678 14.9874 5.92678 14.5126 6.21967 14.2197L7.68934 12.75L6.21967 11.2803C5.92678 10.9874 5.92678 10.5126 6.21967 10.2197Z" fill="#FA336F"/>
</svg>
