<svg width="22" height="20" viewBox="0 0 22 20" fill="none" xmlns="http://www.w3.org/2000/svg">
<path fill-rule="evenodd" clip-rule="evenodd" d="M14.7392 1.50056C13.4289 1.4816 12.2002 1.92735 11.374 3.16662C11.2349 3.37526 11.0008 3.50058 10.75 3.50058C10.4992 3.50058 10.2651 3.37526 10.126 3.16662C9.3043 1.93417 8.05339 1.50064 6.75 1.50064C4.12322 1.50064 1.5 3.70461 1.5 6.75042C1.5 9.92854 3.55478 12.7402 5.87509 14.8162C7.02178 15.8421 8.19943 16.6571 9.14543 17.2127C9.61873 17.4906 10.026 17.6989 10.3353 17.835C10.4905 17.9033 10.6122 17.9495 10.6996 17.9772C10.7202 17.9838 10.7369 17.9886 10.75 17.9922C10.7631 17.9886 10.7798 17.9838 10.8004 17.9772C10.8878 17.9495 11.0095 17.9033 11.1648 17.835C11.474 17.6989 11.8813 17.4906 12.3546 17.2127C13.3006 16.6571 14.4782 15.8421 15.6249 14.8162C17.9452 12.7402 20 9.92854 20 6.75042C20 3.71335 17.3841 1.53883 14.7392 1.50056ZM10.7484 1.56005C11.8783 0.394699 13.3481 -0.0197245 14.7609 0.000716585C18.1159 0.0492611 21.5 2.78776 21.5 6.75042C21.5 10.5721 19.0548 13.7602 16.6251 15.9341C15.3968 17.033 14.1369 17.9055 13.1142 18.5061C12.6031 18.8063 12.1432 19.0433 11.7688 19.208C11.5823 19.2901 11.4081 19.3581 11.2538 19.407C11.1184 19.45 10.9333 19.5 10.75 19.5C10.5667 19.5 10.3816 19.45 10.2462 19.407C10.0919 19.3581 9.91773 19.2901 9.73116 19.208C9.35681 19.0433 8.8969 18.8063 8.38583 18.5061C7.36308 17.9055 6.10323 17.033 4.87492 15.9341C2.44523 13.7602 0 10.5721 0 6.75042C0 2.79651 3.37678 0.000639159 6.75 0.000639159C8.12536 0.000639159 9.61 0.396773 10.7484 1.56005Z" fill="#FA7F33"/>
</svg>
