<svg width="24" height="23" viewBox="0 0 24 23" fill="none" xmlns="http://www.w3.org/2000/svg">
<path fill-rule="evenodd" clip-rule="evenodd" d="M10.8215 0.986971C11.5673 0.633249 12.4326 0.633249 13.1784 0.986973C13.6947 1.23185 14.0609 1.69537 14.3854 2.21924C14.7117 2.74597 15.0697 3.46194 15.5155 4.35353L15.5329 4.38847L15.8922 5.10704C16.1979 5.71841 16.2868 5.87862 16.3984 5.99543C16.5135 6.11592 16.6516 6.21217 16.8044 6.27853C16.9526 6.34287 17.1337 6.3709 17.813 6.44638L18.1392 6.48262L18.1783 6.48697C19.2493 6.60595 20.1048 6.701 20.7525 6.83274C21.3913 6.96267 21.9866 7.15501 22.4033 7.58017C22.9995 8.18848 23.2802 9.03874 23.1633 9.88246C23.0816 10.4722 22.7178 10.9811 22.282 11.4658C21.84 11.9573 21.2093 12.543 20.4197 13.2762L20.3908 13.303L20.0464 13.6227C19.4483 14.1782 19.2949 14.3353 19.209 14.5026C19.1203 14.6753 19.073 14.8663 19.071 15.0605C19.069 15.2483 19.1327 15.4627 19.4066 16.2433L19.4196 16.2801C19.8238 17.4322 20.144 18.3447 20.3257 19.0545C20.5023 19.744 20.6012 20.4211 20.3711 21.0074C20.0471 21.8325 19.3454 22.4509 18.4861 22.6684C17.8772 22.8225 17.2237 22.643 16.5678 22.3842C15.8944 22.1187 15.0418 21.6923 13.9668 21.1548L13.9316 21.1372L13.0956 20.7192C12.532 20.4374 12.3782 20.3681 12.2305 20.3404C12.0781 20.3118 11.9218 20.3118 11.7695 20.3404C11.6217 20.3681 11.4679 20.4374 10.9043 20.7192L10.0684 21.1372L10.0331 21.1548C8.95812 21.6923 8.10548 22.1187 7.43213 22.3843C6.77621 22.643 6.12274 22.8225 5.51383 22.6684C4.65455 22.4509 3.95279 21.8325 3.62886 21.0074C3.39868 20.4211 3.49761 19.7441 3.67418 19.0545C3.85594 18.3447 4.17609 17.4323 4.58033 16.2802L4.59327 16.2433C4.86719 15.4627 4.93089 15.2483 4.92891 15.0605C4.92687 14.8663 4.87962 14.6753 4.79091 14.5026C4.70499 14.3353 4.55163 14.1782 3.9535 13.6227L3.60916 13.303L3.58031 13.2762C2.79069 12.543 2.15991 11.9573 1.71795 11.4658C1.28207 10.9811 0.918273 10.4722 0.836584 9.88246C0.719705 9.03874 1.0004 8.18848 1.59663 7.58017C2.01335 7.15501 2.60866 6.96267 3.24745 6.83274C3.89514 6.701 4.75065 6.60595 5.8216 6.48697L5.86073 6.48262L6.1869 6.44638C6.86625 6.3709 7.04732 6.34287 7.19551 6.27853C7.34835 6.21217 7.48639 6.11592 7.6015 5.99543C7.7131 5.87862 7.802 5.71841 8.10769 5.10704L8.46697 4.38846L8.48444 4.35354C8.93023 3.46194 9.2882 2.74597 9.61449 2.21924C9.93901 1.69536 10.3052 1.23185 10.8215 0.986971ZM12.5356 2.34227C12.1966 2.18148 11.8033 2.18148 11.4643 2.34227C11.3573 2.39301 11.1816 2.53791 10.8897 3.00915C10.6038 3.47067 10.2759 4.1247 9.80861 5.05929L9.44933 5.77786C9.43494 5.80664 9.42075 5.83507 9.40673 5.86315C9.16443 6.34865 8.97395 6.73032 8.68607 7.03163C8.43283 7.2967 8.12914 7.50845 7.79288 7.65445C7.41061 7.82041 6.98663 7.8672 6.44729 7.92672C6.4161 7.93017 6.38452 7.93365 6.35255 7.9372L6.02638 7.97345C4.90742 8.09777 4.11972 8.18604 3.54643 8.30265C2.95636 8.42267 2.75013 8.54622 2.66787 8.63014C2.39686 8.90664 2.26927 9.29313 2.3224 9.67664C2.33852 9.79304 2.43066 10.0151 2.8333 10.4628C3.22448 10.8978 3.80482 11.4377 4.62983 12.2038L4.97418 12.5236C5.00261 12.55 5.03071 12.576 5.05845 12.6017C5.53162 13.0403 5.90299 13.3846 6.12522 13.8173C6.32039 14.1973 6.42434 14.6176 6.42883 15.0447C6.43394 15.5312 6.26421 16.0136 6.04753 16.6294C6.03474 16.6658 6.02177 16.7026 6.00867 16.74C5.58863 17.9371 5.29089 18.7877 5.12729 19.4266C4.95657 20.0933 4.9837 20.3538 5.02511 20.4593C5.17235 20.8343 5.49133 21.1154 5.88191 21.2142C5.99347 21.2425 6.25267 21.237 6.88174 20.9889C7.48604 20.7505 8.27943 20.3546 9.39754 19.7956L10.2335 19.3776C10.2599 19.3644 10.286 19.3513 10.3118 19.3384C10.7598 19.114 11.1121 18.9375 11.4929 18.8661C11.828 18.8032 12.1719 18.8032 12.5071 18.8661C12.8878 18.9375 13.2401 19.114 13.6881 19.3384C13.7139 19.3513 13.74 19.3644 13.7665 19.3776L14.6024 19.7956C15.7205 20.3546 16.5139 20.7505 17.1182 20.9889C17.7472 21.237 18.0064 21.2425 18.118 21.2142C18.5086 21.1154 18.8276 20.8343 18.9748 20.4593C19.0162 20.3538 19.0434 20.0933 18.8726 19.4266C18.709 18.7877 18.4113 17.9371 17.9912 16.74C17.9781 16.7026 17.9652 16.6658 17.9524 16.6294C17.7357 16.0136 17.566 15.5312 17.5711 15.0447C17.5756 14.6176 17.6795 14.1973 17.8747 13.8173C18.0969 13.3846 18.4683 13.0403 18.9415 12.6017C18.9692 12.576 18.9973 12.55 19.0257 12.5236L19.3701 12.2038C20.1951 11.4377 20.7754 10.8978 21.1666 10.4628C21.5693 10.0151 21.6614 9.79304 21.6775 9.67664C21.7306 9.29313 21.6031 8.90664 21.332 8.63014C21.2498 8.54622 21.0436 8.42267 20.4535 8.30265C19.8802 8.18604 19.0925 8.09777 17.9735 7.97345L17.6474 7.93721C17.6154 7.93365 17.5838 7.93017 17.5526 7.92672C17.0133 7.8672 16.5893 7.82041 16.207 7.65445C15.8708 7.50845 15.5671 7.2967 15.3138 7.03163C15.026 6.73031 14.8355 6.34865 14.5932 5.86314C14.5792 5.83506 14.565 5.80664 14.5506 5.77786L14.1913 5.05929C13.724 4.1247 13.3962 3.47067 13.1103 3.00915C12.8184 2.53791 12.6426 2.39301 12.5356 2.34227Z" fill="#334BFA"/>
</svg>
