<svg width="24" height="25" viewBox="0 0 24 25" fill="none" xmlns="http://www.w3.org/2000/svg">
<path fill-rule="evenodd" clip-rule="evenodd" d="M0.0871582 4.33199C0.0871582 2.06827 1.92227 0.233154 4.186 0.233154C6.19355 0.233154 7.86401 1.67644 8.21637 3.58199H11.9999C12.4142 3.58199 12.7499 3.91778 12.7499 4.33199C12.7499 4.74621 12.4142 5.08199 11.9999 5.08199H8.21637C7.86401 6.98755 6.19355 8.43083 4.186 8.43083C1.92227 8.43083 0.0871582 6.59572 0.0871582 4.33199ZM4.186 1.73315C5.62129 1.73315 6.78483 2.89669 6.78483 4.33199C6.78483 5.76729 5.62129 6.93083 4.186 6.93083C2.7507 6.93083 1.58716 5.76729 1.58716 4.33199C1.58716 2.89669 2.7507 1.73315 4.186 1.73315ZM4.936 12.1459C4.936 11.7317 4.60021 11.3959 4.186 11.3959C3.77178 11.3959 3.436 11.7317 3.436 12.1459L3.436 15.9295C1.53044 16.2819 0.0871582 17.9523 0.0871582 19.9599C0.0871582 22.2236 1.92227 24.0587 4.186 24.0587C6.44972 24.0587 8.28483 22.2236 8.28483 19.9599C8.28483 17.9523 6.84155 16.2819 4.936 15.9295V12.1459ZM20.5639 8.36237C22.4695 8.01001 23.9127 6.33955 23.9127 4.33199C23.9127 2.06827 22.0776 0.233154 19.8139 0.233154C17.5502 0.233154 15.7151 2.06827 15.7151 4.33199C15.7151 6.33955 17.1583 8.01001 19.0639 8.36237V12.1459C19.0639 12.5602 19.3997 12.8959 19.8139 12.8959C20.2281 12.8959 20.5639 12.5602 20.5639 12.1459V8.36237ZM19.8139 6.93083C18.3786 6.93083 17.2151 5.76729 17.2151 4.33199C17.2151 2.89669 18.3786 1.73315 19.8139 1.73315C21.2492 1.73315 22.4127 2.89669 22.4127 4.33199C22.4127 5.76729 21.2492 6.93083 19.8139 6.93083ZM11.9999 19.2099C11.5857 19.2099 11.2499 19.5457 11.2499 19.9599C11.2499 20.3741 11.5857 20.7099 11.9999 20.7099H15.7835C16.1359 22.6155 17.8063 24.0587 19.8139 24.0587C22.0776 24.0587 23.9127 22.2236 23.9127 19.9599C23.9127 17.6962 22.0776 15.8611 19.8139 15.8611C17.8063 15.8611 16.1359 17.3043 15.7835 19.2099H11.9999ZM17.2151 19.9599C17.2151 21.3952 18.3786 22.5587 19.8139 22.5587C21.2492 22.5587 22.4127 21.3952 22.4127 19.9599C22.4127 18.5246 21.2492 17.3611 19.8139 17.3611C18.3786 17.3611 17.2151 18.5246 17.2151 19.9599ZM4.186 17.3611C2.7507 17.3611 1.58716 18.5246 1.58716 19.9599C1.58716 21.3952 2.7507 22.5587 4.186 22.5587C5.62129 22.5587 6.78483 21.3952 6.78483 19.9599C6.78483 18.5246 5.62129 17.3611 4.186 17.3611Z" fill="#334BFA"/>
</svg>
