<svg width="23" height="22" viewBox="0 0 23 22" fill="none" xmlns="http://www.w3.org/2000/svg">
<path fill-rule="evenodd" clip-rule="evenodd" d="M8.374 2.34825L8.34031 2.3314C6.87027 1.59638 5.72545 1.02397 4.85164 0.669629C4.40976 0.490444 4.00534 0.353544 3.64076 0.28183C3.27957 0.210781 2.89812 0.191438 2.53507 0.308608C1.61199 0.606517 0.914123 1.36867 0.6985 2.31436C0.613693 2.68631 0.666489 3.06458 0.769009 3.41813C0.872489 3.775 1.04441 4.16581 1.26173 4.59023C1.6915 5.42951 2.36232 6.51958 3.2237 7.91932L3.24345 7.95142L4.32919 9.71574C4.73229 10.3708 4.83218 10.5516 4.87133 10.7262C4.91174 10.9063 4.91174 11.0932 4.87133 11.2734C4.83218 11.4479 4.73229 11.6288 4.32919 12.2838L3.24345 14.0481L3.22371 14.0802L3.22365 14.0803C2.3623 15.48 1.69149 16.5701 1.26173 17.4093C1.04441 17.8337 0.87249 18.2246 0.769009 18.5814C0.666489 18.935 0.613693 19.3132 0.6985 19.6852C0.914123 20.6309 1.61199 21.393 2.53507 21.6909C2.89812 21.8081 3.27957 21.7888 3.64076 21.7177C4.00534 21.646 4.40976 21.5091 4.85163 21.3299C5.72543 20.9756 6.87023 20.4032 8.34024 19.6682L8.37399 19.6513L18.6111 14.5328L18.6459 14.5153C19.5375 14.0695 20.2535 13.7115 20.7803 13.3852C21.3042 13.0607 21.7677 12.6945 22.0126 12.1782C22.3663 11.4324 22.3663 10.5671 22.0126 9.82133C21.7677 9.30502 21.3042 8.93882 20.7803 8.6143C20.2536 8.28801 19.5376 7.93003 18.6459 7.48423L18.6111 7.46679L8.374 2.34825ZM2.99577 1.73611C3.02158 1.72778 3.1191 1.70796 3.35126 1.75363C3.58004 1.79863 3.88338 1.89563 4.28796 2.05969C5.1004 2.38914 6.19248 2.93454 7.70318 3.68989L17.9403 8.80843C18.8748 9.27572 19.5289 9.60358 19.9904 9.88947C20.4616 10.1814 20.6065 10.3571 20.6573 10.4641C20.8181 10.8031 20.8181 11.1964 20.6573 11.5354C20.6065 11.6424 20.4616 11.8182 19.9904 12.1101C19.5289 12.396 18.8748 12.7238 17.9403 13.1911L7.70317 18.3097C6.19247 19.065 5.10039 19.6104 4.28796 19.9399C3.88338 20.1039 3.58004 20.2009 3.35126 20.2459C3.1191 20.2916 3.02158 20.2718 2.99577 20.2634C2.57619 20.128 2.25898 19.7816 2.16097 19.3517C2.15494 19.3253 2.14377 19.2264 2.20966 18.9992C2.2746 18.7752 2.39789 18.4816 2.59687 18.093C2.99645 17.3127 3.63573 16.2727 4.52094 14.8343L5.60667 13.07L5.66329 12.9781C5.98283 12.4598 6.23379 12.0527 6.33496 11.6017C6.42387 11.2053 6.42387 10.7942 6.33496 10.3979C6.23379 9.94684 5.98283 9.53979 5.66329 9.02148L5.66328 9.02147L5.60667 8.92959L4.52094 7.16527C3.63573 5.72681 2.99645 4.68689 2.59687 3.90656C2.39789 3.51796 2.2746 3.22432 2.20966 3.00039C2.14377 2.77314 2.15494 2.67426 2.16097 2.64781C2.25898 2.21795 2.57619 1.87152 2.99577 1.73611ZM10 10.25C9.58579 10.25 9.25 10.5858 9.25 11C9.25 11.4142 9.58579 11.75 10 11.75H14C14.4142 11.75 14.75 11.4142 14.75 11C14.75 10.5858 14.4142 10.25 14 10.25H10Z" fill="#FA336F"/>
</svg>
