<svg width="19" height="22" viewBox="0 0 19 22" fill="none" xmlns="http://www.w3.org/2000/svg">
<path fill-rule="evenodd" clip-rule="evenodd" d="M9.25039 0.395996C5.40414 0.395996 2.09257 3.11083 1.33826 6.88239L0.0844677 13.1514C-0.318256 15.165 0.750649 17.1891 2.61796 18.019C3.29979 18.322 3.99961 18.5758 4.71157 18.7803L4.81533 19.0138C5.5943 20.7665 7.3324 21.896 9.25039 21.896C11.1684 21.896 12.9065 20.7665 13.6855 19.0138L13.7892 18.7803C14.5012 18.5758 15.201 18.322 15.8828 18.019C17.7501 17.1891 18.819 15.165 18.4163 13.1514L17.1625 6.88239C16.4082 3.11083 13.0966 0.395996 9.25039 0.395996ZM13.1397 17.4041C13.0857 17.4122 13.0328 17.4262 12.982 17.4457C10.5415 18.0743 7.95925 18.0743 5.51882 17.4457C5.46802 17.4262 5.41513 17.4122 5.36109 17.4041C4.63406 17.2082 3.92024 16.9563 3.22717 16.6483C1.99199 16.0993 1.29222 14.7611 1.55534 13.4455L2.80913 7.17657C3.42322 4.10614 6.11916 1.896 9.25039 1.896C12.3816 1.896 15.0776 4.10614 15.6917 7.17657L16.9454 13.4455C17.2086 14.7611 16.5088 16.0993 15.2736 16.6483C14.5806 16.9563 13.8667 17.2082 13.1397 17.4041ZM6.69915 19.2191C8.38787 19.4832 10.1129 19.4832 11.8016 19.2191C11.1746 19.954 10.2477 20.396 9.25039 20.396C8.25309 20.396 7.32619 19.954 6.69915 19.2191Z" fill="#334BFA"/>
</svg>
