<svg width="22" height="22" viewBox="0 0 22 22" fill="none" xmlns="http://www.w3.org/2000/svg">
<path fill-rule="evenodd" clip-rule="evenodd" d="M16.7244 2.25625C17.6345 2.00143 18.2671 1.82509 18.7499 1.73647C19.2378 1.64693 19.4477 1.6738 19.5585 1.71576C19.8935 1.84262 20.1579 2.10707 20.2848 2.44202C20.3267 2.55281 20.3536 2.7628 20.2641 3.25065C20.1754 3.73348 19.9991 4.36608 19.7443 5.27612L16.8809 15.502C16.4809 16.9305 16.1934 17.9551 15.9247 18.6774C15.6401 19.4429 15.4443 19.6618 15.3517 19.7183C14.9881 19.9399 14.5367 19.9611 14.1538 19.7747C14.0563 19.7272 13.8408 19.5276 13.4854 18.7923C13.1501 18.0985 12.7675 17.1055 12.235 15.7208L11.211 13.0583L11.1831 12.9857L11.1831 12.9857C11.0684 12.6871 10.9712 12.4338 10.8514 12.2099L13.5308 9.53044C13.8237 9.23755 13.8237 8.76268 13.5308 8.46978C13.2379 8.17689 12.763 8.17689 12.4701 8.46978L9.7907 11.1492C9.56674 11.0293 9.31352 10.9321 9.01486 10.8174L8.94223 10.7895L6.27961 9.76546C4.89497 9.23291 3.90198 8.8503 3.20817 8.51496C2.47286 8.15956 2.27328 7.94407 2.2258 7.84657C2.03936 7.46374 2.06063 7.01233 2.28224 6.64872C2.33868 6.55612 2.55764 6.36035 3.32311 6.07566C4.04536 5.80704 5.06993 5.5195 6.49851 5.1195L16.7244 2.25625ZM20.0898 0.312998C19.5859 0.12216 19.0407 0.158043 18.4791 0.261115C17.9204 0.363657 17.2213 0.559416 16.3568 0.801477L16.3568 0.801485L16.32 0.811801L6.09407 3.67505L6.0567 3.68552L6.05668 3.68552C4.67344 4.07283 3.58821 4.37668 2.80023 4.66975C2.04837 4.94938 1.35492 5.28801 1.00139 5.86806C0.513841 6.668 0.467048 7.66111 0.877223 8.50334C1.17465 9.11406 1.83318 9.5164 2.55542 9.86548C3.31237 10.2313 4.36423 10.6359 5.70496 11.1516L5.74115 11.1655L8.40377 12.1896C8.92846 12.3914 9.06671 12.4504 9.17721 12.529C9.29109 12.61 9.39059 12.7095 9.47156 12.8233C9.55013 12.9338 9.60918 13.0721 9.81098 13.5968L10.835 16.2593L10.8489 16.2955C11.3645 17.6362 11.7691 18.6881 12.1349 19.445C12.484 20.1673 12.8863 20.8258 13.497 21.1233C14.3393 21.5334 15.3324 21.4867 16.1323 20.9991C16.7124 20.6456 17.051 19.9521 17.3307 19.2003C17.6237 18.4123 17.9276 17.3271 18.3149 15.9438L18.3254 15.9064L21.1887 5.68058L21.199 5.64375L21.199 5.64369C21.4411 4.77924 21.6369 4.08014 21.7394 3.52145C21.8425 2.95988 21.8784 2.41465 21.6876 1.91076C21.4085 1.17386 20.8267 0.592083 20.0898 0.312998Z" fill="#334BFA"/>
</svg>
