<svg width="22" height="22" viewBox="0 0 22 22" fill="none" xmlns="http://www.w3.org/2000/svg">
<path fill-rule="evenodd" clip-rule="evenodd" d="M14.325 3.25C14.6725 1.53832 16.1858 0.250003 18 0.250003C20.0711 0.250003 21.75 1.92894 21.75 4C21.75 6.07107 20.0711 7.75 18 7.75C16.1858 7.75 14.6725 6.46168 14.325 4.75L8 4.75C6.43146 4.75 5.12245 5.86118 4.8172 7.3393C6.49529 7.71226 7.75 9.20961 7.75 11C7.75 12.7904 6.49529 14.2877 4.8172 14.6607C5.12245 16.1388 6.43146 17.25 8 17.25L14.325 17.25C14.6725 15.5383 16.1858 14.25 18 14.25C20.0711 14.25 21.75 15.9289 21.75 18C21.75 20.0711 20.0711 21.75 18 21.75C16.1858 21.75 14.6725 20.4617 14.325 18.75L8 18.75C5.60912 18.75 3.63081 16.9836 3.29897 14.6846C1.56295 14.3563 0.249998 12.8315 0.249998 11C0.249998 9.16853 1.56295 7.6437 3.29897 7.31542C3.63081 5.01644 5.60912 3.25 8 3.25L14.325 3.25ZM15.75 18C15.75 19.2426 16.7574 20.25 18 20.25C19.2426 20.25 20.25 19.2426 20.25 18C20.25 16.7574 19.2426 15.75 18 15.75C16.7574 15.75 15.75 16.7574 15.75 18ZM15.75 4C15.75 5.24264 16.7574 6.25 18 6.25C19.2426 6.25 20.25 5.24264 20.25 4C20.25 2.75736 19.2426 1.75 18 1.75C16.7574 1.75 15.75 2.75736 15.75 4ZM4 8.75C2.75736 8.75 1.75 9.75736 1.75 11C1.75 12.2426 2.75736 13.25 4 13.25C5.24264 13.25 6.25 12.2426 6.25 11C6.25 9.75736 5.24264 8.75 4 8.75Z" fill="#334BFA"/>
</svg>
