<svg width="25" height="25" viewBox="0 0 25 25" fill="none" xmlns="http://www.w3.org/2000/svg">
<rect x="2" y="2" width="19.5" height="19.5" rx="6" fill="#FA336F" fill-opacity="0.2"/>
<path fill-rule="evenodd" clip-rule="evenodd" d="M11.5797 1.26416H11.6137H12.5601H12.594C14.2455 1.26416 15.5309 1.26415 16.5619 1.3484C17.6088 1.43393 18.4594 1.61004 19.2245 1.99987C20.4946 2.64701 21.5272 3.67963 22.1744 4.94972C22.5642 5.71481 22.7403 6.5654 22.8258 7.6123C22.9101 8.64338 22.9101 9.92877 22.9101 11.5802V11.6142V12.5606V12.5945C22.9101 14.246 22.9101 15.5314 22.8258 16.5624C22.7403 17.6093 22.5642 18.4599 22.1744 19.225C21.5272 20.4951 20.4946 21.5277 19.2245 22.1749C18.4594 22.5647 17.6088 22.7408 16.5619 22.8263C15.5309 22.9106 14.2455 22.9106 12.594 22.9106H12.5601H11.6137H11.5797C9.92828 22.9106 8.64289 22.9106 7.61181 22.8263C6.56492 22.7408 5.71432 22.5647 4.94924 22.1749C3.67914 21.5277 2.64652 20.4951 1.99938 19.225C1.60955 18.4599 1.43344 17.6093 1.34791 16.5624C1.26366 15.5313 1.26367 14.246 1.26367 12.5945V12.5606V11.6142V11.5802C1.26367 9.92878 1.26366 8.64338 1.34791 7.6123C1.43344 6.5654 1.60955 5.71481 1.99938 4.94972C2.64652 3.67963 3.67914 2.64701 4.94924 1.99987C5.71432 1.61004 6.56492 1.43393 7.61181 1.3484C8.64289 1.26415 9.92829 1.26416 11.5797 1.26416ZM7.73396 2.84341C6.77983 2.92137 6.14861 3.07225 5.63022 3.33638C4.64237 3.83971 3.83922 4.64286 3.33589 5.63071C3.07176 6.14909 2.92088 6.78031 2.84293 7.73444C2.76426 8.69733 2.76367 9.92162 2.76367 11.6142V12.5606C2.76367 14.2531 2.76426 15.4774 2.84293 16.4403C2.92088 17.3944 3.07176 18.0256 3.33589 18.544C3.83922 19.5319 4.64237 20.335 5.63022 20.8384C6.14861 21.1025 6.77983 21.2534 7.73396 21.3313C8.69684 21.41 9.92114 21.4106 11.6137 21.4106H12.5601C14.2526 21.4106 15.4769 21.41 16.4398 21.3313C17.3939 21.2534 18.0252 21.1025 18.5435 20.8384C19.5314 20.335 20.3345 19.5319 20.8379 18.544C21.102 18.0256 21.2529 17.3944 21.3308 16.4403C21.4095 15.4774 21.4101 14.2531 21.4101 12.5606V11.6142C21.4101 9.92163 21.4095 8.69733 21.3308 7.73445C21.2529 6.78031 21.102 6.14909 20.8379 5.63071C20.3345 4.64286 19.5314 3.83971 18.5435 3.33638C18.0252 3.07225 17.3939 2.92137 16.4398 2.84341C15.4769 2.76474 14.2526 2.76416 12.5601 2.76416H11.6137C9.92114 2.76416 8.69685 2.76474 7.73396 2.84341Z" fill="#FA336F"/>
</svg>
