<svg width="22" height="22" viewBox="0 0 22 22" fill="none" xmlns="http://www.w3.org/2000/svg">
<path fill-rule="evenodd" clip-rule="evenodd" d="M0.21967 0.96967C0.512563 0.676777 0.987437 0.676777 1.28033 0.96967L3.59193 3.28127L16.7867 16.4761L20.2803 19.9697C20.5732 20.2626 20.5732 20.7374 20.2803 21.0303C19.9874 21.3232 19.5126 21.3232 19.2197 21.0303L16.2237 18.0343C15.1481 18.9503 14.071 19.6897 13.1713 20.2224C12.6465 20.5331 12.174 20.7783 11.7898 20.9487C11.5984 21.0336 11.4201 21.1038 11.2626 21.1542C11.1246 21.1984 10.936 21.25 10.75 21.25C10.5667 21.25 10.3816 21.2 10.2462 21.157C10.0919 21.1081 9.91772 21.04 9.73116 20.9579C9.3568 20.7932 8.89689 20.5562 8.38581 20.2561C7.36307 19.6554 6.10322 18.7829 4.87491 17.6839C2.44522 15.51 0 12.3218 0 8.49999C0 6.59851 0.786353 4.96156 1.96886 3.77952L0.21967 2.03033C-0.0732233 1.73744 -0.0732233 1.26256 0.21967 0.96967ZM3.02939 4.84005C2.10245 5.76583 1.5 7.03372 1.5 8.49999C1.5 11.6782 3.55479 14.49 5.8751 16.5661C7.02179 17.592 8.19944 18.4071 9.14544 18.9626C9.61874 19.2406 10.026 19.4489 10.3353 19.585C10.4905 19.6533 10.6122 19.6995 10.6996 19.7272C10.7202 19.7337 10.7369 19.7386 10.75 19.7422C10.7641 19.7383 10.7823 19.733 10.8051 19.7257C10.8957 19.6967 11.0217 19.6484 11.1818 19.5774C11.5008 19.436 11.9205 19.2198 12.407 18.9317C13.2154 18.4531 14.1859 17.7893 15.1594 16.97L3.02939 4.84005ZM14.7391 3.24993C13.4289 3.23097 12.2003 3.67673 11.374 4.91605C11.2349 5.12469 11.0008 5.25002 10.75 5.25002C10.4992 5.25002 10.2651 5.12469 10.126 4.91605C9.30429 3.68355 8.05338 3.25001 6.75 3.25001C6.60633 3.25001 6.46228 3.25667 6.31828 3.26983C5.90579 3.30754 5.54083 3.00372 5.50311 2.59123C5.4654 2.17874 5.76922 1.81377 6.18172 1.77606C6.37037 1.75881 6.55999 1.75001 6.75 1.75001C8.12536 1.75001 9.61 2.14616 10.7484 3.30946C11.8783 2.14408 13.3481 1.72964 14.7609 1.75008C18.1159 1.79863 21.5 4.53724 21.5 8.49999C21.5 10.8172 20.5986 12.9002 19.3629 14.6525C19.2931 14.7516 19.2221 14.8497 19.1501 14.9467C18.9034 15.2795 18.4336 15.3492 18.1009 15.1024C17.7682 14.8557 17.6985 14.386 17.9452 14.0533C18.0103 13.9656 18.0742 13.8772 18.1371 13.7881C19.2544 12.2036 20 10.4177 20 8.49999C20 5.46278 17.3841 3.2882 14.7391 3.24993Z" fill="#FA336F"/>
</svg>
