<svg width="22" height="22" viewBox="0 0 22 22" fill="none" xmlns="http://www.w3.org/2000/svg">
<path fill-rule="evenodd" clip-rule="evenodd" d="M0.46967 1.11567C0.762563 0.822773 1.23744 0.822773 1.53033 1.11567L3.84193 3.42727L17.0367 16.6221L20.5303 20.1157C20.8232 20.4086 20.8232 20.8834 20.5303 21.1763C20.2374 21.4692 19.7626 21.4692 19.4697 21.1763L16.4737 18.1803C15.3981 19.0963 14.321 19.8357 13.4213 20.3684C12.8965 20.6791 12.424 20.9243 12.0398 21.0947C11.8484 21.1796 11.6701 21.2498 11.5126 21.3002C11.3746 21.3444 11.186 21.396 11 21.396C10.8167 21.396 10.6316 21.346 10.4962 21.303C10.3419 21.2541 10.1677 21.186 9.98116 21.1039C9.6068 20.9392 9.14689 20.7022 8.63581 20.4021C7.61307 19.8014 6.35322 18.9289 5.12491 17.8299C2.69522 15.656 0.25 12.4678 0.25 8.64599C0.25 6.7445 1.03635 5.10756 2.21886 3.92552L0.46967 2.17633C0.176777 1.88343 0.176777 1.40856 0.46967 1.11567ZM3.27939 4.98605C2.35245 5.91183 1.75 7.17972 1.75 8.64599C1.75 11.8242 3.80479 14.636 6.1251 16.7121C7.27179 17.738 8.44944 18.5531 9.39544 19.1086C9.86874 19.3866 10.276 19.5949 10.5853 19.731C10.7405 19.7993 10.8622 19.8455 10.9496 19.8732C10.9702 19.8797 10.9869 19.8846 11 19.8882C11.0141 19.8843 11.0323 19.879 11.0551 19.8717C11.1457 19.8427 11.2717 19.7944 11.4318 19.7234C11.7508 19.582 12.1705 19.3658 12.657 19.0777C13.4654 18.5991 14.4359 17.9353 15.4094 17.116L3.27939 4.98605ZM14.9891 3.39592C13.6789 3.37696 12.4503 3.82273 11.624 5.06204C11.4849 5.27069 11.2508 5.39602 11 5.39602C10.7492 5.39602 10.5151 5.27069 10.376 5.06204C9.55429 3.82954 8.30338 3.396 7 3.396C6.85633 3.396 6.71228 3.40266 6.56828 3.41583C6.15579 3.45354 5.79083 3.14972 5.75311 2.73722C5.7154 2.32473 6.01922 1.95977 6.43172 1.92206C6.62037 1.90481 6.80999 1.896 7 1.896C8.37536 1.896 9.86 2.29215 10.9984 3.45546C12.1283 2.29008 13.5981 1.87564 15.0109 1.89608C18.3659 1.94463 21.75 4.68323 21.75 8.64599C21.75 10.9632 20.8486 13.0462 19.6129 14.7985C19.5431 14.8976 19.4721 14.9957 19.4001 15.0927C19.1534 15.4255 18.6836 15.4952 18.3509 15.2484C18.0182 15.0017 17.9485 14.532 18.1952 14.1992C18.2603 14.1116 18.3242 14.0232 18.3871 13.9341C19.5044 12.3496 20.25 10.5637 20.25 8.64599C20.25 5.60878 17.6341 3.43419 14.9891 3.39592Z" fill="#334BFA"/>
</svg>
