<svg width="24" height="23" viewBox="0 0 24 23" fill="none" xmlns="http://www.w3.org/2000/svg">
<path fill-rule="evenodd" clip-rule="evenodd" d="M11.2716 0.81988C11.7483 0.688946 12.2515 0.688946 12.7283 0.819881C13.4359 1.01424 13.9269 1.56872 14.3496 2.21802C14.7729 2.86834 15.2271 3.77682 15.7931 4.90887L15.8154 4.95337L15.1446 5.28878L15.8154 4.95338L15.8629 5.04849C16.1996 5.72172 16.2979 5.89715 16.4247 6.02213C16.5254 6.12143 16.6423 6.2029 16.7703 6.26309C16.9314 6.33886 17.13 6.37049 17.8781 6.45361L17.9212 6.45841C19.1018 6.58956 20.0446 6.69431 20.7537 6.84487C21.4539 6.99352 22.1027 7.21813 22.5307 7.71945C22.9983 8.26709 23.2324 8.97629 23.1828 9.69468C23.1373 10.3523 22.7498 10.919 22.2757 11.4553C21.7956 11.9985 21.1005 12.644 20.2301 13.4522L20.1982 13.4818C19.8025 13.8492 19.4005 14.2112 18.9914 14.5661C18.6785 14.8375 18.2048 14.8039 17.9334 14.491C17.662 14.1782 17.6956 13.7045 18.0085 13.433C18.4037 13.0902 18.793 12.7396 19.1776 12.3826C20.087 11.5381 20.7268 10.9427 21.1519 10.4619C21.5888 9.96757 21.6773 9.72299 21.6864 9.59128C21.7089 9.26474 21.6025 8.94238 21.39 8.69345C21.3042 8.59305 21.0876 8.44918 20.4422 8.31216C19.8144 8.17888 18.9459 8.08149 17.7124 7.94443C17.6772 7.94053 17.6425 7.93669 17.6082 7.93291C17.0146 7.86744 16.5475 7.81593 16.1319 7.62049C15.8503 7.48807 15.5933 7.30882 15.3717 7.09037C15.0446 6.76797 14.8348 6.34749 14.5682 5.81315C14.5527 5.78225 14.5371 5.75097 14.5213 5.71931L15.1405 5.4097L14.5213 5.7193L14.4737 5.62419C13.8803 4.43735 13.4635 3.6064 13.0924 3.03635C12.7152 2.45678 12.4836 2.30822 12.331 2.26632C12.1143 2.2068 11.8856 2.2068 11.6689 2.26632C11.5241 2.30608 11.3044 2.44294 10.9523 2.96848C10.604 3.48816 10.2149 4.24809 9.67064 5.3353C9.48523 5.70569 9.03465 5.85565 8.66426 5.67024C8.29386 5.48482 8.1439 5.03424 8.32932 4.66385C8.85995 3.60383 9.29393 2.74869 9.70613 2.13351C10.1144 1.5242 10.5924 1.00644 11.2716 0.81988ZM2.46961 2.46924C2.7625 2.17635 3.23738 2.17635 3.53027 2.46924L7.61431 6.55328L20.2292 19.1681L22.5303 21.4692C22.8232 21.7621 22.8232 22.237 22.5303 22.5299C22.2374 22.8228 21.7625 22.8228 21.4696 22.5299L20.2372 21.2975C19.8807 21.9655 19.2615 22.4612 18.522 22.659C17.9029 22.8247 17.2367 22.6443 16.5682 22.3819C15.882 22.1125 15.013 21.6779 13.9172 21.13L13.8812 21.112L13.2364 20.7896C12.5235 20.4332 12.3295 20.3482 12.1403 20.3268C12.047 20.3163 11.9529 20.3163 11.8596 20.3268C11.6703 20.3482 11.4764 20.4332 10.7635 20.7896L10.1187 21.112L10.0826 21.1301C8.98687 21.6779 8.11783 22.1125 7.4317 22.3819C6.76321 22.6443 6.09695 22.8247 5.47785 22.659C4.64687 22.4367 3.96781 21.8383 3.64266 21.0419C3.40041 20.4486 3.49548 19.7649 3.67171 19.0687C3.8526 18.3542 4.17431 17.4373 4.57994 16.2813L4.59325 16.2433C4.86869 15.4584 4.93206 15.2439 4.92878 15.0522C4.92555 14.8637 4.87969 14.6783 4.79464 14.5099C4.70818 14.3388 4.55216 14.1787 3.94254 13.6126L3.80165 13.4818L4.31199 12.9322L3.80165 13.4818L3.76979 13.4522C2.8994 12.644 2.20426 11.9985 1.72413 11.4553C1.25007 10.919 0.862533 10.3523 0.817093 9.69468C0.767456 8.97629 1.00158 8.26709 1.46916 7.71945C1.89721 7.21813 2.54598 6.99352 3.24616 6.84487C3.82816 6.72131 4.56754 6.6286 5.46653 6.52683L2.46961 3.5299C2.17672 3.23701 2.17672 2.76214 2.46961 2.46924ZM6.82205 7.88234C6.66725 7.90225 6.49842 7.921 6.31494 7.94138L6.28746 7.94443C5.05396 8.08149 4.18546 8.17888 3.55768 8.31216C2.91231 8.44918 2.69565 8.59305 2.60992 8.69345C2.39738 8.94238 2.29096 9.26474 2.31353 9.59128C2.32263 9.72299 2.41105 9.96757 2.848 10.4619C3.27304 10.9427 3.91286 11.5381 4.82232 12.3826L4.96322 12.5134L4.45288 13.063L4.96322 12.5134C4.99219 12.5403 5.02082 12.5668 5.04909 12.593C5.53128 13.04 5.90983 13.3909 6.13345 13.8335C6.32057 14.2038 6.42146 14.6117 6.42856 15.0266C6.43705 15.5224 6.26572 16.0093 6.0475 16.6295C6.0347 16.6658 6.02174 16.7027 6.00865 16.74C5.58676 17.9424 5.28819 18.7955 5.12585 19.4368C4.95687 20.1044 4.98687 20.3659 5.03137 20.475C5.17917 20.8369 5.48783 21.1089 5.86555 21.21C5.97929 21.2404 6.24256 21.2373 6.88352 20.9856C7.49933 20.7438 8.3081 20.3403 9.44784 19.7704L10.0927 19.448C10.126 19.4313 10.159 19.4148 10.1915 19.3985C10.7573 19.115 11.2035 18.8914 11.6913 18.8363C11.8964 18.8132 12.1035 18.8132 12.3086 18.8363C12.7964 18.8914 13.2425 19.115 13.8083 19.3985C13.8409 19.4148 13.8738 19.4313 13.9072 19.448L14.552 19.7704C15.6918 20.3403 16.5006 20.7438 17.1164 20.9856C17.7573 21.2373 18.0206 21.2404 18.1343 21.21C18.512 21.1089 18.8207 20.8369 18.9685 20.4749C18.9925 20.4161 19.0179 20.2964 18.9926 20.0529L6.82205 7.88234Z" fill="#FA336F"/>
</svg>
