<svg width="24" height="24" viewBox="0 0 24 24" fill="none" xmlns="http://www.w3.org/2000/svg">
<path fill-rule="evenodd" clip-rule="evenodd" d="M12.629 0.815372C12.218 0.69566 11.7814 0.69566 11.3705 0.815372C11.0978 0.894801 10.8702 1.03159 10.6568 1.18803C10.4562 1.33517 10.2298 1.52922 9.96962 1.75224L9.96961 1.75225L9.94972 1.7693L8.6857 2.85274C8.41207 3.08728 8.35587 3.13031 8.30179 3.15958C8.23936 3.19336 8.17245 3.21811 8.10307 3.23309C8.04296 3.24606 7.97229 3.24997 7.6119 3.24997L6.3655 3.24997L6.33659 3.24997L6.33659 3.24997C5.94123 3.24996 5.60015 3.24995 5.31923 3.2729C5.02272 3.29712 4.7278 3.35061 4.44402 3.49521C4.02065 3.71092 3.67645 4.05513 3.46073 4.47849C3.31614 4.76228 3.26265 5.05719 3.23842 5.3537C3.21547 5.63463 3.21548 5.9757 3.2155 6.37107L3.2155 6.39997L3.2155 7.61987C3.2155 7.97719 3.21165 8.04725 3.19888 8.10691C3.18414 8.17576 3.15978 8.24219 3.12651 8.30425C3.09769 8.35802 3.05533 8.41396 2.82433 8.68656L1.74225 9.96356L1.72544 9.98339C1.50625 10.242 1.31543 10.4672 1.17071 10.6668C1.01677 10.879 0.882302 11.1051 0.804182 11.3756C0.686364 11.7835 0.686364 12.2164 0.804182 12.6243C0.882302 12.8948 1.01677 13.1209 1.17071 13.3332C1.31542 13.5327 1.50623 13.7579 1.72541 14.0165L1.74225 14.0364L2.82433 15.3134C3.05533 15.586 3.09769 15.6419 3.12651 15.6957C3.15978 15.7578 3.18414 15.8242 3.19888 15.893C3.21165 15.9527 3.2155 16.0228 3.2155 16.3801L3.2155 17.6L3.2155 17.6289C3.21548 18.0242 3.21547 18.3653 3.23842 18.6462C3.26265 18.9428 3.31614 19.2377 3.46073 19.5215C3.67645 19.9448 4.02065 20.289 4.44402 20.5047C4.7278 20.6493 5.02272 20.7028 5.31923 20.727C5.60013 20.75 5.94116 20.75 6.33648 20.75L6.33657 20.75L6.3655 20.75L7.6119 20.75C7.97229 20.75 8.04296 20.7539 8.10307 20.7669C8.17245 20.7818 8.23936 20.8066 8.30179 20.8404C8.35587 20.8696 8.41207 20.9127 8.6857 21.1472L9.94972 22.2306L9.9696 22.2477L9.96966 22.2477C10.2298 22.4707 10.4562 22.6648 10.6568 22.8119C10.8702 22.9684 11.0978 23.1051 11.3705 23.1846C11.7814 23.3043 12.218 23.3043 12.629 23.1846C12.9016 23.1051 13.1292 22.9684 13.3426 22.8119C13.5432 22.6648 13.7696 22.4707 14.0298 22.2477L14.0298 22.2477L14.0497 22.2306L15.3137 21.1472C15.5874 20.9127 15.6436 20.8696 15.6976 20.8404C15.7601 20.8066 15.827 20.7818 15.8964 20.7669C15.9565 20.7539 16.0271 20.75 16.3875 20.75L17.5997 20.75L17.6286 20.75L17.6287 20.75C18.024 20.75 18.3651 20.75 18.646 20.727C18.9425 20.7028 19.2374 20.6493 19.5212 20.5047C19.9446 20.289 20.2888 19.9448 20.5045 19.5214C20.6491 19.2377 20.7026 18.9428 20.7268 18.6462C20.7497 18.3653 20.7497 18.0243 20.7497 17.629L20.7497 17.6289L20.7497 17.6L20.7497 16.3878C20.7497 16.0274 20.7536 15.9567 20.7666 15.8966C20.7816 15.8272 20.8063 15.7603 20.8401 15.6979C20.8694 15.6438 20.9124 15.5876 21.1469 15.314L22.2304 14.05L22.2474 14.0301L22.2475 14.03C22.4705 13.7699 22.6645 13.5435 22.8117 13.3428C22.9681 13.1295 23.1049 12.9019 23.1843 12.6292C23.304 12.2183 23.304 11.7817 23.1843 11.3707C23.1049 11.098 22.9681 10.8705 22.8117 10.6571C22.6645 10.4564 22.4705 10.2301 22.2475 9.96992L22.2474 9.96985L22.2304 9.94998L21.1469 8.68596C20.9124 8.41233 20.8694 8.35613 20.8401 8.30204C20.8063 8.23962 20.7816 8.17271 20.7666 8.10333C20.7536 8.04321 20.7497 7.97254 20.7497 7.61215L20.7497 6.39997L20.7497 6.37105L20.7497 6.37095C20.7497 5.97564 20.7497 5.6346 20.7268 5.3537C20.7026 5.05719 20.6491 4.76228 20.5045 4.47849C20.2888 4.05513 19.9446 3.71092 19.5212 3.49521C19.2374 3.35061 18.9425 3.29712 18.646 3.2729C18.3651 3.24995 18.024 3.24996 17.6286 3.24997L17.5997 3.24997L16.3875 3.24997C16.0271 3.24997 15.9565 3.24606 15.8964 3.23309C15.827 3.21811 15.7601 3.19336 15.6976 3.15958C15.6436 3.13031 15.5874 3.08728 15.3137 2.85274L14.0497 1.7693L14.0298 1.75225C13.7696 1.52922 13.5433 1.33517 13.3426 1.18803C13.1292 1.03159 12.9016 0.894801 12.629 0.815372ZM11.79 2.25552C11.9269 2.21561 12.0725 2.21561 12.2095 2.25552C12.2476 2.26664 12.3141 2.29392 12.4556 2.39769C12.6047 2.50704 12.7877 2.66321 13.0735 2.90818L14.3375 3.99163L14.3799 4.02796L14.3799 4.02797C14.5875 4.20625 14.7707 4.36349 14.9837 4.47879C15.171 4.58014 15.3717 4.65439 15.5799 4.69932C15.8167 4.75043 16.0581 4.75023 16.3317 4.75L16.3875 4.74997L17.5997 4.74997C18.0321 4.74997 18.3113 4.75055 18.5238 4.76792C18.7276 4.78456 18.8031 4.81282 18.8402 4.83172C18.9813 4.90362 19.0961 5.01836 19.168 5.15948C19.1869 5.19656 19.2151 5.2721 19.2318 5.47585C19.2491 5.68835 19.2497 5.96756 19.2497 6.39997L19.2497 7.61215L19.2497 7.66795L19.2497 7.66798C19.2495 7.94165 19.2493 8.18302 19.3004 8.41981C19.3453 8.62796 19.4195 8.82868 19.5209 9.01596C19.6362 9.22902 19.7934 9.41216 19.9717 9.6198L20.0081 9.66215L21.0915 10.9262C21.3365 11.212 21.4926 11.3949 21.602 11.5441C21.7058 11.6856 21.733 11.752 21.7442 11.7902C21.7841 11.9272 21.7841 12.0727 21.7442 12.2097C21.733 12.2479 21.7058 12.3143 21.602 12.4559C21.4926 12.605 21.3365 12.788 21.0915 13.0738L20.0081 14.3378L19.9717 14.3801L19.9717 14.3802C19.7934 14.5878 19.6362 14.7709 19.5209 14.984C19.4195 15.1713 19.3453 15.372 19.3004 15.5801C19.2493 15.8169 19.2495 16.0583 19.2497 16.332L19.2497 16.332L19.2497 16.3878L19.2497 17.6C19.2497 18.0324 19.2491 18.3116 19.2318 18.5241C19.2151 18.7278 19.1869 18.8034 19.168 18.8405C19.0961 18.9816 18.9813 19.0963 18.8402 19.1682C18.8031 19.1871 18.7276 19.2154 18.5238 19.232C18.3113 19.2494 18.0321 19.25 17.5997 19.25L16.3875 19.25L16.3317 19.2499L16.3317 19.2499C16.058 19.2497 15.8167 19.2495 15.5799 19.3006C15.3717 19.3456 15.171 19.4198 14.9837 19.5212C14.7707 19.6365 14.5875 19.7937 14.3799 19.972L14.3799 19.972L14.3375 20.0083L13.0735 21.0918C12.7877 21.3367 12.6047 21.4929 12.4556 21.6022C12.3141 21.706 12.2476 21.7333 12.2095 21.7444C12.0725 21.7843 11.9269 21.7843 11.79 21.7444C11.7518 21.7333 11.6853 21.706 11.5438 21.6022C11.3947 21.4929 11.2117 21.3367 10.9259 21.0918L9.66189 20.0083L9.61955 19.972L9.61953 19.972C9.41189 19.7937 9.22876 19.6364 9.0157 19.5212C8.82842 19.4198 8.62771 19.3456 8.41956 19.3006C8.18276 19.2495 7.94139 19.2497 7.66772 19.2499L7.66769 19.2499L7.6119 19.25L6.3655 19.25C5.93308 19.25 5.65388 19.2494 5.44137 19.232C5.23763 19.2154 5.16209 19.1871 5.125 19.1682C4.98388 19.0963 4.86915 18.9816 4.79724 18.8405C4.77835 18.8034 4.75009 18.7278 4.73344 18.5241C4.71608 18.3116 4.7155 18.0324 4.7155 17.6L4.7155 16.3801L4.71553 16.3248C4.71575 16.0534 4.71595 15.814 4.66565 15.579C4.62143 15.3725 4.54835 15.1732 4.44855 14.987C4.33501 14.7752 4.18012 14.5927 4.0045 14.3858L3.96873 14.3437L2.88665 13.0667C2.64582 12.7825 2.4924 12.6006 2.38499 12.4525C2.28311 12.3121 2.25626 12.2461 2.24527 12.2081C2.206 12.0721 2.206 11.9278 2.24527 11.7919C2.25626 11.7538 2.28311 11.6879 2.38499 11.5474C2.4924 11.3993 2.64582 11.2175 2.88665 10.9333L3.96873 9.65629L4.00451 9.61411C4.18012 9.40721 4.33501 9.22473 4.44855 9.01293C4.54835 8.82676 4.62143 8.62746 4.66565 8.4209C4.71595 8.18592 4.71575 7.94656 4.71553 7.67518L4.7155 7.61987L4.7155 6.39997C4.7155 5.96756 4.71608 5.68835 4.73344 5.47585C4.75009 5.2721 4.77835 5.19656 4.79724 5.15948C4.86915 5.01836 4.98388 4.90362 5.125 4.83172C5.16209 4.81282 5.23763 4.78456 5.44137 4.76792C5.65388 4.75055 5.93308 4.74997 6.3655 4.74997L7.61189 4.74997L7.66769 4.75C7.94137 4.75023 8.18275 4.75043 8.41955 4.69932C8.62771 4.65439 8.82842 4.58014 9.0157 4.47879C9.22876 4.36349 9.41191 4.20624 9.61955 4.02796L9.66189 3.99163L10.9259 2.90818C11.2117 2.66321 11.3947 2.50704 11.5438 2.39769C11.6853 2.29392 11.7518 2.26664 11.79 2.25552ZM16.5302 9.5303C16.8231 9.23741 16.8231 8.76253 16.5302 8.46964C16.2373 8.17675 15.7625 8.17675 15.4696 8.46964L10.9999 12.9393L9.53023 11.4696C9.23733 11.1767 8.76246 11.1767 8.46957 11.4696C8.17667 11.7625 8.17667 12.2374 8.46957 12.5303L10.4696 14.5303C10.6102 14.671 10.801 14.75 10.9999 14.75C11.1988 14.75 11.3896 14.671 11.5302 14.5303L16.5302 9.5303Z" fill="#1BD2A4"/>
</svg>
