<svg width="16" height="16" viewBox="0 0 16 16" fill="none" xmlns="http://www.w3.org/2000/svg">
<path d="M3.84521 4.01367H5.72021C6.75575 4.01367 7.59521 4.85314 7.59521 5.88867C7.59521 6.92421 6.75575 7.76367 5.72021 7.76367C4.68468 7.76367 3.84521 6.92421 3.84521 5.88867V4.01367Z" fill="#334BFA"/>
<path d="M3.84521 10.8887C3.84521 9.85314 4.68468 9.01367 5.72021 9.01367C6.75575 9.01367 7.59521 9.85314 7.59521 10.8887C7.59521 11.9242 6.75575 12.7637 5.72021 12.7637H3.84521V10.8887Z" fill="#334BFA"/>
<path d="M8.84521 5.88867C8.84521 4.85314 9.68468 4.01367 10.7202 4.01367H12.5952V5.88867C12.5952 6.92421 11.7557 7.76367 10.7202 7.76367C9.68468 7.76367 8.84521 6.92421 8.84521 5.88867Z" fill="#334BFA"/>
<path d="M8.84521 10.8887C8.84521 9.85314 9.68468 9.01367 10.7202 9.01367C11.7557 9.01367 12.5952 9.85314 12.5952 10.8887V12.7637H10.7202C9.68468 12.7637 8.84521 11.9242 8.84521 10.8887Z" fill="#334BFA"/>
</svg>
