<svg width="25" height="19" viewBox="0 0 25 19" fill="none" xmlns="http://www.w3.org/2000/svg">
<path d="M7.67351 7.0027V2.05322L22.006 9.24047L4.71582 9.30646L7.67351 7.0027Z" fill="#334BFA"/>
<path d="M3.95548 13.7515H1.29176C1.15015 13.7515 1.01433 13.8077 0.914201 13.9079C0.814067 14.008 0.757813 14.1438 0.757812 14.2854C0.757813 14.427 0.814067 14.5628 0.914201 14.663C1.01433 14.7631 1.15015 14.8194 1.29176 14.8194H3.95548C4.09709 14.8194 4.2329 14.7631 4.33303 14.663C4.43316 14.5628 4.48942 14.427 4.48942 14.2854C4.48942 14.1438 4.43316 14.008 4.33303 13.9079C4.2329 13.8077 4.09709 13.7515 3.95548 13.7515Z" fill="#181818"/>
<path d="M24.7563 9.62452C24.7589 9.61266 24.7589 9.60038 24.7563 9.58852C24.746 9.55504 24.7319 9.52283 24.7143 9.49253C24.6896 9.45593 24.6615 9.42177 24.6303 9.39054C24.6303 9.39054 24.5763 9.34855 24.5403 9.33055L7.39414 0.751454C7.26759 0.688976 7.12144 0.679148 6.98766 0.724117C6.85388 0.769085 6.74334 0.865193 6.68022 0.991428C6.644 1.0662 6.62552 1.14832 6.62622 1.2314V6.57084L3.0926 9.33655L3.0446 9.39054V9.42054L3.00861 9.48053V9.51653C3.006 9.54246 3.006 9.56859 3.00861 9.59452C3.00861 9.59452 3.00861 9.59452 3.00861 9.62452C3.00234 9.66226 3.00234 9.70077 3.00861 9.73851C3.00597 9.77646 3.00597 9.81454 3.00861 9.85249C3.00713 9.86244 3.00713 9.87255 3.00861 9.88249C3.00679 9.90846 3.00679 9.93452 3.00861 9.96048V9.99048C3.01909 10.0127 3.03329 10.033 3.0506 10.0505V10.0865L3.1046 10.1345L6.63222 12.9062V18.2456C6.63179 18.3368 6.65472 18.4266 6.69883 18.5064C6.74294 18.5862 6.80676 18.6534 6.8842 18.7016C6.96301 18.7457 7.05184 18.7689 7.14217 18.7689C7.2325 18.7689 7.32133 18.7457 7.40014 18.7016L24.4623 10.2305C24.4941 10.2132 24.5242 10.1931 24.5523 10.1705C24.5835 10.1392 24.6117 10.1051 24.6363 10.0685C24.6528 10.0376 24.6669 10.0055 24.6783 9.97248C24.6757 9.96062 24.6757 9.94834 24.6783 9.93649C24.7385 9.84417 24.766 9.73431 24.7563 9.62452ZM7.71211 17.4237V12.6902C7.71128 12.6095 7.69255 12.5299 7.65728 12.4573C7.622 12.3847 7.57107 12.3208 7.50813 12.2702L4.9584 10.2904H21.9666L7.71211 17.4237ZM4.9584 9.22256L7.48413 7.24277C7.54707 7.19221 7.59801 7.12831 7.63328 7.0557C7.66855 6.98308 7.68728 6.90354 7.68811 6.82281V2.08931L21.9666 9.22256H4.9584Z" fill="#181818"/>
<path d="M1.29176 5.7549H3.95548C4.09709 5.7549 4.2329 5.69864 4.33303 5.59851C4.43316 5.49838 4.48942 5.36257 4.48942 5.22095C4.48942 5.07934 4.43316 4.94353 4.33303 4.8434C4.2329 4.74327 4.09709 4.68701 3.95548 4.68701H1.29176C1.15015 4.68701 1.01433 4.74327 0.914201 4.8434C0.814067 4.94353 0.757813 5.07934 0.757812 5.22095C0.757813 5.36257 0.814067 5.49838 0.914201 5.59851C1.01433 5.69864 1.15015 5.7549 1.29176 5.7549Z" fill="#181818"/>
</svg>
