<svg width="25" height="34" viewBox="0 0 25 34" fill="none" xmlns="http://www.w3.org/2000/svg">
<path d="M15.4331 13.7071C18.1815 14.5987 20.1202 18.0343 20.1202 18.0343H15.1549L14.9668 13.5435L18.4024 15.0649" fill="#334BFA"/>
<path d="M15.4331 13.7071C18.1815 14.5987 20.1202 18.0343 20.1202 18.0343H15.1549L14.9668 13.5435L18.4024 15.0649" stroke="#334BFA" stroke-width="0.510238"/>
<path d="M10.9901 22.7058H16.716C16.716 22.7058 13.444 31.1066 7.29272 26.2886C1.14139 21.4706 10.2539 16.5708 10.2539 16.5708V22.7058H10.9901Z" fill="#334BFA"/>
<path d="M24.537 8.11296L17.2404 0.840976C17.1146 0.707166 16.9414 0.627898 16.7578 0.620117H2.94186C2.36328 0.622272 1.80901 0.853069 1.39989 1.26219C0.990764 1.67131 0.759967 2.22558 0.757812 2.80417V31.1559C0.759967 31.7345 0.990764 32.2888 1.39989 32.6979C1.80901 33.107 2.36328 33.3378 2.94186 33.34H22.5738C23.1523 33.3378 23.7066 33.107 24.1157 32.6979C24.5249 32.2888 24.7557 31.7345 24.7578 31.1559V8.62012C24.7577 8.52497 24.738 8.43086 24.7 8.34363C24.662 8.25639 24.6065 8.17788 24.537 8.11296ZM17.4858 3.0741L22.2793 7.87574H18.1893C18.0033 7.86951 17.8268 7.79229 17.6959 7.65993C17.5651 7.52758 17.4899 7.35014 17.4858 7.16408V3.0741ZM22.5738 31.8676H2.94186C2.74878 31.8676 2.56361 31.7909 2.42708 31.6543C2.29055 31.5178 2.21385 31.3326 2.21385 31.1395V2.80417C2.21385 2.61108 2.29055 2.42591 2.42708 2.28938C2.56361 2.15285 2.74878 2.07615 2.94186 2.07615H16.0298V7.16408C16.032 7.74267 16.2627 8.29694 16.6719 8.70606C17.081 9.11518 17.6353 9.34598 18.2138 9.34813H23.3018V31.1559C23.3018 31.349 23.2251 31.5342 23.0886 31.6707C22.952 31.8072 22.7668 31.8839 22.5738 31.8839V31.8676ZM16.7578 21.7081H11.6699V16.6201C11.6678 16.4277 11.5904 16.2438 11.4543 16.1077C11.3182 15.9716 11.1343 15.8942 10.9419 15.8921C9.64759 15.8921 8.38238 16.2759 7.30623 16.995C6.23008 17.714 5.39132 18.736 4.89602 19.9318C4.40073 21.1276 4.27114 22.4433 4.52364 23.7127C4.77614 24.9821 5.39939 26.1482 6.31458 27.0634C7.22977 27.9785 8.39579 28.6018 9.6652 28.8543C10.9346 29.1068 12.2504 28.9772 13.4461 28.4819C14.6419 27.9866 15.6639 27.1479 16.383 26.0717C17.102 24.9956 17.4858 23.7303 17.4858 22.4361C17.4858 22.3405 17.467 22.2458 17.4304 22.1575C17.3938 22.0691 17.3402 21.9889 17.2726 21.9213C17.205 21.8537 17.1247 21.8001 17.0364 21.7635C16.9481 21.7269 16.8534 21.7081 16.7578 21.7081ZM10.9419 27.524C9.64952 27.5298 8.40324 27.0444 7.45529 26.166C6.50734 25.2876 5.92853 24.0818 5.83601 22.7928C5.74349 21.5037 6.14417 20.2277 6.95696 19.2229C7.76975 18.2181 8.93392 17.5597 10.2138 17.3809V22.4361C10.216 22.6285 10.2934 22.8124 10.4294 22.9485C10.5655 23.0846 10.7494 23.162 10.9419 23.1641H15.9971C15.8135 24.3746 15.203 25.4795 14.2759 26.2791C13.3488 27.0787 12.1662 27.5203 10.9419 27.524ZM14.5738 12.252C14.3807 12.252 14.1955 12.3287 14.059 12.4653C13.9225 12.6018 13.8457 12.787 13.8457 12.98V18.796C13.8457 18.9891 13.9225 19.1742 14.059 19.3108C14.1955 19.4473 14.3807 19.524 14.5738 19.524H20.3897C20.5828 19.524 20.768 19.4473 20.9045 19.3108C21.041 19.1742 21.1177 18.9891 21.1177 18.796C21.1177 17.9366 20.9485 17.0857 20.6196 16.2917C20.2907 15.4978 19.8087 14.7764 19.201 14.1687C18.5934 13.561 17.872 13.079 17.078 12.7501C16.2841 12.4213 15.4331 12.252 14.5738 12.252ZM15.3018 18.068V13.7081C16.3898 13.8747 17.3961 14.3843 18.1744 15.1626C18.9527 15.9409 19.4623 16.9473 19.629 18.0353L15.3018 18.068Z" fill="#181818"/>
</svg>
