<svg width="27" height="15" viewBox="0 0 27 15" fill="none" xmlns="http://www.w3.org/2000/svg">
<path d="M15.3958 9.63521L5.85352 1.36523H24.9381L15.3958 9.63521Z" fill="#334BFA"/>
<path d="M23.9456 0.26416H6.4132C5.81419 0.267514 5.24076 0.507394 4.81778 0.931564C4.3948 1.35573 4.15653 1.92984 4.15486 2.52886V3.3813C4.15486 3.53146 4.21451 3.67547 4.32069 3.78165C4.42687 3.88783 4.57088 3.94748 4.72104 3.94748C4.8712 3.94748 5.01521 3.88783 5.12139 3.78165C5.22756 3.67547 5.28721 3.53146 5.28721 3.3813V2.52886C5.28715 2.41405 5.3065 2.30005 5.34447 2.1917L11.706 7.62444L5.34447 13.0508C5.3065 12.9425 5.28715 12.8285 5.28721 12.7137V11.8676C5.28721 11.7932 5.27257 11.7196 5.24412 11.6509C5.21566 11.5822 5.17396 11.5198 5.12139 11.4672C5.06881 11.4146 5.0064 11.3729 4.93771 11.3445C4.86901 11.316 4.79539 11.3014 4.72104 11.3014C4.64669 11.3014 4.57307 11.316 4.50437 11.3445C4.43568 11.3729 4.37327 11.4146 4.32069 11.4672C4.26812 11.5198 4.22641 11.5822 4.19796 11.6509C4.16951 11.7196 4.15486 11.7932 4.15486 11.8676V12.7137C4.15653 13.3127 4.3948 13.8868 4.81778 14.311C5.24076 14.7351 5.81419 14.975 6.4132 14.9784H23.9456C24.5463 14.9767 25.122 14.7377 25.5473 14.3136C25.9727 13.8894 26.2133 13.3144 26.2166 12.7137V2.53522C26.2149 1.93342 25.9751 1.35674 25.5496 0.931193C25.124 0.50565 24.5474 0.265839 23.9456 0.26416ZM6.19055 1.42832C6.26393 1.41249 6.33983 1.41249 6.4132 1.42832H23.9456C24.0211 1.41289 24.099 1.41289 24.1746 1.42832L15.5483 8.7886C15.4406 8.8653 15.3116 8.90653 15.1794 8.90653C15.0471 8.90653 14.9181 8.8653 14.8104 8.7886L6.19055 1.42832ZM23.9456 13.8778H6.4132C6.33985 13.8938 6.2639 13.8938 6.19055 13.8778L12.5521 8.41327L14.0788 9.74282C14.3816 10.016 14.7748 10.1671 15.1826 10.1671C15.5903 10.1671 15.9836 10.016 16.2863 9.74282L17.813 8.41327L24.1746 13.8778C24.099 13.8934 24.0211 13.8934 23.9456 13.8778ZM25.0779 12.7455C25.0712 12.8617 25.0521 12.9769 25.0206 13.089L18.6591 7.65624L25.0206 2.22351C25.0526 2.33333 25.0718 2.44646 25.0779 2.56067V12.7455ZM2.45634 6.20582C2.45634 6.05566 2.51599 5.91165 2.62217 5.80547C2.72835 5.69929 2.87235 5.63964 3.02251 5.63964H6.4132C6.56336 5.63964 6.70737 5.69929 6.81355 5.80547C6.91973 5.91165 6.97938 6.05566 6.97938 6.20582C6.97938 6.35598 6.91973 6.49999 6.81355 6.60616C6.70737 6.71234 6.56336 6.77199 6.4132 6.77199H3.02251C2.94816 6.77199 2.87454 6.75735 2.80585 6.7289C2.73716 6.70044 2.67474 6.65874 2.62217 6.60616C2.56959 6.55359 2.52789 6.49118 2.49944 6.42248C2.47098 6.35379 2.45634 6.28017 2.45634 6.20582ZM6.4132 9.60287H1.32399C1.17383 9.60287 1.02982 9.54322 0.923641 9.43704C0.817463 9.33086 0.757813 9.18685 0.757812 9.03669C0.757812 8.88654 0.817463 8.74253 0.923641 8.63635C1.02982 8.53017 1.17383 8.47052 1.32399 8.47052H6.4132C6.56336 8.47052 6.70737 8.53017 6.81355 8.63635C6.91973 8.74253 6.97938 8.88654 6.97938 9.03669C6.97938 9.18685 6.91973 9.33086 6.81355 9.43704C6.70737 9.54322 6.56336 9.60287 6.4132 9.60287Z" fill="#181818"/>
<path d="M23.9456 0.26416H6.4132C5.81419 0.267514 5.24076 0.507394 4.81778 0.931564C4.3948 1.35573 4.15653 1.92984 4.15486 2.52886V3.3813C4.15486 3.53146 4.21451 3.67547 4.32069 3.78165C4.42687 3.88783 4.57088 3.94748 4.72104 3.94748C4.8712 3.94748 5.01521 3.88783 5.12139 3.78165C5.22756 3.67547 5.28721 3.53146 5.28721 3.3813V2.52886C5.28715 2.41405 5.3065 2.30005 5.34447 2.1917L11.706 7.62444L5.34447 13.0508C5.3065 12.9425 5.28715 12.8285 5.28721 12.7137V11.8676C5.28721 11.7932 5.27257 11.7196 5.24412 11.6509C5.21566 11.5822 5.17396 11.5198 5.12139 11.4672C5.06881 11.4146 5.0064 11.3729 4.93771 11.3445C4.86901 11.316 4.79539 11.3014 4.72104 11.3014C4.64669 11.3014 4.57307 11.316 4.50437 11.3445C4.43568 11.3729 4.37327 11.4146 4.32069 11.4672C4.26812 11.5198 4.22641 11.5822 4.19796 11.6509C4.16951 11.7196 4.15486 11.7932 4.15486 11.8676V12.7137C4.15653 13.3127 4.3948 13.8868 4.81778 14.311C5.24076 14.7351 5.81419 14.975 6.4132 14.9784H23.9456C24.5463 14.9767 25.122 14.7377 25.5473 14.3136C25.9727 13.8894 26.2133 13.3144 26.2166 12.7137V2.53522C26.2149 1.93342 25.9751 1.35674 25.5496 0.931193C25.124 0.50565 24.5474 0.265839 23.9456 0.26416ZM6.19055 1.42832C6.26393 1.41249 6.33983 1.41249 6.4132 1.42832H23.9456C24.0211 1.41289 24.099 1.41289 24.1746 1.42832L15.5483 8.7886C15.4406 8.8653 15.3116 8.90653 15.1794 8.90653C15.0471 8.90653 14.9181 8.8653 14.8104 8.7886L6.19055 1.42832ZM23.9456 13.8778H6.4132C6.33985 13.8938 6.2639 13.8938 6.19055 13.8778L12.5521 8.41327L14.0788 9.74282C14.3816 10.016 14.7748 10.1671 15.1826 10.1671C15.5903 10.1671 15.9836 10.016 16.2863 9.74282L17.813 8.41327L24.1746 13.8778C24.099 13.8934 24.0211 13.8934 23.9456 13.8778ZM25.0779 12.7455C25.0712 12.8617 25.0521 12.9769 25.0206 13.089L18.6591 7.65624L25.0206 2.22351C25.0526 2.33333 25.0718 2.44646 25.0779 2.56067V12.7455ZM2.45634 6.20582C2.45634 6.05566 2.51599 5.91165 2.62217 5.80547C2.72835 5.69929 2.87235 5.63964 3.02251 5.63964H6.4132C6.56336 5.63964 6.70737 5.69929 6.81355 5.80547C6.91973 5.91165 6.97938 6.05566 6.97938 6.20582C6.97938 6.35598 6.91973 6.49999 6.81355 6.60616C6.70737 6.71234 6.56336 6.77199 6.4132 6.77199H3.02251C2.94816 6.77199 2.87454 6.75735 2.80585 6.7289C2.73716 6.70044 2.67474 6.65874 2.62217 6.60616C2.56959 6.55359 2.52789 6.49118 2.49944 6.42248C2.47098 6.35379 2.45634 6.28017 2.45634 6.20582ZM6.4132 9.60287H1.32399C1.17383 9.60287 1.02982 9.54322 0.923641 9.43704C0.817463 9.33086 0.757813 9.18685 0.757812 9.03669C0.757812 8.88654 0.817463 8.74253 0.923641 8.63635C1.02982 8.53017 1.17383 8.47052 1.32399 8.47052H6.4132C6.56336 8.47052 6.70737 8.53017 6.81355 8.63635C6.91973 8.74253 6.97938 8.88654 6.97938 9.03669C6.97938 9.18685 6.91973 9.33086 6.81355 9.43704C6.70737 9.54322 6.56336 9.60287 6.4132 9.60287Z" fill="#181818"/>
</svg>
