<svg width="25" height="21" viewBox="0 0 25 21" fill="none" xmlns="http://www.w3.org/2000/svg">
<path d="M7.69393 11.5964C7.00013 11.4548 6.27849 11.5946 5.68776 11.9851C5.09702 12.3755 4.68558 12.9846 4.54395 13.6784H9.75792C9.65449 13.1679 9.40398 12.6987 9.03724 12.3288C8.6705 11.9589 8.20356 11.7043 7.69393 11.5964Z" fill="#334BFA"/>
<path d="M7.15971 10.4743C7.30629 10.4853 7.45356 10.4659 7.59231 10.4174C7.73106 10.3689 7.85829 10.2922 7.96606 10.1923C8.07382 10.0923 8.15978 9.97115 8.21857 9.83643C8.27735 9.7017 8.3077 9.5563 8.3077 9.4093C8.3077 9.26231 8.27735 9.1169 8.21857 8.98218C8.15978 8.84745 8.07382 8.72632 7.96606 8.62635C7.85829 8.52638 7.73106 8.44973 7.59231 8.4012C7.45356 8.35267 7.30629 8.3333 7.15971 8.34431C7.01313 8.3333 6.86586 8.35267 6.72711 8.4012C6.58836 8.44973 6.46112 8.52638 6.35336 8.62635C6.2456 8.72632 6.15963 8.84745 6.10085 8.98218C6.04206 9.1169 6.01172 9.26231 6.01172 9.4093C6.01172 9.5563 6.04206 9.7017 6.10085 9.83643C6.15963 9.97115 6.2456 10.0923 6.35336 10.1923C6.46112 10.2922 6.58836 10.3689 6.72711 10.4174C6.86586 10.4659 7.01313 10.4853 7.15971 10.4743Z" fill="#334BFA"/>
<path d="M23.6898 6.29231V1.94233C23.6898 1.51849 23.5219 1.11192 23.2227 0.811661C22.9236 0.511401 22.5177 0.341919 22.0938 0.340332H3.4219C2.99807 0.341919 2.59213 0.511401 2.293 0.811661C1.99386 1.11192 1.8259 1.51849 1.82591 1.94233V3.08832C1.51087 3.19874 1.23838 3.40517 1.0468 3.67855C0.855218 3.95193 0.754182 4.27851 0.757912 4.61231V18.4783C0.7595 18.9021 0.928981 19.308 1.22924 19.6072C1.5295 19.9063 1.93607 20.0743 2.35991 20.0742H23.1558C23.5797 20.0743 23.9862 19.9063 24.2865 19.6072C24.5867 19.308 24.7562 18.9021 24.7578 18.4783V7.8103C24.7526 7.47935 24.648 7.15761 24.4575 6.8869C24.267 6.61619 23.9996 6.40902 23.6898 6.29231ZM2.8939 1.94233C2.8939 1.8722 2.90772 1.80276 2.93455 1.73797C2.96139 1.67319 3.00072 1.61432 3.05031 1.56473C3.09989 1.51515 3.15876 1.47581 3.22355 1.44898C3.28834 1.42214 3.35777 1.40833 3.4279 1.40833H22.0938C22.235 1.40989 22.3699 1.46665 22.4697 1.56646C22.5695 1.66626 22.6263 1.80118 22.6278 1.94233V6.20831H13.5319C13.4019 5.31834 12.9555 4.50506 12.2744 3.91765C11.5933 3.33025 10.7233 3.00811 9.82387 3.01032H2.8939V1.94233ZM23.6898 18.4783C23.6883 18.6194 23.6315 18.7543 23.5317 18.8541C23.4319 18.9539 23.297 19.0107 23.1558 19.0123H2.35991C2.21876 19.0107 2.08384 18.9539 1.98404 18.8541C1.88423 18.7543 1.82747 18.6194 1.82591 18.4783V4.61231C1.82591 4.47069 1.88217 4.33486 1.98231 4.23472C2.08246 4.13458 2.21828 4.07832 2.35991 4.07832H9.82387C10.5305 4.07989 11.2078 4.36088 11.708 4.85996C12.2082 5.35904 12.4907 6.03571 12.4939 6.74231C12.4931 6.81215 12.5061 6.88145 12.5323 6.9462C12.5585 7.01096 12.5973 7.06987 12.6464 7.11954C12.6955 7.16921 12.754 7.20864 12.8184 7.23555C12.8829 7.26245 12.952 7.27631 13.0219 7.2763H23.1558C23.2974 7.2763 23.4333 7.33256 23.5334 7.43271C23.6336 7.53285 23.6898 7.66868 23.6898 7.8103V18.4783Z" fill="#181818"/>
<path d="M8.22088 16.3428H3.9549C3.81327 16.3428 3.67745 16.399 3.5773 16.4992C3.47716 16.5993 3.4209 16.7351 3.4209 16.8768C3.4209 17.0184 3.47716 17.1542 3.5773 17.2544C3.67745 17.3545 3.81327 17.4108 3.9549 17.4108H8.22088C8.3625 17.4108 8.49833 17.3545 8.59847 17.2544C8.69862 17.1542 8.75488 17.0184 8.75488 16.8768C8.75488 16.7351 8.69862 16.5993 8.59847 16.4992C8.49833 16.399 8.3625 16.3428 8.22088 16.3428Z" fill="#181818"/>
<path d="M8.73144 10.8226C9.08756 10.4391 9.28671 9.93588 9.28944 9.41257C9.30886 9.12368 9.26934 8.83386 9.1733 8.56072C9.07725 8.28758 8.92667 8.03682 8.73072 7.82367C8.53476 7.61052 8.29751 7.43943 8.0334 7.32081C7.76928 7.20218 7.4838 7.13849 7.1943 7.1336C6.90481 7.12872 6.61734 7.18274 6.34937 7.29239C6.08139 7.40203 5.83851 7.56501 5.63547 7.77143C5.43244 7.97784 5.27348 8.22338 5.16827 8.49313C5.06306 8.76287 5.01379 9.05119 5.02345 9.34057V9.41257C5.02248 9.93215 5.21253 10.434 5.55745 10.8226C4.9137 11.1255 4.36906 11.6048 3.98674 12.2049C3.60441 12.8049 3.40008 13.5011 3.39746 14.2125C3.39904 14.3531 3.456 14.4874 3.55597 14.5863C3.65594 14.6851 3.79087 14.7406 3.93146 14.7405H10.3574C10.4273 14.7413 10.4966 14.7283 10.5613 14.7021C10.6261 14.6759 10.685 14.6371 10.7347 14.588C10.7843 14.5389 10.8238 14.4805 10.8507 14.416C10.8776 14.3515 10.8914 14.2824 10.8914 14.2125C10.8888 13.5011 10.6845 12.8049 10.3022 12.2049C9.91983 11.6048 9.37519 11.1255 8.73144 10.8226ZM7.15945 8.34457C7.37067 8.34457 7.57716 8.40721 7.75279 8.52456C7.92842 8.64191 8.06531 8.80871 8.14614 9.00386C8.22698 9.19901 8.24813 9.41375 8.20692 9.62092C8.16571 9.82809 8.06399 10.0184 7.91463 10.1678C7.76527 10.3171 7.57497 10.4188 7.3678 10.46C7.16063 10.5012 6.94589 10.4801 6.75074 10.3993C6.55559 10.3184 6.38879 10.1815 6.27144 10.0059C6.15409 9.83028 6.09145 9.6238 6.09145 9.41257C6.09145 9.12932 6.20397 8.85767 6.40426 8.65738C6.60455 8.45709 6.8762 8.34457 7.15945 8.34457ZM4.54346 13.6785C4.66351 13.0739 4.98957 12.5295 5.46606 12.1383C5.94254 11.7471 6.53995 11.5333 7.15645 11.5333C7.77294 11.5333 8.37035 11.7471 8.84683 12.1383C9.32332 12.5295 9.64938 13.0739 9.76943 13.6785H4.54346Z" fill="#181818"/>
</svg>
