<svg width="256" height="76" viewBox="0 0 256 76" fill="none" xmlns="http://www.w3.org/2000/svg">
<g clip-path="url(#clip0_8009_53625)">
<path d="M6.37926 7.90909H9.11506V17.0369C9.11506 17.8807 8.92543 18.6136 8.54616 19.2358C8.17116 19.858 7.64915 20.3374 6.98011 20.674C6.31108 21.0107 5.53338 21.179 4.64702 21.179C3.85866 21.179 3.14276 21.0405 2.49929 20.7635C1.86009 20.4822 1.35298 20.0561 0.977983 19.4851C0.602983 18.9098 0.417614 18.1875 0.421875 17.3182H3.17685C3.18537 17.6634 3.25568 17.9595 3.38778 18.2067C3.52415 18.4496 3.70952 18.6371 3.94389 18.7692C4.18253 18.897 4.46378 18.9609 4.78764 18.9609C5.12855 18.9609 5.41619 18.8885 5.65057 18.7436C5.8892 18.5945 6.07031 18.3771 6.19389 18.0916C6.31747 17.8061 6.37926 17.4545 6.37926 17.0369V7.90909ZM14.9702 21.1598C14.2244 21.1598 13.549 20.968 12.9439 20.5845C12.343 20.1967 11.8658 19.6278 11.5121 18.8778C11.1626 18.1236 10.9879 17.1989 10.9879 16.1037C10.9879 14.9787 11.169 14.0433 11.5312 13.2976C11.8935 12.5476 12.375 11.9872 12.9759 11.6165C13.581 11.2415 14.2436 11.054 14.9638 11.054C15.5135 11.054 15.9716 11.1477 16.3381 11.3352C16.7088 11.5185 17.0071 11.7486 17.233 12.0256C17.4631 12.2983 17.6378 12.5668 17.7571 12.831H17.8402V11.1818H20.5568V21H17.8722V19.4276H17.7571C17.6293 19.7003 17.4482 19.9709 17.2138 20.2393C16.9837 20.5036 16.6832 20.723 16.3125 20.8977C15.946 21.0724 15.4986 21.1598 14.9702 21.1598ZM15.8331 18.9929C16.272 18.9929 16.6428 18.8736 16.9453 18.6349C17.2521 18.392 17.4865 18.0533 17.6484 17.6186C17.8146 17.1839 17.8977 16.6747 17.8977 16.0909C17.8977 15.5071 17.8168 15 17.6548 14.5696C17.4929 14.1392 17.2585 13.8068 16.9517 13.5724C16.6449 13.3381 16.272 13.2209 15.8331 13.2209C15.3857 13.2209 15.0085 13.3423 14.7017 13.5852C14.3949 13.8281 14.1626 14.1648 14.005 14.5952C13.8473 15.0256 13.7685 15.5241 13.7685 16.0909C13.7685 16.6619 13.8473 17.1669 14.005 17.6058C14.1669 18.0405 14.3991 18.3814 14.7017 18.6286C15.0085 18.8714 15.3857 18.9929 15.8331 18.9929ZM25.5186 15.3239V21H22.7956V11.1818H25.3908V12.9141H25.5059C25.7232 12.343 26.0875 11.8913 26.5989 11.5589C27.1103 11.2223 27.7303 11.054 28.459 11.054C29.1408 11.054 29.7353 11.2031 30.2424 11.5014C30.7495 11.7997 31.1436 12.2259 31.4249 12.7798C31.7061 13.3295 31.8468 13.9858 31.8468 14.7486V21H29.1238V15.2344C29.128 14.6335 28.9746 14.1648 28.6635 13.8281C28.3525 13.4872 27.9242 13.3168 27.3787 13.3168C27.0123 13.3168 26.6884 13.3956 26.4071 13.5533C26.1301 13.7109 25.9128 13.9411 25.7551 14.2436C25.6017 14.5419 25.5229 14.902 25.5186 15.3239ZM38.4673 21.1918C37.4574 21.1918 36.5881 20.9872 35.8594 20.5781C35.1349 20.1648 34.5767 19.581 34.1847 18.8267C33.7926 18.0682 33.5966 17.1712 33.5966 16.1357C33.5966 15.1257 33.7926 14.2393 34.1847 13.4766C34.5767 12.7138 35.1286 12.1193 35.8402 11.6932C36.5561 11.267 37.3956 11.054 38.3587 11.054C39.0064 11.054 39.6094 11.1584 40.1676 11.3672C40.7301 11.5717 41.2202 11.8807 41.6378 12.294C42.0597 12.7074 42.3878 13.2273 42.6222 13.8537C42.8565 14.4759 42.9737 15.2045 42.9737 16.0398V16.7876H34.6832V15.1001H40.4105C40.4105 14.7081 40.3253 14.3608 40.1548 14.0582C39.9844 13.7557 39.7479 13.5192 39.4453 13.3487C39.147 13.174 38.7997 13.0866 38.4034 13.0866C37.9901 13.0866 37.6236 13.1825 37.304 13.3743C36.9886 13.5618 36.7415 13.8153 36.5625 14.1349C36.3835 14.4503 36.2919 14.8018 36.2876 15.1896V16.794C36.2876 17.2798 36.3771 17.6996 36.5561 18.0533C36.7393 18.407 36.9972 18.6797 37.3295 18.8714C37.6619 19.0632 38.0561 19.1591 38.5121 19.1591C38.8146 19.1591 39.0916 19.1165 39.343 19.0312C39.5945 18.946 39.8097 18.8182 39.9886 18.6477C40.1676 18.4773 40.304 18.2685 40.3977 18.0213L42.9162 18.1875C42.7884 18.7926 42.5263 19.321 42.13 19.7727C41.7379 20.2202 41.2308 20.5696 40.6087 20.821C39.9908 21.0682 39.277 21.1918 38.4673 21.1918ZM60.5183 12.4922H57.7186C57.6674 12.13 57.563 11.8082 57.4054 11.527C57.2477 11.2415 57.0453 10.9986 56.7981 10.7983C56.551 10.598 56.2654 10.4446 55.9416 10.3381C55.622 10.2315 55.2747 10.1783 54.8997 10.1783C54.2221 10.1783 53.6319 10.3466 53.1291 10.6832C52.6262 11.0156 52.2363 11.5014 51.9593 12.1406C51.6824 12.7756 51.5439 13.5469 51.5439 14.4545C51.5439 15.3878 51.6824 16.1719 51.9593 16.8068C52.2406 17.4418 52.6326 17.9212 53.1355 18.245C53.6383 18.5689 54.22 18.7308 54.8805 18.7308C55.2512 18.7308 55.5943 18.6818 55.9096 18.5838C56.2292 18.4858 56.5126 18.343 56.7598 18.1555C57.0069 17.9638 57.2115 17.7315 57.3734 17.4588C57.5396 17.1861 57.6547 16.875 57.7186 16.5256L60.5183 16.5384C60.4458 17.1392 60.2647 17.7188 59.975 18.277C59.6895 18.831 59.3038 19.3274 58.818 19.7663C58.3365 20.201 57.7612 20.5462 57.0922 20.8018C56.4274 21.0533 55.6752 21.179 54.8358 21.179C53.6681 21.179 52.6241 20.9148 51.7037 20.3864C50.7875 19.858 50.063 19.093 49.5304 18.0916C49.002 17.0902 48.7377 15.8778 48.7377 14.4545C48.7377 13.027 49.0062 11.8125 49.5431 10.8111C50.0801 9.80966 50.8088 9.04687 51.7292 8.52273C52.6497 7.99432 53.6852 7.73011 54.8358 7.73011C55.5943 7.73011 56.2974 7.83665 56.9451 8.04972C57.5971 8.26278 58.1745 8.57386 58.6774 8.98295C59.1802 9.38778 59.5893 9.88423 59.9047 10.4723C60.2243 11.0604 60.4288 11.7337 60.5183 12.4922ZM66.888 21.1918C65.8951 21.1918 65.0364 20.9808 64.312 20.5589C63.5918 20.1328 63.0357 19.5405 62.6436 18.782C62.2516 18.0192 62.0556 17.1349 62.0556 16.1293C62.0556 15.1151 62.2516 14.2287 62.6436 13.4702C63.0357 12.7074 63.5918 12.1151 64.312 11.6932C65.0364 11.267 65.8951 11.054 66.888 11.054C67.8809 11.054 68.7374 11.267 69.4576 11.6932C70.182 12.1151 70.7402 12.7074 71.1323 13.4702C71.5243 14.2287 71.7203 15.1151 71.7203 16.1293C71.7203 17.1349 71.5243 18.0192 71.1323 18.782C70.7402 19.5405 70.182 20.1328 69.4576 20.5589C68.7374 20.9808 67.8809 21.1918 66.888 21.1918ZM66.9007 19.0824C67.3525 19.0824 67.7296 18.9545 68.0321 18.6989C68.3347 18.4389 68.5627 18.0852 68.7161 17.6378C68.8738 17.1903 68.9526 16.6811 68.9526 16.1101C68.9526 15.5391 68.8738 15.0298 68.7161 14.5824C68.5627 14.1349 68.3347 13.7812 68.0321 13.5213C67.7296 13.2614 67.3525 13.1314 66.9007 13.1314C66.4448 13.1314 66.0613 13.2614 65.7502 13.5213C65.4434 13.7812 65.2111 14.1349 65.0534 14.5824C64.9 15.0298 64.8233 15.5391 64.8233 16.1101C64.8233 16.6811 64.9 17.1903 65.0534 17.6378C65.2111 18.0852 65.4434 18.4389 65.7502 18.6989C66.0613 18.9545 66.4448 19.0824 66.9007 19.0824ZM77.927 21.1918C76.9341 21.1918 76.0755 20.9808 75.351 20.5589C74.6309 20.1328 74.0748 19.5405 73.6827 18.782C73.2907 18.0192 73.0946 17.1349 73.0946 16.1293C73.0946 15.1151 73.2907 14.2287 73.6827 13.4702C74.0748 12.7074 74.6309 12.1151 75.351 11.6932C76.0755 11.267 76.9341 11.054 77.927 11.054C78.9199 11.054 79.7765 11.267 80.4966 11.6932C81.2211 12.1151 81.7793 12.7074 82.1713 13.4702C82.5634 14.2287 82.7594 15.1151 82.7594 16.1293C82.7594 17.1349 82.5634 18.0192 82.1713 18.782C81.7793 19.5405 81.2211 20.1328 80.4966 20.5589C79.7765 20.9808 78.9199 21.1918 77.927 21.1918ZM77.9398 19.0824C78.3915 19.0824 78.7686 18.9545 79.0712 18.6989C79.3738 18.4389 79.6017 18.0852 79.7551 17.6378C79.9128 17.1903 79.9917 16.6811 79.9917 16.1101C79.9917 15.5391 79.9128 15.0298 79.7551 14.5824C79.6017 14.1349 79.3738 13.7812 79.0712 13.5213C78.7686 13.2614 78.3915 13.1314 77.9398 13.1314C77.4838 13.1314 77.1003 13.2614 76.7892 13.5213C76.4824 13.7812 76.2502 14.1349 76.0925 14.5824C75.9391 15.0298 75.8624 15.5391 75.8624 16.1101C75.8624 16.6811 75.9391 17.1903 76.0925 17.6378C76.2502 18.0852 76.4824 18.4389 76.7892 18.6989C77.1003 18.9545 77.4838 19.0824 77.9398 19.0824ZM84.53 24.6818V11.1818H87.2147V12.831H87.3361C87.4554 12.5668 87.628 12.2983 87.8539 12.0256C88.084 11.7486 88.3823 11.5185 88.7488 11.3352C89.1195 11.1477 89.5797 11.054 90.1294 11.054C90.8453 11.054 91.5059 11.2415 92.111 11.6165C92.7161 11.9872 93.1998 12.5476 93.562 13.2976C93.9242 14.0433 94.1053 14.9787 94.1053 16.1037C94.1053 17.1989 93.9284 18.1236 93.5748 18.8778C93.2253 19.6278 92.748 20.1967 92.1429 20.5845C91.5421 20.968 90.8688 21.1598 90.123 21.1598C89.5946 21.1598 89.1451 21.0724 88.7743 20.8977C88.4078 20.723 88.1074 20.5036 87.873 20.2393C87.6387 19.9709 87.4597 19.7003 87.3361 19.4276H87.253V24.6818H84.53ZM87.1955 16.0909C87.1955 16.6747 87.2765 17.1839 87.4384 17.6186C87.6003 18.0533 87.8347 18.392 88.1415 18.6349C88.4483 18.8736 88.8212 18.9929 89.2601 18.9929C89.7033 18.9929 90.0783 18.8714 90.3851 18.6286C90.6919 18.3814 90.9242 18.0405 91.0819 17.6058C91.2438 17.1669 91.3248 16.6619 91.3248 16.0909C91.3248 15.5241 91.2459 15.0256 91.0882 14.5952C90.9306 14.1648 90.6983 13.8281 90.3915 13.5852C90.0847 13.3423 89.7076 13.2209 89.2601 13.2209C88.8169 13.2209 88.4419 13.3381 88.1351 13.5724C87.8326 13.8068 87.6003 14.1392 87.4384 14.5696C87.2765 15 87.1955 15.5071 87.1955 16.0909ZM100.395 21.1918C99.3851 21.1918 98.5158 20.9872 97.7871 20.5781C97.0627 20.1648 96.5044 19.581 96.1124 18.8267C95.7203 18.0682 95.5243 17.1712 95.5243 16.1357C95.5243 15.1257 95.7203 14.2393 96.1124 13.4766C96.5044 12.7138 97.0563 12.1193 97.7679 11.6932C98.4838 11.267 99.3233 11.054 100.286 11.054C100.934 11.054 101.537 11.1584 102.095 11.3672C102.658 11.5717 103.148 11.8807 103.566 12.294C103.987 12.7074 104.316 13.2273 104.55 13.8537C104.784 14.4759 104.901 15.2045 104.901 16.0398V16.7876H96.611V15.1001H102.338C102.338 14.7081 102.253 14.3608 102.083 14.0582C101.912 13.7557 101.676 13.5192 101.373 13.3487C101.075 13.174 100.727 13.0866 100.331 13.0866C99.9178 13.0866 99.5513 13.1825 99.2317 13.3743C98.9164 13.5618 98.6692 13.8153 98.4902 14.1349C98.3113 14.4503 98.2196 14.8018 98.2154 15.1896V16.794C98.2154 17.2798 98.3049 17.6996 98.4838 18.0533C98.6671 18.407 98.9249 18.6797 99.2573 18.8714C99.5897 19.0632 99.9838 19.1591 100.44 19.1591C100.742 19.1591 101.019 19.1165 101.271 19.0312C101.522 18.946 101.737 18.8182 101.916 18.6477C102.095 18.4773 102.232 18.2685 102.325 18.0213L104.844 18.1875C104.716 18.7926 104.454 19.321 104.058 19.7727C103.666 20.2202 103.159 20.5696 102.536 20.821C101.919 21.0682 101.205 21.1918 100.395 21.1918ZM106.678 21V11.1818H109.318V12.8949H109.421C109.6 12.2855 109.9 11.8253 110.322 11.5142C110.744 11.1989 111.23 11.0412 111.779 11.0412C112.044 11.0412 112.289 11.0732 112.514 11.1371C112.74 11.201 112.943 11.2884 113.122 11.3991L112.303 13.6491C112.176 13.5852 112.035 13.532 111.882 13.4893C111.732 13.4425 111.564 13.419 111.377 13.419C111.01 13.419 110.678 13.5064 110.379 13.6811C110.081 13.8516 109.845 14.0881 109.67 14.3906C109.495 14.6932 109.406 15.0447 109.401 15.4453V21H106.678Z" fill="#18191F"/>
<path d="M9.42614 38H8.19318C8.12027 37.6454 7.99266 37.3338 7.81037 37.0653C7.63139 36.7969 7.41264 36.5715 7.15412 36.3892C6.89891 36.2036 6.61553 36.0644 6.30398 35.9716C5.99242 35.8788 5.66761 35.8324 5.32955 35.8324C4.71307 35.8324 4.15459 35.9882 3.65412 36.2997C3.15696 36.6113 2.76089 37.0703 2.46591 37.6768C2.17424 38.2834 2.02841 39.0275 2.02841 39.9091C2.02841 40.7907 2.17424 41.5348 2.46591 42.1413C2.76089 42.7479 3.15696 43.2069 3.65412 43.5185C4.15459 43.83 4.71307 43.9858 5.32955 43.9858C5.66761 43.9858 5.99242 43.9394 6.30398 43.8466C6.61553 43.7538 6.89891 43.6162 7.15412 43.4339C7.41264 43.2483 7.63139 43.0213 7.81037 42.7528C7.99266 42.4811 8.12027 42.1695 8.19318 41.8182H9.42614C9.33333 42.3385 9.1643 42.8042 8.91903 43.2152C8.67377 43.6262 8.36885 43.9759 8.00426 44.2642C7.63968 44.5492 7.23035 44.7663 6.77628 44.9155C6.32552 45.0646 5.84328 45.1392 5.32955 45.1392C4.46117 45.1392 3.68892 44.9271 3.01278 44.5028C2.33665 44.0786 1.80469 43.4754 1.4169 42.6932C1.02912 41.911 0.835227 40.983 0.835227 39.9091C0.835227 38.8352 1.02912 37.9072 1.4169 37.125C1.80469 36.3428 2.33665 35.7396 3.01278 35.3153C3.68892 34.8911 4.46117 34.679 5.32955 34.679C5.84328 34.679 6.32552 34.7536 6.77628 34.9027C7.23035 35.0518 7.63968 35.2706 8.00426 35.5589C8.36885 35.844 8.67377 36.192 8.91903 36.603C9.1643 37.0107 9.33333 37.4763 9.42614 38ZM11.4185 45V34.8182H17.5634V35.9119H12.6515V39.3523H17.2452V40.446H12.6515V43.9062H17.6429V45H11.4185ZM28.3766 39.9091C28.3766 40.983 28.1827 41.911 27.7949 42.6932C27.4071 43.4754 26.8752 44.0786 26.199 44.5028C25.5229 44.9271 24.7507 45.1392 23.8823 45.1392C23.0139 45.1392 22.2417 44.9271 21.5655 44.5028C20.8894 44.0786 20.3574 43.4754 19.9696 42.6932C19.5819 41.911 19.388 40.983 19.388 39.9091C19.388 38.8352 19.5819 37.9072 19.9696 37.125C20.3574 36.3428 20.8894 35.7396 21.5655 35.3153C22.2417 34.8911 23.0139 34.679 23.8823 34.679C24.7507 34.679 25.5229 34.8911 26.199 35.3153C26.8752 35.7396 27.4071 36.3428 27.7949 37.125C28.1827 37.9072 28.3766 38.8352 28.3766 39.9091ZM27.1834 39.9091C27.1834 39.0275 27.0359 38.2834 26.7409 37.6768C26.4493 37.0703 26.0532 36.6113 25.5527 36.2997C25.0556 35.9882 24.4988 35.8324 23.8823 35.8324C23.2658 35.8324 22.7073 35.9882 22.2069 36.2997C21.7097 36.6113 21.3136 37.0703 21.0186 37.6768C20.727 38.2834 20.5811 39.0275 20.5811 39.9091C20.5811 40.7907 20.727 41.5348 21.0186 42.1413C21.3136 42.7479 21.7097 43.2069 22.2069 43.5185C22.7073 43.83 23.2658 43.9858 23.8823 43.9858C24.4988 43.9858 25.0556 43.83 25.5527 43.5185C26.0532 43.2069 26.4493 42.7479 26.7409 42.1413C27.0359 41.5348 27.1834 40.7907 27.1834 39.9091ZM37.1117 45.1591C36.4753 45.1591 35.9135 44.9983 35.4263 44.6768C34.9391 44.352 34.5579 43.8946 34.2828 43.3047C34.0078 42.7114 33.8702 42.0104 33.8702 41.2017C33.8702 40.3996 34.0078 39.7036 34.2828 39.1136C34.5579 38.5237 34.9408 38.0679 35.4313 37.7464C35.9218 37.425 36.4886 37.2642 37.1316 37.2642C37.6287 37.2642 38.0215 37.3471 38.3098 37.5128C38.6015 37.6752 38.8236 37.8608 38.976 38.0696C39.1318 38.2751 39.2528 38.4441 39.339 38.5767H39.4384V37.3636H40.6117V45H39.4782V43.8267H39.339C39.2528 43.9659 39.1301 44.1416 38.9711 44.3537C38.812 44.5625 38.5849 44.7498 38.29 44.9155C37.995 45.0779 37.6022 45.1591 37.1117 45.1591ZM37.2708 44.1051C37.7414 44.1051 38.1391 43.9825 38.464 43.7372C38.7888 43.4886 39.0357 43.1456 39.2047 42.7081C39.3738 42.2673 39.4583 41.7585 39.4583 41.1818C39.4583 40.6117 39.3754 40.1129 39.2097 39.6854C39.044 39.2545 38.7987 38.9197 38.4739 38.6811C38.1491 38.4392 37.748 38.3182 37.2708 38.3182C36.7736 38.3182 36.3593 38.4458 36.0279 38.701C35.6998 38.9529 35.4528 39.2959 35.2871 39.7301C35.1247 40.161 35.0435 40.6449 35.0435 41.1818C35.0435 41.7254 35.1264 42.2192 35.2921 42.6634C35.4611 43.1042 35.7097 43.4555 36.0378 43.7173C36.3693 43.9759 36.7802 44.1051 37.2708 44.1051ZM46.2445 37.3636V38.358H42.2871V37.3636H46.2445ZM43.4405 35.5341H44.6138V42.8125C44.6138 43.1439 44.6619 43.3925 44.758 43.5582C44.8574 43.7206 44.9834 43.83 45.1358 43.8864C45.2916 43.9394 45.4557 43.9659 45.628 43.9659C45.7573 43.9659 45.8633 43.9593 45.9462 43.946C46.0291 43.9295 46.0953 43.9162 46.1451 43.9062L46.3837 44.9602C46.3042 44.9901 46.1931 45.0199 46.0506 45.0497C45.9081 45.0829 45.7275 45.0994 45.5087 45.0994C45.1773 45.0994 44.8525 45.0282 44.5343 44.8857C44.2194 44.7431 43.9576 44.526 43.7488 44.2344C43.5433 43.9427 43.4405 43.5748 43.4405 43.1307V35.5341ZM52.5236 45H51.231L54.9696 34.8182H56.2424L59.981 45H58.6884L55.6458 36.429H55.5662L52.5236 45ZM53.0009 41.0227H58.2111V42.1165H53.0009V41.0227ZM61.5669 45V34.8182H65.1266C65.8359 34.8182 66.4209 34.9408 66.8816 35.1861C67.3423 35.428 67.6853 35.7545 67.9107 36.1655C68.1361 36.5732 68.2488 37.0256 68.2488 37.5227C68.2488 37.9602 68.1709 38.3215 68.0151 38.6065C67.8626 38.8916 67.6605 39.117 67.4086 39.2827C67.16 39.4484 66.8899 39.571 66.5982 39.6506V39.75C66.9097 39.7699 67.223 39.8793 67.5378 40.0781C67.8527 40.277 68.1162 40.562 68.3283 40.9332C68.5404 41.3045 68.6465 41.7585 68.6465 42.2955C68.6465 42.8059 68.5305 43.2649 68.2985 43.6726C68.0665 44.0803 67.7002 44.4034 67.1998 44.642C66.6993 44.8807 66.048 45 65.2459 45H61.5669ZM62.7999 43.9062H65.2459C66.0513 43.9062 66.623 43.7505 66.9611 43.4389C67.3025 43.1241 67.4732 42.7429 67.4732 42.2955C67.4732 41.9508 67.3854 41.6326 67.2097 41.3409C67.034 41.0459 66.7838 40.8106 66.459 40.6349C66.1342 40.456 65.7497 40.3665 65.3056 40.3665H62.7999V43.9062ZM62.7999 39.2926H65.0868C65.458 39.2926 65.7928 39.2197 66.0911 39.0739C66.3927 38.928 66.6313 38.7225 66.807 38.4574C66.986 38.1922 67.0755 37.8807 67.0755 37.5227C67.0755 37.0753 66.9197 36.6958 66.6081 36.3842C66.2966 36.0694 65.8027 35.9119 65.1266 35.9119H62.7999V39.2926ZM78.8656 38H77.6326C77.5597 37.6454 77.4321 37.3338 77.2498 37.0653C77.0708 36.7969 76.8521 36.5715 76.5936 36.3892C76.3384 36.2036 76.055 36.0644 75.7434 35.9716C75.4319 35.8788 75.1071 35.8324 74.769 35.8324C74.1525 35.8324 73.594 35.9882 73.0936 36.2997C72.5964 36.6113 72.2003 37.0703 71.9054 37.6768C71.6137 38.2834 71.4679 39.0275 71.4679 39.9091C71.4679 40.7907 71.6137 41.5348 71.9054 42.1413C72.2003 42.7479 72.5964 43.2069 73.0936 43.5185C73.594 43.83 74.1525 43.9858 74.769 43.9858C75.1071 43.9858 75.4319 43.9394 75.7434 43.8466C76.055 43.7538 76.3384 43.6162 76.5936 43.4339C76.8521 43.2483 77.0708 43.0213 77.2498 42.7528C77.4321 42.4811 77.5597 42.1695 77.6326 41.8182H78.8656C78.7728 42.3385 78.6038 42.8042 78.3585 43.2152C78.1132 43.6262 77.8083 43.9759 77.4437 44.2642C77.0791 44.5492 76.6698 44.7663 76.2157 44.9155C75.765 45.0646 75.2827 45.1392 74.769 45.1392C73.9006 45.1392 73.1284 44.9271 72.4522 44.5028C71.7761 44.0786 71.2441 43.4754 70.8564 42.6932C70.4686 41.911 70.2747 40.983 70.2747 39.9091C70.2747 38.8352 70.4686 37.9072 70.8564 37.125C71.2441 36.3428 71.7761 35.7396 72.4522 35.3153C73.1284 34.8911 73.9006 34.679 74.769 34.679C75.2827 34.679 75.765 34.7536 76.2157 34.9027C76.6698 35.0518 77.0791 35.2706 77.4437 35.5589C77.8083 35.844 78.1132 36.192 78.3585 36.603C78.6038 37.0107 78.7728 37.4763 78.8656 38ZM92.9886 38H91.7557C91.6828 37.6454 91.5552 37.3338 91.3729 37.0653C91.1939 36.7969 90.9751 36.5715 90.7166 36.3892C90.4614 36.2036 90.178 36.0644 89.8665 35.9716C89.5549 35.8788 89.2301 35.8324 88.892 35.8324C88.2756 35.8324 87.7171 35.9882 87.2166 36.2997C86.7195 36.6113 86.3234 37.0703 86.0284 37.6768C85.7367 38.2834 85.5909 39.0275 85.5909 39.9091C85.5909 40.7907 85.7367 41.5348 86.0284 42.1413C86.3234 42.7479 86.7195 43.2069 87.2166 43.5185C87.7171 43.83 88.2756 43.9858 88.892 43.9858C89.2301 43.9858 89.5549 43.9394 89.8665 43.8466C90.178 43.7538 90.4614 43.6162 90.7166 43.4339C90.9751 43.2483 91.1939 43.0213 91.3729 42.7528C91.5552 42.4811 91.6828 42.1695 91.7557 41.8182H92.9886C92.8958 42.3385 92.7268 42.8042 92.4815 43.2152C92.2363 43.6262 91.9313 43.9759 91.5668 44.2642C91.2022 44.5492 90.7929 44.7663 90.3388 44.9155C89.888 45.0646 89.4058 45.1392 88.892 45.1392C88.0237 45.1392 87.2514 44.9271 86.5753 44.5028C85.8991 44.0786 85.3672 43.4754 84.9794 42.6932C84.5916 41.911 84.3977 40.983 84.3977 39.9091C84.3977 38.8352 84.5916 37.9072 84.9794 37.125C85.3672 36.3428 85.8991 35.7396 86.5753 35.3153C87.2514 34.8911 88.0237 34.679 88.892 34.679C89.4058 34.679 89.888 34.7536 90.3388 34.9027C90.7929 35.0518 91.2022 35.2706 91.5668 35.5589C91.9313 35.844 92.2363 36.192 92.4815 36.603C92.7268 37.0107 92.8958 37.4763 92.9886 38ZM97.9242 45.1591C97.2348 45.1591 96.6299 44.995 96.1096 44.6669C95.5925 44.3388 95.1882 43.8797 94.8965 43.2898C94.6081 42.6998 94.464 42.0104 94.464 41.2216C94.464 40.4261 94.6081 39.7318 94.8965 39.1385C95.1882 38.5452 95.5925 38.0845 96.1096 37.7564C96.6299 37.4283 97.2348 37.2642 97.9242 37.2642C98.6136 37.2642 99.2168 37.4283 99.7338 37.7564C100.254 38.0845 100.659 38.5452 100.947 39.1385C101.239 39.7318 101.384 40.4261 101.384 41.2216C101.384 42.0104 101.239 42.6998 100.947 43.2898C100.659 43.8797 100.254 44.3388 99.7338 44.6669C99.2168 44.995 98.6136 45.1591 97.9242 45.1591ZM97.9242 44.1051C98.4479 44.1051 98.8787 43.9709 99.2168 43.7024C99.5549 43.4339 99.8051 43.081 99.9675 42.6435C100.13 42.206 100.211 41.732 100.211 41.2216C100.211 40.7112 100.13 40.2356 99.9675 39.7947C99.8051 39.3539 99.5549 38.9976 99.2168 38.7259C98.8787 38.4541 98.4479 38.3182 97.9242 38.3182C97.4005 38.3182 96.9696 38.4541 96.6316 38.7259C96.2935 38.9976 96.0433 39.3539 95.8809 39.7947C95.7185 40.2356 95.6373 40.7112 95.6373 41.2216C95.6373 41.732 95.7185 42.206 95.8809 42.6435C96.0433 43.081 96.2935 43.4339 96.6316 43.7024C96.9696 43.9709 97.4005 44.1051 97.9242 44.1051ZM103.175 45V37.3636H104.309V38.517H104.388C104.524 38.1392 104.775 37.8326 105.139 37.5973C105.504 37.362 105.916 37.2443 106.377 37.2443C106.589 37.2443 106.775 37.2692 106.934 37.3189C107.093 37.3686 107.232 37.4366 107.352 37.5227L106.954 38.517C106.871 38.474 106.773 38.4408 106.661 38.4176C106.551 38.3911 106.424 38.3778 106.278 38.3778C105.906 38.3778 105.575 38.4557 105.283 38.6115C104.995 38.7673 104.766 38.9794 104.597 39.2479C104.432 39.5163 104.349 39.8229 104.349 40.1676V45H103.175ZM108.548 47.8636V37.3636H109.682V38.5767H109.821C109.907 38.4441 110.027 38.2751 110.179 38.0696C110.335 37.8608 110.557 37.6752 110.845 37.5128C111.137 37.3471 111.531 37.2642 112.029 37.2642C112.672 37.2642 113.238 37.425 113.729 37.7464C114.219 38.0679 114.602 38.5237 114.877 39.1136C115.152 39.7036 115.29 40.3996 115.29 41.2017C115.29 42.0104 115.152 42.7114 114.877 43.3047C114.602 43.8946 114.221 44.352 113.734 44.6768C113.247 44.9983 112.685 45.1591 112.048 45.1591C111.558 45.1591 111.165 45.0779 110.87 44.9155C110.575 44.7498 110.348 44.5625 110.189 44.3537C110.03 44.1416 109.907 43.9659 109.821 43.8267H109.722V47.8636H108.548ZM109.702 41.1818C109.702 41.7585 109.786 42.2673 109.955 42.7081C110.124 43.1456 110.371 43.4886 110.696 43.7372C111.021 43.9825 111.419 44.1051 111.889 44.1051C112.38 44.1051 112.789 43.9759 113.117 43.7173C113.449 43.4555 113.697 43.1042 113.863 42.6634C114.032 42.2192 114.117 41.7254 114.117 41.1818C114.117 40.6449 114.034 40.161 113.868 39.7301C113.706 39.2959 113.459 38.9529 113.127 38.701C112.799 38.4458 112.387 38.3182 111.889 38.3182C111.412 38.3182 111.011 38.4392 110.686 38.6811C110.361 38.9197 110.116 39.2545 109.95 39.6854C109.785 40.1129 109.702 40.6117 109.702 41.1818ZM120.182 45.1591C119.493 45.1591 118.888 44.995 118.367 44.6669C117.85 44.3388 117.446 43.8797 117.154 43.2898C116.866 42.6998 116.722 42.0104 116.722 41.2216C116.722 40.4261 116.866 39.7318 117.154 39.1385C117.446 38.5452 117.85 38.0845 118.367 37.7564C118.888 37.4283 119.493 37.2642 120.182 37.2642C120.871 37.2642 121.475 37.4283 121.992 37.7564C122.512 38.0845 122.916 38.5452 123.205 39.1385C123.496 39.7318 123.642 40.4261 123.642 41.2216C123.642 42.0104 123.496 42.6998 123.205 43.2898C122.916 43.8797 122.512 44.3388 121.992 44.6669C121.475 44.995 120.871 45.1591 120.182 45.1591ZM120.182 44.1051C120.706 44.1051 121.137 43.9709 121.475 43.7024C121.813 43.4339 122.063 43.081 122.225 42.6435C122.388 42.206 122.469 41.732 122.469 41.2216C122.469 40.7112 122.388 40.2356 122.225 39.7947C122.063 39.3539 121.813 38.9976 121.475 38.7259C121.137 38.4541 120.706 38.3182 120.182 38.3182C119.658 38.3182 119.227 38.4541 118.889 38.7259C118.551 38.9976 118.301 39.3539 118.139 39.7947C117.976 40.2356 117.895 40.7112 117.895 41.2216C117.895 41.732 117.976 42.206 118.139 42.6435C118.301 43.081 118.551 43.4339 118.889 43.7024C119.227 43.9709 119.658 44.1051 120.182 44.1051ZM125.433 45V37.3636H126.567V38.517H126.646C126.782 38.1392 127.032 37.8326 127.397 37.5973C127.762 37.362 128.174 37.2443 128.635 37.2443C128.847 37.2443 129.033 37.2692 129.192 37.3189C129.351 37.3686 129.49 37.4366 129.609 37.5227L129.212 38.517C129.129 38.474 129.031 38.4408 128.918 38.4176C128.809 38.3911 128.681 38.3778 128.536 38.3778C128.164 38.3778 127.833 38.4557 127.541 38.6115C127.253 38.7673 127.024 38.9794 126.855 39.2479C126.689 39.5163 126.607 39.8229 126.607 40.1676V45H125.433ZM133.457 45.1591C132.821 45.1591 132.259 44.9983 131.772 44.6768C131.285 44.352 130.904 43.8946 130.629 43.3047C130.353 42.7114 130.216 42.0104 130.216 41.2017C130.216 40.3996 130.353 39.7036 130.629 39.1136C130.904 38.5237 131.286 38.0679 131.777 37.7464C132.268 37.425 132.834 37.2642 133.477 37.2642C133.974 37.2642 134.367 37.3471 134.656 37.5128C134.947 37.6752 135.169 37.8608 135.322 38.0696C135.478 38.2751 135.598 38.4441 135.685 38.5767H135.784V37.3636H136.957V45H135.824V43.8267H135.685C135.598 43.9659 135.476 44.1416 135.317 44.3537C135.158 44.5625 134.931 44.7498 134.636 44.9155C134.341 45.0779 133.948 45.1591 133.457 45.1591ZM133.616 44.1051C134.087 44.1051 134.485 43.9825 134.81 43.7372C135.134 43.4886 135.381 43.1456 135.55 42.7081C135.719 42.2673 135.804 41.7585 135.804 41.1818C135.804 40.6117 135.721 40.1129 135.555 39.6854C135.39 39.2545 135.144 38.9197 134.82 38.6811C134.495 38.4392 134.094 38.3182 133.616 38.3182C133.119 38.3182 132.705 38.4458 132.374 38.701C132.045 38.9529 131.799 39.2959 131.633 39.7301C131.47 40.161 131.389 40.6449 131.389 41.1818C131.389 41.7254 131.472 42.2192 131.638 42.6634C131.807 43.1042 132.055 43.4555 132.384 43.7173C132.715 43.9759 133.126 44.1051 133.616 44.1051ZM142.59 37.3636V38.358H138.633V37.3636H142.59ZM139.786 35.5341H140.96V42.8125C140.96 43.1439 141.008 43.3925 141.104 43.5582C141.203 43.7206 141.329 43.83 141.482 43.8864C141.637 43.9394 141.801 43.9659 141.974 43.9659C142.103 43.9659 142.209 43.9593 142.292 43.946C142.375 43.9295 142.441 43.9162 142.491 43.9062L142.729 44.9602C142.65 44.9901 142.539 45.0199 142.396 45.0497C142.254 45.0829 142.073 45.0994 141.854 45.0994C141.523 45.0994 141.198 45.0282 140.88 44.8857C140.565 44.7431 140.303 44.526 140.094 44.2344C139.889 43.9427 139.786 43.5748 139.786 43.1307V35.5341ZM144.355 45V37.3636H145.528V45H144.355ZM144.952 36.0909C144.723 36.0909 144.526 36.013 144.36 35.8572C144.198 35.7015 144.116 35.5142 144.116 35.2955C144.116 35.0767 144.198 34.8894 144.36 34.7337C144.526 34.5779 144.723 34.5 144.952 34.5C145.18 34.5 145.376 34.5779 145.538 34.7337C145.704 34.8894 145.787 35.0767 145.787 35.2955C145.787 35.5142 145.704 35.7015 145.538 35.8572C145.376 36.013 145.18 36.0909 144.952 36.0909ZM150.78 45.1591C150.09 45.1591 149.485 44.995 148.965 44.6669C148.448 44.3388 148.044 43.8797 147.752 43.2898C147.464 42.6998 147.319 42.0104 147.319 41.2216C147.319 40.4261 147.464 39.7318 147.752 39.1385C148.044 38.5452 148.448 38.0845 148.965 37.7564C149.485 37.4283 150.09 37.2642 150.78 37.2642C151.469 37.2642 152.072 37.4283 152.589 37.7564C153.11 38.0845 153.514 38.5452 153.802 39.1385C154.094 39.7318 154.24 40.4261 154.24 41.2216C154.24 42.0104 154.094 42.6998 153.802 43.2898C153.514 43.8797 153.11 44.3388 152.589 44.6669C152.072 44.995 151.469 45.1591 150.78 45.1591ZM150.78 44.1051C151.303 44.1051 151.734 43.9709 152.072 43.7024C152.41 43.4339 152.661 43.081 152.823 42.6435C152.985 42.206 153.067 41.732 153.067 41.2216C153.067 40.7112 152.985 40.2356 152.823 39.7947C152.661 39.3539 152.41 38.9976 152.072 38.7259C151.734 38.4541 151.303 38.3182 150.78 38.3182C150.256 38.3182 149.825 38.4541 149.487 38.7259C149.149 38.9976 148.899 39.3539 148.736 39.7947C148.574 40.2356 148.493 40.7112 148.493 41.2216C148.493 41.732 148.574 42.206 148.736 42.6435C148.899 43.081 149.149 43.4339 149.487 43.7024C149.825 43.9709 150.256 44.1051 150.78 44.1051ZM157.204 40.4062V45H156.031V37.3636H157.164V38.5568H157.264C157.443 38.169 157.715 37.8575 158.079 37.6222C158.444 37.3835 158.914 37.2642 159.491 37.2642C160.008 37.2642 160.461 37.3703 160.848 37.5824C161.236 37.7912 161.538 38.1094 161.753 38.5369C161.969 38.9612 162.076 39.4981 162.076 40.1477V45H160.903V40.2273C160.903 39.6274 160.747 39.16 160.436 38.8253C160.124 38.4872 159.697 38.3182 159.153 38.3182C158.779 38.3182 158.444 38.3994 158.149 38.5618C157.857 38.7242 157.627 38.9612 157.458 39.2727C157.289 39.5843 157.204 39.9621 157.204 40.4062Z" fill="#474A57"/>
<path d="M1.94886 61.3636L3.77841 64.4858L5.60795 61.3636H6.96023L4.49432 65.1818L6.96023 69H5.60795L3.77841 66.0369L1.94886 69H0.596591L3.02273 65.1818L0.596591 61.3636H1.94886ZM9.39009 71.8636C9.19123 71.8636 9.01391 71.8471 8.85813 71.8139C8.70236 71.7841 8.59464 71.7543 8.53498 71.7244L8.83327 70.6903C9.11831 70.7633 9.37021 70.7898 9.58896 70.7699C9.80771 70.75 10.0016 70.6522 10.1706 70.4766C10.343 70.3042 10.5004 70.0241 10.6429 69.6364L10.8617 69.0398L8.03782 61.3636H9.31055L11.4185 67.4489H11.498L13.606 61.3636H14.8787L11.6373 70.1136C11.4914 70.508 11.3108 70.8345 11.0953 71.093C10.8799 71.3549 10.6297 71.5488 10.3446 71.6747C10.0629 71.8007 9.74473 71.8636 9.39009 71.8636ZM16.2086 69V68.1051L20.5439 62.5369V62.4574H16.3478V61.3636H22.0552V62.2983L17.8393 67.8267V67.9062H22.1944V69H16.2086ZM29.8681 71.6847C28.8539 71.6847 27.9573 71.5455 27.1784 71.267C26.3996 70.992 25.745 70.5859 25.2147 70.049C24.6844 69.5121 24.2833 68.8542 24.0115 68.0753C23.7398 67.2964 23.6039 66.4048 23.6039 65.4006C23.6039 64.4295 23.7414 63.5611 24.0165 62.7955C24.2949 62.0298 24.6976 61.3802 25.2246 60.8466C25.7549 60.3097 26.3979 59.9003 27.1536 59.6186C27.9126 59.3369 28.771 59.196 29.7289 59.196C30.6602 59.196 31.4756 59.3485 32.1749 59.6534C32.8775 59.955 33.4642 60.3643 33.9348 60.8814C34.4088 61.3951 34.7634 61.9735 34.9988 62.6165C35.2374 63.2595 35.3567 63.9223 35.3567 64.6051C35.3567 65.0857 35.3335 65.5729 35.2871 66.0668C35.2407 66.5606 35.1429 67.0147 34.9938 67.429C34.8446 67.84 34.6143 68.1714 34.3027 68.4233C33.9945 68.6752 33.5769 68.8011 33.0499 68.8011C32.8179 68.8011 32.5627 68.7647 32.2843 68.6918C32.0059 68.6188 31.7589 68.4979 31.5435 68.3288C31.3281 68.1598 31.2005 67.9328 31.1607 67.6477H31.101C31.0215 67.84 30.8989 68.0223 30.7331 68.1946C30.5707 68.367 30.3569 68.5045 30.0918 68.6072C29.83 68.71 29.5101 68.7547 29.1323 68.7415C28.7014 68.7249 28.3219 68.6288 27.9938 68.4531C27.6657 68.2741 27.3906 68.0322 27.1685 67.7273C26.9498 67.419 26.784 67.0627 26.6713 66.6584C26.562 66.2507 26.5073 65.8116 26.5073 65.3409C26.5073 64.8935 26.5736 64.4841 26.7061 64.1129C26.8387 63.7417 27.0227 63.4169 27.258 63.1385C27.4966 62.8601 27.775 62.638 28.0932 62.4723C28.4147 62.3033 28.7611 62.1989 29.1323 62.1591C29.4637 62.1259 29.7653 62.1409 30.0371 62.2038C30.3089 62.2635 30.5326 62.3546 30.7083 62.4773C30.8839 62.5966 30.995 62.7292 31.0414 62.875H31.101V62.3182H32.155V66.8125C32.155 67.0909 32.2329 67.3362 32.3887 67.5483C32.5444 67.7604 32.7715 67.8665 33.0698 67.8665C33.4078 67.8665 33.6664 67.7505 33.8453 67.5185C34.0276 67.2865 34.1519 66.9285 34.2182 66.4446C34.2878 65.9607 34.3226 65.3409 34.3226 64.5852C34.3226 64.1411 34.2613 63.7036 34.1387 63.2727C34.0194 62.8385 33.8371 62.4325 33.5918 62.0547C33.3498 61.6768 33.0433 61.3437 32.6721 61.0554C32.3008 60.767 31.865 60.5417 31.3645 60.3793C30.8674 60.2135 30.3023 60.1307 29.6692 60.1307C28.8903 60.1307 28.1926 60.2517 27.5762 60.4936C26.963 60.7322 26.441 61.0819 26.0101 61.5426C25.5826 62 25.2561 62.5568 25.0307 63.2131C24.8087 63.866 24.6976 64.6084 24.6976 65.4403C24.6976 66.2855 24.8087 67.0362 25.0307 67.6925C25.2561 68.3487 25.5875 68.9022 26.025 69.353C26.4658 69.8037 27.0111 70.1451 27.6607 70.3771C28.3103 70.6125 29.0594 70.7301 29.9078 70.7301C30.2724 70.7301 30.632 70.6953 30.9867 70.6257C31.3413 70.5561 31.6545 70.4799 31.9263 70.397C32.1981 70.3142 32.3936 70.2528 32.513 70.2131L32.7914 71.1278C32.5859 71.214 32.3174 71.3002 31.986 71.3864C31.6578 71.4725 31.3065 71.5438 30.932 71.6001C30.5608 71.6565 30.2061 71.6847 29.8681 71.6847ZM29.2914 67.7273C29.7355 67.7273 30.0951 67.6378 30.3702 67.4588C30.6453 67.2798 30.8458 67.0097 30.9718 66.6484C31.0977 66.2872 31.1607 65.8314 31.1607 65.2812C31.1607 64.7244 31.0911 64.2902 30.9519 63.9787C30.8127 63.6671 30.6072 63.4484 30.3354 63.3224C30.0636 63.1965 29.7289 63.1335 29.3311 63.1335C28.9533 63.1335 28.6301 63.233 28.3617 63.4318C28.0965 63.6274 27.8927 63.8892 27.7502 64.2173C27.611 64.5421 27.5414 64.8968 27.5414 65.2812C27.5414 65.7055 27.5977 66.1049 27.7104 66.4794C27.8231 66.8506 28.007 67.1522 28.2623 67.3842C28.5175 67.6129 28.8605 67.7273 29.2914 67.7273ZM37.9879 61.3636L39.8175 64.4858L41.647 61.3636H42.9993L40.5334 65.1818L42.9993 69H41.647L39.8175 66.0369L37.9879 69H36.6357L39.0618 65.1818L36.6357 61.3636H37.9879ZM45.4292 71.8636C45.2303 71.8636 45.053 71.8471 44.8972 71.8139C44.7414 71.7841 44.6337 71.7543 44.574 71.7244L44.8723 70.6903C45.1574 70.7633 45.4093 70.7898 45.628 70.7699C45.8468 70.75 46.0407 70.6522 46.2097 70.4766C46.382 70.3042 46.5395 70.0241 46.682 69.6364L46.9007 69.0398L44.0769 61.3636H45.3496L47.4576 67.4489H47.5371L49.6451 61.3636H50.9178L47.6763 70.1136C47.5305 70.508 47.3498 70.8345 47.1344 71.093C46.919 71.3549 46.6687 71.5488 46.3837 71.6747C46.102 71.8007 45.7838 71.8636 45.4292 71.8636ZM52.2477 69V68.1051L56.5829 62.5369V62.4574H52.3869V61.3636H58.0943V62.2983L53.8784 67.8267V67.9062H58.2335V69H52.2477ZM60.8958 69.0795C60.6505 69.0795 60.44 68.9917 60.2644 68.8161C60.0887 68.6404 60.0009 68.4299 60.0009 68.1847C60.0009 67.9394 60.0887 67.7289 60.2644 67.5533C60.44 67.3776 60.6505 67.2898 60.8958 67.2898C61.141 67.2898 61.3515 67.3776 61.5272 67.5533C61.7028 67.7289 61.7907 67.9394 61.7907 68.1847C61.7907 68.3471 61.7492 68.4962 61.6664 68.6321C61.5868 68.768 61.4791 68.8774 61.3432 68.9602C61.2106 69.0398 61.0615 69.0795 60.8958 69.0795ZM66.9984 69.1591C66.2825 69.1591 65.666 68.9901 65.149 68.652C64.6319 68.3139 64.2342 67.8482 63.9558 67.255C63.6774 66.6617 63.5382 65.9839 63.5382 65.2216C63.5382 64.446 63.6807 63.7616 63.9657 63.1683C64.2541 62.5717 64.6551 62.1061 65.1689 61.7713C65.6859 61.4332 66.2891 61.2642 66.9785 61.2642C67.5154 61.2642 67.9993 61.3636 68.4302 61.5625C68.8611 61.7614 69.2141 62.0398 69.4892 62.3977C69.7643 62.7557 69.935 63.1733 70.0012 63.6506H68.8279C68.7385 63.3026 68.5396 62.9943 68.2314 62.7259C67.9264 62.4541 67.5154 62.3182 66.9984 62.3182C66.541 62.3182 66.14 62.4375 65.7953 62.6761C65.4539 62.9115 65.1871 63.2446 64.9949 63.6754C64.8059 64.103 64.7115 64.6051 64.7115 65.1818C64.7115 65.7718 64.8043 66.2855 64.9899 66.723C65.1788 67.1605 65.444 67.5002 65.7853 67.7422C66.13 67.9841 66.5344 68.1051 66.9984 68.1051C67.3033 68.1051 67.5801 68.0521 67.8287 67.946C68.0772 67.84 68.2877 67.6875 68.46 67.4886C68.6324 67.2898 68.755 67.0511 68.8279 66.7727H70.0012C69.935 67.2235 69.7709 67.6295 69.5091 67.9908C69.2505 68.3487 68.9075 68.6338 68.4799 68.8459C68.0557 69.0547 67.5618 69.1591 66.9984 69.1591ZM74.8187 69.1591C74.1293 69.1591 73.5244 68.995 73.0041 68.6669C72.487 68.3388 72.0827 67.8797 71.791 67.2898C71.5027 66.6998 71.3585 66.0104 71.3585 65.2216C71.3585 64.4261 71.5027 63.7318 71.791 63.1385C72.0827 62.5452 72.487 62.0845 73.0041 61.7564C73.5244 61.4283 74.1293 61.2642 74.8187 61.2642C75.5081 61.2642 76.1113 61.4283 76.6284 61.7564C77.1487 62.0845 77.5531 62.5452 77.8414 63.1385C78.1331 63.7318 78.2789 64.4261 78.2789 65.2216C78.2789 66.0104 78.1331 66.6998 77.8414 67.2898C77.5531 67.8797 77.1487 68.3388 76.6284 68.6669C76.1113 68.995 75.5081 69.1591 74.8187 69.1591ZM74.8187 68.1051C75.3424 68.1051 75.7733 67.9709 76.1113 67.7024C76.4494 67.4339 76.6996 67.081 76.862 66.6435C77.0244 66.206 77.1056 65.732 77.1056 65.2216C77.1056 64.7112 77.0244 64.2356 76.862 63.7947C76.6996 63.3539 76.4494 62.9976 76.1113 62.7259C75.7733 62.4541 75.3424 62.3182 74.8187 62.3182C74.295 62.3182 73.8642 62.4541 73.5261 62.7259C73.188 62.9976 72.9378 63.3539 72.7754 63.7947C72.613 64.2356 72.5318 64.7112 72.5318 65.2216C72.5318 65.732 72.613 66.206 72.7754 66.6435C72.9378 67.081 73.188 67.4339 73.5261 67.7024C73.8642 67.9709 74.295 68.1051 74.8187 68.1051ZM80.07 69V61.3636H81.2035V62.5568H81.3029C81.462 62.1491 81.7189 61.8326 82.0735 61.6072C82.4281 61.3786 82.854 61.2642 83.3512 61.2642C83.855 61.2642 84.2743 61.3786 84.609 61.6072C84.9471 61.8326 85.2106 62.1491 85.3995 62.5568H85.479C85.6746 62.1624 85.9679 61.8492 86.359 61.6172C86.7501 61.3819 87.2191 61.2642 87.766 61.2642C88.4487 61.2642 89.0072 61.478 89.4414 61.9055C89.8756 62.3298 90.0927 62.991 90.0927 63.8892V69H88.9194V63.8892C88.9194 63.3258 88.7653 62.9231 88.457 62.6811C88.1488 62.4392 87.7859 62.3182 87.3683 62.3182C86.8313 62.3182 86.4154 62.4806 86.1204 62.8054C85.8254 63.1269 85.6779 63.5346 85.6779 64.0284V69H84.4847V63.7699C84.4847 63.3357 84.3439 62.986 84.0621 62.7209C83.7804 62.4524 83.4175 62.3182 82.9734 62.3182C82.6684 62.3182 82.3834 62.3994 82.1183 62.5618C81.8564 62.7242 81.6443 62.9496 81.4819 63.2379C81.3228 63.523 81.2433 63.8527 81.2433 64.2273V69H80.07ZM97.8857 55.5369V72.2812H96.8913V55.5369H97.8857ZM107.934 58.8182V69H106.702V60.608H106.622C106.576 60.7008 106.456 60.8068 106.264 60.9261C106.072 61.0421 105.823 61.1449 105.518 61.2344C105.213 61.3205 104.865 61.3636 104.474 61.3636V60.3295C104.869 60.3295 105.21 60.2583 105.498 60.1158C105.787 59.9732 106.027 59.8059 106.219 59.6136C106.415 59.4214 106.562 59.2474 106.662 59.0916C106.765 58.9358 106.824 58.8447 106.841 58.8182H107.934ZM114.114 58.8182V69H112.881V60.608H112.802C112.755 60.7008 112.636 60.8068 112.444 60.9261C112.251 61.0421 112.003 61.1449 111.698 61.2344C111.393 61.3205 111.045 61.3636 110.654 61.3636V60.3295C111.048 60.3295 111.39 60.2583 111.678 60.1158C111.966 59.9732 112.207 59.8059 112.399 59.6136C112.595 59.4214 112.742 59.2474 112.841 59.0916C112.944 58.9358 113.004 58.8447 113.02 58.8182H114.114ZM117.032 69V68.1051L120.393 64.4261C120.788 63.9953 121.113 63.6207 121.368 63.3026C121.623 62.9811 121.812 62.6795 121.934 62.3977C122.06 62.1127 122.123 61.8144 122.123 61.5028C122.123 61.1449 122.037 60.835 121.865 60.5732C121.696 60.3113 121.464 60.1091 121.169 59.9666C120.874 59.8241 120.542 59.7528 120.175 59.7528C119.783 59.7528 119.442 59.834 119.15 59.9964C118.862 60.1555 118.638 60.3793 118.479 60.6676C118.323 60.956 118.246 61.294 118.246 61.6818H117.072C117.072 61.0852 117.21 60.5616 117.485 60.1108C117.76 59.66 118.135 59.3087 118.608 59.0568C119.086 58.8049 119.621 58.679 120.214 58.679C120.811 58.679 121.34 58.8049 121.8 59.0568C122.261 59.3087 122.622 59.6484 122.884 60.076C123.146 60.5036 123.277 60.9792 123.277 61.5028C123.277 61.8774 123.209 62.2436 123.073 62.6016C122.94 62.9562 122.708 63.3523 122.377 63.7898C122.049 64.224 121.593 64.7543 121.01 65.3807L118.723 67.8267V67.9062H123.456V69H117.032ZM129.447 69V68.1051L132.807 64.4261C133.202 63.9953 133.527 63.6207 133.782 63.3026C134.037 62.9811 134.226 62.6795 134.349 62.3977C134.474 62.1127 134.537 61.8144 134.537 61.5028C134.537 61.1449 134.451 60.835 134.279 60.5732C134.11 60.3113 133.878 60.1091 133.583 59.9666C133.288 59.8241 132.956 59.7528 132.589 59.7528C132.198 59.7528 131.856 59.834 131.564 59.9964C131.276 60.1555 131.052 60.3793 130.893 60.6676C130.738 60.956 130.66 61.294 130.66 61.6818H129.486C129.486 61.0852 129.624 60.5616 129.899 60.1108C130.174 59.66 130.549 59.3087 131.023 59.0568C131.5 58.8049 132.035 58.679 132.628 58.679C133.225 58.679 133.754 58.8049 134.214 59.0568C134.675 59.3087 135.036 59.6484 135.298 60.076C135.56 60.5036 135.691 60.9792 135.691 61.5028C135.691 61.8774 135.623 62.2436 135.487 62.6016C135.354 62.9562 135.122 63.3523 134.791 63.7898C134.463 64.224 134.007 64.7543 133.424 65.3807L131.137 67.8267V67.9062H135.87V69H129.447ZM137.923 69V68.1051L141.284 64.4261C141.678 63.9953 142.003 63.6207 142.258 63.3026C142.514 62.9811 142.702 62.6795 142.825 62.3977C142.951 62.1127 143.014 61.8144 143.014 61.5028C143.014 61.1449 142.928 60.835 142.756 60.5732C142.586 60.3113 142.354 60.1091 142.059 59.9666C141.765 59.8241 141.433 59.7528 141.065 59.7528C140.674 59.7528 140.333 59.834 140.041 59.9964C139.753 60.1555 139.529 60.3793 139.37 60.6676C139.214 60.956 139.136 61.294 139.136 61.6818H137.963C137.963 61.0852 138.1 60.5616 138.376 60.1108C138.651 59.66 139.025 59.3087 139.499 59.0568C139.976 58.8049 140.512 58.679 141.105 58.679C141.702 58.679 142.23 58.8049 142.691 59.0568C143.152 59.3087 143.513 59.6484 143.775 60.076C144.037 60.5036 144.167 60.9792 144.167 61.5028C144.167 61.8774 144.099 62.2436 143.964 62.6016C143.831 62.9562 143.599 63.3523 143.268 63.7898C142.939 64.224 142.484 64.7543 141.9 65.3807L139.613 67.8267V67.9062H144.346V69H137.923ZM146.241 66.4545H147.493C147.53 66.7992 147.648 67.0909 147.846 67.3295C148.049 67.5649 148.31 67.7438 148.632 67.8665C148.953 67.9858 149.31 68.0455 149.701 68.0455C150.125 68.0455 150.506 67.9742 150.844 67.8317C151.182 67.6892 151.451 67.477 151.65 67.1953C151.849 66.9103 151.948 66.5573 151.948 66.1364C151.948 65.7685 151.862 65.4271 151.689 65.1122C151.517 64.794 151.24 64.5372 150.859 64.3416C150.478 64.1461 149.973 64.0483 149.343 64.0483H148.528V63.054L151.073 59.9915V59.9119H146.738V58.8182H152.763V59.7131L150.039 63.0142V63.0938C150.476 63.1136 150.884 63.2031 151.262 63.3622C151.643 63.5213 151.974 63.7367 152.256 64.0085C152.541 64.2803 152.763 64.5968 152.922 64.9581C153.081 65.3194 153.161 65.7121 153.161 66.1364C153.161 66.7164 153.012 67.2334 152.714 67.6875C152.419 68.1383 152.009 68.4929 151.486 68.7514C150.965 69.0099 150.364 69.1392 149.681 69.1392C149.078 69.1392 148.523 69.0331 148.015 68.821C147.508 68.6089 147.096 68.3023 146.778 67.9013C146.459 67.5002 146.28 67.018 146.241 66.4545ZM158.969 66.4545H160.222C160.258 66.7992 160.376 67.0909 160.575 67.3295C160.777 67.5649 161.039 67.7438 161.36 67.8665C161.682 67.9858 162.038 68.0455 162.429 68.0455C162.854 68.0455 163.235 67.9742 163.573 67.8317C163.911 67.6892 164.179 67.477 164.378 67.1953C164.577 66.9103 164.676 66.5573 164.676 66.1364C164.676 65.7685 164.59 65.4271 164.418 65.1122C164.246 64.794 163.969 64.5372 163.588 64.3416C163.207 64.1461 162.701 64.0483 162.071 64.0483H161.256V63.054L163.801 59.9915V59.9119H159.466V58.8182H165.492V59.7131L162.767 63.0142V63.0938C163.205 63.1136 163.613 63.2031 163.99 63.3622C164.372 63.5213 164.703 63.7367 164.985 64.0085C165.27 64.2803 165.492 64.5968 165.651 64.9581C165.81 65.3194 165.89 65.7121 165.89 66.1364C165.89 66.7164 165.74 67.2334 165.442 67.6875C165.147 68.1383 164.738 68.4929 164.214 68.7514C163.694 69.0099 163.092 69.1392 162.409 69.1392C161.806 69.1392 161.251 69.0331 160.744 68.821C160.237 68.6089 159.824 68.3023 159.506 67.9013C159.188 67.5002 159.009 67.018 158.969 66.4545ZM167.76 66.4545H169.013C169.049 66.7992 169.167 67.0909 169.366 67.3295C169.568 67.5649 169.83 67.7438 170.151 67.8665C170.473 67.9858 170.829 68.0455 171.22 68.0455C171.645 68.0455 172.026 67.9742 172.364 67.8317C172.702 67.6892 172.97 67.477 173.169 67.1953C173.368 66.9103 173.468 66.5573 173.468 66.1364C173.468 65.7685 173.381 65.4271 173.209 65.1122C173.037 64.794 172.76 64.5372 172.379 64.3416C171.998 64.1461 171.492 64.0483 170.862 64.0483H170.047V63.054L172.593 59.9915V59.9119H168.257V58.8182H174.283V59.7131L171.558 63.0142V63.0938C171.996 63.1136 172.404 63.2031 172.781 63.3622C173.163 63.5213 173.494 63.7367 173.776 64.0085C174.061 64.2803 174.283 64.5968 174.442 64.9581C174.601 65.3194 174.681 65.7121 174.681 66.1364C174.681 66.7164 174.531 67.2334 174.233 67.6875C173.938 68.1383 173.529 68.4929 173.005 68.7514C172.485 69.0099 171.883 69.1392 171.2 69.1392C170.597 69.1392 170.042 69.0331 169.535 68.821C169.028 68.6089 168.615 68.3023 168.297 67.9013C167.979 67.5002 167.8 67.018 167.76 66.4545ZM176.472 66.9119V65.8977L180.548 58.8182H181.761L177.784 65.7386V65.8182H183.83V66.9119H176.472ZM181.264 69V66.6136V66.1314V62.6364H182.438V69H181.264ZM188.874 69.1392C188.291 69.1392 187.766 69.0232 187.298 68.7912C186.831 68.5592 186.457 68.241 186.175 67.8366C185.893 67.4323 185.739 66.9716 185.713 66.4545H186.906C186.952 66.9152 187.161 67.2964 187.532 67.598C187.907 67.8963 188.354 68.0455 188.874 68.0455C189.292 68.0455 189.663 67.9477 189.988 67.7521C190.316 67.5566 190.573 67.2881 190.759 66.9467C190.948 66.602 191.042 66.2126 191.042 65.7784C191.042 65.3343 190.944 64.9382 190.749 64.5902C190.557 64.2389 190.291 63.9621 189.953 63.7599C189.615 63.5578 189.229 63.455 188.795 63.4517C188.483 63.4484 188.164 63.4964 187.835 63.5959C187.507 63.692 187.237 63.8163 187.025 63.9688L185.872 63.8295L186.488 58.8182H191.778V59.9119H187.522L187.164 62.9148H187.224C187.433 62.7491 187.695 62.6115 188.009 62.5021C188.324 62.3928 188.652 62.3381 188.994 62.3381C189.617 62.3381 190.172 62.4872 190.659 62.7855C191.15 63.0805 191.534 63.4848 191.813 63.9986C192.094 64.5123 192.235 65.099 192.235 65.7585C192.235 66.4081 192.089 66.9882 191.798 67.4986C191.509 68.0057 191.112 68.4067 190.605 68.7017C190.097 68.9934 189.521 69.1392 188.874 69.1392Z" fill="#474A57"/>
</g>
<defs>
<clipPath id="clip0_8009_53625">
<rect width="256" height="76" fill="white"/>
</clipPath>
</defs>
</svg>
