<svg width="22" height="23" viewBox="0 0 22 23" fill="none" xmlns="http://www.w3.org/2000/svg">
<path fill-rule="evenodd" clip-rule="evenodd" d="M7.75 1.146C7.75 0.731783 7.41421 0.395996 7 0.395996C6.58579 0.395996 6.25 0.731783 6.25 1.146V1.51294C5.35977 1.60838 4.61404 1.786 3.93556 2.1317C2.66547 2.77885 1.63285 3.81147 0.985706 5.08156C0.595875 5.84665 0.419771 6.69724 0.334236 7.74413C0.249993 8.77522 0.249996 10.0606 0.25 11.712V11.7121V11.746V12.546V12.5799V12.5799C0.249996 14.2314 0.249993 15.5168 0.334236 16.5479C0.419771 17.5948 0.595875 18.4453 0.985706 19.2104C1.63285 20.4805 2.66547 21.5131 3.93556 22.1603C4.70065 22.5501 5.55124 22.7262 6.59814 22.8118C7.62916 22.896 8.91445 22.896 10.5657 22.896H10.5658H10.5658H10.5659H10.5659H10.566H10.566H10.6H11.4H11.434H11.434H11.4341H11.4341H11.4342H11.4342H11.4343C13.0855 22.896 14.3708 22.896 15.4019 22.8118C16.4488 22.7262 17.2994 22.5501 18.0644 22.1603C19.3345 21.5131 20.3671 20.4805 21.0143 19.2104C21.4041 18.4453 21.5802 17.5948 21.6658 16.5479C21.75 15.5168 21.75 14.2315 21.75 12.5802V12.5802V12.5802V12.5801V12.5801V12.58V12.58V12.546V11.746V11.712V11.712V11.7119V11.7119V11.7118V11.7118V11.7117C21.75 10.0604 21.75 8.77515 21.6658 7.74413C21.5802 6.69724 21.4041 5.84665 21.0143 5.08156C20.3671 3.81147 19.3345 2.77885 18.0644 2.1317C17.386 1.786 16.6402 1.60838 15.75 1.51294V1.146C15.75 0.731783 15.4142 0.395996 15 0.395996C14.5858 0.395996 14.25 0.731783 14.25 1.146V1.41998C13.5274 1.39835 12.7018 1.39623 11.75 1.39602V1.146C11.75 0.731783 11.4142 0.395996 11 0.395996C10.5858 0.395996 10.25 0.731783 10.25 1.146V1.39602C9.29818 1.39623 8.47262 1.39835 7.75 1.41998V1.146ZM14.25 2.9206C13.552 2.8988 12.7339 2.89631 11.75 2.89603V4.146C11.75 4.56021 11.4142 4.896 11 4.896C10.5858 4.896 10.25 4.56021 10.25 4.146V2.89603C9.26613 2.89631 8.44802 2.8988 7.75 2.9206V4.146C7.75 4.56021 7.41421 4.896 7 4.896C6.58579 4.896 6.25 4.56021 6.25 4.146V3.02283C5.54969 3.1092 5.04464 3.25009 4.61655 3.46821C3.6287 3.97155 2.82555 4.77469 2.32222 5.76255C2.05809 6.28093 1.90721 6.91215 1.82925 7.86628C1.75058 8.82917 1.75 10.0535 1.75 11.746V12.546C1.75 14.2385 1.75058 15.4628 1.82925 16.4257C1.90721 17.3798 2.05809 18.0111 2.32222 18.5294C2.82555 19.5173 3.6287 20.3204 4.61655 20.8238C5.13493 21.0879 5.76615 21.2388 6.72029 21.3167C7.68317 21.3954 8.90747 21.396 10.6 21.396H11.4C13.0925 21.396 14.3168 21.3954 15.2797 21.3167C16.2338 21.2388 16.8651 21.0879 17.3834 20.8238C18.3713 20.3204 19.1744 19.5173 19.6778 18.5294C19.9419 18.0111 20.0928 17.3798 20.1707 16.4257C20.2494 15.4628 20.25 14.2385 20.25 12.546V11.746C20.25 10.0535 20.2494 8.82917 20.1707 7.86628C20.0928 6.91215 19.9419 6.28093 19.6778 5.76255C19.1744 4.77469 18.3713 3.97155 17.3834 3.46821C16.9554 3.25009 16.4503 3.1092 15.75 3.02283V4.146C15.75 4.56021 15.4142 4.896 15 4.896C14.5858 4.896 14.25 4.56021 14.25 4.146V2.9206ZM5.25 9.146C5.25 8.73178 5.58579 8.396 6 8.396H16C16.4142 8.396 16.75 8.73178 16.75 9.146C16.75 9.56021 16.4142 9.896 16 9.896H6C5.58579 9.896 5.25 9.56021 5.25 9.146ZM6 12.396C5.58579 12.396 5.25 12.7318 5.25 13.146C5.25 13.5602 5.58579 13.896 6 13.896H12C12.4142 13.896 12.75 13.5602 12.75 13.146C12.75 12.7318 12.4142 12.396 12 12.396H6ZM5.25 17.146C5.25 16.7318 5.58579 16.396 6 16.396H8C8.41421 16.396 8.75 16.7318 8.75 17.146C8.75 17.5602 8.41421 17.896 8 17.896H6C5.58579 17.896 5.25 17.5602 5.25 17.146Z" fill="#334BFA"/>
</svg>
