<svg width="21" height="22" viewBox="0 0 21 22" fill="none" xmlns="http://www.w3.org/2000/svg">
<path fill-rule="evenodd" clip-rule="evenodd" d="M20.5116 11.3838C20.5116 10.6417 20.445 9.92815 20.3213 9.24316H10.4651V13.2913H16.0972C15.8546 14.5994 15.1173 15.7078 14.009 16.4498V19.0756H17.3911C19.37 17.2537 20.5116 14.5709 20.5116 11.3838Z" fill="#4285F4"/>
<path fill-rule="evenodd" clip-rule="evenodd" d="M10.465 21.611C13.2906 21.611 15.6595 20.6739 17.3911 19.0756L14.0089 16.4498C13.0718 17.0777 11.8731 17.4488 10.465 17.4488C7.73936 17.4488 5.43228 15.6078 4.60934 13.1343H1.11304V15.8457C2.83502 19.2659 6.37414 21.611 10.465 21.611Z" fill="#34A853"/>
<path fill-rule="evenodd" clip-rule="evenodd" d="M4.60941 13.1344C4.40011 12.5065 4.28118 11.8358 4.28118 11.1461C4.28118 10.4563 4.40011 9.78561 4.60941 9.15771V6.44629H1.11311C0.404334 7.85908 0 9.45739 0 11.1461C0 12.8348 0.404334 14.4331 1.11311 15.8459L4.60941 13.1344Z" fill="#FBBC05"/>
<path fill-rule="evenodd" clip-rule="evenodd" d="M10.465 4.84317C12.0015 4.84317 13.381 5.37118 14.4656 6.40818L17.4672 3.4066C15.6548 1.71791 13.2859 0.680908 10.465 0.680908C6.37414 0.680908 2.83502 3.02605 1.11304 6.44624L4.60934 9.15765C5.43228 6.68408 7.73936 4.84317 10.465 4.84317Z" fill="#EA4335"/>
</svg>
