<svg width="24" height="25" viewBox="0 0 24 25" fill="none" xmlns="http://www.w3.org/2000/svg">
<path fill-rule="evenodd" clip-rule="evenodd" d="M12 3.25C6.89137 3.25 2.75 7.39137 2.75 12.5C2.75 17.6086 6.89137 21.75 12 21.75C17.1086 21.75 21.25 17.6086 21.25 12.5C21.25 7.39137 17.1086 3.25 12 3.25ZM1.25 12.5C1.25 6.56294 6.06294 1.75 12 1.75C17.9371 1.75 22.75 6.56294 22.75 12.5C22.75 18.4371 17.9371 23.25 12 23.25C6.06294 23.25 1.25 18.4371 1.25 12.5ZM12.0001 10.25C10.7575 10.25 9.75012 11.2574 9.75012 12.5C9.75012 13.7426 10.7575 14.75 12.0001 14.75C13.2428 14.75 14.2501 13.7426 14.2501 12.5C14.2501 11.2574 13.2428 10.25 12.0001 10.25ZM8.25012 12.5C8.25012 10.4289 9.92905 8.75 12.0001 8.75C14.0712 8.75 15.7501 10.4289 15.7501 12.5C15.7501 14.5711 14.0712 16.25 12.0001 16.25C9.92905 16.25 8.25012 14.5711 8.25012 12.5ZM11.7501 12.5C11.7501 12.3619 11.8621 12.25 12.0001 12.25C12.1382 12.25 12.2501 12.3619 12.2501 12.5C12.2501 12.6381 12.1382 12.75 12.0001 12.75C11.8621 12.75 11.7501 12.6381 11.7501 12.5ZM12.0001 10.75C11.0336 10.75 10.2501 11.5335 10.2501 12.5C10.2501 13.4665 11.0336 14.25 12.0001 14.25C12.9666 14.25 13.7501 13.4665 13.7501 12.5C13.7501 11.5335 12.9666 10.75 12.0001 10.75Z" fill="#334BFA"/>
</svg>
