<svg width="22" height="22" viewBox="0 0 22 22" fill="none" xmlns="http://www.w3.org/2000/svg">
<path fill-rule="evenodd" clip-rule="evenodd" d="M8.72216 0.25H8.75H10.75H11.25C11.6642 0.25 12 0.585787 12 1C12 1.41421 11.6642 1.75 11.25 1.75H10.75H8.75C7.57488 1.75 6.73111 1.75041 6.06528 1.79584C5.40618 1.84081 4.97641 1.92737 4.6236 2.07351C3.58223 2.50486 2.75486 3.33223 2.32351 4.3736C2.17737 4.72641 2.09081 5.15618 2.04584 5.81528C2.00041 6.48111 2 7.32488 2 8.5V9C2 9.41421 1.66421 9.75 1.25 9.75C0.835787 9.75 0.5 9.41421 0.5 9V8.5V8.47216V8.47214C0.499997 7.33086 0.499995 6.43603 0.549315 5.71317C0.599496 4.9777 0.703229 4.36562 0.937693 3.79957C1.52128 2.39066 2.64066 1.27128 4.04957 0.687693C4.61562 0.453229 5.2277 0.349496 5.96317 0.299315C6.68603 0.249995 7.58086 0.249997 8.72214 0.25H8.72216ZM21.25 10.25C21.6642 10.25 22 10.5858 22 11V11.5V13V13.0336V13.0336V13.0337C22 14.4053 22 15.4807 21.9294 16.3451C21.8575 17.2252 21.7086 17.9523 21.3733 18.6104C20.822 19.6924 19.9424 20.572 18.8604 21.1233C18.2023 21.4586 17.4752 21.6075 16.5951 21.6794C15.7307 21.75 14.6553 21.75 13.2837 21.75H13.2836H13.2836H13.25H8.75H8.72215C7.58087 21.75 6.68603 21.75 5.96317 21.7007C5.2277 21.6505 4.61562 21.5468 4.04957 21.3123C2.64066 20.7287 1.52128 19.6093 0.937693 18.2004C0.703229 17.6344 0.599496 17.0223 0.549315 16.2868C0.499995 15.564 0.499997 14.6691 0.5 13.5279V13.5278V13.5V13C0.5 12.5858 0.835787 12.25 1.25 12.25C1.66421 12.25 2 12.5858 2 13V13.5C2 14.6751 2.00041 15.5189 2.04584 16.1847C2.09081 16.8438 2.17737 17.2736 2.32351 17.6264C2.75486 18.6678 3.58223 19.4951 4.6236 19.9265C4.97641 20.0726 5.40618 20.1592 6.06528 20.2042C6.73111 20.2496 7.57488 20.25 8.75 20.25H13.25C14.6625 20.25 15.6768 20.2494 16.4729 20.1844C17.2603 20.12 17.768 19.9964 18.1795 19.7868C18.9791 19.3793 19.6293 18.7291 20.0368 17.9295C20.2464 17.518 20.37 17.0103 20.4344 16.2229C20.4994 15.4268 20.5 14.4125 20.5 13V11.5V11C20.5 10.5858 20.8358 10.25 21.25 10.25ZM19.0908 2.90345C18.614 2.47009 17.886 2.47009 17.4092 2.90345C17.3905 2.92046 17.3661 2.94456 17.2803 3.03033L16.9733 3.33733C16.9491 4.41352 17.8365 5.30094 18.9127 5.27667L19.2197 4.96967C19.3054 4.8839 19.3295 4.85949 19.3465 4.84079C19.7799 4.36403 19.7799 3.63597 19.3465 3.15921C19.3295 3.14051 19.3054 3.1161 19.2197 3.03033C19.1339 2.94456 19.1095 2.92046 19.0908 2.90345ZM17.6417 6.54761L17.2197 6.96967C16.9268 7.26256 16.9268 7.73744 17.2197 8.03033C17.5126 8.32322 17.9874 8.32322 18.2803 8.03033L20.2803 6.03033L20.2929 6.01777L20.293 6.01767C20.3603 5.95037 20.4122 5.89853 20.4565 5.84973C21.4099 4.80086 21.4099 3.19914 20.4565 2.15027C20.4121 2.10146 20.3603 2.0496 20.2929 1.98227L20.2929 1.98224L20.2803 1.96967L20.2677 1.95707L20.2677 1.95704L20.2677 1.95702C20.2004 1.8897 20.1485 1.83785 20.0997 1.79348C19.0509 0.840076 17.4491 0.840076 16.4003 1.79348C16.3515 1.83784 16.2996 1.88969 16.2323 1.957L16.2323 1.95704L16.2322 1.95709L16.2197 1.96967L11.9732 6.21619L11.9291 6.26028L11.929 6.26029L11.929 6.2603C11.5045 6.68477 11.2307 6.9585 11.005 7.27245C10.805 7.55063 10.6357 7.84963 10.5001 8.16423C10.347 8.51928 10.2531 8.8949 10.1076 9.47738L10.0925 9.53787L9.52239 11.8181C9.4585 12.0737 9.53338 12.344 9.71967 12.5303C9.90596 12.7166 10.1763 12.7915 10.4319 12.7276L13.7459 11.8991C14.3267 11.7539 14.857 11.4536 15.2803 11.0303L15.7803 10.5303C16.0732 10.2374 16.0732 9.76256 15.7803 9.46967C15.4874 9.17678 15.0126 9.17678 14.7197 9.46967L14.2197 9.96967C13.9886 10.2007 13.6991 10.3646 13.3821 10.4439L11.2808 10.9692L11.5477 9.90167C11.7134 9.2387 11.7785 8.98777 11.8775 8.75815C11.9703 8.5429 12.0861 8.33832 12.2229 8.14799C12.3689 7.94495 12.5506 7.76007 13.0338 7.27685L15.7024 4.60827C16.048 5.49363 16.7564 6.20196 17.6417 6.54761Z" fill="#181818" fill-opacity="0.7"/>
</svg>
