<svg width="24" height="21" viewBox="0 0 24 21" fill="none" xmlns="http://www.w3.org/2000/svg">
<path fill-rule="evenodd" clip-rule="evenodd" d="M12.0001 2.25C7.44377 2.25 3.75012 5.94365 3.75012 10.5C3.75012 11.0813 3.81013 11.6478 3.92403 12.1939C4.2632 13.82 5.08133 15.2703 6.22407 16.3908C8.31996 15.9154 10.9392 14.8653 13.6251 13.3146C16.3125 11.763 18.5321 10.0189 19.9914 8.44132C19.58 6.83957 18.6991 5.42465 17.5024 4.3527C16.042 3.0446 14.1147 2.25 12.0001 2.25ZM20.2481 10.3153C18.7202 11.7728 16.6984 13.2723 14.3751 14.6136C12.051 15.9554 9.74102 16.9567 7.71472 17.551C8.96384 18.3118 10.4309 18.75 12.0001 18.75C16.5565 18.75 20.2501 15.0564 20.2501 10.5C20.2501 10.4383 20.2494 10.3767 20.2481 10.3153ZM5.78107 18.0094C7.46876 19.4088 9.63598 20.25 12.0001 20.25C17.3849 20.25 21.7501 15.8848 21.7501 10.5C21.7501 9.94424 21.7035 9.39883 21.6139 8.86759C22.2696 8.08214 22.7735 7.30438 23.0613 6.57139C23.3797 5.76039 23.4776 4.87961 23.0419 4.12501C22.6061 3.37016 21.794 3.01455 20.9321 2.88492C20.1532 2.76777 19.2275 2.81535 18.2192 2.99064C16.5317 1.59169 14.3634 0.750002 12.0001 0.750002C6.61534 0.750002 2.25012 5.11523 2.25012 10.5C2.25012 11.0557 2.29669 11.6011 2.38628 12.1324C1.73056 12.9178 1.22672 13.6956 0.938914 14.4286C0.620475 15.2396 0.522592 16.1204 0.958266 16.875C1.39856 17.6376 2.22258 17.9927 3.09545 18.1191C3.86791 18.231 4.78356 18.1828 5.78107 18.0094ZM4.44568 16.6641C3.7891 15.8603 3.25825 14.9498 2.88308 13.9626C2.63782 14.3306 2.45529 14.6708 2.33514 14.9768C2.09717 15.5829 2.14649 15.9331 2.2573 16.125C2.3693 16.319 2.65301 16.5394 3.31046 16.6346C3.6323 16.6812 4.0124 16.6921 4.44568 16.6641ZM19.5547 4.33589C19.9969 4.30734 20.3834 4.31927 20.709 4.36824C21.3533 4.46513 21.632 4.68302 21.7429 4.87501C21.8537 5.06693 21.903 5.41711 21.665 6.02318C21.5449 6.32916 21.3624 6.6693 21.1172 7.03737C20.7419 6.0498 20.211 5.13934 19.5547 4.33589Z" fill="#334BFA"/>
</svg>
