<svg width="22" height="22" viewBox="0 0 22 22" fill="none" xmlns="http://www.w3.org/2000/svg">
<path fill-rule="evenodd" clip-rule="evenodd" d="M10.5661 0.395996H10.6H11.4H11.4339H11.434C13.0854 0.395992 14.3708 0.395989 15.4019 0.480232C16.4488 0.565767 17.2994 0.741871 18.0644 1.1317C19.3345 1.77885 20.3671 2.81147 21.0143 4.08156C21.4041 4.84665 21.5802 5.69724 21.6658 6.74413C21.75 7.77517 21.75 9.0605 21.75 10.7118V10.7119V10.7119V10.712V10.712V10.746V14.3176V14.3412V14.3412V14.3413V14.3413V14.3413C21.75 14.6561 21.75 14.8436 21.7401 15.0265C21.6567 16.5621 21.0515 18.0232 20.0246 19.168C19.9023 19.3044 19.7696 19.437 19.547 19.6597L19.5303 19.6763L19.5137 19.693C19.291 19.9156 19.1584 20.0483 19.022 20.1706C17.8772 21.1975 16.4161 21.8027 14.8805 21.8861C14.6976 21.896 14.5101 21.896 14.1953 21.896H14.1953H14.1953H14.1952H14.1952H14.1716H10.6H10.566H10.566H10.5659H10.5659H10.5658C8.91451 21.896 7.62918 21.896 6.59814 21.8118C5.55124 21.7262 4.70065 21.5501 3.93556 21.1603C2.66547 20.5131 1.63285 19.4805 0.985706 18.2104C0.595875 17.4453 0.419771 16.5948 0.334236 15.5479C0.249993 14.5168 0.249996 13.2314 0.25 11.5799V11.5799V11.546V10.746V10.7121V10.712C0.249996 9.06061 0.249993 7.77522 0.334236 6.74413C0.419771 5.69724 0.595875 4.84665 0.985706 4.08156C1.63285 2.81147 2.66547 1.77885 3.93556 1.1317C4.70065 0.741871 5.55124 0.565767 6.59814 0.480232C7.62922 0.395989 8.91462 0.395992 10.566 0.395996H10.5661ZM6.72029 1.97525C5.76615 2.05321 5.13493 2.20408 4.61655 2.46821C3.6287 2.97155 2.82555 3.7747 2.32222 4.76255C2.05809 5.28093 1.90721 5.91215 1.82925 6.86628C1.75058 7.82917 1.75 9.05346 1.75 10.746V11.546C1.75 13.2385 1.75058 14.4628 1.82925 15.4257C1.90721 16.3798 2.05809 17.0111 2.32222 17.5294C2.82555 18.5173 3.6287 19.3204 4.61655 19.8238C5.13493 20.0879 5.76615 20.2388 6.72029 20.3167C7.68317 20.3954 8.90747 20.396 10.6 20.396H14.1716L14.25 20.396V18.346V18.3155C14.25 17.7814 14.25 17.3355 14.2797 16.9713C14.3108 16.5914 14.3779 16.2348 14.5497 15.8975C14.8134 15.38 15.2341 14.9594 15.7515 14.6957C16.0888 14.5239 16.4454 14.4567 16.8253 14.4257C17.1896 14.3959 17.6354 14.396 18.1695 14.396H18.1696H18.2H20.25L20.25 14.3176V10.746C20.25 9.05346 20.2494 7.82917 20.1707 6.86628C20.0928 5.91215 19.9419 5.28093 19.6778 4.76255C19.1744 3.7747 18.3713 2.97155 17.3834 2.46821C16.8651 2.20408 16.2338 2.05321 15.2797 1.97525C14.3168 1.89658 13.0925 1.896 11.4 1.896H10.6C8.90747 1.896 7.68317 1.89658 6.72029 1.97525ZM18.0204 19.054C17.3703 19.6372 16.5891 20.0455 15.75 20.2486V18.346C15.75 17.7735 15.7506 17.3893 15.7748 17.0934C15.7982 16.8063 15.8401 16.669 15.8862 16.5785C16.0061 16.3433 16.1973 16.1521 16.4325 16.0322C16.5231 15.9861 16.6604 15.9442 16.9475 15.9207C17.2434 15.8965 17.6276 15.896 18.2 15.896H20.1026C19.8995 16.7351 19.4912 17.5163 18.908 18.1664C18.8161 18.2688 18.7139 18.3715 18.4697 18.6157C18.2255 18.8598 18.1228 18.9621 18.0204 19.054ZM6 5.396C5.58579 5.396 5.25 5.73178 5.25 6.146C5.25 6.56021 5.58579 6.896 6 6.896H14C14.4142 6.896 14.75 6.56021 14.75 6.146C14.75 5.73178 14.4142 5.396 14 5.396H6ZM5.25 10.146C5.25 9.73178 5.58579 9.396 6 9.396H12C12.4142 9.396 12.75 9.73178 12.75 10.146C12.75 10.5602 12.4142 10.896 12 10.896H6C5.58579 10.896 5.25 10.5602 5.25 10.146ZM6 13.396C5.58579 13.396 5.25 13.7318 5.25 14.146C5.25 14.5602 5.58579 14.896 6 14.896H8C8.41421 14.896 8.75 14.5602 8.75 14.146C8.75 13.7318 8.41421 13.396 8 13.396H6Z" fill="#334BFA"/>
</svg>
