<svg width="14" height="18" viewBox="0 0 14 18" fill="none" xmlns="http://www.w3.org/2000/svg">
<path fill-rule="evenodd" clip-rule="evenodd" d="M4.47674 4.53488C4.47674 3.30508 5.47369 2.30814 6.70349 2.30814C7.93329 2.30814 8.93023 3.30508 8.93023 4.53488C8.93023 5.76468 7.93329 6.76162 6.70349 6.76162C5.47369 6.76162 4.47674 5.76468 4.47674 4.53488ZM6.70349 0.808136C4.64526 0.808136 2.97674 2.47666 2.97674 4.53488C2.97674 6.5931 4.64526 8.26162 6.70349 8.26162C8.76171 8.26162 10.4302 6.5931 10.4302 4.53488C10.4302 2.47666 8.76171 0.808136 6.70349 0.808136ZM4.32209 9.73837C1.93507 9.73837 0 11.6734 0 14.0605C0 15.7899 1.40197 17.1919 3.1314 17.1919H10.2756C12.005 17.1919 13.407 15.7899 13.407 14.0605C13.407 11.6734 11.4719 9.73837 9.08488 9.73837H4.32209ZM1.5 14.0605C1.5 12.5019 2.76349 11.2384 4.32209 11.2384H9.08488C10.6435 11.2384 11.907 12.5019 11.907 14.0605C11.907 14.9615 11.1766 15.6919 10.2756 15.6919H3.1314C2.2304 15.6919 1.5 14.9615 1.5 14.0605Z" fill="#181818" fill-opacity="0.7"/>
</svg>
