<svg width="24" height="24" viewBox="0 0 24 24" fill="none" xmlns="http://www.w3.org/2000/svg">
<path fill-rule="evenodd" clip-rule="evenodd" d="M13.7487 3.35995C12.6367 2.85788 11.3627 2.85788 10.2507 3.35995C9.6926 3.61197 9.12863 4.14917 8.39184 5.22158C7.65807 6.2896 6.82193 7.78116 5.67404 9.83098L5.32303 10.4578C4.21938 12.4286 3.41767 13.8617 2.90969 15.0022C2.40039 16.1457 2.23941 16.8848 2.30786 17.4832C2.44387 18.6721 3.07485 19.7487 4.04578 20.4483C4.53444 20.8004 5.25794 21.021 6.50447 21.1354C7.74776 21.2494 9.38991 21.2501 11.6487 21.2501H12.3507C14.6095 21.2501 16.2517 21.2494 17.495 21.1354C18.7415 21.021 19.465 20.8004 19.9536 20.4483C20.9246 19.7487 21.5555 18.6721 21.6916 17.4832C21.76 16.8848 21.599 16.1457 21.0897 15.0022C20.5817 13.8617 19.78 12.4286 18.6764 10.4578L18.3254 9.83097C17.1775 7.78116 16.3413 6.2896 15.6076 5.22158C14.8708 4.14917 14.3068 3.61197 13.7487 3.35995ZM9.63346 1.99285C11.1378 1.31358 12.8616 1.31358 14.366 1.99285C15.3083 2.41835 16.0649 3.23834 16.8439 4.37217C17.6213 5.50362 18.4903 7.05554 19.6139 9.06196L19.614 9.06209L19.614 9.06215L19.6341 9.09807L19.9851 9.72486L20.0051 9.76042C21.0847 11.6883 21.9206 13.1811 22.46 14.3919C23.0012 15.6072 23.2968 16.6488 23.1818 17.6536C22.9978 19.2622 22.1441 20.7187 20.8305 21.6653C20.0099 22.2565 18.9568 22.5076 17.632 22.6291C16.312 22.7502 14.6011 22.7502 12.3917 22.7501H12.3916H12.3916H12.3507H11.6487H11.6078H11.6078H11.6077C9.39829 22.7502 7.68738 22.7502 6.36746 22.6291C5.04263 22.5076 3.98948 22.2565 3.16888 21.6653C1.85527 20.7187 1.0016 19.2622 0.817584 17.6536C0.702633 16.6488 0.998172 15.6072 1.53946 14.3919C2.07876 13.1811 2.91473 11.6883 3.99429 9.76054L3.99431 9.76052L3.99433 9.76049L4.01427 9.72487L4.36528 9.09808L4.38539 9.06217L4.38543 9.06209L4.38543 9.06208C5.50906 7.0556 6.37815 5.50365 7.15551 4.37218C7.9345 3.23834 8.6911 2.41835 9.63346 1.99285ZM11.9997 8.25015C12.4139 8.25015 12.7497 8.58594 12.7497 9.00015V13.0001C12.7497 13.4144 12.4139 13.7501 11.9997 13.7501C11.5855 13.7501 11.2497 13.4144 11.2497 13.0001V9.00015C11.2497 8.58594 11.5855 8.25015 11.9997 8.25015ZM11.9997 17.0001C12.552 17.0001 12.9997 16.5524 12.9997 16.0001C12.9997 15.4479 12.552 15.0001 11.9997 15.0001C11.4474 15.0001 10.9997 15.4479 10.9997 16.0001C10.9997 16.5524 11.4474 17.0001 11.9997 17.0001Z" fill="#FA336F"/>
</svg>
