<svg width="212" height="159" viewBox="0 0 212 159" fill="none" xmlns="http://www.w3.org/2000/svg">
<path d="M146.119 25.1957C145.919 25.1843 145.818 25.4297 145.969 25.5595L150.026 29.0418V29.0434L153.399 31.9387H153.4L155.652 33.8738C155.868 34.0587 156.183 34.0728 156.414 33.908L166.952 26.3912L146.119 25.1957Z" fill="white"/>
<path d="M146.131 24.9282L166.967 26.1238C166.967 26.1238 167.389 26.3703 167.11 26.6084C163.592 29.1178 160.102 31.6664 156.556 34.1363C156.231 34.3528 155.775 34.329 155.475 34.0772L153.22 32.1412L149.837 29.2356L145.789 25.7602C145.494 25.4964 145.623 24.9091 146.131 24.9282ZM150.202 28.8395L153.577 31.7366C154.332 32.3848 155.065 33.0576 155.841 33.681C155.959 33.7721 156.132 33.7762 156.256 33.6899L166.174 26.615L146.281 25.4735C147.588 26.5956 148.896 27.7176 150.202 28.8395Z" fill="#181818"/>
<path d="M150.045 29.0137V33.1851C150.045 33.2808 150.142 33.3453 150.229 33.3076L153.38 31.9419L150.045 29.0137Z" fill="white"/>
<path d="M150.075 28.7474C150.192 28.7622 150.191 28.7829 150.228 28.8128L153.563 31.741C153.663 31.8365 153.65 31.8692 153.654 31.9245C153.663 32.0374 153.623 32.1319 153.493 32.1948C152.439 32.6516 151.391 33.1249 150.33 33.5653C150.089 33.656 149.798 33.4705 149.785 33.202C149.764 31.8073 149.784 30.4124 149.784 29.0174C149.787 28.9518 149.794 28.9412 149.805 28.9134C149.848 28.8081 149.958 28.7421 150.075 28.7474ZM150.32 32.98L152.889 31.8669L150.32 29.6116C150.32 30.7343 150.32 31.8571 150.32 32.98Z" fill="#181818"/>
<path d="M150.025 29.043V29.0413L166.952 26.3906" fill="white"/>
<path d="M166.994 26.1266C167.244 26.1861 167.3 26.5833 166.994 26.656L150.067 29.3084C150.067 29.3084 149.775 29.305 149.754 29.0437C149.754 29.0437 149.767 28.8285 149.982 28.7772L166.909 26.1266C166.909 26.1266 166.948 26.123 166.994 26.1266Z" fill="#181818"/>
<path d="M127.257 117.305C127.619 117.654 127.477 117.446 127.066 118.093C126.718 118.645 126.391 119.21 126.086 119.786C126.086 119.786 126.061 119.904 125.822 119.93L125.638 119.835L125.576 119.639L125.606 119.539C125.907 118.968 126.229 118.409 126.572 117.863C126.652 117.737 126.732 117.611 126.814 117.486C126.922 117.321 127.159 117.266 127.159 117.266C127.192 117.279 127.225 117.292 127.257 117.305ZM130.324 113.419L130.473 113.562C130.519 113.768 130.312 113.966 130.15 114.137C129.694 114.622 129.255 115.121 128.836 115.636C128.836 115.636 128.576 115.934 128.339 115.657L128.316 115.453L128.364 115.36C128.883 114.718 129.434 114.101 130.006 113.508L130.22 113.401C130.255 113.407 130.289 113.413 130.324 113.419ZM134.114 110.174L134.239 110.339L134.209 110.542C133.875 110.909 133.404 111.172 132.996 111.503C132.629 111.801 132.12 112.214 132.12 112.214C131.764 112.261 131.776 112.047 131.776 112.047L131.79 111.842C131.965 111.617 132.229 111.436 132.47 111.238C132.89 110.892 133.319 110.558 133.756 110.233L134.015 110.14C134.048 110.151 134.081 110.163 134.114 110.174ZM138.266 107.49C138.479 107.6 138.459 107.719 138.459 107.719L138.4 107.915C138.003 108.243 137.496 108.433 137.035 108.705C136.755 108.871 136.477 109.041 136.2 109.214L135.976 109.262L135.806 109.145C135.78 109.079 135.74 109.01 135.812 108.847L135.889 108.775C136.541 108.363 137.208 107.975 137.886 107.606C137.886 107.606 137.99 107.465 138.266 107.49ZM142.848 105.449C143.043 105.587 143.007 105.701 143.007 105.701C142.952 105.933 142.831 105.943 142.831 105.943C142.056 106.232 141.293 106.547 140.54 106.887C140.54 106.887 140.447 106.964 140.243 106.839C140.243 106.839 140.135 106.784 140.173 106.549C140.173 106.549 140.799 106.179 141.364 105.944C141.653 105.824 141.944 105.708 142.237 105.595C142.323 105.562 142.408 105.529 142.494 105.497C142.605 105.455 142.715 105.418 142.848 105.449ZM147.671 104.068L147.794 104.234C147.817 104.753 146.861 104.726 146.071 104.925C145.706 105.018 145.183 105.165 145.183 105.165L144.977 105.143C144.922 105.097 144.854 105.056 144.838 104.879C144.838 104.879 144.981 104.664 145.29 104.578C146.012 104.376 146.743 104.212 147.466 104.037C147.466 104.037 147.561 104.029 147.671 104.068ZM152.499 102.802C152.682 102.956 152.637 103.067 152.637 103.067C152.563 103.293 152.441 103.294 152.441 103.294C151.744 103.49 151.044 103.679 150.344 103.863C150.203 103.9 150.067 103.944 149.918 103.953L149.739 103.85C149.739 103.85 149.642 103.777 149.72 103.553L149.886 103.429C150.684 103.22 151.481 103.005 152.276 102.783C152.276 102.783 152.382 102.765 152.499 102.802ZM157.273 101.351L157.408 101.506L157.393 101.71L157.236 101.845C156.457 102.1 155.675 102.344 154.891 102.582C154.891 102.582 154.879 102.647 154.64 102.575C154.64 102.575 154.424 102.552 154.528 102.213L154.688 102.082C154.861 102.03 155.034 101.978 155.206 101.925C155.821 101.736 156.434 101.542 157.045 101.342C157.045 101.342 157.153 101.318 157.273 101.351ZM161.964 99.6664L162.108 99.8139L162.104 100.019L161.955 100.161C161.202 100.455 160.444 100.737 159.683 101.009L159.4 101.026L159.26 100.875L159.27 100.67L159.424 100.532C159.587 100.474 159.75 100.415 159.913 100.356C160.451 100.16 160.986 99.9605 161.518 99.7553L161.861 99.6442C161.895 99.6515 161.93 99.659 161.964 99.6664ZM166.527 97.6791C166.735 97.7991 166.709 97.9163 166.709 97.9163L166.641 98.1101C166.641 98.1101 165.225 98.8004 164.344 99.1814C163.883 99.3806 163.896 98.9703 163.896 98.9703C163.938 98.7365 164.058 98.7199 164.058 98.7199C164.159 98.6761 164.261 98.6322 164.362 98.5882C165.005 98.3066 165.641 98.0161 166.273 97.7143C166.273 97.7143 166.395 97.6611 166.527 97.6791ZM170.877 95.2834L171.046 95.4018L171.081 95.604C170.98 95.8271 170.739 95.9098 170.533 96.0346C169.987 96.3654 169.434 96.6824 168.872 96.9889C168.535 97.1727 168.392 96.8277 168.392 96.8277L168.45 96.6306C169.085 96.1018 169.92 95.7865 170.672 95.3178C170.672 95.3178 170.76 95.2801 170.877 95.2834ZM174.932 92.3412L175.071 92.4932C175.106 92.7283 174.998 92.782 174.998 92.782C174.391 93.3254 173.759 93.8348 173.098 94.3233C172.847 94.5085 172.742 94.379 172.742 94.379C172.742 94.379 172.625 94.3474 172.613 94.11C172.613 94.11 173.319 93.496 173.921 92.9982C174.22 92.7506 174.634 92.3848 174.634 92.3848L174.829 92.3159C174.863 92.3243 174.898 92.3328 174.932 92.3412ZM178.179 88.5936C178.539 88.9213 178.346 88.8484 178.108 89.2171C177.709 89.8369 177.258 90.426 176.774 90.9857C176.774 90.9857 176.748 91.0391 176.584 91.084L176.387 91.02L176.294 90.8369C176.294 90.8369 176.833 90.1002 177.266 89.4952C177.521 89.1398 177.807 88.6827 177.807 88.6827C177.807 88.6827 177.875 88.4835 178.179 88.5936ZM179.809 83.9573C179.994 84.1096 179.949 84.2211 179.949 84.2211C179.857 85.0602 179.659 85.8868 179.375 86.6844L179.234 86.8389C179.001 86.8964 178.936 86.7949 178.936 86.7949L178.848 86.6095C178.906 86.2241 179.289 85.2269 179.408 84.1773C179.408 84.1773 179.392 84.1228 179.509 83.9837L179.709 83.926C179.742 83.9364 179.776 83.9467 179.809 83.9573ZM179.199 79.0816L179.336 79.2353C179.613 80.0292 179.813 80.8498 179.922 81.6841L179.868 81.8896C179.686 82.045 179.582 81.9834 179.582 81.9834C179.367 81.8768 179.385 81.7582 179.385 81.7582C179.378 81.6973 179.369 81.6365 179.36 81.5758C179.252 80.8449 179.072 80.1305 178.833 79.4351C178.833 79.4351 178.78 79.4174 178.837 79.2051L178.992 79.0691C178.992 79.0691 179.086 79.0522 179.199 79.0816ZM176.73 74.8178C177.346 75.2995 177.828 76.1658 178.272 76.924L178.308 77.1444L178.182 77.3068L177.976 77.333C177.798 77.2457 177.725 77.0581 177.62 76.8892C177.258 76.306 176.85 75.7512 176.401 75.2302C176.401 75.2302 176.3 75.163 176.366 74.9344L176.524 74.8015C176.524 74.8015 176.618 74.7863 176.73 74.8178ZM172.88 71.7147C173.613 72.1146 174.308 72.5799 174.961 73.1004L175.089 73.304C175.067 73.5405 174.948 73.5673 174.948 73.5673C174.719 73.6373 174.649 73.5396 174.649 73.5396C174.593 73.4951 174.538 73.451 174.482 73.4074C173.898 72.9538 173.277 72.5462 172.627 72.1888C172.627 72.1888 172.569 72.1775 172.489 72.0235C172.489 72.0235 172.425 71.9216 172.58 71.7399L172.78 71.6831C172.813 71.6936 172.847 71.7042 172.88 71.7147ZM168.231 69.7973C168.964 70.0699 169.695 70.3473 170.425 70.6286L170.57 70.6847C170.772 70.8127 170.742 70.929 170.742 70.929L170.666 71.1199L170.476 71.2019C170.476 71.2019 169.188 70.727 168.183 70.3517L168.041 70.2989C167.836 70.1735 167.865 70.0568 167.865 70.0568L167.938 69.865C168.037 69.7948 167.979 69.7562 168.231 69.7973ZM163.521 68.1132C164.3 68.3814 165.078 68.6544 165.854 68.931L166.035 69.0791L166.044 69.284C165.92 69.4874 165.802 69.4604 165.802 69.4604C165.802 69.4604 164.647 69.0711 163.695 68.741L163.252 68.5663L163.161 68.3818C163.194 68.1464 163.314 68.1251 163.314 68.1251C163.314 68.1251 163.405 68.0973 163.521 68.1132ZM158.775 66.5328C159.508 66.7691 160.239 67.0088 160.969 67.2508L161.243 67.3635C161.243 67.3635 161.353 67.4153 161.322 67.6509L161.186 67.8054L160.979 67.8195C160.213 67.5648 159.445 67.3131 158.676 67.0643L158.449 66.9088L158.434 66.7042C158.555 66.4903 158.649 66.5178 158.775 66.5328ZM154.007 65.0271C154.701 65.2423 155.394 65.4586 156.086 65.6761L156.313 65.7474C156.687 65.8653 156.518 66.2009 156.518 66.2009C156.33 66.349 156.228 66.2833 156.228 66.2833C155.532 66.0636 154.834 65.8458 154.136 65.6288L153.752 65.4882L153.656 65.3064C153.682 65.0703 153.8 65.0453 153.8 65.0453C153.8 65.0453 153.891 65.0147 154.007 65.0271ZM149.231 63.5547C149.911 63.7646 150.592 63.9741 151.273 64.1835L151.619 64.2901C151.83 64.4035 151.808 64.5216 151.808 64.5216C151.783 64.7579 151.664 64.7831 151.664 64.7831L151.458 64.8017C150.786 64.595 150.115 64.3885 149.444 64.1815L149.07 64.0661C148.859 63.9525 148.88 63.8345 148.88 63.8345L148.942 63.6387C149.037 63.5631 148.977 63.528 149.231 63.5547ZM144.47 62.0522C145.245 62.3053 146.022 62.5524 146.799 62.7974C146.799 62.7974 147.144 62.9321 146.972 63.2404L146.788 63.3347L146.683 63.3231C145.902 63.078 145.123 62.8289 144.345 62.5759L144.143 62.4272C144.047 62.0853 144.263 62.0673 144.263 62.0673C144.263 62.0673 144.354 62.0381 144.47 62.0522ZM139.762 60.4165C139.887 60.4635 140.012 60.5099 140.137 60.5564C140.755 60.7848 141.375 61.0061 141.998 61.2226L142.26 61.3964L142.272 61.6012L142.134 61.7541C142.032 61.78 142.03 61.78 141.927 61.7656C141.155 61.4985 140.384 61.2224 139.617 60.9354L139.419 60.7764C139.365 60.5447 139.469 60.4828 139.469 60.4828L139.658 60.399C139.693 60.4049 139.728 60.4106 139.762 60.4165ZM135.199 58.4644C135.294 58.5119 135.39 58.5589 135.486 58.6055C136.134 58.9203 136.79 59.2146 137.453 59.4965L137.598 59.6435L137.595 59.8485L137.446 59.9916L137.239 59.9887C136.474 59.6633 135.717 59.3207 134.974 58.9524C134.974 58.9524 134.842 58.9671 134.806 58.6838L134.9 58.5007L135.097 58.4366C135.131 58.4459 135.165 58.4551 135.199 58.4644ZM130.943 55.8034C131.339 56.0174 131.666 56.3536 132.045 56.6197C132.352 56.8348 132.665 57.04 132.983 57.2381L133.157 57.4387C133.16 57.5096 133.174 57.5876 133.05 57.7169C133.05 57.7169 132.874 57.8043 132.636 57.6553C132.5 57.5705 132.366 57.4842 132.232 57.3965C131.7 57.0471 131.186 56.6724 130.695 56.27C130.695 56.27 130.64 56.2448 130.592 56.083L130.654 55.8874L130.838 55.7924C130.873 55.7961 130.908 55.7999 130.943 55.8034ZM128.075 52.2045C128.403 52.8867 128.816 53.5279 129.294 54.12C129.294 54.12 129.35 54.1184 129.37 54.3376C129.37 54.3376 129.39 54.4558 129.177 54.5662C129.177 54.5662 128.981 54.5948 128.797 54.3631C128.711 54.255 128.628 54.1455 128.546 54.0345C128.154 53.5002 127.815 52.9283 127.535 52.3276L127.528 52.1213L127.669 51.9716L127.877 51.9649L128.028 52.1047C128.044 52.1381 128.059 52.1713 128.075 52.2045ZM127.228 47.135L127.398 47.2525L127.434 47.4545C127.425 47.4941 127.416 47.5338 127.408 47.5736C127.259 48.3009 127.236 49.047 127.332 49.7856C127.332 49.7856 127.388 49.8056 127.284 50.0167C127.284 50.0167 127.241 50.2303 126.904 50.0676C126.904 50.0676 126.757 49.6313 126.738 49.2283C126.709 48.608 126.764 47.9844 126.896 47.3764L127.023 47.1707C127.023 47.1707 127.111 47.1325 127.228 47.135ZM129.718 42.9038C130.226 43.2187 129.873 43.2715 129.57 43.6054C129.114 44.1121 128.698 44.6544 128.346 45.2363C128.346 45.2363 128.35 45.3636 128.066 45.3792L127.888 45.2747L127.836 45.0761L127.871 44.9775C128.291 44.2748 128.804 43.6297 129.365 43.0326L129.614 42.8864C129.648 42.8922 129.683 42.8981 129.718 42.9038ZM133.587 39.8227C134.165 40.0783 133.747 40.2628 133.498 40.4185C132.865 40.8192 132.245 41.2461 131.65 41.7042C131.65 41.7042 131.613 41.7515 131.444 41.7646L131.263 41.664C131.263 41.664 131.128 41.5647 131.24 41.3673C131.334 41.2018 131.551 41.1016 131.73 40.9701C132.21 40.6172 132.704 40.2835 133.207 39.9666C133.208 39.9657 133.378 39.8593 133.382 39.8572C133.446 39.8261 133.516 39.8207 133.587 39.8227ZM138.045 37.53C138.106 37.5677 138.179 37.5993 138.22 37.7726C138.22 37.7726 137.995 38.0507 137.528 38.2645C136.965 38.5238 136.407 38.7944 135.856 39.0779C135.856 39.0779 135.856 39.1382 135.617 39.113L135.458 38.9816C135.458 38.9816 135.374 38.8942 135.49 38.6856L135.572 38.6199C136.293 38.2464 137.027 37.8978 137.768 37.5668L137.941 37.5125C137.976 37.5184 138.01 37.5241 138.045 37.53ZM142.727 35.7431L142.864 35.8973C142.895 36.1329 142.786 36.1849 142.786 36.1849C142.786 36.1849 142.141 36.4229 141.6 36.616C141.183 36.7646 140.768 36.9188 140.355 37.0774L140.147 37.0729L140.004 36.9247L140.009 36.7198L140.159 36.578C140.735 36.3565 141.316 36.1439 141.901 35.941C142.005 35.9048 142.11 35.8687 142.215 35.833C142.22 35.8312 142.513 35.7317 142.52 35.7299C142.588 35.7126 142.659 35.7253 142.727 35.7431Z" fill="#181818"/>
<path d="M65.0462 119.83C65.4819 120.033 65.2743 120.045 65.1768 120.413C64.9835 121.14 64.7629 121.864 64.4744 122.561C64.4744 122.561 64.4791 122.616 64.3209 122.72L64.1135 122.719L63.9674 122.574C63.9674 122.574 63.9921 122.316 64.074 122.103C64.3278 121.429 64.5348 120.74 64.7131 120.044C64.7131 120.044 64.6954 119.991 64.8412 119.86C64.8412 119.86 64.9293 119.824 65.0462 119.83ZM65.7856 114.902C65.9816 115.039 65.9458 115.154 65.9458 115.154C65.9275 115.801 65.8806 116.448 65.8063 117.091C65.7913 117.221 65.7751 117.351 65.7579 117.481C65.7409 117.609 65.7321 117.733 65.6266 117.85C65.6266 117.85 65.5151 118.034 65.2471 117.798C65.2471 117.798 65.2976 116.882 65.3536 116.126C65.3771 115.81 65.3932 115.493 65.403 115.176C65.403 115.176 65.3488 115.147 65.4888 114.951L65.6824 114.878C65.7169 114.886 65.7512 114.894 65.7856 114.902ZM65.3336 109.954C65.4985 110.108 65.5189 110.399 65.5722 110.662C65.7014 111.299 65.7955 111.942 65.8596 112.59C65.8596 112.59 65.8846 112.836 65.6186 112.915L65.4203 112.855C65.4203 112.855 65.2662 112.05 65.1535 111.376C65.0899 110.996 65.0139 110.617 64.9261 110.242C64.9261 110.242 64.8681 110.137 65.0326 109.964L65.2346 109.917C65.2677 109.93 65.3005 109.942 65.3336 109.954ZM63.4287 105.281C63.6433 105.387 63.7374 105.658 63.8637 105.894C64.1737 106.473 64.4488 107.07 64.6918 107.681C64.6918 107.681 64.7351 107.716 64.6934 107.902L64.5435 108.044C64.5435 108.044 64.3473 108.259 64.0745 107.599C63.7978 106.938 63.4798 106.294 63.1216 105.672L63.0958 105.469L63.2229 105.307C63.2229 105.307 63.312 105.273 63.4287 105.281ZM43.0434 105.922C43.8352 105.969 44.6311 105.914 45.4106 105.757L45.6212 105.793L45.7385 105.962L45.7003 106.164L45.5293 106.28C44.6859 106.456 43.8162 106.51 42.9511 106.453L42.7531 106.36L42.6878 106.166C42.783 105.824 42.9775 105.918 42.9775 105.918C42.9995 105.92 43.0214 105.921 43.0434 105.922ZM38.417 104.149C38.6092 104.263 38.8068 104.455 38.9983 104.589C39.4873 104.933 40.0272 105.204 40.5887 105.412C40.5887 105.412 40.7095 105.422 40.7646 105.653L40.692 105.845C40.692 105.845 40.5341 105.967 40.2762 105.867C39.5001 105.566 38.771 105.15 38.1502 104.605L38.0557 104.416L38.1251 104.222C38.2228 104.15 38.1643 104.113 38.417 104.149ZM49.9894 103.455C50.1863 103.592 50.1514 103.706 50.1514 103.706L50.0679 103.894C49.4417 104.488 48.738 104.998 47.9712 105.405C47.9712 105.405 47.9194 105.441 47.7635 105.425L47.6038 105.294C47.6038 105.294 47.4259 105.166 47.7167 104.932C47.7167 104.932 48.8575 104.3 49.6929 103.507L49.886 103.433C49.9205 103.44 49.9549 103.448 49.9894 103.455ZM60.3588 101.359C61.0158 101.782 61.5964 102.593 62.1519 103.29L62.2159 103.499C62.1404 103.725 62.019 103.725 62.019 103.725L61.8132 103.699C61.47 103.406 61.236 103.022 60.934 102.689C60.6556 102.383 60.3666 102.087 60.0689 101.799C60.0689 101.799 59.9625 101.741 60.0066 101.508C60.0066 101.508 60.0411 101.3 60.3588 101.359ZM36.9538 99.5941L37.0846 99.7533C37.1541 100.483 37.0748 101.367 37.2786 102.253C37.2786 102.253 37.3362 102.358 37.1709 102.531C37.1709 102.531 36.8351 102.748 36.7359 102.31C36.5567 101.519 36.4727 100.7 36.5459 99.8974C36.576 99.567 36.7475 99.5732 36.7475 99.5732C36.7475 99.5732 36.8418 99.56 36.9538 99.5941ZM52.6871 99.2746C53.084 99.5234 52.8988 99.4891 52.746 99.8613C52.6837 100.013 52.6186 100.164 52.5509 100.314C52.3074 100.853 52.0279 101.376 51.7113 101.878L51.5259 102.022L51.3214 101.987L51.2015 101.82C51.1962 101.632 51.3305 101.47 51.4352 101.294C51.7815 100.706 52.076 100.089 52.3258 99.4557L52.4797 99.2796C52.4797 99.2796 52.5717 99.2548 52.6871 99.2746ZM56.3993 98.336C57.1038 98.7632 57.785 99.2187 58.4471 99.7158C58.5833 99.8179 58.668 99.9188 58.5596 100.138L58.3803 100.241C58.3803 100.241 57.6709 99.802 57.102 99.4207C56.7785 99.2035 56.4492 98.9949 56.1159 98.7927L55.9941 98.6267C55.9941 98.6267 55.8686 98.4521 56.1945 98.3036C56.1945 98.3036 56.2895 98.2958 56.3993 98.336ZM39.5897 95.57C39.8052 95.675 39.7882 95.7938 39.7882 95.7938C39.7635 96.1678 39.7126 96.0206 39.4481 96.1851C38.8413 96.5679 38.3052 97.0515 37.8976 97.6376L37.7173 97.7615C37.4769 97.7603 37.4397 97.6462 37.4397 97.6462C37.3488 97.4263 37.4411 97.3486 37.4411 97.3486C37.9348 96.6252 38.6182 96.0404 39.3825 95.5978C39.3825 95.5978 39.4721 95.5625 39.5897 95.57ZM53.8407 94.4272C54.0257 94.5788 53.9812 94.6905 53.9812 94.6905C53.9048 95.4217 53.7955 96.1504 53.6456 96.8706C53.7215 96.9058 53.7962 96.9415 53.8718 96.9774C54.439 97.2495 54.3434 97.2657 54.2858 97.4774L54.1297 97.6122L53.4357 97.3652L53.2534 97.3922L53.0836 97.2745L53.0495 97.1873C52.5933 96.9815 52.1323 96.7859 51.6674 96.5986L51.486 96.4416C51.4127 96.0945 51.6292 96.0903 51.6292 96.0903L51.8366 96.0883C52.2749 96.263 52.7093 96.4469 53.14 96.6393C53.2708 95.9847 53.3688 95.3204 53.4402 94.6538L53.5408 94.4549L53.7397 94.3965C53.7733 94.4066 53.8069 94.417 53.8407 94.4272ZM46.9623 94.6324C47.7982 94.7674 48.6233 94.965 49.431 95.2197C49.431 95.2197 49.5527 95.1866 49.6306 95.4569L49.5668 95.6521L49.3824 95.7457C49.3824 95.7457 48.5812 95.513 47.8887 95.3567C47.5532 95.281 47.2154 95.2163 46.8758 95.1615C46.8758 95.1615 46.7587 95.2118 46.6402 94.9566L46.6731 94.7542L46.8411 94.6338C46.8411 94.6338 46.9275 94.6269 46.9623 94.6324ZM44.4891 94.4483L44.636 94.5933V94.7983L44.4895 94.9434C44.0059 95.0386 43.4678 94.9803 42.9461 95.0384C42.609 95.0759 42.2744 95.1311 41.9433 95.2025L41.7287 95.1695C41.5549 95.0054 41.6071 94.8971 41.6071 94.8971C41.694 94.6756 41.8152 94.6819 41.8152 94.6819C42.6549 94.4967 43.5184 94.4311 44.3826 94.4279C44.3826 94.4279 44.446 94.4399 44.4891 94.4483ZM53.8837 89.4147C54.1465 89.5676 54.0665 89.6732 54.0721 89.7729C54.08 89.9152 54.0873 90.0576 54.0938 90.1999C54.1221 90.8353 54.1335 91.4709 54.1268 92.1068L54.0443 92.359L53.8517 92.4351L53.6611 92.3542L53.5842 92.1638C53.5945 91.3398 53.5722 90.5109 53.524 89.6832C53.524 89.6832 53.4848 89.5698 53.6767 89.4265C53.6767 89.4265 53.7679 89.3988 53.8837 89.4147ZM53.2715 84.4414C53.4906 84.5391 53.4778 84.6584 53.4778 84.6584C53.6131 85.4604 53.7321 86.2654 53.83 87.0717C53.8418 87.168 53.896 87.2478 53.7021 87.4112L53.4962 87.4353C53.4962 87.4353 53.3181 87.3473 53.2729 86.9799C53.1788 86.2327 53.0683 85.4881 52.9432 84.7467L52.9899 84.5468L53.1658 84.4382C53.201 84.4393 53.2363 84.4403 53.2715 84.4414ZM52.3117 79.5795C52.5137 79.7612 52.5178 80.0752 52.5883 80.3665C52.7212 80.9161 52.8477 81.467 52.9675 82.0207C53.058 82.4395 53.0475 82.3615 52.8921 82.4668C52.5832 82.6767 52.5153 82.3977 52.5153 82.3977C52.5153 82.3977 52.3242 81.5993 52.1499 80.8616C52.0534 80.4531 51.9091 79.8739 51.9091 79.8739L51.9398 79.671L52.1065 79.5492C52.1065 79.5492 52.2015 79.5404 52.3117 79.5795ZM50.9305 74.7573L51.0637 74.9147C51.31 75.6929 51.5431 76.4767 51.7683 77.2622C51.7683 77.2622 51.8413 77.2772 51.76 77.5233L51.5971 77.6502C51.5971 77.6502 51.4934 77.7123 51.3108 77.5578C51.3108 77.5578 50.8985 76.1941 50.5485 75.0813L50.5649 74.8706C50.7773 74.61 50.814 74.7236 50.9305 74.7573ZM49.1313 70.0639C49.2196 70.1198 49.2207 70.1209 49.2807 70.2061C49.3331 70.3243 49.3849 70.4427 49.4364 70.5615C49.7141 71.2038 49.9774 71.852 50.2262 72.5054L50.2307 72.741L50.079 72.8808C49.8418 72.9192 49.786 72.8128 49.786 72.8128C49.786 72.8128 49.4828 72.0722 49.2281 71.4569C49.0914 71.1265 48.9505 70.798 48.8063 70.4708L48.7801 70.2159C48.9626 69.9339 49.0115 70.0428 49.1313 70.0639ZM46.8337 65.5884C47.0787 65.7095 47.1786 66.0292 47.3307 66.3019C47.6072 66.7978 47.8744 67.2984 48.1336 67.8032C48.1336 67.8032 48.1788 67.8596 48.2268 68.0311L48.1616 68.2258L47.9765 68.3179C47.9765 68.3179 47.8623 68.3587 47.7145 68.1713C47.3417 67.439 46.9506 66.7193 46.5429 66.0072C46.5429 66.0072 46.4124 65.9515 46.5481 65.6827L46.7282 65.581C46.7634 65.5835 46.7987 65.586 46.8337 65.5884ZM44.1887 61.4045C44.8275 62.0016 45.3853 62.8048 45.7229 63.6588L45.6785 63.8592L45.5038 63.9696C45.5038 63.9696 45.3976 63.9921 45.3011 63.9256C45.1387 63.8135 45.0403 63.5607 44.8963 63.3427C44.5569 62.8316 44.209 62.3265 43.8529 61.8271L43.7774 61.5865L43.8878 61.4129C43.9989 61.3636 43.9501 61.3145 44.1887 61.4045ZM41.0486 57.4561C41.2767 57.6318 41.4343 57.8687 41.6185 58.0857C42.0015 58.5374 42.3763 58.9957 42.7447 59.4592C42.7447 59.4592 42.7902 59.5014 42.8021 59.6595C42.8021 59.6595 42.8202 59.7781 42.6056 59.885L42.3996 59.86C42.3996 59.86 41.8653 59.2183 41.3906 58.6521C41.1738 58.3936 40.9541 58.1377 40.7328 57.883C40.7328 57.883 40.6803 57.8624 40.6568 57.6759C40.6568 57.6759 40.6131 57.3373 41.0486 57.4561ZM37.5461 53.8182C37.8093 53.9842 38.0174 54.2389 38.2486 54.4654C38.6428 54.8513 39.0301 55.2438 39.4125 55.641L39.5017 55.8484L39.417 56.0356L39.2234 56.1088L39.0341 56.0252C38.9654 55.9536 38.8966 55.8825 38.8276 55.8112C38.3249 55.294 37.8125 54.7869 37.2907 54.29L37.177 54.0737C37.2188 53.8397 37.3389 53.8227 37.3389 53.8227C37.3389 53.8227 37.4308 53.7981 37.5461 53.8182ZM33.7011 50.5337C33.9558 50.6604 34.1691 50.8708 34.3996 51.0546C34.8507 51.4146 35.2947 51.7831 35.7332 52.1582C35.7332 52.1582 35.7883 52.1366 35.8508 52.3633C35.8508 52.3633 35.8914 52.4763 35.7014 52.6217C35.7014 52.6217 35.5341 52.6967 35.378 52.5629C35.315 52.509 35.2516 52.4551 35.1883 52.4011C34.6377 51.9349 34.075 51.4782 33.5022 51.034C33.5022 51.034 33.4395 51.0624 33.36 50.8249C33.36 50.8249 33.3133 50.7143 33.4952 50.5589C33.4952 50.5589 33.5842 50.5253 33.7011 50.5337ZM29.5956 47.7361C30.3267 48.1576 31.0381 48.6122 31.7357 49.0853C31.7357 49.0853 31.7922 49.1016 31.8573 49.2638C31.8573 49.2638 31.9731 49.4447 31.6398 49.5756L31.4369 49.5326C30.7516 49.065 30.0474 48.6199 29.3266 48.2014C29.3266 48.2014 29.2686 48.1807 29.1971 48.0358C29.1971 48.0358 29.1359 47.9324 29.2952 47.7543L29.4957 47.7021C29.529 47.7134 29.5624 47.7248 29.5956 47.7361Z" fill="#181818"/>
<path d="M146.229 34.6416C146.477 34.6584 146.58 35.0883 146.279 35.1695C145.608 35.3354 144.846 35.7399 144.733 35.3106C144.627 34.9095 145.479 34.8007 146.161 34.6467C146.181 34.6431 146.183 34.6402 146.229 34.6416Z" fill="#DCD6E3"/>
<path d="M124.817 121.637C125.282 121.667 124.854 122.677 124.607 123.212C124.475 123.47 123.985 123.375 124.165 122.855C124.245 122.629 124.326 122.403 124.411 122.178C124.509 121.921 124.585 121.632 124.817 121.637Z" fill="#DCD6E3"/>
<path d="M79.527 59.0399C79.7955 59.0787 79.9298 59.3704 79.4341 59.6521C76.8476 61.1306 74.5159 63.0377 72.4479 65.1833C72.4479 65.1833 72.2484 65.3241 72.0978 65.2189C71.7237 64.9572 72.5407 64.3082 73.1472 63.7278C75.0031 61.9514 77.0602 60.3761 79.3027 59.1105C79.3027 59.1105 79.4024 59.0344 79.527 59.0399Z" fill="#3B1B6A"/>
<path d="M131.158 94.8167C131.382 94.848 131.452 95.0755 131.282 95.3661C129.755 97.9464 127.474 100.78 124.796 100.243C124.42 100.168 124.383 99.6061 124.876 99.7127C126.384 100.023 127.826 98.8452 128.776 97.8499C128.988 97.6277 129.191 97.3971 129.385 97.1601C129.954 96.4689 130.45 95.7228 130.899 94.9503C130.899 94.9503 130.983 94.809 131.158 94.8167Z" fill="#3B1B6A"/>
<path fill-rule="evenodd" clip-rule="evenodd" d="M125.545 80.5887C125.545 80.5887 125.086 80.7265 124.277 81.0603C123.702 81.2978 122.954 81.6336 122.067 82.0873V82.0891C122.01 82.1195 121.95 82.1498 121.89 82.1802C121.751 82.2518 121.609 82.3267 121.464 82.4053C121.305 82.491 121.141 82.5803 120.974 82.6732C120.814 82.7625 120.649 82.8554 120.483 82.9518C119.399 83.5752 118.388 84.2432 117.542 84.8417C117.531 84.8487 117.522 84.8558 117.512 84.863C117.002 85.2202 116.554 85.5506 116.187 85.8311C116.012 85.9632 115.855 86.0849 115.72 86.1919C115.328 86.4991 115.105 86.6848 115.105 86.6848C114.229 84.9239 113.129 82.4856 113.053 82.3624C113.055 82.3713 113.037 82.9018 113.046 82.925L111.875 106.086H81.2492L81.204 105.214L80.0154 82.4928C80.0154 82.4928 79.3506 84.3236 78.1223 86.8313C78.1168 86.8277 78.1132 86.8224 78.1078 86.8188C77.9615 86.6991 77.7881 86.5652 77.5894 86.4187C77.4701 86.333 77.3455 86.2419 77.2118 86.1472C77.1775 86.1204 77.1395 86.0954 77.1034 86.0686C77.0528 86.0347 77.0023 85.999 76.9535 85.9632C76.4423 85.6042 75.8461 85.2023 75.2012 84.7915C74.6051 84.4129 73.9693 84.0308 73.3189 83.6698C73.0263 83.5091 72.7319 83.3519 72.4356 83.2019C72.3615 83.1644 72.2875 83.1269 72.2152 83.0911C71.9948 82.9822 71.7744 82.877 71.5541 82.7786C71.5252 82.7643 71.4963 82.7518 71.4673 82.7393C71.4384 82.725 71.4095 82.7125 71.3806 82.7C71.191 82.616 70.911 82.4963 70.5876 82.357C70.2155 82.1981 69.7892 82.0141 69.3809 81.8408C69.305 81.8087 69.2292 81.7765 69.1551 81.7444C68.391 81.4175 67.7461 81.1442 67.7461 81.1442C67.7461 81.1442 67.8075 81.0299 67.9231 80.8209C68.1381 80.4316 68.5409 79.7082 69.0883 78.7651C69.1768 78.6115 69.2689 78.4525 69.3647 78.2882C69.7223 77.6809 70.1288 76.9986 70.575 76.2663C70.8243 75.8555 71.088 75.4286 71.3626 74.9892C73.4075 71.7277 76.0557 67.8446 78.5991 65.1529C81.3883 62.1987 84.6977 61.2538 87.4525 61.093C88.847 61.0109 90.1007 61.1306 91.069 61.2913C92.0878 61.4592 93.1138 61.5807 94.1417 61.661C95.1696 61.7396 96.2028 61.7771 97.2361 61.7771C98.6379 61.7771 100.038 61.695 101.431 61.5289C102.352 61.4181 103.611 61.3217 105.036 61.3556C105.168 61.3592 105.3 61.3627 105.436 61.3681C108.714 61.4985 112.755 62.3505 115.58 65.2833C118.473 68.2858 121.063 72.3296 122.877 75.5054C124.535 78.4097 125.545 80.5887 125.545 80.5887Z" fill="#FA7F33"/>
<path d="M88.4084 60.6201C89.0372 60.6232 89.6662 60.6598 90.291 60.7316C94.0143 61.1595 97.7176 61.5044 101.555 61.0649C106.807 60.4829 112.424 61.2812 116.113 65.1917C120.259 69.5867 123.403 74.9819 125.942 80.3761L125.996 80.5859L125.957 80.7703L125.844 80.9224L125.679 81.0153C125.653 81.0232 125.627 81.0316 125.601 81.0398C124.452 81.4179 123.358 81.9316 122.284 82.4791C122.284 82.4791 121.609 82.8286 121.015 83.1633C119.023 84.2861 117.127 85.5927 115.395 87.0275C115.395 87.0275 114.933 87.3541 114.658 86.7985C114.297 86.0699 113.947 85.3306 113.6 84.5921L113.521 84.4229L113.431 84.2318L112.326 106.108C112.272 106.327 112.134 106.483 111.875 106.533H81.2484C81.0247 106.49 80.8605 106.363 80.7973 106.109L80.7521 105.238L79.6697 84.5456C79.3429 85.3029 79.0013 86.0497 78.6422 86.7913C78.6408 86.7942 78.5297 87.0234 78.5281 87.0257C78.4921 87.0798 78.447 87.1271 78.4063 87.178L78.2307 87.2648L78.0344 87.2697L77.8389 87.1804C77.5517 86.9376 77.2446 86.7249 76.9409 86.5054C75.2602 85.2901 73.3514 84.0941 71.3601 83.1824C70.1059 82.6084 68.9023 82.1218 67.6799 81.6026L67.4154 81.4494L67.3191 81.2924L67.2949 81.1105C67.2949 81.1105 67.5702 80.5238 67.8461 80.0317C68.1924 79.4142 68.5457 78.8007 68.9012 78.1882L68.9731 78.0646C71.6392 73.5451 74.4323 69.0275 77.9652 65.1741C80.5444 62.3609 84.2331 60.6805 88.1515 60.6215C88.2371 60.6201 88.3227 60.6201 88.4084 60.6201ZM112.601 82.3835L112.712 82.0695C112.93 81.9007 113.166 81.8194 113.445 82.1415C113.5 82.2379 113.507 82.2619 113.535 82.321C114.116 83.5381 114.671 84.7675 115.26 85.9806C115.26 85.9806 115.933 85.4519 116.526 85.0173C118.204 83.7883 119.976 82.6641 121.813 81.7167C121.813 81.7167 122.797 81.2157 123.567 80.8767C124.013 80.6808 124.463 80.4964 124.921 80.3294C122.36 75.0407 119.394 69.9791 115.452 65.801C111.873 62.0071 105.859 61.5116 100.955 62.0315C97.5802 62.3762 94.1855 62.2285 90.8136 61.7031C86.7468 61.0808 82.3881 62.0847 79.3433 65.0372C76.8472 67.458 74.8787 70.3983 72.9501 73.3439C71.3386 75.805 69.8227 78.3295 68.4075 80.8744L68.3782 80.9274C68.8748 81.1387 69.3712 81.3508 69.8676 81.5626C72.3983 82.6461 74.8585 83.9546 77.1163 85.5309C77.4335 85.7523 77.857 86.0599 77.857 86.0599L77.9578 86.1347C78.5481 84.8978 79.1058 83.6433 79.5827 82.361C79.5827 82.361 79.7396 82.059 79.9929 82.047C80.1667 82.0388 80.3466 82.0041 80.4656 82.47L81.6543 105.191L81.6774 105.64H111.445L112.593 82.9342C112.58 82.7018 112.599 82.3388 112.601 82.3835Z" fill="#3B1B6A"/>
<g style="mix-blend-mode:overlay">
<path d="M124.044 78.588L124.92 80.3266C124.92 80.3266 124.104 80.6117 122.57 81.3611C122.57 81.3611 121.84 79.8174 120.61 77.2636C119.38 74.7099 115.413 67.5654 111.447 64.829C107.496 62.1036 102.576 61.8497 102.576 61.8497C102.576 61.8497 105.116 61.5759 108.193 62.1232C111.27 62.6705 113.968 64.0158 115.882 66.2504C117.796 68.4851 119.501 70.6484 122.637 76.0018L124.019 78.5387L124.044 78.588Z" fill="black" fill-opacity="0.25"/>
</g>
<g style="mix-blend-mode:overlay">
<path d="M107.744 105.653L111.454 105.622L111.692 100.75L112.115 92.488L112.607 82.4628L111.631 80.1445C111.631 80.1445 109.773 92.2906 109.312 95.7795C108.865 99.1592 107.744 105.653 107.744 105.653Z" fill="black" fill-opacity="0.25"/>
</g>
<path fill-rule="evenodd" clip-rule="evenodd" d="M100.332 66.1325C98.0677 66.8028 95.5264 66.7083 92.8198 66.0853C88.7571 65.1529 87.4424 62.3773 87.4512 61.093C88.846 61.0109 90.0995 61.1306 91.0677 61.2913C92.0866 61.4592 93.1128 61.5807 94.1407 61.661C95.1685 61.7396 96.2016 61.7771 97.2349 61.7771C98.6367 61.7771 100.037 61.695 101.43 61.5289C102.351 61.4181 103.61 61.3217 105.035 61.3556C105.167 61.3592 105.299 61.3627 105.434 61.3681C105.295 62.4309 104.328 63.9364 103.3 64.6776C103.173 64.7698 103.044 64.8584 102.913 64.9432" fill="#FFCE93"/>
<path d="M88.4082 60.6201C89.0376 60.6232 89.6662 60.6598 90.2907 60.7316C94.0136 61.1597 97.7177 61.5046 101.555 61.0649C102.837 60.9229 104.119 60.8748 105.401 60.9202C105.401 60.9202 105.575 60.9164 105.702 61.0084C106.134 61.3224 105.77 62.1319 105.385 62.8642C104.885 63.8159 104.159 64.65 103.264 65.2489C102.997 65.4274 102.677 65.4325 102.522 65.1664C102.29 64.767 102.93 64.4259 103.29 64.1142C103.996 63.503 104.548 62.7083 104.857 61.8317C104.857 61.8317 104.713 61.7968 104.636 61.7961C103.897 61.7915 103.16 61.8184 102.424 61.8781C98.6996 62.18 94.9852 62.3672 91.1872 61.7634C90.1263 61.5946 89.052 61.4932 87.979 61.518L87.949 61.5187C88.4067 63.7155 90.7932 65.1864 93.1707 65.7063C95.4623 66.2075 97.8602 66.3653 100.101 65.7344L100.259 65.6921C100.509 65.6674 100.573 65.7285 100.669 65.8357C100.897 66.0879 100.737 66.484 100.295 66.6083C97.5493 67.3659 94.5535 67.1183 91.9553 66.3161C89.6678 65.6101 87.4936 63.9661 87.0539 61.6461C87.0286 61.5127 87.0109 61.3776 87.0035 61.2421C86.9854 60.9129 87.1202 60.6614 87.6255 60.6369C87.8865 60.6255 88.1477 60.6199 88.4082 60.6201Z" fill="#3B1B6A"/>
<path d="M124.547 79.5823C124.547 79.5823 117.257 81.5424 114.752 84.9242L114.255 83.8599L114.188 83.7213L113.734 82.7412C116.721 79.2163 123.578 77.7109 123.578 77.7109L123.825 78.1766L124.173 78.8378L124.547 79.5823Z" fill="white" fill-opacity="0.3"/>
<path d="M69.4884 78.9664L69.9938 78.1074C69.9938 78.1074 76.3552 79.4593 79.3419 82.9841L78.8889 84.0731L78.8719 84.1167L78.3744 85.2308C75.8694 81.849 68.9004 80 68.9004 80L69.4326 79.0653L69.4884 78.9664Z" fill="white" fill-opacity="0.3"/>
<path d="M111.869 79.0762C112.043 79.0865 112.198 79.1939 112.27 79.3552L113.46 82.2127C113.627 82.6424 112.899 83.1467 112.636 82.5561L111.446 79.6986C111.412 79.6125 111.411 79.5806 111.411 79.5232C111.411 79.2786 111.541 79.0735 111.869 79.0762Z" fill="#3B1B6A"/>
<path d="M81.1119 79.3285C81.3139 79.3466 81.3354 79.3968 81.3948 79.4555C81.5205 79.5798 81.5676 79.7431 81.4965 79.9403L80.3593 82.8649C80.1775 83.2999 79.3321 83.0823 79.527 82.5413L80.6641 79.6166C80.7405 79.4339 80.8685 79.3191 81.1119 79.3285Z" fill="#3B1B6A"/>
<path fill-rule="evenodd" clip-rule="evenodd" d="M75.5514 45.4252C75.548 45.4652 75.5445 45.505 75.5409 45.5447C75.1596 49.7616 77.6082 53.7025 81.4792 55.0443C81.8606 55.1764 82.2591 55.31 82.6756 55.4447C84.3785 55.995 86.2475 56.5534 88.3224 56.8767C90.9137 57.2846 93.7807 57.4641 96.8328 57.4641C99.7916 57.4641 102.574 57.2948 105.101 56.914C107.173 56.6025 109.07 56.149 110.749 55.5294C117.742 52.9515 120.945 47.5077 117.099 37.5208C116.966 37.1772 116.83 36.8403 116.689 36.512C115.741 34.2961 114.679 32.4342 113.553 30.8735C111.291 27.7387 108.769 25.8107 106.384 24.636C102.926 22.9364 99.7551 22.8214 98.0729 22.9247C97.232 22.9756 96.3957 22.9756 95.5546 22.9247C93.8439 22.8196 90.5842 22.9432 87.0537 24.7324C84.6699 25.9427 82.1593 27.9148 79.9181 31.0936C79.9181 31.0936 76.367 35.6632 75.5514 45.4252Z" fill="#33FAE3"/>
<path d="M99.0161 22.4502C104.081 22.4706 108.966 24.8883 112.372 28.6877C116.117 32.865 118.554 38.3906 119.104 43.4864C119.411 46.3335 118.908 49.3653 117.14 51.6864C114.984 54.5164 111.425 56.013 107.909 56.8346C103.469 57.8722 98.8588 58.0288 94.2863 57.8659C90.0513 57.7148 85.8853 57.0057 81.7686 55.6154C77.5204 54.1804 74.7001 49.9537 75.0955 45.4457C75.5303 40.4877 76.5181 35.4619 79.2548 31.2593C82.7633 25.8712 88.8943 22.1662 95.4114 22.4688C96.572 22.5297 97.7339 22.4568 98.9139 22.4502C98.9478 22.4502 98.982 22.4502 99.0161 22.4502ZM98.9175 23.3432C97.6644 23.3502 96.4374 23.3977 95.1547 23.3518C89.2887 23.1602 83.7147 26.5063 80.2827 31.3552C79.348 32.5826 78.7037 34.0824 78.135 35.5746C76.9214 38.7585 76.2883 42.1284 75.9953 45.5228C75.653 49.3675 77.8165 53.2891 81.6281 54.6221C87.8403 56.766 94.7858 57.3749 101.737 56.8402C105.202 56.5735 108.691 56.0233 111.826 54.6052C114.754 53.2811 117.324 50.9277 118.048 47.5763C119.069 42.8524 117.072 37.8642 114.985 34.0126C112.871 30.1131 109.763 26.5983 105.554 24.7425C103.471 23.8239 101.201 23.3379 98.9175 23.3432Z" fill="#3B1B6A"/>
<path d="M82.5394 46.1156C82.8809 46.1675 82.673 46.716 82.5712 47.1566C82.1992 48.7655 82.5609 50.5028 83.5343 51.8756C83.5343 51.8756 83.6486 52.3549 83.2792 52.3011C83.0445 52.2668 82.8777 51.8762 82.7191 51.6025C81.8185 50.0482 81.6676 48.1219 82.2322 46.3761C82.2322 46.3761 82.3171 46.102 82.5394 46.1156Z" fill="#3B1B6A"/>
<path d="M95.5765 20.6605C95.8697 20.6909 96.0907 20.991 96.323 21.2498C96.6107 21.5706 96.8342 21.9473 96.972 22.3547C96.972 22.3547 97.6897 21.8278 97.8944 21.2687C97.8944 21.2687 97.9583 21.1376 98.0691 21.1038C98.2951 21.0349 98.5393 21.2589 98.3138 21.635C97.9834 22.1862 97.4856 22.6365 97.0006 23.0913C97.0006 23.0913 96.6087 23.2613 96.5284 22.7984C96.4046 22.1295 95.9528 21.5432 95.3975 21.1446C95.3975 21.1446 95.3034 21.0696 95.2884 20.9656C95.2653 20.8052 95.3656 20.6516 95.5765 20.6605Z" fill="#3B1B6A"/>
<path d="M84.3665 37.6188C84.8563 37.6492 85.0342 38.4243 84.1303 38.5557C83.2685 38.6806 82.3894 38.6934 81.5162 38.6637C81.5162 38.6637 81.1903 38.6021 81.1063 38.3662C80.989 38.0368 81.3061 37.766 81.7956 37.7784C82.6181 37.7958 83.452 37.799 84.2547 37.6286C84.2547 37.6286 84.2547 37.6175 84.3665 37.6188Z" fill="#3B1B6A"/>
<path d="M108.653 37.6359C108.653 37.6359 108.79 37.6569 108.909 37.6753C109.73 37.7996 110.558 37.8789 111.388 37.9107C111.388 37.9107 111.819 38.025 111.823 38.3523C111.826 38.5861 111.622 38.795 111.377 38.8034C111.331 38.8028 111.331 38.8022 111.284 38.8005C110.371 38.7623 109.459 38.6745 108.56 38.5239C108.56 38.5239 108.254 38.443 108.186 38.1999C108.108 37.9243 108.296 37.6183 108.653 37.6359Z" fill="#3B1B6A"/>
<path d="M104.417 26.2638C104.905 26.3019 105.903 26.9311 106.707 27.5548C106.707 27.5548 106.842 27.694 106.801 27.8376C106.688 28.2403 105.984 27.6504 105.342 27.2828C105.007 27.0911 104.659 26.9238 104.301 26.7795C104.301 26.7795 104.125 26.6752 104.133 26.5178C104.14 26.3744 104.214 26.2592 104.417 26.2638Z" fill="#3B1B6A"/>
<g style="mix-blend-mode:overlay">
<path d="M107.474 56.0735C107.474 56.0735 107.548 56.0538 107.677 56.0183C108.238 55.8636 109.925 55.453 110.93 55.0277C112.163 54.5047 115.403 53.1681 117.012 50.3536C118.875 47.0933 118.231 43.697 118.231 43.697C118.231 43.697 118.011 39.3681 114.72 33.5067C110.978 26.841 106.346 25.1758 106.346 25.1758C106.346 25.1758 113.892 30.8593 115.723 43.1088C116.148 45.9538 115.095 49.6339 113.28 51.8816C111.959 53.5179 110.332 54.571 107.677 56.0183" fill="black" fill-opacity="0.25"/>
</g>
<path d="M101.187 31.4698C101.41 31.502 101.367 31.5543 101.489 31.7808C103 34.5412 105.845 36.568 108.727 37.8727C108.727 37.8727 108.979 38.0823 108.836 38.2779C108.726 38.4287 108.502 38.3605 108.308 38.2709C105.436 36.9349 102.768 34.9936 101.151 32.272C101.051 32.1041 100.921 31.8508 100.921 31.8508C100.849 31.6735 100.978 31.4617 101.187 31.4698Z" fill="#3B1B6A"/>
<path d="M110.488 46.1144C110.789 46.1511 110.838 46.6344 110.93 47.0313C111.329 48.7576 110.96 50.6296 109.948 52.0928C109.798 52.3094 109.428 52.3991 109.395 52.0591C109.375 51.8457 109.652 51.5811 109.798 51.3294C110.635 49.8837 110.753 48.0847 110.213 46.4722C110.213 46.4722 110.211 46.1061 110.488 46.1144Z" fill="#3B1B6A"/>
<path fill-rule="evenodd" clip-rule="evenodd" d="M102.15 56.9938V61.6949C102.15 61.736 102.146 61.7771 102.139 61.8148C102.101 62.0098 101.981 62.1868 101.8 62.3227C101.762 62.3513 101.726 62.3765 101.685 62.3997C99.917 63.4087 98.1622 63.7377 96.5953 63.7181C96.5303 63.7181 96.4633 63.7163 96.3983 63.7127C94.0951 63.6482 92.2245 62.8488 91.3598 62.4122C91.3307 62.3962 91.2982 62.3801 91.2729 62.3585C91.1824 62.3067 91.1081 62.2406 91.0467 62.1707C91.0341 62.1582 91.025 62.1457 91.0176 62.1331C90.9671 62.0795 90.9345 62.0186 90.9111 61.9543C90.9018 61.9453 90.8982 61.9364 90.8982 61.9257C90.882 61.8916 90.8729 61.8541 90.8639 61.8148C90.8531 61.7717 90.8477 61.7271 90.8477 61.6824V56.9902C90.8477 56.9902 90.8495 56.9902 90.8495 56.992C91.6293 57.4069 92.4053 57.7647 93.1272 58.06C94.6018 58.6663 95.8627 59.0045 96.5012 59.0045C96.8522 59.0045 97.3914 58.9043 98.0501 58.711C99.1753 58.3838 100.659 57.7899 102.15 56.9938Z" fill="#FFD0C2"/>
<path d="M90.8902 56.5464L91.0804 56.6084C92.6856 57.4588 94.3676 58.2706 96.1451 58.5281C96.8819 58.6351 97.6356 58.3838 98.3477 58.1525C99.5876 57.7495 100.784 57.2144 101.936 56.6012C101.936 56.6012 102.115 56.5176 102.28 56.5669C102.465 56.6221 102.592 56.7997 102.602 56.9945V61.698C102.59 62.7695 101.159 63.2555 100.018 63.6365C97.1722 64.5872 93.8849 64.1602 91.2423 62.8543C91.1891 62.8281 91.1359 62.8022 91.0847 62.7721C90.8792 62.6512 90.6828 62.438 90.6828 62.438C90.5518 62.2715 90.4032 62.1268 90.3965 61.6865V56.991C90.4091 56.7361 90.6178 56.5344 90.8902 56.5464ZM91.2997 61.6798C91.3051 62.0314 91.5121 61.9859 91.5714 62.0182C93.0402 62.7557 94.6729 63.2014 96.3084 63.2637C98.0998 63.3319 99.914 62.8993 101.47 62.0079C101.622 61.9157 101.698 61.6933 101.698 61.6933V57.7306C100.159 58.4944 98.5576 59.2195 96.8969 59.4248C96.1314 59.5192 95.3524 59.3042 94.5984 59.0704C93.4642 58.7187 92.3691 58.2527 91.304 57.7286L91.2997 57.7265C91.2997 59.0443 91.2997 60.3619 91.2997 61.6798Z" fill="#3B1B6A"/>
<g style="mix-blend-mode:overlay">
<path d="M99.3359 62.9055C100.013 62.7006 100.554 62.4954 101.281 62.1214C101.313 62.1051 101.521 61.9876 101.548 61.9658C101.629 61.8995 101.654 61.8649 101.691 61.7386C101.701 61.7084 101.694 61.5332 101.694 61.4987V57.7139C101.008 58.0974 100.369 58.321 99.7594 58.5969L99.7662 61.6032C99.7662 61.8865 99.7252 62.1696 99.6293 62.4398C99.5532 62.6545 99.4926 62.7892 99.3359 62.9055Z" fill="black" fill-opacity="0.25"/>
</g>
<path fill-rule="evenodd" clip-rule="evenodd" d="M84.3411 41.737V46.9108C83.6102 46.9622 82.8271 46.7207 82.1863 46.1842C80.9807 45.1703 80.7426 43.4933 81.6516 42.434C82.2985 41.6815 83.3518 41.4461 84.3411 41.737Z" fill="#FFD0C2"/>
<path d="M83.5547 41.17C83.8553 41.1748 84.1545 41.2199 84.4442 41.3013C84.4442 41.3013 84.784 41.4496 84.7938 41.7371V46.9109C84.7871 47.1032 84.7573 47.104 84.7107 47.169C84.579 47.3529 84.3147 47.3704 84.0526 47.3628C81.6526 47.292 79.481 44.1847 81.3453 42.1031C81.8921 41.4924 82.7187 41.1632 83.5547 41.17ZM83.5049 42.0629C82.5605 42.071 81.6654 42.7852 81.5639 43.7401C81.4295 45.0051 82.5177 46.2902 83.8745 46.4552L83.8906 42.0924C83.8598 42.0877 83.8291 42.0835 83.7982 42.0797C83.7009 42.0686 83.603 42.0629 83.5049 42.0629Z" fill="#3B1B6A"/>
<path d="M83.0186 43.5765C83.5105 43.62 83.0255 45.0082 84.1548 45.3264C84.1548 45.3264 84.2825 45.3738 84.3274 45.4859C84.4209 45.7192 84.1669 45.9205 83.7895 45.7761C83.0452 45.4912 82.6171 44.598 82.7399 43.7958C82.7669 43.6638 82.8553 43.5704 83.0186 43.5765Z" fill="#3B1B6A"/>
<path fill-rule="evenodd" clip-rule="evenodd" d="M110.782 46.2291C110.141 46.7657 109.358 47.0072 108.627 46.9557V41.782C109.616 41.4909 110.67 41.7266 111.317 42.479C112.226 43.5383 111.987 45.2153 110.782 46.2291Z" fill="#FFD0C2"/>
<path d="M109.479 41.2126C111.034 41.2195 112.42 42.6104 112.304 44.2026C112.175 45.9601 110.484 47.495 108.66 47.4203C108.402 47.4098 108.172 47.2876 108.163 46.9715L108.186 41.7869C108.204 41.3136 108.951 41.2149 109.479 41.2126ZM109.432 42.108C109.289 42.1109 109.086 42.1389 109.086 42.1389L109.066 46.5127C109.091 46.5099 109.116 46.5066 109.141 46.5031C110.729 46.2631 112.104 44.3356 111.068 42.8853C110.707 42.3798 110.076 42.0999 109.432 42.108Z" fill="#3B1B6A"/>
<path d="M109.95 43.6203C110.464 43.6529 110.247 44.9694 109.667 45.5043C109.331 45.8143 108.788 46.0448 108.629 45.7635C108.46 45.4646 109.106 45.3358 109.368 45.0449C109.636 44.7483 109.715 44.3231 109.67 43.9292C109.65 43.7674 109.754 43.6177 109.95 43.6203Z" fill="#3B1B6A"/>
<path fill-rule="evenodd" clip-rule="evenodd" d="M114.135 134.095H78.6074L80.7047 111.791L81.2412 106.086H111.866L112.733 116.78L112.932 119.241L114.135 134.095Z" fill="#7F33FA"/>
<path d="M111.939 105.646C112.249 105.724 112.268 105.773 112.314 106.05L113.182 116.744L113.38 119.206L114.583 134.059C114.583 134.272 114.55 134.28 114.511 134.34C114.436 134.453 114.377 134.521 114.133 134.541H78.606C78.3898 134.524 78.3842 134.49 78.3273 134.446C78.2191 134.362 78.154 134.298 78.1563 134.054L80.2536 111.75L80.7902 106.045C80.7902 106.045 80.8438 105.672 81.2398 105.64H111.864C111.889 105.642 111.914 105.644 111.939 105.646ZM81.6513 106.533L81.1529 111.833L79.1015 133.648H113.644L112.48 119.277L112.281 116.816L111.447 106.533C101.515 106.533 91.5834 106.533 81.6513 106.533Z" fill="#3B1B6A"/>
<g style="mix-blend-mode:overlay">
<path d="M94.9696 106.539H98.0137V117.484H94.9696V106.539Z" fill="#1B0046" fill-opacity="0.25"/>
</g>
<path d="M106.283 107.824C106.55 107.845 106.638 108.332 106.283 108.359C105.679 108.375 105.075 108.36 104.471 108.36C104.205 108.353 104.066 107.824 104.471 107.824C105.075 107.824 105.679 107.809 106.283 107.824Z" fill="#3B1B6A"/>
<path d="M102.976 107.828C103.247 107.9 103.249 108.332 102.929 108.36H81.1009C80.8174 108.336 80.7524 107.854 81.1009 107.824H102.929C102.945 107.826 102.96 107.827 102.976 107.828Z" fill="#3B1B6A"/>
<path d="M87.9601 109.806C88.3612 109.86 88.0318 110.547 87.7416 111.064C86.5874 113.119 84.5888 114.797 82.2182 115.105C82.2182 115.105 81.9815 115.102 81.9215 114.93C81.8639 114.764 81.9263 114.608 82.2332 114.56C84.6532 114.155 86.6966 112.225 87.6861 109.969C87.6861 109.969 87.7989 109.799 87.9601 109.806Z" fill="#3B1B6A"/>
<path d="M104.829 109.806C105.067 109.838 105.066 109.998 105.12 110.116C106.145 112.35 108.16 114.281 110.593 114.572C110.593 114.572 110.846 114.66 110.833 114.859C110.811 115.197 110.206 115.067 109.743 114.932C107.46 114.263 105.573 112.454 104.583 110.231C104.583 110.231 104.506 109.791 104.829 109.806Z" fill="#3B1B6A"/>
<g style="mix-blend-mode:overlay">
<path d="M108.267 133.654H113.579L111.388 106.52H107.744L108.267 133.654Z" fill="#1E004E" fill-opacity="0.25"/>
</g>
<path fill-rule="evenodd" clip-rule="evenodd" d="M108.644 38.0914V47.6054C108.644 51.4184 105.376 54.8083 102.176 57.0033C102.176 57.0033 102.174 57.0033 102.174 57.0051V57.0015C100.683 57.7969 99.1999 58.391 98.0743 58.7187C97.4166 58.9115 96.8763 59.0122 96.526 59.0122C95.8873 59.0122 94.6253 58.6743 93.1511 58.0684C92.4296 57.773 91.6544 57.4147 90.874 56.9999C90.874 56.9982 90.8724 56.9982 90.8724 56.9982C87.6703 54.8014 84.4041 51.4133 84.4041 47.6054L84.373 38.0742C90.391 36.9473 94.9654 33.0232 96.1783 31.8954C96.3391 31.7459 96.5883 31.7457 96.7493 31.8952C97.9679 33.0282 102.583 36.9852 108.644 38.0914Z" fill="#F4F0EB"/>
<path d="M96.482 31.337C96.7451 31.3459 96.9687 31.4895 97.1782 31.6816C100.423 34.628 104.366 36.8481 108.726 37.6524C108.726 37.6524 109.066 37.7239 109.094 38.0915C109.094 41.2786 109.105 44.466 109.094 47.6532C109.062 50.8061 106.911 53.6523 104.622 55.6699C103.926 56.2831 103.225 56.8957 102.422 57.376C102.422 57.376 102.256 57.4641 102.103 57.5441C100.507 58.3661 98.8369 59.1386 97.0644 59.4115C94.9359 59.7393 92.6607 58.4409 90.8077 57.472C90.7477 57.4405 89.6871 56.7354 88.7922 55.9821C88.4179 55.6671 88.0541 55.3395 87.7037 54.9987C85.6474 52.9991 83.9607 50.5073 83.951 47.6069L83.9199 38.0757C83.9486 37.6921 84.0906 37.6751 84.4933 37.5958C88.6331 36.7633 92.4739 34.6124 95.6074 31.8075C95.8635 31.578 96.1236 31.3331 96.482 31.337ZM96.4253 32.2771C93.1627 35.2688 89.1557 37.5351 84.8244 38.4403C84.8343 41.5232 84.8239 44.606 84.8548 47.6887C84.8985 50.3138 86.5871 52.6781 88.4042 54.4269C89.2245 55.2164 90.1185 55.9305 91.0548 56.5807L91.1131 56.6209C92.7151 57.4689 94.3889 58.2777 96.1675 58.5352C96.9051 58.6421 97.6578 58.3909 98.3699 58.1594C99.6101 57.7561 100.805 57.2214 101.955 56.6103C102.016 56.5682 102.077 56.5258 102.138 56.4831C105.17 54.3434 108.018 51.4768 108.184 47.8968C108.189 47.7995 108.191 47.7021 108.191 47.6048V38.4594C103.794 37.5606 99.7473 35.2549 96.4996 32.2772C96.4996 32.2772 96.4959 32.2119 96.4253 32.2771ZM90.431 57.1115L90.454 57.1669C90.454 57.1669 90.4122 56.9542 90.431 57.1115Z" fill="#3B1B6A"/>
<g style="mix-blend-mode:overlay">
<path d="M108.19 38.4333C108.199 38.5196 108.19 38.6082 108.19 38.6913L108.179 47.292C108.194 50.0104 106.919 52.13 105.09 53.9929C103.343 55.773 101.741 57.2078 97.6348 58.3307C99.4746 57.8585 102.13 55.4445 103.389 54.1099C104.972 52.4317 106.338 50.1742 106.339 47.2978L106.324 37.9648C106.324 37.9648 106.905 38.1338 107.178 38.2028C107.452 38.2717 107.924 38.3753 108.032 38.4007C108.141 38.426 108.19 38.4333 108.19 38.4333Z" fill="black" fill-opacity="0.25"/>
</g>
<path d="M90.8614 43.5392C91.9076 43.5392 91.9092 41.9316 90.8614 41.9316C89.8153 41.9316 89.8135 43.5392 90.8614 43.5392Z" fill="#3B1B6A"/>
<path d="M102.154 43.5392C103.201 43.5392 103.202 41.9316 102.154 41.9316C101.108 41.9316 101.107 43.5392 102.154 43.5392Z" fill="#3B1B6A"/>
<path d="M97.1377 45.4892C97.4844 45.509 97.6839 46.0377 97.1031 46.2392C96.5114 46.4444 95.5156 46.3704 95.5971 45.7995C95.6329 45.5486 95.9324 45.4638 96.1969 45.5685C96.5433 45.7006 96.9347 45.4848 97.1377 45.4892Z" fill="#3B1B6A"/>
<path d="M92.9945 36.6772C93.413 36.7061 93.6651 37.3991 93.0778 37.5577L89.4847 38.4226C89.0406 38.5166 88.655 37.7221 89.2757 37.5543L92.8688 36.6894C92.9201 36.6786 92.9346 36.6763 92.9945 36.6772Z" fill="#3B1B6A"/>
<path d="M100.569 36.8368C100.593 36.8394 100.617 36.843 100.641 36.848L103.998 37.6532C104.341 37.7456 104.316 37.8616 104.34 38.0246C104.382 38.3096 104.098 38.587 103.789 38.5217L100.433 37.7165C100.104 37.6285 100.126 37.5213 100.095 37.3691C100.039 37.0976 100.22 36.8201 100.569 36.8368Z" fill="#3B1B6A"/>
<path d="M91.826 46.7265C91.826 47.509 90.8471 48.1433 89.6395 48.1433C88.432 48.1433 87.4531 47.5088 87.4531 46.7263C87.4531 45.9438 88.432 45.3096 89.6397 45.3096C90.8473 45.3096 91.826 45.944 91.826 46.7265Z" fill="white" fill-opacity="0.3"/>
<path d="M105.488 46.7275C105.488 47.51 104.509 48.1442 103.302 48.1442C102.094 48.1442 101.115 47.5098 101.115 46.7273C101.115 45.9448 102.094 45.3105 103.302 45.3105C104.509 45.3105 105.488 45.945 105.488 46.7275Z" fill="white" fill-opacity="0.3"/>
<g style="mix-blend-mode:overlay">
<path d="M105.39 42.6775C105.39 44.6148 103.802 46.1851 101.845 46.1851C101.62 46.1851 101.401 46.1646 101.188 46.1237C101.024 46.0946 100.864 46.0537 100.708 46.0008C100.505 45.9326 100.31 45.8472 100.127 45.7465C99.823 45.5809 99.5486 45.3726 99.3085 45.1303C98.6836 44.4987 98.2969 43.6317 98.2969 42.6775C98.2969 40.8291 99.7436 39.3133 101.579 39.1819C101.667 39.1733 101.755 39.1699 101.845 39.1699C102.105 39.1699 102.361 39.1973 102.606 39.2519C102.815 39.2962 103.017 39.3594 103.21 39.4414C103.364 39.5029 103.51 39.5763 103.652 39.6615C104.693 40.2709 105.39 41.394 105.39 42.6775Z" fill="black" fill-opacity="0.25"/>
</g>
<g style="mix-blend-mode:overlay">
<path d="M94.558 42.6775C94.558 44.6148 92.9698 46.1851 91.0123 46.1851C90.7878 46.1851 90.5687 46.1646 90.3562 46.1237C90.1924 46.0946 90.0318 46.0537 89.8764 46.0008C89.6727 45.9326 89.4776 45.8472 89.2946 45.7465C88.9909 45.5809 88.7163 45.3726 88.4765 45.1303C87.8516 44.4987 87.4648 43.6317 87.4648 42.6775C87.4648 40.8291 88.9114 39.3133 90.7464 39.1819C90.8346 39.1733 90.9225 39.1699 91.0123 39.1699C91.273 39.1699 91.5284 39.1973 91.7736 39.2519C91.9824 39.2962 92.1843 39.3594 92.3778 39.4414C92.5314 39.5029 92.678 39.5763 92.8197 39.6615C93.8605 40.2709 94.558 41.394 94.558 42.6775Z" fill="black" fill-opacity="0.25"/>
</g>
<path d="M102.606 39.2517L100.127 45.7463C99.8231 45.5807 99.5485 45.3726 99.3086 45.1303L101.579 39.1817C101.667 39.1733 101.755 39.1699 101.844 39.1699C102.105 39.1699 102.361 39.1971 102.606 39.2517Z" fill="white" fill-opacity="0.3"/>
<path d="M103.652 39.6615L101.189 46.1237C101.025 46.0946 100.864 46.0537 100.709 46.0008L103.21 39.4414C103.364 39.5027 103.511 39.5761 103.652 39.6615Z" fill="white" fill-opacity="0.3"/>
<path d="M91.7736 39.2517L89.2947 45.7463C88.991 45.5807 88.7165 45.3726 88.4766 45.1303L90.7465 39.1817C90.8347 39.1733 90.9226 39.1699 91.0124 39.1699C91.2731 39.1699 91.5285 39.1971 91.7736 39.2517Z" fill="white" fill-opacity="0.3"/>
<path d="M92.8202 39.6615L90.3567 46.1237C90.1929 46.0946 90.0323 46.0537 89.877 46.0008L92.3783 39.4414C92.5319 39.5027 92.6786 39.5761 92.8202 39.6615Z" fill="white" fill-opacity="0.3"/>
<path d="M91.0902 38.6844C92.8969 38.7018 94.6005 40.0973 94.9477 41.927C95.2917 43.7405 94.2159 45.725 92.5141 46.4042C90.4781 47.2168 87.8665 45.9842 87.2544 43.7535C86.6182 41.4349 88.4177 38.7265 91.0137 38.6848C91.0391 38.6844 91.0646 38.6844 91.0902 38.6844ZM91.0448 39.5877C89.655 39.601 88.3384 40.6699 88.0623 42.0782C87.716 43.8447 89.2047 45.7552 91.025 45.7785C92.358 45.7955 93.6415 44.8382 94.0093 43.5302C94.5099 41.7494 93.145 39.659 91.1634 39.5893C91.1239 39.588 91.0843 39.5877 91.0448 39.5877Z" fill="#3B1B6A"/>
<path d="M101.92 38.7024C103.729 38.7197 105.431 40.1152 105.778 41.945C106.118 43.7424 105.068 45.7094 103.389 46.404C101.363 47.2415 98.7235 46.045 98.0911 43.7953C97.4361 41.4652 99.2758 38.744 101.844 38.7028C101.869 38.7024 101.895 38.7024 101.92 38.7024ZM101.875 39.6056C100.485 39.619 99.1685 40.688 98.8923 42.0962C98.5465 43.8602 100.026 45.773 101.855 45.7965C103.193 45.8135 104.482 44.8512 104.844 43.5299C105.331 41.7562 103.98 39.6772 101.993 39.6072C101.954 39.606 101.914 39.6056 101.875 39.6056Z" fill="#3B1B6A"/>
<path d="M96.4956 41.9034C97.2865 41.9139 98.1219 42.2036 98.6655 42.7198C98.9937 43.0317 98.5663 43.7472 97.9919 43.3328C97.1114 42.7073 95.8711 42.6257 94.9627 43.3164C94.5904 43.5995 94.6054 43.5666 94.3637 43.4284C94.023 43.2337 94.1659 42.7452 94.6668 42.4335C95.2172 42.0909 95.8195 41.8993 96.4956 41.9034Z" fill="#3B1B6A"/>
<path d="M84.368 40.0993C84.4456 40.1071 84.4923 40.1147 84.5887 40.176L87.7684 42.3217C88.1476 42.592 87.7965 43.3984 87.2689 43.062L84.0891 40.9163C83.7585 40.6806 83.8562 40.0744 84.368 40.0993Z" fill="#3B1B6A"/>
<path d="M108.642 40.0848C109.018 40.1056 109.246 40.6373 108.874 40.9029L105.694 43.0488C105.31 43.2937 104.641 42.7029 105.194 42.3085L108.374 40.1626C108.449 40.1146 108.449 40.0841 108.642 40.0848Z" fill="#3B1B6A"/>
<path d="M96.5871 48.6476C97.4545 48.6605 98.3662 48.881 98.956 49.4851C99.2942 49.8316 98.7815 50.5382 98.2564 50.0577C97.3382 49.2477 95.4996 49.3545 94.7664 50.1135C94.7664 50.1135 94.5774 50.2789 94.3684 50.246C94.0256 50.1917 93.8574 49.7309 94.1896 49.4213C94.7832 48.8682 95.6568 48.6601 96.4932 48.6476C96.5403 48.6474 96.5401 48.6474 96.5871 48.6476Z" fill="#3B1B6A"/>
<path fill-rule="evenodd" clip-rule="evenodd" d="M76.952 85.963C76.952 85.963 76.5004 86.7793 75.6947 87.9905C74.414 89.9157 72.2426 92.8434 69.5781 95.0832C69.7425 94.9421 69.9087 94.7687 70.0803 94.5651C70.0821 94.5633 70.0821 94.5617 70.0839 94.5597C72.0728 92.177 71.9879 87.8494 71.5526 82.7783C71.7729 82.8767 71.9933 82.9821 72.2137 83.0909C72.2878 83.1266 72.3618 83.1641 72.4341 83.2016C72.7304 83.3517 73.0248 83.5089 73.3174 83.6696C73.9678 84.0306 74.6036 84.4126 75.1998 84.7913C75.8446 85.2021 76.4408 85.604 76.952 85.963Z" fill="#F4F0EB"/>
<path d="M71.6051 82.3349C71.6944 82.3498 71.7133 82.3615 71.7404 82.3719C73.6495 83.2282 75.4115 84.3434 77.1169 85.5307C77.1169 85.5307 77.5472 85.8334 77.2625 86.3307C75.3313 89.6688 72.9341 92.8015 69.999 95.316C69.999 95.316 69.6786 95.6236 69.3866 95.4873C69.0579 95.3339 69.0739 94.9463 69.3903 94.6494C70.9109 93.1896 71.2424 90.8634 71.3331 88.7891C71.4201 86.796 71.2726 84.803 71.1038 82.8159C71.1038 82.8159 71.183 82.3092 71.6051 82.3349ZM72.0721 83.5691C72.3037 86.5377 72.5409 89.5886 71.696 92.4002L71.6895 92.4216C73.4629 90.4902 75.0142 88.3613 76.3463 86.1139L76.3575 86.0949C74.9861 85.1513 73.5917 84.2772 72.0685 83.5175C72.0685 83.5175 72.0705 83.5486 72.0721 83.5691Z" fill="#3B1B6A"/>
<path fill-rule="evenodd" clip-rule="evenodd" d="M68.6585 69.5977C69.1021 71.2779 69.5203 72.9647 69.908 74.6583C70.4259 76.9223 70.8394 78.1218 71.207 80.4395C71.2778 80.8861 71.5599 82.7378 71.5977 83.1771C72.0332 88.2482 72.0728 92.1773 70.0839 94.5602C70.0821 94.562 70.0821 94.5636 70.0803 94.5654C69.9087 94.7692 69.7425 94.9423 69.5781 95.0835L69.5348 95.1209C69.5221 95.1336 69.5095 95.1441 69.4968 95.1512V95.153C68.3353 96.1068 67.358 95.639 66.6824 95.0978C63.5735 92.6097 62.3125 86.2754 62.0325 81.8976C61.8981 79.7981 61.6486 76.3661 61.6173 72.4425L61.3005 62.2758C61.2548 61.5209 61.2436 61.4375 61.1632 60.9349C60.9799 59.7866 60.5344 59.4494 59.8306 59.1243C59.8245 59.1214 59.8181 59.1186 59.812 59.1157C58.4707 58.5068 56.674 57.6757 54.547 55.7857C53.8152 55.1371 53.8181 54.9565 53.5556 54.4328C53.4875 54.3003 53.3538 54.2246 53.2577 54.1665C53.0764 54.0535 52.9243 53.8966 52.8229 53.7094C52.2049 52.5544 51.8579 50.092 51.833 49.9048C51.8303 49.898 51.8281 49.8918 51.8254 49.885C51.3946 49.2345 50.997 48.2596 51.0741 47.8275C51.1877 47.1979 51.6558 47.3626 51.7848 47.4351C51.7896 47.4383 51.7932 47.4392 51.7985 47.4406C51.8238 47.4474 51.8534 47.4381 51.8686 47.4174C51.9705 47.2844 52.1357 47.2081 52.3045 47.2263C53.2046 47.3135 53.2149 48.508 53.2113 48.7131C53.2098 48.7318 53.2187 48.7493 53.2324 48.7627C53.4893 48.9949 53.5278 49.7605 53.5321 49.9009C53.5323 49.9143 53.5377 49.9291 53.5484 49.9394C53.6463 50.0475 54.2413 50.6466 56.0555 51.6482C57.5933 52.4963 58.8004 52.6822 59.2816 52.7206C59.3476 52.7267 59.3779 52.6435 59.3244 52.6063C58.4174 51.9776 57.2559 51.0295 57.1387 50.2202C56.9446 48.8717 57.9423 49.3164 58.2903 49.6037C58.6366 49.8905 61.6634 52.283 63.4872 53.2852C65.0765 54.1565 66.0912 55.8298 65.6827 58.156C65.6285 58.4643 67.2122 64.1151 67.2904 64.4163L68.6585 69.5977Z" fill="#F4F0EB"/>
<path d="M52.2753 46.7774C53.0862 46.8023 53.6247 47.7266 53.661 48.5563C53.661 48.5563 53.9264 49.1311 53.973 49.6968C53.973 49.6968 54.7715 50.3725 55.5269 50.8274C56.2256 51.2482 56.9453 51.6347 57.7185 51.9094C57.7185 51.9094 57.7701 51.9516 57.5732 51.7537C56.9833 51.1492 56.4267 50.353 56.7291 49.4479C56.82 49.1763 57.0389 48.9478 57.3297 48.8769C57.8886 48.7403 58.4237 49.1388 58.8213 49.4551C60.415 50.7165 62.038 51.9521 63.7872 52.94C64.0392 53.0852 64.1044 53.132 64.2529 53.2388C65.7606 54.3227 66.4441 56.2892 66.1379 58.1745C66.1379 58.1745 66.3883 59.3374 66.6542 60.3479C67.929 65.1906 69.2871 70.0141 70.4205 74.8693C71.089 77.7118 71.8226 80.416 72.0878 83.6134C72.2887 86.1013 72.4814 88.6174 72.0435 91.0787C71.8076 92.4053 71.3475 93.7204 70.4824 94.7841C70.2156 95.1124 70.0492 95.272 69.8428 95.4483C69.7671 95.513 69.7553 95.5218 69.7241 95.5462C69.0309 96.0919 68.0656 96.3034 67.246 95.9629C65.7434 95.3389 64.7419 93.7797 63.9735 92.2117C62.1934 88.5799 61.7405 84.407 61.4809 80.3657C61.3173 77.7902 61.195 75.2084 61.1677 72.6306L61.1661 72.4514L60.8496 62.2964C60.7968 61.4328 60.777 60.4534 60.289 59.9435C59.9913 59.6323 59.5661 59.4973 59.1642 59.3114C57.2291 58.4117 55.375 57.2995 53.8821 55.7757C53.5749 55.4621 53.365 55.0664 53.1735 54.6762C53.1039 54.5345 52.9274 54.4916 52.8205 54.402C52.7164 54.3148 52.6227 54.2153 52.5427 54.106C52.0562 53.4419 51.8913 52.5664 51.6969 51.6881C51.5789 51.1553 51.4814 50.618 51.4017 50.0785C51.4017 50.0785 50.5836 48.6729 50.6141 47.8976C50.6365 47.3301 51.1163 46.8082 51.7244 46.9393C51.7244 46.9393 51.9673 46.7734 52.2753 46.7774ZM52.2549 47.6704C52.1895 47.6734 52.1807 47.7509 52.1147 47.7967C51.7767 48.0315 51.4283 47.507 51.5323 48.1044C51.6237 48.6286 51.8746 49.1232 52.1671 49.5846L52.2809 49.8455C52.2883 49.9002 52.2963 49.9549 52.3044 50.0095C52.4874 51.2184 52.6317 52.5344 53.2398 53.5309C53.2613 53.5662 53.286 53.5998 53.3133 53.6313C53.5039 53.851 53.8083 53.9504 53.9582 54.2302C54.1112 54.5386 53.9465 54.3893 54.2944 54.8787C54.6349 55.3576 55.1385 55.7187 55.6138 56.0999C56.956 57.1766 58.4878 58.0066 60.0569 58.7362C61.2244 59.2865 61.6471 60.5411 61.7521 62.2556L62.0693 72.4339C62.1134 77.4114 62.0879 82.4029 63.3291 87.5927C63.9518 90.1966 64.8048 92.9074 66.8336 94.6408C66.8867 94.6862 66.9407 94.7307 66.9956 94.7739C67.4519 95.1324 68.0715 95.3933 68.6639 95.1477C69.0044 95.0065 69.3725 94.6737 69.2242 94.7976C69.2242 94.7976 69.7795 94.2781 70.1144 93.7631C71.308 91.927 71.4091 89.6273 71.3882 87.4875C71.3741 86.0554 71.2751 84.6261 71.1465 83.1969C70.7145 78.747 69.4742 74.4803 68.2632 69.8678C67.2787 66.1321 66.1074 62.4528 65.2987 58.6282C65.1552 57.9498 65.3774 57.2505 65.2822 56.5493C65.1001 55.209 64.0488 54.1437 62.9001 53.465C61.2356 52.4735 59.6796 51.2891 58.1715 50.0845C57.9775 49.9295 57.5819 49.7453 57.5819 49.7453C57.381 50.5014 58.3229 51.2896 59.0296 51.836C59.2671 52.0196 59.6194 52.2672 59.6194 52.2672C59.7953 52.4254 59.7892 52.4938 59.8011 52.6024C59.8373 52.9297 59.582 53.2006 59.1364 53.156C57.0017 52.9291 55.0092 51.819 53.4674 50.481C53.3592 50.3871 53.2123 50.2381 53.2123 50.2381C53.1059 50.1156 53.1142 50.2724 53.07 49.7348C53.0452 49.463 52.9466 49.1105 52.9224 49.0873C52.5869 48.7655 52.9582 49.057 52.6879 48.1278C52.68 48.1003 52.6711 48.0728 52.6612 48.0458C52.5815 47.8277 52.2815 47.6704 52.2549 47.6704Z" fill="#3B1B6A"/>
<path d="M59.82 55.1164C59.945 55.1275 59.9594 55.1594 60.0114 55.1819C60.4276 55.3568 60.893 55.3386 61.3419 55.2382C61.561 55.1912 61.6031 55.1871 61.7292 55.1718C62.6378 55.0608 63.5072 55.4229 64.2818 56.0109C64.5533 56.2142 64.3633 56.7439 63.9532 56.4369C63.1994 55.8648 62.317 55.5803 61.2895 55.7996C60.7494 55.9096 60.1807 55.8675 59.6903 55.626C59.478 55.5215 59.4793 55.1375 59.7988 55.1162C59.8059 55.1162 59.8129 55.1162 59.82 55.1164Z" fill="#3B1B6A"/>
<path d="M51.9036 46.9725C51.9932 46.9819 52.0195 46.9937 52.0676 47.0171C52.4101 47.1841 52.256 47.696 52.2327 48.176C52.5663 48.015 52.6065 48.0727 52.7595 48.0868C53.0375 48.1124 53.3012 48.2394 53.5189 48.4164C53.5189 48.4164 53.746 48.6598 53.6598 48.9074C53.5624 49.1873 53.1813 49.2844 52.9211 49.0871C52.7866 48.9879 52.6789 48.8043 52.5703 49.2151C52.4386 49.714 52.4204 50.2411 52.4238 50.7648C52.4238 50.7648 52.3416 51.1772 52.021 51.2115C51.7392 51.2419 51.55 51.0034 51.4921 50.6164C51.3318 49.5254 51.1767 48.4033 51.4254 47.3263C51.4254 47.3263 51.5145 46.9523 51.9036 46.9725Z" fill="#3B1B6A"/>
<path d="M54.3294 50.9746C55.152 50.9998 55.4293 52.1889 55.3722 52.9383C55.3561 53.1496 55.3086 53.4515 55.3086 53.4515C55.3361 53.4786 55.3632 53.506 55.3901 53.5335C55.5491 53.6971 55.7633 53.935 55.7633 53.935C55.783 53.9393 55.8027 53.9441 55.8222 53.9491C56.4709 54.1183 57.275 54.394 57.0444 54.9229C56.9408 55.1607 56.6376 55.2455 56.3744 55.1198C55.7312 54.8122 55.8363 54.8865 55.4783 54.7854C55.1256 54.6777 54.9101 54.3251 54.635 54.0484C54.635 54.0484 54.3657 53.6473 54.432 53.2155C54.5071 52.7101 54.5089 52.066 54.3153 51.8793C53.8951 52.4516 53.7233 53.5269 53.9831 54.2906C53.9831 54.2906 54.0441 54.6084 53.8474 54.7734C53.5981 54.9826 53.2005 54.8481 53.0842 54.4392C52.8036 53.4536 53.049 52.333 53.4951 51.4967C53.6559 51.1956 53.9655 50.9722 54.3294 50.9746Z" fill="#3B1B6A"/>
<path d="M53.556 49.4365C53.7564 49.4503 53.9288 49.5986 53.9739 49.7973C54.0934 50.4444 54.1866 51.0962 54.2927 51.7458C54.3559 52.1907 53.5575 52.538 53.4147 51.9081C53.2952 51.261 53.2022 50.6092 53.0961 49.9595C53.0568 49.6844 53.2365 49.4283 53.556 49.4365Z" fill="#3B1B6A"/>
<g style="mix-blend-mode:overlay">
<path d="M75.5544 85.5581L76.357 86.0961C76.357 86.0961 75.9385 86.815 75.2573 87.8318L75.2199 87.8888C74.3096 89.2477 72.9852 91.0742 71.6914 92.4138L71.9857 91.2269L72.0202 90.9837L72.1125 90.3073C74.2339 86.887 74.8588 85.1074 74.8588 85.1074L75.4818 85.5097L75.5544 85.5581Z" fill="black" fill-opacity="0.25"/>
</g>
<g style="mix-blend-mode:overlay">
<path d="M70.9211 91.9185C70.3376 93.6207 70.0757 93.8495 69.3531 94.6852C68.6305 95.5211 67.693 95.2927 67.1709 94.9283C72.7149 91.2683 68.2898 72.3837 67.8312 70.5456C67.3366 68.5633 65.341 58.9446 65.2832 58.582C65.4548 59.2322 66.7013 63.9654 66.8006 64.3888C66.909 64.846 68.4463 70.5759 68.6468 71.3976C68.8455 72.2174 70.0143 77.0527 70.0143 77.0527C70.0143 77.0527 70.4568 78.7654 70.8597 81.2787C71.2282 83.5774 71.3203 85.442 71.351 86.3852C71.351 86.3852 71.5064 90.2165 70.9211 91.9185Z" fill="black" fill-opacity="0.25"/>
</g>
<path fill-rule="evenodd" clip-rule="evenodd" d="M65.6914 58.1494C65.6914 58.1494 65.3942 58.9018 64.9344 59.3641L65.6914 58.1494Z" fill="#FFD0C2"/>
<path d="M65.6986 57.6939C66.0987 57.707 66.1913 58.1711 65.9254 58.6912C65.6491 59.232 65.2618 59.9791 64.7595 59.7767C64.4736 59.6616 64.4052 59.27 64.6645 58.9893C65.0908 58.5158 65.1731 57.6939 65.6986 57.6939Z" fill="#3B1B6A"/>
<path d="M68.8435 93.4653C69.0835 93.4788 69.1973 93.777 68.9256 94.0146C68.5392 94.3528 67.9301 94.4945 67.4826 94.1668C67.2714 94.0121 67.248 93.6211 67.5823 93.6285C67.7485 93.6323 67.8558 93.8159 68.0457 93.8372C68.3813 93.8747 68.5703 93.4617 68.8435 93.4653Z" fill="#3B1B6A"/>
<path d="M124.3 93.4994C124.647 93.5245 124.858 94.0724 125.395 93.7062C125.652 93.5463 126.173 93.9331 125.489 94.2932C125.036 94.532 124.434 94.336 124.08 93.9399C123.944 93.774 124.055 93.4922 124.3 93.4994Z" fill="#3B1B6A"/>
<path fill-rule="evenodd" clip-rule="evenodd" d="M123.405 95.0833C120.882 92.9614 118.799 90.2232 117.498 88.3031C116.562 86.9206 116.031 85.9631 116.031 85.9631C116.084 85.9256 116.136 85.8809 116.187 85.8309C116.553 85.5507 117.001 85.2201 117.511 84.8628C117.522 84.8557 117.53 84.8485 117.541 84.8416C118.387 84.2432 119.398 83.575 120.482 82.9518C120.649 82.8554 120.813 82.7625 120.974 82.6732C121.14 82.5803 121.304 82.491 121.463 82.4053C121.451 82.5446 121.44 82.6732 121.431 82.7784C121.003 87.7673 120.914 92.036 122.805 94.4421C122.836 94.4814 122.867 94.5207 122.899 94.5598C122.901 94.5618 122.901 94.5635 122.903 94.5653C123.075 94.7688 123.241 94.9422 123.405 95.0833Z" fill="#F4F0EB"/>
<path d="M121.515 81.962C121.866 82.021 121.913 82.4329 121.88 82.8162C121.652 85.4968 121.409 88.1896 121.856 90.8511C122.098 92.2868 122.56 93.7477 123.687 94.7349C123.687 94.7349 123.911 94.9711 123.837 95.2134C123.734 95.5455 123.317 95.6003 122.931 95.2704C119.981 92.7271 117.55 89.5794 115.642 86.1909C115.642 86.1909 115.547 85.8256 115.869 85.5127C115.869 85.5127 116.368 85.1292 116.785 84.8286C118.173 83.8277 119.616 82.8974 121.125 82.079C121.234 82.0199 121.351 81.9515 121.515 81.962ZM120.893 83.232C119.43 84.0682 118.032 85.0047 116.674 86.0237L116.612 86.0705C117.939 88.3191 119.498 90.4503 121.256 92.3803L121.296 92.4233C121.281 92.3738 121.266 92.3242 121.252 92.2745C120.423 89.3765 120.693 86.2756 120.941 83.2082C120.941 83.2082 120.911 83.222 120.893 83.232Z" fill="#3B1B6A"/>
<path fill-rule="evenodd" clip-rule="evenodd" d="M141.158 49.8848C141.155 49.8919 141.153 49.8973 141.149 49.9044C141.126 50.092 140.777 52.5533 140.159 53.7089C140.058 53.8964 139.906 54.0536 139.726 54.1662C139.628 54.2233 139.495 54.3001 139.428 54.4323C139.166 54.9556 139.168 55.136 138.436 55.7862C136.308 57.6759 134.512 58.5065 133.17 59.1156C133.165 59.1173 133.158 59.1209 133.152 59.1245C132.56 59.3978 132.15 59.68 131.926 60.4462C131.884 60.5909 131.848 60.7517 131.819 60.9338C131.74 61.4375 131.729 61.5197 131.682 62.2752L131.673 62.5682L131.366 72.4419C131.335 76.3661 131.086 79.7973 130.95 81.8978C130.67 86.2756 129.409 92.6092 126.3 95.0973C125.625 95.6385 124.648 96.1065 123.486 95.1527V95.1509C123.473 95.1438 123.461 95.1331 123.448 95.1206L123.405 95.083C123.241 94.9419 123.074 94.7687 122.903 94.5651C122.901 94.5633 122.901 94.5615 122.899 94.5597C122.866 94.5204 122.836 94.4811 122.805 94.4416C120.914 92.0359 121.002 87.767 121.43 82.7783C121.439 82.6729 121.45 82.5443 121.463 82.405C121.479 82.2264 121.497 82.028 121.517 81.8335C121.548 81.5423 121.58 81.2565 121.613 81.0529C121.932 79.0292 122.413 77.3913 122.875 75.5052C122.942 75.2283 123.011 74.9479 123.076 74.6585C123.463 72.9635 123.882 71.2774 124.324 69.5966L125.693 64.415C125.735 64.2543 126.206 62.5646 126.629 60.9785C126.833 60.214 127.025 59.4746 127.151 58.9423C127.253 58.5136 127.312 58.2207 127.301 58.1564C126.891 55.8291 127.906 54.1554 129.496 53.2856C131.319 52.2818 134.346 49.8901 134.693 49.6026C135.04 49.3168 136.039 48.872 135.844 50.2206C135.726 51.0297 134.565 51.9763 133.658 52.6051C133.606 52.6426 133.635 52.7265 133.701 52.7194C134.182 52.6819 135.39 52.4961 136.928 51.6477C138.741 50.6457 139.337 50.0473 139.435 49.9384C139.446 49.9294 139.451 49.9134 139.451 49.9009C139.455 49.7597 139.493 48.9953 139.751 48.7613C139.764 48.7488 139.773 48.7309 139.771 48.7131C139.767 48.5077 139.778 47.3127 140.678 47.2252C140.848 47.2074 141.012 47.2842 141.115 47.4163C141.129 47.4378 141.158 47.4467 141.184 47.4396C141.189 47.4396 141.193 47.4378 141.198 47.4342C141.326 47.3627 141.796 47.1966 141.908 47.8271C141.986 48.2594 141.588 49.2346 141.158 49.8848Z" fill="#F4F0EB"/>
<path d="M135.463 48.8517C136.327 48.8904 136.577 50.1874 135.929 51.1365C135.734 51.423 135.495 51.6781 135.243 51.9174C135.289 51.9017 135.334 51.8854 135.379 51.869C136.703 51.378 137.982 50.6735 139.001 49.7389C139.001 49.7389 139.033 48.9951 139.32 48.5791C139.32 48.5791 139.413 47.0245 140.486 46.8039C140.807 46.738 141.215 46.9477 141.304 46.9303C142.316 46.7574 142.639 48.3634 141.604 50.0275C141.604 50.0275 141.434 51.0565 141.253 51.842C141.032 52.8012 140.875 53.902 140.058 54.4848C139.599 54.8124 139.633 55.1203 139.396 55.4377C139.04 55.9157 138.557 56.291 138.087 56.675C136.734 57.781 135.216 58.6731 133.618 59.4046C132.98 59.6966 132.411 60.094 132.267 61.0042C132.212 61.3511 132.173 61.7005 132.15 62.0509C132.149 62.0664 132.135 62.2854 132.134 62.2965C132.13 62.3919 132.129 62.4872 132.126 62.5826L131.819 72.4514C131.767 78.3273 131.724 84.4205 129.975 89.7984C129.278 91.9421 128.268 94.0987 126.586 95.4451C125.957 95.9486 125.148 96.2797 124.342 96.0913C123.944 95.9981 123.579 95.797 123.261 95.5464C123.212 95.5085 122.678 95.0166 122.402 94.6549C120.792 92.5483 120.676 89.6146 120.734 86.8877C120.793 84.0738 121.006 81.2637 121.691 78.3792C123.018 72.7942 124.451 67.3036 125.955 61.7562C126.262 60.6179 126.602 59.4848 126.826 58.3293C126.852 58.1941 126.846 58.1898 126.813 57.9451C126.566 56.0003 127.389 54.0017 129.158 52.9637C131.063 51.8676 132.82 50.4431 134.478 49.2037C134.772 48.9923 135.06 48.8428 135.463 48.8517ZM140.727 47.6699C140.129 47.7278 140.224 48.7402 140.224 48.7402C140.205 48.979 140.012 49.133 139.959 49.4059C139.92 49.6058 139.947 49.7251 139.891 50.0157C139.891 50.0157 139.726 50.2817 139.759 50.2527C139.809 50.2079 138.043 51.6207 136.636 52.3045C135.741 52.7394 134.781 53.0716 133.791 53.1609C133.248 53.2097 132.942 52.5965 133.389 52.2477C134.226 51.6656 135.286 51.0813 135.405 50.1057C135.409 50.0741 135.412 50.0425 135.415 50.0109C135.423 49.9037 135.403 49.746 135.403 49.746C135.21 49.7687 135.041 49.9005 134.884 50.0271C133.217 51.3642 131.482 52.6813 129.649 53.7146C128.161 54.5707 127.447 56.3336 127.749 58.0887C127.749 58.0887 127.575 59.1482 127.324 60.1161C126.042 65.0764 124.603 70.0658 123.468 74.9749C123.443 75.082 123.418 75.189 123.392 75.296C122.801 77.7437 122.112 80.1172 121.882 82.8165C121.628 85.7964 121.331 88.8689 122.031 91.6906C122.263 92.6258 122.649 93.5402 123.253 94.2818C123.334 94.3813 123.927 94.9066 123.726 94.7724C123.726 94.7724 124.343 95.2879 124.915 95.254C125.698 95.2073 126.282 94.5774 126.757 94.0437C128.875 91.6606 129.649 88.2978 130.154 85.0401C130.8 80.8648 130.879 76.5901 130.915 72.4339L131.223 62.5551L131.232 62.2554C131.32 60.8572 131.48 59.4085 132.939 58.7317C132.939 58.7317 133.633 58.4211 134.204 58.1334C135.749 57.355 137.223 56.3949 138.432 55.1764C138.667 54.9399 138.829 54.6407 138.975 54.3353C139.05 54.1815 138.939 54.3171 139.116 54.091C139.337 53.8089 139.674 53.7237 139.873 53.2701C140.34 52.2043 140.541 51.0286 140.7 49.8707L140.781 49.6426C141.128 49.1135 141.526 48.4986 141.466 47.9158C141.438 47.6418 141.249 47.8845 141.249 47.8845C141.164 47.8881 141.243 47.9104 141.078 47.8818C140.854 47.8431 140.771 47.6666 140.727 47.6699Z" fill="#3B1B6A"/>
<path d="M133.205 55.1182C133.404 55.1471 133.396 55.2019 133.429 55.2891C133.624 55.7933 132.292 55.911 131.419 55.7404C130.555 55.5802 129.794 55.8746 128.979 56.4749C128.716 56.6644 128.307 56.31 128.723 55.9941C129.55 55.3577 130.567 55.0038 131.641 55.2387C132.111 55.3416 132.593 55.3612 133.06 55.1424C133.06 55.1424 133.106 55.1114 133.205 55.1182Z" fill="#3B1B6A"/>
<path d="M141.128 46.9717C141.208 46.9761 141.23 46.9838 141.272 46.9992C141.57 47.1081 141.608 47.5211 141.638 47.9026C141.715 48.8796 141.611 49.8656 141.457 50.8373C141.457 50.8373 141.309 51.2311 140.987 51.214C140.249 51.175 140.706 49.6857 140.327 48.9784L140.045 49.1006C139.769 49.3239 139.281 49.1176 139.299 48.7416C139.323 48.2356 140.18 47.9012 140.75 48.1764C140.748 48.1346 140.746 48.0928 140.743 48.0512C140.726 47.7947 140.554 47.5774 140.701 47.2409C140.773 47.0762 140.849 46.9711 141.128 46.9717Z" fill="#3B1B6A"/>
<path d="M138.698 50.9747C139.347 51.0026 139.649 51.786 139.835 52.462C140.021 53.1402 140.092 53.8702 139.865 54.55C139.713 55.0064 138.808 54.9299 139.024 54.2155C139.249 53.4437 139.082 52.5228 138.675 51.8892C138.564 51.7224 138.469 52.6948 138.574 53.3551C138.574 53.3551 138.548 53.8445 138.242 54.1544C138.079 54.3223 137.855 54.5723 137.855 54.5723C137.532 54.8949 137.017 54.9189 136.555 55.1461C136.555 55.1461 136.128 55.2586 135.961 54.9662C135.712 54.5314 136.464 54.1144 137.209 53.9372C137.209 53.9372 137.443 53.683 137.662 53.4637C137.662 53.4637 137.563 52.7294 137.616 52.2375C137.664 51.7908 137.826 51.3135 138.262 51.0745C138.348 51.0274 138.535 50.972 138.698 50.9747Z" fill="#3B1B6A"/>
<path d="M139.473 49.4345C139.726 49.449 139.925 49.6835 139.899 49.9392C139.806 50.5907 139.687 51.2383 139.581 51.8879C139.497 52.3426 138.64 52.3273 138.697 51.7624C138.79 51.1109 138.909 50.4634 139.015 49.8137C139.056 49.5927 139.213 49.4304 139.473 49.4345Z" fill="#3B1B6A"/>
<g style="mix-blend-mode:overlay">
<path d="M131.503 60.3103C131.503 60.3103 131.195 60.7105 130.757 63.5607C130.319 66.411 129.904 74.9616 129.327 80.4342C129.202 81.6187 128.774 88.027 126.444 92.4963C125.29 94.7115 123.285 94.3432 123.285 94.3432C124.581 95.6637 125.13 95.506 126.329 94.48C127.528 93.4539 128.22 91.8351 129.004 89.8055C129.788 87.7763 130.18 84.7209 130.365 83.3754C130.549 82.0303 130.826 75.2581 130.826 75.2581C130.826 75.2581 131.103 65.8409 131.195 63.1959C131.287 60.5509 131.547 60.209 131.547 60.209" fill="black" fill-opacity="0.25"/>
</g>
<path fill-rule="evenodd" clip-rule="evenodd" d="M131.927 60.4463C131.886 60.591 131.85 60.7518 131.821 60.9339C131.741 61.4376 131.73 61.5198 131.683 62.2753L131.674 62.5683L126.631 60.9786C126.835 60.2141 127.026 59.4747 127.153 58.9424L131.927 60.4463Z" fill="#5DBBFF"/>
<path d="M127.173 58.4961C127.225 58.5001 127.239 58.5024 127.289 58.5167L132.064 60.0206C132.553 60.1926 132.216 61.0373 132.15 62.0502C132.149 62.0648 132.135 62.2852 132.134 62.2956C132.129 62.428 132.124 62.6107 132.124 62.6107C132.098 62.8093 132.055 62.8193 132.002 62.8745C131.885 62.9972 131.744 63.0513 131.537 62.9934L126.493 61.4038C126.407 61.3734 126.395 61.3615 126.361 61.3368C126.072 61.1244 126.244 60.6788 126.343 60.3003C126.471 59.8143 126.596 59.3279 126.713 58.8393C126.713 58.8393 126.872 58.4926 127.173 58.4961ZM127.455 59.6041C127.365 59.9581 127.274 60.3116 127.181 60.6649L131.25 61.9657C131.256 61.8759 131.263 61.786 131.269 61.6964C131.295 61.3752 131.323 61.1455 131.393 60.7547L127.477 59.5132C127.47 59.5435 127.462 59.5737 127.455 59.6041Z" fill="#3B1B6A"/>
<path d="M102.95 92.4736C103.027 92.4789 103.095 92.5125 103.147 92.5694L105.548 95.3937C105.727 95.6185 105.399 96.0266 105.14 95.7408L102.739 92.9165C102.437 92.5382 102.768 92.4724 102.95 92.4736Z" fill="#3B1B6A"/>
<path d="M104.607 92.5859C104.873 92.6004 105.13 93.0557 105.401 93.3849C105.569 93.6031 105.21 93.9634 104.993 93.7318C104.617 93.3029 104.094 92.7969 104.482 92.6117C104.521 92.593 104.543 92.5846 104.607 92.5859Z" fill="#3B1B6A"/>
<path d="M102.47 93.7416C102.538 93.7483 102.6 93.7782 102.648 93.8276C103.09 94.3235 103.509 94.8397 103.939 95.3457C104.113 95.5602 103.764 95.9323 103.54 95.7022C103.098 95.2063 102.679 94.6901 102.249 94.1841C102.111 94.014 102.216 93.7286 102.47 93.7416Z" fill="#3B1B6A"/>
<path fill-rule="evenodd" clip-rule="evenodd" d="M78.1213 86.832C78.1213 86.832 77.518 88.4556 75.6953 87.9912C76.501 86.7802 76.9526 85.9639 76.9526 85.9639C77.0014 85.9996 77.0519 86.0353 77.1025 86.0691C77.1386 86.096 77.1766 86.1211 77.2109 86.1478C77.3446 86.2425 77.4692 86.3336 77.5884 86.4192C77.7871 86.5658 77.9606 86.6998 78.1069 86.8195C78.1123 86.823 78.1159 86.8282 78.1213 86.832Z" fill="#5DBBFF"/>
<path d="M76.9686 85.5176C77.2732 85.5355 77.4399 85.76 77.6708 85.9261L77.8565 86.0601C77.9972 86.1644 78.1366 86.2699 78.2739 86.3784C78.507 86.5627 78.6399 86.806 78.4809 87.1308C78.0077 88.0989 76.8929 88.6916 75.7518 88.462C75.3256 88.3765 75.0897 88.0966 75.5325 87.4193C75.8889 86.8706 76.2379 86.3169 76.5571 85.7473C76.5571 85.7473 76.6996 85.514 76.9686 85.5176ZM77.0903 86.6234C76.896 86.9496 76.6958 87.2723 76.4919 87.5927C76.4919 87.5927 77.1738 87.4929 77.5405 86.9599C77.5405 86.9599 77.1212 86.5713 77.0903 86.6234Z" fill="#3B1B6A"/>
<path fill-rule="evenodd" clip-rule="evenodd" d="M117.291 87.9923C115.428 87.9923 115.105 86.685 115.105 86.685C115.105 86.685 115.328 86.4992 115.72 86.192C115.855 86.0849 116.012 85.9634 116.188 85.8311C116.137 85.8812 116.085 85.9259 116.032 85.9634C116.032 85.9634 116.355 86.61 117.291 87.9923Z" fill="#5DBBFF"/>
<path d="M116.207 85.3851C116.517 85.406 116.731 85.7539 116.586 86.0393C116.918 86.6212 117.288 87.1865 117.665 87.7442C117.665 87.7442 117.765 87.9108 117.733 88.0768C117.643 88.5337 116.85 88.4831 116.228 88.2877C115.493 88.0569 114.753 87.5152 114.656 86.74C114.607 86.3555 115.096 86.1106 115.437 85.8427C115.64 85.6833 115.912 85.4765 115.912 85.4765C115.998 85.4138 116.055 85.3813 116.207 85.3851ZM115.861 86.6502C115.772 86.7211 115.656 86.814 115.656 86.814C115.814 87.0665 116.06 87.258 116.338 87.377C116.338 87.377 116.115 87.0147 115.919 86.6848C115.919 86.6848 115.91 86.6116 115.861 86.6502Z" fill="#3B1B6A"/>
<path d="M180.345 32.0293C180.583 32.0459 180.691 32.4118 180.449 32.5378C179.961 32.7638 179.463 32.9676 178.969 33.1824C178.72 33.2843 178.416 32.8668 178.744 32.6963C179.276 32.4499 179.798 32.0163 180.345 32.0293Z" fill="#000E87"/>
<path d="M176.017 29.0959C176.154 29.1068 176.265 29.2227 176.27 29.3623C176.266 29.8658 176.238 30.369 176.222 30.8724C176.207 31.1345 175.701 31.2565 175.686 30.8678C175.691 30.3643 175.718 29.8611 175.734 29.3577C175.743 29.2085 175.842 29.0902 176.017 29.0959Z" fill="#000E87"/>
<path d="M178.413 30.0723C178.601 30.0857 178.727 30.3146 178.624 30.4848C178.321 30.9434 177.997 31.3885 177.684 31.8402C177.52 32.0657 177.071 31.8205 177.237 31.5447C177.54 31.0862 177.864 30.641 178.177 30.1893C178.232 30.1143 178.317 30.0699 178.413 30.0723Z" fill="#000E87"/>
<path fill-rule="evenodd" clip-rule="evenodd" d="M171.484 43.0835V53.2482C171.484 53.8998 171.227 54.4917 170.809 54.9318C170.356 55.4111 169.709 55.7106 168.993 55.7106H151.701C150.999 55.7106 150.363 55.4223 149.91 54.9584C149.478 54.5164 149.211 53.913 149.211 53.2482V43.0835C149.211 42.4637 149.443 41.8964 149.827 41.4634C150.283 40.9474 150.954 40.6211 151.701 40.6211H168.993C169.756 40.6211 170.439 40.9606 170.895 41.4952C171.263 41.9241 171.484 42.4781 171.484 43.0835Z" fill="#FAE233"/>
<path d="M169.035 40.1754C170.556 40.2071 171.908 41.5017 171.935 43.0506C171.954 46.4619 171.954 49.8733 171.935 53.2846C171.906 54.7873 170.611 56.1266 169.032 56.1575C163.255 56.1952 157.477 56.1576 151.7 56.1576C150.172 56.1478 148.789 54.8618 148.759 53.2854C148.738 49.8737 148.74 46.4616 148.759 43.0499C148.786 41.5524 150.085 40.2076 151.66 40.1754C157.452 40.1358 163.244 40.1353 169.035 40.1754ZM151.703 41.0682C150.636 41.0755 149.682 41.9746 149.663 43.0602C149.643 46.4648 149.642 49.8697 149.663 53.2743C149.682 54.3108 150.581 55.2435 151.674 55.2644C157.456 55.3014 163.238 55.3023 169.021 55.2644C170.068 55.2439 171.011 54.3636 171.032 53.2737C171.051 49.8695 171.05 46.465 171.032 43.0606C171.014 42.017 170.108 41.091 169.022 41.0683C163.249 41.0283 157.476 41.0682 151.703 41.0682Z" fill="#000E87"/>
<path fill-rule="evenodd" clip-rule="evenodd" d="M170.809 54.9328C170.355 55.412 169.709 55.7116 168.993 55.7116H151.701C150.999 55.7116 150.362 55.4233 149.91 54.9594L157.385 49.4108V49.4097L160.377 47.1885L170.809 54.9328Z" fill="#FAE233"/>
<path d="M160.435 46.7456C160.516 46.7613 160.534 46.7578 160.648 46.8313L171.079 54.5757C171.335 54.7918 171.258 55.1612 170.899 55.4636C170.383 55.8992 169.713 56.1445 169.032 56.1579C163.255 56.1954 157.477 56.158 151.699 56.158C150.89 56.1529 150.03 55.8637 149.548 55.2269C149.409 55.0429 149.447 54.7647 149.639 54.6023C152.13 52.7526 154.751 51.0609 157.113 49.0526L160.106 46.8313C160.106 46.8313 160.128 46.726 160.435 46.7456ZM157.665 49.7594L150.644 54.9729C150.95 55.1598 151.31 55.2578 151.674 55.2648C157.456 55.3018 163.238 55.3025 169.02 55.2648C169.389 55.2576 169.751 55.1535 170.065 54.9629L160.377 47.7467C159.473 48.4176 158.569 49.0885 157.665 49.7594Z" fill="#000E87"/>
<path fill-rule="evenodd" clip-rule="evenodd" d="M170.894 41.4952L162.443 49.8019C161.3 50.9264 159.453 50.9264 158.309 49.8019L149.826 41.4634C150.282 40.9474 150.953 40.6211 151.7 40.6211H168.992C169.755 40.6211 170.438 40.9606 170.894 41.4952Z" fill="#FAE233"/>
<path d="M169.034 40.1756C169.898 40.1934 170.815 40.5491 171.274 41.2542C171.385 41.4243 171.353 41.6541 171.213 41.8126L162.761 50.1201C161.505 51.3395 159.304 51.3938 157.992 50.1201L149.508 41.7808C148.975 41.1865 150.577 40.1976 151.659 40.1756C157.451 40.1358 163.243 40.1352 169.034 40.1756ZM151.702 41.0683C151.261 41.0713 150.83 41.213 150.478 41.4716L150.476 41.473C153.201 44.1513 155.91 46.8461 158.651 49.5081C158.779 49.6299 158.808 49.6498 158.89 49.7105C159.828 50.4067 161.263 50.3228 162.126 49.4849L170.251 41.4988C169.902 41.2289 169.466 41.0778 169.022 41.0685C163.249 41.0283 157.475 41.0683 151.702 41.0683Z" fill="#000E87"/>
<g style="mix-blend-mode:overlay">
<path d="M149.894 42.1572L154.837 47.0178L149.663 44.9681L149.665 43.4475C149.665 43.4475 149.579 42.6684 149.894 42.1572Z" fill="#000E87" fill-opacity="0.25"/>
</g>
<g style="mix-blend-mode:overlay">
<path d="M171.032 43.4797V44.9638L163.76 49.1365L170.822 42.1953C170.948 42.4245 170.986 42.621 171.016 42.8374C171.016 42.8374 171.028 43.0078 171.03 43.1225C171.031 43.2374 171.032 43.4797 171.032 43.4797Z" fill="#000E87" fill-opacity="0.25"/>
</g>
<path d="M161.409 47.8985C161.532 47.908 161.548 47.9394 161.583 47.9732C162.053 48.4203 160.204 49.3927 159.138 48.3572C159.138 48.3572 159.042 48.2504 159.06 48.1281C159.09 47.9185 159.35 47.8253 159.564 48.0179C160.021 48.419 160.766 48.3792 161.216 47.965C161.216 47.965 161.263 47.8953 161.409 47.8985Z" fill="#000E87"/>
<path fill-rule="evenodd" clip-rule="evenodd" d="M177.836 39.8894C177.836 43.359 174.992 46.1716 171.483 46.1716C167.974 46.1716 165.129 43.359 165.129 39.8894C165.129 36.4199 167.974 33.6074 171.483 33.6074C174.992 33.6074 177.836 36.4199 177.836 39.8894Z" fill="#FA336F"/>
<path d="M171.524 33.089C174.604 33.1187 177.502 35.5139 178.088 38.6068C178.505 40.8026 177.768 43.1943 176.18 44.7626C174.323 46.5958 171.379 47.2055 168.938 46.1957C166.115 45.0285 164.316 41.7448 164.857 38.6905C165.396 35.6403 168.208 33.1608 171.35 33.0902C171.408 33.0893 171.466 33.089 171.524 33.089ZM171.442 33.9923C168.776 34.0179 166.277 36.0823 165.756 38.7411C165.036 42.4143 168.405 46.4739 172.549 45.6971C174.939 45.2491 176.94 43.1358 177.264 40.6826C177.697 37.4057 175.035 34.0261 171.518 33.9923C171.493 33.9923 171.468 33.9923 171.442 33.9923Z" fill="#000E87"/>
<path d="M172.22 39.8857C172.22 39.4458 172.155 39.1057 172.026 38.8656C171.897 38.6258 171.714 38.5057 171.476 38.5057C171.238 38.5057 171.058 38.6258 170.934 38.8656C170.81 39.1057 170.748 39.4458 170.748 39.8857C170.748 40.3256 170.81 40.667 170.934 40.9093C171.058 41.1519 171.238 41.2732 171.476 41.2732C171.714 41.2732 171.897 41.1519 172.026 40.9093C172.155 40.667 172.22 40.3256 172.22 39.8857ZM173.517 39.8857C173.517 40.2706 173.466 40.613 173.365 40.9131C173.264 41.213 173.124 41.4643 172.944 41.6668C172.765 41.8692 172.55 42.023 172.299 42.128C172.049 42.233 171.777 42.2855 171.484 42.2855C171.185 42.2855 170.911 42.233 170.661 42.128C170.411 42.023 170.196 41.8692 170.016 41.6668C169.837 41.4643 169.698 41.213 169.599 40.9131C169.5 40.613 169.451 40.2706 169.451 39.8857C169.451 39.5006 169.5 39.1595 169.599 38.8619C169.698 38.5645 169.837 38.3144 170.016 38.1119C170.196 37.9095 170.411 37.7557 170.661 37.6507C170.911 37.5457 171.185 37.4932 171.484 37.4932C171.777 37.4932 172.049 37.5457 172.299 37.6507C172.55 37.7557 172.765 37.9095 172.944 38.1119C173.124 38.3144 173.264 38.5645 173.365 38.8619C173.466 39.1595 173.517 39.5006 173.517 39.8857Z" fill="white"/>
<path d="M180.377 133.65C180.75 133.704 180.756 133.861 180.781 134.031C180.817 134.285 180.599 134.529 180.334 134.542H169.451C168.972 134.519 168.836 133.677 169.451 133.648H180.334C180.348 133.649 180.362 133.65 180.377 133.65Z" fill="#334BFA"/>
<path d="M165.303 133.682C165.448 133.779 165.45 133.78 165.547 133.924L165.581 134.095L165.547 134.266L165.449 134.411L165.303 134.508L165.13 134.541H39.0727L38.8998 134.508C38.7544 134.411 38.7528 134.41 38.6554 134.266L38.6211 134.095L38.6554 133.924L38.7533 133.779C38.8989 133.683 38.9011 133.682 39.0727 133.648H165.13C165.187 133.66 165.245 133.671 165.303 133.682Z" fill="#334BFA"/>
<path d="M35.5141 133.65C36.0002 133.712 35.957 134.006 35.9173 134.189C35.8736 134.389 35.7394 134.53 35.4758 134.542H27.1597C26.9091 134.531 26.8882 134.466 26.8206 134.39C26.5907 134.132 26.75 133.666 27.1597 133.648H35.4758C35.4886 133.649 35.5013 133.65 35.5141 133.65Z" fill="#334BFA"/>
</svg>
