<svg width="24" height="25" viewBox="0 0 24 25" fill="none" xmlns="http://www.w3.org/2000/svg">
<path fill-rule="evenodd" clip-rule="evenodd" d="M12 2.17529C6.06294 2.17529 1.25 6.98823 1.25 12.9253C1.25 18.8624 6.06294 23.6753 12 23.6753C17.9371 23.6753 22.75 18.8624 22.75 12.9253C22.75 6.98823 17.9371 2.17529 12 2.17529ZM2.75 12.9253C2.75 7.81666 6.89137 3.67529 12 3.67529C17.1086 3.67529 21.25 7.81666 21.25 12.9253C21.25 18.0339 17.1086 22.1753 12 22.1753C6.89137 22.1753 2.75 18.0339 2.75 12.9253ZM12.75 8.92529C12.75 8.51108 12.4142 8.17529 12 8.17529C11.5858 8.17529 11.25 8.51108 11.25 8.92529V12.9253C11.25 13.1761 11.3753 13.4102 11.584 13.5493L14.584 15.5493C14.9286 15.7791 15.3943 15.686 15.624 15.3413C15.8538 14.9967 15.7607 14.531 15.416 14.3013L12.75 12.5239V8.92529Z" fill="#FA7F33"/>
</svg>
