<svg width="25" height="24" viewBox="0 0 25 24" fill="none" xmlns="http://www.w3.org/2000/svg">
<path fill-rule="evenodd" clip-rule="evenodd" d="M2.75 2C2.75 1.58579 3.08579 1.25 3.5 1.25H21.5C21.9142 1.25 22.25 1.58579 22.25 2C22.25 2.41421 21.9142 2.75 21.5 2.75H3.5C3.08579 2.75 2.75 2.41421 2.75 2ZM8.2679 5.25L8.3 5.25H16.7L16.7321 5.25C17.5449 5.24999 18.2006 5.24999 18.7315 5.29336C19.2781 5.33803 19.7582 5.43238 20.2025 5.65873C20.9081 6.01825 21.4818 6.59193 21.8413 7.29754C22.0676 7.74175 22.162 8.2219 22.2066 8.76853C22.25 9.29944 22.25 9.95505 22.25 10.7679V10.8V13.2V13.2321C22.25 14.045 22.25 14.7006 22.2066 15.2315C22.162 15.7781 22.0676 16.2582 21.8413 16.7025C21.4818 17.4081 20.9081 17.9818 20.2025 18.3413C19.7582 18.5676 19.2781 18.662 18.7315 18.7066C18.2006 18.75 17.545 18.75 16.7321 18.75H16.7H8.3H8.26788C7.45505 18.75 6.79944 18.75 6.26853 18.7066C5.7219 18.662 5.24176 18.5676 4.79754 18.3413C4.09193 17.9818 3.51825 17.4081 3.15873 16.7025C2.93239 16.2582 2.83803 15.7781 2.79336 15.2315C2.74999 14.7006 2.74999 14.045 2.75 13.2321V13.2321V13.2V10.8V10.7679V10.7679C2.74999 9.95504 2.74999 9.29943 2.79336 8.76853C2.83803 8.2219 2.93239 7.74175 3.15873 7.29754C3.51825 6.59193 4.09193 6.01825 4.79754 5.65873C5.24176 5.43238 5.7219 5.33803 6.26853 5.29336C6.79944 5.24999 7.45506 5.24999 8.2679 5.25ZM6.39068 6.78838C5.93681 6.82546 5.67604 6.8946 5.47852 6.99524C5.05516 7.21095 4.71095 7.55516 4.49524 7.97852C4.3946 8.17604 4.32547 8.4368 4.28838 8.89068C4.25058 9.35331 4.25 9.94755 4.25 10.8V13.2C4.25 14.0525 4.25058 14.6467 4.28838 15.1093C4.32547 15.5632 4.3946 15.824 4.49524 16.0215C4.71095 16.4448 5.05516 16.789 5.47852 17.0048C5.67604 17.1054 5.93681 17.1745 6.39068 17.2116C6.85331 17.2494 7.44755 17.25 8.3 17.25H16.7C17.5525 17.25 18.1467 17.2494 18.6093 17.2116C19.0632 17.1745 19.324 17.1054 19.5215 17.0048C19.9448 16.789 20.2891 16.4448 20.5048 16.0215C20.6054 15.824 20.6745 15.5632 20.7116 15.1093C20.7494 14.6467 20.75 14.0525 20.75 13.2V10.8C20.75 9.94755 20.7494 9.35331 20.7116 8.89068C20.6745 8.4368 20.6054 8.17604 20.5048 7.97852C20.2891 7.55516 19.9448 7.21095 19.5215 6.99524C19.324 6.8946 19.0632 6.82546 18.6093 6.78838C18.1467 6.75058 17.5525 6.75 16.7 6.75H8.3C7.44755 6.75 6.85331 6.75058 6.39068 6.78838ZM3.5 21.25C3.08579 21.25 2.75 21.5858 2.75 22C2.75 22.4142 3.08579 22.75 3.5 22.75H21.5C21.9142 22.75 22.25 22.4142 22.25 22C22.25 21.5858 21.9142 21.25 21.5 21.25H3.5Z" fill="#181818" fill-opacity="0.7"/>
</svg>
