<svg width="25" height="24" viewBox="0 0 25 24" fill="none" xmlns="http://www.w3.org/2000/svg">
<path fill-rule="evenodd" clip-rule="evenodd" d="M20.5524 2.77476C20.2565 2.75058 19.8723 2.75 19.2999 2.75H13.4999C13.0237 2.75 12.7041 2.75041 12.4566 2.76729C12.2159 2.78372 12.0987 2.81319 12.0215 2.84515C11.7152 2.97202 11.4719 3.21536 11.345 3.52165C11.3131 3.5988 11.2836 3.71602 11.2672 3.95674C11.2503 4.20421 11.2499 4.5238 11.2499 5H9.74988V4.97475C9.74987 4.53029 9.74986 4.15925 9.77065 3.85464C9.79228 3.53754 9.83893 3.23801 9.95921 2.94762C10.2383 2.27379 10.7737 1.73844 11.4475 1.45933C11.7379 1.33905 12.0374 1.29241 12.3545 1.27077C12.6591 1.24999 13.0302 1.24999 13.4746 1.25L13.4999 1.25H19.2999L19.3303 1.25C19.8645 1.24999 20.3103 1.24998 20.6745 1.27974C21.0544 1.31078 21.4111 1.37789 21.7484 1.54973C22.2658 1.81338 22.6865 2.23408 22.9501 2.75153C23.122 3.08879 23.1891 3.44545 23.2201 3.82533C23.2499 4.18952 23.2499 4.6353 23.2499 5.16936V5.16955V5.2V11V11.0253C23.2499 11.4697 23.2499 11.8408 23.2291 12.1454C23.2075 12.4625 23.1608 12.762 23.0405 13.0524C22.7614 13.7262 22.2261 14.2616 21.5523 14.5407C21.2619 14.661 20.9623 14.7076 20.6452 14.7292C20.3406 14.75 19.9696 14.75 19.5251 14.75H19.4999V13.25C19.9761 13.25 20.2957 13.2496 20.5431 13.2327C20.7839 13.2163 20.9011 13.1868 20.9782 13.1548C21.2845 13.028 21.5279 12.7846 21.6547 12.4784C21.6867 12.4012 21.7162 12.284 21.7326 12.0433C21.7495 11.7958 21.7499 11.4762 21.7499 11V5.2C21.7499 4.62757 21.7493 4.24336 21.7251 3.94748C21.7017 3.66036 21.6598 3.52307 21.6136 3.43251C21.4938 3.19731 21.3026 3.00608 21.0674 2.88624C20.9768 2.8401 20.8395 2.79822 20.5524 2.77476ZM16.5524 6.77476C16.2565 6.75058 15.8723 6.75 15.2999 6.75H9.49988C9.02368 6.75 8.70408 6.75041 8.45662 6.76729C8.21589 6.78372 8.09868 6.81319 8.02152 6.84515C7.71524 6.97202 7.4719 7.21536 7.34503 7.52165C7.31307 7.5988 7.28359 7.71602 7.26717 7.95674C7.25029 8.20421 7.24988 8.5238 7.24988 9H5.74988L5.74988 8.97475V8.97474C5.74987 8.53028 5.74987 8.15925 5.77065 7.85464C5.79228 7.53754 5.83893 7.23801 5.95921 6.94762C6.23832 6.27379 6.77367 5.73844 7.4475 5.45933C7.73789 5.33905 8.03741 5.29241 8.35451 5.27077C8.65912 5.24999 9.03016 5.24999 9.47461 5.25H9.47463L9.49988 5.25H15.2999L15.3303 5.25C15.8645 5.24999 16.3103 5.24998 16.6745 5.27974C17.0544 5.31078 17.4111 5.37789 17.7484 5.54973C18.2658 5.81339 18.6865 6.23408 18.9501 6.75153C19.122 7.08879 19.1891 7.44545 19.2201 7.82533C19.2499 8.18956 19.2499 8.6354 19.2499 9.16955V9.2V15V15.0253C19.2499 15.4697 19.2499 15.8408 19.2291 16.1454C19.2075 16.4625 19.1608 16.762 19.0405 17.0524C18.7614 17.7262 18.2261 18.2616 17.5523 18.5407C17.2619 18.661 16.9623 18.7076 16.6452 18.7292C16.3406 18.75 15.9696 18.75 15.5251 18.75H15.4999V17.25C15.9761 17.25 16.2957 17.2496 16.5431 17.2327C16.7839 17.2163 16.9011 17.1868 16.9782 17.1549C17.2845 17.028 17.5279 16.7846 17.6547 16.4784C17.6867 16.4012 17.7162 16.284 17.7326 16.0433C17.7495 15.7958 17.7499 15.4762 17.7499 15V9.2C17.7499 8.62757 17.7493 8.24336 17.7251 7.94748C17.7017 7.66036 17.6598 7.52307 17.6136 7.43251C17.4938 7.19731 17.3026 7.00608 17.0674 6.88624C16.9768 6.8401 16.8395 6.79822 16.5524 6.77476ZM5.69988 9.25H5.66944C5.13529 9.24999 4.68944 9.24998 4.32521 9.27974C3.94532 9.31078 3.58867 9.37789 3.2514 9.54973C2.73396 9.81338 2.31326 10.2341 2.04961 10.7515C1.87777 11.0888 1.81066 11.4454 1.77962 11.8253C1.74986 12.1896 1.74987 12.6354 1.74988 13.1696L1.74988 13.2V18.8L1.74988 18.8304C1.74987 19.3646 1.74986 19.8104 1.77962 20.1747C1.81066 20.5546 1.87777 20.9112 2.04961 21.2485C2.31326 21.7659 2.73396 22.1866 3.2514 22.4503C3.58867 22.6221 3.94532 22.6892 4.32521 22.7203C4.6894 22.75 5.13518 22.75 5.66924 22.75H5.66943H5.69988H11.2999H11.3303H11.3305C11.8646 22.75 12.3104 22.75 12.6745 22.7203C13.0544 22.6892 13.4111 22.6221 13.7484 22.4503C14.2658 22.1866 14.6865 21.7659 14.9501 21.2485C15.122 20.9112 15.1891 20.5546 15.2201 20.1747C15.2499 19.8105 15.2499 19.3646 15.2499 18.8305V18.8305V18.8V13.2V13.1695V13.1695C15.2499 12.6354 15.2499 12.1896 15.2201 11.8253C15.1891 11.4454 15.122 11.0888 14.9501 10.7515C14.6865 10.2341 14.2658 9.81338 13.7484 9.54973C13.4111 9.37789 13.0544 9.31078 12.6745 9.27974C12.3103 9.24998 11.8645 9.24999 11.3303 9.25H11.2999H5.69988ZM3.93239 10.8862C4.02295 10.8401 4.16023 10.7982 4.44736 10.7748C4.74324 10.7506 5.12745 10.75 5.69988 10.75H11.2999C11.8723 10.75 12.2565 10.7506 12.5524 10.7748C12.8395 10.7982 12.9768 10.8401 13.0674 10.8862C13.3026 11.0061 13.4938 11.1973 13.6136 11.4325C13.6598 11.5231 13.7017 11.6604 13.7251 11.9475C13.7493 12.2434 13.7499 12.6276 13.7499 13.2V18.8C13.7499 19.3724 13.7493 19.7566 13.7251 20.0525C13.7017 20.3396 13.6598 20.4769 13.6136 20.5675C13.4938 20.8027 13.3026 20.9939 13.0674 21.1138C12.9768 21.1599 12.8395 21.2018 12.5524 21.2252C12.2565 21.2494 11.8723 21.25 11.2999 21.25H5.69988C5.12745 21.25 4.74324 21.2494 4.44736 21.2252C4.16023 21.2018 4.02295 21.1599 3.93239 21.1138C3.69719 20.9939 3.50596 20.8027 3.38612 20.5675C3.33998 20.4769 3.2981 20.3396 3.27464 20.0525C3.25046 19.7566 3.24988 19.3724 3.24988 18.8V13.2C3.24988 12.6276 3.25046 12.2434 3.27464 11.9475C3.2981 11.6604 3.33998 11.5231 3.38612 11.4325C3.50596 11.1973 3.69719 11.0061 3.93239 10.8862Z" fill="#181818" fill-opacity="0.7"/>
</svg>
