<svg width="25" height="25" viewBox="0 0 25 25" fill="none" xmlns="http://www.w3.org/2000/svg">
<path d="M8.53732 14.4415L0.757812 21.9619L2.84683 24.1229L10.6263 16.6024L8.53732 14.4415Z" fill="#334BFA"/>
<path d="M22.0905 2.86357C21.2483 2.01655 20.247 1.34422 19.1443 0.885168C18.0415 0.426116 16.859 0.189384 15.6645 0.188561C14.4691 0.183383 13.2848 0.417379 12.1812 0.876777C11.0776 1.33617 10.0771 2.01169 9.23845 2.86357C7.77283 4.33651 6.85459 6.26607 6.63593 8.33242C6.41727 10.3988 6.91132 12.4778 8.0362 14.2248L1.42382 20.8372C1.06869 21.2039 0.870117 21.6943 0.870117 22.2048C0.870117 22.7152 1.06869 23.2057 1.42382 23.5723C1.79324 23.9325 2.29049 24.1314 2.80641 24.1254C3.30897 24.1145 3.79014 23.9199 4.15894 23.5784L10.7713 16.966C12.2449 17.9124 13.9612 18.4115 15.7126 18.4027C16.9079 18.4078 18.0923 18.1738 19.1959 17.7144C20.2995 17.255 21.3 16.5795 22.1386 15.7277C23.8253 14.0087 24.7662 11.694 24.7572 9.28573C24.7481 6.87748 23.79 4.5699 22.0905 2.86357ZM3.36546 22.7789C3.21241 22.9327 3.00451 23.0195 2.7875 23.02C2.57048 23.0206 2.36214 22.9349 2.20829 22.7819C2.05444 22.6288 1.96769 22.4209 1.96713 22.2039C1.96657 21.9869 2.05223 21.7785 2.20528 21.6247L3.16107 20.6569L4.31523 21.8171L3.36546 22.7789ZM5.12675 21.0176L3.97259 19.8574L8.66137 15.1626C8.82998 15.3769 9.01488 15.5779 9.21441 15.7637C9.40677 15.9561 9.62317 16.1484 9.81553 16.3168L5.12675 21.0176ZM21.291 15.0063C20.1729 16.1243 18.7483 16.8857 17.1975 17.1941C15.6466 17.5025 14.0391 17.3442 12.5783 16.739C11.1174 16.1339 9.86884 15.1091 8.99038 13.7944C8.11192 12.4797 7.64304 10.9339 7.64304 9.35272C7.64304 7.7715 8.11192 6.22578 8.99038 4.91104C9.86884 3.59629 11.1174 2.57155 12.5783 1.96641C14.0391 1.36126 15.6466 1.20289 17.1975 1.51131C18.7483 1.81973 20.1729 2.5811 21.291 3.69913C22.7814 5.19727 23.618 7.22451 23.618 9.33769C23.618 11.4509 22.7814 13.4781 21.291 14.9762V15.0063ZM15.6404 4.63088C14.3969 4.63088 13.2043 5.12487 12.325 6.00419C11.4457 6.88351 10.9517 8.07611 10.9517 9.31966C10.9517 10.5632 11.4457 11.7558 12.325 12.6351C13.2043 13.5144 14.3969 14.0084 15.6404 14.0084C15.7861 14.0022 15.9234 13.9387 16.0224 13.8317C16.1215 13.7248 16.1743 13.5831 16.1694 13.4374C16.1664 13.298 16.1096 13.1653 16.0111 13.0667C15.9126 12.9682 15.7798 12.9114 15.6404 12.9084C14.9271 12.9084 14.2298 12.6968 13.6366 12.3005C13.0435 11.9042 12.5812 11.3409 12.3082 10.6819C12.0352 10.0228 11.9638 9.29762 12.103 8.59798C12.2422 7.89834 12.5857 7.25568 13.0901 6.75126C13.5945 6.24685 14.2372 5.90334 14.9368 5.76417C15.6364 5.62501 16.3616 5.69643 17.0207 5.96942C17.6797 6.2424 18.243 6.70469 18.6393 7.29782C19.0357 7.89094 19.2472 8.58827 19.2472 9.30162C19.2356 9.50965 19.1461 9.70569 18.9965 9.85076C18.847 9.99584 18.6483 10.0793 18.44 10.0846C18.2318 10.0899 18.0291 10.0167 17.8724 9.87938C17.7156 9.7421 17.6163 9.55087 17.5941 9.3437V9.30162C17.594 8.85447 17.4387 8.42123 17.1545 8.07593C16.8704 7.73064 16.4752 7.49473 16.0365 7.40854C15.5977 7.32234 15.1426 7.3912 14.749 7.60335C14.3554 7.81549 14.0476 8.15776 13.8784 8.57165C13.7092 8.98554 13.6889 9.44536 13.8212 9.87251C13.9534 10.2997 14.2298 10.6677 14.6033 10.9136C14.9768 11.1595 15.424 11.2681 15.8687 11.2207C16.3133 11.1734 16.7277 10.9731 17.0411 10.6542C17.2198 10.8341 17.4324 10.9769 17.6666 11.0743C17.9008 11.1718 18.152 11.2219 18.4056 11.2219C18.6593 11.2219 18.9104 11.1718 19.1446 11.0743C19.3788 10.9769 19.5914 10.8341 19.7702 10.6542C19.9568 10.4761 20.106 10.2627 20.2092 10.0264C20.3125 9.79 20.3675 9.53545 20.3713 9.27758C20.3713 8.03508 19.8781 6.84338 19.0001 5.96423C18.1221 5.08509 16.931 4.59039 15.6885 4.5888L15.6404 4.63088ZM15.6404 10.1492C15.4761 10.1504 15.3151 10.1028 15.1779 10.0123C15.0407 9.92191 14.9335 9.79277 14.8698 9.6413C14.806 9.48983 14.7888 9.32285 14.8201 9.16153C14.8514 9.00022 14.9299 8.85185 15.0457 8.73523C15.1615 8.61862 15.3093 8.53901 15.4704 8.50651C15.6314 8.47401 15.7985 8.49008 15.9505 8.55269C16.1024 8.6153 16.2323 8.72162 16.3237 8.85816C16.4152 8.99471 16.464 9.15533 16.464 9.31966C16.464 9.53863 16.3774 9.74872 16.2231 9.90412C16.0689 10.0595 15.8594 10.1476 15.6404 10.1492Z" fill="#181818"/>
<path d="M22.0905 2.86357C21.2483 2.01655 20.247 1.34422 19.1443 0.885168C18.0415 0.426116 16.859 0.189384 15.6645 0.188561C14.4691 0.183383 13.2848 0.417379 12.1812 0.876777C11.0776 1.33617 10.0771 2.01169 9.23845 2.86357C7.77283 4.33651 6.85459 6.26607 6.63593 8.33242C6.41727 10.3988 6.91132 12.4778 8.0362 14.2248L1.42382 20.8372C1.06869 21.2039 0.870117 21.6943 0.870117 22.2048C0.870117 22.7152 1.06869 23.2057 1.42382 23.5723C1.79324 23.9325 2.29049 24.1314 2.80641 24.1254C3.30897 24.1145 3.79014 23.9199 4.15894 23.5784L10.7713 16.966C12.2449 17.9124 13.9612 18.4115 15.7126 18.4027C16.9079 18.4078 18.0923 18.1738 19.1959 17.7144C20.2995 17.255 21.3 16.5795 22.1386 15.7277C23.8253 14.0087 24.7662 11.694 24.7572 9.28573C24.7481 6.87748 23.79 4.5699 22.0905 2.86357ZM3.36546 22.7789C3.21241 22.9327 3.00451 23.0195 2.7875 23.02C2.57048 23.0206 2.36214 22.9349 2.20829 22.7819C2.05444 22.6288 1.96769 22.4209 1.96713 22.2039C1.96657 21.9869 2.05223 21.7785 2.20528 21.6247L3.16107 20.6569L4.31523 21.8171L3.36546 22.7789ZM5.12675 21.0176L3.97259 19.8574L8.66137 15.1626C8.82998 15.3769 9.01488 15.5779 9.21441 15.7637C9.40677 15.9561 9.62317 16.1484 9.81553 16.3168L5.12675 21.0176ZM21.291 15.0063C20.1729 16.1243 18.7483 16.8857 17.1975 17.1941C15.6466 17.5025 14.0391 17.3442 12.5783 16.739C11.1174 16.1339 9.86884 15.1091 8.99038 13.7944C8.11192 12.4797 7.64304 10.9339 7.64304 9.35272C7.64304 7.7715 8.11192 6.22578 8.99038 4.91104C9.86884 3.59629 11.1174 2.57155 12.5783 1.96641C14.0391 1.36126 15.6466 1.20289 17.1975 1.51131C18.7483 1.81973 20.1729 2.5811 21.291 3.69913C22.7814 5.19727 23.618 7.22451 23.618 9.33769C23.618 11.4509 22.7814 13.4781 21.291 14.9762V15.0063ZM15.6404 4.63088C14.3969 4.63088 13.2043 5.12487 12.325 6.00419C11.4457 6.88351 10.9517 8.07611 10.9517 9.31966C10.9517 10.5632 11.4457 11.7558 12.325 12.6351C13.2043 13.5144 14.3969 14.0084 15.6404 14.0084C15.7861 14.0022 15.9234 13.9387 16.0224 13.8317C16.1215 13.7248 16.1743 13.5831 16.1694 13.4374C16.1664 13.298 16.1096 13.1653 16.0111 13.0667C15.9126 12.9682 15.7798 12.9114 15.6404 12.9084C14.9271 12.9084 14.2298 12.6968 13.6366 12.3005C13.0435 11.9042 12.5812 11.3409 12.3082 10.6819C12.0352 10.0228 11.9638 9.29762 12.103 8.59798C12.2422 7.89834 12.5857 7.25568 13.0901 6.75126C13.5945 6.24685 14.2372 5.90334 14.9368 5.76417C15.6364 5.62501 16.3616 5.69643 17.0207 5.96942C17.6797 6.2424 18.243 6.70469 18.6393 7.29782C19.0357 7.89094 19.2472 8.58827 19.2472 9.30162C19.2356 9.50965 19.1461 9.70569 18.9965 9.85076C18.847 9.99584 18.6483 10.0793 18.44 10.0846C18.2318 10.0899 18.0291 10.0167 17.8724 9.87938C17.7156 9.7421 17.6163 9.55087 17.5941 9.3437V9.30162C17.594 8.85447 17.4387 8.42123 17.1545 8.07593C16.8704 7.73064 16.4752 7.49473 16.0365 7.40854C15.5977 7.32234 15.1426 7.3912 14.749 7.60335C14.3554 7.81549 14.0476 8.15776 13.8784 8.57165C13.7092 8.98554 13.6889 9.44536 13.8212 9.87251C13.9534 10.2997 14.2298 10.6677 14.6033 10.9136C14.9768 11.1595 15.424 11.2681 15.8687 11.2207C16.3133 11.1734 16.7277 10.9731 17.0411 10.6542C17.2198 10.8341 17.4324 10.9769 17.6666 11.0743C17.9008 11.1718 18.152 11.2219 18.4056 11.2219C18.6593 11.2219 18.9104 11.1718 19.1446 11.0743C19.3788 10.9769 19.5914 10.8341 19.7702 10.6542C19.9568 10.4761 20.106 10.2627 20.2092 10.0264C20.3125 9.79 20.3675 9.53545 20.3713 9.27758C20.3713 8.03508 19.8781 6.84338 19.0001 5.96423C18.1221 5.08509 16.931 4.59039 15.6885 4.5888L15.6404 4.63088ZM15.6404 10.1492C15.4761 10.1504 15.3151 10.1028 15.1779 10.0123C15.0407 9.92191 14.9335 9.79277 14.8698 9.6413C14.806 9.48983 14.7888 9.32285 14.8201 9.16153C14.8514 9.00022 14.9299 8.85185 15.0457 8.73523C15.1615 8.61862 15.3093 8.53901 15.4704 8.50651C15.6314 8.47401 15.7985 8.49008 15.9505 8.55269C16.1024 8.6153 16.2323 8.72162 16.3237 8.85816C16.4152 8.99471 16.464 9.15533 16.464 9.31966C16.464 9.53863 16.3774 9.74872 16.2231 9.90412C16.0689 10.0595 15.8594 10.1476 15.6404 10.1492Z" fill="#181818"/>
</svg>
