<svg width="32" height="41" viewBox="0 0 32 41" fill="none" xmlns="http://www.w3.org/2000/svg">
<path fill-rule="evenodd" clip-rule="evenodd" d="M18.8016 1.57516C18.5367 1.57173 18.2252 1.57131 17.8502 1.57131H9.40332C7.99081 1.57131 6.97654 1.57189 6.1804 1.63694C5.39302 1.70127 4.88529 1.82489 4.47386 2.03453C3.67417 2.44199 3.024 3.09216 2.61654 3.89185C2.40691 4.30327 2.28328 4.81101 2.21895 5.59839C2.1539 6.39452 2.15332 7.4088 2.15332 8.8213V31.7102C2.15332 33.1227 2.1539 34.137 2.21895 34.9331C2.28328 35.7205 2.40691 36.2282 2.61654 36.6396C3.024 37.4393 3.67417 38.0895 4.47386 38.497C4.88529 38.7066 5.39302 38.8302 6.1804 38.8946C6.97654 38.9596 7.99081 38.9602 9.40331 38.9602H22.3888C23.8013 38.9602 24.8156 38.9596 25.6117 38.8946C26.3991 38.8302 26.9069 38.7066 27.3183 38.497C28.118 38.0895 28.7681 37.4393 29.1756 36.6396C29.3852 36.2282 29.5089 35.7205 29.5732 34.9331C29.6382 34.137 29.6388 33.1227 29.6388 31.7102V13.6927C29.6388 13.5219 29.6387 13.3656 29.6383 13.2219C29.5882 13.2325 29.5363 13.238 29.483 13.238H22.7193H22.6888H22.6888C22.1546 13.238 21.7088 13.238 21.3446 13.2083C20.9647 13.1773 20.6081 13.1101 20.2708 12.9383C19.7533 12.6746 19.3326 12.2539 19.069 11.7365C18.8972 11.3992 18.83 11.0426 18.799 10.6627C18.7692 10.2985 18.7693 9.85261 18.7693 9.31846V9.28802V1.79353C18.7693 1.71757 18.7806 1.64425 18.8016 1.57516ZM29.5671 11.7427C29.5569 11.6814 29.5451 11.6222 29.5317 11.5635C29.4367 11.1484 29.2798 10.75 29.0664 10.3815C28.8356 9.98303 28.5098 9.62699 27.6934 8.75063L23.1548 3.8792C22.2548 2.91326 21.8884 2.52768 21.4651 2.25365C21.0952 2.01423 20.6906 1.83385 20.2656 1.71885C20.268 1.74341 20.2693 1.76833 20.2693 1.79353V9.28802C20.2693 9.86045 20.2698 10.2447 20.294 10.5406C20.3175 10.8277 20.3594 10.965 20.4055 11.0555C20.5253 11.2907 20.7166 11.4819 20.9518 11.6018C21.0423 11.6479 21.1796 11.6898 21.4667 11.7133C21.7626 11.7374 22.1468 11.738 22.7193 11.738H29.483C29.5115 11.738 29.5395 11.7396 29.5671 11.7427ZM20.557 0.24473C19.866 0.0710663 19.1375 0.0711543 17.9543 0.0712971L17.8502 0.0713054H9.40332L9.36976 0.0713053C7.99804 0.0713006 6.92261 0.071297 6.05826 0.141917C5.17811 0.213828 4.45101 0.362684 3.79288 0.698018C2.71094 1.24929 1.8313 2.12893 1.28003 3.21086C0.944699 3.86899 0.795843 4.5961 0.723932 5.47624C0.653312 6.34059 0.653316 7.41602 0.65332 8.78774L0.653321 8.8213V31.7102L0.65332 31.7437C0.653316 33.1155 0.653312 34.1909 0.723932 35.0553C0.795843 35.9354 0.944699 36.6625 1.28003 37.3206C1.8313 38.4026 2.71094 39.2822 3.79288 39.8335C4.45101 40.1688 5.17811 40.3177 6.05825 40.3896C6.92259 40.4602 7.998 40.4602 9.36968 40.4602H9.36973H9.40331H22.3888H22.4224H22.4225C23.7941 40.4602 24.8696 40.4602 25.7339 40.3896C26.614 40.3177 27.3411 40.1688 27.9993 39.8335C29.0812 39.2822 29.9608 38.4026 30.5121 37.3206C30.8474 36.6625 30.9963 35.9354 31.0682 35.0553C31.1388 34.1909 31.1388 33.1155 31.1388 31.7438V31.7438V31.7102V13.6927L31.1388 13.5987C31.139 12.5245 31.139 11.863 30.9939 11.2289C30.8653 10.6673 30.6531 10.1282 30.3644 9.62966C30.0383 9.06673 29.5873 8.5828 28.8549 7.79692L28.7908 7.72812L24.2522 2.85669L24.1813 2.78052C23.3748 1.9147 22.8783 1.38166 22.2802 0.994472C21.7508 0.651747 21.1686 0.398451 20.557 0.24473ZM15.8961 17.5713C16.1042 17.5713 16.303 17.6578 16.4448 17.8101L20.9738 22.6712C21.2562 22.9742 21.2394 23.4488 20.9363 23.7312C20.6333 24.0135 20.1587 23.9967 19.8763 23.6937L16.6461 20.2265V29.988C16.6461 30.4022 16.3103 30.738 15.8961 30.738C15.4819 30.738 15.1461 30.4022 15.1461 29.988V20.2265L11.9158 23.6937C11.6335 23.9967 11.1589 24.0135 10.8558 23.7312C10.5528 23.4488 10.536 22.9742 10.8183 22.6712L15.3473 17.8101C15.4892 17.6578 15.688 17.5713 15.8961 17.5713Z" fill="#334BFA"/>
</svg>
