<svg width="24" height="24" viewBox="0 0 24 24" fill="none" xmlns="http://www.w3.org/2000/svg">
<path fill-rule="evenodd" clip-rule="evenodd" d="M8.26745 1.58691C6.35701 1.58691 4.75078 3.21773 4.75078 5.30203C4.75078 7.38633 6.35701 9.01715 8.26745 9.01715C10.1779 9.01715 11.7841 7.38633 11.7841 5.30203C11.7841 3.21773 10.1779 1.58691 8.26745 1.58691ZM3.25078 5.30203C3.25078 2.4543 5.46505 0.0869141 8.26745 0.0869141C11.0698 0.0869141 13.2841 2.4543 13.2841 5.30203C13.2841 8.14976 11.0698 10.5171 8.26745 10.5171C5.46505 10.5171 3.25078 8.14976 3.25078 5.30203ZM0.0507812 19.5904C0.0507812 16.217 2.78549 13.4823 6.15892 13.4823H10.376C13.7494 13.4823 16.4841 16.217 16.4841 19.5904C16.4841 21.9774 14.549 23.9125 12.162 23.9125H4.37288C1.98585 23.9125 0.0507812 21.9774 0.0507812 19.5904ZM6.15892 14.9823C3.61392 14.9823 1.55078 17.0454 1.55078 19.5904C1.55078 21.149 2.81428 22.4125 4.37288 22.4125H12.162C13.7206 22.4125 14.9841 21.149 14.9841 19.5904C14.9841 17.0454 12.921 14.9823 10.376 14.9823H6.15892ZM20.7508 6.41831C20.7508 6.0041 20.415 5.66831 20.0008 5.66831C19.5866 5.66831 19.2508 6.0041 19.2508 6.41831V9.01715H16.8008C16.3866 9.01715 16.0508 9.35293 16.0508 9.76715C16.0508 10.1814 16.3866 10.5171 16.8008 10.5171H19.2508V13.116C19.2508 13.5302 19.5866 13.866 20.0008 13.866C20.415 13.866 20.7508 13.5302 20.7508 13.116V10.5171H23.2008C23.615 10.5171 23.9508 10.1814 23.9508 9.76715C23.9508 9.35293 23.615 9.01715 23.2008 9.01715H20.7508V6.41831Z" fill="#181818"/>
</svg>
