<svg width="12" height="12" viewBox="0 0 12 12" fill="none" xmlns="http://www.w3.org/2000/svg">
<path fill-rule="evenodd" clip-rule="evenodd" d="M6 0.25C6.19891 0.25 6.38968 0.32902 6.53033 0.46967C6.67098 0.61032 6.75 0.80109 6.75 1V5.25H11C11.1989 5.25 11.3897 5.32902 11.5303 5.46967C11.671 5.61032 11.75 5.80109 11.75 6C11.75 6.19891 11.671 6.38968 11.5303 6.53033C11.3897 6.67098 11.1989 6.75 11 6.75H6.75V11C6.75 11.1989 6.67098 11.3897 6.53033 11.5303C6.38968 11.671 6.19891 11.75 6 11.75C5.80109 11.75 5.61032 11.671 5.46967 11.5303C5.32902 11.3897 5.25 11.1989 5.25 11V6.75H1C0.80109 6.75 0.61032 6.67098 0.46967 6.53033C0.32902 6.38968 0.25 6.19891 0.25 6C0.25 5.80109 0.32902 5.61032 0.46967 5.46967C0.61032 5.32902 0.80109 5.25 1 5.25H5.25V1C5.25 0.80109 5.32902 0.61032 5.46967 0.46967C5.61032 0.32902 5.80109 0.25 6 0.25Z" fill="white"/>
</svg>
