<svg width="15" height="14" viewBox="0 0 15 14" fill="none" xmlns="http://www.w3.org/2000/svg">
<path fill-rule="evenodd" clip-rule="evenodd" d="M2 7C2 3.96243 4.46243 1.5 7.5 1.5C10.5376 1.5 13 3.96243 13 7C13 10.0376 10.5376 12.5 7.5 12.5C4.46243 12.5 2 10.0376 2 7ZM7.5 0C3.63401 0 0.5 3.13401 0.5 7C0.5 10.866 3.63401 14 7.5 14C11.366 14 14.5 10.866 14.5 7C14.5 3.13401 11.366 0 7.5 0ZM8.25 4.5C8.25 4.08579 7.91421 3.75 7.5 3.75C7.08579 3.75 6.75 4.08579 6.75 4.5V7.68934L6.15533 7.09467C5.86244 6.80178 5.38756 6.80178 5.09467 7.09467C4.80178 7.38756 4.80178 7.86244 5.09467 8.15533L6.96967 10.0303C7.26256 10.3232 7.73744 10.3232 8.03033 10.0303L9.90533 8.15533C10.1982 7.86244 10.1982 7.38756 9.90533 7.09467C9.61244 6.80178 9.13756 6.80178 8.84467 7.09467L8.25 7.68934V4.5Z" fill="#FA336F"/>
</svg>
