<svg width="15" height="14" viewBox="0 0 15 14" fill="none" xmlns="http://www.w3.org/2000/svg">
<path fill-rule="evenodd" clip-rule="evenodd" d="M2 7C2 3.96243 4.46243 1.5 7.5 1.5C10.5376 1.5 13 3.96243 13 7C13 10.0376 10.5376 12.5 7.5 12.5C4.46243 12.5 2 10.0376 2 7ZM7.5 0C3.63401 0 0.5 3.13401 0.5 7C0.5 10.866 3.63401 14 7.5 14C11.366 14 14.5 10.866 14.5 7C14.5 3.13401 11.366 0 7.5 0ZM8.65533 4.59467C8.36244 4.30178 7.88756 4.30178 7.59467 4.59467C7.30178 4.88756 7.30178 5.36244 7.59467 5.65533L8.18934 6.25H5C4.58579 6.25 4.25 6.58579 4.25 7C4.25 7.41421 4.58579 7.75 5 7.75H8.18934L7.59467 8.34467C7.30178 8.63756 7.30178 9.11244 7.59467 9.40533C7.88756 9.69822 8.36244 9.69822 8.65533 9.40533L10.5303 7.53033C10.8232 7.23744 10.8232 6.76256 10.5303 6.46967L8.65533 4.59467Z" fill="#FF8CAD"/>
</svg>
