<svg width="15" height="14" viewBox="0 0 15 14" fill="none" xmlns="http://www.w3.org/2000/svg">
<path fill-rule="evenodd" clip-rule="evenodd" d="M7.5 12.5C4.46243 12.5 2 10.0376 2 7C2 3.96243 4.46243 1.5 7.5 1.5C10.5376 1.5 13 3.96243 13 7C13 10.0376 10.5376 12.5 7.5 12.5ZM0.5 7C0.5 10.866 3.63401 14 7.5 14C11.366 14 14.5 10.866 14.5 7C14.5 3.13401 11.366 0 7.5 0C3.63401 0 0.5 3.13401 0.5 7ZM5.09467 5.84467C4.80178 6.13756 4.80178 6.61244 5.09467 6.90533C5.38756 7.19822 5.86244 7.19822 6.15533 6.90533L6.75 6.31066L6.75 9.5C6.75 9.91421 7.08579 10.25 7.5 10.25C7.91421 10.25 8.25 9.91421 8.25 9.5V6.31066L8.84467 6.90533C9.13756 7.19822 9.61244 7.19822 9.90533 6.90533C10.1982 6.61244 10.1982 6.13756 9.90533 5.84467L8.03033 3.96967C7.73744 3.67678 7.26256 3.67678 6.96967 3.96967L5.09467 5.84467Z" fill="#1BD2A4"/>
</svg>
