<svg width="15" height="14" viewBox="0 0 15 14" fill="none" xmlns="http://www.w3.org/2000/svg">
<path fill-rule="evenodd" clip-rule="evenodd" d="M7.5 12.5C4.46243 12.5 2 10.0376 2 7C2 3.96243 4.46243 1.5 7.5 1.5C10.5376 1.5 13 3.96243 13 7C13 10.0376 10.5376 12.5 7.5 12.5ZM0.5 7C0.5 10.866 3.63401 14 7.5 14C11.366 14 14.5 10.866 14.5 7C14.5 3.13401 11.366 0 7.5 0C3.63401 0 0.5 3.13401 0.5 7ZM5.09467 5.65533C4.80178 5.36244 4.80178 4.88756 5.09467 4.59467C5.38756 4.30178 5.86244 4.30178 6.15533 4.59467L8.625 7.06434V6.0625C8.625 5.64829 8.96079 5.3125 9.375 5.3125C9.78921 5.3125 10.125 5.64829 10.125 6.0625V8.875C10.125 9.28921 9.78921 9.625 9.375 9.625H6.5625C6.14829 9.625 5.8125 9.28921 5.8125 8.875C5.8125 8.46079 6.14829 8.125 6.5625 8.125H7.56434L5.09467 5.65533Z" fill="#334BFA"/>
</svg>
