<svg width="24" height="25" viewBox="0 0 24 25" fill="none" xmlns="http://www.w3.org/2000/svg">
<path fill-rule="evenodd" clip-rule="evenodd" d="M7.76789 1.75L7.8 1.75L14.2 1.75L14.2321 1.75L14.2321 1.75C15.045 1.75 15.7006 1.74999 16.2315 1.79337C16.7781 1.83803 17.2582 1.93239 17.7025 2.15873C18.4081 2.51825 18.9817 3.09193 19.3413 3.79754C19.5676 4.24176 19.662 4.7219 19.7066 5.26854C19.719 5.42002 19.7279 5.58166 19.7342 5.75421C19.8829 5.75717 20.0198 5.7622 20.1454 5.77077C20.4625 5.79241 20.762 5.83905 21.0524 5.95933C21.7262 6.23844 22.2616 6.7738 22.5407 7.44762C22.6609 7.73801 22.7076 8.03754 22.7292 8.35464C22.75 8.65924 22.75 9.03025 22.75 9.47469L22.75 9.47475L22.75 9.5L22.75 10.5L22.75 10.5253L22.75 10.5254C22.75 10.9698 22.75 11.3408 22.7292 11.6454C22.7076 11.9625 22.6609 12.262 22.5407 12.5524C22.2616 13.2262 21.7262 13.7616 21.0524 14.0407C20.762 14.161 20.4625 14.2076 20.1454 14.2292C19.9935 14.2396 19.8252 14.2448 19.6395 14.2474C19.5563 14.9511 19.4061 15.5553 19.1233 16.1104C18.572 17.1924 17.6924 18.072 16.6104 18.6233C15.9523 18.9586 15.2252 19.1075 14.3451 19.1794C13.4807 19.25 12.4053 19.25 11.0337 19.25L11.0336 19.25L11.0336 19.25L11 19.25L10.9664 19.25L10.9664 19.25L10.9663 19.25C9.59466 19.25 8.51926 19.25 7.65493 19.1794C6.77479 19.1075 6.04768 18.9586 5.38955 18.6233C4.30762 18.072 3.42798 17.1924 2.87671 16.1104C2.54137 15.4523 2.39252 14.7252 2.32061 13.8451C2.24999 12.9807 2.24999 11.9053 2.25 10.5336L2.25 10.5L2.25 7.3L2.25 7.2679L2.25 7.26789C2.24999 6.45506 2.24998 5.79944 2.29336 5.26854C2.33802 4.7219 2.43238 4.24176 2.65872 3.79754C3.01825 3.09193 3.59192 2.51825 4.29753 2.15873C4.74175 1.93239 5.22189 1.83803 5.76853 1.79337C6.29942 1.74999 6.95501 1.75 7.7678 1.75L7.76789 1.75ZM19.7336 12.7455C19.8497 12.743 19.9514 12.739 20.0433 12.7327C20.284 12.7163 20.4012 12.6868 20.4784 12.6549C20.7846 12.528 21.028 12.2846 21.1548 11.9784C21.1868 11.9012 21.2163 11.784 21.2327 11.5433C21.2496 11.2958 21.25 10.9762 21.25 10.5L21.25 9.5C21.25 9.0238 21.2496 8.70421 21.2327 8.45675C21.2163 8.21602 21.1868 8.0988 21.1548 8.02165C21.028 7.71536 20.7846 7.47202 20.4784 7.34515C20.4012 7.3132 20.284 7.28372 20.0433 7.26729C19.9558 7.26132 19.8593 7.25742 19.75 7.25486C19.75 7.25917 19.75 7.26349 19.75 7.26782L19.75 7.26788L19.75 7.3L19.75 10.5L19.75 10.5336L19.75 10.5336L19.75 10.5337C19.75 11.3761 19.75 12.1068 19.7336 12.7455ZM5.89068 3.28839C5.4368 3.32547 5.17603 3.3946 4.97852 3.49524C4.55515 3.71095 4.21095 4.05516 3.99523 4.47852C3.89459 4.67604 3.82546 4.93681 3.78838 5.39068C3.75058 5.85331 3.75 6.44755 3.75 7.3L3.75 10.5C3.75 11.9125 3.75058 12.9268 3.81563 13.7229C3.87996 14.5103 4.00359 15.018 4.21322 15.4295C4.62068 16.2292 5.27085 16.8793 6.07054 17.2868C6.48196 17.4964 6.9897 17.62 7.77708 17.6844C8.57322 17.7494 9.58749 17.75 11 17.75C12.4125 17.75 13.4268 17.7494 14.2229 17.6844C15.0103 17.62 15.518 17.4964 15.9295 17.2868C16.7291 16.8793 17.3793 16.2292 17.7868 15.4295C17.9964 15.018 18.12 14.5103 18.1844 13.7229C18.2494 12.9268 18.25 11.9125 18.25 10.5L18.25 7.3C18.25 6.44755 18.2494 5.85331 18.2116 5.39068C18.1745 4.93681 18.1054 4.67604 18.0048 4.47852C17.789 4.05516 17.4448 3.71095 17.0215 3.49524C16.824 3.3946 16.5632 3.32547 16.1093 3.28839C15.6467 3.25059 15.0524 3.25 14.2 3.25L7.8 3.25C6.94754 3.25 6.35331 3.25059 5.89068 3.28839ZM1.25 22.5C1.25 22.0858 1.58578 21.75 2 21.75L20 21.75C20.4142 21.75 20.75 22.0858 20.75 22.5C20.75 22.9142 20.4142 23.25 20 23.25L2 23.25C1.58578 23.25 1.25 22.9142 1.25 22.5Z" fill="#5d5d5d" fill-opacity="1"/>
</svg>
