<svg width="20" height="19" viewBox="0 0 20 19" fill="none" xmlns="http://www.w3.org/2000/svg">
<path fill-rule="evenodd" clip-rule="evenodd" d="M9.21718 0.378143L9.10838 0.378035C8.59578 0.377269 8.14587 0.376598 7.74498 0.534265C7.39445 0.67213 7.08413 0.895794 6.84249 1.18475C6.56614 1.5152 6.42451 1.94224 6.26313 2.42878L6.22883 2.53203L6.10959 2.88975H3.30136H1.62695C1.21274 2.88975 0.876953 3.22553 0.876953 3.63975C0.876953 4.05396 1.21274 4.38975 1.62695 4.38975H2.59418L3.04572 12.0659L3.04744 12.0953C3.1035 13.0482 3.14798 13.8046 3.2292 14.4153C3.31233 15.0403 3.44009 15.5692 3.69138 16.0549C4.18694 17.0127 4.99369 17.7734 5.97897 18.2119C6.47857 18.4342 7.01404 18.5307 7.64288 18.5769C8.25731 18.6222 9.01492 18.6222 9.96955 18.6222H9.99896H10.0284C10.983 18.6222 11.7406 18.6222 12.355 18.5769C12.9839 18.5307 13.5194 18.4342 14.019 18.2119C15.0042 17.7734 15.811 17.0127 16.3065 16.0549C16.5578 15.5692 16.6856 15.0403 16.7687 14.4153C16.8499 13.8045 16.8944 13.0482 16.9505 12.0952L16.9522 12.0659L17.4037 4.38975H18.371C18.7852 4.38975 19.121 4.05396 19.121 3.63975C19.121 3.22553 18.7852 2.88975 18.371 2.88975H16.6966H13.8883L13.7691 2.53203L13.7348 2.42878C13.5734 1.94224 13.4318 1.5152 13.1554 1.18475C12.9138 0.895794 12.6035 0.67213 12.2529 0.534265C11.8521 0.376598 11.4021 0.377269 10.8895 0.378035L10.7807 0.378143H9.21718ZM13.3303 4.38975C13.3418 4.39002 13.3534 4.39002 13.3651 4.38975H15.9012L15.4548 11.9778C15.3966 12.9667 15.3549 13.6679 15.2818 14.2175C15.2098 14.759 15.1135 15.0965 14.9743 15.3656C14.6352 16.021 14.0832 16.5414 13.4091 16.8414C13.1323 16.9646 12.7897 17.0409 12.2449 17.081C11.692 17.1217 10.9896 17.1222 9.99896 17.1222C9.00837 17.1222 8.30591 17.1217 7.75298 17.081C7.20818 17.0409 6.86565 16.9646 6.58882 16.8414C5.91468 16.5414 5.3627 16.021 5.02363 15.3656C4.88439 15.0965 4.78813 14.759 4.71611 14.2175C4.64302 13.6679 4.6013 12.9667 4.54313 11.9778L4.09677 4.38975H6.63286C6.64449 4.39002 6.6561 4.39002 6.66767 4.38975H13.3303ZM12.307 2.88975C12.1221 2.33989 12.0695 2.22447 12.0048 2.14701C11.9242 2.05069 11.8208 1.97614 11.7039 1.93018C11.6037 1.89075 11.4668 1.87814 10.7807 1.87814H9.21718C8.53115 1.87814 8.39426 1.89075 8.29399 1.93018C8.17715 1.97614 8.07371 2.05069 7.99316 2.14701C7.92839 2.22447 7.8758 2.33989 7.69089 2.88975H12.307Z" fill="#FA336F"/>
</svg>
