<svg width="13" height="14" viewBox="0 0 13 14" fill="none" xmlns="http://www.w3.org/2000/svg">
<path fill-rule="evenodd" clip-rule="evenodd" d="M6.49931 0.668636L6.3998 0.668545C5.93109 0.667904 5.52032 0.667341 5.14998 0.799471C4.74917 0.942471 4.39713 1.19621 4.13472 1.53123C3.95473 1.76102 3.83706 2.03508 3.72799 2.34304H2.03424H0.917969C0.503755 2.34304 0.167969 2.67882 0.167969 3.09304C0.167969 3.50725 0.503755 3.84304 0.917969 3.84304H1.32706L1.61424 8.72516L1.615 8.73801C1.62169 8.8519 1.62596 8.92441 1.6315 8.98874C1.83874 11.3959 3.81995 13.264 6.23517 13.3296C6.29973 13.3313 6.37238 13.3313 6.48649 13.3313H6.49931H6.51213C6.62624 13.3313 6.69889 13.3313 6.76345 13.3296C9.17866 13.264 11.1599 11.3959 11.3671 8.98874C11.3727 8.9244 11.3769 8.85187 11.3836 8.73795L11.3844 8.72516L11.6716 3.84304H12.0806C12.4949 3.84304 12.8306 3.50725 12.8306 3.09304C12.8306 2.67882 12.4949 2.34304 12.0806 2.34304H10.9644H9.27062C9.16155 2.03508 9.04389 1.76102 8.8639 1.53123C8.60149 1.19621 8.24945 0.942471 7.84864 0.799471C7.4783 0.667341 7.06753 0.667904 6.59881 0.668545L6.49931 0.668636ZM8.71434 3.84304C8.72591 3.84331 8.73751 3.84331 8.74914 3.84304H10.169L9.88696 8.63708C9.87926 8.76805 9.87621 8.8187 9.87265 8.86008C9.73085 10.5071 8.37528 11.7853 6.72277 11.8301C6.68125 11.8312 6.63051 11.8313 6.49931 11.8313C6.3681 11.8313 6.31737 11.8312 6.27585 11.8301C4.62333 11.7853 3.26776 10.5071 3.12597 8.86008C3.12241 8.8187 3.11936 8.76805 3.11165 8.63708L2.82965 3.84304H4.24948C4.26111 3.84331 4.27271 3.84331 4.28428 3.84304H8.71434ZM7.57339 2.34304C7.50576 2.28654 7.42837 2.24214 7.34459 2.21225C7.25196 2.1792 7.12603 2.16864 6.49931 2.16864C5.87258 2.16864 5.74665 2.1792 5.65402 2.21225C5.57024 2.24214 5.49286 2.28654 5.42523 2.34304H7.57339Z" fill="#FA336F"/>
</svg>
