<svg width="22" height="22" viewBox="0 0 22 22" fill="none" xmlns="http://www.w3.org/2000/svg">
<path fill-rule="evenodd" clip-rule="evenodd" d="M9.47982 0.000213009L9.37102 0.000105124C8.85842 -0.000660319 8.40851 -0.00133212 8.00762 0.156335C7.65709 0.2942 7.34677 0.517864 7.10513 0.806817C6.82878 1.13727 6.68715 1.5643 6.52577 2.05085L6.49147 2.1541L6.20943 3.00021H2.75H0.75C0.335786 3.00021 0 3.336 0 3.75021C0 4.16443 0.335786 4.50021 0.75 4.50021H2.04282L2.64693 14.7701L2.64881 14.802C2.70958 15.8351 2.7578 16.6551 2.84968 17.3154C2.94376 17.9915 3.09057 18.5615 3.38159 19.0789C3.85467 19.9199 4.5727 20.597 5.4401 21.0198C5.97368 21.28 6.55125 21.3931 7.23175 21.4473C7.89635 21.5002 8.7177 21.5002 9.75268 21.5002H9.78459H11.7154H11.7473C12.7823 21.5002 13.6037 21.5002 14.2682 21.4473C14.9487 21.3931 15.5263 21.28 16.0599 21.0198C16.9273 20.597 17.6453 19.9199 18.1184 19.0789C18.4094 18.5615 18.5562 17.9915 18.6503 17.3154C18.7422 16.6551 18.7904 15.8353 18.8512 14.8022L18.8512 14.8021L18.8531 14.7701L19.4572 4.50021H20.75C21.1642 4.50021 21.5 4.16443 21.5 3.75021C21.5 3.336 21.1642 3.00021 20.75 3.00021H18.75H15.2906L15.0085 2.1541L14.9742 2.05084C14.8129 1.5643 14.6712 1.13727 14.3949 0.806817C14.1532 0.517864 13.8429 0.2942 13.4924 0.156335C13.0915 -0.00133212 12.6416 -0.000660319 12.129 0.000105124L12.0202 0.000213009H9.47982ZM14.7325 4.50021C14.7441 4.50048 14.7557 4.50049 14.7673 4.50021H17.9546L17.3557 14.682C17.2926 15.7542 17.2473 16.5145 17.1646 17.1087C17.0832 17.6939 16.9726 18.0563 16.811 18.3435C16.4873 18.919 15.9961 19.3822 15.4026 19.6715C15.1064 19.8159 14.7381 19.9051 14.1491 19.952C13.5511 19.9997 12.7894 20.0002 11.7154 20.0002H9.78459C8.71057 20.0002 7.94893 19.9997 7.35087 19.952C6.76191 19.9051 6.3936 19.8159 6.09742 19.6715C5.50394 19.3822 5.01265 18.919 4.68897 18.3435C4.52743 18.0563 4.41679 17.6939 4.33537 17.1087C4.25269 16.5145 4.20741 15.7542 4.14434 14.682L3.54541 4.50021H6.7327C6.74433 4.50049 6.75594 4.50048 6.76751 4.50021H14.7325ZM13.7094 3.00021L13.5855 2.62844C13.3686 1.97761 13.3133 1.85174 13.2442 1.76908C13.1637 1.67276 13.0602 1.59821 12.9434 1.55225C12.8431 1.51282 12.7062 1.50021 12.0202 1.50021H9.47982C8.79379 1.50021 8.65691 1.51282 8.55663 1.55225C8.43979 1.59821 8.33635 1.67276 8.2558 1.76908C8.18668 1.85174 8.13144 1.97761 7.91449 2.62844L7.79057 3.00021H13.7094Z" fill="#334BFA"/>
</svg>
