<svg width="22" height="22" viewBox="0 0 22 22" fill="none" xmlns="http://www.w3.org/2000/svg">
<path fill-rule="evenodd" clip-rule="evenodd" d="M9.47982 3.03984e-06L9.37102 -0.000104845C8.85842 -0.000870287 8.40851 -0.00154209 8.00762 0.156125C7.65709 0.29399 7.34677 0.517654 7.10513 0.806607C6.82878 1.13706 6.68715 1.5641 6.52577 2.05064L6.49147 2.15389L6.20943 3H2.75H0.75C0.335786 3 0 3.33579 0 3.75C0 4.16422 0.335786 4.5 0.75 4.5H2.04282L2.64693 14.7699L2.64881 14.8017C2.70958 15.8349 2.7578 16.6549 2.84968 17.3152C2.94376 17.9913 3.09057 18.5613 3.38159 19.0787C3.85467 19.9197 4.5727 20.5968 5.4401 21.0196C5.97368 21.2798 6.55125 21.3929 7.23175 21.4471C7.89635 21.5 8.7177 21.5 9.75268 21.5H9.78459H11.7154H11.7473C12.7823 21.5 13.6037 21.5 14.2682 21.4471C14.9487 21.3929 15.5263 21.2798 16.0599 21.0196C16.9273 20.5968 17.6453 19.9197 18.1184 19.0787C18.4094 18.5613 18.5562 17.9913 18.6503 17.3152C18.7422 16.6549 18.7904 15.8351 18.8512 14.802L18.8512 14.8019L18.8531 14.7699L19.4572 4.5H20.75C21.1642 4.5 21.5 4.16422 21.5 3.75C21.5 3.33579 21.1642 3 20.75 3H18.75H15.2906L15.0085 2.15389L14.9742 2.05063C14.8129 1.56409 14.6712 1.13706 14.3949 0.806607C14.1532 0.517654 13.8429 0.29399 13.4924 0.156125C13.0915 -0.00154209 12.6416 -0.000870287 12.129 -0.000104845L12.0202 3.03984e-06H9.47982ZM14.7325 4.5C14.7441 4.50027 14.7557 4.50028 14.7673 4.5H17.9546L17.3557 14.6818C17.2926 15.754 17.2473 16.5142 17.1646 17.1085C17.0832 17.6937 16.9726 18.0561 16.811 18.3433C16.4873 18.9188 15.9961 19.382 15.4026 19.6713C15.1064 19.8157 14.7381 19.9049 14.1491 19.9518C13.5511 19.9995 12.7894 20 11.7154 20H9.78459C8.71057 20 7.94893 19.9995 7.35087 19.9518C6.76191 19.9049 6.3936 19.8157 6.09742 19.6713C5.50394 19.382 5.01265 18.9188 4.68897 18.3433C4.52743 18.0561 4.41679 17.6937 4.33537 17.1085C4.25269 16.5142 4.20741 15.754 4.14434 14.6818L3.54541 4.5H6.7327C6.74433 4.50028 6.75594 4.50027 6.76751 4.5H14.7325ZM13.7094 3L13.5855 2.62823C13.3686 1.9774 13.3133 1.85153 13.2442 1.76887C13.1637 1.67255 13.0602 1.598 12.9434 1.55204C12.8431 1.51261 12.7062 1.5 12.0202 1.5H9.47982C8.79379 1.5 8.65691 1.51261 8.55663 1.55204C8.43979 1.598 8.33635 1.67255 8.2558 1.76887C8.18668 1.85153 8.13144 1.9774 7.91449 2.62823L7.79057 3H13.7094Z" fill="#181818" fill-opacity="0.4"/>
</svg>
