<svg width="23" height="22" viewBox="0 0 23 22" fill="none" xmlns="http://www.w3.org/2000/svg">
<path fill-rule="evenodd" clip-rule="evenodd" d="M10.2298 0.250213L10.121 0.250105C9.60842 0.24934 9.15851 0.248668 8.75762 0.406335C8.40709 0.5442 8.09677 0.767864 7.85513 1.05682C7.57878 1.38727 7.43715 1.8143 7.27577 2.30085L7.24147 2.4041L6.95943 3.25021H3.5H1.5C1.08579 3.25021 0.75 3.586 0.75 4.00021C0.75 4.41443 1.08579 4.75021 1.5 4.75021H2.79282L3.39693 15.0201L3.39881 15.052C3.45958 16.0851 3.5078 16.9051 3.59968 17.5654C3.69376 18.2415 3.84057 18.8115 4.13159 19.3289C4.60467 20.1699 5.3227 20.847 6.1901 21.2698C6.72368 21.53 7.30125 21.6431 7.98175 21.6973C8.64635 21.7502 9.4677 21.7502 10.5027 21.7502H10.5346H12.4654H12.4973C13.5323 21.7502 14.3537 21.7502 15.0182 21.6973C15.6987 21.6431 16.2763 21.53 16.8099 21.2698C17.6773 20.847 18.3953 20.1699 18.8684 19.3289C19.1594 18.8115 19.3062 18.2415 19.4003 17.5654C19.4922 16.9051 19.5404 16.0853 19.6012 15.0522L19.6012 15.0521L19.6031 15.0201L20.2072 4.75021H21.5C21.9142 4.75021 22.25 4.41443 22.25 4.00021C22.25 3.586 21.9142 3.25021 21.5 3.25021H19.5H16.0406L15.7585 2.4041L15.7242 2.30084C15.5629 1.8143 15.4212 1.38727 15.1449 1.05682C14.9032 0.767864 14.5929 0.5442 14.2424 0.406335C13.8415 0.248668 13.3916 0.24934 12.879 0.250105L12.7702 0.250213H10.2298ZM15.4825 4.75021C15.4941 4.75048 15.5057 4.75048 15.5173 4.75021H18.7046L18.1057 14.932C18.0426 16.0042 17.9973 16.7645 17.9146 17.3587C17.8332 17.9439 17.7226 18.3063 17.561 18.5935C17.2373 19.169 16.7461 19.6322 16.1526 19.9215C15.8564 20.0659 15.4881 20.1551 14.8991 20.202C14.3011 20.2497 13.5394 20.2502 12.4654 20.2502H10.5346C9.46057 20.2502 8.69893 20.2497 8.10087 20.202C7.51191 20.1551 7.1436 20.0659 6.84742 19.9215C6.25394 19.6322 5.76265 19.169 5.43897 18.5935C5.27743 18.3063 5.16679 17.9439 5.08537 17.3587C5.00269 16.7645 4.95741 16.0042 4.89434 14.932L4.29541 4.75021H7.4827C7.49433 4.75048 7.50594 4.75048 7.51751 4.75021H15.4825ZM14.4594 3.25021L14.3355 2.87844C14.1186 2.22761 14.0633 2.10174 13.9942 2.01908C13.9137 1.92276 13.8102 1.84821 13.6934 1.80225C13.5931 1.76282 13.4562 1.75021 12.7702 1.75021H10.2298C9.54379 1.75021 9.40691 1.76282 9.30663 1.80225C9.18979 1.84821 9.08635 1.92276 9.0058 2.01908C8.93668 2.10174 8.88144 2.22761 8.66449 2.87844L8.54057 3.25021H14.4594Z" fill="#334BFA"/>
</svg>
