<svg width="21" height="24" viewBox="0 0 21 24" fill="none" xmlns="http://www.w3.org/2000/svg">
<path d="M14.2051 11.6253L10.9088 14.9216C10.8595 14.9741 10.7999 15.016 10.7338 15.0446C10.6677 15.0733 10.5963 15.088 10.5243 15.088C10.4522 15.088 10.3809 15.0733 10.3147 15.0446C10.2486 15.016 10.189 14.9741 10.1397 14.9216L6.84342 11.6253C6.76338 11.5517 6.70861 11.4547 6.68691 11.3482C6.6652 11.2416 6.67768 11.131 6.72256 11.0319C6.76377 10.9316 6.83376 10.8457 6.92371 10.7851C7.01365 10.7245 7.11953 10.6919 7.22799 10.6913H9.42551V4.09876C9.42551 3.80735 9.54127 3.52788 9.74733 3.32182C9.95339 3.11576 10.2329 3 10.5243 3C10.8157 3 11.0952 3.11576 11.3012 3.32182C11.5073 3.52788 11.623 3.80735 11.623 4.09876V10.6913H13.8206C13.929 10.6919 14.0349 10.7245 14.1248 10.7851C14.2148 10.8457 14.2848 10.9316 14.326 11.0319C14.3709 11.131 14.3833 11.2416 14.3616 11.3482C14.3399 11.4547 14.2852 11.5517 14.2051 11.6253Z" fill="#181818" />
<path d="M7.22799 10.5663L7.22736 10.5663C7.09422 10.567 6.96426 10.6071 6.85385 10.6815C6.74406 10.7555 6.65849 10.8601 6.60778 10.9824C6.55279 11.1049 6.53762 11.2415 6.56442 11.3731C6.59119 11.5046 6.65848 11.6243 6.75679 11.7154L10.05 15.0086C10.1107 15.0729 10.1839 15.1242 10.2651 15.1593C10.3469 15.1948 10.4351 15.213 10.5243 15.213C10.6134 15.213 10.7016 15.1948 10.7835 15.1593C10.8646 15.1242 10.9378 15.0729 10.9985 15.0086L14.2917 11.7154C14.3901 11.6243 14.4573 11.5046 14.4841 11.3731C14.5109 11.2415 14.4957 11.1049 14.4408 10.9824C14.3901 10.8601 14.3045 10.7555 14.1947 10.6815C14.0843 10.6071 13.9543 10.567 13.8212 10.5663H13.8206H11.748V4.09876C11.748 3.7742 11.6191 3.46293 11.3896 3.23343C11.1601 3.00393 10.8488 2.875 10.5243 2.875C10.1997 2.875 9.88844 3.00393 9.65894 3.23343C9.42944 3.46293 9.30051 3.7742 9.30051 4.09876V10.5663L7.22799 10.5663Z" stroke="#181818"  stroke-width="0.25"/>
<path d="M14.7919 19.5106H6.25668C6.06804 19.5106 5.88713 19.4357 5.75374 19.3023C5.62035 19.1689 5.54541 18.988 5.54541 18.7993C5.54541 18.6107 5.62035 18.4298 5.75374 18.2964C5.88713 18.163 6.06804 18.088 6.25668 18.088H14.7919C14.9806 18.088 15.1615 18.163 15.2949 18.2964C15.4283 18.4298 15.5032 18.6107 15.5032 18.7993C15.5032 18.988 15.4283 19.1689 15.2949 19.3023C15.1615 19.4357 14.9806 19.5106 14.7919 19.5106Z" fill="#181818" />
<path d="M6.25668 19.6356H14.7919C15.0137 19.6356 15.2264 19.5475 15.3833 19.3907C15.5401 19.2338 15.6282 19.0211 15.6282 18.7993C15.6282 18.5775 15.5401 18.3648 15.3833 18.208C15.2264 18.0511 15.0137 17.963 14.7919 17.963H6.25668C6.03489 17.963 5.82218 18.0511 5.66535 18.208C5.50852 18.3648 5.42041 18.5775 5.42041 18.7993C5.42041 19.0211 5.50852 19.2338 5.66535 19.3907C5.82218 19.5475 6.03489 19.6356 6.25668 19.6356Z" stroke="#181818"  stroke-width="0.25"/>
</svg>
