<svg width="16" height="16" viewBox="0 0 16 16" fill="none" xmlns="http://www.w3.org/2000/svg">
<path d="M14.96 4.22C14.96 4.66176 14.602 5.02 14.16 5.02H1.84004C1.39812 5.02 1.04004 4.66176 1.04004 4.22V3.47328C1.04004 3.03152 1.39812 2.67328 1.84004 2.67328H14.16C14.602 2.67328 14.96 3.03152 14.96 3.47328V4.22Z" fill="#565656"/>
<path d="M12.5599 8.37328C12.5599 8.8152 12.2019 9.17328 11.7599 9.17328H4.23994C3.79802 9.17328 3.43994 8.8152 3.43994 8.37328V7.62672C3.43994 7.1848 3.79802 6.82672 4.23994 6.82672H11.7599C12.2019 6.82672 12.5599 7.1848 12.5599 7.62672V8.37328Z" fill="#565656"/>
<path d="M10.16 12.5267C10.16 12.9685 9.80189 13.3267 9.35997 13.3267H6.63997C6.19805 13.3267 5.83997 12.9685 5.83997 12.5267V11.78C5.83997 11.3383 6.19805 10.98 6.63997 10.98H9.35997C9.80189 10.98 10.16 11.3383 10.16 11.78V12.5267Z" fill="#565656"/>
</svg>
