<svg width="18" height="17" viewBox="0 0 18 17" fill="none" xmlns="http://www.w3.org/2000/svg">
<path fill-rule="evenodd" clip-rule="evenodd" d="M9 1.75C5.27208 1.75 2.25 4.77208 2.25 8.5C2.25 12.2279 5.27208 15.25 9 15.25C12.7279 15.25 15.75 12.2279 15.75 8.5C15.75 4.77208 12.7279 1.75 9 1.75ZM0.75 8.5C0.75 3.94365 4.44365 0.25 9 0.25C13.5563 0.25 17.25 3.94365 17.25 8.5C17.25 13.0563 13.5563 16.75 9 16.75C4.44365 16.75 0.75 13.0563 0.75 8.5ZM9 7C9.41421 7 9.75 7.33579 9.75 7.75V11.5C9.75 11.9142 9.41421 12.25 9 12.25C8.58579 12.25 8.25 11.9142 8.25 11.5V7.75C8.25 7.33579 8.58579 7 9 7ZM9 6.25C9.41421 6.25 9.75 5.91421 9.75 5.5C9.75 5.08579 9.41421 4.75 9 4.75C8.58579 4.75 8.25 5.08579 8.25 5.5C8.25 5.91421 8.58579 6.25 9 6.25Z" fill="#334BFA"/>
</svg>
