<svg width="212" height="159" viewBox="0 0 212 159" fill="none" xmlns="http://www.w3.org/2000/svg">
<path d="M146.139 25.1947C145.94 25.1833 145.839 25.4287 145.99 25.5586L150.046 29.0408V29.0424L153.419 31.9378H153.421L155.673 33.8729C155.888 34.0577 156.204 34.0718 156.435 33.907L166.973 26.3902L146.139 25.1947Z" fill="white"/>
<path d="M146.152 24.9272L166.988 26.1229C166.988 26.1229 167.41 26.3693 167.131 26.6074C163.613 29.1168 160.124 31.6654 156.578 34.1353C156.253 34.3518 155.796 34.328 155.496 34.0762L153.242 32.1402L149.859 29.2347L145.81 25.7592C145.515 25.4954 145.644 24.9081 146.152 24.9272ZM150.224 28.8385L153.599 31.7356C154.353 32.3838 155.087 33.0567 155.862 33.68C155.981 33.7711 156.154 33.7752 156.277 33.6889L166.196 26.614L146.303 25.4725C147.61 26.5946 148.917 27.7166 150.224 28.8385Z" fill="#181818"/>
<path d="M150.065 29.0127V33.1841C150.065 33.2799 150.162 33.3443 150.249 33.3066L153.4 31.9409L150.065 29.0127Z" fill="white"/>
<path d="M150.095 28.7469C150.213 28.7617 150.212 28.7825 150.248 28.8123L153.583 31.7405C153.684 31.8361 153.671 31.8688 153.675 31.924C153.684 32.0369 153.644 32.1314 153.513 32.1943C152.459 32.6511 151.411 33.1244 150.35 33.5648C150.11 33.6555 149.818 33.47 149.805 33.2015C149.784 31.8068 149.805 30.4119 149.805 29.0169C149.807 28.9514 149.814 28.9407 149.826 28.9129C149.869 28.8076 149.978 28.7416 150.095 28.7469ZM150.341 32.9795L152.909 31.8664L150.341 29.6111C150.341 30.7338 150.341 31.8567 150.341 32.9795Z" fill="#181818"/>
<path d="M150.046 29.0425V29.0408L166.972 26.3901" fill="white"/>
<path d="M167.015 26.1251C167.266 26.1846 167.321 26.5818 167.015 26.6545L150.089 29.307C150.089 29.307 149.796 29.3036 149.775 29.0423C149.775 29.0423 149.789 28.827 150.004 28.7758L166.93 26.1251C166.93 26.1251 166.969 26.1216 167.015 26.1251Z" fill="#181818"/>
<path d="M127.278 117.303C127.639 117.653 127.497 117.444 127.086 118.092C126.738 118.644 126.411 119.208 126.107 119.785C126.107 119.785 126.082 119.902 125.843 119.928L125.659 119.833L125.597 119.638L125.626 119.537C125.927 118.967 126.249 118.408 126.593 117.862C126.672 117.735 126.753 117.61 126.835 117.485C126.943 117.319 127.179 117.264 127.179 117.264C127.212 117.277 127.245 117.29 127.278 117.303ZM130.345 113.418L130.494 113.56C130.54 113.767 130.333 113.965 130.17 114.136C129.715 114.62 129.276 115.119 128.856 115.634C128.856 115.634 128.596 115.933 128.359 115.655L128.336 115.452L128.385 115.359C128.904 114.717 129.454 114.1 130.027 113.506L130.24 113.4C130.275 113.406 130.31 113.412 130.345 113.418ZM134.135 110.173L134.259 110.337L134.229 110.54C133.895 110.908 133.424 111.171 133.016 111.502C132.65 111.799 132.14 112.213 132.14 112.213C131.785 112.259 131.797 112.045 131.797 112.045L131.81 111.841C131.985 111.615 132.25 111.435 132.491 111.237C132.91 110.891 133.34 110.557 133.776 110.232L134.035 110.138C134.068 110.15 134.102 110.161 134.135 110.173ZM138.287 107.488C138.5 107.599 138.48 107.717 138.48 107.717L138.421 107.914C138.023 108.241 137.516 108.431 137.056 108.703C136.775 108.869 136.497 109.039 136.221 109.212L135.996 109.261L135.826 109.143C135.8 109.077 135.76 109.008 135.833 108.846L135.909 108.773C136.561 108.362 137.228 107.973 137.906 107.604C137.906 107.604 138.011 107.464 138.287 107.488ZM142.868 105.447C143.064 105.585 143.027 105.7 143.027 105.7C142.973 105.931 142.852 105.942 142.852 105.942C142.077 106.231 141.313 106.546 140.56 106.885C140.56 106.885 140.468 106.963 140.263 106.838C140.263 106.838 140.155 106.782 140.194 106.548C140.194 106.548 140.82 106.178 141.385 105.943C141.674 105.823 141.965 105.706 142.257 105.593C142.343 105.56 142.429 105.528 142.514 105.495C142.626 105.453 142.735 105.416 142.868 105.447ZM147.692 104.067L147.814 104.232C147.838 104.752 146.882 104.724 146.092 104.923C145.726 105.016 145.204 105.164 145.204 105.164L144.998 105.142C144.943 105.096 144.874 105.055 144.859 104.878C144.859 104.878 145.001 104.662 145.311 104.576C146.032 104.375 146.764 104.211 147.487 104.036C147.487 104.036 147.582 104.027 147.692 104.067ZM152.52 102.801C152.703 102.955 152.657 103.066 152.657 103.066C152.583 103.292 152.462 103.292 152.462 103.292C151.764 103.488 151.064 103.677 150.365 103.861C150.224 103.898 150.087 103.943 149.939 103.951L149.76 103.848C149.76 103.848 149.663 103.776 149.741 103.551L149.906 103.427C150.704 103.219 151.501 103.004 152.296 102.782C152.296 102.782 152.403 102.763 152.52 102.801ZM157.293 101.349L157.429 101.504L157.414 101.709L157.257 101.843C156.478 102.098 155.695 102.342 154.911 102.58C154.911 102.58 154.899 102.645 154.66 102.574C154.66 102.574 154.445 102.551 154.548 102.211L154.709 102.081C154.882 102.029 155.054 101.976 155.227 101.923C155.841 101.734 156.454 101.54 157.066 101.341C157.066 101.341 157.174 101.317 157.293 101.349ZM161.984 99.6649L162.129 99.8124L162.125 100.017L161.976 100.16C161.222 100.453 160.464 100.735 159.703 101.008L159.421 101.025L159.281 100.873L159.291 100.668L159.444 100.53C159.608 100.472 159.771 100.413 159.934 100.354C160.471 100.159 161.006 99.9591 161.539 99.7539L161.881 99.6427C161.916 99.6501 161.95 99.6576 161.984 99.6649ZM166.548 97.6776C166.755 97.7977 166.73 97.9148 166.73 97.9148L166.662 98.1086C166.662 98.1086 165.245 98.799 164.364 99.18C163.904 99.3791 163.916 98.9688 163.916 98.9688C163.959 98.735 164.079 98.7184 164.079 98.7184C164.18 98.6747 164.281 98.6307 164.382 98.5868C165.025 98.3051 165.661 98.0147 166.293 97.7128C166.293 97.7128 166.416 97.6596 166.548 97.6776ZM170.897 95.2819L171.066 95.4003L171.101 95.6025C171.001 95.8256 170.759 95.9083 170.553 96.0331C170.008 96.3639 169.454 96.681 168.893 96.9875C168.556 97.1713 168.412 96.8262 168.412 96.8262L168.47 96.6292C169.106 96.1003 169.94 95.785 170.693 95.3164C170.693 95.3164 170.78 95.2787 170.897 95.2819ZM174.952 92.3398L175.092 92.4918C175.127 92.7268 175.018 92.7806 175.018 92.7806C174.411 93.3239 173.779 93.8333 173.118 94.3218C172.867 94.5071 172.763 94.3776 172.763 94.3776C172.763 94.3776 172.645 94.346 172.633 94.1086C172.633 94.1086 173.339 93.4945 173.941 92.9967C174.241 92.7491 174.655 92.3834 174.655 92.3834L174.85 92.3144C174.884 92.3228 174.918 92.3314 174.952 92.3398ZM178.2 88.5921C178.56 88.9198 178.367 88.847 178.129 89.2156C177.729 89.8354 177.278 90.4245 176.795 90.9843C176.795 90.9843 176.768 91.0377 176.605 91.0825L176.408 91.0186L176.314 90.8355C176.314 90.8355 176.853 90.0987 177.287 89.4937C177.541 89.1383 177.827 88.6812 177.827 88.6812C177.827 88.6812 177.896 88.4821 178.2 88.5921ZM179.83 83.9558C180.014 84.1082 179.969 84.2196 179.969 84.2196C179.878 85.0588 179.68 85.8854 179.395 86.6829L179.254 86.8374C179.021 86.8949 178.957 86.7934 178.957 86.7934L178.868 86.608C178.927 86.2226 179.31 85.2254 179.429 84.1759C179.429 84.1759 179.412 84.1214 179.53 83.9822L179.729 83.9246C179.763 83.9349 179.796 83.9453 179.83 83.9558ZM179.219 79.0802L179.357 79.2338C179.633 80.0277 179.833 80.8483 179.943 81.6826L179.889 81.8882C179.707 82.0436 179.603 81.9819 179.603 81.9819C179.388 81.8753 179.406 81.7567 179.406 81.7567C179.398 81.6958 179.39 81.6351 179.381 81.5744C179.273 80.8435 179.093 80.129 178.853 79.4337C178.853 79.4337 178.801 79.416 178.857 79.2036L179.012 79.0677C179.012 79.0677 179.106 79.0507 179.219 79.0802ZM176.751 74.8163C177.367 75.298 177.849 76.1643 178.292 76.9225L178.329 77.1429L178.202 77.3053L177.996 77.3316C177.819 77.2442 177.745 77.0567 177.641 76.8877C177.278 76.3045 176.87 75.7498 176.421 75.2287C176.421 75.2287 176.321 75.1616 176.386 74.9329L176.544 74.8001C176.544 74.8001 176.638 74.7849 176.751 74.8163ZM172.901 71.7133C173.633 72.1132 174.329 72.5785 174.982 73.0989L175.109 73.3026C175.087 73.5391 174.969 73.5658 174.969 73.5658C174.739 73.6359 174.669 73.5382 174.669 73.5382C174.614 73.4937 174.558 73.4496 174.502 73.406C173.918 72.9523 173.297 72.5447 172.648 72.1873C172.648 72.1873 172.59 72.176 172.509 72.0221C172.509 72.0221 172.446 71.9201 172.601 71.7384L172.8 71.6816C172.834 71.6922 172.867 71.7027 172.901 71.7133ZM168.252 69.7958C168.985 70.0684 169.716 70.3458 170.445 70.6271L170.59 70.6832C170.793 70.8113 170.763 70.9275 170.763 70.9275L170.687 71.1185L170.497 71.2005C170.497 71.2005 169.208 70.7255 168.203 70.3503L168.061 70.2974C167.857 70.172 167.886 70.0554 167.886 70.0554L167.959 69.8635C168.058 69.7933 168 69.7548 168.252 69.7958ZM163.541 68.1117C164.321 68.38 165.098 68.6529 165.874 68.9296L166.055 69.0776L166.064 69.2825C165.94 69.4859 165.822 69.459 165.822 69.459C165.822 69.459 164.668 69.0696 163.716 68.7395L163.272 68.5648L163.182 68.3803C163.215 68.1449 163.334 68.1237 163.334 68.1237C163.334 68.1237 163.425 68.0958 163.541 68.1117ZM158.796 66.5313C159.528 66.7676 160.259 67.0073 160.99 67.2493L161.264 67.362C161.264 67.362 161.373 67.4138 161.343 67.6494L161.206 67.8039L161 67.818C160.233 67.5633 159.465 67.3117 158.696 67.0629L158.47 66.9073L158.454 66.7028C158.576 66.4888 158.669 66.5163 158.796 66.5313ZM154.028 65.0256C154.721 65.2408 155.414 65.4571 156.107 65.6747L156.334 65.7459C156.707 65.8638 156.538 66.1994 156.538 66.1994C156.35 66.3475 156.249 66.2818 156.249 66.2818C155.553 66.0621 154.855 65.8444 154.157 65.6273L153.773 65.4868L153.676 65.305C153.702 65.0688 153.821 65.0438 153.821 65.0438C153.821 65.0438 153.911 65.0133 154.028 65.0256ZM149.252 63.5533C149.932 63.7632 150.613 63.9727 151.293 64.182L151.639 64.2886C151.851 64.4021 151.829 64.5201 151.829 64.5201C151.803 64.7564 151.685 64.7816 151.685 64.7816L151.478 64.8002C150.807 64.5935 150.135 64.3871 149.464 64.18L149.09 64.0647C148.879 63.9511 148.901 63.833 148.901 63.833L148.963 63.6372C149.058 63.5617 148.998 63.5265 149.252 63.5533ZM144.49 62.0508C145.266 62.3039 146.042 62.5509 146.82 62.796C146.82 62.796 147.164 62.9306 146.992 63.2389L146.808 63.3332L146.703 63.3216C145.923 63.0766 145.144 62.8274 144.366 62.5745L144.163 62.4257C144.067 62.0838 144.283 62.0658 144.283 62.0658C144.283 62.0658 144.374 62.0367 144.49 62.0508ZM139.783 60.415C139.907 60.462 140.032 60.5085 140.157 60.5549C140.776 60.7833 141.396 61.0046 142.018 61.2211L142.281 61.3949L142.292 61.5998L142.154 61.7527C142.052 61.7786 142.051 61.7786 141.947 61.7641C141.175 61.4971 140.405 61.2209 139.638 60.9339L139.439 60.7749C139.385 60.5433 139.489 60.4813 139.489 60.4813L139.679 60.3975C139.713 60.4034 139.748 60.4091 139.783 60.415ZM135.219 58.463C135.315 58.5105 135.41 58.5575 135.506 58.6041C136.155 58.9188 136.811 59.2131 137.473 59.495L137.618 59.642L137.615 59.847L137.467 59.9901L137.259 59.9873C136.494 59.6618 135.737 59.3192 134.994 58.9509C134.994 58.9509 134.862 58.9656 134.827 58.6823L134.92 58.4992L135.117 58.4351C135.151 58.4444 135.185 58.4537 135.219 58.463ZM130.963 55.802C131.36 56.016 131.687 56.3521 132.066 56.6182C132.372 56.8333 132.685 57.0385 133.003 57.2366L133.178 57.4372C133.18 57.5081 133.194 57.5862 133.071 57.7155C133.071 57.7155 132.895 57.8028 132.656 57.6538C132.521 57.569 132.386 57.4827 132.253 57.395C131.721 57.0457 131.206 56.6709 130.715 56.2685C130.715 56.2685 130.661 56.2433 130.613 56.0815L130.675 55.8859L130.858 55.7909C130.893 55.7947 130.928 55.7984 130.963 55.802ZM128.095 52.2031C128.424 52.8852 128.836 53.5264 129.315 54.1185C129.315 54.1185 129.37 54.1169 129.39 54.3361C129.39 54.3361 129.41 54.4543 129.197 54.5647C129.197 54.5647 129.002 54.5933 128.818 54.3616C128.732 54.2536 128.648 54.1441 128.567 54.033C128.175 53.4988 127.836 52.9268 127.556 52.3262L127.548 52.1199L127.69 51.9702L127.897 51.9634L128.049 52.1032C128.064 52.1366 128.08 52.1699 128.095 52.2031ZM127.248 47.1335L127.418 47.251L127.454 47.453C127.445 47.4927 127.437 47.5323 127.428 47.5722C127.28 48.2995 127.256 49.0455 127.353 49.7841C127.353 49.7841 127.409 49.8041 127.304 50.0152C127.304 50.0152 127.261 50.2289 126.925 50.0661C126.925 50.0661 126.778 49.6298 126.759 49.2268C126.729 48.6065 126.785 47.983 126.916 47.375L127.044 47.1692C127.044 47.1692 127.131 47.131 127.248 47.1335ZM129.738 42.9023C130.247 43.2172 129.893 43.2701 129.591 43.6039C129.135 44.1106 128.719 44.6529 128.366 45.2348C128.366 45.2348 128.371 45.3622 128.086 45.3777L127.908 45.2732L127.856 45.0746L127.891 44.976C128.312 44.2733 128.824 43.6282 129.386 43.0311L129.634 42.885C129.669 42.8907 129.703 42.8966 129.738 42.9023ZM133.607 39.8212C134.185 40.0768 133.767 40.2613 133.519 40.4171C132.885 40.8177 132.266 41.2446 131.67 41.7027C131.67 41.7027 131.634 41.7501 131.465 41.7631L131.284 41.6625C131.284 41.6625 131.148 41.5632 131.26 41.3659C131.354 41.2003 131.571 41.1001 131.75 40.9686C132.23 40.6157 132.724 40.282 133.228 39.9652C133.229 39.9643 133.398 39.8578 133.403 39.8557C133.466 39.8246 133.537 39.8193 133.607 39.8212ZM138.066 37.5285C138.126 37.5662 138.2 37.5978 138.24 37.7711C138.24 37.7711 138.016 38.0492 137.548 38.263C136.985 38.5223 136.427 38.7929 135.876 39.0764C135.876 39.0764 135.876 39.1368 135.637 39.1116L135.478 38.9801C135.478 38.9801 135.395 38.8928 135.51 38.6842L135.592 38.6184C136.313 38.2449 137.047 37.8963 137.789 37.5653L137.961 37.511C137.996 37.5169 138.031 37.5226 138.066 37.5285ZM142.748 35.7417L142.884 35.8958C142.916 36.1314 142.807 36.1834 142.807 36.1834C142.807 36.1834 142.162 36.4215 141.62 36.6146C141.203 36.7632 140.788 36.9173 140.375 37.0759L140.168 37.0715L140.025 36.9232L140.029 36.7183L140.179 36.5765C140.756 36.355 141.337 36.1425 141.921 35.9396C142.026 35.9033 142.13 35.8672 142.235 35.8315C142.241 35.8297 142.534 35.7302 142.541 35.7285C142.609 35.7111 142.68 35.7238 142.748 35.7417Z" fill="#181818"/>
<path d="M65.0677 119.829C65.5034 120.032 65.2958 120.044 65.1983 120.412C65.005 121.139 64.7844 121.863 64.4959 122.56C64.4959 122.56 64.5006 122.615 64.3424 122.719L64.135 122.718L63.9889 122.573C63.9889 122.573 64.0136 122.315 64.0954 122.102C64.3492 121.429 64.5563 120.739 64.7346 120.043C64.7346 120.043 64.7169 119.99 64.8626 119.859C64.8626 119.859 64.9508 119.823 65.0677 119.829ZM65.807 114.901C66.003 115.038 65.9673 115.153 65.9673 115.153C65.949 115.8 65.9021 116.447 65.8278 117.09C65.8128 117.22 65.7966 117.35 65.7794 117.48C65.7624 117.608 65.7536 117.732 65.6481 117.849C65.6481 117.849 65.5366 118.033 65.2685 117.797C65.2685 117.797 65.3191 116.881 65.3751 116.125C65.3986 115.809 65.4147 115.492 65.4244 115.175C65.4244 115.175 65.3702 115.146 65.5102 114.95L65.7039 114.877C65.7384 114.885 65.7727 114.893 65.807 114.901ZM65.3551 109.953C65.52 110.107 65.5404 110.398 65.5937 110.661C65.7229 111.298 65.817 111.941 65.8811 112.589C65.8811 112.589 65.906 112.835 65.6401 112.914L65.4418 112.854C65.4418 112.854 65.2877 112.049 65.175 111.375C65.1114 110.995 65.0353 110.616 64.9475 110.241C64.9475 110.241 64.8896 110.136 65.0541 109.963L65.2561 109.916C65.2891 109.929 65.322 109.941 65.3551 109.953ZM63.4502 105.28C63.6648 105.386 63.7589 105.657 63.8852 105.893C64.1952 106.472 64.4703 107.069 64.7132 107.68C64.7132 107.68 64.7566 107.715 64.7149 107.901L64.5649 108.043C64.5649 108.043 64.3688 108.258 64.096 107.598C63.8192 106.937 63.5013 106.293 63.1431 105.671L63.1173 105.468L63.2444 105.306C63.2444 105.306 63.3335 105.272 63.4502 105.28ZM43.0649 105.921C43.8567 105.968 44.6526 105.913 45.4321 105.756L45.6427 105.792L45.7599 105.961L45.7218 106.163L45.5508 106.279C44.7073 106.455 43.8377 106.509 42.9726 106.452L42.7746 106.359L42.7092 106.165C42.8044 105.823 42.999 105.917 42.999 105.917C43.021 105.919 43.0429 105.92 43.0649 105.921ZM38.4385 104.148C38.6307 104.262 38.8283 104.454 39.0198 104.588C39.5088 104.932 40.0487 105.203 40.6102 105.411C40.6102 105.411 40.731 105.421 40.7861 105.652L40.7135 105.844C40.7135 105.844 40.5556 105.966 40.2976 105.866C39.5216 105.565 38.7925 105.149 38.1717 104.604L38.0772 104.415L38.1465 104.221C38.2443 104.149 38.1857 104.112 38.4385 104.148ZM50.0108 103.454C50.2078 103.591 50.1729 103.705 50.1729 103.705L50.0894 103.893C49.4631 104.487 48.7595 104.997 47.9927 105.404C47.9927 105.404 47.9409 105.44 47.785 105.424L47.6253 105.293C47.6253 105.293 47.4473 105.165 47.7382 104.931C47.7382 104.931 48.8789 104.299 49.7144 103.506L49.9075 103.432C49.942 103.439 49.9763 103.447 50.0108 103.454ZM60.3803 101.358C61.0373 101.781 61.6179 102.592 62.1734 103.289L62.2373 103.498C62.1618 103.724 62.0404 103.724 62.0404 103.724L61.8347 103.698C61.4915 103.405 61.2575 103.021 60.9555 102.688C60.6771 102.382 60.3881 102.086 60.0904 101.798C60.0904 101.798 59.984 101.74 60.0281 101.507C60.0281 101.507 60.0626 101.299 60.3803 101.358ZM36.9753 99.5931L37.106 99.7523C37.1756 100.482 37.0963 101.366 37.3 102.252C37.3 102.252 37.3577 102.357 37.1924 102.53C37.1924 102.53 36.8566 102.747 36.7574 102.309C36.5782 101.518 36.4942 100.699 36.5674 99.8964C36.5975 99.566 36.769 99.5722 36.769 99.5722C36.769 99.5722 36.8633 99.559 36.9753 99.5931ZM52.7086 99.2736C53.1055 99.5224 52.9203 99.4881 52.7675 99.8604C52.7051 100.012 52.6401 100.163 52.5724 100.313C52.3289 100.852 52.0494 101.375 51.7327 101.877L51.5474 102.021L51.3429 101.986L51.223 101.819C51.2177 101.631 51.3519 101.469 51.4567 101.293C51.803 100.705 52.0975 100.088 52.3473 99.4547L52.5012 99.2786C52.5012 99.2786 52.5931 99.2538 52.7086 99.2736ZM56.4208 98.335C57.1253 98.7622 57.8065 99.2177 58.4686 99.7148C58.6048 99.8169 58.6895 99.9179 58.5811 100.137L58.4017 100.24C58.4017 100.24 57.6924 99.8011 57.1235 99.4197C56.8 99.2025 56.4707 98.9939 56.1374 98.7917L56.0156 98.6258C56.0156 98.6258 55.8901 98.4511 56.216 98.3027C56.216 98.3027 56.311 98.2948 56.4208 98.335ZM39.6112 95.569C39.8267 95.674 39.8097 95.7928 39.8097 95.7928C39.785 96.1668 39.734 96.0196 39.4696 96.1841C38.8628 96.5669 38.3266 97.0506 37.9191 97.6366L37.7388 97.7606C37.4984 97.7593 37.4612 97.6452 37.4612 97.6452C37.3703 97.4253 37.4626 97.3476 37.4626 97.3476C37.9563 96.6242 38.6397 96.0394 39.404 95.5968C39.404 95.5968 39.4936 95.5615 39.6112 95.569ZM53.8622 94.4262C54.0471 94.5778 54.0027 94.6895 54.0027 94.6895C53.9263 95.4207 53.817 96.1495 53.6671 96.8696C53.7429 96.9048 53.8177 96.9406 53.8932 96.9765C54.4605 97.2485 54.3649 97.2647 54.3073 97.4764L54.1512 97.6112L53.4572 97.3642L53.2749 97.3912L53.1051 97.2735L53.0709 97.1863C52.6148 96.9806 52.1538 96.785 51.6888 96.5976L51.5075 96.4406C51.4341 96.0936 51.6507 96.0893 51.6507 96.0893L51.8581 96.0873C52.2964 96.262 52.7308 96.446 53.1615 96.6383C53.2922 95.9837 53.3903 95.3195 53.4617 94.6529L53.5623 94.4539L53.7612 94.3955C53.7948 94.4057 53.8284 94.416 53.8622 94.4262ZM46.9838 94.6314C47.8196 94.7665 48.6448 94.964 49.4525 95.2187C49.4525 95.2187 49.5742 95.1857 49.6521 95.4559L49.5883 95.6511L49.4039 95.7447C49.4039 95.7447 48.6027 95.512 47.9101 95.3557C47.5747 95.28 47.2369 95.2153 46.8973 95.1605C46.8973 95.1605 46.7802 95.2109 46.6617 94.9556L46.6946 94.7532L46.8626 94.6329C46.8626 94.6329 46.9489 94.6259 46.9838 94.6314ZM44.5106 94.4473L44.6575 94.5923V94.7974L44.511 94.9424C44.0274 95.0376 43.4893 94.9794 42.9676 95.0374C42.6305 95.0749 42.2959 95.1301 41.9648 95.2016L41.7502 95.1685C41.5764 95.0044 41.6286 94.8961 41.6286 94.8961C41.7155 94.6747 41.8367 94.6809 41.8367 94.6809C42.6764 94.4957 43.5398 94.4301 44.404 94.4269C44.404 94.4269 44.4674 94.4389 44.5106 94.4473ZM53.9052 89.4138C54.168 89.5667 54.088 89.6722 54.0936 89.7719C54.1015 89.9142 54.1087 90.0566 54.1153 90.1989C54.1436 90.8343 54.155 91.47 54.1483 92.1058L54.0658 92.358L53.8732 92.4341L53.6826 92.3532L53.6057 92.1628C53.616 91.3389 53.5937 90.5099 53.5455 89.6822C53.5455 89.6822 53.5063 89.5688 53.6981 89.4256C53.6981 89.4256 53.7894 89.3979 53.9052 89.4138ZM53.293 84.4404C53.5121 84.5381 53.4993 84.6575 53.4993 84.6575C53.6346 85.4594 53.7536 86.2644 53.8515 87.0707C53.8633 87.167 53.9174 87.2468 53.7236 87.4102L53.5177 87.4344C53.5177 87.4344 53.3396 87.3463 53.2944 86.9789C53.2003 86.2318 53.0897 85.4871 52.9647 84.7457L53.0113 84.5458L53.1873 84.4372C53.2225 84.4383 53.2577 84.4394 53.293 84.4404ZM52.3332 79.5786C52.5352 79.7602 52.5393 80.0742 52.6098 80.3655C52.7427 80.9151 52.8692 81.466 52.9889 82.0197C53.0794 82.4385 53.069 82.3605 52.9136 82.4659C52.6047 82.6757 52.5368 82.3967 52.5368 82.3967C52.5368 82.3967 52.3457 81.5983 52.1713 80.8607C52.0749 80.4522 51.9305 79.8729 51.9305 79.8729L51.9613 79.67L52.128 79.5482C52.128 79.5482 52.223 79.5395 52.3332 79.5786ZM50.952 74.7564L51.0851 74.9137C51.3315 75.6919 51.5646 76.4757 51.7898 77.2612C51.7898 77.2612 51.8628 77.2762 51.7815 77.5224L51.6186 77.6492C51.6186 77.6492 51.5149 77.7113 51.3323 77.5568C51.3323 77.5568 50.92 76.1931 50.5699 75.0804L50.5864 74.8696C50.7988 74.609 50.8355 74.7226 50.952 74.7564ZM49.1528 70.0629C49.2411 70.1188 49.2422 70.1199 49.3022 70.2051C49.3546 70.3233 49.4064 70.4418 49.4579 70.5605C49.7355 71.2028 49.9989 71.851 50.2477 72.5044L50.2522 72.74L50.1004 72.8798C49.8633 72.9182 49.8074 72.8118 49.8074 72.8118C49.8074 72.8118 49.5043 72.0712 49.2496 71.4559C49.1129 71.1255 48.972 70.797 48.8278 70.4698L48.8016 70.2149C48.9841 69.9329 49.033 70.0418 49.1528 70.0629ZM46.8552 65.5874C47.1001 65.7085 47.2 66.0282 47.3521 66.3009C47.6287 66.7968 47.8959 67.2974 48.1551 67.8022C48.1551 67.8022 48.2003 67.8586 48.2483 68.0301L48.1831 68.2248L47.9979 68.317C47.9979 68.317 47.8838 68.3577 47.736 68.1703C47.3632 67.438 46.9721 66.7184 46.5644 66.0062C46.5644 66.0062 46.4339 65.9505 46.5696 65.6817L46.7497 65.5801C46.7849 65.5826 46.8201 65.5851 46.8552 65.5874ZM44.2102 61.4035C44.849 62.0006 45.4068 62.8039 45.7444 63.6578L45.7 63.8582L45.5253 63.9686C45.5253 63.9686 45.4191 63.9911 45.3226 63.9247C45.1602 63.8125 45.0618 63.5598 44.9178 63.3417C44.5784 62.8307 44.2304 62.3255 43.8744 61.8261L43.7989 61.5855L43.9093 61.4119C44.0203 61.3626 43.9716 61.3135 44.2102 61.4035ZM41.0701 57.4551C41.2982 57.6309 41.4558 57.8677 41.64 58.0847C42.023 58.5364 42.3978 58.9947 42.7661 59.4583C42.7661 59.4583 42.8117 59.5004 42.8236 59.6585C42.8236 59.6585 42.8416 59.7771 42.627 59.8841L42.4211 59.8591C42.4211 59.8591 41.8868 59.2173 41.412 58.6511C41.1953 58.3926 40.9756 58.1367 40.7543 57.882C40.7543 57.882 40.7017 57.8614 40.6783 57.675C40.6783 57.675 40.6345 57.3363 41.0701 57.4551ZM37.5676 53.8173C37.8308 53.9832 38.0389 54.2379 38.2701 54.4644C38.6643 54.8504 39.0516 55.2428 39.434 55.64L39.5232 55.8474L39.4385 56.0346L39.2449 56.1078L39.0555 56.0242C38.9869 55.9526 38.9181 55.8815 38.8491 55.8102C38.3463 55.293 37.834 54.7859 37.3122 54.289L37.1985 54.0727C37.2403 53.8387 37.3604 53.8217 37.3604 53.8217C37.3604 53.8217 37.4523 53.7971 37.5676 53.8173ZM33.7226 50.5327C33.9773 50.6594 34.1906 50.8698 34.4211 51.0536C34.8722 51.4137 35.3162 51.7821 35.7546 52.1572C35.7546 52.1572 35.8097 52.1356 35.8722 52.3623C35.8722 52.3623 35.9129 52.4753 35.7228 52.6207C35.7228 52.6207 35.5556 52.6958 35.3995 52.562C35.3365 52.508 35.273 52.4541 35.2098 52.4001C34.6592 51.934 34.0965 51.4772 33.5237 51.033C33.5237 51.033 33.461 51.0614 33.3815 50.8239C33.3815 50.8239 33.3347 50.7133 33.5167 50.5579C33.5167 50.5579 33.6057 50.5243 33.7226 50.5327ZM29.6171 47.7351C30.3482 48.1566 31.0595 48.6112 31.7572 49.0844C31.7572 49.0844 31.8137 49.1006 31.8788 49.2628C31.8788 49.2628 31.9945 49.4437 31.6613 49.5747L31.4584 49.5316C30.773 49.064 30.0689 48.6189 29.3481 48.2004C29.3481 48.2004 29.2901 48.1797 29.2186 48.0348C29.2186 48.0348 29.1574 47.9314 29.3167 47.7533L29.5172 47.7012C29.5504 47.7124 29.5839 47.7239 29.6171 47.7351Z" fill="#181818"/>
<path d="M146.249 34.6406C146.498 34.6575 146.6 35.0873 146.299 35.1685C145.629 35.3344 144.867 35.7389 144.753 35.3097C144.647 34.9086 145.5 34.7997 146.182 34.6457C146.202 34.6421 146.203 34.6393 146.249 34.6406Z" fill="#DCD6E3"/>
<path d="M124.839 121.637C125.304 121.667 124.875 122.677 124.628 123.212C124.496 123.47 124.007 123.375 124.187 122.855C124.266 122.629 124.348 122.403 124.433 122.178C124.531 121.921 124.606 121.632 124.839 121.637Z" fill="#DCD6E3"/>
<path d="M79.5495 59.0399C79.8179 59.0787 79.9522 59.3704 79.4565 59.6521C76.87 61.1306 74.5383 63.0377 72.4704 65.1833C72.4704 65.1833 72.2709 65.3241 72.1203 65.2189C71.7461 64.9572 72.5632 64.3082 73.1697 63.7278C75.0256 61.9514 77.0827 60.3761 79.3252 59.1105C79.3252 59.1105 79.4249 59.0344 79.5495 59.0399Z" fill="#3B1B6A"/>
<path d="M131.18 94.8162C131.404 94.8475 131.473 95.075 131.303 95.3656C129.776 97.9459 127.495 100.779 124.817 100.243C124.441 100.168 124.404 99.6056 124.898 99.7122C126.406 100.022 127.848 98.8447 128.797 97.8494C129.009 97.6272 129.212 97.3967 129.407 97.1596C129.975 96.4684 130.472 95.7223 130.92 94.9498C130.92 94.9498 131.005 94.8085 131.18 94.8162Z" fill="#3B1B6A"/>
<path fill-rule="evenodd" clip-rule="evenodd" d="M125.565 80.5883C125.565 80.5883 125.106 80.726 124.297 81.0598C123.723 81.2974 122.975 81.6332 122.088 82.0868V82.0886C122.03 82.119 121.97 82.1493 121.911 82.1797C121.772 82.2513 121.629 82.3262 121.485 82.4048C121.326 82.4905 121.161 82.5798 120.995 82.6727C120.834 82.762 120.67 82.8549 120.504 82.9513C119.42 83.5747 118.408 84.2427 117.563 84.8412C117.552 84.8482 117.543 84.8553 117.532 84.8625C117.023 85.2197 116.575 85.5502 116.208 85.8306C116.033 85.9628 115.876 86.0844 115.74 86.1914C115.348 86.4986 115.126 86.6844 115.126 86.6844C114.25 84.9234 113.15 82.4851 113.074 82.3619C113.076 82.3708 113.058 82.9013 113.067 82.9245L111.896 106.085H81.2697L81.2245 105.214L80.0359 82.4923C80.0359 82.4923 79.3711 84.3231 78.1428 86.8308C78.1373 86.8272 78.1337 86.8219 78.1283 86.8183C77.982 86.6986 77.8086 86.5647 77.6099 86.4182C77.4906 86.3325 77.366 86.2414 77.2323 86.1467C77.198 86.1199 77.1601 86.0949 77.1239 86.0681C77.0733 86.0342 77.0228 85.9985 76.974 85.9628C76.4628 85.6037 75.8667 85.2019 75.2218 84.791C74.6256 84.4124 73.9898 84.0303 73.3395 83.6693C73.0468 83.5086 72.7524 83.3514 72.4561 83.2014C72.382 83.1639 72.308 83.1264 72.2357 83.0906C72.0153 82.9817 71.795 82.8765 71.5746 82.7781C71.5457 82.7638 71.5168 82.7513 71.4879 82.7388C71.459 82.7245 71.43 82.712 71.4011 82.6995C71.2115 82.6155 70.9315 82.4959 70.6081 82.3565C70.236 82.1976 69.8097 82.0136 69.4014 81.8403C69.3256 81.8082 69.2497 81.776 69.1756 81.7439C68.4115 81.417 67.7666 81.1437 67.7666 81.1437C67.7666 81.1437 67.828 81.0294 67.9436 80.8205C68.1586 80.4311 68.5614 79.7077 69.1088 78.7646C69.1973 78.611 69.2894 78.452 69.3852 78.2877C69.7428 77.6804 70.1493 76.9981 70.5955 76.2658C70.8448 75.855 71.1085 75.4281 71.3831 74.9887C73.428 71.7272 76.0762 67.8442 78.6197 65.1524C81.4088 62.1982 84.7182 61.2533 87.473 61.0926C88.8676 61.0104 90.1212 61.1301 91.0895 61.2908C92.1083 61.4587 93.1344 61.5802 94.1622 61.6605C95.1901 61.7391 96.2234 61.7766 97.2566 61.7766C98.6584 61.7766 100.058 61.6945 101.451 61.5284C102.372 61.4176 103.632 61.3212 105.057 61.3551C105.189 61.3587 105.321 61.3623 105.456 61.3676C108.735 61.498 112.776 62.35 115.601 65.2828C118.493 68.2853 121.083 72.3292 122.897 75.5049C124.555 78.4092 125.565 80.5883 125.565 80.5883Z" fill="#FA7F33"/>
<path d="M88.4298 60.6196C89.0587 60.6227 89.6877 60.6593 90.3125 60.7311C94.0358 61.159 97.7391 61.5039 101.577 61.0644C106.829 60.4825 112.445 61.2807 116.134 65.1912C120.28 69.5862 123.425 74.9814 125.963 80.3756L126.017 80.5854L125.978 80.7698L125.866 80.9219L125.7 81.0148C125.674 81.0227 125.648 81.0311 125.622 81.0393C124.474 81.4174 123.379 81.9311 122.305 82.4786C122.305 82.4786 121.63 82.8281 121.037 83.1628C119.044 84.2856 117.148 85.5922 115.416 87.027C115.416 87.027 114.955 87.3537 114.679 86.798C114.318 86.0694 113.968 85.3301 113.621 84.5916L113.542 84.4224L113.453 84.2313L112.347 106.108C112.293 106.327 112.156 106.483 111.896 106.532H81.2699C81.0462 106.49 80.882 106.362 80.8188 106.108L80.7736 105.237L79.6912 84.5451C79.3644 85.3025 79.0228 86.0492 78.6637 86.7908C78.6623 86.7937 78.5512 87.0229 78.5495 87.0252C78.5136 87.0793 78.4684 87.1266 78.4278 87.1775L78.2522 87.2644L78.0558 87.2692L77.8604 87.1799C77.5732 86.9371 77.2661 86.7244 76.9624 86.5049C75.2817 85.2896 73.3728 84.0936 71.3816 83.182C70.1274 82.6079 68.9238 82.1213 67.7014 81.6021L67.4369 81.4489L67.3406 81.2919L67.3164 81.11C67.3164 81.11 67.5917 80.5233 67.8675 80.0312C68.2138 79.4137 68.5672 78.8002 68.9227 78.1877L68.9946 78.0641C71.6607 73.5447 74.4538 69.027 77.9867 65.1736C80.5659 62.3604 84.2546 60.68 88.173 60.6211C88.2586 60.6196 88.3442 60.6196 88.4298 60.6196ZM112.623 82.383L112.733 82.069C112.951 81.9002 113.187 81.819 113.466 82.141C113.522 82.2374 113.528 82.2614 113.556 82.3205C114.137 83.5376 114.692 84.767 115.282 85.9801C115.282 85.9801 115.955 85.4514 116.548 85.0169C118.225 83.7878 119.997 82.6636 121.835 81.7162C121.835 81.7162 122.818 81.2152 123.589 80.8762C124.034 80.6803 124.485 80.496 124.942 80.329C122.381 75.0402 119.415 69.9786 115.474 65.8005C111.895 62.0066 105.88 61.5111 100.976 62.031C97.6017 62.3758 94.207 62.228 90.8351 61.7026C86.7683 61.0803 82.4095 62.0843 79.3648 65.0367C76.8687 67.4575 74.9002 70.3978 72.9716 73.3434C71.3601 75.8045 69.8442 78.329 68.429 80.8739L68.3997 80.927C68.8963 81.1383 69.3927 81.3503 69.8891 81.5621C72.4198 82.6456 74.88 83.9541 77.1378 85.5304C77.455 85.7518 77.8785 86.0594 77.8785 86.0594L77.9793 86.1343C78.5696 84.8974 79.1272 83.6428 79.6041 82.3605C79.6041 82.3605 79.7611 82.0585 80.0144 82.0465C80.1882 82.0383 80.3681 82.0036 80.4871 82.4695L81.6758 105.191L81.6989 105.639H111.467L112.614 82.9337C112.602 82.7013 112.621 82.3384 112.623 82.383Z" fill="#3B1B6A"/>
<g style="mix-blend-mode:overlay">
<path d="M124.065 78.588L124.942 80.3266C124.942 80.3266 124.125 80.6117 122.591 81.3611C122.591 81.3611 121.861 79.8174 120.631 77.2636C119.401 74.7099 115.435 67.5654 111.469 64.829C107.517 62.1036 102.598 61.8497 102.598 61.8497C102.598 61.8497 105.138 61.5759 108.215 62.1232C111.291 62.6705 113.99 64.0158 115.904 66.2504C117.818 68.4851 119.522 70.6484 122.659 76.0018L124.04 78.5387L124.065 78.588Z" fill="black" fill-opacity="0.25"/>
</g>
<g style="mix-blend-mode:overlay">
<path d="M107.767 105.652L111.476 105.621L111.715 100.749L112.137 92.4875L112.63 82.4623L111.653 80.144C111.653 80.144 109.796 92.2901 109.335 95.779C108.888 99.1587 107.767 105.652 107.767 105.652Z" fill="black" fill-opacity="0.25"/>
</g>
<path fill-rule="evenodd" clip-rule="evenodd" d="M100.355 66.132C98.0901 66.8023 95.5488 66.7078 92.8423 66.0848C88.7796 65.1524 87.4649 62.3768 87.4737 61.0926C88.8685 61.0104 90.122 61.1301 91.0902 61.2908C92.109 61.4587 93.1353 61.5802 94.1631 61.6605C95.191 61.7391 96.2241 61.7766 97.2574 61.7766C98.6592 61.7766 100.059 61.6945 101.452 61.5284C102.373 61.4176 103.632 61.3212 105.058 61.3551C105.189 61.3587 105.321 61.3623 105.457 61.3676C105.318 62.4304 104.351 63.9359 103.323 64.6772C103.195 64.7693 103.066 64.8579 102.936 64.9428" fill="#FFCE93"/>
<path d="M88.4307 60.6196C89.06 60.6227 89.6887 60.6593 90.3131 60.7311C94.036 61.1592 97.7401 61.5041 101.578 61.0644C102.86 60.9224 104.142 60.8743 105.423 60.9197C105.423 60.9197 105.598 60.916 105.724 61.0079C106.156 61.3219 105.792 62.1314 105.408 62.8637C104.907 63.8154 104.182 64.6495 103.286 65.2484C103.02 65.4269 102.7 65.432 102.545 65.1659C102.312 64.7665 102.952 64.4254 103.312 64.1137C104.018 63.5025 104.57 62.7078 104.879 61.8312C104.879 61.8312 104.736 61.7963 104.658 61.7956C103.92 61.791 103.182 61.818 102.446 61.8776C98.7221 62.1795 95.0077 62.3667 91.2097 61.7629C90.1488 61.5942 89.0745 61.4927 88.0014 61.5175L87.9715 61.5182C88.4292 63.715 90.8157 65.1859 93.1931 65.7059C95.4848 66.207 97.8826 66.3648 100.124 65.7339L100.282 65.6916C100.532 65.6669 100.595 65.728 100.692 65.8352C100.919 66.0874 100.76 66.4835 100.318 66.6079C97.5718 67.3654 94.576 67.1178 91.9778 66.3156C89.6903 65.6096 87.5161 63.9656 87.0764 61.6456C87.0511 61.5122 87.0334 61.3771 87.026 61.2416C87.0079 60.9124 87.1427 60.6609 87.6479 60.6364C87.909 60.625 88.1702 60.6195 88.4307 60.6196Z" fill="#3B1B6A"/>
<path d="M124.568 79.5813C124.568 79.5813 117.279 81.5414 114.774 84.9233L114.276 83.8589L114.209 83.7203L113.756 82.7402C116.743 79.2153 123.599 77.71 123.599 77.71L123.847 78.1756L124.195 78.8368L124.568 79.5813Z" fill="white" fill-opacity="0.3"/>
<path d="M69.5099 78.9664L70.0153 78.1074C70.0153 78.1074 76.3767 79.4593 79.3634 82.9841L78.9104 84.0731L78.8934 84.1167L78.3959 85.2308C75.8909 81.849 68.9219 80 68.9219 80L69.4541 79.0653L69.5099 78.9664Z" fill="white" fill-opacity="0.3"/>
<path d="M111.892 79.0757C112.066 79.086 112.221 79.1935 112.292 79.3547L113.483 82.2122C113.65 82.6419 112.922 83.1462 112.658 82.5556L111.468 79.6982C111.435 79.6121 111.433 79.5801 111.433 79.5227C111.433 79.2781 111.564 79.073 111.892 79.0757Z" fill="#3B1B6A"/>
<path d="M81.1334 79.328C81.3354 79.3461 81.3569 79.3963 81.4163 79.455C81.542 79.5793 81.589 79.7426 81.5179 79.9398L80.3808 82.8644C80.199 83.2994 79.3536 83.0818 79.5484 82.5408L80.6856 79.6161C80.762 79.4334 80.89 79.3186 81.1334 79.328Z" fill="#3B1B6A"/>
<path fill-rule="evenodd" clip-rule="evenodd" d="M75.5729 45.4242C75.5695 45.4642 75.566 45.5041 75.5624 45.5437C75.1811 49.7606 77.6297 53.7015 81.5007 55.0433C81.882 55.1755 82.2805 55.3091 82.6971 55.4437C84.4 55.9941 86.269 56.5524 88.3438 56.8757C90.9352 57.2836 93.8022 57.4632 96.8543 57.4632C99.8131 57.4632 102.596 57.2938 105.122 56.913C107.194 56.6015 109.092 56.148 110.771 55.5284C117.764 52.9505 120.966 47.5067 117.12 37.5198C116.988 37.1762 116.851 36.8393 116.71 36.511C115.763 34.2951 114.7 32.4333 113.574 30.8725C111.312 27.7377 108.791 25.8097 106.405 24.635C102.948 22.9355 99.7766 22.8204 98.0944 22.9237C97.2535 22.9746 96.4171 22.9746 95.5761 22.9237C93.8654 22.8187 90.6057 22.9423 87.0752 24.7314C84.6914 25.9417 82.1808 27.9138 79.9396 31.0926C79.9396 31.0926 76.3885 35.6623 75.5729 45.4242Z" fill="#33FAE3"/>
<path d="M99.0386 22.4502C104.103 22.4706 108.988 24.8883 112.395 28.6877C116.14 32.865 118.576 38.3906 119.126 43.4864C119.433 46.3335 118.931 49.3653 117.162 51.6864C115.006 54.5164 111.447 56.013 107.931 56.8346C103.491 57.8722 98.8812 58.0288 94.3088 57.8659C90.0738 57.7148 85.9078 57.0057 81.7911 55.6154C77.5429 54.1804 74.7225 49.9537 75.1179 45.4457C75.5528 40.4877 76.5405 35.4619 79.2773 31.2593C82.7857 25.8712 88.9168 22.1662 95.4338 22.4688C96.5945 22.5297 97.7564 22.4568 98.9363 22.4502C98.9703 22.4502 99.0044 22.4502 99.0386 22.4502ZM98.94 23.3432C97.6868 23.3502 96.4599 23.3977 95.1772 23.3518C89.3111 23.1602 83.7372 26.5063 80.3051 31.3552C79.3705 32.5826 78.7261 34.0824 78.1575 35.5746C76.9439 38.7585 76.3107 42.1284 76.0177 45.5228C75.6754 49.3675 77.839 53.2891 81.6506 54.6221C87.8627 56.766 94.8083 57.3749 101.759 56.8402C105.225 56.5735 108.713 56.0233 111.849 54.6052C114.776 53.2811 117.346 50.9277 118.07 47.5763C119.091 42.8524 117.094 37.8642 115.007 34.0126C112.894 30.1131 109.785 26.5983 105.577 24.7425C103.494 23.8239 101.223 23.3379 98.94 23.3432Z" fill="#3B1B6A"/>
<path d="M82.5608 46.1146C82.9024 46.1665 82.6945 46.715 82.5927 47.1556C82.2207 48.7645 82.5824 50.5019 83.5558 51.8746C83.5558 51.8746 83.6701 52.3539 83.3007 52.3001C83.066 52.2659 82.8992 51.8752 82.7406 51.6015C81.84 50.0472 81.689 48.1209 82.2537 46.3751C82.2537 46.3751 82.3386 46.101 82.5608 46.1146Z" fill="#3B1B6A"/>
<path d="M95.598 20.66C95.8912 20.6904 96.1121 20.9905 96.3445 21.2493C96.6322 21.5701 96.8557 21.9468 96.9935 22.3542C96.9935 22.3542 97.7112 21.8273 97.9159 21.2682C97.9159 21.2682 97.9798 21.1371 98.0906 21.1034C98.3165 21.0344 98.5608 21.2584 98.3353 21.6346C98.0049 22.1858 97.5071 22.636 97.022 23.0908C97.022 23.0908 96.6302 23.2608 96.5498 22.7979C96.4261 22.129 95.9743 21.5428 95.419 21.1441C95.419 21.1441 95.3249 21.0691 95.3099 20.9651C95.2868 20.8047 95.387 20.6511 95.598 20.66Z" fill="#3B1B6A"/>
<path d="M84.388 37.6183C84.8778 37.6488 85.0557 38.4239 84.1518 38.5552C83.29 38.6801 82.4109 38.693 81.5377 38.6632C81.5377 38.6632 81.2118 38.6016 81.1278 38.3658C81.0105 38.0363 81.3276 37.7656 81.8171 37.7779C82.6395 37.7953 83.4735 37.7985 84.2762 37.6281C84.2762 37.6281 84.2762 37.6171 84.388 37.6183Z" fill="#3B1B6A"/>
<path d="M108.675 37.6354C108.675 37.6354 108.811 37.6565 108.93 37.6748C109.751 37.7991 110.579 37.8784 111.409 37.9102C111.409 37.9102 111.84 38.0245 111.844 38.3518C111.847 38.5856 111.643 38.7946 111.398 38.8029C111.353 38.8023 111.353 38.8017 111.306 38.8C110.392 38.7618 109.48 38.674 108.581 38.5234C108.581 38.5234 108.275 38.4425 108.207 38.1994C108.13 37.9238 108.318 37.6178 108.675 37.6354Z" fill="#3B1B6A"/>
<path d="M104.438 26.2628C104.926 26.3009 105.924 26.9301 106.728 27.5539C106.728 27.5539 106.862 27.693 106.822 27.8366C106.708 28.2394 106.004 27.6494 105.362 27.2818C105.028 27.0902 104.68 26.9228 104.322 26.7785C104.322 26.7785 104.145 26.6742 104.154 26.5168C104.161 26.3734 104.235 26.2582 104.438 26.2628Z" fill="#3B1B6A"/>
<g style="mix-blend-mode:overlay">
<path d="M107.495 56.073C107.495 56.073 107.57 56.0533 107.698 56.0178C108.26 55.8631 109.947 55.4525 110.951 55.0272C112.185 54.5042 115.425 53.1677 117.033 50.3531C118.896 47.0928 118.253 43.6965 118.253 43.6965C118.253 43.6965 118.032 39.3676 114.741 33.5062C110.999 26.8405 106.367 25.1753 106.367 25.1753C106.367 25.1753 113.914 30.8588 115.744 43.1083C116.169 45.9533 115.116 49.6334 113.302 51.8811C111.981 53.5174 110.354 54.5705 107.698 56.0178" fill="black" fill-opacity="0.25"/>
</g>
<path d="M101.209 31.4693C101.433 31.5015 101.39 31.5538 101.511 31.7803C103.023 34.5407 105.867 36.5675 108.749 37.8722C108.749 37.8722 109.001 38.0819 108.859 38.2774C108.749 38.4282 108.525 38.36 108.33 38.2704C105.458 36.9344 102.79 34.9931 101.174 32.2715C101.074 32.1036 100.944 31.8504 100.944 31.8504C100.871 31.673 101 31.4613 101.209 31.4693Z" fill="#3B1B6A"/>
<path d="M110.509 46.1144C110.81 46.1511 110.859 46.6344 110.951 47.0313C111.35 48.7576 110.982 50.6296 109.97 52.0928C109.82 52.3094 109.449 52.3991 109.417 52.0591C109.397 51.8457 109.673 51.5811 109.819 51.3294C110.657 49.8837 110.774 48.0847 110.234 46.4722C110.234 46.4722 110.233 46.1061 110.509 46.1144Z" fill="#3B1B6A"/>
<path fill-rule="evenodd" clip-rule="evenodd" d="M102.171 56.9938V61.6949C102.171 61.736 102.167 61.7771 102.16 61.8148C102.122 62.0098 102.003 62.1868 101.822 62.3227C101.784 62.3513 101.748 62.3765 101.706 62.3997C99.9385 63.4087 98.1837 63.7377 96.6168 63.7181C96.5518 63.7181 96.4848 63.7163 96.4197 63.7127C94.1166 63.6482 92.246 62.8488 91.3813 62.4122C91.3522 62.3962 91.3197 62.3801 91.2944 62.3585C91.2039 62.3067 91.1296 62.2406 91.0682 62.1707C91.0556 62.1582 91.0465 62.1457 91.0391 62.1331C90.9885 62.0795 90.956 62.0186 90.9325 61.9543C90.9233 61.9453 90.9197 61.9364 90.9197 61.9257C90.9035 61.8916 90.8944 61.8541 90.8854 61.8148C90.8746 61.7717 90.8691 61.7271 90.8691 61.6824V56.9902C90.8691 56.9902 90.8709 56.9902 90.8709 56.992C91.6508 57.4069 92.4268 57.7647 93.1487 58.06C94.6233 58.6663 95.8841 59.0045 96.5227 59.0045C96.8737 59.0045 97.4129 58.9043 98.0715 58.711C99.1968 58.3838 100.68 57.7899 102.171 56.9938Z" fill="#FFD0C2"/>
<path d="M90.9117 56.5454L91.1019 56.6074C92.7071 57.4578 94.3891 58.2696 96.1666 58.5271C96.9034 58.6341 97.6571 58.3828 98.3692 58.1515C99.6091 57.7486 100.805 57.2134 101.957 56.6003C101.957 56.6003 102.136 56.5167 102.302 56.566C102.487 56.6212 102.613 56.7987 102.623 56.9936V61.697C102.611 62.7685 101.18 63.2545 100.04 63.6355C97.1937 64.5862 93.9064 64.1592 91.2637 62.8533C91.2106 62.8271 91.1573 62.8012 91.1062 62.7712C90.9006 62.6502 90.7043 62.437 90.7043 62.437C90.5733 62.2705 90.4247 62.1258 90.418 61.6856V56.99C90.4306 56.7351 90.6393 56.5335 90.9117 56.5454ZM91.3212 61.6788C91.3266 62.0305 91.5336 61.9849 91.5929 62.0172C93.0617 62.7547 94.6943 63.2004 96.3299 63.2627C98.1213 63.3309 99.9355 62.8983 101.491 62.0069C101.644 61.9147 101.72 61.6923 101.72 61.6923V57.7296C100.18 58.4934 98.5791 59.2186 96.9184 59.4238C96.1529 59.5183 95.3739 59.3032 94.6199 59.0694C93.4857 58.7177 92.3906 58.2517 91.3255 57.7277L91.3212 57.7255C91.3212 59.0433 91.3212 60.361 91.3212 61.6788Z" fill="#3B1B6A"/>
<g style="mix-blend-mode:overlay">
<path d="M99.3574 62.905C100.034 62.7001 100.575 62.4949 101.303 62.1209C101.335 62.1046 101.543 61.9871 101.57 61.9653C101.651 61.899 101.675 61.8644 101.713 61.7381C101.722 61.7079 101.716 61.5327 101.716 61.4982V57.7134C101.029 58.0969 100.391 58.3205 99.7808 58.5965L99.7877 61.6027C99.7877 61.886 99.7467 62.1691 99.6508 62.4394C99.5747 62.654 99.514 62.7887 99.3574 62.905Z" fill="black" fill-opacity="0.25"/>
</g>
<path fill-rule="evenodd" clip-rule="evenodd" d="M84.3635 41.737V46.9108C83.6326 46.9622 82.8495 46.7207 82.2088 46.1842C81.0031 45.1703 80.765 43.4933 81.674 42.434C82.3209 41.6815 83.3743 41.4461 84.3635 41.737Z" fill="#FFD0C2"/>
<path d="M83.5752 41.17C83.8758 41.1748 84.175 41.2199 84.4647 41.3013C84.4647 41.3013 84.8045 41.4496 84.8143 41.7371V46.9109C84.8076 47.1032 84.7778 47.104 84.7312 47.169C84.5995 47.3529 84.3352 47.3704 84.0731 47.3628C81.6731 47.292 79.5015 44.1847 81.3658 42.1031C81.9126 41.4924 82.7392 41.1632 83.5752 41.17ZM83.5254 42.0629C82.581 42.071 81.6859 42.7852 81.5844 43.7401C81.45 45.0051 82.5382 46.2902 83.895 46.4552L83.9111 42.0924C83.8804 42.0877 83.8496 42.0835 83.8188 42.0797C83.7214 42.0686 83.6235 42.0629 83.5254 42.0629Z" fill="#3B1B6A"/>
<path d="M83.0391 43.576C83.531 43.6195 83.046 45.0077 84.1753 45.3259C84.1753 45.3259 84.303 45.3734 84.3479 45.4854C84.4414 45.7187 84.1874 45.92 83.81 45.7756C83.0657 45.4907 82.6376 44.5975 82.7604 43.7953C82.7874 43.6633 82.8758 43.5699 83.0391 43.576Z" fill="#3B1B6A"/>
<path fill-rule="evenodd" clip-rule="evenodd" d="M110.802 46.2282C110.161 46.7647 109.379 47.0062 108.647 46.9548V41.781C109.637 41.4899 110.69 41.7257 111.337 42.478C112.246 43.5373 112.008 45.2143 110.802 46.2282Z" fill="#FFD0C2"/>
<path d="M109.499 41.2121C111.054 41.219 112.441 42.6099 112.324 44.2021C112.196 45.9596 110.504 47.4945 108.68 47.4198C108.422 47.4093 108.193 47.2871 108.183 46.971L108.206 41.7864C108.224 41.3131 108.971 41.2144 109.499 41.2121ZM109.453 42.1075C109.31 42.1104 109.106 42.1384 109.106 42.1384L109.087 46.5122C109.112 46.5094 109.137 46.5061 109.161 46.5026C110.75 46.2626 112.125 44.3351 111.089 42.8848C110.728 42.3793 110.097 42.0994 109.453 42.1075Z" fill="#3B1B6A"/>
<path d="M109.971 43.6198C110.485 43.6524 110.268 44.9689 109.689 45.5038C109.352 45.8138 108.809 46.0443 108.65 45.7631C108.482 45.4642 109.127 45.3354 109.39 45.0444C109.657 44.7478 109.737 44.3226 109.692 43.9288C109.672 43.7669 109.776 43.6172 109.971 43.6198Z" fill="#3B1B6A"/>
<path fill-rule="evenodd" clip-rule="evenodd" d="M114.155 134.094H78.6279L80.7252 111.791L81.2617 106.085H111.886L112.753 116.779L112.952 119.241L114.155 134.094Z" fill="#7F33FA"/>
<path d="M111.961 105.645C112.271 105.723 112.291 105.772 112.337 106.05L113.204 116.744L113.403 119.205L114.606 134.059C114.605 134.272 114.573 134.28 114.533 134.339C114.458 134.452 114.4 134.521 114.156 134.541H78.6285C78.4122 134.523 78.4066 134.49 78.3497 134.446C78.2415 134.362 78.1765 134.297 78.1788 134.053L80.2761 111.75L80.8126 106.044C80.8126 106.044 80.8663 105.671 81.2622 105.639H111.887C111.911 105.641 111.936 105.643 111.961 105.645ZM81.6737 106.532L81.1753 111.832L79.124 133.648H113.666L112.502 119.276L112.304 116.815L111.47 106.532C101.538 106.532 91.6059 106.532 81.6737 106.532Z" fill="#3B1B6A"/>
<g style="mix-blend-mode:overlay">
<path d="M94.9911 106.539H98.0352V117.483H94.9911V106.539Z" fill="#1B0046" fill-opacity="0.25"/>
</g>
<path d="M106.304 107.824C106.571 107.844 106.658 108.332 106.304 108.359C105.7 108.374 105.095 108.359 104.491 108.359C104.225 108.353 104.087 107.823 104.491 107.823C105.095 107.823 105.7 107.808 106.304 107.824Z" fill="#3B1B6A"/>
<path d="M102.996 107.828C103.267 107.9 103.27 108.332 102.949 108.36H81.1214C80.8379 108.335 80.7729 107.854 81.1214 107.824H102.949C102.965 107.825 102.981 107.826 102.996 107.828Z" fill="#3B1B6A"/>
<path d="M87.9806 109.806C88.3817 109.86 88.0523 110.546 87.7621 111.063C86.6079 113.119 84.6093 114.797 82.2387 115.104C82.2387 115.104 82.002 115.102 81.942 114.929C81.8844 114.763 81.9468 114.607 82.2537 114.559C84.6737 114.154 86.7171 112.224 87.7066 109.968C87.7066 109.968 87.8194 109.799 87.9806 109.806Z" fill="#3B1B6A"/>
<path d="M104.85 109.806C105.088 109.838 105.088 109.997 105.142 110.116C106.166 112.349 108.182 114.281 110.614 114.571C110.614 114.571 110.867 114.659 110.854 114.859C110.833 115.197 110.228 115.067 109.765 114.931C107.481 114.263 105.594 112.453 104.604 110.231C104.604 110.231 104.528 109.791 104.85 109.806Z" fill="#3B1B6A"/>
<g style="mix-blend-mode:overlay">
<path d="M108.289 133.653H113.601L111.41 106.519H107.767L108.289 133.653Z" fill="#1E004E" fill-opacity="0.25"/>
</g>
<path fill-rule="evenodd" clip-rule="evenodd" d="M108.665 38.0909V47.6049C108.665 51.4179 105.397 54.8079 102.197 57.0028C102.197 57.0028 102.195 57.0028 102.195 57.0046V57.0011C100.703 57.7964 99.2204 58.3905 98.0948 58.7182C97.4371 58.911 96.8968 59.0117 96.5465 59.0117C95.9078 59.0117 94.6458 58.6738 93.1716 58.0679C92.4501 57.7725 91.6749 57.4142 90.8946 56.9994C90.8946 56.9977 90.8929 56.9977 90.8929 56.9977C87.6908 54.8009 84.4246 51.4128 84.4246 47.6049L84.3936 38.0737C90.4115 36.9468 94.9859 33.0227 96.1988 31.8949C96.3596 31.7454 96.6088 31.7453 96.7698 31.8948C97.9884 33.0277 102.603 36.9847 108.665 38.0909Z" fill="#F4F0EB"/>
<path d="M96.5045 31.3365C96.7675 31.3454 96.9912 31.4891 97.2007 31.6811C100.445 34.6275 104.388 36.8476 108.748 37.6519C108.748 37.6519 109.088 37.7234 109.117 38.091C109.117 41.2782 109.127 44.4655 109.117 47.6527C109.085 50.8056 106.933 53.6518 104.644 55.6694C103.948 56.2826 103.248 56.8953 102.445 57.3756C102.445 57.3756 102.279 57.4636 102.125 57.5436C100.529 58.3656 98.8594 59.1381 97.0869 59.411C94.9584 59.7388 92.6832 58.4404 90.8301 57.4715C90.7702 57.44 89.7096 56.7349 88.8147 55.9816C88.4404 55.6666 88.0766 55.339 87.7261 54.9982C85.6699 52.9986 83.9832 50.5068 83.9735 47.6064L83.9424 38.0753C83.9711 37.6916 84.1131 37.6746 84.5157 37.5953C88.6555 36.7628 92.4964 34.6119 95.6298 31.807C95.886 31.5775 96.1461 31.3326 96.5045 31.3365ZM96.4478 32.2766C93.1852 35.2683 89.1781 37.5346 84.8469 38.4398C84.8568 41.5227 84.8463 44.6056 84.8772 47.6883C84.9209 50.3133 86.6096 52.6777 88.4267 54.4265C89.247 55.2159 90.141 55.93 91.0773 56.5802L91.1356 56.6204C92.7375 57.4684 94.4114 58.2772 96.19 58.5348C96.9276 58.6416 97.6803 58.3904 98.3924 58.1589C99.6325 57.7556 100.827 57.2209 101.978 56.6098C102.039 56.5677 102.1 56.5253 102.16 56.4827C105.192 54.3429 108.04 51.4763 108.207 47.8963C108.211 47.799 108.213 47.7016 108.214 47.6043V38.4589C103.817 37.5601 99.7698 35.2544 96.522 32.2767C96.522 32.2767 96.5184 32.2114 96.4478 32.2766ZM90.4535 57.111L90.4764 57.1664C90.4764 57.1664 90.4347 56.9537 90.4535 57.111Z" fill="#3B1B6A"/>
<g style="mix-blend-mode:overlay">
<path d="M108.211 38.4324C108.22 38.5186 108.211 38.6072 108.211 38.6903L108.2 47.2911C108.215 50.0094 106.941 52.129 105.112 53.9919C103.364 55.772 101.762 57.2068 97.6562 58.3297C99.4961 57.8575 102.152 55.4435 103.411 54.1089C104.993 52.4307 106.36 50.1732 106.36 47.2968L106.346 37.9639C106.346 37.9639 106.926 38.1328 107.2 38.2018C107.473 38.2707 107.945 38.3743 108.054 38.3997C108.162 38.425 108.211 38.4324 108.211 38.4324Z" fill="black" fill-opacity="0.25"/>
</g>
<path d="M90.8839 43.5392C91.93 43.5392 91.9316 41.9316 90.8839 41.9316C89.8378 41.9316 89.836 43.5392 90.8839 43.5392Z" fill="#3B1B6A"/>
<path d="M102.176 43.5392C103.222 43.5392 103.224 41.9316 102.176 41.9316C101.13 41.9316 101.128 43.5392 102.176 43.5392Z" fill="#3B1B6A"/>
<path d="M97.1602 45.4892C97.5069 45.509 97.7064 46.0377 97.1256 46.2392C96.5338 46.4444 95.5381 46.3704 95.6196 45.7995C95.6554 45.5486 95.9548 45.4638 96.2194 45.5685C96.5657 45.7006 96.9571 45.4848 97.1602 45.4892Z" fill="#3B1B6A"/>
<path d="M93.0169 36.6772C93.4354 36.7061 93.6875 37.3991 93.1003 37.5577L89.5072 38.4226C89.0631 38.5166 88.6775 37.7221 89.2982 37.5543L92.8913 36.6894C92.9426 36.6786 92.9571 36.6763 93.0169 36.6772Z" fill="#3B1B6A"/>
<path d="M100.591 36.8358C100.616 36.8384 100.639 36.842 100.663 36.8471L104.02 37.6522C104.364 37.7446 104.338 37.8606 104.362 38.0236C104.405 38.3086 104.12 38.586 103.812 38.5207L100.455 37.7155C100.127 37.6276 100.148 37.5203 100.117 37.3681C100.061 37.0966 100.242 36.8191 100.591 36.8358Z" fill="#3B1B6A"/>
<path d="M91.8485 46.7265C91.8485 47.509 90.8695 48.1433 89.6619 48.1433C88.4545 48.1433 87.4756 47.5088 87.4756 46.7263C87.4756 45.9438 88.4545 45.3096 89.6621 45.3096C90.8697 45.3096 91.8485 45.944 91.8485 46.7265Z" fill="white" fill-opacity="0.3"/>
<path d="M105.509 46.7265C105.509 47.509 104.53 48.1433 103.322 48.1433C102.115 48.1433 101.136 47.5088 101.136 46.7263C101.136 45.9438 102.115 45.3096 103.322 45.3096C104.53 45.3096 105.509 45.944 105.509 46.7265Z" fill="white" fill-opacity="0.3"/>
<g style="mix-blend-mode:overlay">
<path d="M105.411 42.677C105.411 44.6143 103.822 46.1847 101.865 46.1847C101.641 46.1847 101.421 46.1641 101.209 46.1232C101.045 46.0941 100.884 46.0532 100.729 46.0003C100.525 45.9321 100.33 45.8467 100.147 45.746C99.8435 45.5804 99.5691 45.3721 99.329 45.1298C98.7041 44.4982 98.3174 43.6312 98.3174 42.677C98.3174 40.8286 99.7642 39.3129 101.599 39.1814C101.687 39.1728 101.775 39.1694 101.865 39.1694C102.126 39.1694 102.381 39.1968 102.626 39.2514C102.835 39.2957 103.037 39.3589 103.23 39.4409C103.384 39.5024 103.531 39.5758 103.672 39.661C104.713 40.2704 105.411 41.3935 105.411 42.677Z" fill="black" fill-opacity="0.25"/>
</g>
<g style="mix-blend-mode:overlay">
<path d="M94.5805 42.677C94.5805 44.6143 92.9922 46.1847 91.0348 46.1847C90.8102 46.1847 90.5911 46.1641 90.3787 46.1232C90.2148 46.0941 90.0543 46.0532 89.8989 46.0003C89.6951 45.9321 89.5 45.8467 89.317 45.746C89.0134 45.5804 88.7388 45.3721 88.4989 45.1298C87.8741 44.4982 87.4873 43.6312 87.4873 42.677C87.4873 40.8286 88.9339 39.3129 90.7689 39.1814C90.857 39.1728 90.945 39.1694 91.0348 39.1694C91.2955 39.1694 91.5509 39.1968 91.796 39.2514C92.0048 39.2957 92.2068 39.3589 92.4003 39.4409C92.5538 39.5024 92.7005 39.5758 92.8421 39.661C93.883 40.2704 94.5805 41.3935 94.5805 42.677Z" fill="black" fill-opacity="0.25"/>
</g>
<path d="M102.626 39.2512L100.147 45.7458C99.8436 45.5802 99.569 45.3722 99.3291 45.1298L101.599 39.1812C101.687 39.1728 101.775 39.1694 101.865 39.1694C102.126 39.1694 102.381 39.1966 102.626 39.2512Z" fill="white" fill-opacity="0.3"/>
<path d="M103.673 39.661L101.209 46.1232C101.045 46.0941 100.885 46.0532 100.729 46.0003L103.231 39.4409C103.384 39.5022 103.531 39.5756 103.673 39.661Z" fill="white" fill-opacity="0.3"/>
<path d="M91.7961 39.2512L89.3171 45.7458C89.0135 45.5802 88.7389 45.3722 88.499 45.1298L90.769 39.1812C90.8571 39.1728 90.9451 39.1694 91.0349 39.1694C91.2955 39.1694 91.551 39.1966 91.7961 39.2512Z" fill="white" fill-opacity="0.3"/>
<path d="M92.8417 39.661L90.3782 46.1232C90.2144 46.0941 90.0538 46.0532 89.8984 46.0003L92.3998 39.4409C92.5534 39.5022 92.7 39.5756 92.8417 39.661Z" fill="white" fill-opacity="0.3"/>
<path d="M91.1117 38.6835C92.9183 38.7008 94.622 40.0963 94.9692 41.926C95.3132 43.7395 94.2374 45.724 92.5356 46.4033C90.4996 47.2158 87.888 45.9833 87.2759 43.7525C86.6397 41.4339 88.4392 38.7255 91.0352 38.6838C91.0606 38.6835 91.0861 38.6835 91.1117 38.6835ZM91.0663 39.5867C89.6765 39.6 88.3599 40.6689 88.0838 42.0772C87.7375 43.8437 89.2262 45.7542 91.0465 45.7775C92.3795 45.7945 93.663 44.8373 94.0308 43.5292C94.5314 41.7484 93.1664 39.658 91.1849 39.5883C91.1454 39.587 91.1058 39.5867 91.0663 39.5867Z" fill="#3B1B6A"/>
<path d="M101.943 38.7014C103.751 38.7188 105.453 40.1142 105.8 41.944C106.141 43.7414 105.091 45.7084 103.411 46.403C101.386 47.2405 98.746 46.0441 98.1135 43.7943C97.4586 41.4642 99.2983 38.743 101.866 38.7018C101.892 38.7014 101.917 38.7014 101.943 38.7014ZM101.897 39.6046C100.507 39.618 99.1909 40.6871 98.9148 42.0952C98.569 43.8592 100.048 45.772 101.877 45.7955C103.215 45.8125 104.504 44.8502 104.867 43.529C105.353 41.7552 104.003 39.6762 102.016 39.6063C101.976 39.605 101.937 39.6046 101.897 39.6046Z" fill="#3B1B6A"/>
<path d="M96.5161 41.9029C97.307 41.9134 98.1424 42.2031 98.686 42.7193C99.0142 43.0312 98.5868 43.7467 98.0124 43.3323C97.1319 42.7068 95.8916 42.6252 94.9832 43.3159C94.6109 43.599 94.6259 43.5662 94.3842 43.4279C94.0435 43.2332 94.1864 42.7447 94.6873 42.433C95.2377 42.0904 95.84 41.8988 96.5161 41.9029Z" fill="#3B1B6A"/>
<path d="M84.3895 40.0984C84.4671 40.1061 84.5138 40.1137 84.6101 40.1751L87.7899 42.3207C88.1691 42.591 87.818 43.3974 87.2904 43.061L84.1106 40.9154C83.78 40.6796 83.8777 40.0734 84.3895 40.0984Z" fill="#3B1B6A"/>
<path d="M108.664 40.0838C109.04 40.1046 109.268 40.6363 108.895 40.9019L105.715 43.0478C105.331 43.2927 104.663 42.7019 105.216 42.3075L108.396 40.1616C108.471 40.1136 108.47 40.0831 108.664 40.0838Z" fill="#3B1B6A"/>
<path d="M96.6076 48.6471C97.475 48.66 98.3868 48.8806 98.9766 49.4846C99.3147 49.8311 98.8021 50.5377 98.2769 50.0573C97.3587 49.2472 95.5201 49.3541 94.7869 50.113C94.7869 50.113 94.5979 50.2784 94.3889 50.2455C94.0461 50.1912 93.8779 49.7304 94.2101 49.4209C94.8037 48.8677 95.6773 48.6596 96.5137 48.6471C96.5608 48.6469 96.5606 48.6469 96.6076 48.6471Z" fill="#3B1B6A"/>
<path fill-rule="evenodd" clip-rule="evenodd" d="M76.9745 85.963C76.9745 85.963 76.5228 86.7793 75.7172 87.9905C74.4364 89.9157 72.2651 92.8434 69.6006 95.0832C69.765 94.9421 69.9312 94.7687 70.1028 94.5651C70.1046 94.5633 70.1046 94.5617 70.1064 94.5597C72.0953 92.177 72.0104 87.8494 71.575 82.7783C71.7954 82.8767 72.0158 82.9821 72.2362 83.0909C72.3102 83.1266 72.3843 83.1641 72.4566 83.2016C72.7528 83.3517 73.0473 83.5089 73.3399 83.6696C73.9902 84.0306 74.6261 84.4126 75.2222 84.7913C75.8671 85.2021 76.4632 85.604 76.9745 85.963Z" fill="#F4F0EB"/>
<path d="M71.6256 82.3344C71.7149 82.3493 71.7338 82.3611 71.7609 82.3714C73.67 83.2277 75.432 84.3429 77.1374 85.5302C77.1374 85.5302 77.5677 85.8329 77.283 86.3302C75.3518 89.6683 72.9546 92.801 70.0195 95.3155C70.0195 95.3155 69.6991 95.6231 69.4071 95.4868C69.0784 95.3334 69.0945 94.9458 69.4108 94.6489C70.9314 93.1891 71.2629 90.8629 71.3536 88.7886C71.4407 86.7955 71.2931 84.8025 71.1243 82.8154C71.1243 82.8154 71.2035 82.3087 71.6256 82.3344ZM72.0926 83.5687C72.3242 86.5372 72.5614 89.5881 71.7165 92.3997L71.71 92.4211C73.4834 90.4898 75.0347 88.3609 76.3668 86.1134L76.378 86.0944C75.0066 85.1508 73.6122 84.2767 72.089 83.517C72.089 83.517 72.091 83.5481 72.0926 83.5687Z" fill="#3B1B6A"/>
<path fill-rule="evenodd" clip-rule="evenodd" d="M68.6799 69.5972C69.1236 71.2774 69.5418 72.9642 69.9295 74.6579C70.4474 76.9218 70.8608 78.1214 71.2285 80.439C71.2993 80.8856 71.5814 82.7373 71.6192 83.1767C72.0547 88.2477 72.0943 92.1768 70.1054 94.5597C70.1036 94.5615 70.1036 94.5631 70.1018 94.5649C69.9302 94.7687 69.764 94.9418 69.5996 95.0831L69.5562 95.1204C69.5436 95.1331 69.531 95.1436 69.5183 95.1507V95.1525C68.3568 96.1063 67.3795 95.6385 66.7039 95.0973C63.595 92.6092 62.3339 86.2749 62.0539 81.8971C61.9195 79.7976 61.6701 76.3656 61.6388 72.442L61.322 62.2753C61.2763 61.5205 61.2651 61.437 61.1847 60.9344C61.0013 59.7861 60.5559 59.4489 59.8521 59.1238C59.8459 59.121 59.8396 59.1181 59.8335 59.1152C58.4922 58.5063 56.6955 57.6753 54.5685 55.7852C53.8367 55.1366 53.8396 54.956 53.5771 54.4323C53.509 54.2998 53.3753 54.2241 53.2792 54.166C53.0978 54.053 52.9457 53.8961 52.8444 53.709C52.2264 52.5539 51.8794 50.0915 51.8545 49.9043C51.8518 49.8975 51.8496 49.8913 51.8469 49.8845C51.416 49.234 51.0185 48.2591 51.0956 47.827C51.2092 47.1974 51.6773 47.3621 51.8062 47.4346C51.8111 47.4378 51.8147 47.4387 51.82 47.4402C51.8453 47.4469 51.8749 47.4377 51.8901 47.4169C51.9919 47.2839 52.1572 47.2076 52.3259 47.2258C53.2261 47.313 53.2364 48.5075 53.2328 48.7126C53.2313 48.7313 53.2402 48.7489 53.2539 48.7622C53.5108 48.9944 53.5493 49.76 53.5536 49.9004C53.5538 49.9138 53.5592 49.9286 53.5699 49.939C53.6678 50.047 54.2628 50.6461 56.077 51.6478C57.6148 52.4958 58.8219 52.6818 59.3031 52.7202C59.369 52.7262 59.3994 52.643 59.3459 52.6058C58.4389 51.9771 57.2774 51.029 57.1601 50.2197C56.9661 48.8712 57.9638 49.316 58.3117 49.6032C58.658 49.89 61.6849 52.2825 63.5087 53.2848C65.098 54.156 66.1126 55.8293 65.7042 58.1555C65.65 58.4638 67.2337 64.1146 67.3119 64.4158L68.6799 69.5972Z" fill="#F4F0EB"/>
<path d="M52.2968 46.7769C53.1077 46.8018 53.6462 47.7262 53.6825 48.5558C53.6825 48.5558 53.9479 49.1306 53.9945 49.6963C53.9945 49.6963 54.7929 50.372 55.5484 50.8269C56.2471 51.2477 56.9668 51.6342 57.74 51.9089C57.74 51.9089 57.7916 51.9511 57.5947 51.7532C57.0047 51.1488 56.4482 50.3525 56.7506 49.4475C56.8414 49.1758 57.0604 48.9473 57.3512 48.8764C57.9101 48.7398 58.4452 49.1383 58.8428 49.4546C60.4364 50.716 62.0595 51.9516 63.8087 52.9395C64.0607 53.0848 64.1259 53.1315 64.2744 53.2384C65.7821 54.3222 66.4656 56.2887 66.1594 58.174C66.1594 58.174 66.4098 59.337 66.6757 60.3474C67.9505 65.1901 69.3086 70.0136 70.4419 74.8689C71.1105 77.7113 71.8441 80.4155 72.1093 83.6129C72.3102 86.1008 72.5029 88.6169 72.065 91.0782C71.8291 92.4048 71.369 93.7199 70.5039 94.7836C70.2371 95.1119 70.0707 95.2716 69.8642 95.4479C69.7886 95.5125 69.7768 95.5213 69.7456 95.5457C69.0524 96.0914 68.0871 96.3029 67.2675 95.9624C65.7649 95.3384 64.7634 93.7792 63.9949 92.2112C62.2149 88.5794 61.762 84.4065 61.5024 80.3652C61.3388 77.7897 61.2165 75.2079 61.1892 72.6301L61.1876 72.451L60.8711 62.2959C60.8183 61.4323 60.7984 60.4529 60.3105 59.943C60.0128 59.6318 59.5876 59.4968 59.1857 59.3109C57.2506 58.4112 55.3965 57.299 53.9036 55.7752C53.5964 55.4616 53.3864 55.0659 53.195 54.6757C53.1254 54.534 52.9489 54.4912 52.842 54.4015C52.7379 54.3143 52.6442 54.2148 52.5642 54.1055C52.0777 53.4414 51.9128 52.5659 51.7184 51.6876C51.6004 51.1548 51.5029 50.6176 51.4232 50.078C51.4232 50.078 50.6051 48.6725 50.6356 47.8971C50.658 47.3296 51.1378 46.8077 51.7458 46.9388C51.7458 46.9388 51.9888 46.7729 52.2968 46.7769ZM52.2764 47.6699C52.211 47.6729 52.2021 47.7504 52.1362 47.7962C51.7982 48.0311 51.4498 47.5065 51.5538 48.1039C51.6452 48.6282 51.8961 49.1227 52.1886 49.5841L52.3024 49.8451C52.3098 49.8997 52.3178 49.9544 52.3259 50.009C52.5089 51.2179 52.6532 52.5339 53.2613 53.5304C53.2828 53.5658 53.3075 53.5993 53.3348 53.6308C53.5254 53.8505 53.8297 53.95 53.9797 54.2297C54.1327 54.5381 53.9679 54.3888 54.3159 54.8782C54.6564 55.3571 55.16 55.7182 55.6353 56.0994C56.9775 57.1761 58.5093 58.0061 60.0784 58.7357C61.2459 59.286 61.6686 60.5406 61.7736 62.2551L62.0908 72.4335C62.1349 77.4109 62.1094 82.4024 63.3506 87.5922C63.9733 90.1961 64.8263 92.9069 66.8551 94.6403C66.9082 94.6857 66.9622 94.7302 67.0171 94.7734C67.4734 95.1319 68.093 95.3928 68.6854 95.1472C69.0259 95.006 69.394 94.6732 69.2457 94.7972C69.2457 94.7972 69.801 94.2776 70.1359 93.7626C71.3294 91.9265 71.4306 89.6268 71.4097 87.487C71.3956 86.0549 71.2966 84.6256 71.1679 83.1964C70.736 78.7466 69.4957 74.4798 68.2847 69.8673C67.3002 66.1316 66.1289 62.4523 65.3201 58.6277C65.1767 57.9493 65.3989 57.25 65.3037 56.5488C65.1216 55.2085 64.0703 54.1432 62.9216 53.4645C61.2571 52.473 59.701 51.2886 58.193 50.084C57.999 49.929 57.6034 49.7449 57.6034 49.7449C57.4025 50.5009 58.3444 51.2891 59.0511 51.8355C59.2886 52.0191 59.6409 52.2667 59.6409 52.2667C59.8168 52.425 59.8107 52.4934 59.8226 52.602C59.8587 52.9292 59.6035 53.2001 59.1578 53.1555C57.0232 52.9286 55.0307 51.8186 53.4889 50.4806C53.3807 50.3866 53.2338 50.2376 53.2338 50.2376C53.1274 50.1151 53.1357 50.2719 53.0915 49.7343C53.0667 49.4625 52.9681 49.1101 52.9439 49.0868C52.6084 48.765 52.9796 49.0565 52.7094 48.1273C52.7014 48.0998 52.6926 48.0723 52.6827 48.0453C52.603 47.8273 52.3029 47.6699 52.2764 47.6699Z" fill="#3B1B6A"/>
<path d="M59.8424 55.1164C59.9674 55.1275 59.9819 55.1594 60.0339 55.1819C60.4501 55.3568 60.9154 55.3386 61.3643 55.2382C61.5835 55.1912 61.6255 55.1871 61.7516 55.1718C62.6603 55.0608 63.5297 55.4229 64.3043 56.0109C64.5758 56.2142 64.3858 56.7439 63.9757 56.4369C63.2219 55.8648 62.3394 55.5803 61.3119 55.7996C60.7718 55.9096 60.2032 55.8675 59.7127 55.626C59.5005 55.5215 59.5017 55.1375 59.8213 55.1162C59.8283 55.1162 59.8354 55.1162 59.8424 55.1164Z" fill="#3B1B6A"/>
<path d="M51.926 46.9725C52.0156 46.9819 52.042 46.9937 52.0901 47.0171C52.4326 47.1841 52.2785 47.696 52.2552 48.176C52.5888 48.015 52.6289 48.0727 52.7819 48.0868C53.0599 48.1124 53.3237 48.2394 53.5413 48.4164C53.5413 48.4164 53.7684 48.6598 53.6822 48.9074C53.5849 49.1873 53.2037 49.2844 52.9436 49.0871C52.809 48.9879 52.7014 48.8043 52.5928 49.2151C52.4611 49.714 52.4428 50.2411 52.4463 50.7648C52.4463 50.7648 52.3641 51.1772 52.0434 51.2115C51.7616 51.2419 51.5725 51.0034 51.5145 50.6164C51.3543 49.5254 51.1991 48.4033 51.4479 47.3263C51.4479 47.3263 51.5369 46.9523 51.926 46.9725Z" fill="#3B1B6A"/>
<path d="M54.3508 50.9746C55.1735 50.9998 55.4508 52.1889 55.3937 52.9383C55.3776 53.1496 55.3301 53.4515 55.3301 53.4515C55.3576 53.4786 55.3847 53.506 55.4116 53.5335C55.5706 53.6971 55.7848 53.935 55.7848 53.935C55.8045 53.9393 55.8242 53.9441 55.8437 53.9491C56.4924 54.1183 57.2964 54.394 57.0659 54.9229C56.9622 55.1607 56.6591 55.2455 56.3959 55.1198C55.7526 54.8122 55.8578 54.8865 55.4997 54.7854C55.1471 54.6777 54.9316 54.3251 54.6565 54.0484C54.6565 54.0484 54.3872 53.6473 54.4535 53.2155C54.5286 52.7101 54.5304 52.066 54.3368 51.8793C53.9166 52.4516 53.7448 53.5269 54.0046 54.2906C54.0046 54.2906 54.0656 54.6084 53.8689 54.7734C53.6196 54.9826 53.222 54.8481 53.1057 54.4392C52.8251 53.4536 53.0704 52.333 53.5166 51.4967C53.6774 51.1956 53.987 50.9722 54.3508 50.9746Z" fill="#3B1B6A"/>
<path d="M53.5774 49.4361C53.7779 49.4498 53.9503 49.5981 53.9954 49.7968C54.1149 50.4439 54.2081 51.0957 54.3142 51.7453C54.3774 52.1902 53.579 52.5375 53.4362 51.9076C53.3167 51.2605 53.2237 50.6087 53.1176 49.959C53.0782 49.684 53.2579 49.4278 53.5774 49.4361Z" fill="#3B1B6A"/>
<g style="mix-blend-mode:overlay">
<path d="M75.5769 85.5571L76.3795 86.0951C76.3795 86.0951 75.9609 86.814 75.2797 87.8309L75.2424 87.8878C74.3321 89.2467 73.0076 91.0732 71.7139 92.4129L72.0081 91.226L72.0426 90.9827L72.1349 90.3063C74.2564 86.886 74.8812 85.1064 74.8812 85.1064L75.5043 85.5087L75.5769 85.5571Z" fill="black" fill-opacity="0.25"/>
</g>
<g style="mix-blend-mode:overlay">
<path d="M70.9426 91.9175C70.3591 93.6197 70.0972 93.8485 69.3746 94.6843C68.652 95.5202 67.7145 95.2917 67.1924 94.9273C72.7364 91.2674 68.3113 72.3827 67.8527 70.5446C67.3581 68.5623 65.3625 58.9436 65.3047 58.5811C65.4763 59.2312 66.7227 63.9645 66.8221 64.3878C66.9305 64.845 68.4678 70.575 68.6683 71.3966C68.867 72.2164 70.0357 77.0517 70.0357 77.0517C70.0357 77.0517 70.4783 78.7644 70.8812 81.2777C71.2497 83.5764 71.3418 85.441 71.3725 86.3842C71.3725 86.3842 71.5279 90.2155 70.9426 91.9175Z" fill="black" fill-opacity="0.25"/>
</g>
<path fill-rule="evenodd" clip-rule="evenodd" d="M65.7119 58.1489C65.7119 58.1489 65.4147 58.9013 64.9549 59.3636L65.7119 58.1489Z" fill="#FFD0C2"/>
<path d="M65.7201 57.6934C66.1202 57.7065 66.2128 58.1706 65.9469 58.6907C65.6706 59.2316 65.2832 59.9786 64.7809 59.7762C64.4951 59.6611 64.4266 59.2695 64.686 58.9889C65.1123 58.5153 65.1945 57.6934 65.7201 57.6934Z" fill="#3B1B6A"/>
<path d="M68.865 93.4648C69.105 93.4783 69.2188 93.7766 68.947 94.0141C68.5607 94.3523 67.9516 94.494 67.5041 94.1663C67.2929 94.0116 67.2695 93.6206 67.6038 93.628C67.77 93.6318 67.8773 93.8155 68.0671 93.8367C68.4028 93.8742 68.5918 93.4612 68.865 93.4648Z" fill="#3B1B6A"/>
<path d="M124.322 93.4984C124.669 93.5235 124.881 94.0714 125.417 93.7053C125.674 93.5454 126.195 93.9321 125.512 94.2923C125.059 94.531 124.457 94.335 124.102 93.9389C123.966 93.773 124.077 93.4912 124.322 93.4984Z" fill="#3B1B6A"/>
<path fill-rule="evenodd" clip-rule="evenodd" d="M123.427 95.0833C120.903 92.9614 118.82 90.2232 117.52 88.3031C116.584 86.9206 116.053 85.9631 116.053 85.9631C116.105 85.9256 116.158 85.8809 116.208 85.8309C116.575 85.5507 117.023 85.2201 117.532 84.8628C117.543 84.8557 117.552 84.8485 117.563 84.8416C118.408 84.2432 119.42 83.575 120.504 82.9518C120.67 82.8554 120.834 82.7625 120.995 82.6732C121.161 82.5803 121.326 82.491 121.485 82.4053C121.472 82.5446 121.461 82.6732 121.452 82.7784C121.024 87.7673 120.936 92.036 122.827 94.4421C122.858 94.4814 122.888 94.5207 122.921 94.5598C122.923 94.5618 122.923 94.5635 122.924 94.5653C123.096 94.7688 123.262 94.9422 123.427 95.0833Z" fill="#F4F0EB"/>
<path d="M121.538 81.9615C121.889 82.0205 121.935 82.4324 121.902 82.8157C121.675 85.4963 121.432 88.1891 121.879 90.8506C122.12 92.2864 122.582 93.7472 123.71 94.7344C123.71 94.7344 123.933 94.9706 123.859 95.213C123.757 95.545 123.339 95.5998 122.954 95.2699C120.003 92.7266 117.573 89.5789 115.664 86.1904C115.664 86.1904 115.57 85.8251 115.892 85.5122C115.892 85.5122 116.391 85.1287 116.807 84.8281C118.196 83.8272 119.639 82.8969 121.148 82.0785C121.256 82.0194 121.373 81.951 121.538 81.9615ZM120.916 83.2315C119.453 84.0678 118.055 85.0042 116.696 86.0232L116.635 86.07C117.961 88.3186 119.521 90.4498 121.279 92.3798L121.318 92.4228C121.303 92.3733 121.288 92.3237 121.274 92.274C120.445 89.376 120.715 86.2751 120.963 83.2077C120.963 83.2077 120.933 83.2215 120.916 83.2315Z" fill="#3B1B6A"/>
<path fill-rule="evenodd" clip-rule="evenodd" d="M141.181 49.8848C141.177 49.8919 141.175 49.8973 141.172 49.9044C141.148 50.092 140.8 52.5533 140.182 53.7089C140.081 53.8964 139.929 54.0536 139.748 54.1662C139.651 54.2233 139.517 54.3001 139.45 54.4323C139.188 54.9556 139.19 55.136 138.459 55.7862C136.331 57.6759 134.535 58.5065 133.193 59.1156C133.187 59.1173 133.18 59.1209 133.175 59.1245C132.582 59.3978 132.172 59.68 131.948 60.4462C131.907 60.5909 131.87 60.7517 131.842 60.9338C131.762 61.4375 131.751 61.5197 131.704 62.2752L131.695 62.5682L131.388 72.4419C131.357 76.3661 131.108 79.7973 130.973 81.8978C130.693 86.2756 129.432 92.6092 126.323 95.0973C125.647 95.6385 124.67 96.1065 123.508 95.1527V95.1509C123.496 95.1438 123.483 95.1331 123.471 95.1206L123.427 95.083C123.263 94.9419 123.097 94.7687 122.925 94.5651C122.923 94.5633 122.923 94.5615 122.921 94.5597C122.889 94.5204 122.858 94.4811 122.827 94.4416C120.936 92.0359 121.025 87.767 121.453 82.7783C121.462 82.6729 121.473 82.5443 121.485 82.405C121.502 82.2264 121.52 82.028 121.54 81.8335C121.57 81.5423 121.603 81.2565 121.635 81.0529C121.955 79.0292 122.435 77.3913 122.898 75.5052C122.965 75.2283 123.033 74.9479 123.098 74.6585C123.485 72.9635 123.904 71.2774 124.347 69.5966L125.716 64.415C125.757 64.2543 126.229 62.5646 126.652 60.9785C126.856 60.214 127.047 59.4746 127.174 58.9423C127.275 58.5136 127.334 58.2207 127.324 58.1564C126.914 55.8291 127.929 54.1554 129.518 53.2856C131.341 52.2818 134.369 49.8901 134.716 49.6026C135.062 49.3168 136.061 48.872 135.866 50.2206C135.749 51.0297 134.587 51.9763 133.68 52.6051C133.628 52.6426 133.657 52.7265 133.724 52.7194C134.204 52.6819 135.413 52.4961 136.95 51.6477C138.764 50.6457 139.36 50.0473 139.457 49.9384C139.469 49.9294 139.474 49.9134 139.474 49.9009C139.477 49.7597 139.515 48.9953 139.774 48.7613C139.786 48.7488 139.795 48.7309 139.793 48.7131C139.79 48.5077 139.801 47.3127 140.7 47.2252C140.87 47.2074 141.035 47.2842 141.137 47.4163C141.152 47.4378 141.181 47.4467 141.206 47.4396C141.212 47.4396 141.215 47.4378 141.221 47.4342C141.349 47.3627 141.818 47.1966 141.93 47.8271C142.008 48.2594 141.611 49.2346 141.181 49.8848Z" fill="#F4F0EB"/>
<path d="M135.484 48.8507C136.347 48.8895 136.598 50.1864 135.95 51.1355C135.754 51.422 135.515 51.6771 135.264 51.9164C135.309 51.9007 135.355 51.8845 135.4 51.868C136.724 51.377 138.002 50.6726 139.022 49.7379C139.022 49.7379 139.054 48.9941 139.34 48.5781C139.34 48.5781 139.433 47.0235 140.507 46.8029C140.828 46.737 141.235 46.9467 141.324 46.9294C142.336 46.7565 142.66 48.3624 141.624 50.0265C141.624 50.0265 141.454 51.0555 141.273 51.8411C141.052 52.8002 140.895 53.901 140.078 54.4838C139.619 54.8114 139.654 55.1193 139.417 55.4367C139.06 55.9147 138.577 56.29 138.108 56.674C136.755 57.78 135.236 58.6722 133.639 59.4036C133.001 59.6956 132.432 60.093 132.287 61.0032C132.232 61.3501 132.193 61.6995 132.171 62.0499C132.169 62.0655 132.155 62.2844 132.155 62.2955C132.151 62.3909 132.149 62.4863 132.146 62.5816L131.839 72.4504C131.788 78.3263 131.744 84.4195 129.995 89.7974C129.298 91.9411 128.288 94.0977 126.607 95.4441C125.978 95.9476 125.168 96.2788 124.362 96.0903C123.964 95.9971 123.599 95.796 123.281 95.5454C123.233 95.5075 122.699 95.0156 122.423 94.6539C120.813 92.5473 120.696 89.6136 120.754 86.8867C120.814 84.0728 121.027 81.2627 121.712 78.3783C123.039 72.7932 124.471 67.3026 125.975 61.7552C126.282 60.6169 126.622 59.4838 126.847 58.3283C126.873 58.1931 126.867 58.1888 126.834 57.9441C126.586 55.9994 127.409 54.0007 129.178 52.9628C131.084 51.8666 132.841 50.4422 134.499 49.2028C134.792 48.9913 135.08 48.8418 135.484 48.8507ZM140.748 47.669C140.15 47.7269 140.245 48.7393 140.245 48.7393C140.226 48.9781 140.032 49.132 139.98 49.4049C139.941 49.6048 139.968 49.7241 139.911 50.0147C139.911 50.0147 139.746 50.2807 139.779 50.2518C139.83 50.2069 138.064 51.6198 136.657 52.3035C135.762 52.7384 134.802 53.0706 133.811 53.1599C133.268 53.2087 132.963 52.5955 133.41 52.2467C134.246 51.6646 135.306 51.0803 135.426 50.1048C135.43 50.0731 135.433 50.0415 135.435 50.0099C135.443 49.9027 135.423 49.745 135.423 49.745C135.231 49.7677 135.061 49.8995 134.905 50.0262C133.237 51.3633 131.502 52.6804 129.669 53.7137C128.181 54.5697 127.468 56.3327 127.769 58.0877C127.769 58.0877 127.595 59.1473 127.345 60.1152C126.062 65.0755 124.624 70.0649 123.489 74.9739C123.463 75.081 123.438 75.188 123.412 75.295C122.822 77.7428 122.132 80.1162 121.902 82.8156C121.648 85.7954 121.352 88.8679 122.052 91.6896C122.284 92.6249 122.669 93.5392 123.274 94.2808C123.355 94.3803 123.948 94.9056 123.747 94.7714C123.747 94.7714 124.364 95.2869 124.935 95.253C125.719 95.2064 126.303 94.5764 126.777 94.0427C128.895 91.6596 129.67 88.2969 130.174 85.0391C130.821 80.8639 130.9 76.5891 130.936 72.4329L131.243 62.5541L131.252 62.2544C131.34 60.8562 131.5 59.4075 132.959 58.7307C132.959 58.7307 133.653 58.4201 134.225 58.1324C135.769 57.354 137.243 56.3939 138.453 55.1754C138.688 54.9389 138.85 54.6398 138.996 54.3343C139.07 54.1805 138.959 54.3161 139.136 54.09C139.357 53.808 139.694 53.7228 139.893 53.2691C140.361 52.2033 140.562 51.0277 140.72 49.8697L140.801 49.6416C141.148 49.1126 141.547 48.4976 141.487 47.9148C141.458 47.6408 141.27 47.8835 141.27 47.8835C141.185 47.8871 141.263 47.9094 141.099 47.8808C140.875 47.8421 140.792 47.6656 140.748 47.669Z" fill="#3B1B6A"/>
<path d="M133.227 55.1177C133.426 55.1466 133.417 55.2014 133.451 55.2886C133.645 55.7928 132.314 55.9105 131.44 55.74C130.576 55.5797 129.816 55.8741 129 56.4744C128.737 56.6639 128.328 56.3096 128.745 55.9936C129.572 55.3572 130.588 55.0034 131.662 55.2382C132.132 55.3411 132.615 55.3608 133.081 55.142C133.081 55.142 133.127 55.1109 133.227 55.1177Z" fill="#3B1B6A"/>
<path d="M141.149 46.9712C141.228 46.9757 141.25 46.9833 141.292 46.9987C141.591 47.1077 141.629 47.5206 141.659 47.9021C141.736 48.8792 141.632 49.8651 141.478 50.8368C141.478 50.8368 141.329 51.2306 141.007 51.2135C140.27 51.1745 140.726 49.6852 140.347 48.9779L140.066 49.1001C139.789 49.3234 139.302 49.1171 139.32 48.7411C139.344 48.2351 140.2 47.9007 140.771 48.176C140.769 48.1342 140.766 48.0924 140.764 48.0507C140.746 47.7943 140.574 47.5769 140.721 47.2404C140.793 47.0757 140.87 46.9707 141.149 46.9712Z" fill="#3B1B6A"/>
<path d="M138.72 50.9747C139.369 51.0026 139.671 51.786 139.856 52.462C140.043 53.1402 140.113 53.8702 139.886 54.55C139.734 55.0064 138.83 54.9299 139.046 54.2155C139.27 53.4437 139.103 52.5228 138.696 51.8892C138.586 51.7224 138.49 52.6948 138.596 53.3551C138.596 53.3551 138.569 53.8445 138.264 54.1544C138.1 54.3223 137.876 54.5723 137.876 54.5723C137.554 54.8949 137.039 54.9189 136.576 55.1461C136.576 55.1461 136.15 55.2586 135.982 54.9662C135.733 54.5314 136.485 54.1144 137.231 53.9372C137.231 53.9372 137.464 53.683 137.684 53.4637C137.684 53.4637 137.584 52.7294 137.637 52.2375C137.686 51.7908 137.848 51.3135 138.283 51.0745C138.369 51.0274 138.557 50.972 138.72 50.9747Z" fill="#3B1B6A"/>
<path d="M139.495 49.434C139.747 49.4485 139.946 49.683 139.92 49.9387C139.828 50.5902 139.709 51.2378 139.603 51.8875C139.519 52.3422 138.662 52.3268 138.719 51.7619C138.811 51.1104 138.93 50.4629 139.037 49.8132C139.077 49.5922 139.235 49.43 139.495 49.434Z" fill="#3B1B6A"/>
<g style="mix-blend-mode:overlay">
<path d="M131.524 60.3093C131.524 60.3093 131.216 60.7096 130.778 63.5597C130.34 66.41 129.925 74.9606 129.349 80.4332C129.224 81.6178 128.795 88.0261 126.466 92.4953C125.311 94.7105 123.307 94.3422 123.307 94.3422C124.603 95.6627 125.152 95.505 126.351 94.479C127.55 93.4529 128.242 91.8341 129.026 89.8045C129.81 87.7753 130.202 84.7199 130.386 83.3744C130.571 82.0293 130.848 75.2571 130.848 75.2571C130.848 75.2571 131.124 65.8399 131.216 63.195C131.309 60.5499 131.568 60.208 131.568 60.208" fill="black" fill-opacity="0.25"/>
</g>
<path fill-rule="evenodd" clip-rule="evenodd" d="M131.948 60.4458C131.906 60.5905 131.87 60.7513 131.841 60.9335C131.762 61.4372 131.751 61.5193 131.704 62.2749L131.695 62.5678L126.651 60.9781C126.855 60.2136 127.047 59.4742 127.173 58.9419L131.948 60.4458Z" fill="#5DBBFF"/>
<path d="M127.194 58.4961C127.247 58.5001 127.26 58.5024 127.311 58.5167L132.085 60.0206C132.574 60.1926 132.238 61.0373 132.171 62.0502C132.17 62.0648 132.156 62.2852 132.156 62.2956C132.15 62.428 132.145 62.6107 132.145 62.6107C132.119 62.8093 132.077 62.8193 132.024 62.8745C131.907 62.9972 131.766 63.0513 131.558 62.9934L126.515 61.4038C126.428 61.3734 126.416 61.3615 126.383 61.3368C126.094 61.1244 126.265 60.6788 126.365 60.3003C126.492 59.8143 126.617 59.3279 126.734 58.8393C126.734 58.8393 126.894 58.4926 127.194 58.4961ZM127.476 59.6041C127.387 59.9581 127.295 60.3116 127.202 60.6649L131.272 61.9657C131.278 61.8759 131.284 61.786 131.291 61.6964C131.317 61.3752 131.345 61.1455 131.414 60.7547L127.499 59.5132C127.491 59.5435 127.484 59.5737 127.476 59.6041Z" fill="#3B1B6A"/>
<path d="M102.971 92.4726C103.047 92.4779 103.116 92.5116 103.167 92.5684L105.568 95.3928C105.748 95.6175 105.419 96.0257 105.16 95.7398L102.759 92.9155C102.458 92.5373 102.789 92.4714 102.971 92.4726Z" fill="#3B1B6A"/>
<path d="M104.629 92.5849C104.895 92.5994 105.153 93.0547 105.424 93.3839C105.592 93.6021 105.232 93.9624 105.016 93.7308C104.639 93.302 104.116 92.7959 104.504 92.6108C104.544 92.592 104.566 92.5836 104.629 92.5849Z" fill="#3B1B6A"/>
<path d="M102.491 93.7416C102.559 93.7483 102.622 93.7782 102.67 93.8276C103.112 94.3235 103.531 94.8397 103.961 95.3457C104.135 95.5602 103.786 95.9323 103.561 95.7022C103.119 95.2063 102.7 94.6901 102.27 94.1841C102.132 94.014 102.237 93.7286 102.491 93.7416Z" fill="#3B1B6A"/>
<path fill-rule="evenodd" clip-rule="evenodd" d="M78.1428 86.831C78.1428 86.831 77.5395 88.4546 75.7168 87.9902C76.5225 86.7792 76.9741 85.9629 76.9741 85.9629C77.0228 85.9986 77.0734 86.0343 77.124 86.0681C77.1601 86.0951 77.1981 86.1201 77.2324 86.1469C77.3661 86.2415 77.4907 86.3326 77.6099 86.4182C77.8086 86.5648 77.982 86.6988 78.1284 86.8185C78.1338 86.8221 78.1374 86.8272 78.1428 86.831Z" fill="#5DBBFF"/>
<path d="M76.9911 85.5171C77.2956 85.535 77.4624 85.7595 77.6932 85.9256L77.8789 86.0596C78.0196 86.1639 78.1591 86.2694 78.2964 86.3779C78.5294 86.5622 78.6624 86.8055 78.5034 87.1304C78.0301 88.0984 76.9154 88.6911 75.7742 88.4616C75.3481 88.376 75.1122 88.0961 75.5549 87.4188C75.9113 86.8701 76.2603 86.3164 76.5795 85.7468C76.5795 85.7468 76.7221 85.5136 76.9911 85.5171ZM77.1128 86.6229C76.9184 86.9491 76.7183 87.2718 76.5143 87.5922C76.5143 87.5922 77.1963 87.4924 77.563 86.9594C77.563 86.9594 77.1437 86.5708 77.1128 86.6229Z" fill="#3B1B6A"/>
<path fill-rule="evenodd" clip-rule="evenodd" d="M117.311 87.9918C115.448 87.9918 115.126 86.6845 115.126 86.6845C115.126 86.6845 115.348 86.4988 115.74 86.1915C115.876 86.0844 116.033 85.9629 116.208 85.8306C116.157 85.8808 116.105 85.9254 116.053 85.9629C116.053 85.9629 116.375 86.6095 117.311 87.9918Z" fill="#5DBBFF"/>
<path d="M116.23 85.3846C116.539 85.4055 116.753 85.7534 116.608 86.0388C116.941 86.6207 117.31 87.1861 117.687 87.7437C117.687 87.7437 117.787 87.9103 117.755 88.0763C117.666 88.5332 116.872 88.4826 116.25 88.2872C115.516 88.0564 114.775 87.5147 114.678 86.7395C114.63 86.355 115.119 86.1101 115.459 85.8422C115.662 85.6829 115.934 85.476 115.934 85.476C116.021 85.4133 116.078 85.3808 116.23 85.3846ZM115.884 86.6497C115.794 86.7206 115.678 86.8135 115.678 86.8135C115.836 87.066 116.082 87.2575 116.36 87.3765C116.36 87.3765 116.137 87.0142 115.941 86.6843C115.941 86.6843 115.933 86.6111 115.884 86.6497Z" fill="#3B1B6A"/>
<path d="M180.369 32.0284C180.607 32.045 180.715 32.4108 180.472 32.5368C179.984 32.7628 179.486 32.9667 178.993 33.1814C178.743 33.2833 178.439 32.8658 178.767 32.6953C179.3 32.449 179.822 32.0153 180.369 32.0284Z" fill="#000E87"/>
<path d="M176.039 29.0949C176.176 29.1058 176.287 29.2218 176.292 29.3613C176.287 29.8648 176.26 30.368 176.244 30.8714C176.229 31.1335 175.722 31.2555 175.708 30.8669C175.712 30.3633 175.74 29.8601 175.756 29.3567C175.764 29.2075 175.863 29.0893 176.039 29.0949Z" fill="#000E87"/>
<path d="M178.436 30.0709C178.623 30.0842 178.749 30.3131 178.647 30.4833C178.343 30.9419 178.02 31.387 177.706 31.8387C177.542 32.0643 177.094 31.8191 177.259 31.5432C177.563 31.0847 177.886 30.6396 178.2 30.1878C178.254 30.1128 178.339 30.0684 178.436 30.0709Z" fill="#000E87"/>
<path fill-rule="evenodd" clip-rule="evenodd" d="M171.506 43.083V53.2477C171.506 53.8993 171.25 54.4912 170.832 54.9313C170.378 55.4106 169.732 55.7101 169.016 55.7101H151.724C151.021 55.7101 150.385 55.4218 149.933 54.958C149.5 54.5159 149.233 53.9125 149.233 53.2477V43.083C149.233 42.4632 149.466 41.8959 149.85 41.4629C150.305 40.9469 150.977 40.6206 151.724 40.6206H169.016C169.778 40.6206 170.461 40.9602 170.918 41.4947C171.285 41.9236 171.506 42.4777 171.506 43.083Z" fill="#FAE233"/>
<path d="M169.058 40.1745C170.578 40.2061 171.931 41.5007 171.957 43.0496C171.976 46.461 171.977 49.8723 171.957 53.2837C171.929 54.7863 170.634 56.1256 169.055 56.1565C163.278 56.1942 157.5 56.1567 151.722 56.1567C150.194 56.1468 148.811 54.8608 148.782 53.2844C148.761 49.8727 148.762 46.4606 148.782 43.0489C148.808 41.5514 150.107 40.2066 151.682 40.1745C157.474 40.1348 163.266 40.1343 169.058 40.1745ZM151.725 41.0672C150.658 41.0745 149.704 41.9736 149.685 43.0593C149.665 46.4638 149.664 49.8687 149.685 53.2733C149.705 54.3098 150.603 55.2425 151.696 55.2634C157.479 55.3004 163.261 55.3013 169.043 55.2634C170.09 55.2429 171.033 54.3627 171.054 53.2728C171.074 49.8686 171.073 46.464 171.054 43.0596C171.036 42.016 170.13 41.09 169.045 41.0674C163.272 41.0274 157.498 41.0672 151.725 41.0672Z" fill="#000E87"/>
<path fill-rule="evenodd" clip-rule="evenodd" d="M170.831 54.9314C170.378 55.4106 169.731 55.7101 169.015 55.7101H151.724C151.021 55.7101 150.385 55.4218 149.933 54.958L157.407 49.4093V49.4083L160.4 47.187L170.831 54.9314Z" fill="#FAE233"/>
<path d="M160.458 46.7441C160.54 46.7599 160.557 46.7563 160.671 46.8299L171.103 54.5742C171.358 54.7904 171.281 55.1597 170.922 55.4621C170.406 55.8978 169.736 56.143 169.055 56.1564C163.278 56.1939 157.5 56.1566 151.723 56.1566C150.913 56.1514 150.054 55.8622 149.572 55.2255C149.433 55.0415 149.471 54.7632 149.662 54.6008C152.154 52.7511 154.774 51.0595 157.136 49.0511L160.129 46.8299C160.129 46.8299 160.151 46.7245 160.458 46.7441ZM157.689 49.7579L150.667 54.9715C150.974 55.1583 151.334 55.2564 151.697 55.2633C157.479 55.3003 163.262 55.301 169.044 55.2633C169.412 55.2562 169.775 55.152 170.089 54.9615L160.4 47.7453C159.496 48.4161 158.592 49.087 157.689 49.7579Z" fill="#000E87"/>
<path fill-rule="evenodd" clip-rule="evenodd" d="M170.918 41.4947L162.467 49.8014C161.323 50.9259 159.476 50.9259 158.333 49.8014L149.85 41.4629C150.305 40.9469 150.976 40.6206 151.724 40.6206H169.016C169.778 40.6206 170.461 40.9602 170.918 41.4947Z" fill="#FAE233"/>
<path d="M169.058 40.1741C169.922 40.192 170.839 40.5476 171.298 41.2528C171.408 41.4228 171.377 41.6527 171.236 41.8111L162.784 50.1186C161.529 51.338 159.327 51.3923 158.015 50.1186L149.531 41.7793C148.999 41.1851 150.601 40.1961 151.683 40.1741C157.474 40.1343 163.266 40.1338 169.058 40.1741ZM151.725 41.0668C151.285 41.0699 150.854 41.2115 150.501 41.4701L150.499 41.4716C153.224 44.1499 155.933 46.8446 158.674 49.5067C158.803 49.6285 158.832 49.6483 158.914 49.709C159.851 50.4053 161.287 50.3213 162.15 49.4834L170.274 41.4973C169.926 41.2274 169.489 41.0763 169.045 41.067C163.272 41.0268 157.499 41.0668 151.725 41.0668Z" fill="#000E87"/>
<g style="mix-blend-mode:overlay">
<path d="M149.915 42.1562L154.858 47.0168L149.685 44.9671L149.687 43.4466C149.687 43.4466 149.6 42.6674 149.915 42.1562Z" fill="#000E87" fill-opacity="0.25"/>
</g>
<g style="mix-blend-mode:overlay">
<path d="M171.055 43.4788V44.9629L163.783 49.1355L170.846 42.1943C170.971 42.4235 171.009 42.62 171.04 42.8365C171.04 42.8365 171.052 43.0069 171.053 43.1215C171.054 43.2364 171.055 43.4788 171.055 43.4788Z" fill="#000E87" fill-opacity="0.25"/>
</g>
<path d="M161.43 47.8976C161.554 47.907 161.569 47.9385 161.605 47.9722C162.074 48.4193 160.226 49.3917 159.16 48.3562C159.16 48.3562 159.064 48.2494 159.081 48.1271C159.112 47.9176 159.371 47.8243 159.585 48.0169C160.043 48.4181 160.787 48.3782 161.238 47.964C161.238 47.964 161.285 47.8944 161.43 47.8976Z" fill="#000E87"/>
<path fill-rule="evenodd" clip-rule="evenodd" d="M177.86 39.8885C177.86 43.358 175.015 46.1707 171.506 46.1707C167.997 46.1707 165.152 43.358 165.152 39.8885C165.152 36.4189 167.997 33.6064 171.506 33.6064C175.015 33.6064 177.86 36.4189 177.86 39.8885Z" fill="#FA336F"/>
<path d="M171.545 33.0881C174.626 33.1177 177.523 35.5129 178.11 38.6059C178.526 40.8016 177.79 43.1933 176.201 44.7617C174.345 46.5948 171.401 47.2045 168.959 46.1947C166.136 45.0276 164.338 41.7438 164.878 38.6895C165.418 35.6393 168.23 33.1598 171.372 33.0892C171.429 33.0883 171.487 33.0881 171.545 33.0881ZM171.464 33.9913C168.798 34.017 166.299 36.0814 165.778 38.7401C165.057 42.4133 168.426 46.4729 172.57 45.6961C174.961 45.2481 176.961 43.1348 177.286 40.6816C177.719 37.4048 175.057 34.0251 171.539 33.9913C171.514 33.9913 171.489 33.9913 171.464 33.9913Z" fill="#000E87"/>
<path d="M172.241 39.8847C172.241 39.4448 172.177 39.1047 172.048 38.8647C171.919 38.6248 171.735 38.5047 171.498 38.5047C171.26 38.5047 171.079 38.6248 170.956 38.8647C170.831 39.1047 170.77 39.4448 170.77 39.8847C170.77 40.3246 170.831 40.666 170.956 40.9084C171.079 41.1509 171.26 41.2722 171.498 41.2722C171.735 41.2722 171.919 41.1509 172.048 40.9084C172.177 40.666 172.241 40.3246 172.241 39.8847ZM173.538 39.8847C173.538 40.2696 173.487 40.612 173.387 40.9121C173.285 41.212 173.145 41.4633 172.966 41.6659C172.786 41.8682 172.571 42.022 172.321 42.127C172.071 42.2321 171.799 42.2846 171.505 42.2846C171.207 42.2846 170.933 42.2321 170.682 42.127C170.432 42.022 170.217 41.8682 170.038 41.6659C169.858 41.4633 169.719 41.212 169.621 40.9121C169.522 40.612 169.473 40.2696 169.473 39.8847C169.473 39.4996 169.522 39.1585 169.621 38.8609C169.719 38.5635 169.858 38.3135 170.038 38.1109C170.217 37.9085 170.432 37.7547 170.682 37.6497C170.933 37.5447 171.207 37.4922 171.505 37.4922C171.799 37.4922 172.071 37.5447 172.321 37.6497C172.571 37.7547 172.786 37.9085 172.966 38.1109C173.145 38.3135 173.285 38.5635 173.387 38.8609C173.487 39.1585 173.538 39.4996 173.538 39.8847Z" fill="white"/>
<path d="M180.399 133.649C180.773 133.703 180.778 133.86 180.803 134.03C180.84 134.284 180.621 134.528 180.356 134.541H169.473C168.994 134.518 168.858 133.676 169.473 133.647H180.356C180.37 133.648 180.385 133.649 180.399 133.649Z" fill="#334BFA"/>
<path d="M165.325 133.682C165.471 133.778 165.472 133.78 165.57 133.924L165.604 134.094L165.57 134.265L165.472 134.41L165.325 134.507L165.152 134.541H39.0952L38.9223 134.507C38.7769 134.411 38.7752 134.409 38.6779 134.265L38.6436 134.094L38.6779 133.924L38.7758 133.779C38.9214 133.683 38.9236 133.682 39.0952 133.648H165.152C165.21 133.659 165.267 133.671 165.325 133.682Z" fill="#334BFA"/>
<path d="M35.5356 133.649C36.0217 133.711 35.9785 134.005 35.9388 134.188C35.8951 134.388 35.7608 134.529 35.4973 134.541H27.1812C26.9306 134.53 26.9097 134.465 26.8421 134.389C26.6121 134.131 26.7715 133.665 27.1812 133.647H35.4973C35.5101 133.648 35.5228 133.649 35.5356 133.649Z" fill="#334BFA"/>
</svg>
