<svg width="22" height="22" viewBox="0 0 22 22" fill="none" xmlns="http://www.w3.org/2000/svg">
<path fill-rule="evenodd" clip-rule="evenodd" d="M11 1.75C5.89137 1.75 1.75 5.89137 1.75 11C1.75 16.1086 5.89137 20.25 11 20.25C16.1086 20.25 20.25 16.1086 20.25 11C20.25 5.89137 16.1086 1.75 11 1.75ZM0.25 11C0.25 5.06294 5.06294 0.25 11 0.25C16.9371 0.25 21.75 5.06294 21.75 11C21.75 16.9371 16.9371 21.75 11 21.75C5.06294 21.75 0.25 16.9371 0.25 11ZM11 6.39587C11.4142 6.39587 11.75 6.73166 11.75 7.14587V12.1459C11.75 12.5601 11.4142 12.8959 11 12.8959C10.5858 12.8959 10.25 12.5601 10.25 12.1459V7.14587C10.25 6.73166 10.5858 6.39587 11 6.39587ZM11 16.1459C11.5523 16.1459 12 15.6982 12 15.1459C12 14.5936 11.5523 14.1459 11 14.1459C10.4477 14.1459 10 14.5936 10 15.1459C10 15.6982 10.4477 16.1459 11 16.1459Z" fill="#FA336F"/>
</svg>
