<svg width="15" height="15" viewBox="0 0 15 15" fill="none" xmlns="http://www.w3.org/2000/svg">
<path d="M7.49999 15C11.637 15 15 11.637 15 7.50001C15 3.36602 11.637 0 7.49999 0C3.36599 0 0 3.36602 0 7.50001C0 11.637 3.36599 15 7.49999 15ZM4.81157 7.86403L8.2213 2.22673C8.29161 2.11027 8.43195 2.05579 8.56217 2.09403C8.69283 2.13225 8.7813 2.25353 8.7778 2.38962L8.67204 6.55448H9.93282C10.0419 6.55448 10.1426 6.61365 10.1953 6.70916C10.2482 6.80496 10.245 6.92156 10.187 7.01384L6.56794 12.7789C6.51167 12.8685 6.4147 12.9195 6.31379 12.9195C6.27965 12.9195 6.24522 12.9137 6.21169 12.9016C6.07896 12.8536 5.99766 12.7194 6.01641 12.5797L6.58917 8.31932H5.06823C4.95996 8.31932 4.86007 8.261 4.80688 8.16668C4.75372 8.07233 4.75549 7.95662 4.81157 7.86403Z" fill="white"/>
</svg>
