<svg width="24" height="24" viewBox="0 0 24 24" fill="none" xmlns="http://www.w3.org/2000/svg">
<path fill-rule="evenodd" clip-rule="evenodd" d="M1.46967 1.96967C1.76256 1.67678 2.23744 1.67678 2.53033 1.96967L4.84193 4.28127L18.0367 17.4761L21.5303 20.9697C21.8232 21.2626 21.8232 21.7374 21.5303 22.0303C21.2374 22.3232 20.7626 22.3232 20.4697 22.0303L17.4737 19.0343C16.3981 19.9503 15.321 20.6897 14.4213 21.2224C13.8965 21.5331 13.424 21.7783 13.0398 21.9487C12.8484 22.0336 12.6701 22.1038 12.5126 22.1542C12.3746 22.1984 12.186 22.25 12 22.25C11.8167 22.25 11.6316 22.2 11.4962 22.157C11.3419 22.1081 11.1677 22.04 10.9812 21.9579C10.6068 21.7932 10.1469 21.5562 9.63581 21.2561C8.61307 20.6554 7.35322 19.7829 6.12491 18.6839C3.69522 16.51 1.25 13.3218 1.25 9.49999C1.25 7.59851 2.03635 5.96156 3.21886 4.77952L1.46967 3.03033C1.17678 2.73744 1.17678 2.26256 1.46967 1.96967ZM4.27939 5.84005C3.35245 6.76583 2.75 8.03372 2.75 9.49999C2.75 12.6782 4.80479 15.49 7.1251 17.5661C8.27179 18.592 9.44944 19.4071 10.3954 19.9626C10.8687 20.2406 11.276 20.4489 11.5853 20.585C11.7405 20.6533 11.8622 20.6995 11.9496 20.7272C11.9702 20.7337 11.9869 20.7386 12 20.7422C12.0141 20.7383 12.0323 20.733 12.0551 20.7257C12.1457 20.6967 12.2717 20.6484 12.4318 20.5774C12.7508 20.436 13.1705 20.2198 13.657 19.9317C14.4654 19.4531 15.4359 18.7893 16.4094 17.97L4.27939 5.84005ZM15.9891 4.24993C14.6789 4.23097 13.4503 4.67673 12.624 5.91605C12.4849 6.12469 12.2508 6.25002 12 6.25002C11.7492 6.25002 11.5151 6.12469 11.376 5.91605C10.5543 4.68355 9.30338 4.25001 8 4.25001C7.85633 4.25001 7.71228 4.25667 7.56828 4.26983C7.15579 4.30754 6.79083 4.00372 6.75311 3.59123C6.7154 3.17874 7.01922 2.81377 7.43172 2.77606C7.62037 2.75881 7.80999 2.75001 8 2.75001C9.37536 2.75001 10.86 3.14616 11.9984 4.30946C13.1283 3.14408 14.5981 2.72964 16.0109 2.75008C19.3659 2.79863 22.75 5.53724 22.75 9.49999C22.75 11.8172 21.8486 13.9002 20.6129 15.6525C20.5431 15.7516 20.4721 15.8497 20.4001 15.9467C20.1534 16.2795 19.6836 16.3492 19.3509 16.1024C19.0182 15.8557 18.9485 15.386 19.1952 15.0533C19.2603 14.9656 19.3242 14.8772 19.3871 14.7881C20.5044 13.2036 21.25 11.4177 21.25 9.49999C21.25 6.46278 18.6341 4.2882 15.9891 4.24993Z" fill="#FA336F"/>
</svg>
