<svg width="24" height="22" viewBox="0 0 24 22" fill="none" xmlns="http://www.w3.org/2000/svg">
<path d="M5.36607 19.7615L5.92135 19.2573H5.92135L5.36607 19.7615ZM6.5 20.5262L6.125 21.1758H6.125L6.5 20.5262ZM4.85291 18.2612L5.60063 18.3196L4.85291 18.2612ZM5.28094 16.9621L4.58671 16.6783H4.58671L5.28094 16.9621ZM5.07824 15.0138L4.429 15.3893L4.42978 15.3906L5.07824 15.0138ZM5.06149 14.9848L4.41146 15.359L4.41225 15.3603L5.06149 14.9848ZM3.47707 13.8378L3.57841 13.0947H3.57841L3.47707 13.8378ZM2.13807 13.559L1.81485 14.2358L1.81485 14.2358L2.13807 13.559ZM1.09535 12.3644L1.8096 12.1356H1.8096L1.09535 12.3644ZM1.09535 9.63564L1.8096 9.86446L1.8096 9.86446L1.09535 9.63564ZM2.13807 8.44108L1.81485 7.76431H1.81485L2.13807 8.44108ZM3.47708 8.16226L3.57841 8.90538H3.57841L3.47708 8.16226ZM5.06148 7.01524L4.41224 6.63975L4.41146 6.64112L5.06148 7.01524ZM5.07823 6.98628L4.42978 6.60944L4.42899 6.61079L5.07823 6.98628ZM5.28094 5.03793L5.97527 4.75409L5.9703 4.74249L5.28094 5.03793ZM5.28094 5.03792L4.57609 5.29423C4.58089 5.30741 4.58605 5.32046 4.59158 5.33336L5.28094 5.03792ZM5.28093 5.0379L5.98577 4.7816C5.98242 4.77236 5.97888 4.7632 5.97516 4.7541L5.28093 5.0379ZM4.85291 3.7389L5.60063 3.68044V3.68044L4.85291 3.7389ZM5.36607 2.23861L4.81078 1.73447L5.36607 2.23861ZM6.5 1.47383L6.875 2.12335C6.88894 2.1153 6.90262 2.1068 6.91602 2.09787L6.5 1.47383ZM6.5 1.47383L6.13751 0.817243C6.11922 0.827341 6.10136 0.838199 6.08397 0.849788L6.5 1.47383ZM6.50001 1.47382L6.86249 2.13041C6.86669 2.12809 6.87086 2.12574 6.875 2.12334L6.50001 1.47382ZM7.72928 0.874207L7.88824 1.60717L7.72928 0.874207ZM9.28515 1.17995L9.70964 0.56164V0.56164L9.28515 1.17995ZM10.1961 2.20015L10.789 1.74083V1.74083L10.1961 2.20015ZM11.9837 3.00005L11.9829 2.25005L11.9822 2.25005L11.9837 3.00005ZM12 3.00004L12.0007 2.25003L11.9992 2.25004L12 3.00004ZM12.0161 3.00005L12.0175 2.25005L12.0168 2.25005L12.0161 3.00005ZM13.8039 2.2L14.3968 2.65932V2.65932L13.8039 2.2ZM14.7148 1.1798L14.2903 0.561493V0.561493L14.7148 1.1798ZM16.2707 0.87406L16.1118 1.60702L16.2707 0.87406ZM17.5 1.47368L17.125 2.1232V2.1232L17.5 1.47368ZM18.6339 2.23846L19.1892 1.73432L19.1892 1.73432L18.6339 2.23846ZM19.1471 3.73876L18.3994 3.68029V3.68029L19.1471 3.73876ZM18.7191 5.03776L18.0248 4.75396C18.0163 4.77469 18.0088 4.79579 18.0022 4.8172L18.7191 5.03776ZM18.719 5.03778L19.4133 5.32158C19.4218 5.30085 19.4293 5.27975 19.4359 5.25835L18.719 5.03778ZM18.9218 6.9863L19.571 6.61082L19.5702 6.60946L18.9218 6.9863ZM18.9385 7.01523L19.5885 6.64111L19.5878 6.63976L18.9385 7.01523ZM20.5229 8.16226L20.4216 8.90538L20.5229 8.16226ZM21.8619 8.44109L21.5387 9.11786L21.8619 8.44109ZM22.9046 9.63564L22.1904 9.86446V9.86446L22.9046 9.63564ZM22.9046 12.3644L22.1904 12.1356V12.1356L22.9046 12.3644ZM21.8619 13.559L22.1852 14.2358L22.1852 14.2358L21.8619 13.559ZM20.5229 13.8378L20.4216 13.0947H20.4216L20.5229 13.8378ZM18.9385 14.9849L19.5878 15.3603L19.5885 15.359L18.9385 14.9849ZM18.9218 15.0138L19.5702 15.3906L19.571 15.3892L18.9218 15.0138ZM18.7191 16.9623L19.4133 16.6785V16.6785L18.7191 16.9623ZM19.1471 18.2613L19.8948 18.2028V18.2028L19.1471 18.2613ZM18.6339 19.7616L19.1892 20.2658V20.2657L18.6339 19.7616ZM17.5 20.5264L17.875 21.1759L17.5 20.5264ZM16.2707 21.126L16.1118 20.393H16.1118L16.2707 21.126ZM14.7148 20.8203L15.1393 20.202H15.1393L14.7148 20.8203ZM13.8039 19.8001L14.3968 19.3407L13.8039 19.8001ZM12.0161 19L12.0168 19.75L12.0175 19.75L12.0161 19ZM12 19L11.9993 19.75L12.0007 19.75L12 19ZM11.9837 19L11.9822 19.75L11.983 19.75L11.9837 19ZM10.1961 19.7999L9.60323 19.3406L9.60323 19.3406L10.1961 19.7999ZM9.28515 20.8201L9.70964 21.4384L9.70965 21.4384L9.28515 20.8201ZM7.72928 21.1259L7.88824 20.3929H7.88823L7.72928 21.1259ZM4.81078 20.2656C5.11916 20.6053 5.55685 20.8477 6.125 21.1758L6.875 19.8767C6.21135 19.4936 6.03315 19.3805 5.92135 19.2573L4.81078 20.2656ZM4.10519 18.2027C4.04612 18.9582 4.30141 19.7046 4.81078 20.2656L5.92135 19.2573C5.68982 19.0023 5.57378 18.663 5.60063 18.3196L4.10519 18.2027ZM4.58671 16.6783C4.33846 17.2856 4.14096 17.7453 4.10519 18.2027L5.60063 18.3196C5.61359 18.1538 5.6852 17.9553 5.97517 17.2459L4.58671 16.6783ZM4.42978 15.3906C4.68778 15.8346 4.73859 16.3068 4.58671 16.6783L5.97517 17.2459C6.34341 16.3452 6.15931 15.3814 5.72669 14.637L4.42978 15.3906ZM4.41225 15.3603L4.429 15.3893L5.72748 14.6383L5.71073 14.6094L4.41225 15.3603ZM3.37574 14.5809C3.77258 14.6351 4.15563 14.9145 4.41147 15.359L5.71152 14.6107C5.28285 13.8659 4.54121 13.226 3.57841 13.0947L3.37574 14.5809ZM1.81485 14.2358C2.22882 14.4335 2.72572 14.4923 3.37574 14.5809L3.57841 13.0947C2.81913 12.9912 2.61138 12.9539 2.46129 12.8822L1.81485 14.2358ZM0.381112 12.5933C0.612306 13.3149 1.13104 13.9092 1.81485 14.2358L2.46129 12.8822C2.15047 12.7338 1.91468 12.4636 1.8096 12.1356L0.381112 12.5933ZM0.25 11C0.25 11.6561 0.241147 12.1564 0.381112 12.5933L1.8096 12.1356C1.75885 11.9772 1.75 11.7663 1.75 11H0.25ZM0.381112 9.40682C0.241147 9.84371 0.25 10.344 0.25 11H1.75C1.75 10.2337 1.75885 10.0229 1.8096 9.86446L0.381112 9.40682ZM1.81485 7.76431C1.13104 8.09089 0.612306 8.68516 0.381112 9.40682L1.8096 9.86446C1.91469 9.53643 2.15047 9.26631 2.46129 9.11786L1.81485 7.76431ZM3.37574 7.41913C2.72572 7.50777 2.22882 7.5666 1.81485 7.76431L2.46129 9.11786C2.61138 9.04618 2.81913 9.00892 3.57841 8.90538L3.37574 7.41913ZM4.41146 6.64112C4.15562 7.08563 3.77258 7.36502 3.37574 7.41913L3.57841 8.90538C4.54121 8.77409 5.28285 8.13415 5.71151 7.38935L4.41146 6.64112ZM4.42899 6.61079L4.41224 6.63975L5.71073 7.39072L5.72748 7.36176L4.42899 6.61079ZM4.58671 5.32173C4.73859 5.69325 4.68778 6.16547 4.42978 6.60944L5.72669 7.36311C6.15931 6.61867 6.34341 5.65491 5.97517 4.75413L4.58671 5.32173ZM4.59158 5.33336L4.59158 5.33337L5.9703 4.74249L5.97029 4.74248L4.59158 5.33336ZM4.57609 5.29421L4.57609 5.29423L5.98578 4.78161L5.98577 4.7816L4.57609 5.29421ZM4.10519 3.79737C4.14096 4.25473 4.33846 4.71447 4.5867 5.32171L5.97516 4.7541C5.68519 4.04479 5.61359 3.84625 5.60063 3.68044L4.10519 3.79737ZM4.81078 1.73447C4.30141 2.29551 4.04612 3.04189 4.10519 3.79737L5.60063 3.68044C5.57378 3.33703 5.68982 2.99777 5.92135 2.74275L4.81078 1.73447ZM6.125 0.82431C5.55685 1.15233 5.11916 1.39481 4.81078 1.73447L5.92135 2.74275C6.03315 2.61961 6.21135 2.5065 6.875 2.12335L6.125 0.82431ZM6.08397 0.849788L6.08397 0.849791L6.91602 2.09787L6.91602 2.09786L6.08397 0.849788ZM6.13752 0.81724L6.13751 0.817243L6.86249 2.13041L6.86249 2.13041L6.13752 0.81724ZM7.57032 0.141246C7.12198 0.238478 6.69315 0.496288 6.12501 0.824304L6.875 2.12334C7.53864 1.74019 7.72569 1.64242 7.88824 1.60717L7.57032 0.141246ZM9.70964 0.56164C9.08492 0.132739 8.31089 -0.0193627 7.57032 0.141246L7.88824 1.60717C8.22486 1.53416 8.57669 1.6033 8.86066 1.79826L9.70964 0.56164ZM10.789 1.74083C10.3872 1.22221 10.0879 0.821296 9.70964 0.56164L8.86066 1.79826C8.99777 1.89239 9.13392 2.05368 9.60323 2.65947L10.789 1.74083ZM11.9822 2.25005C11.4695 2.25108 11.0352 2.05855 10.789 1.74083L9.60323 2.65947C10.1985 3.42787 11.1239 3.75177 11.9852 3.75005L11.9822 2.25005ZM11.9992 2.25004L11.9829 2.25005L11.9844 3.75005L12.0008 3.75004L11.9992 2.25004ZM12.0168 2.25005L12.0007 2.25004L11.9993 3.75004L12.0153 3.75005L12.0168 2.25005ZM13.211 1.74068C12.9648 2.05849 12.5303 2.25106 12.0175 2.25005L12.0146 3.75005C12.8759 3.75174 13.8014 3.42781 14.3968 2.65932L13.211 1.74068ZM14.2903 0.561493C13.9121 0.821148 13.6127 1.22206 13.211 1.74068L14.3968 2.65932C14.8661 2.05353 15.0022 1.89225 15.1393 1.79811L14.2903 0.561493ZM16.4297 0.141098C15.6891 -0.0195104 14.9151 0.132592 14.2903 0.561493L15.1393 1.79811C15.4233 1.60315 15.7751 1.53402 16.1118 1.60702L16.4297 0.141098ZM17.875 0.824162C17.3068 0.496143 16.878 0.23833 16.4297 0.141098L16.1118 1.60702C16.2743 1.64227 16.4614 1.74005 17.125 2.1232L17.875 0.824162ZM19.1892 1.73432C18.8808 1.39466 18.4431 1.15218 17.875 0.824162L17.125 2.1232C17.7886 2.50635 17.9668 2.61946 18.0786 2.7426L19.1892 1.73432ZM19.8948 3.79722C19.9539 3.04174 19.6986 2.29537 19.1892 1.73432L18.0786 2.7426C18.3102 2.99763 18.4262 3.33689 18.3994 3.68029L19.8948 3.79722ZM19.4133 5.32157C19.6615 4.71432 19.859 4.25459 19.8948 3.79722L18.3994 3.68029C18.3864 3.8461 18.3148 4.04465 18.0248 4.75396L19.4133 5.32157ZM19.4359 5.25835L19.4359 5.25833L18.0022 4.8172L18.0022 4.81722L19.4359 5.25835ZM19.5702 6.60946C19.3122 6.16544 19.2614 5.69316 19.4133 5.32158L18.0248 4.75398C17.6566 5.65482 17.8407 6.61864 18.2733 7.36313L19.5702 6.60946ZM19.5878 6.63976L19.571 6.61082L18.2725 7.36177L18.2893 7.3907L19.5878 6.63976ZM20.6243 7.41914C20.2274 7.36502 19.8444 7.08563 19.5885 6.64111L18.2885 7.38935C18.7171 8.13415 19.4588 8.77409 20.4216 8.90538L20.6243 7.41914ZM22.1852 7.76431C21.7712 7.5666 21.2743 7.50777 20.6243 7.41914L20.4216 8.90538C21.1809 9.00892 21.3886 9.04618 21.5387 9.11786L22.1852 7.76431ZM23.6189 9.40682C23.3877 8.68516 22.869 8.09089 22.1852 7.76431L21.5387 9.11786C21.8495 9.26631 22.0853 9.53643 22.1904 9.86446L23.6189 9.40682ZM23.75 11C23.75 10.344 23.7589 9.84371 23.6189 9.40682L22.1904 9.86446C22.2411 10.0229 22.25 10.2337 22.25 11H23.75ZM23.6189 12.5933C23.7589 12.1564 23.75 11.6561 23.75 11H22.25C22.25 11.7663 22.2411 11.9772 22.1904 12.1356L23.6189 12.5933ZM22.1852 14.2358C22.869 13.9092 23.3877 13.3149 23.6189 12.5933L22.1904 12.1356C22.0853 12.4636 21.8495 12.7338 21.5387 12.8822L22.1852 14.2358ZM20.6243 14.5809C21.2743 14.4923 21.7712 14.4335 22.1852 14.2358L21.5387 12.8822C21.3886 12.9539 21.1809 12.9912 20.4216 13.0947L20.6243 14.5809ZM19.5885 15.359C19.8444 14.9145 20.2274 14.6351 20.6243 14.5809L20.4216 13.0947C19.4588 13.226 18.7171 13.8659 18.2885 14.6107L19.5885 15.359ZM19.571 15.3892L19.5878 15.3603L18.2892 14.6094L18.2725 14.6383L19.571 15.3892ZM19.4133 16.6785C19.2614 16.3069 19.3122 15.8346 19.5702 15.3906L18.2733 14.6369C17.8407 15.3814 17.6566 16.3453 18.0248 17.2461L19.4133 16.6785ZM19.8948 18.2028C19.859 17.7455 19.6615 17.2857 19.4133 16.6785L18.0248 17.2461C18.3148 17.9554 18.3864 18.154 18.3994 18.3198L19.8948 18.2028ZM19.1892 20.2657C19.6986 19.7047 19.9539 18.9583 19.8948 18.2028L18.3994 18.3198C18.4262 18.6632 18.3102 19.0024 18.0786 19.2575L19.1892 20.2657ZM17.875 21.1759C18.4431 20.8479 18.8808 20.6054 19.1892 20.2658L18.0786 19.2575C17.9668 19.3806 17.7886 19.4937 17.125 19.8769L17.875 21.1759ZM16.4297 21.859C16.878 21.7617 17.3069 21.5039 17.875 21.1759L17.125 19.8769C16.4614 20.26 16.2743 20.3578 16.1118 20.393L16.4297 21.859ZM14.2903 21.4386C14.9151 21.8675 15.6891 22.0196 16.4297 21.859L16.1118 20.393C15.7751 20.4661 15.4233 20.3969 15.1393 20.202L14.2903 21.4386ZM13.211 20.2594C13.6127 20.778 13.9121 21.1789 14.2903 21.4386L15.1393 20.202C15.0022 20.1078 14.8661 19.9465 14.3968 19.3407L13.211 20.2594ZM12.0175 19.75C12.5303 19.749 12.9648 19.9416 13.211 20.2594L14.3968 19.3407C13.8014 18.5723 12.8759 18.2483 12.0146 18.25L12.0175 19.75ZM12.0007 19.75L12.0168 19.75L12.0153 18.25L11.9993 18.25L12.0007 19.75ZM11.983 19.75L11.9993 19.75L12.0007 18.25L11.9844 18.25L11.983 19.75ZM10.789 20.2592C11.0352 19.9415 11.4695 19.749 11.9822 19.75L11.9852 18.25C11.1239 18.2483 10.1985 18.5722 9.60323 19.3406L10.789 20.2592ZM9.70965 21.4384C10.0879 21.1788 10.3872 20.7779 10.789 20.2592L9.60323 19.3406C9.13392 19.9464 8.99777 20.1077 8.86066 20.2018L9.70965 21.4384ZM7.57032 21.8588C8.31089 22.0194 9.08492 21.8673 9.70964 21.4384L8.86066 20.2018C8.57669 20.3968 8.22486 20.4659 7.88824 20.3929L7.57032 21.8588ZM6.125 21.1758C6.69314 21.5038 7.12198 21.7616 7.57032 21.8588L7.88823 20.3929C7.72569 20.3576 7.53864 20.2599 6.875 19.8767L6.125 21.1758ZM14.25 11C14.25 12.2426 13.2426 13.25 12 13.25V14.75C14.0711 14.75 15.75 13.0711 15.75 11H14.25ZM12 8.75C13.2426 8.75 14.25 9.75736 14.25 11H15.75C15.75 8.92893 14.0711 7.25 12 7.25V8.75ZM9.75 11C9.75 9.75736 10.7574 8.75 12 8.75V7.25C9.92893 7.25 8.25 8.92893 8.25 11H9.75ZM12 13.25C10.7574 13.25 9.75 12.2426 9.75 11H8.25C8.25 13.0711 9.92893 14.75 12 14.75V13.25Z" fill="#334BFA"/>
</svg>
