<svg width="22" height="22" viewBox="0 0 22 22" fill="none" xmlns="http://www.w3.org/2000/svg">
<path fill-rule="evenodd" clip-rule="evenodd" d="M10.217 5.02168e-08H10.25H10.75C11.1642 5.02168e-08 11.5 0.335787 11.5 0.75C11.5 1.16421 11.1642 1.5 10.75 1.5H10.25C8.60498 1.5 7.41506 1.50055 6.47832 1.57499C5.54997 1.64876 4.93463 1.79157 4.42798 2.04142C3.39146 2.55257 2.55257 3.39146 2.04142 4.42798C1.79157 4.93463 1.64876 5.54997 1.57499 6.47832C1.50055 7.41506 1.5 8.60498 1.5 10.25V11.15C1.5 12.8425 1.50058 14.0668 1.57925 15.0297C1.60156 15.3027 1.62983 15.5493 1.66502 15.7743L4.99011 12.4492L5.01143 12.4279C5.38404 12.0553 5.69526 11.7441 5.97044 11.5102C6.25762 11.2662 6.55365 11.0634 6.90936 10.9461C7.45561 10.7659 8.0446 10.7616 8.59344 10.9336C8.95085 11.0457 9.24984 11.2441 9.5406 11.4838C9.81921 11.7136 10.135 12.0202 10.5131 12.3873L10.5347 12.4083L13.2283 15.0235L13.7689 14.4829L13.7904 14.4614L13.7904 14.4614L13.7905 14.4614C14.1683 14.0835 14.4837 13.7681 14.7624 13.5315C15.053 13.2848 15.3527 13.08 15.7127 12.963C16.265 12.7836 16.86 12.7836 17.4123 12.963C17.7723 13.08 18.0719 13.2847 18.3625 13.5314C18.6411 13.7679 18.9564 14.0832 19.3341 14.4609L19.3556 14.4824L19.9228 15.0496L19.925 15.0217C19.9994 14.0849 20 12.895 20 11.25V10.75C20 10.3358 20.3358 10 20.75 10C21.1642 10 21.5 10.3358 21.5 10.75V11.25V11.2829C21.5 12.8881 21.5 14.1374 21.4203 15.1405C21.3394 16.1588 21.1728 16.9874 20.8039 17.7354C20.1467 19.0681 19.0681 20.1467 17.7354 20.8039C16.9874 21.1728 16.1588 21.3394 15.1405 21.4203C14.1374 21.5 12.8881 21.5 11.2829 21.5H11.25H10.35H10.316H10.316H10.3159C8.66456 21.5 7.3792 21.5 6.34814 21.4158C5.30124 21.3302 4.45065 21.1541 3.68556 20.7643C2.41547 20.1171 1.38285 19.0845 0.735706 17.8144L0.717315 17.778C0.578777 17.6382 0.506485 17.4576 0.50042 17.2751C0.270102 16.6502 0.15022 15.9595 0.084236 15.1519C-6.9213e-06 14.1208 -3.82186e-06 12.8354 5.24402e-08 11.1839V11.15V10.25V10.217C-3.64305e-06 8.61193 -6.56368e-06 7.36258 0.0797023 6.3595C0.160623 5.34116 0.327194 4.51264 0.696109 3.76455C1.35331 2.43188 2.43188 1.35331 3.76455 0.696109C4.51264 0.327194 5.34116 0.160623 6.3595 0.0797023C7.36258 -6.5659e-06 8.61193 -3.64527e-06 10.217 5.02168e-08ZM4.36655 19.4278C3.45664 18.9642 2.70344 18.2462 2.1969 17.3638L6.05077 13.5099C6.45022 13.1104 6.71853 12.8429 6.94177 12.6532C7.15824 12.4693 7.28336 12.4022 7.3792 12.3706C7.6275 12.2887 7.89522 12.2867 8.1447 12.3649C8.24099 12.3951 8.36709 12.4604 8.58625 12.6411C8.81227 12.8275 9.08451 13.091 9.48981 13.4845L12.7097 16.6107L15.9152 19.8162C15.6518 19.8627 15.3572 19.8983 15.0217 19.925C14.0849 19.9994 12.895 20 11.25 20H10.35C8.65747 20 7.43317 19.9994 6.47029 19.9207C5.51615 19.8428 4.88493 19.6919 4.36655 19.4278ZM19.4586 17.072C19.0136 17.9744 18.3202 18.7269 17.4643 19.2439L14.2968 16.0764L14.8296 15.5436C15.2345 15.1386 15.5067 14.8672 15.7332 14.675C15.9529 14.4885 16.0796 14.421 16.1762 14.3896C16.4273 14.308 16.6977 14.308 16.9488 14.3896C17.0454 14.421 17.1721 14.4885 17.3917 14.6749C17.6181 14.867 17.8902 15.1383 18.2949 15.5431L19.5707 16.8189C19.536 16.9066 19.4987 16.9907 19.4586 17.072ZM17.2803 1.21967C16.9874 0.926777 16.5126 0.926777 16.2197 1.21967L13.7197 3.71967C13.4268 4.01256 13.4268 4.48744 13.7197 4.78033C14.0126 5.07322 14.4874 5.07322 14.7803 4.78033L16 3.56066V7.75C16 8.16421 16.3358 8.5 16.75 8.5C17.1642 8.5 17.5 8.16421 17.5 7.75V3.56066L18.7197 4.78033C19.0126 5.07322 19.4874 5.07322 19.7803 4.78033C20.0732 4.48744 20.0732 4.01256 19.7803 3.71967L17.2803 1.21967Z" fill="#181818"/>
</svg>
