<svg width="19" height="23" viewBox="0 0 19 23" fill="none" xmlns="http://www.w3.org/2000/svg">
<path fill-rule="evenodd" clip-rule="evenodd" d="M1.00009 0.75C1.4143 0.75 1.75009 1.08579 1.75009 1.5V6.78741C1.75009 7.46025 1.75773 7.64041 1.80403 7.79286C1.85178 7.9501 1.93007 8.09638 2.03441 8.22333C2.13557 8.34642 2.28124 8.45271 2.84107 8.82594L3.25009 9.09861V1.5C3.25009 1.08579 3.58588 0.75 4.00009 0.75C4.4143 0.75 4.75009 1.08579 4.75009 1.5V9.09861L5.1591 8.82594C5.71894 8.45271 5.8646 8.34642 5.96577 8.22333C6.07011 8.09638 6.1484 7.9501 6.19615 7.79286C6.24245 7.64041 6.25009 7.46025 6.25009 6.78741V1.5C6.25009 1.08579 6.58588 0.75 7.00009 0.75C7.4143 0.75 7.75009 1.08579 7.75009 1.5V6.78741L7.75013 6.88118V6.88119C7.75052 7.41549 7.75083 7.83556 7.63142 8.22874C7.52637 8.57466 7.35414 8.89648 7.12459 9.17577C6.86368 9.49322 6.51399 9.72598 6.06921 10.022L5.99116 10.074L4.75009 10.9014V21.5C4.75009 21.9142 4.4143 22.25 4.00009 22.25C3.58588 22.25 3.25009 21.9142 3.25009 21.5V10.9014L2.00902 10.074L1.93097 10.022C1.48619 9.72598 1.1365 9.49322 0.875588 9.17577C0.646036 8.89648 0.473807 8.57466 0.368754 8.22874C0.249348 7.83556 0.249654 7.41548 0.250044 6.88118L0.250088 6.78741V1.5C0.250088 1.08579 0.585875 0.75 1.00009 0.75ZM14.0001 0.75C14.4143 0.75 14.7501 1.08579 14.7501 1.5V12.8392C15.5663 13.0317 16.3305 13.5212 16.9226 14.163C17.7027 15.0084 18.2501 16.1851 18.2501 17.5C18.2501 18.8149 17.7027 19.9916 16.9226 20.837C16.1518 21.6725 15.0892 22.25 14.0001 22.25C12.9109 22.25 11.8484 21.6725 11.0776 20.837C10.2975 19.9916 9.75009 18.8149 9.75009 17.5C9.75009 16.1851 10.2975 15.0084 11.0776 14.163C11.6697 13.5212 12.4339 13.0317 13.2501 12.8392V1.5C13.2501 1.08579 13.5859 0.75 14.0001 0.75ZM14.0001 14.25C13.4324 14.25 12.7449 14.5679 12.18 15.1802C11.6243 15.7824 11.2501 16.6058 11.2501 17.5C11.2501 18.3942 11.6243 19.2176 12.18 19.8198C12.7449 20.4321 13.4324 20.75 14.0001 20.75C14.5678 20.75 15.2553 20.4321 15.8202 19.8198C16.3759 19.2176 16.7501 18.3942 16.7501 17.5C16.7501 16.6058 16.3759 15.7824 15.8202 15.1802C15.2553 14.5679 14.5678 14.25 14.0001 14.25Z" fill="#5d5d5d" fill-opacity="1"/>
</svg>
