<svg width="4" height="16" viewBox="0 0 4 16" fill="none" xmlns="http://www.w3.org/2000/svg">
<path fill-rule="evenodd" clip-rule="evenodd" d="M0.666016 1.33333C0.666016 0.596954 1.26297 0 1.99935 0C2.73573 3.97364e-08 3.33268 0.596954 3.33268 1.33333C3.33268 2.06971 2.73573 2.66667 1.99935 2.66667C1.26297 2.66667 0.666016 2.06971 0.666016 1.33333ZM0.666016 8C0.666016 7.26362 1.26297 6.66667 1.99935 6.66667C2.73573 6.66667 3.33268 7.26362 3.33268 8C3.33268 8.73638 2.73573 9.33333 1.99935 9.33333C1.26297 9.33333 0.666016 8.73638 0.666016 8ZM0.666016 14.6667C0.666016 13.9303 1.26297 13.3333 1.99935 13.3333C2.73573 13.3333 3.33268 13.9303 3.33268 14.6667C3.33268 15.403 2.73573 16 1.99935 16C1.26297 16 0.666016 15.403 0.666016 14.6667Z" fill="white"/>
</svg>
