<svg width="22" height="22" viewBox="0 0 22 22" fill="none" xmlns="http://www.w3.org/2000/svg">
<path fill-rule="evenodd" clip-rule="evenodd" d="M11 0.25C5.06294 0.25 0.25 5.06294 0.25 11C0.25 16.9371 5.06294 21.75 11 21.75C16.9371 21.75 21.75 16.9371 21.75 11C21.75 5.06294 16.9371 0.25 11 0.25ZM1.75 11C1.75 5.89137 5.89137 1.75 11 1.75C16.1086 1.75 20.25 5.89137 20.25 11C20.25 16.1086 16.1086 20.25 11 20.25C5.89137 20.25 1.75 16.1086 1.75 11ZM11.75 7C11.75 6.58579 11.4142 6.25 11 6.25C10.5858 6.25 10.25 6.58579 10.25 7V11C10.25 11.2508 10.3753 11.4849 10.584 11.624L13.584 13.624C13.9286 13.8538 14.3943 13.7607 14.624 13.416C14.8538 13.0714 14.7607 12.6057 14.416 12.376L11.75 10.5986V7Z" fill="#334BFA"/>
</svg>
