<svg width="24" height="24" viewBox="0 0 24 24" fill="none" xmlns="http://www.w3.org/2000/svg">
<path fill-rule="evenodd" clip-rule="evenodd" d="M5.70039 0.149414H5.66829C4.85545 0.149406 4.19983 0.1494 3.66892 0.192778C3.12229 0.23744 2.64214 0.331799 2.19793 0.55814C1.49232 0.917665 0.918641 1.49134 0.559116 2.19695C0.332776 2.64117 0.238416 3.12131 0.193754 3.66794C0.150377 4.19885 0.150383 4.85447 0.150391 5.6673V5.69941V18.2995V18.3316C0.150383 19.1444 0.150377 19.8 0.193754 20.3309C0.238416 20.8776 0.332776 21.3577 0.559116 21.8019C0.918641 22.5075 1.49232 23.0812 2.19793 23.4407C2.64214 23.6671 3.12229 23.7614 3.66892 23.8061C4.19983 23.8495 4.85543 23.8495 5.66826 23.8495H5.70039H18.3004H18.3326C19.1454 23.8495 19.801 23.8495 20.3319 23.8061C20.8785 23.7614 21.3587 23.6671 21.8029 23.4407C22.5085 23.0812 23.0822 22.5075 23.4417 21.8019C23.6681 21.3577 23.7624 20.8776 23.8071 20.3309C23.8505 19.8 23.8504 19.1444 23.8504 18.3316V18.2995V12.5544V11.9994C23.8504 11.5852 23.5147 11.2494 23.1004 11.2494C22.6862 11.2494 22.3504 11.5852 22.3504 11.9994V12.5544V18.2995C22.3504 19.1519 22.3499 19.7462 22.3121 20.2088C22.275 20.6627 22.2058 20.9234 22.1052 21.1209C21.8895 21.5443 21.5453 21.8885 21.1219 22.1042C20.9244 22.2049 20.6636 22.274 20.2098 22.3111C19.7471 22.3489 19.1529 22.3495 18.3004 22.3495H5.70039C4.84793 22.3495 4.2537 22.3489 3.79107 22.3111C3.33719 22.274 3.07643 22.2049 2.87891 22.1042C2.45555 21.8885 2.11134 21.5443 1.89563 21.1209C1.79499 20.9234 1.72586 20.6627 1.68877 20.2088C1.65097 19.7462 1.65039 19.1519 1.65039 18.2995V5.69941C1.65039 4.84696 1.65097 4.25272 1.68877 3.79009C1.72586 3.33622 1.79499 3.07545 1.89563 2.87794C2.11134 2.45457 2.45555 2.11036 2.87891 1.89465C3.07643 1.79401 3.33719 1.72488 3.79107 1.6878C4.2537 1.65 4.84794 1.64941 5.70039 1.64941H11.4454H12.0004C12.4146 1.64941 12.7504 1.31363 12.7504 0.899414C12.7504 0.485201 12.4146 0.149414 12.0004 0.149414H11.4454H5.70039ZM12.8577 5.47895C12.5648 5.18605 12.09 5.18605 11.7971 5.47895L7.35541 9.92061C7.06252 10.2135 7.06252 10.6884 7.35541 10.9813C7.64831 11.2742 8.12318 11.2742 8.41607 10.9813L11.5774 7.81994V16.6693C11.5774 17.0835 11.9132 17.4193 12.3274 17.4193C12.7416 17.4193 13.0774 17.0835 13.0774 16.6693V7.81994L16.2387 10.9813C16.5316 11.2742 17.0065 11.2742 17.2994 10.9813C17.5923 10.6884 17.5923 10.2135 17.2994 9.92061L12.8577 5.47895Z" fill="#334BFA"/>
</svg>
