<svg width="24" height="24" viewBox="0 0 24 24" fill="none" xmlns="http://www.w3.org/2000/svg">
<path fill-rule="evenodd" clip-rule="evenodd" d="M9 2.75C7.20507 2.75 5.75 4.20507 5.75 6C5.75 7.79493 7.20507 9.25 9 9.25C10.7949 9.25 12.25 7.79493 12.25 6C12.25 4.20507 10.7949 2.75 9 2.75ZM4.25 6C4.25 3.37665 6.37665 1.25 9 1.25C11.6234 1.25 13.75 3.37665 13.75 6C13.75 8.62335 11.6234 10.75 9 10.75C6.37665 10.75 4.25 8.62335 4.25 6ZM19.4697 6.46967C19.7626 6.17678 20.2374 6.17678 20.5303 6.46967L23.5303 9.46967C23.8232 9.76256 23.8232 10.2374 23.5303 10.5303L20.5303 13.5303C20.2374 13.8232 19.7626 13.8232 19.4697 13.5303C19.1768 13.2374 19.1768 12.7626 19.4697 12.4697L21.1893 10.75H17C16.5858 10.75 16.25 10.4142 16.25 10C16.25 9.58579 16.5858 9.25 17 9.25H21.1893L19.4697 7.53033C19.1768 7.23744 19.1768 6.76256 19.4697 6.46967ZM6.8 13.25C3.73482 13.25 1.25 15.7348 1.25 18.8C1.25 20.9815 3.01848 22.75 5.2 22.75H12.8C14.9815 22.75 16.75 20.9815 16.75 18.8C16.75 15.7348 14.2652 13.25 11.2 13.25H6.8ZM2.75 18.8C2.75 16.5632 4.56325 14.75 6.8 14.75H11.2C13.4368 14.75 15.25 16.5632 15.25 18.8C15.25 20.1531 14.1531 21.25 12.8 21.25H5.2C3.8469 21.25 2.75 20.1531 2.75 18.8Z" fill="#334BFA"/>
</svg>
