<svg width="20" height="23" viewBox="0 0 20 23" fill="none" xmlns="http://www.w3.org/2000/svg">
<path fill-rule="evenodd" clip-rule="evenodd" d="M2.44444 0.750003C1.23249 0.750003 0.25 1.73249 0.25 2.94445L0.249999 5.5C0.249998 10.6324 4.21566 14.8386 9.25 15.2216L9.25 20.75L6 20.75C5.58579 20.75 5.25 21.0858 5.25 21.5C5.25 21.9142 5.58579 22.25 6 22.25L10 22.25L14 22.25C14.4142 22.25 14.75 21.9142 14.75 21.5C14.75 21.0858 14.4142 20.75 14 20.75L10.75 20.75L10.75 15.2216C15.7843 14.8386 19.75 10.6324 19.75 5.5L19.75 2.94445C19.75 1.73249 18.7675 0.750003 17.5556 0.750003L2.44444 0.750003ZM1.75 2.94445C1.75 2.56092 2.06091 2.25 2.44444 2.25L17.5556 2.25C17.9391 2.25 18.25 2.56092 18.25 2.94445L18.25 5.5C18.25 10.0564 14.5563 13.75 10 13.75C5.44365 13.75 1.75 10.0564 1.75 5.5L1.75 2.94445Z" fill="#5d5d5d" fill-opacity="1"/>
</svg>
