<svg width="50" height="50" viewBox="0 0 50 50" fill="none" xmlns="http://www.w3.org/2000/svg">

<path fill-rule="evenodd" clip-rule="evenodd" d="M23.4798 14.0002L23.371 14.0001C22.8584 13.9993 22.4085 13.9987 22.0076 14.1563C21.6571 14.2942 21.3468 14.5179 21.1051 14.8068C20.8288 15.1373 20.6871 15.5643 20.5258 16.0508L20.4915 16.1541L20.2094 17.0002H16.75H14.75C14.3358 17.0002 14 17.336 14 17.7502C14 18.1644 14.3358 18.5002 14.75 18.5002H16.0428L16.6469 28.7701L16.6488 28.802C16.7096 29.8351 16.7578 30.6551 16.8497 31.3154C16.9438 31.9915 17.0906 32.5615 17.3816 33.0789C17.8547 33.9199 18.5727 34.597 19.4401 35.0198C19.9737 35.28 20.5513 35.3931 21.2318 35.4473C21.8963 35.5002 22.7177 35.5002 23.7527 35.5002H23.7846H25.7154H25.7473C26.7823 35.5002 27.6037 35.5002 28.2682 35.4473C28.9487 35.3931 29.5263 35.28 30.0599 35.0198C30.9273 34.597 31.6453 33.9199 32.1184 33.0789C32.4094 32.5615 32.5562 31.9915 32.6503 31.3154C32.7422 30.6551 32.7904 29.8353 32.8512 28.8022L32.8512 28.8021L32.8531 28.7701L33.4572 18.5002H34.75C35.1642 18.5002 35.5 18.1644 35.5 17.7502C35.5 17.336 35.1642 17.0002 34.75 17.0002H32.75H29.2906L29.0085 16.1541L28.9742 16.0508C28.8129 15.5643 28.6712 15.1373 28.3949 14.8068C28.1532 14.5179 27.8429 14.2942 27.4924 14.1563C27.0915 13.9987 26.6416 13.9993 26.129 14.0001L26.0202 14.0002H23.4798ZM28.7325 18.5002C28.7441 18.5005 28.7557 18.5005 28.7673 18.5002H31.9546L31.3557 28.682C31.2926 29.7542 31.2473 30.5145 31.1646 31.1087C31.0832 31.6939 30.9726 32.0563 30.811 32.3435C30.4873 32.919 29.9961 33.3822 29.4026 33.6715C29.1064 33.8159 28.7381 33.9051 28.1491 33.952C27.5511 33.9997 26.7894 34.0002 25.7154 34.0002H23.7846C22.7106 34.0002 21.9489 33.9997 21.3509 33.952C20.7619 33.9051 20.3936 33.8159 20.0974 33.6715C19.5039 33.3822 19.0127 32.919 18.689 32.3435C18.5274 32.0563 18.4168 31.6939 18.3354 31.1087C18.2527 30.5145 18.2074 29.7542 18.1443 28.682L17.5454 18.5002H20.7327C20.7443 18.5005 20.7559 18.5005 20.7675 18.5002H28.7325ZM27.7094 17.0002L27.5855 16.6284C27.3686 15.9776 27.3133 15.8517 27.2442 15.7691C27.1637 15.6728 27.0602 15.5982 26.9434 15.5523C26.8431 15.5128 26.7062 15.5002 26.0202 15.5002H23.4798C22.7938 15.5002 22.6569 15.5128 22.5566 15.5523C22.4398 15.5982 22.3363 15.6728 22.2558 15.7691C22.1867 15.8517 22.1314 15.9776 21.9145 16.6284L21.7906 17.0002H27.7094Z" fill="#FA336F"/>
</svg>
