<svg width="50" height="50" viewBox="0 0 50 50" fill="none" xmlns="http://www.w3.org/2000/svg">
<circle cx="25" cy="25" r="25" fill="#181818" fill-opacity="0.1"/>
<path fill-rule="evenodd" clip-rule="evenodd" d="M29.0025 17.0396L29.0374 17.0602L32.057 18.8446L32.0917 18.865C33.5971 19.7546 34.7722 20.449 35.6323 21.0697C36.4966 21.6935 37.1432 22.311 37.4844 23.0858C38.0216 24.3055 38.0216 25.6949 37.4844 26.9146C37.1432 27.6894 36.4966 28.3069 35.6323 28.9307C34.7722 29.5514 33.5971 30.2458 32.0917 31.1353L32.0571 31.1558L29.0374 32.9401L29.0025 32.9608C27.4502 33.8781 26.2397 34.5934 25.2551 35.0596C24.2671 35.5274 23.3942 35.8018 22.5369 35.7178C21.1905 35.5859 19.9642 34.8861 19.1657 33.794C18.6572 33.0987 18.4494 32.2076 18.3495 31.1191C18.25 30.0342 18.25 28.6282 18.25 26.825L18.25 26.7845V23.2159L18.25 23.1754C18.25 21.3722 18.25 19.9662 18.3495 18.8813C18.4494 17.7928 18.6572 16.9017 19.1657 16.2064C19.9642 15.1143 21.1905 14.4145 22.5369 14.2826C23.3942 14.1986 24.2671 14.473 25.2551 14.9408C26.2397 15.407 27.4502 16.1223 29.0025 17.0396ZM24.6131 16.2965C23.6942 15.8614 23.126 15.7321 22.6832 15.7755C21.7619 15.8657 20.9229 16.3445 20.3765 17.0917C20.1139 17.4509 19.9361 18.0058 19.8432 19.0184C19.7508 20.0265 19.75 21.3636 19.75 23.2159V26.7845C19.75 28.6368 19.7508 29.9739 19.8432 30.982C19.9361 31.9946 20.1139 32.5495 20.3765 32.9087C20.9229 33.6559 21.7619 34.1347 22.6832 34.2249C23.126 34.2683 23.6942 34.139 24.6131 33.7039C25.5281 33.2706 26.6797 32.591 28.2743 31.6488L31.294 29.8644C32.8413 28.9501 33.9568 28.2901 34.7544 27.7144C35.5544 27.137 35.9344 26.7125 36.1116 26.3101C36.4792 25.4755 36.4792 24.5249 36.1116 23.6903C35.9344 23.2879 35.5544 22.8634 34.7544 22.286C33.9568 21.7103 32.8413 21.0503 31.294 20.136L28.2743 18.3516C26.6797 17.4093 25.5281 16.7297 24.6131 16.2965Z" fill="#181818" fill-opacity="0.5"/>
</svg>
