<svg width="50" height="50" viewBox="0 0 50 50" fill="none" xmlns="http://www.w3.org/2000/svg">

<path fill-rule="evenodd" clip-rule="evenodd" d="M19.2 15.25H19.1696H19.1695C18.6354 15.25 18.1896 15.25 17.8253 15.2797C17.4454 15.3108 17.0888 15.3779 16.7515 15.5497C16.2341 15.8134 15.8134 16.2341 15.5497 16.7515C15.3779 17.0888 15.3108 17.4454 15.2797 17.8253C15.25 18.1896 15.25 18.6354 15.25 19.1695V19.1696V19.2V30.8V30.8304V30.8305C15.25 31.3646 15.25 31.8104 15.2797 32.1747C15.3108 32.5546 15.3779 32.9112 15.5497 33.2485C15.8134 33.7659 16.2341 34.1866 16.7515 34.4503C17.0888 34.6221 17.4454 34.6892 17.8253 34.7203C18.1896 34.75 18.6354 34.75 19.1695 34.75H19.2H19.8H19.8305C20.3646 34.75 20.8104 34.75 21.1747 34.7203C21.5546 34.6892 21.9112 34.6221 22.2485 34.4503C22.7659 34.1866 23.1866 33.7659 23.4503 33.2485C23.6221 32.9112 23.6892 32.5546 23.7203 32.1747C23.75 31.8104 23.75 31.3646 23.75 30.8304V30.8V19.2V19.1696C23.75 18.6354 23.75 18.1896 23.7203 17.8253C23.6892 17.4454 23.6221 17.0888 23.4503 16.7515C23.1866 16.2341 22.7659 15.8134 22.2485 15.5497C21.9112 15.3779 21.5546 15.3108 21.1747 15.2797C20.8104 15.25 20.3646 15.25 19.8305 15.25H19.8304H19.8H19.2ZM17.4325 16.8862C17.5231 16.8401 17.6604 16.7982 17.9475 16.7748C18.2434 16.7506 18.6276 16.75 19.2 16.75H19.8C20.3724 16.75 20.7566 16.7506 21.0525 16.7748C21.3396 16.7982 21.4769 16.8401 21.5675 16.8862C21.8027 17.0061 21.9939 17.1973 22.1138 17.4325C22.1599 17.5231 22.2018 17.6604 22.2252 17.9475C22.2494 18.2434 22.25 18.6276 22.25 19.2V30.8C22.25 31.3724 22.2494 31.7566 22.2252 32.0525C22.2018 32.3396 22.1599 32.4769 22.1138 32.5675C21.9939 32.8027 21.8027 32.9939 21.5675 33.1138C21.4769 33.1599 21.3396 33.2018 21.0525 33.2252C20.7566 33.2494 20.3724 33.25 19.8 33.25H19.2C18.6276 33.25 18.2434 33.2494 17.9475 33.2252C17.6604 33.2018 17.5231 33.1599 17.4325 33.1138C17.1973 32.9939 17.0061 32.8027 16.8862 32.5675C16.8401 32.4769 16.7982 32.3396 16.7748 32.0525C16.7506 31.7566 16.75 31.3724 16.75 30.8V19.2C16.75 18.6276 16.7506 18.2434 16.7748 17.9475C16.7982 17.6604 16.8401 17.5231 16.8862 17.4325C17.0061 17.1973 17.1973 17.0061 17.4325 16.8862ZM30.2 15.25H30.1696H30.1695C29.6354 15.25 29.1896 15.25 28.8253 15.2797C28.4454 15.3108 28.0888 15.3779 27.7515 15.5497C27.2341 15.8134 26.8134 16.2341 26.5497 16.7515C26.3779 17.0888 26.3108 17.4454 26.2797 17.8253C26.25 18.1896 26.25 18.6354 26.25 19.1696V19.2V30.8V30.8304C26.25 31.3646 26.25 31.8104 26.2797 32.1747C26.3108 32.5546 26.3779 32.9112 26.5497 33.2485C26.8134 33.7659 27.2341 34.1866 27.7515 34.4503C28.0888 34.6221 28.4454 34.6892 28.8253 34.7203C29.1896 34.75 29.6354 34.75 30.1695 34.75H30.2H30.8H30.8305C31.3646 34.75 31.8104 34.75 32.1747 34.7203C32.5546 34.6892 32.9112 34.6221 33.2485 34.4503C33.7659 34.1866 34.1866 33.7659 34.4503 33.2485C34.6221 32.9112 34.6892 32.5546 34.7203 32.1747C34.75 31.8104 34.75 31.3646 34.75 30.8304V30.8V19.2V19.1696C34.75 18.6354 34.75 18.1896 34.7203 17.8253C34.6892 17.4454 34.6221 17.0888 34.4503 16.7515C34.1866 16.2341 33.7659 15.8134 33.2485 15.5497C32.9112 15.3779 32.5546 15.3108 32.1747 15.2797C31.8104 15.25 31.3646 15.25 30.8305 15.25H30.8304H30.8H30.2ZM28.4325 16.8862C28.5231 16.8401 28.6604 16.7982 28.9475 16.7748C29.2434 16.7506 29.6276 16.75 30.2 16.75H30.8C31.3724 16.75 31.7566 16.7506 32.0525 16.7748C32.3396 16.7982 32.4769 16.8401 32.5675 16.8862C32.8027 17.0061 32.9939 17.1973 33.1138 17.4325C33.1599 17.5231 33.2018 17.6604 33.2252 17.9475C33.2494 18.2434 33.25 18.6276 33.25 19.2V30.8C33.25 31.3724 33.2494 31.7566 33.2252 32.0525C33.2018 32.3396 33.1599 32.4769 33.1138 32.5675C32.9939 32.8027 32.8027 32.9939 32.5675 33.1138C32.4769 33.1599 32.3396 33.2018 32.0525 33.2252C31.7566 33.2494 31.3724 33.25 30.8 33.25H30.2C29.6276 33.25 29.2434 33.2494 28.9475 33.2252C28.6604 33.2018 28.5231 33.1599 28.4325 33.1138C28.1973 32.9939 28.0061 32.8027 27.8862 32.5675C27.8401 32.4769 27.7982 32.3396 27.7748 32.0525C27.7506 31.7566 27.75 31.3724 27.75 30.8V19.2C27.75 18.6276 27.7506 18.2434 27.7748 17.9475C27.7982 17.6604 27.8401 17.5231 27.8862 17.4325C28.0061 17.1973 28.1973 17.0061 28.4325 16.8862Z" fill="#334BFA"/>
</svg>
