<svg  width="50" height="50" viewBox="0 0 50 50" fill="none" xmlns="http://www.w3.org/2000/svg">

<path fill-rule="evenodd" clip-rule="evenodd" d="M28.0025 17.0396L28.0374 17.0602L31.057 18.8446L31.0917 18.865C32.5971 19.7546 33.7722 20.449 34.6323 21.0697C35.4966 21.6935 36.1432 22.311 36.4844 23.0858C37.0216 24.3055 37.0216 25.6949 36.4844 26.9146C36.1432 27.6894 35.4966 28.3069 34.6323 28.9307C33.7722 29.5514 32.5971 30.2458 31.0917 31.1353L31.0571 31.1558L28.0374 32.9401L28.0025 32.9608C26.4502 33.8781 25.2397 34.5934 24.2551 35.0596C23.2671 35.5274 22.3942 35.8018 21.5369 35.7178C20.1905 35.5859 18.9642 34.8861 18.1657 33.794C17.6572 33.0987 17.4494 32.2076 17.3495 31.1191C17.25 30.0342 17.25 28.6282 17.25 26.825L17.25 26.7845V23.2159L17.25 23.1754C17.25 21.3722 17.25 19.9662 17.3495 18.8813C17.4494 17.7928 17.6572 16.9017 18.1657 16.2064C18.9642 15.1143 20.1905 14.4145 21.5369 14.2826C22.3942 14.1986 23.2671 14.473 24.2551 14.9408C25.2397 15.407 26.4502 16.1223 28.0025 17.0396ZM23.6131 16.2965C22.6942 15.8614 22.126 15.7321 21.6832 15.7755C20.7619 15.8657 19.9229 16.3445 19.3765 17.0917C19.1139 17.4509 18.9361 18.0058 18.8432 19.0184C18.7508 20.0265 18.75 21.3636 18.75 23.2159V26.7845C18.75 28.6368 18.7508 29.9739 18.8432 30.982C18.9361 31.9946 19.1139 32.5495 19.3765 32.9087C19.9229 33.6559 20.7619 34.1347 21.6832 34.2249C22.126 34.2683 22.6942 34.139 23.6131 33.7039C24.5281 33.2706 25.6797 32.591 27.2743 31.6488L30.294 29.8644C31.8413 28.9501 32.9568 28.2901 33.7544 27.7144C34.5544 27.137 34.9344 26.7125 35.1116 26.3101C35.4792 25.4755 35.4792 24.5249 35.1116 23.6903C34.9344 23.2879 34.5544 22.8634 33.7544 22.286C32.9568 21.7103 31.8413 21.0503 30.294 20.136L27.2743 18.3516C25.6797 17.4093 24.5281 16.7297 23.6131 16.2965Z" fill="#334BFA"/>
</svg>
