<svg width="50" height="50" viewBox="0 0 50 50" fill="none" xmlns="http://www.w3.org/2000/svg">

<path fill-rule="evenodd" clip-rule="evenodd" d="M24 15.75C22.2051 15.75 20.75 17.2051 20.75 19C20.75 20.7949 22.2051 22.25 24 22.25C25.7949 22.25 27.25 20.7949 27.25 19C27.25 17.2051 25.7949 15.75 24 15.75ZM19.25 19C19.25 16.3766 21.3766 14.25 24 14.25C26.6234 14.25 28.75 16.3766 28.75 19C28.75 21.6234 26.6234 23.75 24 23.75C21.3766 23.75 19.25 21.6234 19.25 19ZM16.25 31.8C16.25 28.7348 18.7348 26.25 21.8 26.25H26.2C29.2652 26.25 31.75 28.7348 31.75 31.8C31.75 33.9815 29.9815 35.75 27.8 35.75H20.2C18.0185 35.75 16.25 33.9815 16.25 31.8ZM21.8 27.75C19.5632 27.75 17.75 29.5632 17.75 31.8C17.75 33.1531 18.8469 34.25 20.2 34.25H27.8C29.1531 34.25 30.25 33.1531 30.25 31.8C30.25 29.5632 28.4368 27.75 26.2 27.75H21.8ZM35.75 20C35.75 19.5858 35.4142 19.25 35 19.25C34.5858 19.25 34.25 19.5858 34.25 20V22.25H32C31.5858 22.25 31.25 22.5858 31.25 23C31.25 23.4142 31.5858 23.75 32 23.75H34.25V26C34.25 26.4142 34.5858 26.75 35 26.75C35.4142 26.75 35.75 26.4142 35.75 26V23.75H38C38.4142 23.75 38.75 23.4142 38.75 23C38.75 22.5858 38.4142 22.25 38 22.25H35.75V20Z" fill="#334BFA"/>
</svg>
