<svg width="50" height="50" viewBox="0 0 50 50" fill="none" xmlns="http://www.w3.org/2000/svg">

<path fill-rule="evenodd" clip-rule="evenodd" d="M27.9697 16.9697C28.2626 16.6768 28.7375 16.6768 29.0304 16.9697L29.5304 17.4697L30.6108 18.5501L30.635 18.5743C32.0006 19.9399 33.0579 20.9973 33.8357 21.9134C34.6238 22.8417 35.1688 23.6743 35.4712 24.6051C35.977 26.1617 35.977 27.8383 35.4712 29.3949C35.1688 30.3257 34.6238 31.1583 33.8357 32.0866C33.058 33.0027 32.0006 34.0601 30.6351 35.4256L30.635 35.4257L30.6108 35.4499L29.0304 37.0303L28.5304 37.5303C28.2375 37.8232 27.7626 37.8232 27.4697 37.5303C27.1768 37.2374 27.1768 36.7626 27.4697 36.4697L27.9697 35.9697L29.5501 34.3893C30.9449 32.9945 31.9587 31.9798 32.6922 31.1158C33.42 30.2585 33.8277 29.5988 34.0446 28.9314C34.4525 27.6761 34.4525 26.3239 34.0446 25.0686C33.8277 24.4012 33.42 23.7415 32.6922 22.8842C31.9587 22.0202 30.9449 21.0055 29.5501 19.6107L28.4697 18.5303L27.9697 18.0303C27.6768 17.7374 27.6768 17.2626 27.9697 16.9697ZM22 23.75C21.3097 23.75 20.75 24.3096 20.75 25C20.75 25.6904 21.3097 26.25 22 26.25C22.6904 26.25 23.25 25.6904 23.25 25C23.25 24.3096 22.6904 23.75 22 23.75ZM19.25 25C19.25 23.4812 20.4812 22.25 22 22.25C23.5188 22.25 24.75 23.4812 24.75 25C24.75 26.5188 23.5188 27.75 22 27.75C20.4812 27.75 19.25 26.5188 19.25 25ZM22.3491 18.75C23.3631 18.75 23.7479 18.7548 24.1019 18.8398C24.4335 18.9194 24.7505 19.0507 25.0413 19.2289C25.3517 19.4191 25.6272 19.6878 26.3442 20.4048L28.9442 23.0048C29.745 23.8056 30.3133 24.3747 30.722 24.8561C31.1249 25.3308 31.3285 25.6707 31.4341 25.9957C31.6462 26.6484 31.6462 27.3516 31.4341 28.0043C31.3285 28.3293 31.1249 28.6692 30.722 29.1439C30.3133 29.6253 29.745 30.1944 28.9442 30.9952L27.9952 31.9442C27.1944 32.745 26.6253 33.3133 26.1439 33.7219C25.6692 34.1249 25.3293 34.3285 25.0043 34.4341C24.3516 34.6462 23.6485 34.6462 22.9957 34.4341C22.6707 34.3285 22.3309 34.1249 21.8562 33.7219C21.3748 33.3133 20.8057 32.745 20.0049 31.9442L17.4049 29.3442C16.6878 28.6271 16.4191 28.3516 16.2289 28.0413C16.0507 27.7505 15.9194 27.4335 15.8398 27.1018C15.7548 26.7479 15.75 26.3631 15.75 25.349V24.4C15.75 23.2675 15.7506 22.4633 15.802 21.8339C15.8527 21.2133 15.9491 20.829 16.1042 20.5245C16.4158 19.913 16.913 19.4158 17.5246 19.1042C17.829 18.9491 18.2133 18.8527 18.8339 18.802C19.4633 18.7506 20.2675 18.75 21.4 18.75H22.3491ZM24.452 17.3812C23.9043 17.2497 23.3314 17.2498 22.4426 17.25L22.3491 17.25H21.4L21.367 17.25C20.2749 17.25 19.4094 17.25 18.7118 17.307C17.9984 17.3653 17.3947 17.4869 16.8436 17.7677C15.9498 18.2231 15.2231 18.9498 14.7677 19.8435C14.4869 20.3947 14.3653 20.9983 14.307 21.7117C14.25 22.4094 14.25 23.2749 14.25 24.367L14.25 24.4V25.349L14.25 25.4426C14.2499 26.3314 14.2498 26.9042 14.3813 27.452C14.4976 27.9367 14.6895 28.4 14.95 28.825C15.2443 29.3053 15.6494 29.7103 16.2781 30.3387L16.2781 30.3387L16.3442 30.4048L18.9442 33.0048L18.9676 33.0282C19.7398 33.8005 20.3518 34.4125 20.8854 34.8654C21.4311 35.3287 21.9439 35.6695 22.5322 35.8607C23.4862 36.1706 24.5138 36.1706 25.4679 35.8607C26.0562 35.6695 26.569 35.3287 27.1146 34.8654C27.6482 34.4125 28.2602 33.8005 29.0325 33.0282L29.0325 33.0282L29.0558 33.0049L30.0049 32.0558L30.0282 32.0325C30.8005 31.2602 31.4125 30.6482 31.8655 30.1146C32.3287 29.569 32.6695 29.0562 32.8607 28.4678C33.1707 27.5138 33.1707 26.4862 32.8607 25.5322C32.6695 24.9438 32.3287 24.431 31.8655 23.8854C31.4125 23.3518 30.8005 22.7398 30.0282 21.9675L30.0049 21.9442L27.4049 19.3442L27.3387 19.278C26.7103 18.6494 26.3054 18.2443 25.825 17.95C25.4 17.6895 24.9367 17.4976 24.452 17.3812Z" fill="#334BFA"/>
</svg>
