<svg width="16" height="16" viewBox="0 0 16 16" fill="none" xmlns="http://www.w3.org/2000/svg">
<path d="M4.01855 4.01367H5.89355C6.92909 4.01367 7.76855 4.85314 7.76855 5.88867C7.76855 6.92421 6.92909 7.76367 5.89355 7.76367C4.85802 7.76367 4.01855 6.92421 4.01855 5.88867V4.01367Z" fill="#1BD2A4"/>
<path d="M4.01855 10.8887C4.01855 9.85314 4.85802 9.01367 5.89355 9.01367C6.92909 9.01367 7.76855 9.85314 7.76855 10.8887C7.76855 11.9242 6.92909 12.7637 5.89355 12.7637H4.01855V10.8887Z" fill="#1BD2A4"/>
<path d="M9.01855 5.88867C9.01855 4.85314 9.85802 4.01367 10.8936 4.01367H12.7686V5.88867C12.7686 6.92421 11.9291 7.76367 10.8936 7.76367C9.85802 7.76367 9.01855 6.92421 9.01855 5.88867Z" fill="#1BD2A4"/>
<path d="M9.01855 10.8887C9.01855 9.85314 9.85802 9.01367 10.8936 9.01367C11.9291 9.01367 12.7686 9.85314 12.7686 10.8887V12.7637H10.8936C9.85802 12.7637 9.01855 11.9242 9.01855 10.8887Z" fill="#1BD2A4"/>
</svg>
