<svg width="4" height="24" viewBox="0 0 4 24"  xmlns="http://www.w3.org/2000/svg">
<path fill-rule="evenodd" clip-rule="evenodd" d="M8.9407e-07 2C8.9407e-07 0.89543 0.895432 0 2 0C3.10457 5.96046e-08 4 0.89543 4 2C4 3.10457 3.10457 4 2 4C0.895431 4 8.34465e-07 3.10457 8.9407e-07 2ZM4.17233e-07 12C4.76837e-07 10.8954 0.895431 10 2 10C3.10457 10 4 10.8954 4 12C4 13.1046 3.10457 14 2 14C0.895431 14 4.17233e-07 13.1046 4.17233e-07 12ZM0 22C5.96046e-08 20.8954 0.89543 20 2 20C3.10457 20 4 20.8954 4 22C4 23.1046 3.10457 24 2 24C0.89543 24 0 23.1046 0 22Z" fill="#5e5e5e" fill-opacity="1"/>
</svg>
