<svg width="15" height="12" viewBox="0 0 15 12" fill="none" xmlns="http://www.w3.org/2000/svg">
<path fill-rule="evenodd" clip-rule="evenodd" d="M9.43544 0.733888C9.73546 0.733888 10.0066 0.912686 10.1248 1.18845L11.8655 5.25002L13.9516 5.25002C14.3658 5.25002 14.7016 5.5858 14.7016 6.00002C14.7016 6.41423 14.3658 6.75002 13.9516 6.75002L11.3709 6.75002C11.0709 6.75002 10.7997 6.57122 10.6816 6.29546L9.43544 3.38783L6.25383 10.8116C6.13564 11.0873 5.86449 11.2661 5.56447 11.2661C5.26445 11.2661 4.99329 11.0873 4.87511 10.8116L3.13444 6.75002L1.04834 6.75002C0.634125 6.75002 0.298339 6.41423 0.298339 6.00002C0.298339 5.5858 0.634125 5.25002 1.04834 5.25002L3.62898 5.25002C3.92901 5.25002 4.20016 5.42881 4.31834 5.70458L5.56447 8.6122L8.74608 1.18845C8.86426 0.912686 9.13541 0.733888 9.43544 0.733888Z" fill="#181818" fill-opacity="0.7"/>
</svg>
