<svg width="16" height="17" viewBox="0 0 16 17" fill="none" xmlns="http://www.w3.org/2000/svg">
<path d="M4.25469 16.0331L3.72436 16.5634C3.86501 16.7041 4.05577 16.7831 4.25469 16.7831C4.4536 16.7831 4.64436 16.7041 4.78502 16.5634L4.25469 16.0331ZM10.6547 9.63307V8.88307H9.90469V9.63307H10.6547ZM10.6547 16.0331H9.90469V16.7831H10.6547V16.0331ZM4.78502 16.5634L7.98502 13.3634L6.92436 12.3027L3.72436 15.5027L4.78502 16.5634ZM4.78502 15.5027L1.58502 12.3027L0.524357 13.3634L3.72436 16.5634L4.78502 15.5027ZM3.50469 0.566406V16.0331H5.00469V0.566406H3.50469ZM10.6547 10.3831H13.3214V8.88307H10.6547V10.3831ZM13.3214 12.0831H10.6547V13.5831H13.3214V12.0831ZM11.4047 12.8331V9.63307H9.90469V12.8331H11.4047ZM14.1714 11.2331C14.1714 11.7025 13.7908 12.0831 13.3214 12.0831V13.5831C14.6192 13.5831 15.6714 12.5309 15.6714 11.2331H14.1714ZM13.3214 10.3831C13.7908 10.3831 14.1714 10.7636 14.1714 11.2331H15.6714C15.6714 9.9352 14.6192 8.88307 13.3214 8.88307V10.3831ZM13.3214 15.2831H10.6547V16.7831H13.3214V15.2831ZM11.4047 16.0331V12.8331H9.90469V16.0331H11.4047ZM14.1714 14.4331C14.1714 14.9025 13.7908 15.2831 13.3214 15.2831V16.7831C14.6192 16.7831 15.6714 15.7309 15.6714 14.4331H14.1714ZM13.3214 13.5831C13.7908 13.5831 14.1714 13.9636 14.1714 14.4331H15.6714C15.6714 13.1352 14.6192 12.0831 13.3214 12.0831V13.5831ZM11.4047 8.03307V3.23307H9.90469V8.03307H11.4047ZM14.1714 3.23307V8.03307H15.6714V3.23307H14.1714ZM12.788 1.84974C13.552 1.84974 14.1714 2.46908 14.1714 3.23307H15.6714C15.6714 1.64065 14.3804 0.34974 12.788 0.34974V1.84974ZM11.4047 3.23307C11.4047 2.46908 12.024 1.84974 12.788 1.84974V0.34974C11.1956 0.34974 9.90469 1.64065 9.90469 3.23307H11.4047ZM10.6547 6.11641H14.9214V4.61641H10.6547V6.11641Z" fill="white"/>
</svg>
