<svg width="221" height="138" viewBox="0 0 221 138" fill="none" xmlns="http://www.w3.org/2000/svg">
<path d="M62.7598 0.933105C51.8065 17.3129 24.0104 50.5074 0.453369 52.2468" stroke="#000E87"/>
<g clip-path="url(#clip0_2_1185)">
<path fill-rule="evenodd" clip-rule="evenodd" d="M96.7508 126.58H85.4392C83.165 126.58 81.3213 124.739 81.3213 122.469V111.174C81.3213 108.903 83.165 107.062 85.4392 107.062H96.7508C99.025 107.062 100.869 108.903 100.869 111.174V122.469C100.869 124.739 99.025 126.58 96.7508 126.58Z" fill="#FA7F33"/>
<path fill-rule="evenodd" clip-rule="evenodd" d="M103.105 122.992H94.919C92.1427 122.992 89.8922 120.744 89.8922 117.972V109.798C89.8922 107.026 92.1427 104.779 94.919 104.779H103.105C105.882 104.779 108.132 107.026 108.132 109.798V117.972C108.132 120.744 105.882 122.992 103.105 122.992Z" fill="#000E87"/>
<path fill-rule="evenodd" clip-rule="evenodd" d="M172.18 33.9379C172.098 33.9379 172.017 33.906 171.956 33.8427L168.562 30.3172L165.131 33.7186C164.922 33.9255 164.582 33.9242 164.375 33.7168L160.973 30.32C160.957 30.3045 160.94 30.3013 160.928 30.3013C160.915 30.3013 160.898 30.3045 160.882 30.32L157.486 33.7178C157.365 33.8391 157.169 33.8392 157.047 33.7182C156.926 33.5973 156.926 33.401 157.047 33.2798L160.443 29.8817C160.572 29.7523 160.745 29.6811 160.928 29.6811C161.111 29.6811 161.283 29.7523 161.412 29.8815L164.754 33.2186L168.16 29.8419C168.383 29.6221 168.744 29.6226 168.966 29.842L168.971 29.8474L172.403 33.4129C172.522 33.5364 172.518 33.7327 172.395 33.8513C172.334 33.9091 172.257 33.9379 172.18 33.9379Z" fill="#F1B61D"/>
<path fill-rule="evenodd" clip-rule="evenodd" d="M152.986 28.5323C152.849 28.5323 152.711 28.4801 152.607 28.3759L149.205 24.9792C149.19 24.9637 149.172 24.9605 149.16 24.9605C149.148 24.9605 149.13 24.9637 149.115 24.9792L145.719 28.377C145.598 28.4982 145.401 28.4984 145.279 28.3774C145.158 28.2565 145.158 28.0601 145.279 27.9389L148.675 24.5409C148.805 24.4115 148.977 24.3403 149.16 24.3403C149.343 24.3403 149.515 24.4115 149.644 24.5407L152.987 27.878L156.261 24.65C156.383 24.5298 156.579 24.5309 156.7 24.6528C156.82 24.7746 156.819 24.971 156.697 25.0913L153.363 28.3784C153.259 28.481 153.123 28.5323 152.986 28.5323Z" fill="#422B90"/>
<path fill-rule="evenodd" clip-rule="evenodd" d="M130.351 19.5446C128.727 19.5446 127.406 20.8637 127.406 22.4851V33.4856C127.406 35.1067 128.727 36.4258 130.351 36.4258H141.368C142.992 36.4258 144.312 35.1067 144.312 33.4856V22.4851C144.312 20.8637 142.992 19.5446 141.368 19.5446H130.351ZM141.368 38.5542H130.351C127.552 38.5542 125.274 36.2804 125.274 33.4856V22.4851C125.274 19.6901 127.552 17.4163 130.351 17.4163H141.368C144.167 17.4163 146.444 19.6901 146.444 22.4851V33.4856C146.444 36.2804 144.167 38.5542 141.368 38.5542Z" fill="#33FAE3"/>
<path fill-rule="evenodd" clip-rule="evenodd" d="M143.586 38.3683V92.5353C143.586 98.1366 139.022 102.694 133.412 102.694H110.468C104.858 102.694 100.294 98.1366 100.294 92.5353V38.3683C100.294 32.7669 104.858 28.2095 110.468 28.2095H133.412C139.022 28.2095 143.586 32.7669 143.586 38.3683Z" fill="white"/>
<path fill-rule="evenodd" clip-rule="evenodd" d="M143.586 38.3683V92.5353C143.586 98.1366 139.022 102.694 133.412 102.694H110.468C104.858 102.694 100.294 98.1366 100.294 92.5353V38.3683C100.294 32.7669 104.858 28.2095 110.468 28.2095H133.412C139.022 28.2095 143.586 32.7669 143.586 38.3683Z" fill="#FFE4DC"/>
<path fill-rule="evenodd" clip-rule="evenodd" d="M142.965 92.535C142.965 97.7946 138.679 102.074 133.412 102.074H110.468C105.2 102.074 100.915 97.7946 100.915 92.535V38.368C100.915 33.1084 105.2 28.8294 110.468 28.8294H133.412C138.679 28.8294 142.965 33.1084 142.965 38.368V92.535ZM133.412 28.2092H110.468C104.858 28.2092 100.294 32.7667 100.294 38.368V92.535C100.294 98.1363 104.858 102.694 110.468 102.694H133.412C139.022 102.694 143.586 98.1363 143.586 92.535V38.368C143.586 32.7667 139.022 28.2092 133.412 28.2092Z" fill="#1D1D1B"/>
<path fill-rule="evenodd" clip-rule="evenodd" d="M130.085 34.2636L130.926 33.424C131.01 33.3402 131.153 33.3995 131.153 33.518V35.1973C131.153 35.3157 131.01 35.375 130.926 35.2913L130.085 34.4516C130.033 34.3997 130.033 34.3155 130.085 34.2636Z" fill="#03A8A9"/>
<path fill-rule="evenodd" clip-rule="evenodd" d="M129.36 35.8917H126.511C126.181 35.8917 125.913 35.6245 125.913 35.2948V33.5674C125.913 33.2377 126.181 32.9705 126.511 32.9705H129.36C129.69 32.9705 129.958 33.2377 129.958 33.5674V35.2948C129.958 35.6245 129.69 35.8917 129.36 35.8917Z" fill="#03A8A9"/>
<path fill-rule="evenodd" clip-rule="evenodd" d="M130.912 34.9361L130.332 34.3576L130.912 33.7792V34.9361ZM129.716 35.2947C129.716 35.4909 129.556 35.6504 129.36 35.6504H126.511C126.315 35.6504 126.155 35.4909 126.155 35.2947V33.5673C126.155 33.3712 126.315 33.2116 126.511 33.2116H129.36C129.556 33.2116 129.716 33.3712 129.716 33.5673V35.2947ZM131.163 33.1724C131.023 33.1142 130.862 33.1461 130.755 33.2535L130.199 33.8082V33.5673C130.199 33.1052 129.823 32.7292 129.36 32.7292H126.511C126.048 32.7292 125.672 33.1052 125.672 33.5673V35.2947C125.672 35.7568 126.048 36.1328 126.511 36.1328H129.36C129.823 36.1328 130.199 35.7568 130.199 35.2947V34.9069L130.755 35.4618C130.827 35.5336 130.922 35.5716 131.019 35.5716C131.068 35.5716 131.117 35.5622 131.163 35.543C131.304 35.4848 131.395 35.3491 131.395 35.1973V33.518C131.395 33.3661 131.304 33.2305 131.163 33.1724Z" fill="#1D1D1B"/>
<path fill-rule="evenodd" clip-rule="evenodd" d="M110.483 95.3793H109.016V93.946C109.016 93.7938 108.893 93.6704 108.74 93.6704C108.588 93.6704 108.464 93.7938 108.464 93.946V95.3793H107.039C106.887 95.3793 106.763 95.5027 106.763 95.6549C106.763 95.8071 106.887 95.9305 107.039 95.9305H108.464V97.3847C108.464 97.5369 108.588 97.6603 108.74 97.6603C108.893 97.6603 109.016 97.5369 109.016 97.3847V95.9305H110.483C110.636 95.9305 110.759 95.8071 110.759 95.6549C110.759 95.5027 110.636 95.3793 110.483 95.3793Z" fill="#1D1D1B"/>
<path fill-rule="evenodd" clip-rule="evenodd" d="M116.188 97.5128H113.976C113.599 97.5128 113.294 97.2081 113.294 96.8322V94.6227C113.294 94.2469 113.599 93.9421 113.976 93.9421H116.188C116.565 93.9421 116.87 94.2469 116.87 94.6227V96.8322C116.87 97.2081 116.565 97.5128 116.188 97.5128Z" fill="#03A8A9"/>
<path fill-rule="evenodd" clip-rule="evenodd" d="M116.188 97.2716H115.776C115.753 97.1044 115.776 96.8818 116.023 96.588C116.204 96.3721 116.454 96.2963 116.628 96.2701V96.8322C116.628 97.0745 116.431 97.2716 116.188 97.2716ZM113.535 96.8322V94.6227C113.535 94.3803 113.733 94.1833 113.976 94.1833H116.188C116.431 94.1833 116.628 94.3803 116.628 94.6227V95.7834C116.369 95.811 115.958 95.915 115.653 96.2781C115.315 96.6802 115.267 97.0241 115.289 97.2716H113.976C113.733 97.2716 113.535 97.0745 113.535 96.8322ZM116.188 93.7009H113.976C113.467 93.7009 113.052 94.1144 113.052 94.6227V96.8322C113.052 97.3404 113.467 97.7539 113.976 97.7539H116.188C116.697 97.7539 117.112 97.3404 117.112 96.8322V94.6227C117.112 94.1144 116.697 93.7009 116.188 93.7009Z" fill="#1D1D1B"/>
<path fill-rule="evenodd" clip-rule="evenodd" d="M134.41 32.8612C134.33 32.7438 134.154 32.7473 134.08 32.869C133.827 33.2834 133.435 34.1609 134.001 34.9801C134.553 35.7789 135.459 35.7913 136.086 35.6993C136.236 35.6773 136.308 35.5028 136.214 35.3832L135.616 34.6155C135.551 34.5326 135.432 34.5151 135.346 34.5758L135.231 34.6575C135.142 34.7202 135.019 34.6993 134.956 34.611L134.742 34.3109C134.68 34.2234 134.699 34.1022 134.786 34.0384L134.92 33.9392C135.005 33.8762 135.025 33.757 134.965 33.6695L134.41 32.8612Z" fill="#03A8A9"/>
<path fill-rule="evenodd" clip-rule="evenodd" d="M134.248 32.9907C134.006 33.393 133.684 34.1581 134.171 34.8629C134.548 35.4071 135.177 35.6205 136.041 35.4972L135.458 34.7502L135.35 34.8264C135.169 34.9546 134.916 34.9117 134.787 34.731L134.573 34.4309C134.447 34.2529 134.486 34.0024 134.662 33.8724L134.789 33.7788L134.248 32.9907ZM135.579 35.9453C134.807 35.9454 134.22 35.6614 133.831 35.0977C133.614 34.7849 133.188 33.931 133.903 32.7614C133.975 32.6446 134.099 32.5726 134.236 32.569C134.375 32.5656 134.503 32.6309 134.581 32.7445L135.136 33.5528C135.26 33.7329 135.219 33.9758 135.043 34.1056L134.916 34.199L135.119 34.4832L135.227 34.4072C135.403 34.2825 135.646 34.3183 135.779 34.4886L136.377 35.2563C136.467 35.3708 136.488 35.5195 136.434 35.6541C136.38 35.7894 136.261 35.8828 136.116 35.904C135.928 35.9316 135.749 35.9453 135.579 35.9453Z" fill="#1D1D1B"/>
<path fill-rule="evenodd" clip-rule="evenodd" d="M114.965 45.1266C114.965 47.9644 112.661 50.265 109.819 50.265C106.977 50.265 104.673 47.9644 104.673 45.1266C104.673 42.2888 106.977 39.9883 109.819 39.9883C112.661 39.9883 114.965 42.2888 114.965 45.1266Z" fill="#03A8A9"/>
<path fill-rule="evenodd" clip-rule="evenodd" d="M109.819 40.2984C107.153 40.2984 104.984 42.4644 104.984 45.1266C104.984 47.789 107.153 49.9549 109.819 49.9549C112.486 49.9549 114.655 47.789 114.655 45.1266C114.655 42.4644 112.486 40.2984 109.819 40.2984ZM109.819 50.5751C106.81 50.5751 104.362 48.1309 104.362 45.1266C104.362 42.1224 106.81 39.6782 109.819 39.6782C112.828 39.6782 115.276 42.1224 115.276 45.1266C115.276 48.1309 112.828 50.5751 109.819 50.5751Z" fill="#1D1D1B"/>
<path fill-rule="evenodd" clip-rule="evenodd" d="M106.248 45.2798C106.248 45.2798 105.752 42.6245 107.879 41.4929C109.34 40.7157 111.069 41.7583 111.654 42.59C112.49 43.7796 113.426 43.4394 113.869 44.2888C114.312 45.1382 113.515 46.1999 113.515 46.1999L106.248 45.2798Z" fill="#422B90"/>
<path fill-rule="evenodd" clip-rule="evenodd" d="M106.495 45.0331L113.38 45.905C113.552 45.6252 113.901 44.9472 113.624 44.4161C113.461 44.1032 113.212 43.9966 112.868 43.8493C112.444 43.6677 111.915 43.4415 111.428 42.7483C110.908 42.0088 109.321 41.0383 108.009 41.7361C106.403 42.59 106.436 44.4295 106.495 45.0331ZM113.639 46.4935L106.014 45.5279L105.977 45.3303C105.972 45.3012 105.845 44.6077 105.994 43.7629C106.195 42.6227 106.802 41.7536 107.749 41.2496C109.295 40.427 111.173 41.4264 111.88 42.4316C112.277 42.9966 112.688 43.1725 113.085 43.3427C113.466 43.5055 113.86 43.674 114.114 44.1615C114.631 45.1534 113.772 46.3163 113.736 46.3653L113.639 46.4935Z" fill="#1D1D1B"/>
<path fill-rule="evenodd" clip-rule="evenodd" d="M108.731 42.8938C107.689 43.3674 106.948 44.5639 106.948 45.966C106.948 47.783 108.191 49.2558 109.724 49.2558C111.256 49.2558 112.499 47.783 112.499 45.966C112.499 45.9228 112.343 45.3773 111.965 45.2997C109.751 45.3196 109.187 43.9993 108.731 42.8938Z" fill="white"/>
<path fill-rule="evenodd" clip-rule="evenodd" d="M109.724 48.9803C108.346 48.9803 107.225 47.6282 107.225 45.9662C107.225 44.8333 107.762 43.7941 108.587 43.2831C108.613 43.3418 108.639 43.3991 108.666 43.4537C108.67 43.4602 108.674 43.4661 108.677 43.4721C109.13 44.4735 109.869 45.5757 111.916 45.5756H111.931C112.078 45.6265 112.194 45.8797 112.222 45.9908C112.211 47.6415 111.095 48.9803 109.724 48.9803ZM112.021 45.0298L111.992 45.0239L111.963 45.0242C109.919 45.0456 109.423 43.8499 108.989 42.795C108.856 42.422 108.769 42.0547 108.768 42.0496C108.733 41.9015 108.585 41.8095 108.437 41.8439C108.288 41.8784 108.196 42.0265 108.23 42.1748C108.235 42.1928 108.295 42.4471 108.393 42.7565C107.34 43.349 106.672 44.5797 106.672 45.9662C106.672 47.9321 108.041 49.5316 109.724 49.5316C111.406 49.5316 112.775 47.9321 112.775 45.9662C112.775 45.8336 112.569 45.1426 112.021 45.0298Z" fill="#1D1D1B"/>
<path fill-rule="evenodd" clip-rule="evenodd" d="M107.541 47.2046C106.529 47.2046 105.945 46.7234 105.945 46.1582C105.945 45.593 106.397 45.1414 107.365 45.1414" fill="white"/>
<path fill-rule="evenodd" clip-rule="evenodd" d="M107.541 47.4802C106.255 47.4802 105.669 46.795 105.669 46.1582C105.669 45.7829 105.83 45.45 106.122 45.2211C106.422 44.9853 106.841 44.8657 107.365 44.8657C107.517 44.8657 107.641 44.9891 107.641 45.1413C107.641 45.2936 107.517 45.417 107.365 45.417C106.638 45.417 106.221 45.6872 106.221 46.1582C106.221 46.612 106.764 46.929 107.541 46.929C107.693 46.929 107.817 47.0524 107.817 47.2046C107.817 47.3568 107.693 47.4802 107.541 47.4802Z" fill="#1D1D1B"/>
<path fill-rule="evenodd" clip-rule="evenodd" d="M111.859 45.2971C112.87 45.2971 113.454 45.7783 113.454 46.3435C113.454 46.9087 113.002 47.3604 112.034 47.3604" fill="white"/>
<path fill-rule="evenodd" clip-rule="evenodd" d="M112.035 47.636C111.882 47.636 111.758 47.5126 111.758 47.3604C111.758 47.2081 111.882 47.0847 112.035 47.0847C112.761 47.0847 113.178 46.8146 113.178 46.3435C113.178 45.8897 112.636 45.5727 111.859 45.5727C111.706 45.5727 111.583 45.4493 111.583 45.2971C111.583 45.1449 111.706 45.0215 111.859 45.0215C113.145 45.0215 113.731 45.7068 113.731 46.3435C113.731 46.7188 113.57 47.0517 113.278 47.2806C112.977 47.5164 112.559 47.636 112.035 47.636Z" fill="#1D1D1B"/>
<path fill-rule="evenodd" clip-rule="evenodd" d="M109.174 45.7639C109.174 45.9025 109.062 46.0148 108.923 46.0148C108.784 46.0148 108.672 45.9025 108.672 45.7639C108.672 45.6253 108.784 45.5129 108.923 45.5129C109.062 45.5129 109.174 45.6253 109.174 45.7639Z" fill="#1D1D1B"/>
<path fill-rule="evenodd" clip-rule="evenodd" d="M110.46 45.7763C110.46 45.9149 110.347 46.0273 110.208 46.0273C110.07 46.0273 109.957 45.9149 109.957 45.7763C109.957 45.6378 110.07 45.5254 110.208 45.5254C110.347 45.5254 110.46 45.6378 110.46 45.7763Z" fill="#1D1D1B"/>
<path fill-rule="evenodd" clip-rule="evenodd" d="M109.641 46.9094C109.141 46.9094 108.814 46.7924 108.796 46.7858C108.689 46.7464 108.634 46.6276 108.673 46.5205C108.712 46.4135 108.831 46.3587 108.938 46.3974C108.943 46.3992 109.44 46.5731 110.127 46.4539C110.24 46.4343 110.347 46.5096 110.366 46.6221C110.386 46.7346 110.31 46.8416 110.198 46.8612C109.996 46.8962 109.808 46.9094 109.641 46.9094Z" fill="#1D1D1B"/>
<path fill-rule="evenodd" clip-rule="evenodd" d="M107.039 46.5987C106.984 46.5987 106.93 46.5772 106.889 46.5346C106.736 46.3742 106.708 46.2137 106.712 46.1073C106.721 45.8645 106.893 45.7008 106.913 45.6829C106.998 45.6061 107.129 45.6123 107.206 45.6968C107.282 45.7807 107.276 45.9103 107.193 45.9872C107.105 46.0721 107.104 46.1602 107.189 46.2492C107.268 46.3318 107.265 46.4626 107.182 46.5415C107.142 46.5797 107.09 46.5987 107.039 46.5987Z" fill="#1D1D1B"/>
<path fill-rule="evenodd" clip-rule="evenodd" d="M112.369 46.8502C112.327 46.8502 112.284 46.8373 112.247 46.8103C112.155 46.7429 112.135 46.6136 112.202 46.5215C112.341 46.3314 112.196 46.1561 112.166 46.123C112.089 46.0395 112.093 45.9091 112.176 45.8315C112.258 45.7539 112.387 45.7566 112.466 45.8384C112.613 45.9916 112.817 46.3825 112.537 46.7654C112.496 46.8208 112.433 46.8502 112.369 46.8502Z" fill="#1D1D1B"/>
<path fill-rule="evenodd" clip-rule="evenodd" d="M139.428 76.6918C139.428 79.5297 137.124 81.8302 134.282 81.8302C131.44 81.8302 129.136 79.5297 129.136 76.6918C129.136 73.854 131.44 71.5535 134.282 71.5535C137.124 71.5535 139.428 73.854 139.428 76.6918Z" fill="#03A8A9"/>
<path fill-rule="evenodd" clip-rule="evenodd" d="M134.282 71.8636C131.616 71.8636 129.446 74.0295 129.446 76.6918C129.446 79.3542 131.616 81.5202 134.282 81.5202C136.948 81.5202 139.118 79.3542 139.118 76.6918C139.118 74.0295 136.948 71.8636 134.282 71.8636ZM134.282 82.1403C131.273 82.1403 128.825 79.6961 128.825 76.6918C128.825 73.6876 131.273 71.2434 134.282 71.2434C137.291 71.2434 139.739 73.6876 139.739 76.6918C139.739 79.6961 137.291 82.1403 134.282 82.1403Z" fill="#1D1D1B"/>
<path fill-rule="evenodd" clip-rule="evenodd" d="M130.711 76.8449C130.711 76.8449 130.214 74.1896 132.342 73.058C133.803 72.2808 135.369 73.0144 136.074 73.8543C136.953 74.9027 137.889 75.0045 138.332 75.8539C138.775 76.7033 137.977 77.765 137.977 77.765L130.711 76.8449Z" fill="#DB5F2C"/>
<path fill-rule="evenodd" clip-rule="evenodd" d="M130.957 76.5983L137.842 77.4701C138.015 77.1904 138.364 76.5124 138.087 75.9813C137.889 75.602 137.569 75.3916 137.163 75.1252C136.763 74.8622 136.309 74.5641 135.862 74.0312C135.294 73.3541 133.87 72.5572 132.471 73.3012C131.673 73.7261 131.179 74.4346 131.004 75.4068C130.913 75.9061 130.934 76.3534 130.957 76.5983ZM138.102 78.0587L130.477 77.0931L130.44 76.8955C130.434 76.8665 130.308 76.1728 130.457 75.328C130.657 74.188 131.264 73.3187 132.212 72.8148C133.716 72.0147 135.433 72.6621 136.285 73.6772C136.68 74.148 137.08 74.4107 137.467 74.6646C137.902 74.9504 138.312 75.2202 138.577 75.7267C139.094 76.7184 138.235 77.8814 138.198 77.9305L138.102 78.0587Z" fill="#1D1D1B"/>
<path fill-rule="evenodd" clip-rule="evenodd" d="M133.756 74.4153C132.713 74.8888 131.411 76.129 131.411 77.5312C131.411 79.3481 132.654 80.821 134.186 80.821C135.719 80.821 136.961 79.3481 136.961 77.5312C136.961 77.4881 136.805 76.9425 136.428 76.8648C135.051 75.9964 134.496 75.3188 133.756 74.4153Z" fill="white"/>
<path fill-rule="evenodd" clip-rule="evenodd" d="M134.186 80.5454C132.808 80.5454 131.687 79.1932 131.687 77.5312C131.687 76.6645 132.384 75.4291 133.68 74.7583C134.359 75.5831 134.955 76.2618 136.28 77.0979L136.323 77.1246L136.372 77.1348C136.529 77.1671 136.655 77.4395 136.685 77.5558C136.674 79.2065 135.557 80.5454 134.186 80.5454ZM136.538 76.6083C135.431 75.9053 134.882 75.3362 134.3 74.6412C134.295 74.6311 134.291 74.6209 134.285 74.6112C134.003 74.1608 133.829 73.6539 133.827 73.6488C133.778 73.5049 133.622 73.4273 133.477 73.4764C133.333 73.5253 133.255 73.6817 133.304 73.8259C133.309 73.8386 133.368 74.0106 133.472 74.2468C132.31 74.8436 131.135 76.1509 131.135 77.5312C131.135 79.4972 132.504 81.0966 134.186 81.0966C135.869 81.0966 137.237 79.4972 137.237 77.5312C137.237 77.4031 137.046 76.754 136.538 76.6083Z" fill="#1D1D1B"/>
<path fill-rule="evenodd" clip-rule="evenodd" d="M132.003 78.7698C130.992 78.7698 130.407 78.2886 130.407 77.7234C130.407 77.1582 130.86 76.7065 131.827 76.7065" fill="white"/>
<path fill-rule="evenodd" clip-rule="evenodd" d="M132.003 79.0454C130.717 79.0454 130.131 78.3601 130.131 77.7234C130.131 77.348 130.292 77.0152 130.584 76.7863C130.885 76.5505 131.303 76.4309 131.827 76.4309C131.98 76.4309 132.103 76.5543 132.103 76.7065C132.103 76.8587 131.98 76.9822 131.827 76.9822C131.111 76.9822 130.683 77.2592 130.683 77.7234C130.683 78.1772 131.226 78.4942 132.003 78.4942C132.156 78.4942 132.279 78.6176 132.279 78.7698C132.279 78.922 132.156 79.0454 132.003 79.0454Z" fill="#1D1D1B"/>
<path fill-rule="evenodd" clip-rule="evenodd" d="M136.321 76.8621C137.333 76.8621 137.917 77.3432 137.917 77.9085C137.917 78.4736 137.464 78.9253 136.497 78.9253" fill="white"/>
<path fill-rule="evenodd" clip-rule="evenodd" d="M136.497 79.2012C136.345 79.2012 136.221 79.0778 136.221 78.9256C136.221 78.7733 136.345 78.6499 136.497 78.6499C137.224 78.6499 137.641 78.3797 137.641 77.9086C137.641 77.4548 137.098 77.1379 136.321 77.1379C136.169 77.1379 136.045 77.0145 136.045 76.8623C136.045 76.7101 136.169 76.5867 136.321 76.5867C137.607 76.5867 138.193 77.2719 138.193 77.9086C138.193 78.284 138.032 78.6169 137.74 78.8458C137.44 79.0816 137.021 79.2012 136.497 79.2012Z" fill="#1D1D1B"/>
<path fill-rule="evenodd" clip-rule="evenodd" d="M133.77 77.3203C133.77 77.4589 133.658 77.5713 133.519 77.5713C133.38 77.5713 133.268 77.4589 133.268 77.3203C133.268 77.1817 133.38 77.0693 133.519 77.0693C133.658 77.0693 133.77 77.1817 133.77 77.3203Z" fill="#1D1D1B"/>
<path fill-rule="evenodd" clip-rule="evenodd" d="M134.767 77.323C134.767 77.4616 134.655 77.5739 134.516 77.5739C134.377 77.5739 134.265 77.4616 134.265 77.323C134.265 77.1844 134.377 77.072 134.516 77.072C134.655 77.072 134.767 77.1844 134.767 77.323Z" fill="#1D1D1B"/>
<path fill-rule="evenodd" clip-rule="evenodd" d="M133.898 78.523C133.565 78.523 133.35 78.4635 133.335 78.4592C133.225 78.4279 133.161 78.3134 133.192 78.2037C133.224 78.094 133.338 78.0308 133.448 78.0615C133.458 78.0643 133.97 78.1998 134.625 78.0005C134.734 77.9673 134.85 78.0287 134.883 78.1379C134.916 78.2471 134.855 78.3626 134.745 78.3959C134.424 78.4938 134.132 78.523 133.898 78.523Z" fill="#1D1D1B"/>
<path fill-rule="evenodd" clip-rule="evenodd" d="M131.502 78.1638C131.447 78.1638 131.393 78.1423 131.352 78.0998C131.198 77.9393 131.171 77.7788 131.175 77.6724C131.183 77.4296 131.356 77.2659 131.376 77.2481C131.46 77.1712 131.591 77.1776 131.668 77.262C131.745 77.3459 131.739 77.4755 131.656 77.5524C131.568 77.6372 131.566 77.7254 131.651 77.8143C131.73 77.8969 131.727 78.0277 131.645 78.1066C131.605 78.1448 131.553 78.1638 131.502 78.1638Z" fill="#1D1D1B"/>
<path fill-rule="evenodd" clip-rule="evenodd" d="M136.832 78.4153C136.79 78.4153 136.747 78.4025 136.71 78.3755C136.618 78.3081 136.598 78.1788 136.665 78.0866C136.804 77.8965 136.659 77.7214 136.628 77.6882C136.551 77.6047 136.555 77.4743 136.638 77.3968C136.721 77.3192 136.85 77.3217 136.929 77.4035C137.076 77.5568 137.28 77.9476 136.999 78.3307C136.959 78.386 136.896 78.4153 136.832 78.4153Z" fill="#1D1D1B"/>
<path fill-rule="evenodd" clip-rule="evenodd" d="M83.1043 70.8663H88.3409L88.2112 68.7184C88.1996 68.5268 88.4627 68.427 88.6095 68.5672L91.0163 70.8663H119.965C122.72 70.8663 124.954 72.8581 124.954 75.3151V85.8909C124.954 88.3479 122.72 90.3397 119.965 90.3397H83.1043C80.3492 90.3397 78.1158 88.3479 78.1158 85.8909V75.3151C78.1158 72.8581 80.3492 70.8663 83.1043 70.8663Z" fill="white"/>
<path fill-rule="evenodd" clip-rule="evenodd" d="M83.1043 71.1765C80.5249 71.1765 78.4264 73.0331 78.4264 75.3152V85.891C78.4264 88.1731 80.5249 90.0297 83.1043 90.0297H119.965C122.545 90.0297 124.643 88.1731 124.643 85.891V75.3152C124.643 73.0331 122.545 71.1765 119.965 71.1765H90.8917L88.5348 68.925L88.6707 71.1765H83.1043ZM119.965 90.6498H83.1043C80.1824 90.6498 77.8053 88.515 77.8053 85.891V75.3152C77.8053 72.6911 80.1824 70.5563 83.1043 70.5563H88.0111L87.9012 68.7371C87.8886 68.5285 88.0075 68.3349 88.204 68.244C88.4152 68.1461 88.6587 68.1851 88.8242 68.3432L91.141 70.5563H119.965C122.887 70.5563 125.264 72.6911 125.264 75.3152V85.891C125.264 88.515 122.887 90.6498 119.965 90.6498Z" fill="#1D1D1B"/>
<path fill-rule="evenodd" clip-rule="evenodd" d="M104.066 85.9226H84.1014C83.9299 85.9226 83.7909 85.7838 83.7909 85.6126C83.7909 85.4413 83.9299 85.3025 84.1014 85.3025H104.066C104.237 85.3025 104.376 85.4413 104.376 85.6126C104.376 85.7838 104.237 85.9226 104.066 85.9226Z" fill="#1D1D1B"/>
<path fill-rule="evenodd" clip-rule="evenodd" d="M160.915 67.4519H155.255L155.629 70.092C155.652 70.2532 155.47 70.363 155.337 70.2679L151.422 67.4519H123.945C121.211 67.4519 118.995 65.2388 118.995 62.5089V44.8143C118.995 42.0844 121.211 39.8713 123.945 39.8713H160.915C163.649 39.8713 165.865 42.0844 165.865 44.8143V62.5089C165.865 65.2388 163.649 67.4519 160.915 67.4519Z" fill="white"/>
<path fill-rule="evenodd" clip-rule="evenodd" d="M123.945 40.1814C121.387 40.1814 119.305 42.2598 119.305 44.8143V62.5089C119.305 65.0636 121.387 67.1418 123.945 67.1418H151.522L155.28 69.8447L154.897 67.1418H160.915C163.473 67.1418 165.555 65.0636 165.555 62.5089V44.8143C165.555 42.2598 163.473 40.1814 160.915 40.1814H123.945ZM155.445 70.613C155.344 70.613 155.242 70.5816 155.156 70.5196L151.322 67.762H123.945C121.044 67.762 118.684 65.4055 118.684 62.5089V44.8143C118.684 41.9178 121.044 39.5613 123.945 39.5613H160.915C163.816 39.5613 166.176 41.9178 166.176 44.8143V62.5089C166.176 65.4055 163.816 67.762 160.915 67.762H155.612L155.936 70.0486C155.964 70.2452 155.872 70.4387 155.702 70.5415C155.623 70.5892 155.534 70.613 155.445 70.613Z" fill="#1D1D1B"/>
<path fill-rule="evenodd" clip-rule="evenodd" d="M159.115 47.2273H124.476C124.305 47.2273 124.166 47.0885 124.166 46.9173C124.166 46.746 124.305 46.6072 124.476 46.6072H159.115C159.286 46.6072 159.426 46.746 159.426 46.9173C159.426 47.0885 159.286 47.2273 159.115 47.2273Z" fill="#1D1D1B"/>
<path fill-rule="evenodd" clip-rule="evenodd" d="M159.115 51.501H124.476C124.305 51.501 124.166 51.3622 124.166 51.1909C124.166 51.0197 124.305 50.8809 124.476 50.8809H159.115C159.286 50.8809 159.426 51.0197 159.426 51.1909C159.426 51.3622 159.286 51.501 159.115 51.501Z" fill="#1D1D1B"/>
<path fill-rule="evenodd" clip-rule="evenodd" d="M153.184 60.699H124.476C124.305 60.699 124.166 60.5602 124.166 60.3889C124.166 60.2177 124.305 60.0789 124.476 60.0789H153.184C153.356 60.0789 153.495 60.2177 153.495 60.3889C153.495 60.5602 153.356 60.699 153.184 60.699Z" fill="#1D1D1B"/>
<path fill-rule="evenodd" clip-rule="evenodd" d="M138.671 56.1001H124.476C124.305 56.1001 124.166 55.9613 124.166 55.7901C124.166 55.6188 124.305 55.48 124.476 55.48H138.671C138.843 55.48 138.982 55.6188 138.982 55.7901C138.982 55.9613 138.843 56.1001 138.671 56.1001Z" fill="#1D1D1B"/>
<path fill-rule="evenodd" clip-rule="evenodd" d="M172.352 88.9946L168.582 102.287C168.48 102.648 168.335 102.985 168.157 103.296C167.16 105.028 165.079 105.932 163.067 105.363L151.025 101.956C148.651 101.285 147.273 98.82 147.945 96.4502L151.715 83.1583C152.388 80.7886 154.856 79.4119 157.23 80.083L165.649 82.4638L169.272 83.4884C171.645 84.1602 173.025 86.6249 172.352 88.9946Z" fill="#422B90"/>
<g style="mix-blend-mode:multiply">
<path fill-rule="evenodd" clip-rule="evenodd" d="M172.352 88.9945L168.582 102.286C168.48 102.648 168.335 102.985 168.157 103.296L163.779 99.759C163.779 99.759 165.046 95.2959 165.94 91.4282C166.834 87.5605 164.525 83.3952 164.525 83.3952L165.649 82.4636L169.272 83.4883C171.645 84.1601 173.025 86.6248 172.352 88.9945Z" fill="#FFD1C3"/>
</g>
<path fill-rule="evenodd" clip-rule="evenodd" d="M156.014 80.2237C154.202 80.2237 152.532 81.4179 152.014 83.2427L148.244 96.5346C147.619 98.7361 148.905 101.035 151.11 101.658L163.152 105.064C164.99 105.584 166.937 104.793 167.888 103.142C168.057 102.847 168.19 102.531 168.283 102.202L172.053 88.91C172.678 86.7091 171.392 84.4108 169.187 83.7865L157.145 80.3812C156.768 80.2746 156.388 80.2237 156.014 80.2237ZM164.291 105.843C163.857 105.843 163.417 105.784 162.983 105.661L150.94 102.255C148.406 101.538 146.928 98.8961 147.646 96.3656L151.416 83.0736C152.135 80.5435 154.78 79.068 157.314 79.7845L169.357 83.1899C171.891 83.9075 173.369 86.5493 172.651 89.0791L168.881 102.371C168.774 102.748 168.621 103.111 168.426 103.45C167.558 104.959 165.967 105.843 164.291 105.843Z" fill="#1D1D1B"/>
<path fill-rule="evenodd" clip-rule="evenodd" d="M162.241 66.5208C162.241 66.5208 162.61 61.5997 167.916 61.2724C171.185 61.0708 173.599 65.7436 174.027 66.6509C174.069 66.7396 174.158 66.7947 174.257 66.7922C174.908 66.776 177.308 66.7598 177.507 67.3959C177.695 67.9991 176.368 68.5312 175.88 68.7042C175.799 68.7333 175.772 68.8353 175.829 68.9007C176.249 69.379 177.577 70.9762 177.184 71.6317C176.949 72.0238 176.17 71.559 175.82 71.3196C175.73 71.2579 175.607 71.3153 175.596 71.4237C175.494 72.4712 174.893 76.4827 171.617 77.7992C167.836 79.3186 165.841 78.3997 165.841 78.3997L162.241 66.5208Z" fill="#FA7F33"/>
<g style="mix-blend-mode:multiply">
<path fill-rule="evenodd" clip-rule="evenodd" d="M176.239 68.9017C177.063 69.8754 177.866 71.0971 177.45 71.7909C177.361 71.9398 177.222 72.0383 177.049 72.0762C176.756 72.1403 176.361 72.0225 175.875 71.7248C175.795 72.347 175.59 73.4812 175.081 74.6354C174.332 76.3339 173.206 77.495 171.733 78.0869C169.981 78.7911 168.596 78.9868 167.599 78.9868C166.612 78.9868 166.005 78.7952 165.792 78.7146C165.583 78.4776 165.547 78.2722 165.755 78.1179C165.823 78.0676 165.917 78.0228 166.039 77.9842C166.177 77.9394 166.354 77.9036 166.571 77.876C170.771 77.3468 172.967 74.9289 173.61 73.8705C174.253 72.8128 174.13 70.7356 173.714 70.0176C173.297 69.3003 174.518 69.034 173.913 68.0514C173.307 67.0695 172.626 67.598 170.961 65.936C169.938 64.9141 169.615 63.1212 169.518 61.8919C169.509 61.7713 169.501 61.6563 169.495 61.5474V61.5467C169.489 61.424 169.485 61.3103 169.482 61.2063C170.428 61.555 171.362 62.2702 172.274 63.3451C173.366 64.633 174.074 66.0276 174.29 66.481C174.624 66.4742 175.382 66.468 176.083 66.541C177.142 66.6512 177.673 66.8862 177.803 67.3031C177.931 67.7117 177.751 68.3112 176.239 68.9017Z" fill="#FFD1C3"/>
</g>
<path fill-rule="evenodd" clip-rule="evenodd" d="M176.918 71.4704C176.844 71.4939 176.524 71.4257 175.995 71.0639C175.861 70.9723 175.694 70.9584 175.547 71.0267C175.4 71.0949 175.303 71.232 175.287 71.394C175.241 71.8708 175.072 73.1166 174.513 74.3859C173.832 75.9307 172.818 76.9822 171.501 77.5114C168.425 78.7475 166.569 78.3149 166.093 78.1618L166.039 77.9841L162.556 66.4906C162.584 66.246 162.738 65.2069 163.368 64.1568C164.316 62.5768 165.852 61.7106 167.935 61.5818C168.489 61.5473 169.019 61.6671 169.518 61.8918C171.873 62.9489 173.531 66.3266 173.746 66.7828C173.84 66.9826 174.045 67.1087 174.264 67.1018C176.13 67.0556 177.125 67.3058 177.21 67.4883C177.257 67.6386 176.834 68.0362 175.776 68.4116C175.641 68.46 175.538 68.5716 175.502 68.7108C175.466 68.8493 175.501 68.9967 175.595 69.1049C176.66 70.317 177.066 71.2093 176.918 71.4704ZM177.803 67.303C177.673 66.8861 177.142 66.6512 176.083 66.5409C175.382 66.4678 174.624 66.4741 174.29 66.481C174.074 66.0276 173.366 64.6329 172.274 63.3451C171.362 62.2701 170.428 61.5549 169.482 61.2062C168.957 61.0112 168.427 60.9299 167.897 60.963C165.02 61.1401 163.549 62.6367 162.822 63.8612C162.038 65.1793 161.935 66.4445 161.931 66.4975L161.927 66.5553L165.583 78.6229L165.71 78.6814C165.719 78.6849 165.746 78.6973 165.792 78.7145C166.005 78.7951 166.612 78.9867 167.599 78.9867C168.596 78.9867 169.981 78.7909 171.733 78.0869C173.206 77.4949 174.332 76.3338 175.081 74.6353C175.59 73.4811 175.795 72.3469 175.875 71.7246C176.361 72.0224 176.756 72.1402 177.049 72.0761C177.222 72.0382 177.361 71.9397 177.45 71.7908C177.867 71.097 177.063 69.8753 176.239 68.9016C177.751 68.3111 177.931 67.7116 177.803 67.303Z" fill="#1D1D1B"/>
<path fill-rule="evenodd" clip-rule="evenodd" d="M169.722 73.568C168.287 76.245 165.788 77.8456 163.524 77.7698C162.879 77.7485 162.252 77.5907 161.675 77.282C159.074 75.8922 158.308 71.8895 160.307 68.5358C162.202 65.3544 164.72 64.1726 167.39 63.6882C167.282 64.8748 167.708 66.8469 169.298 68.2333C169.71 68.5916 170.2 68.9113 170.778 69.1677C170.843 70.5678 170.504 72.1099 169.722 73.568Z" fill="white"/>
<g style="mix-blend-mode:multiply">
<path fill-rule="evenodd" clip-rule="evenodd" d="M169.722 73.5678C168.287 76.2449 165.788 77.8455 163.524 77.7697C164.691 76.8768 167.009 74.4665 167.937 72.7253C168.705 71.2851 169.332 69.43 169.298 68.2332C169.71 68.5915 170.2 68.9112 170.778 69.1676C170.843 70.5677 170.504 72.1098 169.722 73.5678Z" fill="#FFD1C3"/>
</g>
<path fill-rule="evenodd" clip-rule="evenodd" d="M164.472 67.0842C164.472 67.2975 164.299 67.4703 164.085 67.4703C163.872 67.4703 163.698 67.2975 163.698 67.0842C163.698 66.8709 163.872 66.698 164.085 66.698C164.299 66.698 164.472 66.8709 164.472 67.0842Z" fill="#1D1D1B"/>
<path fill-rule="evenodd" clip-rule="evenodd" d="M166.252 68.0302C166.252 68.2435 166.079 68.4163 165.866 68.4163C165.652 68.4163 165.479 68.2435 165.479 68.0302C165.479 67.8169 165.652 67.644 165.866 67.644C166.079 67.644 166.252 67.8169 166.252 68.0302Z" fill="#1D1D1B"/>
<path fill-rule="evenodd" clip-rule="evenodd" d="M169.448 73.4216C168.588 75.0267 167.311 76.2815 165.851 76.9549C164.422 77.6146 162.99 77.6336 161.821 77.0085C160.812 76.4691 160.061 75.4739 159.708 74.2065C159.218 72.4486 159.534 70.4394 160.573 68.694C162.1 66.1307 164.108 64.6928 167.046 64.0716C167.047 64.1094 167.055 64.1453 167.067 64.1786C167.11 65.626 167.802 67.9652 170.24 69.2512C170.261 69.2711 170.283 69.2894 170.309 69.3036C170.362 69.3328 170.418 69.3599 170.474 69.3855C170.498 70.731 170.145 72.1219 169.448 73.4216ZM172.116 69.1323C172.109 69.1319 171.531 69.1024 170.993 68.9233L170.904 68.8838C168.108 67.6446 167.585 64.9617 167.7 63.7162L167.719 63.5092C167.803 63.0341 167.963 62.7008 167.966 62.6963C168.041 62.5428 167.978 62.3573 167.824 62.2816C167.671 62.2059 167.484 62.2687 167.408 62.4223C167.397 62.4447 167.201 62.8487 167.102 63.4277C163.921 64.0593 161.672 65.6363 160.04 68.377C158.914 70.2672 158.575 72.4526 159.11 74.3727C159.509 75.8049 160.368 76.9351 161.528 77.5552C162.189 77.9085 162.918 78.0851 163.68 78.0851C164.469 78.0851 165.293 77.8959 166.112 77.5178C167.693 76.7882 169.072 75.4374 169.996 73.7143C170.704 72.3927 171.08 70.979 171.095 69.5981C171.608 69.7281 172.06 69.7505 172.088 69.7517C172.093 69.7519 172.098 69.7521 172.102 69.7521C172.267 69.7521 172.404 69.6224 172.412 69.4562C172.42 69.2853 172.288 69.1402 172.116 69.1323Z" fill="#1D1D1B"/>
<path fill-rule="evenodd" clip-rule="evenodd" d="M165.108 70.2539C165.094 70.2539 165.079 70.2528 165.063 70.2506C163.472 70.0199 162.643 69.0058 162.609 68.9628C162.501 68.829 162.523 68.6339 162.657 68.527C162.791 68.4202 162.986 68.4415 163.093 68.5745C163.104 68.5883 163.817 69.4433 165.153 69.6369C165.322 69.6614 165.44 69.8189 165.415 69.9883C165.393 70.1427 165.26 70.2539 165.108 70.2539Z" fill="#1D1D1B"/>
<path fill-rule="evenodd" clip-rule="evenodd" d="M170.211 71.6558C171.391 72.3057 171.927 73.6786 171.387 74.6622C170.847 75.6457 169.519 75.7988 168.177 75.1489" fill="white"/>
<g style="mix-blend-mode:multiply">
<path fill-rule="evenodd" clip-rule="evenodd" d="M170.211 71.6558C171.391 72.3057 171.927 73.6786 171.387 74.6622C170.847 75.6457 169.519 75.7988 168.177 75.1489" fill="#FFD1C3"/>
</g>
<path fill-rule="evenodd" clip-rule="evenodd" d="M169.729 75.8481C169.204 75.8481 168.625 75.7108 168.041 75.428C167.887 75.3533 167.822 75.1678 167.897 75.0138C167.972 74.8595 168.158 74.7953 168.312 74.87C169.544 75.4663 170.67 75.3229 171.115 74.5132C171.573 73.6787 171.09 72.4944 170.061 71.9273C169.91 71.8444 169.856 71.6559 169.939 71.506C170.021 71.3561 170.21 71.3017 170.36 71.3843C171.684 72.1134 172.279 73.6827 171.66 74.8113C171.286 75.4911 170.576 75.8481 169.729 75.8481Z" fill="#1D1D1B"/>
<path fill-rule="evenodd" clip-rule="evenodd" d="M169.511 74.711C169.301 74.711 169.111 74.6636 168.981 74.6081C168.824 74.5406 168.751 74.3583 168.818 74.201C168.886 74.0435 169.068 73.9705 169.226 74.0381C169.311 74.0728 169.761 74.2287 170.034 73.7966C170.286 73.3981 169.856 73.0894 169.767 73.0316C169.624 72.9383 169.582 72.7468 169.675 72.6034C169.767 72.46 169.958 72.4178 170.102 72.5093C170.526 72.7791 170.999 73.4327 170.559 74.1276C170.274 74.578 169.863 74.7109 169.511 74.711Z" fill="#1D1D1B"/>
<path fill-rule="evenodd" clip-rule="evenodd" d="M161.674 77.2818L160.878 80.6454C160.878 80.6454 161.512 82.6709 163.287 82.6709C165.062 82.6709 166.034 81.7425 166.034 81.7425L167.217 76.6367L166.989 76.6632C165.269 77.8336 163.28 78.1402 161.674 77.2818Z" fill="white"/>
<g style="mix-blend-mode:multiply">
<path fill-rule="evenodd" clip-rule="evenodd" d="M163.142 82.0656L164.065 77.9047L166.949 76.8926L166.003 81.3234C166.003 81.3234 164.764 82.8977 163.142 82.0656Z" fill="#FFD1C3"/>
</g>
<path fill-rule="evenodd" clip-rule="evenodd" d="M161.201 80.6291C161.33 80.9768 161.928 82.3608 163.287 82.3608C164.658 82.3608 165.519 81.7605 165.755 81.5729L166.776 77.1673C165.134 78.1448 163.36 78.348 161.888 77.7271L161.201 80.6291ZM163.287 82.981C161.307 82.981 160.61 80.8295 160.582 80.7379L160.556 80.6568L161.465 76.8182L161.821 77.0084C163.262 77.7786 165.129 77.5538 166.815 76.407L166.878 76.3641L167.619 76.2778L166.316 81.9026L166.249 81.9666C166.205 82.008 165.165 82.981 163.287 82.981Z" fill="#1D1D1B"/>
<path fill-rule="evenodd" clip-rule="evenodd" d="M163.826 84.4658C163.291 84.4658 162.708 84.3747 162.085 84.1478C159.838 83.3298 159.44 82.2004 159.349 81.699C159.231 81.0505 159.44 79.9059 161.08 79.5857C161.08 79.5857 160.677 81.6478 162.783 82.2309C164.448 82.692 165.914 81.7655 166.195 80.9559C166.195 80.9559 166.975 81.0298 167.066 81.9968C167.196 83.3929 165.967 84.4658 163.826 84.4658Z" fill="#422B90"/>
<g style="mix-blend-mode:multiply">
<path fill-rule="evenodd" clip-rule="evenodd" d="M164.128 82.5251C164.128 82.5251 164.806 83.4228 164.216 84.2616C163.627 85.1004 166.37 83.6506 166.692 83.3198C167.252 82.7458 166.796 80.612 166.398 80.9946C165.533 81.8261 164.128 82.5251 164.128 82.5251Z" fill="#FFD1C3"/>
</g>
<path fill-rule="evenodd" clip-rule="evenodd" d="M160.732 79.9981C159.504 80.4222 159.615 81.429 159.654 81.6436C159.769 82.2735 160.302 83.1688 162.191 83.8567C162.736 84.0553 163.287 84.1559 163.826 84.1559C164.939 84.1559 165.83 83.8512 166.335 83.2978C166.655 82.9468 166.801 82.5069 166.756 82.0258C166.717 81.6059 166.518 81.4164 166.36 81.3315C165.849 82.1989 164.377 82.9946 162.7 82.5299C161.132 82.0956 160.731 80.8659 160.732 79.9981ZM163.826 84.7761C163.214 84.7761 162.592 84.6627 161.979 84.4393C159.813 83.6506 159.187 82.544 159.043 81.7546C159.002 81.5284 158.943 80.9397 159.288 80.3609C159.516 79.9783 160.002 79.4805 161.021 79.2816L161.473 79.1931L161.385 79.6453C161.372 79.7171 161.07 81.4349 162.866 81.9323C164.437 82.3673 165.696 81.4486 165.901 80.8546L165.981 80.6244L166.224 80.6474C166.583 80.6813 167.285 81.0011 167.375 81.9683C167.436 82.6279 167.235 83.2321 166.794 83.7156C166.17 84.3994 165.116 84.7761 163.826 84.7761Z" fill="#1D1D1B"/>
<path fill-rule="evenodd" clip-rule="evenodd" d="M162.448 104.232C162.189 104.327 159.839 105.171 156.952 105.462C156.288 105.529 155.66 105.561 155.068 105.561C150.517 105.561 148.008 103.716 146.672 102.057C145.004 99.985 144.837 96.4523 146.095 89.8634C146.847 85.9289 147.848 82.3823 147.89 82.2328C148.431 80.3289 150.414 79.2223 152.321 79.7619C152.398 79.7839 152.474 79.808 152.549 79.8342C154.315 80.4612 155.314 82.3589 154.796 84.1856C154.78 84.2428 153.961 87.15 153.294 90.4485C152.326 95.2347 152.41 97.1723 152.491 97.787C153.141 98.2961 154.43 98.4988 156.11 98.3445C156.184 98.3375 156.258 98.33 156.332 98.3216C158.21 98.1178 159.826 97.5568 159.964 97.5086L162.448 104.232Z" fill="#422B90"/>
<g style="mix-blend-mode:multiply">
<path fill-rule="evenodd" clip-rule="evenodd" d="M156.332 98.3217L156.025 101.879C156.025 101.879 151.244 102.208 149.595 98.6965C148.236 95.8011 151.397 83.9169 152.549 79.8342C154.315 80.4613 155.314 82.3589 154.796 84.1857C154.78 84.2428 153.961 87.15 153.294 90.4485C152.326 95.2347 152.41 97.1723 152.491 97.787C153.141 98.2962 154.43 98.4988 156.11 98.3444C156.184 98.3375 156.258 98.33 156.332 98.3217Z" fill="#FFD1C3"/>
</g>
<path fill-rule="evenodd" clip-rule="evenodd" d="M151.338 79.9348C150.786 79.9348 150.24 80.0756 149.745 80.352C148.98 80.7783 148.428 81.4764 148.19 82.3176C148.148 82.4657 147.152 85.9873 146.4 89.9215C145.161 96.4106 145.31 99.8701 146.914 101.863C149.169 104.663 152.592 105.251 155.068 105.251C155.661 105.251 156.285 105.218 156.921 105.154C159.293 104.914 161.297 104.297 162.048 104.044L159.777 97.8972C159.169 98.0904 157.721 98.5074 156.139 98.653C154.381 98.8148 153.017 98.5939 152.299 98.0308L152.2 97.9528L152.183 97.8276C152.1 97.2007 152.013 95.2209 152.99 90.387C153.658 87.0832 154.489 84.1309 154.497 84.1015C154.736 83.26 154.632 82.3764 154.205 81.6132C153.778 80.8499 153.079 80.2984 152.237 80.0602C151.94 79.9764 151.638 79.9348 151.338 79.9348ZM155.068 105.871C152.457 105.871 148.839 105.243 146.43 102.251C144.698 100.1 144.513 96.4943 145.79 89.8053C146.547 85.8446 147.55 82.2976 147.592 82.1486C147.876 81.1481 148.533 80.3177 149.442 79.8105C150.351 79.3033 151.404 79.1802 152.406 79.4635C153.408 79.7468 154.239 80.4028 154.747 81.3107C155.255 82.2186 155.379 83.2696 155.095 84.2702C155.087 84.2991 154.262 87.2288 153.599 90.5098C152.701 94.9485 152.714 96.8956 152.784 97.6154C153.403 98.0197 154.591 98.1726 156.082 98.0355C158.076 97.8518 159.85 97.2198 159.868 97.2134L159.974 97.5047L160.255 97.4011L162.847 104.415L162.556 104.523C162.293 104.619 159.907 105.476 156.983 105.771C156.327 105.837 155.682 105.871 155.068 105.871Z" fill="#1D1D1B"/>
<path fill-rule="evenodd" clip-rule="evenodd" d="M165.98 104.197C166.003 104.212 168.579 103.456 168.675 103.454C169.14 103.442 169.613 103.136 169.68 102.653C169.809 101.73 168.561 101.552 168.561 101.552C168.659 101.577 168.758 101.588 168.855 101.585C169.323 101.574 169.82 101.27 169.867 100.785C169.98 99.6314 168.607 99.4999 168.607 99.4999C168.607 99.4999 168.85 99.5278 168.966 99.5235C169.431 99.5116 169.81 99.3354 169.931 98.8634C170.077 98.2939 169.733 97.7141 169.162 97.5684C167.164 97.0579 164.214 97.1107 164.091 97.1171C164.091 97.1171 162.551 97.1171 160.834 97.3253C160.834 97.3253 163.23 102.406 165.98 104.197Z" fill="white"/>
<path fill-rule="evenodd" clip-rule="evenodd" d="M168.692 103.764C168.689 103.764 168.686 103.764 168.683 103.764C168.685 103.764 168.689 103.764 168.692 103.764ZM161.31 97.5842C161.918 98.7772 163.876 102.378 166.04 103.864C166.256 103.806 166.732 103.671 167.13 103.558C168.525 103.161 168.595 103.146 168.667 103.144C168.978 103.136 169.328 102.934 169.373 102.611C169.395 102.454 169.382 102.224 169.021 102.03C168.873 101.949 168.717 101.903 168.618 101.88C168.573 101.873 168.529 101.864 168.485 101.853L168.605 101.245C168.65 101.252 168.698 101.261 168.748 101.272C168.781 101.275 168.814 101.277 168.847 101.276C169.166 101.267 169.528 101.066 169.559 100.755C169.58 100.53 169.532 100.35 169.411 100.203C169.154 99.8915 168.651 99.8179 168.585 99.8096C168.58 99.8089 168.575 99.8085 168.572 99.8081L168.637 99.1914C168.64 99.1916 168.646 99.1922 168.656 99.1934C168.748 99.2036 168.895 99.2163 168.955 99.2137C169.46 99.2009 169.581 98.9788 169.63 98.7867C169.68 98.5914 169.651 98.3885 169.548 98.2152C169.445 98.0419 169.281 97.9189 169.086 97.8689C167.257 97.402 164.466 97.4094 164.108 97.4269L164.092 97.4273C164.078 97.4273 162.805 97.4294 161.31 97.5842ZM165.957 104.509C165.898 104.509 165.863 104.491 165.81 104.457C164.632 103.689 163.388 102.276 162.113 100.255C161.171 98.762 160.578 97.5101 160.553 97.4575L160.37 97.0695L160.797 97.0177C162.504 96.8106 164.06 96.8071 164.091 96.8071C164.332 96.8016 167.233 96.7557 169.24 97.2681C169.975 97.4559 170.42 98.2061 170.232 98.9404C170.152 99.2519 169.978 99.4883 169.724 99.6396C169.783 99.6902 169.839 99.7463 169.891 99.8087C170.119 100.085 170.215 100.423 170.177 100.815C170.146 101.135 169.946 101.471 169.606 101.682C169.871 101.912 170.051 102.242 169.988 102.696C169.906 103.281 169.358 103.736 168.707 103.763C168.568 103.794 167.838 104.001 167.3 104.154C166.985 104.244 166.679 104.331 166.45 104.395C166.167 104.473 166.04 104.509 165.957 104.509Z" fill="#1D1D1B"/>
<path fill-rule="evenodd" clip-rule="evenodd" d="M168.891 99.9744C168.87 99.9744 168.849 99.9723 168.827 99.9678C168.807 99.9635 166.743 99.5388 164.901 99.5388C164.729 99.5388 164.59 99.4 164.59 99.2288C164.59 99.0575 164.729 98.9187 164.901 98.9187C166.808 98.9187 168.867 99.3427 168.954 99.3607C169.122 99.3957 169.23 99.5599 169.195 99.7275C169.164 99.8738 169.035 99.9744 168.891 99.9744Z" fill="#1D1D1B"/>
<path fill-rule="evenodd" clip-rule="evenodd" d="M168.561 102.183C168.54 102.183 168.518 102.181 168.497 102.176C167.467 101.958 164.981 101.861 164.956 101.86C164.784 101.853 164.651 101.709 164.657 101.538C164.664 101.367 164.809 101.235 164.979 101.24C165.084 101.244 167.544 101.341 168.625 101.569C168.793 101.605 168.9 101.77 168.865 101.937C168.834 102.083 168.705 102.183 168.561 102.183Z" fill="#1D1D1B"/>
<path fill-rule="evenodd" clip-rule="evenodd" d="M175.965 99.1003C175.492 101.822 174.767 104.12 173.811 105.931C171.975 109.408 169.505 110.651 167.757 111.082C167.272 111.202 166.706 111.286 166.073 111.286C164.62 111.286 162.82 110.839 160.875 109.334C159.506 108.274 158.148 106.748 156.838 104.798C155.27 102.464 154.126 100.053 153.642 98.9708C153.561 98.7896 153.498 98.6456 153.456 98.5457C153.413 98.4464 153.333 98.3693 153.233 98.33C152.966 98.2261 152.446 97.9951 152.394 97.7656C152.04 96.1898 153.261 90.5939 153.261 90.5939C153.261 90.5939 154.867 90.5347 156.898 91.8777C157.953 92.575 158.755 93.5672 159.284 94.3603C159.773 95.0955 160.026 95.6599 160.026 95.6599C160.034 95.6799 161.017 98.0344 162.503 100.356C164.378 103.285 165.708 104.064 166.061 104.118C166.97 103.864 168.186 101.874 168.877 97.9689C169.522 94.3224 169.424 90.74 169.423 90.7042C169.364 88.728 170.919 87.0756 172.899 87.0144C174.876 86.9543 176.533 88.5041 176.596 90.4802C176.602 90.6525 176.722 94.7414 175.965 99.1003Z" fill="white"/>
<path fill-rule="evenodd" clip-rule="evenodd" d="M152.693 97.6807C152.739 97.7415 152.947 97.8856 153.346 98.041C153.526 98.1117 153.666 98.2478 153.741 98.4246C153.783 98.5223 153.845 98.6647 153.925 98.8438C154.455 100.03 155.572 102.357 157.095 104.625C158.386 106.547 159.722 108.049 161.065 109.088C162.684 110.341 164.369 110.976 166.073 110.976C166.615 110.976 167.156 110.911 167.682 110.781C169.369 110.365 171.754 109.16 173.536 105.786C174.477 104.004 175.191 101.737 175.659 99.0473L175.965 99.1003L175.659 99.0473C176.411 94.7152 176.291 90.6605 176.286 90.4901C176.228 88.6895 174.714 87.2682 172.909 87.3241C171.104 87.38 169.679 88.8921 169.733 90.6949C169.734 90.7272 169.834 94.3373 169.182 98.0227C168.859 99.8491 168.391 101.415 167.829 102.55C167.304 103.61 166.721 104.255 166.145 104.417L166.08 104.435L166.013 104.424C165.488 104.343 164.102 103.43 162.241 100.523C160.774 98.2305 159.793 95.9083 159.741 95.7835C159.72 95.7384 159.474 95.2066 159.025 94.5318C158.548 93.8171 157.763 92.8211 156.727 92.1361C155.256 91.1636 154.012 90.9578 153.51 90.9148C153.151 92.6152 152.439 96.4863 152.693 97.6807ZM166.073 111.596C164.228 111.596 162.415 110.917 160.685 109.579C159.289 108.498 157.908 106.948 156.58 104.971C155.03 102.664 153.896 100.301 153.358 99.0972C153.276 98.9142 153.213 98.7685 153.17 98.6675C153.16 98.6444 153.142 98.6274 153.12 98.6184C152.283 98.2925 152.132 98.0145 152.091 97.8336C151.726 96.2093 152.907 90.759 152.957 90.5277L153.009 90.2928L153.249 90.2839C153.319 90.2813 154.979 90.2367 157.07 91.619C158.192 92.3613 159.034 93.4259 159.542 94.1884C160.04 94.9366 160.298 95.5089 160.309 95.533L160.313 95.5411C160.323 95.5643 161.299 97.8985 162.764 100.189C164.475 102.861 165.697 103.669 166.047 103.795C166.64 103.544 167.838 102.055 168.571 97.9148C169.208 94.3128 169.113 90.7498 169.112 90.7148C169.048 88.5692 170.743 86.7707 172.889 86.7042C175.04 86.639 176.838 88.3285 176.906 90.4703C176.912 90.6432 177.034 94.7594 176.271 99.1532C175.792 101.907 175.057 104.236 174.085 106.076C172.196 109.653 169.641 110.937 167.831 111.383C167.256 111.525 166.665 111.596 166.073 111.596Z" fill="#1D1D1B"/>
<path fill-rule="evenodd" clip-rule="evenodd" d="M175.965 99.1004C175.492 101.822 174.767 104.12 173.811 105.931C171.975 109.408 169.505 110.651 167.757 111.083C167.272 111.202 166.706 111.287 166.073 111.287C164.62 111.287 162.82 110.839 160.875 109.334C159.506 108.274 158.148 106.748 156.838 104.798C155.27 102.464 154.126 100.053 153.642 98.9709C154.533 98.5402 155.328 98.0449 156.027 97.5321C157.579 96.3945 158.661 95.1686 159.283 94.3604C159.773 95.0956 160.026 95.6599 160.026 95.6599C160.034 95.6799 161.017 98.0344 162.503 100.356C164.378 103.285 165.708 104.064 166.061 104.118C166.97 103.864 168.186 101.874 168.877 97.969C169.522 94.3225 169.424 90.7401 169.423 90.7042C169.364 88.7281 170.919 87.0756 172.899 87.0145C173.391 86.9992 173.863 87.0839 174.296 87.2514C175.602 87.7524 176.549 88.9961 176.596 90.4803C176.602 90.6526 176.722 94.7414 175.965 99.1004Z" fill="#422B90"/>
<g style="mix-blend-mode:multiply">
<path fill-rule="evenodd" clip-rule="evenodd" d="M175.965 99.1003C175.492 101.822 174.767 104.12 173.811 105.931C171.975 109.408 169.505 110.651 167.757 111.082C167.272 111.202 166.706 111.286 166.073 111.286C164.62 111.286 162.82 110.839 160.875 109.334C159.506 108.274 158.148 106.748 156.838 104.798C155.27 102.464 154.126 100.053 153.642 98.9707C154.533 98.5401 155.328 98.0447 156.027 97.532C157.433 100.51 161.676 108.141 167.788 107.015C174.175 105.838 174.386 91.6482 174.296 87.2512C175.602 87.7523 176.549 88.9959 176.596 90.4802C176.602 90.6524 176.722 94.7413 175.965 99.1003Z" fill="#FFD1C3"/>
</g>
<path fill-rule="evenodd" clip-rule="evenodd" d="M154.048 99.1156C154.617 100.362 155.681 102.519 157.096 104.626C158.387 106.547 159.722 108.049 161.065 109.088C162.684 110.341 164.369 110.976 166.073 110.976C166.615 110.976 167.156 110.911 167.682 110.781C169.369 110.365 171.754 109.16 173.536 105.786C174.477 104.004 175.192 101.737 175.659 99.0474L175.965 99.1003L175.659 99.0474C176.411 94.7152 176.291 90.6606 176.286 90.4901C176.244 89.1721 175.419 88.0145 174.185 87.5407C173.778 87.3832 173.349 87.3105 172.909 87.3242C171.104 87.3801 169.679 88.8922 169.733 90.695C169.734 90.7273 169.835 94.3374 169.183 98.0229C168.859 99.8492 168.391 101.415 167.829 102.55C167.304 103.61 166.722 104.255 166.145 104.417L166.08 104.435L166.014 104.425C165.488 104.343 164.102 103.43 162.241 100.523C160.775 98.2312 159.794 95.9098 159.741 95.7837C159.725 95.7477 159.559 95.3896 159.256 94.8941C158.592 95.7072 157.581 96.7775 156.211 97.782C155.52 98.2884 154.794 98.7363 154.048 99.1156ZM166.073 111.596C164.229 111.596 162.415 110.918 160.685 109.579C159.289 108.498 157.908 106.948 156.58 104.971C155.031 102.664 153.897 100.301 153.358 99.0972L153.236 98.8227L153.507 98.6917C154.313 98.3017 155.099 97.8275 155.843 97.2821C157.359 96.1712 158.417 94.9772 159.037 94.1712L159.302 93.8277L159.542 94.1887C160.04 94.9367 160.299 95.509 160.309 95.5331L160.313 95.5412C160.323 95.5644 161.299 97.8986 162.765 100.189C164.475 102.861 165.697 103.669 166.047 103.795C166.64 103.544 167.838 102.055 168.571 97.9149C169.208 94.3129 169.113 90.7499 169.112 90.7149C169.048 88.5692 170.743 86.7708 172.89 86.7043C173.414 86.6881 173.924 86.7749 174.408 86.9621C175.876 87.5253 176.857 88.9025 176.907 90.4704C176.912 90.6433 177.034 94.7594 176.271 99.1533C175.792 101.907 175.057 104.236 174.086 106.076C172.196 109.653 169.642 110.937 167.831 111.383C167.256 111.525 166.665 111.596 166.073 111.596Z" fill="#1D1D1B"/>
<path fill-rule="evenodd" clip-rule="evenodd" d="M80.9751 75.5335C80.6464 75.5335 80.3435 75.3186 80.2467 74.9877L78.5696 69.2514C78.452 68.8495 78.6831 68.4287 79.0856 68.3114C79.488 68.194 79.9095 68.4247 80.0269 68.8265L81.7041 74.5629C81.8216 74.9647 81.5906 75.3856 81.1881 75.5029C81.1172 75.5235 81.0455 75.5335 80.9751 75.5335Z" fill="#DB5F2C"/>
<path fill-rule="evenodd" clip-rule="evenodd" d="M79.299 68.5564C79.2535 68.5564 79.2077 68.5629 79.1629 68.5759C78.9072 68.6505 78.7599 68.9189 78.8345 69.1742L80.5117 74.9105C80.5715 75.115 80.762 75.2579 80.975 75.2579C81.0206 75.2579 81.0663 75.2513 81.1108 75.2384C81.3664 75.1638 81.5137 74.8954 81.4391 74.6401L79.7619 68.9038C79.7258 68.7801 79.6435 68.6779 79.5304 68.616C79.4582 68.5765 79.379 68.5564 79.299 68.5564ZM80.975 75.8091C80.5183 75.8091 80.1098 75.5031 79.9817 75.065L78.3045 69.3287C78.1446 68.7816 78.4602 68.2065 79.0082 68.0468C79.2735 67.9694 79.5532 67.9998 79.7957 68.1326C80.0382 68.2652 80.2145 68.4843 80.2919 68.7493L81.9691 74.4857C82.129 75.0327 81.8134 75.6077 81.2655 75.7675C81.1705 75.7951 81.0729 75.8091 80.975 75.8091Z" fill="#1D1D1B"/>
<path fill-rule="evenodd" clip-rule="evenodd" d="M82.9532 84.5651L81.4571 79.4236C81.3397 79.0218 81.5706 78.6009 81.9731 78.4836C82.3757 78.3666 82.7971 78.597 82.9145 78.9988L84.3703 83.9857C84.4658 84.3126 84.2108 85.2263 84.1124 85.5553C84.095 85.6137 84.0244 85.6359 83.9766 85.5982C83.7169 85.3934 83.0314 84.8327 82.9532 84.5651Z" fill="#DB5F2C"/>
<path fill-rule="evenodd" clip-rule="evenodd" d="M83.218 84.4873C83.2457 84.5657 83.4575 84.8133 83.9261 85.2028C84.095 84.5803 84.1398 84.1811 84.1053 84.0631L82.6495 79.0761C82.575 78.8212 82.3062 78.6741 82.0502 78.7483C81.7948 78.8228 81.6474 79.0911 81.7221 79.3464L83.218 84.4873ZM84.03 85.8926C83.9496 85.8926 83.8704 85.8658 83.8055 85.8146C82.7985 85.0199 82.7155 84.7358 82.6882 84.6424L82.6881 84.6421L81.192 79.5006C81.0322 78.9539 81.3478 78.3789 81.8957 78.2191C82.4442 78.0598 83.0198 78.3751 83.1795 78.9217L84.6353 83.9088C84.7405 84.2685 84.5529 85.0457 84.377 85.6342C84.3425 85.7493 84.2536 85.8396 84.1391 85.8757C84.1033 85.8869 84.0665 85.8926 84.03 85.8926Z" fill="#1D1D1B"/>
<path fill-rule="evenodd" clip-rule="evenodd" d="M85.4919 37.7367C85.4919 37.7367 86.6168 33.4114 83.8496 31.6352C81.469 30.1072 79.2713 30.4779 78.7036 30.6113C78.6631 30.6209 78.6344 30.5732 78.662 30.542C78.9172 30.2548 79.5341 29.4529 78.9575 28.9709C78.2273 28.3603 77.0076 30.3677 74.609 31.0924C72.3885 31.7635 69.4266 34.0384 69.4231 35.1777C69.4208 35.8976 70.179 36.0294 70.6812 35.8841C70.7744 35.8572 70.8796 35.9495 70.811 36.0181C70.016 36.8142 69.1752 39.6503 70.2517 41.1699C71.5024 42.9354 85.4919 37.7367 85.4919 37.7367Z" fill="#422B90"/>
<g style="mix-blend-mode:multiply">
<path fill-rule="evenodd" clip-rule="evenodd" d="M85.7922 37.8147L85.7522 37.9711L85.6004 38.0276C85.5914 38.031 85.3568 38.1179 84.9524 38.264L84.8109 37.9849L84.6701 37.7058L84.2091 36.7921C84.2091 36.7921 84.049 34.8393 82.3417 33.1346C80.6351 31.4306 76.4309 32.2622 76.4309 32.2622C76.4309 32.2622 77.3053 31.5553 76.7643 31.2231C76.5683 31.1026 75.8319 31.1673 74.9721 31.2996C74.4572 31.3782 73.8982 31.4809 73.3841 31.5821C72.9942 31.6593 72.6305 31.7358 72.3324 31.7999C73.0681 31.3616 73.8348 31.0026 74.5193 30.7959C75.6401 30.4569 76.4924 29.825 77.1769 29.3165C77.9381 28.7522 78.5958 28.2643 79.1569 28.7329C79.3646 28.9072 79.4847 29.1353 79.504 29.3937C79.5247 29.6741 79.4239 29.956 79.2887 30.2006C80.2976 30.0924 82.1008 30.1441 84.0173 31.3747C85.2367 32.1568 85.9289 33.5274 86.0186 35.3368C86.0848 36.6722 85.8046 37.7685 85.7922 37.8147Z" fill="#FFD1C3"/>
</g>
<path fill-rule="evenodd" clip-rule="evenodd" d="M85.2264 37.5039C85.105 37.5487 84.9159 37.6176 84.6702 37.7058C83.4611 38.1392 80.8843 39.0412 78.2501 39.8192C76.1419 40.4414 74.4125 40.8631 73.1102 41.0726C70.9881 41.4136 70.5796 41.096 70.5051 40.9912C69.5113 39.5883 70.3705 36.8982 71.0309 36.2374C71.1558 36.1127 71.1793 35.928 71.0903 35.7778C71.013 35.6469 70.8667 35.569 70.7156 35.569C70.6755 35.569 70.6348 35.5746 70.5948 35.5863C70.3367 35.6614 70.0351 35.629 69.8771 35.5098C69.815 35.4636 69.7328 35.3789 69.7335 35.179C69.7363 34.295 72.4484 32.0693 74.6988 31.3892C74.7913 31.361 74.8824 31.3313 74.9721 31.2996C76.0646 30.9151 76.9141 30.284 77.5476 29.8147C78.0976 29.4061 78.5731 29.054 78.7581 29.209C78.8388 29.2759 78.8781 29.3468 78.8843 29.4392C78.9009 29.6583 78.7263 30.0021 78.4296 30.3363C78.3274 30.4521 78.3116 30.6181 78.3909 30.7511C78.4696 30.8834 78.6242 30.9489 78.7746 30.9131C79.3543 30.7766 81.4212 30.4452 83.682 31.8964C85.9421 33.3468 85.3851 36.7391 85.2264 37.5039ZM86.0187 35.3368C85.9289 33.5274 85.2368 32.1568 84.0173 31.3747C82.1009 30.1441 80.2977 30.0924 79.2887 30.2006C79.424 29.956 79.5248 29.6741 79.5041 29.3937C79.4847 29.1353 79.3647 28.9072 79.1569 28.7329C78.5959 28.2643 77.9382 28.7522 77.177 29.3165C76.4924 29.825 75.6402 30.4569 74.5194 30.7959C73.8348 31.0026 73.0681 31.3616 72.3325 31.7999C70.6431 32.8052 69.1152 34.2268 69.1124 35.177C69.1111 35.6173 69.3243 35.8708 69.503 36.0052C69.7239 36.1713 69.9951 36.2381 70.2511 36.245C69.5148 37.446 68.9841 39.9177 69.9985 41.3489C70.2332 41.681 70.7314 41.845 71.532 41.845C71.9902 41.845 72.5471 41.7912 73.2103 41.6844C74.5387 41.4708 76.2951 41.0429 78.4289 40.4131C81.1286 39.6159 83.7682 38.6891 84.9524 38.2639C85.3568 38.1179 85.5915 38.031 85.6005 38.0276L85.7523 37.9711L85.7923 37.8147C85.8047 37.7685 86.0849 36.6722 86.0187 35.3368Z" fill="#1D1D1B"/>
<path fill-rule="evenodd" clip-rule="evenodd" d="M93.6554 55.2645C93.0957 57.6645 91.1165 59.5931 88.5272 59.968L73.9252 62.0827C70.5513 62.5719 67.4196 60.2367 66.9296 56.8679L65.666 48.1692C65.1767 44.8004 67.5148 41.6735 70.8888 41.1842L82.3245 39.5277L85.4907 39.0695C88.8646 38.581 91.9963 40.9155 92.4856 44.2843L93.7499 52.9837C93.8638 53.7671 93.8244 54.5375 93.6554 55.2645Z" fill="#F1B61D"/>
<g style="mix-blend-mode:multiply">
<path fill-rule="evenodd" clip-rule="evenodd" d="M93.6553 55.2645L86.6605 57.6332C86.6605 57.6332 86.666 50.7504 85.7392 47.7433C84.8124 44.7369 82.3245 44.6654 82.3245 44.6654V39.5277L85.4907 39.0695C88.8646 38.581 91.9963 40.9155 92.4856 44.2843L93.7499 52.9837C93.8637 53.7671 93.8244 54.5375 93.6553 55.2645Z" fill="#FFD1C3"/>
</g>
<path fill-rule="evenodd" clip-rule="evenodd" d="M86.3891 39.3146C86.1058 39.3146 85.8207 39.335 85.5353 39.3763L82.3691 39.8346L70.9333 41.4911C67.7346 41.9549 65.5095 44.9308 65.9734 48.1247L67.237 56.8234C67.462 58.3708 68.277 59.7382 69.5317 60.6736C70.7866 61.6091 72.3311 62.0006 73.8806 61.7759L88.4826 59.6611C89.673 59.4887 90.765 58.9659 91.6403 58.1491C92.496 57.3506 93.0882 56.3288 93.3529 55.1943C93.518 54.484 93.5482 53.7551 93.4425 53.0283L92.1782 44.3288C91.9535 42.7815 91.1388 41.4142 89.8841 40.4788C88.8606 39.7158 87.6439 39.3146 86.3891 39.3146ZM73.0247 62.458C71.6372 62.458 70.2922 62.0144 69.1601 61.1705C67.7724 60.136 66.8712 58.6238 66.6223 56.9124L65.3587 48.2137C64.8456 44.6814 67.3064 41.3904 70.8441 40.8774L82.2799 39.2208L85.4461 38.7626C87.1599 38.5145 88.868 38.9475 90.2557 39.982C91.6433 41.0164 92.5444 42.5286 92.7929 44.2398L94.0572 52.9392C94.174 53.7428 94.1406 54.5487 93.9578 55.3346V55.3347C93.6652 56.5895 93.0104 57.7194 92.0644 58.6022C91.096 59.5058 89.8883 60.0842 88.5717 60.2749L73.9698 62.3895C73.6539 62.4354 73.3382 62.458 73.0247 62.458Z" fill="#1D1D1B"/>
<path fill-rule="evenodd" clip-rule="evenodd" d="M84.9558 40.2623C84.9558 43.8386 82.7675 46.8084 79.8905 47.3914C79.5537 47.4603 79.2072 47.4961 78.8539 47.4961C75.4841 47.4961 72.7527 44.2575 72.7527 40.2623C72.7527 37.5757 73.988 35.2315 75.8216 33.9836C76.7808 35.4003 78.7483 37.4062 82.1147 37.1843C82.7606 37.1423 83.4576 37.0183 84.2091 36.7922C84.6853 37.8224 84.9558 39.0048 84.9558 40.2623Z" fill="white"/>
<g style="mix-blend-mode:multiply">
<path fill-rule="evenodd" clip-rule="evenodd" d="M84.9559 40.2623C84.9559 43.8386 82.7676 46.8084 79.8905 47.3913C81.0895 45.91 82.0091 44.0441 82.3004 42.4473C82.6602 40.4745 82.3611 38.1042 82.1147 37.1843C82.7607 37.1423 83.4577 37.0182 84.2092 36.7922C84.6854 37.8224 84.9559 39.0048 84.9559 40.2623Z" fill="#FFD1C3"/>
</g>
<path fill-rule="evenodd" clip-rule="evenodd" d="M78.8541 47.186C75.6609 47.186 73.063 44.08 73.063 40.2623C73.063 37.8993 74.0806 35.6959 75.7376 34.4272C75.7536 34.4512 75.7697 34.4751 75.7861 34.499C75.8094 34.5331 75.8385 34.5611 75.8711 34.5826C77.1085 36.1976 79.5533 38.2313 83.6569 37.2614C83.6789 37.2605 83.701 37.2578 83.7232 37.252C83.8327 37.2235 83.9362 37.1944 84.0342 37.1655C84.4346 38.1216 84.6453 39.1862 84.6453 40.2623C84.6453 44.08 82.0474 47.186 78.8541 47.186ZM84.6249 36.9708C84.8439 36.8904 84.9729 36.8329 84.9833 36.8283C85.1397 36.7582 85.2095 36.5748 85.1394 36.4186C85.0693 36.2624 84.8855 36.1925 84.7292 36.2624C84.7252 36.2641 84.3985 36.4088 83.8917 36.5607C82.0043 37.0834 80.302 36.9856 78.8291 36.2691C77.4955 35.6203 76.6012 34.5793 76.0843 33.8174C75.681 33.1612 75.4401 32.5793 75.4372 32.5725C75.3722 32.4141 75.1907 32.3381 75.0322 32.4031C74.8736 32.468 74.7976 32.649 74.8624 32.8075C74.8731 32.8335 75.0692 33.3082 75.4096 33.8981C73.5724 35.2773 72.4419 37.6857 72.4419 40.2623C72.4419 44.422 75.3185 47.8062 78.8541 47.8062C82.3898 47.8062 85.2664 44.422 85.2664 40.2623C85.2664 39.1212 85.0449 37.9908 84.6249 36.9708Z" fill="#1D1D1B"/>
<path fill-rule="evenodd" clip-rule="evenodd" d="M78.1848 39.5797C78.1848 39.801 78.0051 39.9805 77.7834 39.9805C77.5618 39.9805 77.3821 39.801 77.3821 39.5797C77.3821 39.3584 77.5618 39.179 77.7834 39.179C78.0051 39.179 78.1848 39.3584 78.1848 39.5797Z" fill="#1D1D1B"/>
<path fill-rule="evenodd" clip-rule="evenodd" d="M80.5153 39.7262C80.5153 39.9475 80.3356 40.127 80.1139 40.127C79.8922 40.127 79.7125 39.9475 79.7125 39.7262C79.7125 39.5049 79.8922 39.3254 80.1139 39.3254C80.3356 39.3254 80.5153 39.5049 80.5153 39.7262Z" fill="#1D1D1B"/>
<path fill-rule="evenodd" clip-rule="evenodd" d="M79.0193 42.225C77.503 42.225 76.8296 41.4128 76.7982 41.374C76.6908 41.2405 76.7121 41.0453 76.8457 40.938C76.9788 40.8313 77.173 40.8518 77.2808 40.9834C77.3116 41.0202 77.9714 41.7779 79.55 41.5685C79.7197 41.5463 79.8761 41.6653 79.8987 41.8351C79.9213 42.0049 79.8017 42.1607 79.6317 42.1833C79.414 42.2121 79.21 42.225 79.0193 42.225Z" fill="#1D1D1B"/>
<path fill-rule="evenodd" clip-rule="evenodd" d="M84.2659 37.7156C85.3895 37.524 86.4352 38.1189 86.4855 39.0243C86.5278 39.7842 86.0662 40.808 84.6921 40.8502" fill="white"/>
<g style="mix-blend-mode:multiply">
<path fill-rule="evenodd" clip-rule="evenodd" d="M84.2659 37.7156C85.3895 37.524 86.4352 38.1189 86.4855 39.0243C86.5278 39.7842 86.0662 40.808 84.6921 40.8502" fill="#FFD1C3"/>
</g>
<path fill-rule="evenodd" clip-rule="evenodd" d="M84.692 41.1603C84.5249 41.1603 84.387 41.0277 84.3817 40.8598C84.3765 40.6886 84.5112 40.5456 84.6826 40.5403C85.1709 40.5253 85.5521 40.3722 85.8156 40.0853C86.0624 39.8167 86.197 39.4265 86.1755 39.0415C86.1566 38.7015 85.9541 38.472 85.7874 38.3394C85.4191 38.0462 84.8699 37.9271 84.3182 38.0213C84.1492 38.05 83.9887 37.9366 83.9598 37.7678C83.931 37.599 84.0446 37.4388 84.2137 37.41C84.9373 37.2868 85.6702 37.4528 86.1746 37.8545C86.5504 38.1537 86.7709 38.563 86.7956 39.0071C86.8266 39.5637 86.6362 40.1095 86.2734 40.5045C85.8977 40.9134 85.3543 41.1401 84.7017 41.1602C84.6985 41.1603 84.6952 41.1603 84.692 41.1603Z" fill="#1D1D1B"/>
<path fill-rule="evenodd" clip-rule="evenodd" d="M73.4216 42.6855C72.2167 42.9599 71.3199 42.0378 71.2493 41.1338C71.1786 40.2297 71.8063 39.3684 73.1384 39.3684" fill="white"/>
<path fill-rule="evenodd" clip-rule="evenodd" d="M73.1385 39.0359C73.3224 39.0359 73.4714 39.1847 73.4714 39.3683C73.4714 39.552 73.3224 39.7008 73.1385 39.7008C72.0967 39.7008 71.5184 40.3043 71.5813 41.1078C71.6439 41.9095 72.4188 42.5461 73.304 42.3706L73.3476 42.3613C73.5269 42.3204 73.7054 42.4325 73.7463 42.6115C73.7872 42.7905 73.675 42.9687 73.4957 43.0095C72.1819 43.3087 71.0116 42.3655 70.9174 41.1596C70.8239 39.9644 71.7136 39.0359 73.1385 39.0359Z" fill="#1D1D1B"/>
<path fill-rule="evenodd" clip-rule="evenodd" d="M84.9877 40.2406C84.8721 40.2406 84.7644 40.1676 84.7258 40.0521C84.6776 39.9077 84.7558 39.7516 84.9004 39.7034C84.9568 39.6825 85.1501 39.5881 85.1046 39.3093C85.0535 38.9955 84.705 38.9494 84.6654 38.9452C84.5147 38.9293 84.4039 38.7948 84.4187 38.6443C84.4334 38.4936 84.5658 38.3827 84.7166 38.3964C84.9969 38.4214 85.5527 38.6257 85.6496 39.2208C85.749 39.8319 85.3172 40.1458 85.075 40.2264C85.0461 40.2361 85.0166 40.2406 84.9877 40.2406Z" fill="#1D1D1B"/>
<path fill-rule="evenodd" clip-rule="evenodd" d="M73.0517 42.0114C73.0289 42.0114 73.0057 42.0085 72.9826 42.0026C72.646 41.9159 72.0723 41.6195 72.0569 41.059C72.0416 40.4975 72.609 40.17 72.9468 40.065C73.0923 40.0198 73.247 40.101 73.2924 40.2463C73.3376 40.3913 73.2567 40.5455 73.1116 40.5911C72.979 40.6334 72.6023 40.8073 72.6089 41.0439C72.6156 41.289 73.0141 41.4414 73.1205 41.4688C73.2682 41.5069 73.3569 41.6571 73.3188 41.8046C73.2867 41.9288 73.1746 42.0114 73.0517 42.0114Z" fill="#1D1D1B"/>
<path fill-rule="evenodd" clip-rule="evenodd" d="M84.2519 75.921L81.4377 74.6642L78.0948 73.182C78.052 73.1413 73.761 68.9401 72.1047 63.9789C71.4043 61.8807 71.1137 58.8144 71.0254 55.8921C71.015 55.5559 71.0081 55.2217 71.0033 54.8909C70.9978 54.5147 70.995 54.1433 70.995 53.7795C70.995 51.5414 71.0937 49.5728 71.1841 48.451C71.358 46.3087 69.759 44.431 67.6135 44.2567C65.4666 44.0823 63.586 45.6789 63.4114 47.8219C63.4018 47.9418 63.1727 50.8 63.1996 54.4472C63.2044 55.1459 63.2189 55.8246 63.2417 56.4833C63.3859 60.6122 63.8766 63.9555 64.7068 66.4409C66.9924 73.2895 72.4677 78.5815 72.6996 78.804L77.6773 81.9696C77.2743 83.0149 77.8402 83.9588 78.5317 84.096C78.5682 84.1029 79.0127 84.2414 79.9374 84.2414C81.7745 84.2414 82.7869 83.8231 83.0001 83.0052C83.3472 81.6698 82.4114 81.1627 82.3776 81.1406C82.4163 81.1482 83.9662 81.5734 84.3334 80.249C84.666 79.05 83.575 78.5946 83.575 78.5946C83.575 78.5946 84.6301 78.4712 84.9234 77.8028C84.9745 77.6864 85.0097 77.5665 85.0297 77.4466C85.1346 76.8298 84.8427 76.2015 84.2519 75.921Z" fill="white"/>
<g style="mix-blend-mode:multiply">
<path fill-rule="evenodd" clip-rule="evenodd" d="M84.9234 77.8028C82.8821 77.0476 78.9856 75.4949 77.7312 74.898C67.9274 70.2321 68.0015 54.9598 68.0015 54.9598L71.0033 54.8909C71.0081 55.2216 71.015 55.5558 71.0254 55.8921C71.1137 58.8144 71.4043 61.8807 72.1047 63.9789C73.761 68.9401 78.0521 73.1414 78.0948 73.1819L81.4377 74.6641L84.252 75.9209C84.8427 76.2015 85.0283 77.1861 84.9234 77.8028Z" fill="#FFD1C3"/>
</g>
<path fill-rule="evenodd" clip-rule="evenodd" d="M84.6392 77.6785C84.482 78.0367 83.9494 78.2097 83.6532 78.2681L81.6091 77.514C81.4481 77.4545 81.2696 77.5367 81.2102 77.6974C81.1507 77.858 81.233 78.0364 81.3938 78.0957L83.069 78.7136L83.4536 78.8801C83.5392 78.9171 84.2832 79.2681 84.0341 80.1663C83.7817 81.0767 82.7832 80.9183 82.4688 80.8437L80.4907 80.0946C80.3304 80.0339 80.151 80.1146 80.0902 80.2747C80.0294 80.4348 80.1101 80.6138 80.2705 80.6745L82.2409 81.4207C82.4327 81.5416 82.9492 81.967 82.6992 82.9275C82.4832 83.7571 81.078 83.9312 79.9372 83.9312C79.4138 83.9312 78.9617 83.8861 78.6299 83.801C78.6097 83.7957 78.5964 83.7927 78.5924 83.792C78.3694 83.7478 78.1539 83.5719 78.0156 83.3214C77.8675 83.0531 77.8209 82.7311 77.8775 82.4045C78.8141 82.8189 79.8743 83.1367 79.9243 83.1515C79.9539 83.1604 79.9838 83.1646 80.0132 83.1646C80.1469 83.1646 80.2704 83.0776 80.3106 82.9431C80.3597 82.779 80.2662 82.6064 80.1019 82.5574C80.0887 82.5534 78.7803 82.161 77.8301 81.6992L72.893 78.5594C72.4531 78.133 67.2069 72.951 65.0016 66.343C64.1831 63.8925 63.6954 60.5717 63.5522 56.4728C63.5291 55.8038 63.515 55.1216 63.5104 54.4451C63.4837 50.8369 63.7115 47.9673 63.7212 47.8472C63.8816 45.8778 65.6164 44.4055 67.5885 44.5659C69.5604 44.7261 71.0346 46.4578 70.8748 48.4263C70.8302 48.9796 70.6847 51.0011 70.6847 53.7796C70.6847 54.5071 70.6949 55.221 70.7152 55.9017C70.8231 59.4731 71.1916 62.2238 71.8103 64.0771C73.5052 69.1539 77.8377 73.3657 77.881 73.4069L77.9199 73.4438L81.3111 74.9473L84.1218 76.2026C84.6619 76.4608 84.8891 77.1084 84.6392 77.6785ZM84.3854 75.6411L81.5639 74.381L78.2732 72.922C77.8513 72.4992 73.9377 68.4884 72.3995 63.881C71.8084 62.1103 71.4406 59.3446 71.336 55.8831C71.3159 55.2087 71.3058 54.501 71.3058 53.7796C71.3058 51.5901 71.403 49.6043 71.4938 48.4762C71.6813 46.1672 69.9519 44.1357 67.6388 43.9477C65.3252 43.7606 63.2904 45.4866 63.1022 47.7971C63.0923 47.9186 62.8624 50.8146 62.8893 54.4495C62.894 55.1316 62.9082 55.8195 62.9316 56.4943C63.0768 60.6527 63.575 64.0323 64.4124 66.5391C66.714 73.4356 72.2501 78.8026 72.4846 79.0277L72.5069 79.0492L77.3083 82.1026C77.1682 82.6309 77.2243 83.1726 77.4716 83.6206C77.6991 84.0328 78.0601 84.3158 78.4658 84.3992L78.4752 84.4015C78.9573 84.5254 79.5363 84.5514 79.9372 84.5514C81.943 84.5514 83.0431 84.0712 83.3003 83.0834C83.4693 82.434 83.3742 81.9072 83.1553 81.5142C83.7989 81.4603 84.41 81.1348 84.6327 80.3318C84.8336 79.6073 84.5974 79.0728 84.2785 78.7269C84.6301 78.5874 85.0252 78.3441 85.2081 77.9273C85.594 77.0472 85.2326 76.0431 84.3854 75.6411Z" fill="#1D1D1B"/>
<path fill-rule="evenodd" clip-rule="evenodd" d="M71.1841 48.451C71.0937 49.5728 70.995 51.5414 70.995 53.7795C70.995 54.4637 71.004 55.1734 71.0254 55.8921C69.8833 55.8177 68.8529 55.8074 67.9358 55.8384C65.6985 55.9149 64.1312 56.2387 63.2417 56.4833C63.2189 55.8246 63.2044 55.1459 63.1996 54.4472C63.1727 50.8 63.4018 47.9418 63.4114 47.8219C63.5633 45.9559 65.009 44.504 66.7985 44.2753C67.0635 44.2415 67.3361 44.2339 67.6135 44.2567C69.759 44.431 71.358 46.3087 71.1841 48.451Z" fill="#F1B61D"/>
<g style="mix-blend-mode:multiply">
<path fill-rule="evenodd" clip-rule="evenodd" d="M71.1841 48.451C71.0937 49.5728 70.995 51.5414 70.995 53.7795C70.995 54.4637 71.004 55.1734 71.0254 55.8921C69.8832 55.8177 68.8529 55.8074 67.9358 55.8384C68.0041 54.062 68.0676 51.2169 67.9282 48.6618C67.7984 46.2887 67.2429 44.9671 66.7985 44.2753C67.0635 44.2415 67.3361 44.2339 67.6135 44.2567C69.759 44.431 71.358 46.3087 71.1841 48.451Z" fill="#FFD1C3"/>
</g>
<path fill-rule="evenodd" clip-rule="evenodd" d="M67.2952 44.5539C65.4471 44.5539 63.8737 45.9759 63.7212 47.8471C63.7115 47.9673 63.4838 50.8369 63.5103 54.445C63.5141 54.9917 63.5241 55.542 63.54 56.0861C64.8507 55.7668 67.2578 55.3717 70.706 55.5624C70.6919 54.9853 70.6847 54.3872 70.6847 53.7796C70.6847 51.001 70.8302 48.9796 70.8748 48.4262V48.426C71.0346 46.4578 69.5604 44.7261 67.5885 44.5658C67.4902 44.5578 67.3921 44.5539 67.2952 44.5539ZM62.9452 56.8866L62.9316 56.4942C62.9082 55.8195 62.894 55.1315 62.8893 54.4494C62.8625 50.8146 63.0924 47.9186 63.1022 47.7971C63.2904 45.4866 65.3253 43.7606 67.6389 43.9477C69.952 44.1357 71.6813 46.1671 71.4939 48.4762C71.403 49.6045 71.3058 51.5902 71.3058 53.7796C71.3058 54.501 71.316 55.2087 71.3361 55.8831L71.3462 56.2239L71.0054 56.2017C67.0921 55.9465 64.5133 56.456 63.3243 56.7824L62.9452 56.8866Z" fill="#1D1D1B"/>
<path fill-rule="evenodd" clip-rule="evenodd" d="M98.0236 58.4941C95.6697 62.8187 81.1816 62.5479 81.1816 62.5479C77.8532 62.3673 75.2619 63.2342 75.237 63.2431C75.1114 63.2858 74.9851 63.3058 74.8595 63.3058C74.3758 63.3058 73.8361 63.0233 73.7568 62.5196C73.7526 62.492 73.7492 62.4652 73.7478 62.439C73.6788 61.546 74.8589 61.054 74.9658 61.0106C74.8437 61.0519 74.7188 61.0705 74.5966 61.0705C74.1122 61.0705 73.5725 60.7887 73.4931 60.2843C73.3379 59.29 74.48 58.8517 74.6801 58.7828C74.5656 58.818 74.4482 58.8359 74.333 58.8359C73.8492 58.8359 73.3958 58.5327 73.2302 58.0497C73.0218 57.4426 73.3434 56.7818 73.9514 56.5723C74.0728 56.5303 76.9754 55.547 80.7813 55.7544L82.4569 55.8378C82.4735 55.8392 84.4886 55.946 86.7777 55.7799C88.6637 55.6442 89.8514 55.3927 90.5719 55.1729C90.9928 55.044 91.2502 54.6202 91.1723 54.1882C91.0998 53.7844 90.9721 53.2538 90.7513 52.5737C90.5546 51.9646 90.282 51.2356 89.9087 50.3722C88.9798 48.2264 87.9674 46.5093 87.9577 46.4928C86.8998 44.7054 87.4933 42.4018 89.2828 41.3462C91.0715 40.2912 93.3792 40.8825 94.4365 42.6692C94.4958 42.7684 95.8898 45.1339 97.0637 47.9756C97.1776 48.2519 97.2866 48.5241 97.3901 48.7915C97.5385 49.1773 97.6765 49.5536 97.8021 49.9208C99.0671 53.6066 99.172 56.3828 98.0236 58.4941Z" fill="white"/>
<g style="mix-blend-mode:multiply">
<path fill-rule="evenodd" clip-rule="evenodd" d="M98.0237 58.4942C95.6697 62.8187 81.1816 62.5479 81.1816 62.5479C77.8532 62.3674 75.2619 63.2342 75.2371 63.2431C75.1115 63.2859 74.9852 63.3059 74.8596 63.3059C74.3758 63.3059 73.8361 63.0233 73.7568 62.5196C73.7526 62.4921 73.7492 62.4652 73.7478 62.439C75.3392 61.7189 79.3592 60.9962 81.4503 60.9497C84.2841 60.8869 94.3153 60.2027 95.4664 58.1487C96.6175 56.0939 93.9755 50.2468 93.9755 50.2468L97.3901 48.7915C97.5385 49.1774 97.6765 49.5536 97.8021 49.9209C99.0671 53.6066 99.172 56.3829 98.0237 58.4942Z" fill="#FFD1C3"/>
</g>
<path fill-rule="evenodd" clip-rule="evenodd" d="M97.7507 58.3462L97.7508 58.3461C96.8388 60.0216 93.7052 61.2277 88.6889 61.8341C84.9059 62.2915 81.3502 62.2407 81.1926 62.2379C77.795 62.055 75.1568 62.9424 75.1369 62.9497C75.0469 62.9802 74.9536 62.9958 74.8596 62.9958C74.5089 62.9958 74.1152 62.7996 74.0639 62.4739C74.0613 62.4564 74.0588 62.4393 74.0579 62.4227L74.0574 62.4151C74.0054 61.743 75.0387 61.3158 75.0828 61.2978L75.0802 61.2912C75.0954 61.2888 75.1106 61.2854 75.1256 61.2807C76.0179 61.0031 79.2263 60.5238 79.2587 60.519C79.4283 60.4938 79.5453 60.336 79.52 60.1666C79.4947 59.9972 79.3373 59.8804 79.167 59.9057C79.0332 59.9256 75.8785 60.3968 74.9409 60.6886C74.9145 60.6968 74.8908 60.7092 74.8684 60.7232L74.8661 60.717C74.7808 60.7458 74.6901 60.7605 74.5966 60.7605C74.2455 60.7605 73.8516 60.5644 73.8 60.2365C73.684 59.4935 74.5971 59.1394 74.7814 59.076L74.7806 59.0738C74.7879 59.0721 74.7951 59.0711 74.8022 59.0689C75.6945 58.7912 78.9029 58.3119 78.9353 58.3072C79.1049 58.2819 79.2219 58.1242 79.1966 57.9547C79.1713 57.7854 79.014 57.6684 78.8436 57.6938C78.7098 57.7137 75.5552 58.1849 74.6175 58.4768C74.6076 58.4798 74.5989 58.4847 74.5896 58.4886L74.5889 58.4865C74.5038 58.5126 74.4177 58.5258 74.333 58.5258C73.9674 58.5258 73.6422 58.2942 73.524 57.9491C73.3714 57.5046 73.6086 57.0185 74.0531 56.8653C74.1721 56.8242 77.0082 55.8595 80.7659 56.0642L82.4415 56.1475V56.1475C82.5971 56.1558 84.5697 56.251 86.8 56.0892C88.3903 55.9748 89.6899 55.7663 90.6629 55.4694C91.2335 55.2948 91.5839 54.7203 91.478 54.1335C91.3908 53.648 91.2457 53.091 91.0469 52.4786C90.83 51.8068 90.5429 51.0567 90.1938 50.2492C89.297 48.1777 88.3337 46.5201 88.2252 46.3351C87.7557 45.5419 87.6237 44.6141 87.8533 43.7223C88.0829 42.8307 88.6467 42.0816 89.4407 41.6132C91.0799 40.6465 93.2011 41.1909 94.1699 42.8282C94.1838 42.8515 95.5992 45.2436 96.7765 48.0936C96.8912 48.3719 97.0002 48.6443 97.1002 48.9027C97.2556 49.3066 97.3891 49.6724 97.5084 50.0215C98.7674 53.6901 98.8445 56.3353 97.7507 58.3462ZM98.096 49.8207C97.9743 49.4646 97.8382 49.0916 97.6798 48.6797C97.5779 48.4166 97.4673 48.14 97.3508 47.8575C96.1564 44.966 94.7173 42.534 94.7039 42.5115C93.5616 40.5811 91.0589 39.9387 89.1248 41.0793C88.1879 41.632 87.5227 42.5158 87.2518 43.5679C86.9808 44.6201 87.1366 45.7149 87.6909 46.6514C87.7958 46.8303 88.7416 48.4576 89.6236 50.4951C89.9649 51.2844 90.2449 52.0158 90.4559 52.6694C90.6462 53.2556 90.7844 53.785 90.8667 54.2432C90.9169 54.5215 90.7511 54.7937 90.4812 54.8764C89.843 55.0711 88.6785 55.3323 86.7552 55.4707C84.4842 55.6354 82.496 55.5296 82.4822 55.5288L80.7983 55.4449C76.9214 55.2334 73.9732 56.2366 73.8501 56.2793C73.0828 56.5436 72.673 57.3829 72.9364 58.1501C73.0674 58.532 73.3451 58.8336 73.6939 59.0009C73.2831 59.3703 73.1078 59.8291 73.1864 60.3325C73.2577 60.7857 73.5914 61.0999 73.9847 61.2595C73.5941 61.6127 73.4055 62.0251 73.4379 62.4595C73.4402 62.4989 73.4451 62.5351 73.45 62.5678C73.5573 63.2486 74.2563 63.616 74.8596 63.616C75.0219 63.616 75.1826 63.5892 75.3389 63.536C75.3641 63.5275 77.8898 62.6799 81.1648 62.8575L81.1759 62.8579C81.2124 62.8588 84.8645 62.9206 88.7572 62.4506C94.0601 61.8102 97.2695 60.529 98.2965 58.6422L98.2966 58.6421C99.4791 56.468 99.4154 53.6649 98.096 49.8207Z" fill="#1D1D1B"/>
<path fill-rule="evenodd" clip-rule="evenodd" d="M97.8021 49.9208C96.5061 50.1413 95.2639 50.5238 94.1625 50.9489C92.7188 51.5057 91.516 52.1362 90.7513 52.5737C90.5547 51.9646 90.2821 51.2356 89.9087 50.3722C88.9798 48.2264 87.9674 46.5093 87.9578 46.4928C86.9116 44.7246 87.4809 42.4521 89.2248 41.3813C89.2441 41.3696 89.2635 41.3579 89.2828 41.3462C91.0715 40.2912 93.3793 40.8825 94.4365 42.6692C94.4958 42.7684 95.8899 45.1339 97.0637 47.9756C97.3425 48.6502 97.5889 49.2986 97.8021 49.9208Z" fill="#F1B61D"/>
<g style="mix-blend-mode:multiply">
<path fill-rule="evenodd" clip-rule="evenodd" d="M97.8022 49.9208C96.5062 50.1413 95.264 50.5238 94.1626 50.9489C93.6747 49.5908 92.8652 47.4554 91.8148 45.0967C90.917 43.0806 89.9571 41.9781 89.2249 41.3813C89.2442 41.3696 89.2635 41.3579 89.2828 41.3462C91.0716 40.2912 93.3793 40.8825 94.4365 42.6692C94.4959 42.7684 95.8899 45.1339 97.0638 47.9756C97.3426 48.6502 97.5889 49.2986 97.8022 49.9208Z" fill="#FFD1C3"/>
</g>
<path fill-rule="evenodd" clip-rule="evenodd" d="M91.1913 41.1324C90.5812 41.1324 89.98 41.2951 89.441 41.6131C88.6469 42.0814 88.0831 42.8304 87.8534 43.7222C87.6238 44.614 87.7557 45.5417 88.2251 46.3346C88.2336 46.3488 89.2591 48.0898 90.1935 50.2488C90.481 50.9135 90.7269 51.5408 90.9268 52.1192C92.3139 51.3539 94.719 50.1994 97.3894 49.681C97.2081 49.1725 97.0025 48.6401 96.7766 48.0936C95.5962 45.237 94.1837 42.8518 94.1698 42.8285C93.7001 42.0344 92.95 41.4716 92.0568 41.2423C91.7702 41.1688 91.4797 41.1324 91.1913 41.1324ZM90.5737 53.0326L90.456 52.6689C90.2437 52.0129 89.9635 51.2814 89.6232 50.4948C88.7052 48.3732 87.7009 46.6678 87.6909 46.6512C87.1366 45.7146 86.9809 44.62 87.252 43.5677C87.523 42.5155 88.1881 41.6317 89.1251 41.0792C90.0616 40.5266 91.1577 40.3713 92.2115 40.6417C93.2653 40.9122 94.1505 41.5763 94.7037 42.5118C94.7171 42.5341 96.1534 44.9594 97.3507 47.857C97.6325 48.5385 97.8832 49.1991 98.0961 49.8206L98.2141 50.1653L97.8545 50.2266C94.9079 50.7292 92.2362 52.0813 90.9059 52.8425L90.5737 53.0326Z" fill="#1D1D1B"/>
</g>
<path fill-rule="evenodd" clip-rule="evenodd" d="M44.1983 80.9991C43.9874 80.9991 43.774 80.9396 43.5845 80.8148C43.0691 80.476 42.9262 79.7837 43.2658 79.2688L53.9916 63.006C54.3628 62.4432 54.9863 62.1082 55.6605 62.1082H55.6704C56.3488 62.1116 56.9728 62.4534 57.3405 63.0222L67.8231 79.2629C68.1575 79.781 68.0079 80.4718 67.489 80.8056C66.9703 81.1397 66.2785 80.9902 65.9439 80.472L55.6585 64.5374L45.1331 80.4966C44.9182 80.8223 44.5618 80.9991 44.1983 80.9991Z" fill="#DB5F2C"/>
<path fill-rule="evenodd" clip-rule="evenodd" d="M215.636 59.7278H207.45C204.673 59.7278 202.423 57.4807 202.423 54.7084V46.5348C202.423 43.7628 204.673 41.5154 207.45 41.5154H215.636C218.412 41.5154 220.663 43.7628 220.663 46.5348V54.7084C220.663 57.4804 218.412 59.7278 215.636 59.7278Z" fill="#FFA571"/>
<defs>
<clipPath id="clip0_2_1185">
<rect width="127" height="120" fill="white" transform="translate(51.0144 17.3945)"/>
</clipPath>
</defs>
</svg>
