<svg width="17" height="16" viewBox="0 0 17 16" fill="none" xmlns="http://www.w3.org/2000/svg">
<path fill-rule="evenodd" clip-rule="evenodd" d="M9.85427 7.95792L16.0531 1.94081C16.511 1.49632 16.511 0.777859 16.0531 0.333368C15.5952 -0.111123 14.855 -0.111123 14.3971 0.333368L8.19828 6.35048L1.99943 0.333368C1.54151 -0.111123 0.801353 -0.111123 0.343437 0.333368C-0.114479 0.777859 -0.114479 1.49632 0.343437 1.94081L6.54228 7.95792L0.343437 13.975C-0.114479 14.4195 -0.114479 15.138 0.343437 15.5825C0.571809 15.8041 0.871621 15.9156 1.17143 15.9156C1.47125 15.9156 1.77106 15.8041 1.99943 15.5825L8.19828 9.56536L14.3971 15.5825C14.6255 15.8041 14.9253 15.9156 15.2251 15.9156C15.5249 15.9156 15.8247 15.8041 16.0531 15.5825C16.511 15.138 16.511 14.4195 16.0531 13.975L9.85427 7.95792Z" fill="#68696D"/>
</svg>
