<svg width="14" height="14" viewBox="0 0 14 14" fill="none" xmlns="http://www.w3.org/2000/svg">
<path fill-rule="evenodd" clip-rule="evenodd" d="M0.62299 0.636662C0.915883 0.343769 1.39076 0.343769 1.68365 0.636662L7.15332 6.10633L12.623 0.636662C12.9159 0.343769 13.3908 0.343769 13.6837 0.636662C13.9765 0.929555 13.9765 1.40443 13.6837 1.69732L8.21398 7.16699L13.6837 12.6367C13.9765 12.9296 13.9765 13.4044 13.6837 13.6973C13.3908 13.9902 12.9159 13.9902 12.623 13.6973L7.15332 8.22765L1.68365 13.6973C1.39076 13.9902 0.915883 13.9902 0.62299 13.6973C0.330097 13.4044 0.330097 12.9296 0.62299 12.6367L6.09266 7.16699L0.62299 1.69732C0.330097 1.40443 0.330097 0.929555 0.62299 0.636662Z" fill="white"/>
</svg>
