<svg width="24" height="25" viewBox="0 0 24 25" fill="none" xmlns="http://www.w3.org/2000/svg">
<path fill-rule="evenodd" clip-rule="evenodd" d="M9.47216 1.75H9.5H11.5H12C12.4142 1.75 12.75 2.08579 12.75 2.5C12.75 2.91421 12.4142 3.25 12 3.25H11.5H9.5C8.32488 3.25 7.48111 3.25041 6.81528 3.29584C6.15618 3.34081 5.72641 3.42737 5.3736 3.57351C4.33223 4.00486 3.50486 4.83223 3.07351 5.8736C2.92737 6.22641 2.84081 6.65618 2.79584 7.31528C2.75041 7.98111 2.75 8.82488 2.75 10V10.5C2.75 10.9142 2.41421 11.25 2 11.25C1.58579 11.25 1.25 10.9142 1.25 10.5V10V9.97216V9.97214C1.25 8.83086 1.25 7.93603 1.29932 7.21317C1.3495 6.4777 1.45323 5.86562 1.68769 5.29957C2.27128 3.89066 3.39066 2.77128 4.79957 2.18769C5.36562 1.95323 5.9777 1.8495 6.71317 1.79932C7.43603 1.75 8.33086 1.75 9.47214 1.75H9.47216ZM22 11.75C22.4142 11.75 22.75 12.0858 22.75 12.5V13V14.5V14.5336V14.5336V14.5337C22.75 15.9053 22.75 16.9807 22.6794 17.8451C22.6075 18.7252 22.4586 19.4523 22.1233 20.1104C21.572 21.1924 20.6924 22.072 19.6104 22.6233C18.9523 22.9586 18.2252 23.1075 17.3451 23.1794C16.4807 23.25 15.4053 23.25 14.0337 23.25H14.0336H14.0336H14H9.5H9.47215C8.33087 23.25 7.43603 23.25 6.71317 23.2007C5.9777 23.1505 5.36562 23.0468 4.79957 22.8123C3.39066 22.2287 2.27128 21.1093 1.68769 19.7004C1.45323 19.1344 1.3495 18.5223 1.29932 17.7868C1.25 17.064 1.25 16.1691 1.25 15.0279V15.0278V15V14.5C1.25 14.0858 1.58579 13.75 2 13.75C2.41421 13.75 2.75 14.0858 2.75 14.5V15C2.75 16.1751 2.75041 17.0189 2.79584 17.6847C2.84081 18.3438 2.92737 18.7736 3.07351 19.1264C3.50486 20.1678 4.33223 20.9951 5.3736 21.4265C5.72641 21.5726 6.15618 21.6592 6.81528 21.7042C7.48111 21.7496 8.32488 21.75 9.5 21.75H14C15.4125 21.75 16.4268 21.7494 17.2229 21.6844C18.0103 21.62 18.518 21.4964 18.9295 21.2868C19.7291 20.8793 20.3793 20.2291 20.7868 19.4295C20.9964 19.018 21.12 18.5103 21.1844 17.7229C21.2494 16.9268 21.25 15.9125 21.25 14.5V13V12.5C21.25 12.0858 21.5858 11.75 22 11.75ZM19.8408 4.40345C19.364 3.97009 18.636 3.97009 18.1592 4.40345C18.1405 4.42046 18.1161 4.44456 18.0303 4.53033L17.7233 4.83733C17.6991 5.91352 18.5865 6.80094 19.6627 6.77667L19.9697 6.46967C20.0554 6.3839 20.0795 6.35949 20.0965 6.34079C20.5299 5.86403 20.5299 5.13597 20.0965 4.65921C20.0795 4.64051 20.0554 4.6161 19.9697 4.53033C19.8839 4.44456 19.8595 4.42046 19.8408 4.40345ZM18.3917 8.04761L17.9697 8.46967C17.6768 8.76256 17.6768 9.23744 17.9697 9.53033C18.2626 9.82322 18.7374 9.82322 19.0303 9.53033L21.0303 7.53033L21.0429 7.51777L21.043 7.51767C21.1103 7.45037 21.1622 7.39853 21.2065 7.34973C22.1599 6.30086 22.1599 4.69914 21.2065 3.65027C21.1621 3.60146 21.1103 3.5496 21.0429 3.48227L21.0429 3.48224L21.0303 3.46967L21.0177 3.45707L21.0177 3.45704L21.0177 3.45702C20.9504 3.3897 20.8985 3.33785 20.8497 3.29348C19.8009 2.34008 18.1991 2.34008 17.1503 3.29348C17.1015 3.33784 17.0496 3.38969 16.9823 3.457L16.9823 3.45704L16.9822 3.45709L16.9697 3.46967L12.7232 7.71619L12.6791 7.76028L12.679 7.76029L12.679 7.7603C12.2545 8.18477 11.9807 8.4585 11.755 8.77245C11.555 9.05063 11.3857 9.34963 11.2501 9.66423C11.097 10.0193 11.0031 10.3949 10.8576 10.9774L10.8425 11.0379L10.2724 13.3181C10.2085 13.5737 10.2834 13.844 10.4697 14.0303C10.656 14.2166 10.9263 14.2915 11.1819 14.2276L14.4959 13.3991C15.0767 13.2539 15.607 12.9536 16.0303 12.5303L16.5303 12.0303C16.8232 11.7374 16.8232 11.2626 16.5303 10.9697C16.2374 10.6768 15.7626 10.6768 15.4697 10.9697L14.9697 11.4697C14.7386 11.7007 14.4491 11.8646 14.1321 11.9439L12.0308 12.4692L12.2977 11.4017C12.4634 10.7387 12.5285 10.4878 12.6275 10.2582C12.7203 10.0429 12.8361 9.83832 12.9729 9.64799C13.1189 9.44495 13.3006 9.26007 13.7838 8.77685L16.4524 6.10827C16.798 6.99363 17.5064 7.70196 18.3917 8.04761Z" fill="#334BFA"/>
</svg>
