<svg width="22" height="24" viewBox="0 0 22 24" fill="none" xmlns="http://www.w3.org/2000/svg">
<path fill-rule="evenodd" clip-rule="evenodd" d="M7.75 1.55273C7.75 1.13852 7.41421 0.802734 7 0.802734C6.58579 0.802734 6.25 1.13852 6.25 1.55273V1.91968C5.35977 2.01511 4.61404 2.19274 3.93556 2.53844C2.66547 3.18559 1.63285 4.2182 0.985706 5.4883C0.595875 6.25338 0.419771 7.10398 0.334236 8.15087C0.249993 9.18196 0.249996 10.4674 0.25 12.1188V12.1188V12.1527V12.9527V12.9867V12.9867C0.249996 14.6381 0.249993 15.9235 0.334236 16.9546C0.419771 18.0015 0.595875 18.8521 0.985706 19.6172C1.63285 20.8873 2.66547 21.9199 3.93556 22.567C4.70065 22.9569 5.55124 23.133 6.59814 23.2185C7.62912 23.3027 8.91437 23.3027 10.5656 23.3027H10.5657H10.5657H10.5657H10.5658H10.5658H10.5659H10.5659H10.566H10.566H10.6H11.4H11.434H11.434H11.4341H11.4341H11.4342H11.4342H11.4343H11.4343H11.4343H11.4344C13.0856 23.3027 14.3709 23.3027 15.4019 23.2185C16.4488 23.133 17.2994 22.9569 18.0644 22.567C19.3345 21.9199 20.3671 20.8873 21.0143 19.6172C21.4041 18.8521 21.5802 18.0015 21.6658 16.9546C21.75 15.9236 21.75 14.6384 21.75 12.9871V12.9871V12.987V12.987V12.9869V12.9869V12.9868V12.9868V12.9867V12.9867V12.9527V12.1527V12.1188V12.1187V12.1187V12.1186V12.1186V12.1185V12.1185V12.1184V12.1184V12.1183C21.75 10.4671 21.75 9.18186 21.6658 8.15087C21.5802 7.10398 21.4041 6.25338 21.0143 5.4883C20.3671 4.2182 19.3345 3.18559 18.0644 2.53844C17.386 2.19274 16.6402 2.01511 15.75 1.91968V1.55273C15.75 1.13852 15.4142 0.802734 15 0.802734C14.5858 0.802734 14.25 1.13852 14.25 1.55273V1.82672C13.4486 1.80273 12.5205 1.80273 11.434 1.80273H11.4339H11.4H10.6H10.5661H10.566C9.47953 1.80273 8.55145 1.80273 7.75 1.82672V1.55273ZM14.25 4.55273V3.32734C13.4708 3.303 12.542 3.30273 11.4 3.30273H10.6C9.45801 3.30273 8.52919 3.303 7.75 3.32734V4.55273C7.75 4.96695 7.41421 5.30273 7 5.30273C6.58579 5.30273 6.25 4.96695 6.25 4.55273V3.42957C5.54969 3.51594 5.04464 3.65683 4.61655 3.87495C3.6287 4.37829 2.82555 5.18143 2.32222 6.16928C2.05809 6.68767 1.90721 7.31889 1.82925 8.27302C1.75058 9.23591 1.75 10.4602 1.75 12.1527V12.9527C1.75 14.6453 1.75058 15.8696 1.82925 16.8324C1.90721 17.7866 2.05809 18.4178 2.32222 18.9362C2.82555 19.924 3.6287 20.7272 4.61655 21.2305C5.13493 21.4946 5.76615 21.6455 6.72029 21.7235C7.68317 21.8022 8.90747 21.8027 10.6 21.8027H11.4C13.0925 21.8027 14.3168 21.8022 15.2797 21.7235C16.2338 21.6455 16.8651 21.4946 17.3834 21.2305C18.3713 20.7272 19.1744 19.924 19.6778 18.9362C19.9419 18.4178 20.0928 17.7866 20.1707 16.8324C20.2494 15.8696 20.25 14.6453 20.25 12.9527V12.1527C20.25 10.4602 20.2494 9.23591 20.1707 8.27302C20.0928 7.31889 19.9419 6.68767 19.6778 6.16928C19.1744 5.18143 18.3713 4.37829 17.3834 3.87495C16.9554 3.65683 16.4503 3.51594 15.75 3.42957V4.55273C15.75 4.96695 15.4142 5.30273 15 5.30273C14.5858 5.30273 14.25 4.96695 14.25 4.55273ZM6 7.80273C5.58579 7.80273 5.25 8.13852 5.25 8.55273C5.25 8.96695 5.58579 9.30273 6 9.30273H16C16.4142 9.30273 16.75 8.96695 16.75 8.55273C16.75 8.13852 16.4142 7.80273 16 7.80273H6ZM8 13.5527C8 14.105 7.55228 14.5527 7 14.5527C6.44772 14.5527 6 14.105 6 13.5527C6 13.0004 6.44772 12.5527 7 12.5527C7.55228 12.5527 8 13.0004 8 13.5527ZM7 18.5527C7.55228 18.5527 8 18.105 8 17.5527C8 17.0005 7.55228 16.5527 7 16.5527C6.44772 16.5527 6 17.0005 6 17.5527C6 18.105 6.44772 18.5527 7 18.5527ZM12 17.5527C12 18.105 11.5523 18.5527 11 18.5527C10.4477 18.5527 10 18.105 10 17.5527C10 17.0005 10.4477 16.5527 11 16.5527C11.5523 16.5527 12 17.0005 12 17.5527ZM15 18.5527C15.5523 18.5527 16 18.105 16 17.5527C16 17.0005 15.5523 16.5527 15 16.5527C14.4477 16.5527 14 17.0005 14 17.5527C14 18.105 14.4477 18.5527 15 18.5527ZM12 13.5527C12 14.105 11.5523 14.5527 11 14.5527C10.4477 14.5527 10 14.105 10 13.5527C10 13.0004 10.4477 12.5527 11 12.5527C11.5523 12.5527 12 13.0004 12 13.5527ZM15 14.5527C15.5523 14.5527 16 14.105 16 13.5527C16 13.0004 15.5523 12.5527 15 12.5527C14.4477 12.5527 14 13.0004 14 13.5527C14 14.105 14.4477 14.5527 15 14.5527Z" fill="#334BFA"/>
</svg>
