<svg width="600" height="600" viewBox="0 0 600 600" fill="none" xmlns="http://www.w3.org/2000/svg">
<mask id="mask0_5799_37086" style="mask-type:alpha" maskUnits="userSpaceOnUse" x="562" y="556" width="38" height="4">
<path fill-rule="evenodd" clip-rule="evenodd" d="M562.803 556.78H600V559.304H562.803V556.78Z" fill="white"/>
</mask>
<g mask="url(#mask0_5799_37086)">
<path fill-rule="evenodd" clip-rule="evenodd" d="M564.029 559.304C563.352 559.304 562.804 558.75 562.803 558.068C562.802 557.384 563.351 556.83 564.027 556.829L598.773 556.78H598.775C599.451 556.78 599.999 557.333 600.001 558.016C600.001 558.699 599.453 559.254 598.776 559.255L564.031 559.304H564.029Z" fill="#4D0070"/>
</g>
<path fill-rule="evenodd" clip-rule="evenodd" d="M85.0032 559.974C84.3265 559.974 83.7786 559.421 83.7773 558.739C83.7761 558.055 84.3247 557.501 85.0014 557.499L547.129 556.852H547.131C547.807 556.852 548.355 557.405 548.356 558.088C548.358 558.771 547.809 559.326 547.132 559.327L85.005 559.974H85.0032Z" fill="#4D0070"/>
<mask id="mask1_5799_37086" style="mask-type:alpha" maskUnits="userSpaceOnUse" x="0" y="557" width="62" height="4">
<path fill-rule="evenodd" clip-rule="evenodd" d="M0 557.534H61.5214V560.092H0V557.534Z" fill="white"/>
</mask>
<g mask="url(#mask1_5799_37086)">
<path fill-rule="evenodd" clip-rule="evenodd" d="M1.22586 560.092C0.549185 560.092 0.00122791 559.538 2.05051e-06 558.856C-0.00122381 558.172 0.547347 557.618 1.22402 557.617L60.2937 557.534H60.2956C60.9722 557.534 61.5202 558.087 61.5214 558.769C61.5226 559.453 60.9741 560.008 60.2974 560.009L1.2277 560.092H1.22586Z" fill="#4D0070"/>
</g>
<path fill-rule="evenodd" clip-rule="evenodd" d="M511.86 133.106C511.86 142.718 504.141 150.512 494.619 150.512C485.097 150.512 477.377 142.718 477.377 133.106C477.377 123.493 485.097 115.7 494.619 115.7C504.141 115.7 511.86 123.493 511.86 133.106Z" fill="white"/>
<path fill-rule="evenodd" clip-rule="evenodd" d="M494.619 116.937C485.788 116.937 478.603 124.191 478.603 133.106C478.603 142.021 485.788 149.274 494.619 149.274C503.45 149.274 510.634 142.021 510.634 133.106C510.634 124.191 503.45 116.937 494.619 116.937ZM494.618 151.749C484.436 151.749 476.151 143.385 476.151 133.106C476.151 122.826 484.436 114.462 494.618 114.462C504.801 114.462 513.086 122.826 513.086 133.106C513.086 143.385 504.801 151.749 494.618 151.749Z" fill="#4D0070"/>
<path fill-rule="evenodd" clip-rule="evenodd" d="M487.175 135.289C486.836 135.289 486.562 135.012 486.562 134.67C486.562 130.016 490.313 126.229 494.923 126.229C498.291 126.229 501.314 128.253 502.626 131.384C502.758 131.699 502.613 132.062 502.301 132.195C501.988 132.329 501.629 132.181 501.497 131.866C500.377 129.194 497.797 127.467 494.923 127.467C490.989 127.467 487.788 130.698 487.788 134.67C487.788 135.012 487.514 135.289 487.175 135.289Z" fill="#4D0070"/>
<path fill-rule="evenodd" clip-rule="evenodd" d="M407.235 12.7654V42.4971C400.578 41.3153 393.965 40.7089 387.413 42.2868C378.194 44.5019 370.539 50.77 362.24 55.3978C360.18 56.5493 357.985 57.5944 355.73 58.4489V12.7654C355.73 6.3983 360.848 1.23779 367.155 1.23779H395.816C402.123 1.23779 407.235 6.3983 407.235 12.7654Z" fill="white"/>
<path fill-rule="evenodd" clip-rule="evenodd" d="M367.155 2.47539C361.532 2.47539 356.956 7.09139 356.956 12.7655V56.6236C358.521 55.9572 360.092 55.1838 361.646 54.315C364.016 52.9946 366.383 51.5046 368.674 50.0647C374.428 46.4468 380.378 42.7051 387.129 41.0833C393.751 39.4888 400.315 40.0914 406.009 41.032V12.7655C406.009 7.09139 401.437 2.47539 395.816 2.47539H367.155ZM355.73 59.6867C355.484 59.6867 355.241 59.6118 355.033 59.4664C354.702 59.235 354.504 58.8551 354.504 58.4492V12.7656C354.504 5.72717 360.179 0.000488281 367.155 0.000488281H395.816C402.788 0.000488281 408.461 5.72717 408.461 12.7656V42.4974C408.461 42.8631 408.3 43.2096 408.023 43.4453C407.746 43.6804 407.377 43.7801 407.023 43.7157C401.256 42.6923 394.451 41.8644 387.698 43.4905C381.335 45.0195 375.557 48.6529 369.97 52.1662C367.653 53.6228 365.257 55.1295 362.832 56.4815C360.626 57.7147 358.381 58.7672 356.161 59.6075C356.021 59.6607 355.876 59.6867 355.73 59.6867Z" fill="#4D0070"/>
<path fill-rule="evenodd" clip-rule="evenodd" d="M407.235 42.4968V62.3097C407.235 68.6769 402.123 73.8367 395.816 73.8367H367.155C360.848 73.8367 355.73 68.6769 355.73 62.3097V58.4486C357.985 57.5941 360.18 56.549 362.24 55.3981C370.539 50.7698 378.194 44.5016 387.413 42.2865C393.965 40.7086 400.578 41.315 407.235 42.4968Z" fill="#8181FF"/>
<path fill-rule="evenodd" clip-rule="evenodd" d="M356.957 59.2979V62.3094C356.957 67.9835 361.532 72.5995 367.156 72.5995H395.816C401.437 72.5995 406.009 67.9835 406.009 62.3094V43.5398C400.466 42.6042 394.059 41.9588 387.697 43.4903C381.335 45.0192 375.558 48.6526 369.97 52.166C367.653 53.6226 365.257 55.1293 362.833 56.4813C360.889 57.5672 358.916 58.5127 356.957 59.2979ZM395.816 75.0746H367.156C360.18 75.0746 354.505 69.3479 354.505 62.3094V58.449C354.505 57.9329 354.822 57.4713 355.3 57.2906C357.408 56.4918 359.543 55.4913 361.646 54.315C364.016 52.9939 366.384 51.5045 368.674 50.0647C374.428 46.4461 380.378 42.7051 387.13 41.0833C394.316 39.3526 401.432 40.2096 407.448 41.2782C408.034 41.3821 408.461 41.8963 408.461 42.4972V62.3094C408.461 69.3479 402.788 75.0746 395.816 75.0746Z" fill="#4D0070"/>
<path fill-rule="evenodd" clip-rule="evenodd" d="M381.482 74.4558C381.143 74.4558 380.869 74.1792 380.869 73.837V62.328C380.869 61.9864 381.143 61.7092 381.482 61.7092C381.821 61.7092 382.095 61.9864 382.095 62.328V73.837C382.095 74.1792 381.821 74.4558 381.482 74.4558Z" fill="#4D0070"/>
<path fill-rule="evenodd" clip-rule="evenodd" d="M394.127 18.2224H369.297C368.62 18.2224 368.071 17.668 368.071 16.9848C368.071 16.3017 368.62 15.7473 369.297 15.7473H394.127C394.804 15.7473 395.353 16.3017 395.353 16.9848C395.353 17.668 394.804 18.2224 394.127 18.2224Z" fill="#4D0070"/>
<path fill-rule="evenodd" clip-rule="evenodd" d="M394.127 27.7299H369.297C368.62 27.7299 368.071 27.1755 368.071 26.4924C368.071 25.8093 368.62 25.2549 369.297 25.2549H394.127C394.804 25.2549 395.353 25.8093 395.353 26.4924C395.353 27.1755 394.804 27.7299 394.127 27.7299Z" fill="#4D0070"/>
<path fill-rule="evenodd" clip-rule="evenodd" d="M474.301 34.8428V62.3098C474.301 68.6769 469.189 73.8374 462.882 73.8374H434.216C427.915 73.8374 422.797 68.6769 422.797 62.3098V45.5474C425.708 46.0301 428.62 46.389 431.537 46.4941C445.561 46.983 459.058 41.5316 471.929 35.8885C472.72 35.542 473.511 35.1955 474.301 34.8428Z" fill="#8181FF"/>
<path fill-rule="evenodd" clip-rule="evenodd" d="M474.301 34.8428V62.3098C474.301 68.6769 469.189 73.8374 462.882 73.8374H434.216C427.915 73.8374 422.797 68.6769 422.797 62.3098V45.5474C425.708 46.0301 428.62 46.389 431.537 46.4941C445.561 46.983 459.058 41.5316 471.929 35.8885C472.72 35.542 473.511 35.1955 474.301 34.8428Z" fill="white" fill-opacity="0.3" style="mix-blend-mode:soft-light"/>
<path fill-rule="evenodd" clip-rule="evenodd" d="M424.023 46.9945V62.3096C424.023 67.9837 428.595 72.5997 434.216 72.5997H462.883C468.503 72.5997 473.076 67.9837 473.076 62.3096V36.7354C472.922 36.8022 472.769 36.8702 472.615 36.9371L472.418 37.0237C458.907 42.9471 445.626 48.2166 431.495 47.7308C429.187 47.6479 426.784 47.4115 424.023 46.9945ZM462.883 75.0747H434.216C427.244 75.0747 421.571 69.3481 421.571 62.3096V45.5472C421.571 45.184 421.729 44.8393 422.003 44.6042C422.277 44.3685 422.638 44.2682 422.996 44.3264C426.264 44.8678 428.993 45.1642 431.581 45.257C445.182 45.7452 458.198 40.5606 471.441 34.7534L471.639 34.6668C472.361 34.35 473.084 34.0332 473.806 33.7108C474.186 33.5425 474.624 33.5778 474.971 33.8061C475.318 34.0344 475.527 34.4243 475.527 34.8426V62.3096C475.527 69.3481 469.855 75.0747 462.883 75.0747Z" fill="#4D0070"/>
<path fill-rule="evenodd" clip-rule="evenodd" d="M474.301 12.7654V34.843C473.511 35.1957 472.72 35.5422 471.929 35.8887C459.058 41.5312 445.561 46.9832 431.537 46.4944C428.62 46.3892 425.708 46.0303 422.797 45.547V12.7654C422.797 6.3983 427.915 1.23779 434.216 1.23779H462.882C469.189 1.23779 474.301 6.3983 474.301 12.7654Z" fill="white"/>
<path fill-rule="evenodd" clip-rule="evenodd" d="M424.023 44.4912C426.844 44.9292 429.268 45.1737 431.581 45.2572C445.182 45.7454 458.198 40.5601 471.441 34.753L471.638 34.667C472.118 34.4566 472.597 34.2469 473.076 34.0346V12.7652C473.076 7.09106 468.503 2.47507 462.883 2.47507H434.216C428.595 2.47507 424.023 7.09106 424.023 12.7652V44.4912ZM433.332 47.7632C432.72 47.7632 432.109 47.7521 431.495 47.731C428.799 47.6339 425.972 47.3282 422.599 46.7682C422.006 46.6698 421.571 46.1532 421.571 45.5474V12.7652C421.571 5.72668 427.244 0 434.216 0H462.883C469.855 0 475.527 5.72668 475.527 12.7652V34.8427C475.527 35.3328 475.241 35.7765 474.797 35.9745C474.07 36.2993 473.343 36.618 472.615 36.9373L472.418 37.0233C459.494 42.6893 446.766 47.7632 433.332 47.7632Z" fill="#4D0070"/>
<path fill-rule="evenodd" clip-rule="evenodd" d="M448.549 73.9113C448.21 73.9113 447.936 73.6347 447.936 73.2925V54.3397C447.936 53.9975 448.21 53.7209 448.549 53.7209C448.888 53.7209 449.162 53.9975 449.162 54.3397V73.2925C449.162 73.6347 448.888 73.9113 448.549 73.9113Z" fill="#4D0070"/>
<path fill-rule="evenodd" clip-rule="evenodd" d="M460.964 18.2224H436.134C435.457 18.2224 434.908 17.668 434.908 16.9848C434.908 16.3017 435.457 15.7473 436.134 15.7473H460.964C461.641 15.7473 462.19 16.3017 462.19 16.9848C462.19 17.668 461.641 18.2224 460.964 18.2224Z" fill="#4D0070"/>
<path fill-rule="evenodd" clip-rule="evenodd" d="M450.729 27.7299H436.134C435.457 27.7299 434.908 27.1755 434.908 26.4924C434.908 25.8093 435.457 25.2549 436.134 25.2549H450.729C451.406 25.2549 451.955 25.8093 451.955 26.4924C451.955 27.1755 451.406 27.7299 450.729 27.7299Z" fill="#4D0070"/>
<path fill-rule="evenodd" clip-rule="evenodd" d="M468.275 13.2233C467.993 13.2233 467.74 13.0271 467.676 12.7382C467.204 10.583 465.438 8.90057 463.281 8.55035C462.946 8.4959 462.719 8.17909 462.772 7.84186C462.826 7.50402 463.14 7.27198 463.475 7.32891C466.125 7.75833 468.294 9.82501 468.874 12.4709C468.947 12.8044 468.738 13.1348 468.408 13.209C468.364 13.2183 468.318 13.2233 468.275 13.2233Z" fill="#4D0070"/>
<path fill-rule="evenodd" clip-rule="evenodd" d="M541.368 14.6338V62.3166C541.368 68.6837 536.256 73.8435 529.949 73.8435H501.282C494.975 73.8435 489.863 68.6837 489.863 62.3166V32.7327C489.863 32.7327 512.854 14.6214 541.368 14.6338Z" fill="#8181FF"/>
<path fill-rule="evenodd" clip-rule="evenodd" d="M541.368 14.6338V62.3166C541.368 68.6837 536.256 73.8435 529.949 73.8435H501.282C494.975 73.8435 489.863 68.6837 489.863 62.3166V32.7327C489.863 32.7327 512.854 14.6214 541.368 14.6338Z" fill="white" fill-opacity="0.3" style="mix-blend-mode:soft-light"/>
<path fill-rule="evenodd" clip-rule="evenodd" d="M541.368 14.6338V62.3166C541.368 68.6837 536.256 73.8435 529.949 73.8435H501.282C494.975 73.8435 489.863 68.6837 489.863 62.3166V32.7327C489.863 32.7327 512.854 14.6214 541.368 14.6338Z" fill="white" fill-opacity="0.3" style="mix-blend-mode:soft-light"/>
<path fill-rule="evenodd" clip-rule="evenodd" d="M491.089 33.352V62.3165C491.089 67.9899 495.662 72.6059 501.282 72.6059H529.949C535.57 72.6059 540.142 67.9899 540.142 62.3165V15.8824C515.124 16.3359 494.438 30.8732 491.089 33.352ZM529.949 75.081H501.282C494.31 75.081 488.638 69.3549 488.638 62.3165V32.7326C488.638 32.3515 488.812 31.9913 489.11 31.7568C489.343 31.5731 512.75 13.3962 541.34 13.3962C542.029 13.3844 542.593 13.9395 542.594 14.6337V62.3165C542.594 69.3549 536.921 75.081 529.949 75.081Z" fill="#4D0070"/>
<path fill-rule="evenodd" clip-rule="evenodd" d="M523.088 16.9832C503.639 21.8807 489.863 32.7326 489.863 32.7326V12.7657C489.863 6.39855 494.975 1.23804 501.282 1.23804H529.949C536.256 1.23804 541.368 6.39855 541.368 12.7657V14.6337C534.925 14.6306 528.765 15.5532 523.088 16.9832Z" fill="white"/>
<path fill-rule="evenodd" clip-rule="evenodd" d="M501.282 2.47554C495.662 2.47554 491.089 7.09154 491.089 12.7656V30.3039C495.593 27.1445 507.357 19.6692 522.792 15.7827C528.664 14.3039 534.494 13.5057 540.142 13.4067V12.7656C540.142 7.09154 535.57 2.47554 529.949 2.47554H501.282ZM489.864 33.9701C489.68 33.9701 489.496 33.9287 489.325 33.8445C488.905 33.6372 488.638 33.206 488.638 32.7326V12.7656C488.638 5.72717 494.31 0.000488281 501.282 0.000488281H529.949C536.921 0.000488281 542.594 5.72717 542.594 12.7656V14.6337C542.594 14.9616 542.464 15.2766 542.235 15.5086C542.005 15.7407 541.693 15.8712 541.368 15.8712H541.367H541.337C535.517 15.8712 529.479 16.649 523.385 18.1836C504.433 22.9561 490.754 33.6014 490.617 33.7084C490.398 33.8817 490.131 33.9701 489.864 33.9701Z" fill="#4D0070"/>
<path fill-rule="evenodd" clip-rule="evenodd" d="M515.616 73.6872C515.277 73.6872 515.003 73.4106 515.003 73.0684V32.7323C515.003 32.3907 515.277 32.1135 515.616 32.1135C515.955 32.1135 516.229 32.3907 516.229 32.7323V73.0684C516.229 73.4106 515.955 73.6872 515.616 73.6872Z" fill="#4D0070"/>
<path fill-rule="evenodd" clip-rule="evenodd" d="M529.695 68.76C529.4 68.76 529.139 68.5434 529.091 68.2396C529.037 67.9018 529.264 67.585 529.598 67.5305C531.756 67.1797 533.523 65.4973 533.996 63.3427C534.069 63.0092 534.396 62.7982 534.726 62.8718C535.057 62.9461 535.266 63.2765 535.193 63.61C534.612 66.2553 532.442 68.3219 529.793 68.752C529.76 68.7575 529.728 68.76 529.695 68.76Z" fill="#4D0070"/>
<path fill-rule="evenodd" clip-rule="evenodd" d="M392.293 600H326.929C326.253 600 325.704 599.446 325.704 598.762C325.704 598.079 326.253 597.525 326.929 597.525H392.293C392.969 597.525 393.519 598.079 393.519 598.762C393.519 599.446 392.969 600 392.293 600Z" fill="#4D0070"/>
<path fill-rule="evenodd" clip-rule="evenodd" d="M220.304 600H191.454C190.777 600 190.228 599.446 190.228 598.762C190.228 598.079 190.777 597.525 191.454 597.525H220.304C220.98 597.525 221.53 598.079 221.53 598.762C221.53 599.446 220.98 600 220.304 600Z" fill="#4D0070"/>
<path fill-rule="evenodd" clip-rule="evenodd" d="M393.101 157.229C385.985 150.823 381.503 141.496 381.503 131.112C381.503 111.793 397.017 96.1323 416.154 96.1323C435.29 96.1323 450.804 111.793 450.804 131.112C450.804 144.051 443.846 155.349 433.501 161.4" fill="white"/>
<path fill-rule="evenodd" clip-rule="evenodd" d="M433.503 162.637C433.08 162.637 432.669 162.416 432.441 162.02C432.102 161.429 432.301 160.671 432.887 160.329C443.183 154.306 449.579 143.111 449.579 131.112C449.579 112.506 434.585 97.3698 416.154 97.3698C397.724 97.3698 382.729 112.506 382.729 131.112C382.729 140.722 386.807 149.905 393.917 156.305C394.422 156.76 394.467 157.543 394.017 158.053C393.566 158.563 392.79 158.608 392.286 158.153C384.654 151.283 380.277 141.427 380.277 131.112C380.277 111.142 396.372 94.8948 416.154 94.8948C435.936 94.8948 452.03 111.142 452.03 131.112C452.03 143.991 445.166 156.007 434.116 162.47C433.923 162.583 433.711 162.637 433.503 162.637Z" fill="#4D0070"/>
<path fill-rule="evenodd" clip-rule="evenodd" d="M434.727 125.537C434.488 125.537 434.261 125.395 434.162 125.159C433.286 123.068 432.065 121.157 430.536 119.479C430.307 119.228 430.322 118.837 430.572 118.605C430.821 118.374 431.21 118.389 431.438 118.641C433.063 120.424 434.36 122.455 435.291 124.677C435.423 124.991 435.277 125.355 434.966 125.488C434.888 125.521 434.807 125.537 434.727 125.537Z" fill="#4D0070"/>
<path fill-rule="evenodd" clip-rule="evenodd" d="M395.997 133.457C395.658 133.457 395.384 133.181 395.384 132.839C395.384 121.277 404.701 111.871 416.154 111.871C419.966 111.871 423.694 112.922 426.933 114.912C427.222 115.09 427.314 115.471 427.138 115.763C426.962 116.055 426.585 116.147 426.296 115.97C423.249 114.098 419.742 113.109 416.154 113.109C405.378 113.109 396.61 121.959 396.61 132.839C396.61 133.181 396.336 133.457 395.997 133.457Z" fill="#4D0070"/>
<path fill-rule="evenodd" clip-rule="evenodd" d="M181.348 195.125L177.479 178.538C176.003 172.228 177.663 165.846 181.514 161.145C181.514 161.145 193.376 176.649 181.348 195.125Z" fill="white"/>
<path fill-rule="evenodd" clip-rule="evenodd" d="M181.445 163.288C178.461 167.66 177.449 173.025 178.673 178.254L181.85 191.876C189.038 178.524 183.723 167.133 181.445 163.288ZM181.349 196.363C181.278 196.363 181.206 196.356 181.135 196.344C180.653 196.257 180.267 195.89 180.155 195.408L176.286 178.822C174.756 172.278 176.317 165.547 180.57 160.357C180.807 160.066 181.154 159.893 181.534 159.907C181.907 159.914 182.256 160.09 182.484 160.388C182.608 160.55 194.737 176.81 182.373 195.805C182.144 196.156 181.757 196.363 181.349 196.363Z" fill="#4D0070"/>
<path fill-rule="evenodd" clip-rule="evenodd" d="M356.857 178.539L353.1 194.646C344.592 181.104 348.378 167.598 352.502 160.762C356.578 165.493 358.374 172.054 356.857 178.539Z" fill="white"/>
<path fill-rule="evenodd" clip-rule="evenodd" d="M352.68 162.985C350.419 167.455 346.171 178.729 352.617 191.317L355.663 178.255C355.664 178.255 355.664 178.255 355.664 178.254C356.902 172.961 355.786 167.378 352.68 162.985ZM353.1 195.884C352.685 195.884 352.292 195.67 352.065 195.309C343.851 182.235 346.364 168.559 351.455 160.118C351.658 159.781 352.008 159.562 352.398 159.528C352.792 159.494 353.171 159.652 353.426 159.95C357.877 165.115 359.605 172.171 358.05 178.822L354.293 194.93C354.18 195.415 353.79 195.784 353.304 195.867C353.236 195.878 353.168 195.884 353.1 195.884Z" fill="#4D0070"/>
<path fill-rule="evenodd" clip-rule="evenodd" d="M206.315 258.783C200.197 258.223 195.035 253.771 193.606 247.636L181.346 195.125C193.379 176.648 181.515 161.144 181.515 161.144C183.702 158.477 186.589 156.346 190.019 155.086L219.806 144.116C224.653 153.373 247.493 204.105 206.315 258.783Z" fill="#8181FF"/>
<path fill-rule="evenodd" clip-rule="evenodd" d="M182.658 195.355L194.799 247.352C196.048 252.714 200.407 256.706 205.76 257.472C222.698 234.751 230.55 210.199 229.096 184.487C227.999 165.088 221.773 150.789 219.212 145.652L190.438 156.249C187.618 157.285 185.085 159 183.06 161.235C185.325 164.785 192.991 179.015 182.658 195.355ZM206.315 260.02C206.278 260.02 206.241 260.018 206.204 260.015C199.497 259.402 193.955 254.54 192.412 247.919L180.152 195.409C180.074 195.078 180.136 194.729 180.321 194.445C191.709 176.957 181.005 162.506 180.543 161.9C180.195 161.441 180.205 160.8 180.57 160.355C182.962 157.439 186.084 155.215 189.599 153.923L219.386 142.953C219.961 142.743 220.603 142.991 220.89 143.538C223.085 147.73 230.34 163.062 231.544 184.345C233.043 210.875 224.883 236.172 207.291 259.531C207.058 259.841 206.695 260.02 206.315 260.02Z" fill="#4D0070"/>
<path fill-rule="evenodd" clip-rule="evenodd" d="M353.098 194.648L340.732 247.636C339.298 253.771 334.148 258.223 328.024 258.782C286.846 204.105 309.855 153.431 314.701 144.175L344.325 155.086C347.586 156.287 350.357 158.265 352.503 160.761C348.38 167.598 344.594 181.105 353.098 194.648Z" fill="#8181FF"/>
<path fill-rule="evenodd" clip-rule="evenodd" d="M315.296 145.711C309.57 157.136 289.648 205.244 328.58 257.472C333.926 256.708 338.285 252.715 339.54 247.352L351.788 194.866C344.158 182.334 346.276 169.309 350.989 160.921C349.024 158.845 346.592 157.238 343.906 156.248L315.296 145.711ZM328.024 260.02C327.644 260.02 327.282 259.841 327.049 259.532C285.427 204.265 308.558 153.26 313.618 143.597C313.904 143.049 314.547 142.8 315.122 143.012L344.746 153.923C348.098 155.158 351.1 157.242 353.43 159.951C353.779 160.357 353.828 160.945 353.55 161.405C351.924 164.102 344.31 178.341 354.134 193.986C354.31 194.267 354.367 194.608 354.291 194.932L341.926 247.921C340.377 254.543 334.835 259.403 328.135 260.015C328.098 260.018 328.061 260.02 328.024 260.02Z" fill="#4D0070"/>
<path fill-rule="evenodd" clip-rule="evenodd" d="M328.024 258.782C327.593 258.823 327.155 258.841 326.717 258.841H207.622C207.184 258.841 206.746 258.823 206.315 258.782C247.493 204.105 224.653 153.372 219.805 144.116L251.308 132.511C253.29 131.78 255.379 131.409 257.49 131.409H276.849C278.954 131.409 281.048 131.78 283.025 132.511L314.702 144.174C309.855 153.431 286.846 204.105 328.024 258.782Z" fill="#81B9FF"/>
<path fill-rule="evenodd" clip-rule="evenodd" d="M208.718 257.603H325.621C287.471 205.154 306.986 156.946 312.977 144.857L282.605 133.673C280.761 132.991 278.825 132.647 276.848 132.647H257.49C255.515 132.647 253.577 132.992 251.728 133.673L221.529 144.798C224.239 150.298 230.439 164.816 231.543 184.345C233.001 210.147 225.323 234.782 208.718 257.603ZM326.718 260.079H207.621C207.124 260.079 206.646 260.057 206.2 260.014C205.756 259.972 205.371 259.691 205.192 259.28C205.013 258.868 205.07 258.391 205.339 258.033C222.568 235.156 230.561 210.411 229.095 184.487C227.921 163.703 220.859 148.775 218.722 144.694C218.557 144.379 218.535 144.005 218.662 143.672C218.789 143.338 219.052 143.076 219.385 142.953L250.887 131.348C253.006 130.567 255.228 130.172 257.49 130.172H276.849C279.113 130.172 281.333 130.567 283.447 131.349L315.122 143.012C315.455 143.135 315.719 143.397 315.845 143.73C315.973 144.064 315.951 144.437 315.786 144.753C310.848 154.183 288.28 203.964 328.999 258.033C329.269 258.391 329.325 258.868 329.147 259.28C328.968 259.691 328.583 259.972 328.139 260.014C327.692 260.057 327.214 260.079 326.718 260.079Z" fill="#4D0070"/>
<path fill-rule="evenodd" clip-rule="evenodd" d="M267.168 142.827C255.499 142.827 245.16 140.373 241.441 136.722C240.956 136.245 240.946 135.462 241.417 134.972C241.89 134.481 242.666 134.471 243.151 134.948C246.391 138.129 256.268 140.352 267.168 140.352C278.069 140.352 287.946 138.129 291.187 134.948C291.671 134.471 292.448 134.481 292.92 134.972C293.392 135.462 293.382 136.245 292.896 136.722C289.177 140.373 278.839 142.827 267.168 142.827Z" fill="#4D0070"/>
<path fill-rule="evenodd" clip-rule="evenodd" d="M309.376 225.519H224.96C224.283 225.519 223.734 224.964 223.734 224.281C223.734 223.598 224.283 223.044 224.96 223.044H309.376C310.053 223.044 310.602 223.598 310.602 224.281C310.602 224.964 310.053 225.519 309.376 225.519Z" fill="#4D0070"/>
<path fill-rule="evenodd" clip-rule="evenodd" d="M293.536 246.621C293.378 246.621 293.219 246.559 293.099 246.437L284.727 237.854C284.49 237.61 284.493 237.218 284.733 236.978C284.975 236.738 285.362 236.742 285.601 236.985L293.973 245.568C294.211 245.811 294.207 246.203 293.967 246.443C293.847 246.562 293.691 246.621 293.536 246.621Z" fill="#4D0070"/>
<path fill-rule="evenodd" clip-rule="evenodd" d="M294.386 241.937C294.227 241.937 294.069 241.875 293.949 241.753L290.145 237.853C289.908 237.61 289.911 237.218 290.152 236.978C290.393 236.738 290.781 236.742 291.019 236.985L294.823 240.884C295.06 241.127 295.057 241.52 294.816 241.76C294.697 241.878 294.541 241.937 294.386 241.937Z" fill="#4D0070"/>
<path fill-rule="evenodd" clip-rule="evenodd" d="M280.8 179.102C280.8 186.703 274.697 192.864 267.168 192.864C259.641 192.864 253.538 186.703 253.538 179.102C253.538 171.503 259.641 165.342 267.168 165.342C274.697 165.342 280.8 171.503 280.8 179.102Z" fill="#FF627F"/>
<path fill-rule="evenodd" clip-rule="evenodd" d="M280.8 179.102C280.8 186.703 274.697 192.864 267.168 192.864C259.641 192.864 253.538 186.703 253.538 179.102C253.538 171.503 259.641 165.342 267.168 165.342C274.697 165.342 280.8 171.503 280.8 179.102Z" fill="white" fill-opacity="0.3" style="mix-blend-mode:soft-light"/>
<path fill-rule="evenodd" clip-rule="evenodd" d="M267.168 166.579C260.328 166.579 254.763 172.197 254.763 179.102C254.763 186.008 260.328 191.626 267.168 191.626C274.009 191.626 279.574 186.008 279.574 179.102C279.574 172.197 274.009 166.579 267.168 166.579ZM267.168 194.101C258.977 194.101 252.312 187.373 252.312 179.102C252.312 170.832 258.977 164.104 267.168 164.104C275.361 164.104 282.026 170.832 282.026 179.102C282.026 187.373 275.361 194.101 267.168 194.101Z" fill="#4D0070"/>
<path fill-rule="evenodd" clip-rule="evenodd" d="M281.723 164.062C281.566 164.062 281.409 164.002 281.29 163.881C277.979 160.54 273.577 158.699 268.896 158.699C268.557 158.699 268.283 158.422 268.283 158.08C268.283 157.738 268.557 157.461 268.896 157.461C273.904 157.461 278.614 159.431 282.156 163.006C282.396 163.248 282.396 163.639 282.156 163.881C282.037 164.002 281.88 164.062 281.723 164.062Z" fill="#4D0070"/>
<path fill-rule="evenodd" clip-rule="evenodd" d="M255.902 198.868C255.797 198.868 255.692 198.841 255.595 198.784C249.812 195.406 246.22 189.123 246.22 182.386C246.22 182.045 246.494 181.768 246.833 181.768C247.172 181.768 247.446 182.045 247.446 182.386C247.446 188.683 250.804 194.556 256.209 197.714C256.502 197.885 256.603 198.263 256.432 198.559C256.32 198.757 256.114 198.868 255.902 198.868Z" fill="#4D0070"/>
<path fill-rule="evenodd" clip-rule="evenodd" d="M264.973 201.318C263.546 201.318 262.126 201.155 260.751 200.836C260.421 200.759 260.215 200.427 260.291 200.094C260.367 199.761 260.693 199.552 261.027 199.63C262.311 199.928 263.638 200.08 264.973 200.08C265.312 200.08 265.586 200.357 265.586 200.699C265.586 201.041 265.312 201.318 264.973 201.318Z" fill="#4D0070"/>
<path fill-rule="evenodd" clip-rule="evenodd" d="M325.136 258.839V268.599C325.136 272.372 322.109 275.429 318.371 275.429H215.966C212.229 275.429 209.201 272.372 209.201 268.599V258.839H325.136Z" fill="#8181FF"/>
<path fill-rule="evenodd" clip-rule="evenodd" d="M210.427 260.076V268.599C210.427 271.683 212.912 274.191 215.966 274.191H318.371C321.426 274.191 323.91 271.683 323.91 268.599V260.076H210.427ZM318.371 276.667H215.966C211.561 276.667 207.976 273.047 207.976 268.599V258.839C207.976 258.155 208.525 257.601 209.201 257.601H325.136C325.813 257.601 326.362 258.155 326.362 258.839V268.599C326.362 273.047 322.778 276.667 318.371 276.667Z" fill="#4D0070"/>
<path fill-rule="evenodd" clip-rule="evenodd" d="M301.279 275.429C299.261 283.189 284.757 289.199 267.169 289.199C249.579 289.199 235.077 283.189 233.058 275.429H301.279Z" fill="white"/>
<path fill-rule="evenodd" clip-rule="evenodd" d="M234.852 276.666C238.242 283.112 251.793 287.961 267.169 287.961C282.546 287.961 296.096 283.112 299.486 276.666H234.852ZM267.169 290.436C248.932 290.436 234.088 284.257 231.872 275.743C231.776 275.372 231.855 274.977 232.087 274.673C232.319 274.369 232.678 274.191 233.058 274.191H301.279C301.659 274.191 302.018 274.369 302.25 274.673C302.482 274.977 302.561 275.372 302.465 275.743C300.25 284.257 285.406 290.436 267.169 290.436Z" fill="#4D0070"/>
<path fill-rule="evenodd" clip-rule="evenodd" d="M325.535 267.919H325.533L306.367 267.883C306.029 267.882 305.755 267.605 305.755 267.263C305.755 266.922 306.03 266.645 306.368 266.645H306.369L325.536 266.682C325.874 266.682 326.148 266.959 326.148 267.302C326.147 267.643 325.873 267.919 325.535 267.919Z" fill="#4D0070"/>
<path fill-rule="evenodd" clip-rule="evenodd" d="M296.464 267.864H296.462L208.759 267.698C208.421 267.697 208.147 267.42 208.147 267.078C208.148 266.737 208.422 266.46 208.76 266.46H208.762L296.465 266.626C296.803 266.627 297.077 266.904 297.077 267.246C297.076 267.588 296.802 267.864 296.464 267.864Z" fill="#4D0070"/>
<path fill-rule="evenodd" clip-rule="evenodd" d="M195.993 193.483C195.906 193.483 195.817 193.464 195.732 193.423C195.426 193.277 195.295 192.908 195.44 192.599C202.369 177.811 195.535 165.775 195.466 165.655C195.294 165.361 195.391 164.981 195.683 164.808C195.976 164.634 196.351 164.733 196.522 165.028C196.595 165.153 203.751 177.755 196.548 193.129C196.443 193.352 196.223 193.483 195.993 193.483Z" fill="white"/>
<path fill-rule="evenodd" clip-rule="evenodd" d="M206.32 188.14C206.265 188.14 206.209 188.132 206.154 188.116C205.828 188.024 205.638 187.682 205.73 187.353C206.824 183.441 207.148 179.437 206.693 175.453C206.655 175.113 206.895 174.806 207.232 174.768C207.576 174.726 207.872 174.972 207.911 175.312C208.384 179.457 208.047 183.621 206.91 187.689C206.834 187.962 206.588 188.14 206.32 188.14Z" fill="white"/>
<path fill-rule="evenodd" clip-rule="evenodd" d="M305.407 44.7353V95.9333C305.407 102.41 300.204 107.656 293.788 107.656H240.548C234.132 107.656 228.935 102.41 228.935 95.9333V44.7353C228.935 38.2587 234.132 33.0066 240.548 33.0066H240.571C243.972 38.7531 253.823 42.9099 265.441 42.9099C277.066 42.9099 286.917 38.7531 290.317 33.0066H293.788C300.204 33.0066 305.407 38.2587 305.407 44.7353Z" fill="#BEC3CA"/>
<path fill-rule="evenodd" clip-rule="evenodd" d="M305.407 44.7353V95.9333C305.407 102.41 300.204 107.656 293.788 107.656H240.548C234.132 107.656 228.935 102.41 228.935 95.9333V44.7353C228.935 38.2587 234.132 33.0066 240.548 33.0066H240.571C243.972 38.7531 253.823 42.9099 265.441 42.9099C277.066 42.9099 286.917 38.7531 290.317 33.0066H293.788C300.204 33.0066 305.407 38.2587 305.407 44.7353Z" fill="white" fill-opacity="0.3" style="mix-blend-mode:soft-light"/>
<path fill-rule="evenodd" clip-rule="evenodd" d="M239.914 34.2645C234.47 34.6073 230.161 39.1726 230.161 44.7353V95.9332C230.161 101.715 234.82 106.419 240.547 106.419H293.787C299.518 106.419 304.181 101.715 304.181 95.9332V44.7353C304.181 38.9504 299.518 34.2441 293.787 34.2441H290.988C286.976 40.1935 276.85 44.1474 265.441 44.1474C254.049 44.1474 243.936 40.2028 239.914 34.2645ZM293.788 108.894H240.547C233.468 108.894 227.709 103.08 227.709 95.9333V44.7353C227.709 37.5854 233.468 31.769 240.547 31.769C240.979 31.769 241.402 31.998 241.623 32.3717C244.864 37.8478 254.658 41.6724 265.441 41.6724C276.228 41.6724 286.024 37.8478 289.265 32.3717C289.486 31.998 289.886 31.769 290.317 31.769H293.788C300.871 31.769 306.633 37.5854 306.633 44.7353V95.9333C306.633 103.08 300.871 108.894 293.788 108.894Z" fill="#4D0070"/>
<path fill-rule="evenodd" clip-rule="evenodd" d="M290.318 33.0063C286.917 38.7528 277.066 42.9097 265.441 42.9097C253.823 42.9097 243.972 38.7528 240.571 33.0063H290.318Z" fill="#8181FF"/>
<path fill-rule="evenodd" clip-rule="evenodd" d="M243.041 34.2439C247.197 38.6996 255.935 41.6722 265.441 41.6722C274.951 41.6722 283.691 38.6996 287.848 34.2439H243.041ZM265.441 44.1472C253.654 44.1472 243.237 39.9254 239.519 33.6406C239.293 33.2582 239.287 32.783 239.505 32.3956C239.723 32.0083 240.13 31.7688 240.571 31.7688H290.318C290.759 31.7688 291.166 32.0083 291.383 32.3956C291.602 32.783 291.596 33.2582 291.37 33.6406C287.651 39.9254 277.232 44.1472 265.441 44.1472Z" fill="#4D0070"/>
<path fill-rule="evenodd" clip-rule="evenodd" d="M278.437 33.0082H255.905V28.1267C255.905 26.6584 257.084 25.4673 258.539 25.4673H275.802C277.257 25.4673 278.437 26.6584 278.437 28.1267V33.0082Z" fill="#BEC3CA"/>
<path fill-rule="evenodd" clip-rule="evenodd" d="M257.131 31.7707H277.211V28.1268C277.211 27.3434 276.579 26.7048 275.803 26.7048H258.54C257.763 26.7048 257.131 27.3434 257.131 28.1268V31.7707ZM278.437 34.2457H255.905C255.228 34.2457 254.679 33.6913 254.679 33.0082V28.1267C254.679 25.9784 256.411 24.2297 258.539 24.2297H275.803C277.931 24.2297 279.663 25.9784 279.663 28.1267V33.0082C279.663 33.6913 279.114 34.2457 278.437 34.2457Z" fill="#4D0070"/>
<path fill-rule="evenodd" clip-rule="evenodd" d="M305.407 87.415H287.478C287.139 87.415 286.865 87.1384 286.865 86.7963C286.865 86.4541 287.139 86.1775 287.478 86.1775H305.407C305.746 86.1775 306.02 86.4541 306.02 86.7963C306.02 87.1384 305.746 87.415 305.407 87.415Z" fill="#4D0070"/>
<path fill-rule="evenodd" clip-rule="evenodd" d="M246.221 87.415H228.763C228.424 87.415 228.15 87.1384 228.15 86.7963C228.15 86.4541 228.424 86.1775 228.763 86.1775H246.221C246.56 86.1775 246.834 86.4541 246.834 86.7963C246.834 87.1384 246.56 87.415 246.221 87.415Z" fill="#4D0070"/>
<path fill-rule="evenodd" clip-rule="evenodd" d="M256.168 131.411H278.171V117.46H256.168V131.411Z" fill="#BEC3CA"/>
<path fill-rule="evenodd" clip-rule="evenodd" d="M257.393 130.174H276.944V118.697H257.393V130.174ZM278.171 132.649H256.167C255.491 132.649 254.941 132.095 254.941 131.411V117.46C254.941 116.777 255.491 116.222 256.167 116.222H278.171C278.847 116.222 279.397 116.777 279.397 117.46V131.411C279.397 132.095 278.847 132.649 278.171 132.649Z" fill="#4D0070"/>
<path fill-rule="evenodd" clip-rule="evenodd" d="M284.821 117.46H249.517C247.097 117.46 245.135 115.48 245.135 113.037V107.658H289.203V113.037C289.203 115.48 287.241 117.46 284.821 117.46Z" fill="#BEC3CA"/>
<path fill-rule="evenodd" clip-rule="evenodd" d="M246.36 108.895V113.036C246.36 114.793 247.776 116.223 249.516 116.223H284.821C286.562 116.223 287.977 114.793 287.977 113.036V108.895H246.36ZM284.821 118.698H249.516C246.424 118.698 243.909 116.158 243.909 113.036V107.658C243.909 106.975 244.458 106.42 245.135 106.42H289.203C289.88 106.42 290.429 106.975 290.429 107.658V113.036C290.429 116.158 287.913 118.698 284.821 118.698Z" fill="#4D0070"/>
<path fill-rule="evenodd" clip-rule="evenodd" d="M228.934 78.9413H222.904C221.578 78.9413 220.504 77.8566 220.504 76.5188V64.1466C220.504 62.8088 221.578 61.7241 222.904 61.7241H228.934V78.9413Z" fill="#FF9C94"/>
<path fill-rule="evenodd" clip-rule="evenodd" d="M222.903 62.9616C222.256 62.9616 221.73 63.4932 221.73 64.1466V76.5188C221.73 77.1722 222.256 77.7038 222.903 77.7038H227.708V62.9616H222.903ZM228.933 80.1788H222.903C220.904 80.1788 219.278 78.5372 219.278 76.5188V64.1466C219.278 62.1282 220.904 60.4866 222.903 60.4866H228.933C229.61 60.4866 230.159 61.041 230.159 61.7241V78.9413C230.159 79.625 229.61 80.1788 228.933 80.1788Z" fill="#4D0070"/>
<path fill-rule="evenodd" clip-rule="evenodd" d="M305.404 78.9413H311.434C312.759 78.9413 313.833 77.8566 313.833 76.5188V64.1466C313.833 62.8088 312.759 61.7241 311.434 61.7241H305.404V78.9413Z" fill="#FF9C94"/>
<path fill-rule="evenodd" clip-rule="evenodd" d="M306.629 77.7037H311.434C312.081 77.7037 312.607 77.1722 312.607 76.5188V64.1466C312.607 63.4932 312.081 62.9616 311.434 62.9616H306.629V77.7037ZM311.434 80.1788H305.404C304.727 80.1788 304.178 79.6244 304.178 78.9413V61.7241C304.178 61.0404 304.727 60.4866 305.404 60.4866H311.434C313.433 60.4866 315.059 62.1282 315.059 64.1466V76.5188C315.059 78.5372 313.433 80.1788 311.434 80.1788Z" fill="#4D0070"/>
<path fill-rule="evenodd" clip-rule="evenodd" d="M249.681 68.1293C252.638 68.1293 252.644 63.4885 249.681 63.4885C246.723 63.4885 246.718 68.1293 249.681 68.1293Z" fill="#4D0070"/>
<path fill-rule="evenodd" clip-rule="evenodd" d="M284.661 68.1293C287.619 68.1293 287.624 63.4885 284.661 63.4885C281.703 63.4885 281.698 68.1293 284.661 68.1293Z" fill="#4D0070"/>
<path fill-rule="evenodd" clip-rule="evenodd" d="M278.039 90.3584H256.302C254.892 90.3584 253.577 89.593 252.87 88.3604L250.923 84.9652C250.583 84.3737 250.783 83.6163 251.369 83.2748C251.956 82.9326 252.705 83.1343 253.044 83.7252L254.991 87.1204C255.262 87.5907 255.764 87.8834 256.302 87.8834H278.039C278.578 87.8834 279.08 87.5907 279.351 87.1204L281.297 83.7252C281.635 83.1343 282.386 82.9326 282.972 83.2748C283.558 83.6163 283.758 84.3737 283.418 84.9652L281.472 88.3604C280.765 89.593 279.45 90.3584 278.039 90.3584Z" fill="#4D0070"/>
<path fill-rule="evenodd" clip-rule="evenodd" d="M270.781 76.3147H263.561C262.884 76.3147 262.335 75.7603 262.335 75.0771C262.335 74.394 262.884 73.8396 263.561 73.8396H270.781C271.458 73.8396 272.007 74.394 272.007 75.0771C272.007 75.7603 271.458 76.3147 270.781 76.3147Z" fill="#4D0070"/>
<path fill-rule="evenodd" clip-rule="evenodd" d="M231.481 512.17V525.297C231.433 525.291 231.404 525.291 231.404 525.291C223.322 527.533 220.493 526.704 216.788 525.434V512.17H231.481Z" fill="white"/>
<path fill-rule="evenodd" clip-rule="evenodd" d="M218.014 524.544C220.873 525.493 223.584 526.071 230.255 524.32V513.407H218.014V524.544ZM223.127 527.928C220.556 527.928 218.627 527.371 216.394 526.605C215.897 526.435 215.562 525.963 215.562 525.433V512.17C215.562 511.486 216.112 510.932 216.788 510.932H231.481C232.158 510.932 232.707 511.486 232.707 512.17V525.297C232.707 525.652 232.555 525.99 232.291 526.225C232.085 526.409 231.825 526.516 231.555 526.532C227.914 527.532 225.293 527.928 223.127 527.928Z" fill="#4D0070"/>
<path fill-rule="evenodd" clip-rule="evenodd" d="M216.79 512.168H231.483V275.428H216.79V512.168Z" fill="#BEC3CA"/>
<path fill-rule="evenodd" clip-rule="evenodd" d="M216.79 512.168H231.483V275.428H216.79V512.168Z" fill="white" fill-opacity="0.3" style="mix-blend-mode:soft-light"/>
<path fill-rule="evenodd" clip-rule="evenodd" d="M218.016 510.93H230.257V276.666H218.016V510.93ZM231.483 513.406H216.79C216.114 513.406 215.564 512.851 215.564 512.168V275.428C215.564 274.745 216.114 274.19 216.79 274.19H231.483C232.159 274.19 232.709 274.745 232.709 275.428V512.168C232.709 512.851 232.159 513.406 231.483 513.406Z" fill="#4D0070"/>
<path fill-rule="evenodd" clip-rule="evenodd" d="M216.79 283.906H231.483V275.429H216.79V283.906Z" fill="white"/>
<path fill-rule="evenodd" clip-rule="evenodd" d="M218.016 282.669H230.257V276.666H218.016V282.669ZM231.483 285.144H216.79C216.114 285.144 215.564 284.59 215.564 283.906V275.429C215.564 274.746 216.114 274.191 216.79 274.191H231.483C232.159 274.191 232.709 274.746 232.709 275.429V283.906C232.709 284.59 232.159 285.144 231.483 285.144Z" fill="#4D0070"/>
<path fill-rule="evenodd" clip-rule="evenodd" d="M223.823 398.765C221.381 398.765 219.99 397.598 219.905 397.524C219.648 397.302 219.618 396.911 219.838 396.652C220.059 396.391 220.444 396.363 220.7 396.583C220.815 396.678 223.321 398.711 227.694 396.501C227.997 396.349 228.365 396.472 228.517 396.777C228.668 397.083 228.545 397.455 228.243 397.608C226.528 398.473 225.044 398.765 223.823 398.765Z" fill="#4D0070"/>
<path fill-rule="evenodd" clip-rule="evenodd" d="M216.791 454.069H224.136V429.414H216.791V454.069Z" fill="#81B9FF"/>
<path fill-rule="evenodd" clip-rule="evenodd" d="M218.016 452.832H222.91V430.651H218.016V452.832ZM224.137 455.307H216.79C216.114 455.307 215.564 454.753 215.564 454.069V429.414C215.564 428.731 216.114 428.177 216.79 428.177H224.137C224.814 428.177 225.363 428.731 225.363 429.414V454.069C225.363 454.753 224.814 455.307 224.137 455.307Z" fill="#4D0070"/>
<path fill-rule="evenodd" clip-rule="evenodd" d="M317.549 512.17V525.445C313.863 526.709 311.027 527.527 302.975 525.291C302.975 525.291 302.934 525.291 302.857 525.297V512.17H317.549Z" fill="white"/>
<path fill-rule="evenodd" clip-rule="evenodd" d="M304.083 524.309C310.77 526.073 313.476 525.501 316.323 524.556V513.407H304.083V524.309ZM311.252 527.931C309.088 527.931 306.467 527.534 302.818 526.531C302.53 526.516 302.248 526.403 302.035 526.205C301.785 525.97 301.631 525.641 301.631 525.297V512.17C301.631 511.486 302.18 510.932 302.857 510.932H317.549C318.225 510.932 318.774 511.486 318.774 512.17V525.445C318.774 525.975 318.44 526.446 317.943 526.617C315.725 527.378 313.807 527.931 311.252 527.931Z" fill="#4D0070"/>
<path fill-rule="evenodd" clip-rule="evenodd" d="M302.856 512.168H317.549V275.428H302.856V512.168Z" fill="#BEC3CA"/>
<path fill-rule="evenodd" clip-rule="evenodd" d="M302.856 512.168H317.549V275.428H302.856V512.168Z" fill="white" fill-opacity="0.3" style="mix-blend-mode:soft-light"/>
<path fill-rule="evenodd" clip-rule="evenodd" d="M304.082 510.93H316.323V276.666H304.082V510.93ZM317.548 513.406H302.856C302.179 513.406 301.63 512.851 301.63 512.168V275.428C301.63 274.745 302.179 274.19 302.856 274.19H317.548C318.225 274.19 318.774 274.745 318.774 275.428V512.168C318.774 512.851 318.225 513.406 317.548 513.406Z" fill="#4D0070"/>
<path fill-rule="evenodd" clip-rule="evenodd" d="M302.855 283.906H317.547V275.429H302.855V283.906Z" fill="white"/>
<path fill-rule="evenodd" clip-rule="evenodd" d="M304.081 282.669H316.321V276.666H304.081V282.669ZM317.547 285.144H302.855C302.178 285.144 301.629 284.59 301.629 283.906V275.429C301.629 274.746 302.178 274.191 302.855 274.191H317.547C318.224 274.191 318.772 274.746 318.772 275.429V283.906C318.772 284.59 318.224 285.144 317.547 285.144Z" fill="#4D0070"/>
<path fill-rule="evenodd" clip-rule="evenodd" d="M310.514 398.765C309.294 398.765 307.81 398.473 306.095 397.608C305.792 397.455 305.669 397.083 305.821 396.777C305.972 396.472 306.34 396.349 306.643 396.501C311.068 398.735 313.609 396.606 313.635 396.584C313.892 396.363 314.279 396.392 314.499 396.652C314.719 396.911 314.689 397.302 314.432 397.524C314.347 397.598 312.956 398.765 310.514 398.765Z" fill="#4D0070"/>
<path fill-rule="evenodd" clip-rule="evenodd" d="M310.361 454.069H317.706V429.414H310.361V454.069Z" fill="#81B9FF"/>
<path fill-rule="evenodd" clip-rule="evenodd" d="M311.586 452.832H316.48V430.651H311.586V452.832ZM317.707 455.307H310.361C309.684 455.307 309.135 454.753 309.135 454.069V429.414C309.135 428.731 309.684 428.177 310.361 428.177H317.707C318.383 428.177 318.932 428.731 318.932 429.414V454.069C318.932 454.753 318.383 455.307 317.707 455.307Z" fill="#4D0070"/>
<path fill-rule="evenodd" clip-rule="evenodd" d="M413.063 178.139C412.042 182.826 410.943 188.432 409.784 195.124C403.346 232.351 403.624 272.416 389.244 273.543C376.531 274.546 370.948 239.424 366.092 214.734C362.624 197.11 357.916 189.34 355.506 186.327C354.165 184.657 353.379 182.606 353.249 180.459C352.912 174.662 354.85 169.426 355.665 167.517C355.842 167.094 356.351 166.915 356.746 167.147C359.523 168.746 369.477 175.646 375.615 195.124C382.438 216.767 388.31 255.825 388.31 255.825C388.31 255.825 393.817 211.62 401.012 175.36L413.063 178.139Z" fill="#BEC3CA"/>
<path fill-rule="evenodd" clip-rule="evenodd" d="M413.063 178.139C412.042 182.826 410.943 188.432 409.784 195.124C403.346 232.351 403.624 272.416 389.244 273.543C376.531 274.546 370.948 239.424 366.092 214.734C362.624 197.11 357.916 189.34 355.506 186.327C354.165 184.657 353.379 182.606 353.249 180.459C352.912 174.662 354.85 169.426 355.665 167.517C355.842 167.094 356.351 166.915 356.746 167.147C359.523 168.746 369.477 175.646 375.615 195.124C382.438 216.767 388.31 255.825 388.31 255.825C388.31 255.825 393.817 211.62 401.012 175.36L413.063 178.139Z" fill="white" fill-opacity="0.3" style="mix-blend-mode:soft-light"/>
<path fill-rule="evenodd" clip-rule="evenodd" d="M356.59 168.492C355.715 170.665 354.177 175.291 354.472 180.386C354.588 182.288 355.275 184.074 356.458 185.548C359.004 188.73 363.798 196.72 367.294 214.493C367.699 216.553 368.109 218.685 368.529 220.864C372.716 242.627 378.429 272.326 388.723 272.326C388.864 272.326 389.005 272.321 389.149 272.309C398.695 271.561 401.359 249.786 404.444 224.572C405.629 214.885 406.854 204.87 408.577 194.911C409.578 189.128 410.596 183.808 411.607 179.072L401.968 176.85C394.983 212.421 389.581 255.542 389.526 255.979C389.45 256.592 388.937 257.054 388.326 257.062H388.31C387.705 257.062 387.189 256.616 387.098 256.01C387.04 255.621 381.162 216.8 374.447 195.499C368.758 177.446 359.839 170.503 356.59 168.492ZM388.698 274.802C376.407 274.802 370.948 246.425 366.122 221.336C365.704 219.161 365.294 217.031 364.889 214.975C361.495 197.723 356.956 190.108 354.552 187.105C353.046 185.229 352.172 182.956 352.026 180.535C351.674 174.479 353.667 169.071 354.539 167.028C354.757 166.505 355.197 166.094 355.74 165.911C356.281 165.728 356.873 165.79 357.364 166.078C360.332 167.787 370.535 174.921 376.783 194.748C381.644 210.166 386.058 234.607 388.185 247.329C390.143 232.748 394.544 201.655 399.81 175.117C399.874 174.789 400.068 174.502 400.346 174.32C400.624 174.139 400.962 174.079 401.285 174.153L413.336 176.932C413.993 177.084 414.405 177.742 414.26 178.405C413.172 183.4 412.072 189.096 410.992 195.337C409.28 205.235 408.058 215.219 406.877 224.875C403.527 252.25 400.882 273.872 389.339 274.776C389.124 274.794 388.909 274.802 388.698 274.802Z" fill="#4D0070"/>
<path fill-rule="evenodd" clip-rule="evenodd" d="M427.643 145.922C427.643 145.922 424.288 155.667 420.749 154.438C420.749 154.438 417.671 157.027 413.063 178.139L401.012 175.359C405.738 151.528 411.196 131.126 416.301 128.961C416.301 128.961 418.841 126.605 415.296 138.288C415.296 138.288 418.374 135.461 420.147 139.422C420.147 139.422 424.353 137.537 424.536 141.592C424.536 141.592 430.071 139.892 427.643 145.922Z" fill="white"/>
<path fill-rule="evenodd" clip-rule="evenodd" d="M402.448 174.422L412.135 176.656C416.459 157.249 419.408 153.955 419.964 153.488C420.294 153.21 420.744 153.129 421.148 153.267C422.565 153.769 425.086 149.572 426.485 145.515C426.492 145.496 426.499 145.476 426.507 145.456C427.183 143.78 427.075 143.011 426.904 142.822C426.621 142.505 425.539 142.583 424.888 142.777C424.527 142.885 424.133 142.82 423.827 142.599C423.52 142.379 423.328 142.028 423.311 141.648C423.29 141.189 423.192 140.595 422.841 140.375C422.34 140.057 421.23 140.296 420.64 140.555C420.023 140.825 419.305 140.548 419.029 139.931C418.781 139.377 418.368 138.69 417.81 138.57C417.165 138.435 416.351 138.999 416.115 139.209C415.704 139.577 415.097 139.625 414.636 139.326C414.174 139.026 413.963 138.455 414.124 137.926C415.319 133.988 415.751 131.85 415.894 130.713C413.392 133.076 408.882 142.303 402.448 174.422ZM413.063 179.377C412.972 179.377 412.881 179.366 412.79 179.346L400.738 176.566C400.091 176.417 399.679 175.774 399.809 175.117C407.535 136.165 412.54 129.368 415.663 127.893C416.176 127.523 416.904 127.358 417.546 127.767C418.46 128.348 419.055 129.426 417.213 136.092C417.558 136.056 417.924 136.066 418.3 136.145C419.272 136.348 420.087 136.947 420.732 137.929C421.66 137.7 423.012 137.571 424.128 138.268C424.631 138.582 425.213 139.148 425.53 140.157C426.524 140.073 427.845 140.191 428.714 141.152C430.201 142.797 429.157 145.447 428.79 146.359C428.188 148.099 425.305 155.787 421.383 155.787C421.341 155.787 421.3 155.786 421.257 155.785C420.378 157.142 417.802 162.181 414.26 178.405C414.19 178.728 413.995 179.008 413.719 179.184C413.52 179.311 413.293 179.377 413.063 179.377Z" fill="#4D0070"/>
<path fill-rule="evenodd" clip-rule="evenodd" d="M420.777 155.685C420.399 155.685 420.023 155.512 419.777 155.189C419.619 154.983 418.288 153.079 419.896 149.888C421.455 146.795 423.359 141.241 423.378 141.185C423.599 140.539 424.297 140.197 424.937 140.419C425.577 140.642 425.917 141.347 425.696 141.993C425.616 142.227 423.717 147.766 422.082 151.01C421.183 152.793 421.725 153.684 421.749 153.72C422.161 154.262 422.047 155.02 421.51 155.436C421.292 155.605 421.034 155.685 420.777 155.685Z" fill="#4D0070"/>
<path fill-rule="evenodd" clip-rule="evenodd" d="M418.064 154.956C417.152 154.956 416.544 154.607 416.188 154.304C415.244 153.5 414.414 151.706 415.82 147.724C417.453 143.1 418.988 139.022 419.003 138.982C419.245 138.342 419.953 138.023 420.584 138.265C421.218 138.508 421.535 139.223 421.295 139.861C421.279 139.902 419.753 143.956 418.129 148.555C417.207 151.168 417.569 152.242 417.769 152.412C417.934 152.553 418.57 152.542 419.646 151.932C420.238 151.598 420.983 151.81 421.315 152.406C421.647 153.002 421.436 153.756 420.846 154.091C419.709 154.735 418.79 154.956 418.064 154.956Z" fill="#4D0070"/>
<path fill-rule="evenodd" clip-rule="evenodd" d="M414.092 153.617C413.716 153.617 413.404 153.535 413.195 153.458C411.72 152.915 410.784 151.014 411.063 149.131C411.664 145.075 414.036 138.175 414.136 137.883C414.359 137.238 415.055 136.895 415.697 137.122C416.336 137.346 416.674 138.052 416.452 138.698C416.428 138.767 414.055 145.67 413.488 149.498C413.363 150.341 413.772 151.035 414.036 151.133C414.16 151.18 414.58 150.987 415.109 150.118C415.464 149.535 416.218 149.354 416.796 149.711C417.373 150.07 417.552 150.832 417.198 151.414C416.106 153.207 414.935 153.617 414.092 153.617Z" fill="#4D0070"/>
<path fill-rule="evenodd" clip-rule="evenodd" d="M407.023 150.045C407.023 150.045 413.512 143.439 415.731 145.385C417.951 147.33 411.377 154.691 411.377 154.691" fill="white"/>
<path fill-rule="evenodd" clip-rule="evenodd" d="M411.377 155.928C411.084 155.928 410.791 155.823 410.557 155.61C410.054 155.152 410.014 154.37 410.467 153.862C412.389 151.708 415.054 147.99 414.962 146.468C414.957 146.394 414.943 146.333 414.927 146.319C414.316 145.787 410.953 147.801 407.893 150.916C407.417 151.402 406.64 151.404 406.16 150.924C405.679 150.443 405.675 149.659 406.153 149.174C407.863 147.432 413.669 141.938 416.535 144.451C417.06 144.911 417.363 145.556 417.409 146.317C417.596 149.41 413.176 154.525 412.288 155.519C412.046 155.79 411.712 155.928 411.377 155.928Z" fill="#4D0070"/>
<path fill-rule="evenodd" clip-rule="evenodd" d="M401.015 175.358C401.015 175.358 409.251 176.605 413.066 178.136L401.015 175.358Z" fill="white"/>
<path fill-rule="evenodd" clip-rule="evenodd" d="M413.065 179.374C412.915 179.374 412.761 179.346 412.613 179.286C408.972 177.824 400.914 176.595 400.833 176.582C400.163 176.481 399.702 175.851 399.802 175.175C399.902 174.499 400.532 174.026 401.196 174.135C401.538 174.186 409.618 175.419 413.519 176.986C414.149 177.239 414.456 177.959 414.205 178.593C414.014 179.079 413.553 179.374 413.065 179.374Z" fill="#4D0070"/>
<path fill-rule="evenodd" clip-rule="evenodd" d="M388.884 268.996C387.877 268.996 386.664 268.652 385.276 267.634C385.003 267.434 384.941 267.047 385.141 266.77C385.339 266.493 385.722 266.432 385.997 266.634C389.273 269.034 391.129 266.838 391.207 266.743C391.421 266.482 391.807 266.441 392.068 266.656C392.329 266.87 392.371 267.256 392.161 267.521C392.143 267.543 390.953 268.996 388.884 268.996Z" fill="#4D0070"/>
<path fill-rule="evenodd" clip-rule="evenodd" d="M180.05 186.566C176.842 192.279 169.966 206.778 164.064 234.372C160.117 252.818 155.616 267.591 151.392 279.059C145.797 294.256 136.664 307.328 125.546 318.755C120.401 316.34 117.973 309.612 117.878 309.356V309.351C129.481 296.993 141.059 277.867 147.169 246.879C161.979 171.704 176.393 167.953 177.716 167.696C177.793 167.684 177.869 167.714 177.917 167.774C178.295 168.239 179.595 169.378 180.777 172.616C182.318 176.845 182.253 182.641 180.05 186.566Z" fill="#BEC3CA"/>
<path fill-rule="evenodd" clip-rule="evenodd" d="M180.05 186.566C176.842 192.279 169.966 206.778 164.064 234.372C160.117 252.818 155.616 267.591 151.392 279.059C145.797 294.256 136.664 307.328 125.546 318.755C120.401 316.34 117.973 309.612 117.878 309.356V309.351C129.481 296.993 141.059 277.867 147.169 246.879C161.979 171.704 176.393 167.953 177.716 167.696C177.793 167.684 177.869 167.714 177.917 167.774C178.295 168.239 179.595 169.378 180.777 172.616C182.318 176.845 182.253 182.641 180.05 186.566Z" fill="white" fill-opacity="0.3" style="mix-blend-mode:soft-light"/>
<path fill-rule="evenodd" clip-rule="evenodd" d="M119.306 309.623C120.017 311.288 121.986 315.261 125.307 317.231C137.001 305.064 145.162 292.428 150.243 278.628C155.149 265.305 159.396 250.327 162.865 234.111C168.711 206.78 175.473 192.208 178.983 185.955C180.893 182.553 181.158 177.244 179.626 173.043C178.812 170.815 177.956 169.688 177.431 169.082C174.77 170.248 161.727 179.323 148.371 247.12C143.212 273.29 133.434 294.314 119.306 309.623ZM125.546 319.992C125.371 319.992 125.195 319.955 125.03 319.877C119.746 317.397 117.191 311.044 116.733 309.796C116.682 309.658 116.652 309.503 116.652 309.356C116.652 309.04 116.772 308.729 116.989 308.499C131.084 293.486 140.833 272.673 145.966 246.637C152.188 215.053 159.072 192.161 166.425 178.599C171.878 168.539 175.977 166.773 177.485 166.481C178.037 166.392 178.554 166.595 178.875 167.002C178.904 167.038 178.958 167.096 179.023 167.167C179.606 167.814 180.82 169.158 181.927 172.188C183.689 177.023 183.356 183.186 181.116 187.176C177.674 193.306 171.039 207.623 165.262 234.633C161.768 250.965 157.488 266.057 152.542 279.491C147.247 293.872 138.702 307 126.421 319.622C126.185 319.864 125.868 319.992 125.546 319.992Z" fill="#4D0070"/>
<path fill-rule="evenodd" clip-rule="evenodd" d="M125.546 318.755C119.237 325.25 112.283 331.214 104.97 336.731C99.1449 341.125 96.6809 342.444 92.5817 344.334C91.6837 344.752 90.6491 344.716 89.9822 343.97C89.6273 343.577 89.4625 343.082 89.4625 342.598C89.4625 341.937 89.7695 341.287 90.3604 340.888L89.9467 341.168C89.072 341.758 87.897 341.585 87.229 340.762C86.9164 340.38 86.7631 339.915 86.7631 339.456C86.7631 338.865 87.0169 338.275 87.5066 337.864L87.9203 337.523C85.4803 337.756 84.3402 334.506 86.266 332.985C87.4061 332.078 89.2259 330.755 91.772 329.252C98.2702 325.411 108.077 319.804 117.878 309.356C117.973 309.613 120.4 316.34 125.546 318.755Z" fill="white"/>
<path fill-rule="evenodd" clip-rule="evenodd" d="M91.0396 341.918C90.8165 342.07 90.6884 342.317 90.6884 342.599C90.6884 342.717 90.7148 342.944 90.8889 343.138C91.2523 343.544 91.883 343.296 92.0687 343.21C96.1196 341.342 98.4934 340.072 104.236 335.739C111.434 330.309 117.921 324.696 123.543 319.037C120.45 316.982 118.488 313.662 117.481 311.552C108.347 320.906 99.2443 326.277 93.1267 329.886L92.3918 330.32C89.8524 331.819 88.0712 333.125 87.0243 333.957C86.4488 334.411 86.45 335.09 86.6253 335.534C86.7246 335.786 87.0397 336.362 87.8052 336.291C88.3452 336.239 88.8509 336.55 89.055 337.054C89.2597 337.559 89.1132 338.139 88.6952 338.483L88.2815 338.823C88.0988 338.976 87.9885 339.21 87.9885 339.456C87.9885 339.644 88.0547 339.828 88.1736 339.973C88.4451 340.306 88.9115 340.376 89.2652 340.139L89.671 339.865L89.6777 339.859C90.2391 339.479 91.0016 339.631 91.3786 340.198C91.7555 340.766 91.6054 341.534 91.0439 341.915L91.0396 341.918ZM91.4459 345.838C90.5333 345.838 89.6825 345.482 89.072 344.8C88.5578 344.229 88.2636 343.489 88.2385 342.707C87.495 342.575 86.7962 342.181 86.2808 341.547C85.8027 340.963 85.5367 340.219 85.5367 339.456C85.5367 339.027 85.6188 338.609 85.7745 338.221C85.1499 337.819 84.6479 337.213 84.347 336.45C83.7138 334.844 84.1815 333.061 85.5103 332.01C86.6154 331.132 88.4941 329.753 91.1535 328.184L91.8903 327.749C98.174 324.041 107.671 318.438 116.988 308.506C117.279 308.195 117.707 308.056 118.122 308.144C118.537 308.229 118.879 308.524 119.026 308.924C119.276 309.603 121.557 315.518 126.063 317.633C126.423 317.802 126.681 318.138 126.752 318.533C126.823 318.929 126.7 319.335 126.421 319.622C120.459 325.759 113.489 331.85 105.704 337.722C99.7971 342.178 97.2099 343.561 93.091 345.46C92.5455 345.714 91.9847 345.838 91.4459 345.838Z" fill="#4D0070"/>
<path fill-rule="evenodd" clip-rule="evenodd" d="M99.1446 342.081C98.8399 342.081 98.5353 341.967 98.2975 341.738C97.8078 341.266 97.7906 340.482 98.2583 339.988C99.7826 338.377 99.7385 337.466 99.6668 337.353C99.6441 337.318 99.4001 337.236 98.9576 337.392C95.7097 338.544 91.9181 341.317 91.8795 341.345C91.334 341.747 90.566 341.625 90.1676 341.072C89.7692 340.52 89.8893 339.746 90.4373 339.343C90.6034 339.221 94.5611 336.327 98.1449 335.057C99.6171 334.536 101.023 334.911 101.726 336.011C102.173 336.71 102.902 338.664 100.031 341.698C99.7906 341.953 99.4676 342.081 99.1446 342.081Z" fill="#4D0070"/>
<path fill-rule="evenodd" clip-rule="evenodd" d="M87.9185 338.761C87.5219 338.761 87.1327 338.567 86.8968 338.209C86.5216 337.64 86.6749 336.871 87.2388 336.493L92.825 332.744C93.3901 332.365 94.1501 332.521 94.524 333.089C94.8998 333.658 94.7465 334.426 94.1826 334.804L88.5958 338.554C88.3874 338.694 88.1514 338.761 87.9185 338.761Z" fill="#4D0070"/>
<path fill-rule="evenodd" clip-rule="evenodd" d="M98.7376 336.886C98.5752 336.886 98.4109 336.853 98.2522 336.784C97.6307 336.513 97.3444 335.786 97.6129 335.158C97.8703 334.556 97.9169 334.218 97.9187 334.058C97.2917 334.011 96.8149 333.481 96.8106 332.832C96.8063 332.149 97.3757 331.591 98.053 331.587C98.6445 331.559 99.4713 331.848 99.9721 332.611C100.535 333.469 100.498 334.656 99.8636 336.139C99.6638 336.607 99.212 336.886 98.7376 336.886Z" fill="#4D0070"/>
<path fill-rule="evenodd" clip-rule="evenodd" d="M96.2968 327.021C96.2968 327.021 93.5453 331.873 94.2729 334.517C95.001 337.162 98.0074 334.545 101.972 328.542" fill="white"/>
<path fill-rule="evenodd" clip-rule="evenodd" d="M95.3294 336.787C95.1958 336.787 95.0701 336.776 94.9506 336.756C94.4296 336.672 93.4943 336.313 93.0916 334.848C92.2506 331.794 94.9248 326.949 95.2325 326.406C95.569 325.814 96.3168 325.607 96.9046 325.948C97.4924 326.287 97.6965 327.042 97.3606 327.636C96.3959 329.341 95.0247 332.628 95.4538 334.186C95.4593 334.208 95.4654 334.228 95.4716 334.246C95.9791 334.011 97.6113 332.914 100.952 327.855C101.327 327.286 102.088 327.132 102.652 327.512C103.215 327.891 103.367 328.66 102.992 329.228C98.7532 335.646 96.6478 336.787 95.3294 336.787Z" fill="#4D0070"/>
<path fill-rule="evenodd" clip-rule="evenodd" d="M151.02 266.458C150.886 266.458 150.752 266.415 150.638 266.323C150.373 266.11 150.331 265.721 150.542 265.454C153.054 262.279 153.088 256.208 153.088 256.147C153.088 255.805 153.363 255.529 153.701 255.529C154.04 255.529 154.314 255.806 154.314 256.147C154.314 256.414 154.282 262.71 151.499 266.226C151.379 266.379 151.2 266.458 151.02 266.458Z" fill="#4D0070"/>
<path fill-rule="evenodd" clip-rule="evenodd" d="M270.805 125.053H263.538C263.199 125.053 262.925 124.777 262.925 124.435C262.925 124.093 263.199 123.816 263.538 123.816H270.805C271.144 123.816 271.418 124.093 271.418 124.435C271.418 124.777 271.144 125.053 270.805 125.053Z" fill="#4D0070"/>
<path fill-rule="evenodd" clip-rule="evenodd" d="M235.072 560.742C235.002 562.437 234.615 564.112 233.842 565.631C233.294 566.723 232.583 567.703 231.804 568.235C229.807 569.597 227.544 571.009 221.668 572.585C212.769 574.962 206.141 574.664 206.141 574.664C198.704 574.721 195.661 573.819 193.664 573.301C192.307 572.947 191.205 571.932 190.79 570.584C190.312 569.051 190.403 567.447 190.403 567.447C190.67 565.134 191.359 562.892 192.511 560.869C197.094 552.851 205.698 552.404 205.698 552.404C205.698 552.404 202.275 538.176 212.755 537.07C212.79 537.062 212.825 537.062 212.853 537.055C212.881 537.055 212.917 537.048 212.952 537.048C213.472 536.999 214.02 536.984 214.603 537.006C214.786 537.013 214.969 537.02 215.159 537.034C215.503 537.055 215.841 537.077 216.171 537.098C216.839 537.14 217.486 537.183 218.111 537.219C218.231 537.225 218.35 537.233 218.462 537.24C218.66 537.254 218.842 537.261 219.032 537.276C219.032 537.276 219.355 537.297 219.805 537.36H219.819C219.904 537.375 220.002 537.389 220.094 537.403C220.888 537.545 221.555 537.991 221.977 538.616C221.977 538.616 224.24 539.369 229.491 538.751C229.758 538.723 230.039 538.687 230.321 538.652C232.794 538.34 233.87 537.8 234.187 537.602C234.208 537.595 234.229 537.58 234.242 537.574C234.264 537.559 234.278 537.552 234.285 537.545C235.508 547.756 235.248 557.137 235.072 560.742Z" fill="white"/>
<path fill-rule="evenodd" clip-rule="evenodd" d="M206.163 573.426L206.195 573.428C206.261 573.431 212.765 573.683 221.354 571.388C226.898 569.903 229.056 568.616 231.118 567.21C231.657 566.842 232.251 566.062 232.749 565.071C233.412 563.767 233.781 562.296 233.848 560.69V560.68C234.011 557.35 234.26 548.855 233.251 539.322C232.571 539.527 231.664 539.73 230.473 539.88L230.387 539.891C230.127 539.923 229.867 539.955 229.62 539.982C224.271 540.611 221.852 539.878 221.594 539.792L221.199 539.66L220.965 539.314C220.718 538.948 220.333 538.703 219.88 538.622L219.635 538.586C219.251 538.531 218.97 538.512 218.952 538.511L218.045 538.454C217.571 538.427 217.088 538.397 216.594 538.365L215.085 538.269C214.895 538.255 214.726 538.249 214.556 538.242C214.035 538.224 213.533 538.236 213.068 538.28L212.883 538.3C210.689 538.532 209.098 539.396 208.016 540.941C205.22 544.936 206.873 552.041 206.89 552.113L207.236 553.562L205.761 553.64C205.439 553.659 197.752 554.177 193.574 561.488C192.542 563.298 191.887 565.337 191.626 567.548C191.618 567.754 191.591 569.029 191.959 570.213C192.242 571.13 193.013 571.852 193.972 572.103L194.276 572.183C196.246 572.698 199.212 573.472 206.132 573.426H206.163ZM206.952 575.914C206.506 575.914 206.224 575.906 206.121 575.902C198.895 575.952 195.752 575.126 193.66 574.578L193.359 574.5C191.583 574.035 190.15 572.676 189.619 570.951C189.081 569.226 189.175 567.451 189.179 567.376L189.186 567.304C189.481 564.741 190.243 562.368 191.45 560.252C195.228 553.641 201.476 551.83 204.249 551.343C203.848 548.808 203.38 543.284 206.009 539.519C207.491 537.397 209.698 536.161 212.57 535.845L212.809 535.818C212.83 535.816 212.851 535.815 212.871 535.813C213.432 535.762 214.029 535.746 214.648 535.768C214.849 535.776 215.044 535.785 215.248 535.799L216.749 535.895C217.238 535.926 217.715 535.956 218.18 535.983L218.797 536.021C218.906 536.027 219.014 536.033 219.124 536.042C219.125 536.042 219.441 536.062 219.888 536.123L220.284 536.18C221.242 536.352 222.071 536.819 222.679 537.516C223.438 537.669 225.574 537.966 229.349 537.522C229.596 537.495 229.841 537.466 230.086 537.435L230.171 537.424C232.575 537.12 233.449 536.608 233.541 536.55L233.557 536.541L235.216 535.005L235.502 537.396C236.744 547.764 236.472 557.213 236.297 560.799C236.215 562.763 235.756 564.579 234.932 566.196C234.448 567.163 233.628 568.485 232.491 569.26C230.324 570.739 227.889 572.198 221.983 573.78C214.763 575.709 209.055 575.914 206.952 575.914Z" fill="#4D0070"/>
<path fill-rule="evenodd" clip-rule="evenodd" d="M220.465 558.564C220.164 558.564 219.862 558.452 219.626 558.228C219.565 558.171 214.512 553.549 205.713 553.641H205.699C205.028 553.641 204.481 553.097 204.473 552.418C204.465 551.735 205.007 551.174 205.684 551.166C205.794 551.165 205.903 551.165 206.011 551.165C215.683 551.165 221.08 556.21 221.307 556.427C221.8 556.897 221.821 557.68 221.356 558.176C221.115 558.434 220.79 558.564 220.465 558.564Z" fill="#4D0070"/>
<path fill-rule="evenodd" clip-rule="evenodd" d="M204.919 571.09C195.603 571.09 190.134 568.24 189.863 568.095C189.265 567.775 189.036 567.027 189.352 566.422C189.668 565.818 190.407 565.586 191.007 565.905C191.08 565.945 198.498 569.77 210.606 568.254C224.781 566.48 230.315 561.418 233.976 558.068L234.361 557.717C234.864 557.258 235.64 557.3 236.092 557.806C236.546 558.313 236.507 559.095 236.004 559.553L235.623 559.902C231.732 563.462 225.853 568.84 210.908 570.71C208.767 570.978 206.767 571.09 204.919 571.09Z" fill="#4D0070"/>
<path fill-rule="evenodd" clip-rule="evenodd" d="M215.49 555.53C215.141 555.53 214.794 555.38 214.552 555.089C214.116 554.566 214.182 553.786 214.7 553.346C219.348 549.394 220.804 544.007 221.215 541.874C221.374 541.045 221.301 540.253 221.003 539.584C220.879 539.307 220.667 538.942 220.363 538.784C219.762 538.469 219.527 537.722 219.839 537.115C220.15 536.51 220.889 536.272 221.492 536.586C222.238 536.977 222.826 537.644 223.238 538.568C223.746 539.706 223.878 541.012 223.621 542.345C223.161 544.737 221.525 550.779 216.279 555.239C216.049 555.435 215.769 555.53 215.49 555.53Z" fill="#4D0070"/>
<path fill-rule="evenodd" clip-rule="evenodd" d="M198.852 560.744C198.713 560.744 198.573 560.696 198.458 560.599C198.199 560.378 198.165 559.988 198.383 559.726C199.315 558.607 201.433 556.575 205.151 555.547C205.476 555.461 205.815 555.65 205.905 555.98C205.993 556.309 205.802 556.65 205.475 556.74C202.078 557.679 200.161 559.513 199.322 560.523C199.2 560.669 199.027 560.744 198.852 560.744Z" fill="#4D0070"/>
<path fill-rule="evenodd" clip-rule="evenodd" d="M234.293 537.54H234.287V537.546C234.275 537.553 234.263 537.558 234.24 537.576C234.228 537.582 234.21 537.594 234.187 537.6C233.891 537.743 233.017 538.137 231.481 538.447C231.126 538.524 230.743 538.59 230.323 538.65C230.04 538.686 229.756 538.721 229.49 538.751C224.238 539.371 221.975 538.614 221.975 538.614C221.557 537.993 220.889 537.546 220.09 537.403C220.003 537.391 219.902 537.373 219.82 537.361H219.807C219.353 537.295 219.033 537.278 219.033 537.278C218.844 537.26 218.661 537.254 218.461 537.242C218.348 537.23 218.23 537.224 218.113 537.218C217.68 537.194 217.243 537.165 216.788 537.135C216.581 537.123 216.376 537.111 216.168 537.099C215.844 537.075 215.501 537.057 215.158 537.033C214.969 537.021 214.786 537.016 214.603 537.004C214.018 536.986 213.475 536.991 212.955 537.051C212.919 537.051 212.884 537.057 212.854 537.057C212.825 537.057 212.789 537.063 212.753 537.063C211.549 526.287 216.387 525.291 216.387 525.291C216.523 525.338 216.659 525.386 216.788 525.433C220.493 526.704 223.322 527.533 231.404 525.291C231.404 525.291 231.433 525.291 231.481 525.297C232.136 525.35 236.709 526.156 234.293 537.54Z" fill="#FF9C94"/>
<path fill-rule="evenodd" clip-rule="evenodd" d="M222.678 537.514C223.435 537.668 225.571 537.967 229.348 537.522C229.609 537.493 229.88 537.458 230.153 537.425C230.563 537.366 230.913 537.305 231.221 537.237C232.134 537.053 232.787 536.842 233.218 536.673C234.375 530.78 233.432 528.359 232.747 527.432C232.266 526.778 231.731 526.597 231.497 526.548C223.584 528.712 220.502 528.014 216.401 526.607C215.647 527.014 213.342 528.834 213.862 535.758C214.101 535.756 214.358 535.758 214.64 535.767L215.676 535.826C215.874 535.839 216.07 535.851 216.258 535.865L217.117 535.916C217.479 535.94 217.832 535.963 218.18 535.982C218.313 535.989 218.452 535.997 218.584 536.01L218.703 536.016C218.853 536.024 218.998 536.032 219.145 536.045C219.145 536.042 219.456 536.063 219.933 536.13C219.954 536.131 219.976 536.134 219.996 536.136L220.256 536.177C221.237 536.352 222.07 536.819 222.678 537.514ZM225.632 540.234C223.027 540.235 221.772 539.85 221.59 539.789C221.334 539.704 221.114 539.536 220.963 539.311C220.718 538.948 220.332 538.704 219.876 538.621L219.684 538.592C219.666 538.59 219.649 538.589 219.633 538.586C219.256 538.532 218.987 538.515 218.965 538.514C218.803 538.499 218.692 538.494 218.575 538.488L218.388 538.477C218.244 538.464 218.148 538.459 218.05 538.454C217.688 538.434 217.329 538.41 216.958 538.386L216.101 538.335C215.899 538.32 215.714 538.308 215.526 538.297L214.523 538.239C213.955 538.222 213.5 538.234 213.093 538.281C213.047 538.287 213.001 538.289 212.955 538.289C212.95 538.291 212.93 538.293 212.904 538.293C212.205 538.356 211.611 537.878 211.535 537.202C210.22 525.435 215.9 524.128 216.143 524.078C216.358 524.035 216.583 524.049 216.79 524.122L217.205 524.27C220.507 525.402 223.133 526.302 231.079 524.097C231.175 524.07 231.305 524.056 231.404 524.053C231.403 524.053 231.492 524.051 231.634 524.069C232.013 524.098 233.524 524.339 234.714 525.954C236.41 528.254 236.671 532.239 235.492 537.8C235.437 538.056 235.306 538.279 235.126 538.448C235.061 538.51 234.989 538.565 234.911 538.612C234.871 538.638 234.83 538.662 234.789 538.683C234.766 538.694 234.74 538.707 234.711 538.718C234.158 538.985 233.192 539.363 231.721 539.66C231.373 539.736 230.965 539.808 230.494 539.875C230.173 539.916 229.892 539.951 229.627 539.981C228.046 540.168 226.721 540.234 225.632 540.234Z" fill="#4D0070"/>
<path fill-rule="evenodd" clip-rule="evenodd" d="M224.303 535.735C217.748 535.735 212.711 533.735 212.397 533.607C212.083 533.479 211.931 533.118 212.057 532.802C212.184 532.485 212.54 532.331 212.854 532.458C212.967 532.504 224.206 536.957 234.753 532.463C235.065 532.33 235.424 532.477 235.555 532.792C235.687 533.107 235.541 533.469 235.229 533.602C231.476 535.202 227.687 535.735 224.303 535.735Z" fill="#4D0070"/>
<path fill-rule="evenodd" clip-rule="evenodd" d="M299.308 560.742C299.378 562.437 299.765 564.112 300.538 565.631C301.086 566.723 301.796 567.703 302.577 568.235C304.573 569.597 306.836 571.009 312.712 572.585C321.611 574.962 328.239 574.664 328.239 574.664C335.676 574.721 338.72 573.819 340.716 573.301C342.073 572.947 343.176 571.932 343.591 570.584C344.068 569.051 343.977 567.447 343.977 567.447C343.71 565.134 343.021 562.892 341.868 560.869C337.286 552.851 328.682 552.404 328.682 552.404C328.682 552.404 332.105 538.176 321.625 537.07C321.59 537.062 321.555 537.062 321.527 537.055C321.498 537.055 321.463 537.048 321.429 537.048C320.908 536.999 320.36 536.984 319.777 537.006C319.594 537.013 319.411 537.02 319.221 537.034C318.877 537.055 318.539 537.077 318.209 537.098C317.541 537.14 316.894 537.183 316.269 537.219C316.15 537.225 316.03 537.233 315.918 537.24C315.72 537.254 315.538 537.261 315.348 537.276C315.348 537.276 315.025 537.297 314.575 537.36H314.561C314.477 537.375 314.378 537.389 314.287 537.403C313.493 537.545 312.825 537.991 312.403 538.616C312.403 538.616 310.14 539.369 304.889 538.751C304.622 538.723 304.341 538.687 304.059 538.652C301.586 538.34 300.51 537.8 300.194 537.602C300.172 537.595 300.151 537.58 300.138 537.574C300.116 537.559 300.102 537.552 300.095 537.545C298.872 547.756 299.132 557.137 299.308 560.742Z" fill="white"/>
<path fill-rule="evenodd" clip-rule="evenodd" d="M301.129 539.322C300.121 548.855 300.37 557.35 300.533 560.681V560.69C300.6 562.297 300.969 563.769 301.628 565.065C302.129 566.063 302.724 566.842 303.264 567.21C305.325 568.617 307.483 569.903 313.027 571.389C321.644 573.691 328.123 573.431 328.185 573.428L328.248 573.426C335.16 573.48 338.135 572.698 340.105 572.183L340.411 572.102C341.369 571.852 342.139 571.13 342.42 570.216C342.789 569.033 342.762 567.76 342.754 567.547C342.494 565.337 341.838 563.298 340.806 561.486C336.606 554.138 328.698 553.644 328.619 553.64L327.144 553.563L327.49 552.113C327.507 552.041 329.16 544.936 326.364 540.941C325.282 539.396 323.691 538.532 321.498 538.3L321.415 538.29C321.406 538.289 321.397 538.287 321.388 538.286L321.314 538.281C320.848 538.236 320.345 538.221 319.82 538.243C319.654 538.249 319.485 538.255 319.309 538.269L317.799 538.364C317.3 538.396 316.813 538.427 316.338 538.454L315.441 538.509C315.41 538.512 315.13 538.531 314.744 538.586L314.478 538.626C314.047 538.703 313.662 538.948 313.416 539.314L313.181 539.661L312.787 539.792C312.529 539.878 310.112 540.613 304.747 539.98C304.513 539.956 304.254 539.923 303.993 539.891L303.909 539.881C302.716 539.73 301.81 539.527 301.129 539.322ZM327.429 575.914C325.326 575.914 319.618 575.709 312.399 573.781C306.492 572.198 304.058 570.739 301.89 569.261C300.753 568.485 299.933 567.163 299.444 566.191C298.625 564.581 298.166 562.764 298.084 560.799C297.908 557.213 297.637 547.764 298.878 537.396L299.164 535.005L300.841 536.55C300.933 536.608 301.804 537.12 304.212 537.424L304.294 537.435C304.54 537.466 304.784 537.496 305.018 537.521C308.795 537.965 310.933 537.67 311.701 537.515C312.31 536.818 313.136 536.352 314.073 536.184L314.492 536.123C314.949 536.061 315.27 536.041 315.27 536.041C315.367 536.033 315.474 536.028 315.583 536.021L316.201 535.983C316.67 535.956 317.151 535.925 317.644 535.895L319.147 535.799C319.335 535.785 319.531 535.777 319.726 535.77C320.34 535.745 320.93 535.761 321.485 535.811L321.781 535.842C324.668 536.154 326.885 537.391 328.372 539.519C331 543.284 330.532 548.808 330.132 551.343C332.904 551.831 339.152 553.64 342.93 560.25C344.137 562.368 344.899 564.741 345.195 567.304L345.201 567.376C345.205 567.451 345.299 569.226 344.761 570.956C344.231 572.675 342.799 574.035 341.024 574.499L340.722 574.578C338.63 575.126 335.454 575.964 328.26 575.902C328.158 575.906 327.874 575.914 327.429 575.914Z" fill="#4D0070"/>
<path fill-rule="evenodd" clip-rule="evenodd" d="M313.916 558.562C313.589 558.562 313.264 558.431 313.023 558.172C312.56 557.675 312.581 556.896 313.072 556.427C313.3 556.209 318.699 551.165 328.369 551.165C328.478 551.165 328.586 551.165 328.696 551.166C329.373 551.174 329.916 551.735 329.908 552.418C329.9 553.097 329.352 553.641 328.682 553.641H328.667C328.57 553.64 328.473 553.64 328.377 553.64C319.72 553.64 314.803 558.182 314.754 558.228C314.517 558.451 314.216 558.562 313.916 558.562Z" fill="#4D0070"/>
<path fill-rule="evenodd" clip-rule="evenodd" d="M329.461 571.09C327.612 571.09 325.614 570.978 323.473 570.71C308.527 568.84 302.648 563.462 298.757 559.902L298.376 559.553C297.874 559.095 297.834 558.313 298.288 557.806C298.74 557.298 299.516 557.258 300.019 557.717L300.404 558.068C304.065 561.418 309.599 566.48 323.775 568.254C335.879 569.768 343.3 565.944 343.374 565.905C343.972 565.591 344.714 565.82 345.028 566.425C345.342 567.029 345.115 567.776 344.517 568.095C344.246 568.239 338.776 571.09 329.461 571.09Z" fill="#4D0070"/>
<path fill-rule="evenodd" clip-rule="evenodd" d="M318.89 555.53C318.611 555.53 318.331 555.435 318.101 555.239C312.855 550.779 311.219 544.737 310.759 542.345C310.502 541.011 310.635 539.705 311.143 538.568C311.554 537.644 312.142 536.977 312.888 536.586C313.492 536.273 314.23 536.508 314.541 537.115C314.853 537.722 314.618 538.469 314.017 538.784C313.713 538.942 313.502 539.306 313.379 539.584C313.079 540.253 313.006 541.045 313.165 541.873C313.576 544.007 315.032 549.394 319.68 553.346C320.198 553.786 320.264 554.566 319.828 555.089C319.586 555.38 319.239 555.53 318.89 555.53Z" fill="#4D0070"/>
<path fill-rule="evenodd" clip-rule="evenodd" d="M335.529 560.744C335.355 560.744 335.181 560.669 335.059 560.523C334.219 559.513 332.301 557.679 328.905 556.74C328.579 556.65 328.387 556.309 328.476 555.98C328.566 555.65 328.907 555.46 329.229 555.546C332.76 556.522 334.859 558.359 335.998 559.726C336.216 559.988 336.182 560.378 335.924 560.599C335.808 560.696 335.669 560.744 335.529 560.744Z" fill="#4D0070"/>
<path fill-rule="evenodd" clip-rule="evenodd" d="M321.625 537.063C321.59 537.063 321.554 537.057 321.525 537.057C321.501 537.057 321.465 537.051 321.43 537.051C320.91 536.992 320.361 536.986 319.776 537.004C319.593 537.016 319.41 537.022 319.221 537.033C318.878 537.057 318.542 537.075 318.211 537.1C317.986 537.111 317.768 537.129 317.549 537.141C317.112 537.171 316.686 537.194 316.267 537.218C316.148 537.225 316.031 537.231 315.918 537.242C315.723 537.254 315.54 537.26 315.345 537.278C315.345 537.278 315.026 537.296 314.577 537.361H314.56C314.477 537.374 314.376 537.391 314.287 537.403C313.491 537.546 312.823 537.994 312.403 538.614C312.403 538.614 310.141 539.371 304.889 538.752C304.623 538.721 304.34 538.685 304.062 538.65C303.619 538.59 303.217 538.519 302.857 538.441C301.344 538.131 300.482 537.743 300.193 537.6C300.175 537.594 300.151 537.582 300.139 537.576C300.115 537.559 300.104 537.552 300.098 537.546V537.54H300.086C297.711 526.358 302.077 525.386 302.857 525.297C302.934 525.291 302.975 525.291 302.975 525.291C311.027 527.527 313.863 526.71 317.549 525.446C317.696 525.392 317.844 525.345 317.992 525.291C317.992 525.291 322.837 526.287 321.625 537.063Z" fill="#FF9C94"/>
<path fill-rule="evenodd" clip-rule="evenodd" d="M301.161 536.676C301.564 536.834 302.202 537.044 303.1 537.228C303.461 537.306 303.835 537.371 304.224 537.423C304.489 537.457 304.766 537.492 305.026 537.522C308.797 537.968 310.936 537.668 311.702 537.514C312.31 536.819 313.135 536.353 314.073 536.185L314.382 536.137C314.41 536.133 314.438 536.13 314.465 536.128C314.945 536.06 315.279 536.042 315.279 536.042C315.382 536.032 315.525 536.024 315.67 536.016L315.844 536.007C315.926 535.997 316.066 535.989 316.205 535.983L316.381 535.972C316.737 535.952 317.097 535.931 317.467 535.907L317.771 535.886C317.896 535.878 318.021 535.87 318.148 535.863L319.696 535.769C319.996 535.76 320.266 535.755 320.517 535.759C321.039 528.862 318.752 527.029 317.969 526.608L317.964 526.61C313.857 528.019 310.788 528.716 302.874 526.546C302.623 526.6 302.082 526.795 301.598 527.475C300.931 528.41 300.014 530.837 301.161 536.676ZM308.747 540.235C307.657 540.235 306.33 540.167 304.747 539.981C304.48 539.95 304.191 539.914 303.908 539.878C303.447 539.815 303.01 539.739 302.6 539.651C301.078 539.338 300.123 538.94 299.678 538.723C299.652 538.712 299.627 538.701 299.61 538.693C299.542 538.659 299.469 538.615 299.407 538.569C299.357 538.535 299.318 538.503 299.273 538.462C299.27 538.459 299.266 538.456 299.263 538.453C299.078 538.284 298.942 538.059 298.888 537.799C297.719 532.301 297.962 528.341 299.607 526.03C300.731 524.451 302.157 524.132 302.718 524.067C302.903 524.052 302.976 524.054 302.975 524.053C303.078 524.055 303.2 524.07 303.3 524.098C311.239 526.302 313.85 525.408 317.154 524.274L317.577 524.127C317.788 524.05 318.017 524.033 318.237 524.078C318.479 524.128 324.166 525.435 322.843 537.202C322.772 537.828 322.249 538.301 321.625 538.301C321.589 538.301 321.503 538.296 321.465 538.293C321.435 538.291 321.404 538.29 321.384 538.288C321.338 538.288 321.337 538.286 321.291 538.281C320.89 538.235 320.42 538.222 319.814 538.241L317.616 538.377C317.253 538.402 316.884 538.423 316.52 538.443L316.337 538.454C316.232 538.46 316.135 538.463 316.043 538.473L315.798 538.488C315.686 538.494 315.574 538.5 315.458 538.51C315.391 538.515 315.124 538.532 314.754 538.587C314.73 538.59 314.706 538.592 314.683 538.594L314.452 538.63C314.048 538.704 313.662 538.949 313.416 539.312C313.264 539.536 313.044 539.703 312.789 539.789C312.607 539.85 311.352 540.235 308.747 540.235Z" fill="#4D0070"/>
<path fill-rule="evenodd" clip-rule="evenodd" d="M310.077 535.735C306.693 535.735 302.905 535.202 299.151 533.602C298.839 533.469 298.693 533.107 298.825 532.792C298.956 532.477 299.316 532.33 299.627 532.463C310.175 536.958 321.414 532.503 321.526 532.458C321.84 532.332 322.196 532.485 322.323 532.802C322.45 533.118 322.297 533.479 321.983 533.607C321.669 533.734 316.632 535.735 310.077 535.735Z" fill="#4D0070"/>
<path fill-rule="evenodd" clip-rule="evenodd" d="M170.096 129.611C169.872 129.611 169.657 129.487 169.549 129.272C169.396 128.967 169.517 128.594 169.818 128.44C173.735 126.437 177.932 124.75 182.292 123.424C182.616 123.327 182.958 123.513 183.056 123.839C183.153 124.166 182.969 124.511 182.645 124.61C178.355 125.914 174.225 127.574 170.373 129.544C170.284 129.59 170.189 129.611 170.096 129.611Z" fill="#4D0070"/>
<path fill-rule="evenodd" clip-rule="evenodd" d="M140.365 159.84C140.29 159.84 140.215 159.826 140.142 159.797C139.826 159.672 139.671 159.314 139.793 158.996C139.851 158.847 145.758 143.929 162.742 132.59C163.023 132.401 163.404 132.478 163.591 132.764C163.778 133.049 163.701 133.433 163.418 133.622C146.776 144.733 140.992 159.3 140.936 159.445C140.841 159.69 140.609 159.84 140.365 159.84Z" fill="#4D0070"/>
<path fill-rule="evenodd" clip-rule="evenodd" d="M426.595 275.709C426.526 275.709 426.455 275.696 426.385 275.671C426.068 275.554 425.903 275.199 426.02 274.878C427.501 270.781 428.644 266.446 429.418 261.99C429.477 261.654 429.793 261.429 430.128 261.488C430.462 261.547 430.684 261.868 430.626 262.205C429.839 266.731 428.677 271.137 427.171 275.302C427.08 275.553 426.845 275.709 426.595 275.709Z" fill="#4D0070"/>
<path fill-rule="evenodd" clip-rule="evenodd" d="M400.387 309.093C400.168 309.093 399.956 308.975 399.845 308.766C399.686 308.464 399.799 308.09 400.097 307.928C400.234 307.855 413.876 300.331 422.833 282.332C422.985 282.027 423.351 281.904 423.656 282.057C423.958 282.211 424.08 282.582 423.928 282.888C414.787 301.256 400.814 308.945 400.675 309.02C400.583 309.069 400.484 309.093 400.387 309.093Z" fill="#4D0070"/>
</svg>
