<svg width="22" height="22" viewBox="0 0 22 22" fill="none" xmlns="http://www.w3.org/2000/svg">
<path fill-rule="evenodd" clip-rule="evenodd" d="M21.3024 11.6562C21.3024 10.9141 21.2358 10.2006 21.1121 9.51562H11.2559V13.5637H16.888C16.6454 14.8719 15.9081 15.9802 14.7997 16.7223V19.3481H18.1819C20.1607 17.5262 21.3024 14.8433 21.3024 11.6562Z" fill="#4285F4"/>
<path fill-rule="evenodd" clip-rule="evenodd" d="M11.2563 21.883C14.0819 21.883 16.4508 20.9459 18.1823 19.3476L14.8002 16.7218C13.8631 17.3497 12.6643 17.7207 11.2563 17.7207C8.53062 17.7207 6.22354 15.8798 5.4006 13.4062H1.9043V16.1177C3.62628 19.5379 7.1654 21.883 11.2563 21.883Z" fill="#34A853"/>
<path fill-rule="evenodd" clip-rule="evenodd" d="M5.40042 13.4069C5.19112 12.779 5.0722 12.1083 5.0722 11.4185C5.0722 10.7288 5.19112 10.0581 5.40042 9.43017V6.71875H1.90412C1.19535 8.13154 0.791016 9.72985 0.791016 11.4185C0.791016 13.1072 1.19535 14.7055 1.90412 16.1183L5.40042 13.4069Z" fill="#FBBC05"/>
<path fill-rule="evenodd" clip-rule="evenodd" d="M11.2563 5.11539C12.7928 5.11539 14.1723 5.6434 15.2568 6.6804L18.2584 3.67881C16.4461 1.99012 14.0771 0.953125 11.2563 0.953125C7.1654 0.953125 3.62628 3.29826 1.9043 6.71845L5.4006 9.42987C6.22354 6.9563 8.53062 5.11539 11.2563 5.11539Z" fill="#EA4335"/>
</svg>
