<svg width="16" height="16" viewBox="0 0 16 16" fill="none" xmlns="http://www.w3.org/2000/svg">
<path d="M13.7067 3.70743C13.8001 3.61472 13.8743 3.50447 13.9251 3.38301C13.9758 3.26155 14.0021 3.13126 14.0023 2.99963C14.0026 2.86799 13.9769 2.7376 13.9266 2.61594C13.8763 2.49427 13.8026 2.38373 13.7095 2.29065C13.6164 2.19757 13.5059 2.12378 13.3842 2.07353C13.2625 2.02328 13.1321 1.99754 13.0005 1.9978C12.8689 1.99807 12.7386 2.02432 12.6171 2.07506C12.4957 2.12579 12.3854 2.20002 12.2927 2.29347L11.5758 3.01033C10.4995 2.3511 9.26216 2.00166 8 2.0005C4.30687 2.0005 2.0531 4.61753 0.16845 7.4455C0.0586264 7.60963 0 7.80267 0 8.00015C0 8.19763 0.0586264 8.39067 0.16845 8.5548C0.922049 9.72684 1.80605 10.8097 2.80353 11.7826L2.29333 12.2928C2.19988 12.3855 2.12566 12.4958 2.07492 12.6173C2.02419 12.7387 1.99793 12.869 1.99767 13.0006C1.99741 13.1323 2.02314 13.2627 2.0734 13.3843C2.12365 13.506 2.19743 13.6165 2.29051 13.7096C2.38359 13.8027 2.49414 13.8765 2.6158 13.9267C2.73747 13.977 2.86786 14.0027 2.99949 14.0025C3.13113 14.0022 3.26141 13.9759 3.38288 13.9252C3.50434 13.8745 3.61459 13.8002 3.7073 13.7068L13.7067 3.70743ZM2.21128 8.00013C4.22093 5.13215 5.87903 4.00038 8 4.00038C8.73053 3.99867 9.45216 4.16058 10.1119 4.47423L8.51315 6.073C8.34633 6.02491 8.17361 6.00042 8 6.00025C7.46976 6.00077 6.96138 6.21164 6.58645 6.58658C6.21151 6.96152 6.00064 7.46989 6.00012 8.00013C6.0003 8.17374 6.02478 8.34647 6.07287 8.51328L4.2169 10.3692C3.46645 9.6527 2.79415 8.85855 2.21128 8.00013Z" fill="#5e5e5e" fill-opacity="1"/>
<path d="M15.8317 7.44557C15.4278 6.83952 15.0015 6.24972 14.5532 5.68677L13.1289 7.11112C13.3456 7.38893 13.5644 7.67992 13.7889 8.00022C11.8628 10.749 10.2553 11.8906 8.25806 11.9819L6.42871 13.8113C6.94384 13.9326 7.47094 13.9958 8.00014 13.9999C11.6933 13.9999 13.947 11.3828 15.8317 8.55485C15.9415 8.39072 16.0001 8.19769 16.0001 8.00021C16.0001 7.80273 15.9415 7.60969 15.8317 7.44557Z" fill="#5e5e5e" fill-opacity="1"/>
</svg>
