<svg width="13" height="16" viewBox="0 0 13 16" fill="none" xmlns="http://www.w3.org/2000/svg">
<path d="M0.5 1V0.5C0.223858 0.5 0 0.723858 0 1H0.5ZM12.5 1H13C13 0.723858 12.7761 0.5 12.5 0.5V1ZM12.5 15L12.2764 15.4472C12.4314 15.5247 12.6155 15.5164 12.7629 15.4253C12.9103 15.3342 13 15.1733 13 15H12.5ZM10.5 14L10.7236 13.5528C10.5828 13.4824 10.4172 13.4824 10.2764 13.5528L10.5 14ZM8.5 15L8.27639 15.4472C8.41716 15.5176 8.58284 15.5176 8.72361 15.4472L8.5 15ZM6.5 14L6.72361 13.5528C6.58284 13.4824 6.41716 13.4824 6.27639 13.5528L6.5 14ZM4.5 15L4.27639 15.4472C4.41716 15.5176 4.58284 15.5176 4.72361 15.4472L4.5 15ZM0.5 15H0C0 15.1733 0.0897262 15.3342 0.237134 15.4253C0.384543 15.5164 0.568613 15.5247 0.723607 15.4472L0.5 15ZM2.5 14L2.72361 13.5528C2.58284 13.4824 2.41716 13.4824 2.27639 13.5528L2.5 14ZM0.5 1.5H12.5V0.5H0.5V1.5ZM12 1V15H13V1H12ZM12.7236 14.5528L10.7236 13.5528L10.2764 14.4472L12.2764 15.4472L12.7236 14.5528ZM10.2764 13.5528L8.27639 14.5528L8.72361 15.4472L10.7236 14.4472L10.2764 13.5528ZM8.72361 14.5528L6.72361 13.5528L6.27639 14.4472L8.27639 15.4472L8.72361 14.5528ZM6.27639 13.5528L4.27639 14.5528L4.72361 15.4472L6.72361 14.4472L6.27639 13.5528ZM1 15V1H0V15H1ZM4.72361 14.5528L2.72361 13.5528L2.27639 14.4472L4.27639 15.4472L4.72361 14.5528ZM2.27639 13.5528L0.276393 14.5528L0.723607 15.4472L2.72361 14.4472L2.27639 13.5528ZM3 5.5H5V4.5H3V5.5ZM7 5.5H10V4.5H7V5.5ZM3 8.5H5V7.5H3V8.5ZM7 8.5H10V7.5H7V8.5ZM7 11.5H10V10.5H7V11.5Z" fill="#181818" fill-opacity="0.7"/>
</svg>
