<svg width="24" height="25" viewBox="0 0 24 25" fill="none" xmlns="http://www.w3.org/2000/svg">
<path fill-rule="evenodd" clip-rule="evenodd" d="M12 1.75H11.9622H11.9622C10.125 1.75 8.69502 1.74999 7.55249 1.85354C6.39182 1.95874 5.45433 2.17552 4.625 2.65433C3.59887 3.24677 2.74677 4.09887 2.15433 5.125C1.67552 5.95433 1.45874 6.89182 1.35354 8.05249C1.24999 9.19502 1.25 10.625 1.25 12.4622V12.4622V12.5V12.5083C1.25 13.6181 1.25 14.5758 1.27166 15.4057L1.27278 15.4492C1.28077 15.7599 1.28914 16.0856 1.35491 16.3827C1.43339 16.7371 1.58736 17.0407 1.84995 17.3371C2.08541 17.6028 2.41259 17.7927 2.70939 17.9112C3.0062 18.0296 3.37428 18.117 3.72798 18.0864C4.54979 18.0152 5.03543 17.5276 5.55396 17.0069L5.63756 16.9231L6.74338 15.8173C7.41597 15.1447 7.86853 14.6944 8.25077 14.4022C8.61574 14.1233 8.82882 14.0591 9.01151 14.0577C9.19419 14.0564 9.4082 14.1175 9.77724 14.391C10.1638 14.6774 10.6229 15.121 11.3054 15.7836L13.9597 18.3606L17.1447 21.5456C16.809 21.6045 16.4287 21.6477 15.9899 21.6783C14.9691 21.7496 13.6945 21.75 12 21.75C10.117 21.75 8.75483 21.7493 7.68789 21.6526C6.63125 21.5568 5.93798 21.3717 5.375 21.0466C5.01628 20.8395 4.55759 20.9624 4.35048 21.3212C4.14337 21.6799 4.26628 22.1386 4.625 22.3457C5.45433 22.8245 6.39182 23.0413 7.55249 23.1465C8.69502 23.25 10.1249 23.25 11.9621 23.25H12H12.0274H12.0274C13.6889 23.25 15.0154 23.25 16.0944 23.1747C17.1822 23.0987 18.0809 22.9432 18.8708 22.5996C19.0445 22.524 19.2122 22.4396 19.375 22.3457C20.4011 21.7532 21.2532 20.9011 21.8457 19.875C22.0837 19.4627 22.2577 19.0226 22.3853 18.5389C22.7502 17.1556 22.7501 15.3196 22.75 12.6353L22.75 12.5V12.4621C22.75 10.6249 22.75 9.19502 22.6465 8.05249C22.5413 6.89182 22.3245 5.95433 21.8457 5.125C21.2532 4.09887 20.4011 3.24677 19.375 2.65433C18.5457 2.17552 17.6082 1.95874 16.4475 1.85354C15.305 1.74999 13.875 1.75 12.0378 1.75H12.0378H12ZM18.7143 20.9939L15.5468 17.8264C16.2105 17.1628 16.6611 16.7159 17.0424 16.4249C17.4128 16.1423 17.6283 16.0784 17.8125 16.0784C17.9968 16.0784 18.2123 16.1423 18.5824 16.4247C18.9699 16.7203 19.4289 17.1771 20.1106 17.8588L20.8097 18.5579C20.7347 18.7633 20.6476 18.9502 20.5466 19.125C20.1031 19.8931 19.4726 20.5359 18.7143 20.9939ZM21.25 12.5C21.25 14.3898 21.2472 15.7436 21.1557 16.7826L21.1345 16.7613L21.1344 16.7613C20.4992 16.126 19.9694 15.5962 19.4923 15.2322C18.9887 14.8479 18.4566 14.5784 17.8125 14.5784C17.1683 14.5784 16.6361 14.8481 16.1324 15.2324C15.6552 15.5966 15.1252 16.1266 14.4896 16.7622L14.4783 16.7735L12.3503 14.7074L12.3133 14.6715L12.3132 14.6714C11.6774 14.0541 11.1469 13.539 10.6703 13.1858C10.1671 12.8129 9.63751 12.5531 9.00043 12.5578C8.36335 12.5625 7.83769 12.8301 7.33999 13.2104C6.86868 13.5706 6.34579 14.0935 5.71916 14.7202L5.68272 14.7566L4.5769 15.8624C3.92898 16.5104 3.82214 16.5726 3.59858 16.592C3.55396 16.5959 3.42862 16.5831 3.26529 16.518C3.10195 16.4528 3.00228 16.3757 2.97258 16.3422C2.87257 16.2294 2.8407 16.1544 2.81944 16.0584C2.78855 15.9189 2.78087 15.739 2.77115 15.3666C2.75005 14.5584 2.75 13.6195 2.75 12.5C2.75 10.617 2.75072 9.25483 2.84742 8.18789C2.94319 7.13125 3.12833 6.43798 3.45337 5.875C3.91415 5.0769 4.5769 4.41415 5.375 3.95337C5.93798 3.62833 6.63125 3.44319 7.68789 3.34742C8.75483 3.25072 10.117 3.25 12 3.25C13.883 3.25 15.2452 3.25072 16.3121 3.34742C17.3687 3.44319 18.062 3.62833 18.625 3.95337C19.4231 4.41415 20.0858 5.0769 20.5466 5.875C20.8717 6.43798 21.0568 7.13125 21.1526 8.18789C21.2493 9.25483 21.25 10.617 21.25 12.5ZM14.75 8.5C14.75 7.80964 15.3096 7.25 16 7.25C16.4142 7.25 16.75 6.91421 16.75 6.5C16.75 6.08579 16.4142 5.75 16 5.75C14.4812 5.75 13.25 6.98122 13.25 8.5C13.25 10.0188 14.4812 11.25 16 11.25C17.5188 11.25 18.75 10.0188 18.75 8.5C18.75 8.08579 18.4142 7.75 18 7.75C17.5858 7.75 17.25 8.08579 17.25 8.5C17.25 9.19036 16.6904 9.75 16 9.75C15.3096 9.75 14.75 9.19036 14.75 8.5Z" fill="#334BFA"/>
</svg>
