<svg width="54" height="54" viewBox="0 0 54 54" fill="none" xmlns="http://www.w3.org/2000/svg">
<path fill-rule="evenodd" clip-rule="evenodd" d="M27.0996 3.41797C13.9828 3.41797 3.34961 14.0512 3.34961 27.168C3.34961 40.2847 13.9828 50.918 27.0996 50.918C40.2164 50.918 50.8496 40.2847 50.8496 27.168C50.8496 14.0512 40.2164 3.41797 27.0996 3.41797ZM0.849609 27.168C0.849609 12.6705 12.6021 0.917969 27.0996 0.917969C41.5971 0.917969 53.3496 12.6705 53.3496 27.168C53.3496 41.6654 41.5971 53.418 27.0996 53.418C12.6021 53.418 0.849609 41.6654 0.849609 27.168ZM27.0996 23.418C27.79 23.418 28.3496 23.9776 28.3496 24.668V37.168C28.3496 37.8583 27.79 38.418 27.0996 38.418C26.4093 38.418 25.8496 37.8583 25.8496 37.168V24.668C25.8496 23.9776 26.4093 23.418 27.0996 23.418ZM27.0996 19.668C28.4803 19.668 29.5996 18.5487 29.5996 17.168C29.5996 15.7873 28.4803 14.668 27.0996 14.668C25.7189 14.668 24.5996 15.7873 24.5996 17.168C24.5996 18.5487 25.7189 19.668 27.0996 19.668Z" fill="white"/>
</svg>
