<svg width="16" height="17" viewBox="0 0 16 17" fill="none" xmlns="http://www.w3.org/2000/svg">
<path fill-rule="evenodd" clip-rule="evenodd" d="M8 0.5C8.27674 0.5 8.54216 0.609941 8.73785 0.805628C8.93354 1.00131 9.04348 1.26673 9.04348 1.54348V7.45652H14.9565C15.2333 7.45652 15.4987 7.56646 15.6943 7.76215C15.8901 7.95784 16 8.22326 16 8.5C16 8.77674 15.8901 9.04216 15.6943 9.23785C15.4987 9.43354 15.2333 9.54348 14.9565 9.54348H9.04348V15.4565C9.04348 15.7333 8.93354 15.9987 8.73785 16.1943C8.54216 16.3901 8.27674 16.5 8 16.5C7.72326 16.5 7.45784 16.3901 7.26215 16.1943C7.06646 15.9987 6.95652 15.7333 6.95652 15.4565V9.54348H1.04348C0.766734 9.54348 0.501315 9.43354 0.305628 9.23785C0.109941 9.04216 0 8.77674 0 8.5C0 8.22326 0.109941 7.95784 0.305628 7.76215C0.501315 7.56646 0.766734 7.45652 1.04348 7.45652H6.95652V1.54348C6.95652 1.26673 7.06646 1.00131 7.26215 0.805628C7.45784 0.609941 7.72326 0.5 8 0.5Z" fill="#334BFA"/>
</svg>
