<svg width="178" height="115" viewBox="0 0 178 115" fill="none" xmlns="http://www.w3.org/2000/svg">
<path d="M157.648 8.21242C159.735 10.5141 160.991 13.4785 160.991 16.7134C160.991 24.0364 154.555 29.9727 146.616 29.9727C138.676 29.9727 132.24 24.0364 132.24 16.7134C132.24 9.39042 138.676 3.4541 146.616 3.4541C149.705 3.4541 152.566 4.35271 154.91 5.88212" fill="#334BFA" fill-opacity="0.1"/>
<path d="M157.648 8.21242C159.735 10.5141 160.991 13.4785 160.991 16.7134C160.991 24.0364 154.555 29.9727 146.616 29.9727C138.676 29.9727 132.24 24.0364 132.24 16.7134C132.24 9.39042 138.676 3.4541 146.616 3.4541C149.705 3.4541 152.566 4.35271 154.91 5.88212" fill="white" fill-opacity="0.3"/>
<path d="M157.648 8.21242C159.735 10.5141 160.991 13.4785 160.991 16.7134C160.991 24.0364 154.555 29.9727 146.616 29.9727C138.676 29.9727 132.24 24.0364 132.24 16.7134C132.24 9.39042 138.676 3.4541 146.616 3.4541C149.705 3.4541 152.566 4.35271 154.91 5.88212" fill="white" fill-opacity="0.3"/>
<path d="M146.69 2.99516C149.689 3.01555 152.654 3.87265 155.14 5.47039C155.14 5.47039 155.469 5.70165 155.393 5.99115C155.293 6.36735 154.805 6.36533 154.3 6.05342C149.844 3.32893 143.662 3.25288 139.135 5.92961C134.386 8.73769 131.781 14.3661 133.092 19.6046C134.333 24.5606 139.027 28.6275 144.587 29.3781C148.775 29.9433 153.205 28.6352 156.25 25.926C160.115 22.4864 161.526 16.9092 159.608 12.2076C159.06 10.8626 158.257 9.60673 157.265 8.50624C157.265 8.50624 157.004 7.92541 157.491 7.77662C157.973 7.62948 158.355 8.26652 158.752 8.78251C162.114 13.1521 162.333 19.3993 159.241 23.9684C155.872 28.9458 148.865 31.607 142.455 29.8882C137.117 28.4569 132.819 24.0536 131.927 18.8873C130.878 12.8129 134.725 6.24501 141.246 3.91618C142.977 3.2977 144.836 2.99094 146.69 2.99516Z" fill="#334BFA" fill-opacity="0.1"/>
<path d="M158.26 16.7132C158.26 22.6382 153.053 27.4413 146.629 27.4413C140.206 27.4413 134.998 22.6382 134.998 16.7132C134.998 10.7883 140.206 5.98535 146.629 5.98535C153.053 5.98535 158.26 10.7883 158.26 16.7132Z" fill="white"/>
<path d="M146.227 9.81014C146.478 9.84228 146.668 10.0319 146.679 10.2673C146.679 12.6355 146.64 15.004 146.679 17.3718L151.309 20.121C151.631 20.3317 151.569 20.8529 151.168 20.951C151.038 20.9827 150.949 20.9888 150.771 20.8933L146.134 18.1403C145.859 17.9715 145.689 17.6829 145.684 17.3785V10.2673C145.697 10.0047 145.927 9.79728 146.227 9.81014Z" fill="#334BFA" fill-opacity="0.1"/>
<path d="M155.235 31.7809C155.532 31.8002 155.623 32.1808 155.236 32.3572C154.635 32.6282 154.02 32.8711 153.392 33.0844C153.392 33.0844 152.745 32.986 153.063 32.646C153.15 32.5517 153.296 32.5297 153.43 32.483C153.994 32.2828 154.547 32.058 155.089 31.8095C155.089 31.8095 155.129 31.7791 155.235 31.7809Z" fill="#334BFA" fill-opacity="0.1"/>
<path d="M161.743 26.8447C162.206 26.8968 162.056 27.1573 161.956 27.2882C160.536 28.9795 158.784 30.4347 156.821 31.549C156.583 31.6844 156.186 31.6084 156.285 31.291C156.329 31.1477 156.508 31.0805 156.645 31.0014C158.497 29.9257 160.138 28.5538 161.483 26.9507C161.483 26.9507 161.572 26.8387 161.743 26.8447Z" fill="#334BFA" fill-opacity="0.1"/>
<path d="M140.4 0.326028C140.724 0.349371 140.807 0.746613 140.244 0.944148C139.68 1.14417 139.126 1.36908 138.585 1.61767C138.585 1.61767 137.93 1.585 138.205 1.21511C138.259 1.14262 138.351 1.10906 138.437 1.07013C139.038 0.798866 139.654 0.555928 140.281 0.342748C140.281 0.342748 140.317 0.324088 140.4 0.326028Z" fill="#334BFA" fill-opacity="0.1"/>
<path d="M137.104 1.78475C137.414 1.79585 137.488 2.15994 137.05 2.41154C136.87 2.51579 136.692 2.62224 136.516 2.7317C136.342 2.83971 136.183 2.984 136.029 2.99051C135.751 3.00195 135.589 2.65289 135.978 2.40323C136.204 2.25956 136.432 2.11969 136.664 1.98478C136.822 1.89246 136.944 1.78464 137.104 1.78475Z" fill="#334BFA" fill-opacity="0.1"/>
<path d="M136.029 2.43954C136.192 2.45119 136.215 2.50037 136.254 2.54739C136.489 2.83082 135.831 3.16773 135.354 3.51717C134.877 3.86585 134.419 4.23607 133.983 4.62606C133.337 5.20188 132.739 5.82189 132.188 6.47624C132.188 6.47624 131.976 6.64407 131.796 6.54231C131.451 6.34741 131.99 5.80404 132.397 5.37046C133.413 4.28797 134.573 3.32174 135.844 2.49034C135.844 2.49034 135.939 2.43933 136.029 2.43954Z" fill="#334BFA" fill-opacity="0.1"/>
<path fill-rule="evenodd" clip-rule="evenodd" d="M33.5074 103.148C32.0759 92.9965 25.8125 89.2002 25.8125 89.2002C25.8125 89.2002 26.1256 95.3072 30.7336 103.148H33.5074Z" fill="#33FAE3"/>
<path fill-rule="evenodd" clip-rule="evenodd" d="M26.5271 89.1152C26.3111 88.9415 26.0978 88.7699 25.8438 88.7422C25.5365 88.7389 25.3141 88.9584 25.3145 89.2253C25.3145 89.2253 25.3541 89.704 25.3963 90.0293C26.0053 94.7175 27.8839 99.253 30.2947 103.366C30.4285 103.568 30.4634 103.594 30.7326 103.607H33.5064C33.947 103.586 34.0167 103.192 33.9653 102.848C33.1908 97.6808 30.9145 92.4739 26.6717 89.2296C26.6231 89.1924 26.575 89.1537 26.5271 89.1152ZM31.0122 102.657C28.7836 98.7913 27.0892 94.617 26.4358 90.281L26.4316 90.2534C30.2259 93.4379 32.1944 98.0887 32.9348 102.689L31.0122 102.657Z" fill="#000E87" fill-opacity="0.75"/>
<path fill-rule="evenodd" clip-rule="evenodd" d="M36.668 103.148C36.668 103.148 37.518 99.3102 44.5867 98.0723C44.5867 98.0723 43.6471 101.456 40.1575 103.148H36.668Z" fill="#33FAE3"/>
<path fill-rule="evenodd" clip-rule="evenodd" d="M44.8304 97.6711C44.7684 97.6394 44.735 97.6228 44.6091 97.6133C44.5416 97.6131 44.447 97.6293 44.4102 97.6359C43.8004 97.7452 43.2045 97.8787 42.6142 98.0442C40.0577 98.7612 37.2187 100.337 36.2927 102.711C36.1991 102.951 36.1172 103.2 36.2469 103.391C36.3384 103.526 36.3727 103.577 36.4199 103.596C36.4669 103.615 36.5267 103.602 36.6689 103.607H40.1584C40.2797 103.603 40.4333 103.533 40.4333 103.533C42.2004 102.659 43.5801 101.246 44.4604 99.6115L44.4648 99.6031C44.8775 98.8368 45.3586 97.9433 44.8304 97.6711ZM37.3976 102.656C38.5885 100.409 41.2042 99.2899 43.7524 98.7088C43.7799 98.7026 43.8211 98.6936 43.8211 98.6936C43.0567 100.367 41.7399 101.833 40.0336 102.689L37.3976 102.656Z" fill="#000E87" fill-opacity="0.75"/>
<path fill-rule="evenodd" clip-rule="evenodd" d="M28.7504 103.147C25.8872 98.0719 21.2344 97.6592 21.2344 97.6592C21.2344 97.6592 22.4871 100.795 25.2609 103.147H28.7504Z" fill="#33FAE3"/>
<path fill-rule="evenodd" clip-rule="evenodd" d="M29.121 102.814C27.4902 99.9914 24.5608 97.5303 21.2865 97.2029C20.6624 97.1624 20.7709 97.8308 20.7709 97.8308C21.6342 99.9166 23.0305 101.828 24.7886 103.371C24.8145 103.393 24.8373 103.415 24.8589 103.436C24.9556 103.528 25.0293 103.599 25.2594 103.607H28.749C29.222 103.59 29.3178 103.155 29.121 102.814ZM25.4557 102.689C24.0437 101.45 22.9406 99.9483 22.0958 98.3354C22.051 98.2485 22.1488 98.319 22.1488 98.319C24.6012 99.0196 26.5861 100.675 27.9003 102.689H25.4557Z" fill="#000E87" fill-opacity="0.75"/>
<path fill-rule="evenodd" clip-rule="evenodd" d="M43.0216 113.67H22.6211V104.867C22.6211 103.917 23.4557 103.147 24.4856 103.147H41.1573C42.187 103.147 43.0216 103.917 43.0216 104.867V113.67Z" fill="#FFCE93"/>
<path fill-rule="evenodd" clip-rule="evenodd" d="M43.5184 104.865C43.51 103.68 42.4121 102.71 41.1867 102.688C35.6092 102.656 30.0315 102.656 24.454 102.688C23.1995 102.711 22.1454 103.712 22.1223 104.839C22.1088 106.805 22.1133 108.77 22.1177 110.736C22.1199 111.714 22.1221 112.692 22.1221 113.67C22.1386 113.922 22.3519 114.114 22.62 114.129H43.0205C43.2945 114.114 43.5022 113.917 43.5184 113.67V104.865ZM23.1182 104.869C23.1227 104.185 23.7678 103.611 24.4864 103.607C26.337 103.607 28.1877 103.603 30.0384 103.6C33.7503 103.593 37.4623 103.585 41.1742 103.607C41.8888 103.62 42.5094 104.199 42.5227 104.851C42.5358 106.712 42.5315 108.573 42.5272 110.434C42.5251 111.359 42.5229 112.285 42.5229 113.211H23.1182V104.869Z" fill="#000E87" fill-opacity="0.75"/>
<path fill-rule="evenodd" clip-rule="evenodd" d="M34.5552 103.147C37.516 97.0579 33.7662 86.0703 33.7662 86.0703C27.6044 97.9538 31.1541 103.147 31.1541 103.147H34.5552Z" fill="#33FAE3"/>
<path fill-rule="evenodd" clip-rule="evenodd" d="M34.2932 86.0876C34.1913 85.7711 34.154 85.6553 33.8027 85.6123C33.4123 85.6082 33.2925 85.8996 33.2549 85.9909C33.2509 86.0006 33.2479 86.008 33.2455 86.0126C32.2404 87.9663 31.3725 89.9693 30.7248 92.0422C29.6217 95.5726 28.9952 99.4198 30.3837 102.709L30.3933 102.731C30.566 103.141 30.7536 103.586 31.155 103.607H34.5561C34.8172 103.593 34.9765 103.41 35.0644 103.222C35.474 102.349 35.7387 101.427 35.9118 100.493C36.7763 95.827 35.8092 90.8213 34.308 86.1333C34.3029 86.1176 34.298 86.1024 34.2932 86.0876ZM30.8741 100.933C29.9305 96.4108 31.5604 91.7557 33.6077 87.4853C33.6232 87.4529 33.6623 87.4146 33.6623 87.4146C34.1229 89.0286 34.4959 90.6635 34.7662 92.3119C35.3342 95.7772 35.6568 99.4698 34.2275 102.688L31.4497 102.675C31.174 102.123 30.9992 101.531 30.8741 100.933Z" fill="#000E87" fill-opacity="0.75"/>
<path fill-rule="evenodd" clip-rule="evenodd" d="M37.6525 103.147C42.5736 99.6808 44.0948 91.0977 44.0948 91.0977C34.3866 96.6271 34.3418 103.147 34.3418 103.147H37.6525Z" fill="#33FAE3"/>
<path d="M37.6525 103.147C42.5736 99.6808 44.0948 91.0977 44.0948 91.0977C34.3866 96.6271 34.3418 103.147 34.3418 103.147H37.6525Z" fill="white" fill-opacity="0.3"/>
<path d="M37.6525 103.147C42.5736 99.6808 44.0948 91.0977 44.0948 91.0977C34.3866 96.6271 34.3418 103.147 34.3418 103.147H37.6525Z" fill="white" fill-opacity="0.3"/>
<path fill-rule="evenodd" clip-rule="evenodd" d="M44.3631 92.2065C44.5343 91.527 44.7312 90.7454 44.1653 90.6437C43.9548 90.6257 43.7872 90.7303 43.7315 90.7651C43.7258 90.7687 43.7213 90.7715 43.718 90.7734C39.6296 93.1235 35.6298 96.6437 34.23 101.14C33.8866 102.243 33.5966 103.573 34.3417 103.607H37.6524C37.8048 103.6 37.948 103.518 38.0153 103.469C38.8872 102.845 39.6467 102.074 40.3006 101.247C42.3445 98.6595 43.5444 95.524 44.3241 92.3626C44.3367 92.3115 44.3498 92.2593 44.3631 92.2065ZM35.34 100.938C36.6679 97.2659 39.7705 94.33 43.2794 92.1306C43.3111 92.111 43.3708 92.0862 43.3708 92.0862C43.0683 93.3197 42.6895 94.5379 42.2267 95.7286C41.2881 98.1436 40.0384 100.519 38.0359 102.246C37.8573 102.4 37.6726 102.548 37.4813 102.688L34.8877 102.67C34.9773 102.081 35.1362 101.502 35.34 100.938Z" fill="#000E87" fill-opacity="0.75"/>
<path fill-rule="evenodd" clip-rule="evenodd" d="M31.3879 103.147C28.6141 95.9254 22.6191 93.6973 22.6191 93.6973C22.6191 93.6973 23.7824 98.9791 28.0772 103.147H31.3879Z" fill="#33FAE3"/>
<path d="M31.3879 103.147C28.6141 95.9254 22.6191 93.6973 22.6191 93.6973C22.6191 93.6973 23.7824 98.9791 28.0772 103.147H31.3879Z" fill="white" fill-opacity="0.3"/>
<path d="M31.3879 103.147C28.6141 95.9254 22.6191 93.6973 22.6191 93.6973C22.6191 93.6973 23.7824 98.9791 28.0772 103.147H31.3879Z" fill="white" fill-opacity="0.3"/>
<path fill-rule="evenodd" clip-rule="evenodd" d="M22.7763 93.2549C22.7602 93.2511 22.7431 93.2514 22.6806 93.2417C22.1819 93.2065 22.1367 93.8086 22.1367 93.8086C22.9696 97.3338 24.9002 100.657 27.5635 103.313C27.5929 103.342 27.6187 103.368 27.6423 103.393C27.7758 103.531 27.8392 103.596 28.0781 103.606H31.3888C31.9036 103.586 31.8638 103.008 31.8248 102.907C30.2351 98.8279 27.1409 95.1075 22.9785 93.3413C22.8214 93.2746 22.7999 93.2604 22.7763 93.2549ZM28.2932 102.688C26.0027 100.403 24.3705 97.5942 23.3982 94.6195C23.3657 94.5193 23.4068 94.5859 23.4068 94.5859C26.7103 96.3725 29.2404 99.331 30.6713 102.688L28.2932 102.688Z" fill="#000E87" fill-opacity="0.75"/>
<path fill-rule="evenodd" clip-rule="evenodd" d="M36.0855 103.147C38.6356 98.8139 38.412 91.7578 38.412 91.7578C32.1486 97.4109 32.8197 103.147 32.8197 103.147H36.0855Z" fill="#33FAE3"/>
<path d="M36.0855 103.147C38.6356 98.8139 38.412 91.7578 38.412 91.7578C32.1486 97.4109 32.8197 103.147 32.8197 103.147H36.0855Z" fill="white" fill-opacity="0.3"/>
<path fill-rule="evenodd" clip-rule="evenodd" d="M38.9132 92.8844C38.9527 92.1345 38.993 91.3718 38.4598 91.3013C38.2151 91.291 38.0695 91.4247 37.9199 91.5622L37.9161 91.5657C34.9873 94.2558 32.7365 97.8626 32.3531 101.672C32.2649 102.55 32.1813 103.578 32.8208 103.607H36.0865C36.4159 103.592 36.5551 103.313 36.5551 103.313C38.277 100.329 38.7753 96.7235 38.8969 93.2301C38.9009 93.1169 38.907 93.0008 38.9132 92.8844ZM33.2979 102.667C33.2963 99.0363 35.2352 95.6174 37.8796 92.9289C37.9471 92.8608 37.9105 92.9179 37.9105 92.9179C37.8192 96.3017 37.4148 99.7505 35.7859 102.688L33.2979 102.667Z" fill="#000E87" fill-opacity="0.75"/>
<path d="M34.1233 92.3532C34.5774 92.3769 34.5717 93.2911 34.5736 93.8059C34.5618 94.099 34.0173 94.1669 33.9695 93.7566C33.9609 93.6833 33.952 93.6101 33.9429 93.5369C33.918 93.3432 33.8914 93.1497 33.8622 92.9564C33.8156 92.649 33.8001 92.3486 34.1233 92.3532Z" fill="#000E87" fill-opacity="0.75"/>
<path d="M31.4842 95.8985C31.9554 95.9275 31.7245 96.8589 31.5986 97.4089C31.5151 97.7128 30.9631 97.7017 31.0373 97.093C31.065 96.8702 31.0955 96.6477 31.1289 96.4255C31.1665 96.1782 31.2118 95.8921 31.4842 95.8985Z" fill="#000E87" fill-opacity="0.75"/>
<path d="M42.1438 93.9976C42.6411 94.0252 42.2013 94.9826 41.8696 95.4998C41.6998 95.7422 41.1827 95.5608 41.3787 95.1714C41.4123 95.1046 41.4454 95.0375 41.4785 94.9705C41.5655 94.7926 41.6509 94.6141 41.7339 94.4345C41.8323 94.222 41.8942 93.9927 42.1438 93.9976Z" fill="#000E87" fill-opacity="0.75"/>
<path d="M27.524 92.3818C27.98 92.4004 28.0769 93.1796 28.2274 93.7095C28.2872 93.961 27.8224 94.2171 27.6613 93.8802C27.3872 93.2391 26.895 92.379 27.524 92.3818Z" fill="#000E87" fill-opacity="0.75"/>
<path d="M36.2533 98.2611C36.7535 98.2979 36.358 99.2761 36.0974 99.781C35.9597 100.023 35.404 99.9415 35.5762 99.4951C35.603 99.4257 35.6292 99.3561 35.6554 99.2865C35.7244 99.1021 35.7912 98.917 35.8559 98.7312C35.9354 98.5024 35.9862 98.2514 36.2533 98.2611Z" fill="#000E87" fill-opacity="0.75"/>
<path d="M26.0584 97.7785C26.4824 97.8019 26.7536 98.4367 27.0445 98.8811C27.1885 99.1206 26.7678 99.4303 26.5527 99.1913C26.1108 98.6612 25.4285 98.0205 25.9175 97.8051C25.9614 97.7859 25.9833 97.777 26.0584 97.7785Z" fill="#000E87" fill-opacity="0.75"/>
<path d="M42.3271 99.9105C42.5948 99.9196 42.7395 100.18 42.3752 100.535C42.2078 100.698 42.039 100.858 41.8676 101.017C41.7444 101.131 41.6329 101.277 41.4811 101.303C41.2404 101.345 41.0128 101.028 41.2172 100.836C41.4258 100.647 41.6309 100.456 41.8327 100.261C41.9868 100.113 42.1004 99.9101 42.3271 99.9105Z" fill="#000E87" fill-opacity="0.75"/>
<rect width="19.3856" height="2.86079" transform="matrix(-1 0 0 1 42.5078 106.312)" fill="white" fill-opacity="0.3"/>
<rect width="19.3856" height="2.86079" transform="matrix(-1 0 0 1 42.5078 106.312)" fill="white" fill-opacity="0.3"/>
<path d="M140.151 113.614L125.221 113.62C123.37 113.621 121.868 112.237 121.868 110.53L121.854 81.4051C121.853 79.6975 123.353 78.3125 125.204 78.3117L126.98 78.311L140.134 78.3057C141.985 78.3049 143.486 79.6887 143.487 81.3961L143.501 110.521C143.502 112.228 142.002 113.613 140.151 113.614Z" fill="white"/>
<path fill-rule="evenodd" clip-rule="evenodd" d="M143.984 81.3505C143.944 79.4623 142.163 77.8809 140.182 77.8469C135.175 77.8199 130.182 77.822 125.154 77.8532C123.074 77.8903 121.367 79.5652 121.355 81.4041C121.356 84.6423 121.35 87.8805 121.345 91.1187C121.333 97.6045 121.321 104.09 121.369 110.576C121.41 112.488 123.222 114.069 125.219 114.08C126.877 114.079 128.534 114.081 130.192 114.084C133.528 114.089 136.864 114.094 140.2 114.073C142.273 114.036 143.987 112.363 143.998 110.522C143.997 107.284 144.002 104.046 144.008 100.808C144.019 94.3223 144.03 87.8363 143.984 81.3505ZM126.298 78.7453C126.525 78.7581 126.751 78.7707 126.979 78.7706C128.438 78.77 129.896 78.7667 131.355 78.7633C134.293 78.7565 137.231 78.7497 140.17 78.7655C141.711 78.792 142.959 80.006 142.988 81.3625C143.057 91.0932 143.064 100.825 143.002 110.555C142.973 111.978 141.65 113.129 140.186 113.155C135.185 113.187 130.184 113.187 125.183 113.161C123.641 113.134 122.393 111.921 122.364 110.564C122.292 100.833 122.288 91.102 122.35 81.3712C122.372 80.2971 123.13 79.3144 124.189 78.9426C124.964 78.6705 125.637 78.7083 126.298 78.7453Z" fill="#000E87" fill-opacity="0.75"/>
<path d="M125.842 111.788C124.706 111.788 123.785 110.939 123.785 109.892L123.771 82.6663C123.771 81.4734 124.819 80.5059 126.112 80.5053L139.226 80.5C140.519 80.4994 141.568 81.466 141.568 82.6589L141.581 109.885C141.582 110.932 140.662 111.782 139.526 111.782L125.842 111.788Z" fill="white" fill-opacity="0.3"/>
<path d="M128.411 79.2339L127.436 78.3112L138.469 78.3066L137.549 79.2104C137.228 79.5251 136.781 79.7038 136.313 79.704L129.627 79.7067C129.169 79.7069 128.73 79.5363 128.411 79.2339Z" fill="white"/>
<path fill-rule="evenodd" clip-rule="evenodd" d="M138.797 78.5899C139.031 78.3359 138.852 77.9411 138.513 77.8954L138.47 77.8936L127.436 77.8981C127.042 77.916 126.879 78.3537 127.115 78.6L128.092 79.5236C128.488 79.8941 129.038 80.1105 129.601 80.1201C131.847 80.1326 134.094 80.1313 136.341 80.1173C137.284 80.0999 137.929 79.4556 138.58 78.8048C138.652 78.733 138.724 78.6611 138.797 78.5899ZM129.596 79.2932C129.143 79.2802 128.798 79.0072 128.499 78.7243L137.435 78.7205L137.225 78.9266C136.997 79.1475 136.677 79.2803 136.346 79.2905C134.097 79.3321 131.846 79.3316 129.596 79.2932Z" fill="#000E87" fill-opacity="0.75"/>
<path d="M134.406 111.508C134.628 111.527 134.623 111.588 134.663 111.676C134.739 111.842 134.601 112.053 134.388 112.059L131.551 112.06C131.394 112.056 131.382 112.02 131.336 111.977C131.178 111.826 131.282 111.517 131.551 111.509C132.502 111.509 133.455 111.482 134.406 111.508Z" fill="#000E87" fill-opacity="0.75"/>
<path fill-rule="evenodd" clip-rule="evenodd" d="M132.694 91.8292V90.7635C132.694 90.5261 132.485 90.334 132.228 90.334C131.97 90.334 131.762 90.5261 131.762 90.7635V91.8292C131.762 92.0666 131.97 92.2591 132.228 92.2591C132.485 92.2591 132.694 92.0666 132.694 91.8292Z" fill="#5DBBFF"/>
<path fill-rule="evenodd" clip-rule="evenodd" d="M130.83 91.8284V87.25C130.83 87.0126 130.622 86.8203 130.364 86.8203C130.107 86.8203 129.898 87.0126 129.898 87.25V91.8284C129.898 92.0658 130.107 92.2583 130.364 92.2583C130.622 92.2583 130.83 92.0658 130.83 91.8284Z" fill="#5DBBFF"/>
<path fill-rule="evenodd" clip-rule="evenodd" d="M128.967 91.8288V85.1875C128.967 84.9503 128.758 84.7578 128.501 84.7578C128.244 84.7578 128.035 84.9503 128.035 85.1875V91.8288C128.035 92.0661 128.244 92.2586 128.501 92.2586C128.758 92.2586 128.967 92.0661 128.967 91.8288Z" fill="#5DBBFF"/>
<path fill-rule="evenodd" clip-rule="evenodd" d="M126.759 92.259C127.016 92.259 127.225 92.0664 127.225 91.8291V89.7619C127.225 89.5245 127.016 89.332 126.759 89.332C126.502 89.332 126.293 89.5245 126.293 89.7619V91.8291C126.293 92.0664 126.502 92.259 126.759 92.259Z" fill="#5DBBFF"/>
<path fill-rule="evenodd" clip-rule="evenodd" d="M131.467 97.2605H126.601C126.337 97.2605 126.123 97.063 126.123 96.8196V96.1479C126.123 95.9045 126.337 95.707 126.601 95.707H131.467C131.731 95.707 131.945 95.9045 131.945 96.1479V96.8196C131.945 97.063 131.731 97.2605 131.467 97.2605Z" fill="#5DBBFF"/>
<path fill-rule="evenodd" clip-rule="evenodd" d="M136.899 100.341H126.601C126.337 100.341 126.123 100.143 126.123 99.8997V99.228C126.123 98.9844 126.337 98.7871 126.601 98.7871H136.899C137.163 98.7871 137.377 98.9844 137.377 99.228V99.8997C137.377 100.143 137.163 100.341 136.899 100.341Z" fill="#5DBBFF"/>
<path d="M132.694 91.8292V90.7635C132.694 90.5261 132.485 90.334 132.228 90.334C131.97 90.334 131.762 90.5261 131.762 90.7635V91.8292C131.762 92.0666 131.97 92.2591 132.228 92.2591C132.485 92.2591 132.694 92.0666 132.694 91.8292Z" fill="white" fill-opacity="0.3"/>
<path d="M130.83 91.8284V87.25C130.83 87.0126 130.622 86.8203 130.364 86.8203C130.107 86.8203 129.898 87.0126 129.898 87.25V91.8284C129.898 92.0658 130.107 92.2583 130.364 92.2583C130.622 92.2583 130.83 92.0658 130.83 91.8284Z" fill="white" fill-opacity="0.3"/>
<path d="M128.967 91.8288V85.1875C128.967 84.9503 128.758 84.7578 128.501 84.7578C128.244 84.7578 128.035 84.9503 128.035 85.1875V91.8288C128.035 92.0661 128.244 92.2586 128.501 92.2586C128.758 92.2586 128.967 92.0661 128.967 91.8288Z" fill="white" fill-opacity="0.3"/>
<path d="M126.759 92.259C127.016 92.259 127.225 92.0664 127.225 91.8291V89.7619C127.225 89.5245 127.016 89.332 126.759 89.332C126.502 89.332 126.293 89.5245 126.293 89.7619V91.8291C126.293 92.0664 126.502 92.259 126.759 92.259Z" fill="white" fill-opacity="0.3"/>
<path d="M131.467 97.2605H126.601C126.337 97.2605 126.123 97.063 126.123 96.8196V96.1479C126.123 95.9045 126.337 95.707 126.601 95.707H131.467C131.731 95.707 131.945 95.9045 131.945 96.1479V96.8196C131.945 97.063 131.731 97.2605 131.467 97.2605Z" fill="white" fill-opacity="0.3"/>
<path d="M136.899 100.341H126.601C126.337 100.341 126.123 100.143 126.123 99.8997V99.228C126.123 98.9844 126.337 98.7871 126.601 98.7871H136.899C137.163 98.7871 137.377 98.9844 137.377 99.228V99.8997C137.377 100.143 137.163 100.341 136.899 100.341Z" fill="white" fill-opacity="0.3"/>
<path d="M132.694 91.8292V90.7635C132.694 90.5261 132.485 90.334 132.228 90.334C131.97 90.334 131.762 90.5261 131.762 90.7635V91.8292C131.762 92.0666 131.97 92.2591 132.228 92.2591C132.485 92.2591 132.694 92.0666 132.694 91.8292Z" fill="white" fill-opacity="0.3"/>
<path d="M130.83 91.8284V87.25C130.83 87.0126 130.622 86.8203 130.364 86.8203C130.107 86.8203 129.898 87.0126 129.898 87.25V91.8284C129.898 92.0658 130.107 92.2583 130.364 92.2583C130.622 92.2583 130.83 92.0658 130.83 91.8284Z" fill="white" fill-opacity="0.3"/>
<path d="M128.967 91.8288V85.1875C128.967 84.9503 128.758 84.7578 128.501 84.7578C128.244 84.7578 128.035 84.9503 128.035 85.1875V91.8288C128.035 92.0661 128.244 92.2586 128.501 92.2586C128.758 92.2586 128.967 92.0661 128.967 91.8288Z" fill="white" fill-opacity="0.3"/>
<path d="M126.759 92.259C127.016 92.259 127.225 92.0664 127.225 91.8291V89.7619C127.225 89.5245 127.016 89.332 126.759 89.332C126.502 89.332 126.293 89.5245 126.293 89.7619V91.8291C126.293 92.0664 126.502 92.259 126.759 92.259Z" fill="white" fill-opacity="0.3"/>
<path d="M131.467 97.2605H126.601C126.337 97.2605 126.123 97.063 126.123 96.8196V96.1479C126.123 95.9045 126.337 95.707 126.601 95.707H131.467C131.731 95.707 131.945 95.9045 131.945 96.1479V96.8196C131.945 97.063 131.731 97.2605 131.467 97.2605Z" fill="white" fill-opacity="0.3"/>
<path d="M136.899 100.341H126.601C126.337 100.341 126.123 100.143 126.123 99.8997V99.228C126.123 98.9844 126.337 98.7871 126.601 98.7871H136.899C137.163 98.7871 137.377 98.9844 137.377 99.228V99.8997C137.377 100.143 137.163 100.341 136.899 100.341Z" fill="white" fill-opacity="0.3"/>
<path d="M132.694 91.8292V90.7635C132.694 90.5261 132.485 90.334 132.228 90.334C131.97 90.334 131.762 90.5261 131.762 90.7635V91.8292C131.762 92.0666 131.97 92.2591 132.228 92.2591C132.485 92.2591 132.694 92.0666 132.694 91.8292Z" fill="white" fill-opacity="0.3"/>
<path d="M130.83 91.8284V87.25C130.83 87.0126 130.622 86.8203 130.364 86.8203C130.107 86.8203 129.898 87.0126 129.898 87.25V91.8284C129.898 92.0658 130.107 92.2583 130.364 92.2583C130.622 92.2583 130.83 92.0658 130.83 91.8284Z" fill="white" fill-opacity="0.3"/>
<path d="M128.967 91.8288V85.1875C128.967 84.9503 128.758 84.7578 128.501 84.7578C128.244 84.7578 128.035 84.9503 128.035 85.1875V91.8288C128.035 92.0661 128.244 92.2586 128.501 92.2586C128.758 92.2586 128.967 92.0661 128.967 91.8288Z" fill="white" fill-opacity="0.3"/>
<path d="M126.759 92.259C127.016 92.259 127.225 92.0664 127.225 91.8291V89.7619C127.225 89.5245 127.016 89.332 126.759 89.332C126.502 89.332 126.293 89.5245 126.293 89.7619V91.8291C126.293 92.0664 126.502 92.259 126.759 92.259Z" fill="white" fill-opacity="0.3"/>
<path d="M131.467 97.2605H126.601C126.337 97.2605 126.123 97.063 126.123 96.8196V96.1479C126.123 95.9045 126.337 95.707 126.601 95.707H131.467C131.731 95.707 131.945 95.9045 131.945 96.1479V96.8196C131.945 97.063 131.731 97.2605 131.467 97.2605Z" fill="white" fill-opacity="0.3"/>
<path d="M136.899 100.341H126.601C126.337 100.341 126.123 100.143 126.123 99.8997V99.228C126.123 98.9844 126.337 98.7871 126.601 98.7871H136.899C137.163 98.7871 137.377 98.9844 137.377 99.228V99.8997C137.377 100.143 137.163 100.341 136.899 100.341Z" fill="white" fill-opacity="0.3"/>
<path d="M132.694 91.8292V90.7635C132.694 90.5261 132.485 90.334 132.228 90.334C131.97 90.334 131.762 90.5261 131.762 90.7635V91.8292C131.762 92.0666 131.97 92.2591 132.228 92.2591C132.485 92.2591 132.694 92.0666 132.694 91.8292Z" fill="white" fill-opacity="0.3"/>
<path d="M130.83 91.8284V87.25C130.83 87.0126 130.622 86.8203 130.364 86.8203C130.107 86.8203 129.898 87.0126 129.898 87.25V91.8284C129.898 92.0658 130.107 92.2583 130.364 92.2583C130.622 92.2583 130.83 92.0658 130.83 91.8284Z" fill="white" fill-opacity="0.3"/>
<path d="M128.967 91.8288V85.1875C128.967 84.9503 128.758 84.7578 128.501 84.7578C128.244 84.7578 128.035 84.9503 128.035 85.1875V91.8288C128.035 92.0661 128.244 92.2586 128.501 92.2586C128.758 92.2586 128.967 92.0661 128.967 91.8288Z" fill="white" fill-opacity="0.3"/>
<path d="M126.759 92.259C127.016 92.259 127.225 92.0664 127.225 91.8291V89.7619C127.225 89.5245 127.016 89.332 126.759 89.332C126.502 89.332 126.293 89.5245 126.293 89.7619V91.8291C126.293 92.0664 126.502 92.259 126.759 92.259Z" fill="white" fill-opacity="0.3"/>
<path d="M131.467 97.2605H126.601C126.337 97.2605 126.123 97.063 126.123 96.8196V96.1479C126.123 95.9045 126.337 95.707 126.601 95.707H131.467C131.731 95.707 131.945 95.9045 131.945 96.1479V96.8196C131.945 97.063 131.731 97.2605 131.467 97.2605Z" fill="white" fill-opacity="0.3"/>
<path d="M136.899 100.341H126.601C126.337 100.341 126.123 100.143 126.123 99.8997V99.228C126.123 98.9844 126.337 98.7871 126.601 98.7871H136.899C137.163 98.7871 137.377 98.9844 137.377 99.228V99.8997C137.377 100.143 137.163 100.341 136.899 100.341Z" fill="white" fill-opacity="0.3"/>
<path d="M155.344 105.745H138.331C136.571 105.745 135.145 104.429 135.145 102.806V90.5736C135.145 88.9505 136.571 87.6348 138.331 87.6348H155.344C157.104 87.6348 158.53 88.9505 158.53 90.5736V102.806C158.53 104.429 157.104 105.745 155.344 105.745Z" fill="white"/>
<path fill-rule="evenodd" clip-rule="evenodd" d="M159.026 90.5299C158.989 88.695 157.29 87.209 155.39 87.1757C149.687 87.1419 143.984 87.1419 138.282 87.1757C136.292 87.2105 134.658 88.7981 134.645 90.5722C134.645 91.9331 134.642 93.2941 134.639 94.6551C134.633 97.3866 134.627 100.118 134.646 102.849C134.683 104.68 136.417 106.193 138.328 106.204C140.22 106.204 142.112 106.207 144.004 106.211C147.8 106.218 151.595 106.225 155.39 106.204C157.38 106.168 159.014 104.57 159.027 102.807C159.027 101.449 159.03 100.091 159.033 98.7331C159.039 95.9986 159.046 93.2642 159.026 90.5299ZM135.641 90.5414C135.669 89.2021 136.93 88.1022 138.331 88.0939C140.222 88.0939 142.112 88.0902 144.003 88.0865C147.795 88.0791 151.586 88.0717 155.378 88.0941C156.811 88.1191 158.005 89.2631 158.031 90.5414C158.06 94.6401 158.06 98.7391 158.031 102.838C158.004 104.161 156.764 105.261 155.378 105.285C149.683 105.318 143.989 105.318 138.295 105.285C136.843 105.259 135.668 104.112 135.641 102.838C135.613 98.7391 135.613 94.6401 135.641 90.5414Z" fill="#000E87" fill-opacity="0.75"/>
<path fill-rule="evenodd" clip-rule="evenodd" d="M146.229 91.2051V96.5444L140.679 99.5643C140.281 98.8005 140.059 97.9445 140.059 97.0407C140.059 93.8467 142.779 91.2517 146.229 91.2051Z" fill="#FFCE93"/>
<path fill-rule="evenodd" clip-rule="evenodd" d="M153.119 97.26C153.119 100.462 150.305 103.058 146.833 103.058C144.559 103.058 142.567 101.945 141.463 100.277L146.833 97.2599L153.119 97.26Z" fill="#7C76BB"/>
<path fill-rule="evenodd" clip-rule="evenodd" d="M153.58 96.1187H147.293V90.3203C150.765 90.3203 153.58 92.9162 153.58 96.1187Z" fill="#FF9490"/>
<path d="M80.4512 17.5027C80.7231 17.5153 80.8594 17.9377 80.5334 18.0407C79.9637 18.1934 79.3865 18.3213 78.813 18.4614C78.5205 18.526 78.284 18.047 78.6465 17.9324C79.2495 17.7708 79.8589 17.5011 80.4512 17.5027Z" fill="#000E87" fill-opacity="0.75"/>
<path d="M76.2191 13.8733C76.3882 13.8838 76.5212 14.029 76.5014 14.1862C76.4127 14.6917 76.2988 15.1931 76.1974 15.6966C76.1341 15.9741 75.5674 15.9316 75.6078 15.6084C75.6966 15.1029 75.8104 14.6015 75.9119 14.098C75.9416 13.9675 76.0678 13.8701 76.2191 13.8733Z" fill="#000E87" fill-opacity="0.75"/>
<path d="M78.6631 15.2294C78.8921 15.2391 79.034 15.5165 78.8809 15.6859C78.4731 16.0996 78.0472 16.4976 77.6303 16.9034C77.4145 17.1049 76.9618 16.7831 77.1882 16.5329C77.5959 16.1192 78.0219 15.7211 78.4387 15.3154C78.4988 15.2593 78.5506 15.2289 78.6631 15.2294Z" fill="#000E87" fill-opacity="0.75"/>
<path d="M75.1861 23.7881V59.2603C75.1861 61.2018 73.4795 62.776 71.3745 62.776H23.6222C21.5173 62.776 19.8105 61.2018 19.8105 59.2603V23.7881H75.1861Z" fill="white"/>
<path fill-rule="evenodd" clip-rule="evenodd" d="M75.646 23.6116C75.5386 23.4637 75.5368 23.462 75.3765 23.363L75.1859 23.3281H19.8104L19.6198 23.363L19.4583 23.4626C19.3511 23.6106 19.3501 23.6128 19.3125 23.7874V59.2604C19.3201 61.433 21.3425 63.2016 23.5664 63.2341C39.5202 63.3723 55.4761 63.3723 71.4299 63.2341C73.7504 63.2003 75.6485 61.3395 75.6834 59.3109C75.7659 51.4129 75.7385 43.5144 75.7111 35.616C75.6975 31.6731 75.6838 27.7302 75.6838 23.7874L75.646 23.6116ZM20.2815 35.9244C20.2949 32.0318 20.3082 28.1391 20.3082 24.2466H74.688V59.2589C74.6822 60.9143 73.1308 62.2907 71.4173 62.3159C58.0368 62.4317 44.6554 62.3863 31.2743 62.3409C28.7164 62.3323 26.1584 62.3236 23.6004 62.316C21.8118 62.3004 20.3355 60.8743 20.3084 59.2993C20.2282 51.5079 20.2549 43.7162 20.2815 35.9244Z" fill="#000E87" fill-opacity="0.75"/>
<path fill-rule="evenodd" clip-rule="evenodd" d="M75.1861 22.3209V23.7884H19.8105V22.3209C19.8105 20.571 21.3486 19.1533 23.246 19.1533H71.7521C73.6492 19.1533 75.1861 20.571 75.1861 22.3209Z" fill="#7C76BB"/>
<path fill-rule="evenodd" clip-rule="evenodd" d="M75.6838 22.3194C75.6701 20.3631 73.8486 18.73 71.8027 18.6944C55.6003 18.5993 39.3972 18.5993 23.195 18.6944C21.0708 18.7315 19.3254 20.4406 19.3125 22.3194V23.7883L19.3503 23.9641L19.4583 24.1131C19.6188 24.2119 19.6212 24.2128 19.8104 24.2476H75.1859C75.3751 24.2128 75.3775 24.2119 75.538 24.1131L75.646 23.9641L75.6838 23.7883V22.3194ZM20.3079 22.3222C20.3182 20.8268 21.7121 19.6214 23.247 19.6124C28.6371 19.6124 34.0273 19.6019 39.4175 19.5913C50.2083 19.5703 60.9991 19.5492 71.7895 19.6126C72.9972 19.6337 74.1049 20.3694 74.5096 21.3892C74.7081 21.8896 74.6997 22.4363 74.6911 22.9899C74.6894 23.1028 74.6876 23.2159 74.6876 23.329H20.3079V22.3222Z" fill="#000E87" fill-opacity="0.75"/>
<path d="M25.7138 21.7408C25.7138 22.1245 25.3765 22.4357 24.9604 22.4357C24.5442 22.4357 24.207 22.1245 24.207 21.7408C24.207 21.3571 24.5442 21.0459 24.9604 21.0459C25.3765 21.0459 25.7138 21.3571 25.7138 21.7408Z" fill="white"/>
<path d="M33.497 21.7408C33.497 22.1245 33.1597 22.4357 32.7436 22.4357C32.3274 22.4357 31.9902 22.1245 31.9902 21.7408C31.9902 21.3571 32.3274 21.0459 32.7436 21.0459C33.1597 21.0459 33.497 21.3571 33.497 21.7408Z" fill="white"/>
<path d="M29.6045 21.7408C29.6045 22.1245 29.2671 22.4357 28.8511 22.4357C28.4348 22.4357 28.0977 22.1245 28.0977 21.7408C28.0977 21.3571 28.4348 21.0459 28.8511 21.0459C29.2671 21.0459 29.6045 21.3571 29.6045 21.7408Z" fill="white"/>
<path d="M71.699 20.6817C72.427 20.6944 73.0817 21.2723 73.0914 21.966C73.0958 22.2717 72.5177 22.344 72.4924 21.9344C72.4624 21.5386 72.0529 21.284 71.6332 21.2292C71.3544 21.1827 71.2765 20.6791 71.699 20.6817Z" fill="#000E87" fill-opacity="0.75"/>
<path fill-rule="evenodd" clip-rule="evenodd" d="M37.5872 41.646H36.3638C36.1802 41.646 36.0312 41.5086 36.0312 41.3393V34.0648C36.0312 33.8952 36.1802 33.7578 36.3638 33.7578H37.5872C37.7711 33.7578 37.9198 33.8952 37.9198 34.0648V41.3393C37.9198 41.5086 37.7711 41.646 37.5872 41.646Z" fill="#FFCE93"/>
<path fill-rule="evenodd" clip-rule="evenodd" d="M38.3196 34.0472C38.3052 33.6995 37.982 33.4033 37.6076 33.3903C37.1874 33.3855 36.767 33.3855 36.3467 33.3903C35.9711 33.4035 35.6489 33.7015 35.6348 34.0472C35.6009 36.4833 35.6009 38.9201 35.6348 41.3562C35.663 42.042 36.5857 42.0281 37.4389 42.0153C37.4955 42.0144 37.5517 42.0135 37.6074 42.0129C37.985 41.9999 38.3054 41.7012 38.3196 41.3562C38.3524 38.9201 38.3524 36.4833 38.3196 34.0472ZM36.4307 41.2782V34.1248H37.5226V41.2782H36.4307Z" fill="#000E87" fill-opacity="0.75"/>
<path d="M41.2907 41.6458H40.2151C39.9906 41.6458 39.8086 41.478 39.8086 41.2708V38.1181C39.8086 37.9109 39.9906 37.7432 40.2151 37.7432H41.2907C41.5151 37.7432 41.6974 37.9109 41.6974 38.1181V41.2708C41.6974 41.478 41.5151 41.6458 41.2907 41.6458Z" fill="white"/>
<path fill-rule="evenodd" clip-rule="evenodd" d="M42.0938 38.0992C42.0776 37.7065 41.7205 37.3907 41.3095 37.3762C40.9373 37.372 40.5651 37.372 40.1928 37.3762C39.7668 37.3911 39.4137 37.7322 39.4086 38.1159C39.4086 38.467 39.407 38.818 39.4055 39.1691C39.4023 39.8761 39.3992 40.583 39.4088 41.2899C39.4403 42.0525 40.2906 42.0343 41.0779 42.0175C41.156 42.0158 41.2335 42.0142 41.3095 42.0133C41.7353 41.9984 42.0886 41.6573 42.094 41.2734C42.094 40.9223 42.0956 40.5712 42.0972 40.2201C42.1004 39.5132 42.1036 38.8062 42.0938 38.0992ZM40.205 38.1171C40.2056 38.1132 40.2098 38.1108 40.2158 38.1108H41.2862C41.2924 38.1108 41.2972 38.1152 41.2972 38.1208V41.2687C41.2972 41.2744 41.2928 41.2788 41.2862 41.2788H40.2158C40.2088 41.2788 40.205 41.274 40.205 41.2687C40.205 40.9185 40.1938 40.5679 40.1826 40.2172C40.1602 39.516 40.1377 38.8147 40.205 38.1171Z" fill="#000E87" fill-opacity="0.75"/>
<path fill-rule="evenodd" clip-rule="evenodd" d="M45.1168 41.6461H43.9436C43.7461 41.6461 43.5859 41.4984 43.5859 41.316V32.1817C43.5859 31.9994 43.7461 31.8516 43.9436 31.8516H45.1168C45.3144 31.8516 45.4745 31.9994 45.4745 32.1817V41.316C45.4745 41.4984 45.3144 41.6461 45.1168 41.6461Z" fill="#FF679B"/>
<path fill-rule="evenodd" clip-rule="evenodd" d="M45.8723 32.1634C45.8575 31.8035 45.5229 31.4975 45.1358 31.4839C44.7319 31.4793 44.3278 31.4793 43.9239 31.4839C43.5336 31.4975 43.2022 31.8063 43.1875 32.1634C43.1458 35.2198 43.1458 38.277 43.1875 41.3334C43.1988 41.6095 43.391 41.8646 43.666 41.9646C43.9375 42.0634 44.3289 42.0454 44.7261 42.0271C44.8635 42.0208 45.0017 42.0144 45.1358 42.0129C45.5259 41.9993 45.8575 41.6905 45.8723 41.3334C45.9139 38.277 45.9139 35.2198 45.8723 32.1634ZM43.9843 41.2783V32.2185H45.0763V41.2783H43.9843Z" fill="#000E87" fill-opacity="0.75"/>
<path fill-rule="evenodd" clip-rule="evenodd" d="M48.8713 41.6456H47.7439C47.5338 41.6456 47.3633 41.4883 47.3633 41.2944V27.7885C47.3633 27.5947 47.5338 27.4375 47.7439 27.4375H48.8713C49.0816 27.4375 49.2521 27.5947 49.2521 27.7885V41.2944C49.2521 41.4883 49.0816 41.6456 48.8713 41.6456Z" fill="#5DBBFF"/>
<path fill-rule="evenodd" clip-rule="evenodd" d="M49.6502 27.7705C49.635 27.3999 49.2903 27.0846 48.8912 27.0707C48.502 27.0663 48.1131 27.0663 47.7239 27.0707C47.3219 27.0848 46.9805 27.4026 46.9652 27.7705C46.9022 32.2844 46.9022 36.7993 46.9652 41.3131C46.9771 41.6028 47.1836 41.8708 47.476 41.9696C47.7425 42.0596 48.1188 42.043 48.5002 42.0262C48.6313 42.0205 48.7631 42.0147 48.8912 42.0132C49.2931 41.9992 49.6352 41.6812 49.6502 41.3131C49.7131 36.7993 49.7131 32.2844 49.6502 27.7705ZM47.7617 41.2787V27.8054H48.8539V41.2787H47.7617Z" fill="#000E87" fill-opacity="0.75"/>
<path fill-rule="evenodd" clip-rule="evenodd" d="M52.2054 41.6461H51.4646C51.1475 41.6461 50.8906 41.4089 50.8906 41.1167V36.2423C50.8906 35.9499 51.1475 35.7129 51.4646 35.7129H52.2054C52.5225 35.7129 52.7794 35.9499 52.7794 36.2423V41.1167C52.7794 41.4089 52.5225 41.6461 52.2054 41.6461Z" fill="#FF9490"/>
<path fill-rule="evenodd" clip-rule="evenodd" d="M53.1756 36.2196C53.1563 35.7523 52.7261 35.3636 52.2284 35.346C51.9649 35.343 51.7013 35.343 51.4378 35.346C50.9228 35.3641 50.497 35.7769 50.4904 36.2402C50.4904 36.7829 50.4879 37.3258 50.4854 37.8686C50.4804 38.9591 50.4755 40.0496 50.4906 41.1399C50.5227 41.9186 51.4326 42.0227 52.2284 42.0135C52.7434 41.9954 53.1692 41.5832 53.1758 41.1193C53.1758 40.5766 53.1783 40.0337 53.1808 39.4909C53.1858 38.4004 53.1908 37.3099 53.1756 36.2196ZM51.2872 36.2381C51.2908 36.1529 51.3712 36.0816 51.4654 36.0805C51.5412 36.0805 51.6214 36.0778 51.7015 36.0752C52.032 36.0641 52.3618 36.0531 52.3788 36.2297C52.4905 37.8584 52.4461 39.4948 52.3792 41.1256C52.3748 41.1884 52.3302 41.2451 52.268 41.2677C52.1533 41.3096 51.3123 41.384 51.2878 41.1298C51.2037 39.9046 51.233 38.6756 51.2623 37.4473C51.272 37.0441 51.2816 36.641 51.2872 36.2381Z" fill="#000E87" fill-opacity="0.75"/>
<path fill-rule="evenodd" clip-rule="evenodd" d="M56.445 41.6458H55.2834C55.0826 41.6458 54.9199 41.4957 54.9199 41.3103V29.9798C54.9199 29.7946 55.0826 29.6445 55.2834 29.6445H56.445C56.6458 29.6445 56.8087 29.7946 56.8087 29.9798V41.3103C56.8087 41.4957 56.6458 41.6458 56.445 41.6458Z" fill="#33FAE3"/>
<path fill-rule="evenodd" clip-rule="evenodd" d="M57.2058 29.9614C57.1911 29.6003 56.8541 29.2906 56.4636 29.277C56.0633 29.2722 55.6632 29.2722 55.2629 29.277C54.8699 29.2906 54.5357 29.6018 54.5208 29.9614C54.4696 33.7501 54.4696 37.5394 54.5208 41.328C54.5324 41.6061 54.7259 41.8633 55.003 41.964C55.302 42.0727 55.6803 42.0512 56.0572 42.0297C56.1941 42.0219 56.3309 42.0142 56.4636 42.0126C56.8664 41.9985 57.1911 41.6871 57.2058 41.328C57.2592 37.5394 57.2592 33.7501 57.2058 29.9614ZM55.3164 41.2779V30.0115H56.4086V41.2779H55.3164Z" fill="#000E87" fill-opacity="0.75"/>
<path d="M63.0759 43.1627C63.4513 43.179 63.6461 43.8723 63.0759 43.8971C62.4104 43.9068 61.5323 44.0071 61.6906 43.4386C61.7934 43.0692 62.5004 43.1544 63.0759 43.1627Z" fill="#000E87" fill-opacity="0.75"/>
<path d="M60.634 43.168C61.0096 43.2558 61.1288 43.855 60.5684 43.8978H31.7065C31.2843 43.8655 31.1602 43.2048 31.7065 43.1631H60.5684C60.5903 43.1647 60.612 43.1664 60.634 43.168Z" fill="#000E87" fill-opacity="0.75"/>
<path fill-rule="evenodd" clip-rule="evenodd" d="M55.3535 45.415H56.3945C56.6287 45.415 56.8183 45.5901 56.8183 45.8059V50.991C56.8183 51.207 56.6287 51.3819 56.3945 51.3819H55.3535C55.1195 51.3819 54.9297 51.207 54.9297 50.991V45.8059C54.9297 45.5901 55.1195 45.415 55.3535 45.415Z" fill="#5DBBFF"/>
<path fill-rule="evenodd" clip-rule="evenodd" d="M57.2168 45.7867C57.2002 45.3857 56.836 45.063 56.416 45.0481C56.0549 45.0439 55.6938 45.0439 55.3328 45.0481C54.8978 45.0633 54.5372 45.4125 54.5318 45.804C54.5318 46.3808 54.5292 46.9577 54.5266 47.5346C54.5215 48.6933 54.5163 49.852 54.532 51.0107C54.5637 51.7747 55.4814 51.7621 56.2949 51.7509C56.3356 51.7503 56.376 51.7498 56.416 51.7493C56.8507 51.7341 57.2116 51.3861 57.217 50.9934C57.217 50.4166 57.2195 49.8397 57.2221 49.2628C57.2273 48.1041 57.2325 46.9454 57.2168 45.7867ZM55.3277 45.8055C55.3283 45.7925 55.3409 45.7829 55.3558 45.7827C55.4714 45.7827 55.587 45.7814 55.7026 45.78C55.9338 45.7773 56.1649 45.7746 56.3958 45.7827C56.4097 45.7837 56.4197 45.7956 56.4197 45.8084C56.4197 46.3845 56.4276 46.9607 56.4355 47.5369C56.4514 48.6893 56.4672 49.8416 56.4197 50.9927C56.4187 51.0056 56.4058 51.0148 56.3918 51.0148C56.2762 51.0148 56.1606 51.0161 56.045 51.0175C55.8138 51.0202 55.5825 51.0229 55.3516 51.0148C55.3379 51.0139 55.3277 51.0019 55.3277 50.9891C55.3277 50.4131 55.3251 49.8371 55.3226 49.2611C55.3174 48.1091 55.3122 46.9572 55.3277 45.8055Z" fill="#000E87" fill-opacity="0.75"/>
<path d="M51.6393 45.415H52.5542C52.823 45.415 53.0411 45.6162 53.0411 45.8642V48.8686C53.0411 49.1168 52.823 49.3177 52.5542 49.3177H51.6393C51.3702 49.3177 51.1523 49.1168 51.1523 48.8686V45.8642C51.1523 45.6162 51.3702 45.415 51.6393 45.415Z" fill="white"/>
<path fill-rule="evenodd" clip-rule="evenodd" d="M53.4395 45.8431C53.4217 45.4173 53.0292 45.0637 52.5771 45.0477C52.2571 45.044 51.9368 45.044 51.6168 45.0477C51.148 45.0642 50.7602 45.4395 50.7543 45.8616C50.7543 46.1964 50.7527 46.5313 50.7512 46.8661C50.748 47.5405 50.7449 48.215 50.7545 48.8894C50.7877 49.7022 51.7592 49.6943 52.5771 49.6848C53.0451 49.6682 53.4339 49.2924 53.4397 48.8708C53.4397 48.536 53.4412 48.2012 53.4426 47.8664C53.4456 47.1919 53.4486 46.5175 53.4395 45.8431ZM51.5514 45.8596C51.5542 45.8176 51.594 45.783 51.6424 45.7825C51.7466 45.7825 51.8605 45.7778 51.9728 45.7731C52.3149 45.759 52.6434 45.7455 52.6434 45.8666C52.6434 46.2004 52.6449 46.5343 52.6464 46.8681C52.6495 47.5357 52.6525 48.2033 52.6434 48.8709C52.6416 48.9109 52.6069 48.9454 52.5643 48.9498C52.1592 48.9831 51.5512 49.0279 51.5512 48.8663C51.5512 48.5327 51.5467 48.1991 51.5422 47.8655C51.5332 47.1967 51.5242 46.5278 51.5514 45.8596Z" fill="#000E87" fill-opacity="0.75"/>
<path fill-rule="evenodd" clip-rule="evenodd" d="M47.8476 45.415H48.7912C49.0521 45.415 49.2638 45.6101 49.2638 45.8509V56.0033C49.2638 56.2441 49.0521 56.4392 48.7912 56.4392H47.8476C47.5865 56.4392 47.375 56.2441 47.375 56.0033V45.8509C47.375 45.6101 47.5865 45.415 47.8476 45.415Z" fill="#FFCE93"/>
<path fill-rule="evenodd" clip-rule="evenodd" d="M49.6607 45.8303C49.6434 45.4117 49.2577 45.0634 48.8124 45.0478C48.4829 45.044 48.1535 45.044 47.8241 45.0478C47.3629 45.064 46.9813 45.433 46.9756 45.8485C46.9756 46.9775 46.9704 48.1065 46.9653 49.2356C46.9551 51.4984 46.9448 53.7613 46.9758 56.0239C47.0086 56.824 47.9883 56.8156 48.8124 56.8064C49.2732 56.79 49.6554 56.4203 49.6609 56.0057C49.6609 54.8767 49.6661 53.7477 49.6712 52.6186C49.6814 50.3558 49.6917 48.0929 49.6607 45.8303ZM47.7715 45.8489C47.7731 45.8129 47.8068 45.783 47.8484 45.7825C47.9595 45.7825 48.0821 45.777 48.2025 45.7716C48.5417 45.7564 48.8637 45.7419 48.8637 45.8534C48.8637 46.9813 48.8688 48.1093 48.8739 49.2374C48.8842 51.4934 48.8945 53.7495 48.8637 56.0054C48.8623 56.0386 48.8352 56.0665 48.7993 56.0713C48.3877 56.1147 47.7715 56.1545 47.7715 56.001C47.7715 54.873 47.7664 53.745 47.7612 52.617C47.751 50.3609 47.7407 48.1048 47.7715 45.8489Z" fill="#000E87" fill-opacity="0.75"/>
<path fill-rule="evenodd" clip-rule="evenodd" d="M44.0438 45.415H45.0403C45.2867 45.415 45.4864 45.5993 45.4864 45.8265V58.6165C45.4864 58.8435 45.2867 59.0278 45.0403 59.0278H44.0438C43.7974 59.0278 43.5977 58.8435 43.5977 58.6165V45.8265C43.5977 45.5993 43.7974 45.415 44.0438 45.415Z" fill="#FF9490"/>
<path fill-rule="evenodd" clip-rule="evenodd" d="M45.8837 45.8066C45.867 45.401 45.4932 45.063 45.061 45.048C44.7145 45.0439 44.368 45.0439 44.0215 45.048C43.5744 45.0636 43.2043 45.4214 43.1985 45.8242C43.1985 47.2463 43.1919 48.6683 43.1852 50.0904C43.1719 52.9393 43.1585 55.7881 43.1987 58.6366C43.2309 59.4177 44.1838 59.4059 45.0059 59.3958C45.0244 59.3955 45.0429 59.3953 45.0612 59.3951C45.5077 59.3795 45.8782 59.0216 45.8839 58.619C45.8839 57.197 45.8906 55.7749 45.8972 54.3528C45.9105 51.504 45.9239 48.6551 45.8837 45.8066ZM43.9956 45.8239C43.997 45.8012 44.0185 45.7828 44.0458 45.7824C44.1655 45.7824 44.2994 45.777 44.4302 45.7717C44.7689 45.758 45.0876 45.7452 45.0876 45.8289C45.0876 47.2499 45.0943 48.6709 45.101 50.0919C45.1143 52.934 45.1277 55.7761 45.0876 58.6178C45.0866 58.6385 45.0699 58.6564 45.0476 58.6599C44.6166 58.7155 43.9954 58.732 43.9954 58.6141C43.9954 57.1935 43.9761 55.7726 43.9567 54.3516C43.9179 51.5081 43.8792 48.6647 43.9956 45.8239Z" fill="#000E87" fill-opacity="0.75"/>
<path fill-rule="evenodd" clip-rule="evenodd" d="M40.4489 45.415H41.5805C41.7896 45.415 41.9591 45.5714 41.9591 45.7642V50.999C41.9591 51.1919 41.7896 51.3482 41.5805 51.3482H40.4489C40.2398 51.3482 40.0703 51.1919 40.0703 50.999V45.7642C40.0703 45.5714 40.2398 45.415 40.4489 45.415Z" fill="#FF679B"/>
<path fill-rule="evenodd" clip-rule="evenodd" d="M42.3596 45.7454C42.3445 45.3758 42.0005 45.0613 41.6028 45.0474C41.2123 45.0428 40.8219 45.0428 40.4314 45.0474C40.0305 45.0613 39.6898 45.3786 39.6746 45.7454C39.6501 47.5024 39.6501 49.26 39.6746 51.017C39.6862 51.3006 39.8837 51.5625 40.1663 51.6654C40.4519 51.7692 40.8303 51.7497 41.2077 51.7302C41.3409 51.7233 41.474 51.7164 41.6028 51.715C42.0137 51.7005 42.3447 51.3831 42.3596 51.017C42.3841 49.26 42.3841 47.5024 42.3596 45.7454ZM40.4707 50.9804V45.782H41.5629V50.9804H40.4707Z" fill="#000E87" fill-opacity="0.75"/>
<path fill-rule="evenodd" clip-rule="evenodd" d="M36.553 45.415H37.504C37.7866 45.415 38.0158 45.6265 38.0158 45.8873V48.887C38.0158 49.1478 37.7866 49.3592 37.504 49.3592H36.553C36.2702 49.3592 36.041 49.1478 36.041 48.887V45.8873C36.041 45.6265 36.2702 45.415 36.553 45.415Z" fill="#33FAE3"/>
<path fill-rule="evenodd" clip-rule="evenodd" d="M38.4139 45.8658C38.3958 45.4281 37.9927 45.064 37.5273 45.0478C37.1947 45.044 36.8623 45.044 36.5297 45.0478C36.0472 45.0647 35.6487 45.4505 35.6427 45.8849C35.6427 46.2192 35.6412 46.5536 35.6397 46.8879C35.6367 47.5615 35.6337 48.235 35.6429 48.9084C35.6775 49.7448 36.6791 49.7363 37.5273 49.7264C38.0088 49.7093 38.4081 49.3228 38.4141 48.8893C38.4141 48.555 38.4156 48.2207 38.4171 47.8863C38.4201 47.2128 38.4231 46.5392 38.4139 45.8658ZM36.4394 45.8816C36.4431 45.8276 36.4943 45.7832 36.5555 45.7824C36.6612 45.7824 36.7757 45.7779 36.8892 45.7734C37.2592 45.7588 37.6174 45.7446 37.6174 45.8897C37.6174 46.223 37.6189 46.5564 37.6204 46.8897C37.6234 47.5565 37.6264 48.2232 37.6174 48.8899C37.6152 48.9412 37.5706 48.9854 37.516 48.9913C37.0733 49.0275 36.4392 49.0776 36.4392 48.8846C36.4392 48.5515 36.4346 48.2183 36.43 47.8851C36.4209 47.217 36.4117 46.549 36.4394 45.8816Z" fill="#000E87" fill-opacity="0.75"/>
<path d="M22.3196 59.1006C22.574 59.1127 22.5725 59.4347 22.665 59.6512C22.8437 60.0688 23.5026 60.0422 23.6608 60.2361C23.8064 60.4146 23.6436 60.6928 23.3318 60.6746C22.6364 60.6341 22.0209 60.0653 22.0115 59.3929C22.0092 59.236 22.1452 59.0985 22.3196 59.1006Z" fill="#000E87" fill-opacity="0.75"/>
<path d="M27.0911 32.4997H24.8701C24.423 32.4997 24.0605 32.1654 24.0605 31.7532V29.7045C24.0605 29.2923 24.423 28.958 24.8701 28.958H27.0911C27.5382 28.958 27.9004 29.2923 27.9004 29.7045V31.7532C27.9004 32.1654 27.5382 32.4997 27.0911 32.4997Z" fill="#D5D4EA"/>
<path d="M27.0911 37.6785H24.8701C24.423 37.6785 24.0605 37.3441 24.0605 36.9319V34.8832C24.0605 34.471 24.423 34.1367 24.8701 34.1367H27.0911C27.5382 34.1367 27.9004 34.471 27.9004 34.8832V36.9319C27.9004 37.3441 27.5382 37.6785 27.0911 37.6785Z" fill="#D5D4EA"/>
<path d="M27.0911 42.8913H24.8701C24.423 42.8913 24.0605 42.557 24.0605 42.1448V40.0961C24.0605 39.6839 24.423 39.3496 24.8701 39.3496H27.0911C27.5382 39.3496 27.9004 39.6839 27.9004 40.0961V42.1448C27.9004 42.557 27.5382 42.8913 27.0911 42.8913Z" fill="#D5D4EA"/>
<path fill-rule="evenodd" clip-rule="evenodd" d="M65.1456 39.5703V82.5116H51.3887V39.9043C51.3887 39.7909 51.3954 39.6807 51.4072 39.5703H65.1456Z" fill="#7C76BB"/>
<path fill-rule="evenodd" clip-rule="evenodd" d="M65.6434 39.5696C65.6145 39.2656 65.5908 39.2061 65.2319 39.1173L65.1455 39.1104H51.4071C50.8999 39.1537 50.8959 39.47 50.8919 39.794C50.8917 39.8143 50.8914 39.8346 50.891 39.8548C50.7851 49.3375 50.8203 58.8207 50.8555 68.3039C50.8731 73.0396 50.8907 77.7753 50.8907 82.5109C50.9229 82.8516 50.985 82.9376 51.3885 82.9701H65.1455C65.5149 82.9403 65.6081 82.883 65.6434 82.5109V39.5696ZM64.6477 40.0288V82.0517H51.8865V40.0288H64.6477Z" fill="#000E87" fill-opacity="0.75"/>
<path d="M100.921 113.701L76.0686 113.707C75.1416 113.707 74.437 112.938 74.5917 112.095L77.7911 94.6533H99.1999L102.398 112.089C102.552 112.931 101.848 113.7 100.921 113.701Z" fill="#D5D4EA"/>
<path fill-rule="evenodd" clip-rule="evenodd" d="M99.691 94.576C99.6199 94.3056 99.5867 94.2604 99.2698 94.198C99.2465 94.1963 99.2234 94.1948 99.2001 94.1934H77.7913C77.4613 94.2147 77.3836 94.2588 77.3003 94.576L74.1007 112.019C73.9064 113.125 74.8942 114.143 76.0403 114.165C84.3434 114.215 92.6471 114.217 100.95 114.159C102.151 114.135 103.059 113.075 102.893 112.038C102.21 108.153 101.489 104.275 100.768 100.397C100.408 98.4566 100.047 96.5167 99.691 94.576ZM77.1398 100.795C77.502 98.9013 77.8641 97.0076 78.2119 95.1118H98.7791L101.907 112.163C102.003 112.71 101.519 113.221 100.951 113.24C92.6486 113.402 84.3411 113.408 76.0393 113.247C75.4706 113.228 75.0033 112.715 75.0782 112.198C75.6882 108.385 76.414 104.59 77.1398 100.795Z" fill="#000E87" fill-opacity="0.75"/>
<path d="M129.494 82.5117V87.8296C129.494 91.5991 126.182 94.652 122.097 94.652H54.8966C50.8119 94.652 47.5 91.5991 47.5 87.8296V82.5117H129.494Z" fill="#D5D4EA"/>
<path fill-rule="evenodd" clip-rule="evenodd" d="M129.955 82.3352C129.848 82.1873 129.846 82.1857 129.686 82.0867L129.495 82.0518H47.5018C47.3126 82.0865 47.3102 82.0874 47.1497 82.1862L47.0417 82.3352L47.0039 82.511V87.8296C47.0178 91.8742 50.7807 95.075 54.8474 95.1103C77.2815 95.1735 99.7157 95.1735 122.15 95.1103C126.408 95.0734 129.953 91.6784 129.993 87.8758C129.997 86.6769 129.996 85.478 129.995 84.279C129.994 83.6896 129.993 83.1003 129.993 82.511L129.955 82.3352ZM47.9983 84.5842C47.9989 84.0462 47.9995 83.5082 47.9995 82.9702H128.997V87.8281C128.986 91.3239 125.721 94.1608 122.143 94.1919C99.7136 94.255 77.2833 94.255 54.8534 94.1919C51.0742 94.1592 48.0333 91.133 47.9997 87.87C47.9958 86.7748 47.997 85.6795 47.9983 84.5842Z" fill="#000E87" fill-opacity="0.75"/>
<path d="M129.494 59.8308V82.5111H47.5V38.9056C47.5 35.3091 50.5996 32.3936 54.4234 32.3936H123.243C126.695 32.3936 129.494 35.0258 129.494 38.2727V55.8073" fill="white"/>
<path d="M123.287 31.9346C126.819 31.966 129.981 34.8221 129.992 38.2721V55.8074C129.928 56.1061 129.794 56.1641 129.685 56.2317L129.494 56.2666L129.304 56.2317L129.142 56.1322C129.035 55.9841 129.034 55.9819 128.996 55.8074C128.996 49.9508 129.015 44.0942 128.996 38.2378C128.968 35.476 126.468 32.9003 123.318 32.8533C100.341 32.649 77.3607 32.7868 54.3824 32.8531C51.0284 32.8832 48.0098 35.6336 47.9985 38.9064V82.052H128.996V59.831C129.022 59.7116 129.029 59.5758 129.304 59.4066L129.494 59.3717L129.685 59.4066L129.846 59.5062C129.953 59.6543 129.954 59.6565 129.992 59.831V82.5112L129.954 82.687L129.846 82.836L129.685 82.9355L129.494 82.9704H47.5006L47.31 82.9355C47.1497 82.8365 47.1479 82.8349 47.0406 82.687L47.0027 82.5112C47.0027 67.9611 46.9525 53.4108 47.0029 38.8607C47.0384 35.2989 50.2907 31.9716 54.376 31.9346C77.3462 31.8685 100.317 31.8678 123.287 31.9346Z" fill="#000E87" fill-opacity="0.75"/>
<path d="M47.5015 82.0518C47.9741 82.0527 48.2385 82.9651 47.5047 82.9702C47.1615 82.9726 46.8745 82.5828 47.0703 82.2773C47.1743 82.1149 47.4814 82.0518 47.5015 82.0518Z" fill="#000E87" fill-opacity="0.75"/>
<path d="M125.735 38.6257V39.5699H51.2598V38.6257C51.2598 36.8935 52.7813 35.4883 54.6593 35.4883H122.334C124.212 35.4883 125.735 36.8935 125.735 38.6257Z" fill="white" fill-opacity="0.3"/>
<path fill-rule="evenodd" clip-rule="evenodd" d="M126.233 38.624C126.22 36.6616 124.409 35.0646 122.384 35.0292C99.7926 34.8965 77.2002 34.8965 54.609 35.0292C52.6863 35.0628 51.0254 36.4814 50.793 38.1681C50.7919 38.1759 50.7908 38.1835 50.7898 38.1909C50.7717 38.3216 50.7634 38.3814 50.7617 38.624V39.5696L50.7996 39.7454C50.9069 39.8933 50.9087 39.8949 51.069 39.9939L51.2596 40.0288H125.735L125.926 39.9939C125.934 39.9887 125.943 39.9834 125.952 39.9782C126.056 39.9158 126.174 39.845 126.233 39.5696V38.624ZM51.7571 38.6271C51.7672 37.1487 53.142 35.9562 54.6603 35.9474C62.1802 35.9474 69.7002 35.9327 77.2201 35.918C92.2705 35.8887 107.321 35.8593 122.371 35.9476C123.196 35.9621 123.993 36.3034 124.529 36.8734C125.085 37.4658 125.237 38.2924 125.237 39.1105H51.7571V38.6271Z" fill="#000E87" fill-opacity="0.75"/>
<rect width="74.4756" height="42.9413" transform="matrix(-1 0 0 1 125.734 39.5703)" fill="white"/>
<path fill-rule="evenodd" clip-rule="evenodd" d="M125.953 39.161C125.944 39.1558 125.936 39.1505 125.927 39.1453L125.736 39.1104H51.2609L51.0703 39.1453C50.91 39.2443 50.9082 39.2459 50.8009 39.3938L50.763 39.5696V82.5109L50.8009 82.6867C50.9082 82.8345 50.91 82.8362 51.0703 82.9352L51.2609 82.9701H125.736L125.927 82.9352L126.089 82.8356L126.197 82.6867L126.234 82.5109V39.5696C126.175 39.2942 126.057 39.2234 125.953 39.161ZM51.7595 82.0517V40.0288H125.239V82.0517H51.7595Z" fill="#000E87" fill-opacity="0.75"/>
<path d="M59.7341 64.8574C60.1897 64.9016 60.3337 65.6627 59.7028 65.6831H54.1633C54.0231 65.6785 53.9737 65.6535 53.8998 65.6041C53.6029 65.4051 53.6927 64.8717 54.1633 64.8564H59.7028C59.7131 64.8568 59.7237 64.8572 59.7341 64.8574Z" fill="#D5D4EA"/>
<path d="M62.1565 67.4585C62.5333 67.5019 62.5508 67.6679 62.566 67.8362C62.5867 68.0654 62.4266 68.2719 62.1195 68.2836H54.1798C53.7222 68.2662 53.5355 67.4816 54.1798 67.457H62.1195C62.1318 67.4576 62.1442 67.4579 62.1565 67.4585Z" fill="#D5D4EA"/>
<path d="M62.087 70.0568C62.5253 70.0785 62.6944 70.853 62.087 70.8831C61.3772 70.8947 60.5479 71.0008 60.2962 70.7516C60.0681 70.5256 60.2402 70.075 60.6082 70.0568C61.1011 70.0488 61.594 70.0488 62.087 70.0568Z" fill="#D5D4EA"/>
<path d="M58.8978 70.0583C59.3553 70.0988 59.4911 70.8656 58.8692 70.8839H54.1311C53.718 70.8716 53.7262 70.7506 53.6888 70.5366C53.6475 70.3015 53.858 70.0654 54.1311 70.0573C55.7199 70.0573 57.3098 70.0112 58.8978 70.0583Z" fill="#D5D4EA"/>
<path d="M62.1066 72.6587C62.4292 72.6958 62.4209 72.7803 62.4798 72.9045C62.6009 73.1589 62.4229 73.4704 62.0696 73.4838H54.1546C53.8049 73.4704 53.8093 73.3734 53.7443 73.2366C53.6254 72.987 53.8383 72.6694 54.1546 72.6572H62.0696C62.0819 72.6578 62.0943 72.6581 62.1066 72.6587Z" fill="#D5D4EA"/>
<path fill-rule="evenodd" clip-rule="evenodd" d="M80.7566 43.9927V56.1752C80.7566 56.5711 80.408 56.8924 79.9789 56.8924C79.5483 56.8924 79.2012 56.5711 79.2012 56.1752V43.9927C79.2012 43.5967 79.5483 43.2754 79.9789 43.2754C80.1936 43.2754 80.3881 43.356 80.5287 43.4855C80.6691 43.615 80.7566 43.7947 80.7566 43.9927Z" fill="#5DBBFF"/>
<path fill-rule="evenodd" clip-rule="evenodd" d="M83.8093 43.9927V56.1752C83.8093 56.5711 83.4608 56.8924 83.0316 56.8924C82.6022 56.8924 82.2539 56.5711 82.2539 56.1752V43.9927C82.2539 43.5967 82.6022 43.2754 83.0316 43.2754C83.2463 43.2754 83.4411 43.356 83.5815 43.4855C83.7219 43.615 83.8093 43.7947 83.8093 43.9927Z" fill="#5DBBFF"/>
<path fill-rule="evenodd" clip-rule="evenodd" d="M86.8634 43.9927V56.1752C86.8634 56.1837 86.8634 56.191 86.8622 56.1997C86.8489 56.5845 86.5057 56.8924 86.0843 56.8924C85.6552 56.8924 85.3066 56.5711 85.3066 56.1752V43.9927C85.3066 43.5967 85.6552 43.2754 86.0843 43.2754C86.3004 43.2754 86.4938 43.356 86.6356 43.4855C86.776 43.615 86.8634 43.7947 86.8634 43.9927Z" fill="#5DBBFF"/>
<path fill-rule="evenodd" clip-rule="evenodd" d="M89.9142 43.9927V56.1752C89.9142 56.5711 89.5657 56.8924 89.1365 56.8924C88.7059 56.8924 88.3574 56.5711 88.3574 56.1752V43.9927C88.3574 43.5967 88.7059 43.2754 89.1365 43.2754C89.351 43.2754 89.5458 43.356 89.6862 43.4855C89.8268 43.615 89.9142 43.7947 89.9142 43.9927Z" fill="#5DBBFF"/>
<path fill-rule="evenodd" clip-rule="evenodd" d="M92.9675 43.9927V56.1752C92.9675 56.5711 92.6192 56.8924 92.1898 56.8924C91.7604 56.8924 91.4121 56.5711 91.4121 56.1752V43.9927C91.4121 43.5967 91.7604 43.2754 92.1898 43.2754C92.4045 43.2754 92.5991 43.356 92.7397 43.4855C92.8803 43.615 92.9675 43.7947 92.9675 43.9927Z" fill="#5DBBFF"/>
<path d="M80.7566 43.9927V56.1752C80.7566 56.5711 80.408 56.8924 79.9789 56.8924C79.5483 56.8924 79.2012 56.5711 79.2012 56.1752V43.9927C79.2012 43.5967 79.5483 43.2754 79.9789 43.2754C80.1936 43.2754 80.3881 43.356 80.5287 43.4855C80.6691 43.615 80.7566 43.7947 80.7566 43.9927Z" fill="white" fill-opacity="0.3"/>
<path d="M83.8093 43.9927V56.1752C83.8093 56.5711 83.4608 56.8924 83.0316 56.8924C82.6022 56.8924 82.2539 56.5711 82.2539 56.1752V43.9927C82.2539 43.5967 82.6022 43.2754 83.0316 43.2754C83.2463 43.2754 83.4411 43.356 83.5815 43.4855C83.7219 43.615 83.8093 43.7947 83.8093 43.9927Z" fill="white" fill-opacity="0.3"/>
<path d="M86.8634 43.9927V56.1752C86.8634 56.1837 86.8634 56.191 86.8622 56.1997C86.8489 56.5845 86.5057 56.8924 86.0843 56.8924C85.6552 56.8924 85.3066 56.5711 85.3066 56.1752V43.9927C85.3066 43.5967 85.6552 43.2754 86.0843 43.2754C86.3004 43.2754 86.4938 43.356 86.6356 43.4855C86.776 43.615 86.8634 43.7947 86.8634 43.9927Z" fill="white" fill-opacity="0.3"/>
<path d="M89.9142 43.9927V56.1752C89.9142 56.5711 89.5657 56.8924 89.1365 56.8924C88.7059 56.8924 88.3574 56.5711 88.3574 56.1752V43.9927C88.3574 43.5967 88.7059 43.2754 89.1365 43.2754C89.351 43.2754 89.5458 43.356 89.6862 43.4855C89.8268 43.615 89.9142 43.7947 89.9142 43.9927Z" fill="white" fill-opacity="0.3"/>
<path d="M92.9675 43.9927V56.1752C92.9675 56.5711 92.6192 56.8924 92.1898 56.8924C91.7604 56.8924 91.4121 56.5711 91.4121 56.1752V43.9927C91.4121 43.5967 91.7604 43.2754 92.1898 43.2754C92.4045 43.2754 92.5991 43.356 92.7397 43.4855C92.8803 43.615 92.9675 43.7947 92.9675 43.9927Z" fill="white" fill-opacity="0.3"/>
<path d="M80.7566 46.1414V56.1755C80.7566 56.5716 80.408 56.8928 79.9789 56.8928C79.5483 56.8928 79.2012 56.5716 79.2012 56.1755V46.1414C79.2012 45.7443 79.5483 45.4229 79.9789 45.4229C80.1936 45.4229 80.3881 45.5035 80.5287 45.633C80.6691 45.7625 80.7566 45.9434 80.7566 46.1414Z" fill="white" fill-opacity="0.3"/>
<path d="M83.8093 49.8843V56.1755C83.8093 56.5714 83.4608 56.8926 83.0316 56.8926C82.6022 56.8926 82.2539 56.5714 82.2539 56.1755V49.8843C82.2539 49.4885 82.6022 49.167 83.0316 49.167C83.2463 49.167 83.4411 49.2476 83.5815 49.3771C83.7219 49.5066 83.8093 49.6863 83.8093 49.8843Z" fill="white" fill-opacity="0.3"/>
<path d="M86.8622 47.8872V56.1994C86.8489 56.5844 86.5057 56.8923 86.0845 56.8923C85.6552 56.8923 85.3066 56.571 85.3066 56.1752V47.8872C85.3066 47.4912 85.6552 47.1699 86.0845 47.1699C86.299 47.1699 86.4938 47.2506 86.6342 47.3801C86.7748 47.5096 86.8622 47.6892 86.8622 47.8872Z" fill="white" fill-opacity="0.3"/>
<path d="M89.9142 54.0448V56.1748C89.9142 56.5707 89.5657 56.892 89.1365 56.892C88.7059 56.892 88.3574 56.5707 88.3574 56.1748V54.0448C88.3574 53.6476 88.7059 53.3262 89.1365 53.3262C89.351 53.3262 89.5458 53.4068 89.6862 53.5363C89.8268 53.666 89.9142 53.8468 89.9142 54.0448Z" fill="white" fill-opacity="0.3"/>
<path d="M92.9675 50.1346V56.1753C92.9675 56.5711 92.6192 56.8924 92.1898 56.8924C91.7604 56.8924 91.4121 56.5711 91.4121 56.1753V50.1346C91.4121 49.7375 91.7604 49.416 92.1898 49.416C92.4045 49.416 92.5991 49.4967 92.7397 49.6262C92.8803 49.7558 92.9675 49.9366 92.9675 50.1346Z" fill="white" fill-opacity="0.3"/>
<path d="M80.7566 46.1414V56.1755C80.7566 56.5716 80.408 56.8928 79.9789 56.8928C79.5483 56.8928 79.2012 56.5716 79.2012 56.1755V46.1414C79.2012 45.7443 79.5483 45.4229 79.9789 45.4229C80.1936 45.4229 80.3881 45.5035 80.5287 45.633C80.6691 45.7625 80.7566 45.9434 80.7566 46.1414Z" fill="white" fill-opacity="0.3"/>
<path d="M83.8093 49.8843V56.1755C83.8093 56.5714 83.4608 56.8926 83.0316 56.8926C82.6022 56.8926 82.2539 56.5714 82.2539 56.1755V49.8843C82.2539 49.4885 82.6022 49.167 83.0316 49.167C83.2463 49.167 83.4411 49.2476 83.5815 49.3771C83.7219 49.5066 83.8093 49.6863 83.8093 49.8843Z" fill="white" fill-opacity="0.3"/>
<path d="M86.8622 47.8872V56.1994C86.8489 56.5844 86.5057 56.8923 86.0845 56.8923C85.6552 56.8923 85.3066 56.571 85.3066 56.1752V47.8872C85.3066 47.4912 85.6552 47.1699 86.0845 47.1699C86.299 47.1699 86.4938 47.2506 86.6342 47.3801C86.7748 47.5096 86.8622 47.6892 86.8622 47.8872Z" fill="white" fill-opacity="0.3"/>
<path d="M89.9142 54.0448V56.1748C89.9142 56.5707 89.5657 56.892 89.1365 56.892C88.7059 56.892 88.3574 56.5707 88.3574 56.1748V54.0448C88.3574 53.6476 88.7059 53.3262 89.1365 53.3262C89.351 53.3262 89.5458 53.4068 89.6862 53.5363C89.8268 53.666 89.9142 53.8468 89.9142 54.0448Z" fill="white" fill-opacity="0.3"/>
<path d="M92.9675 50.1346V56.1753C92.9675 56.5711 92.6192 56.8924 92.1898 56.8924C91.7604 56.8924 91.4121 56.5711 91.4121 56.1753V50.1346C91.4121 49.7375 91.7604 49.416 92.1898 49.416C92.4045 49.416 92.5991 49.4967 92.7397 49.6262C92.8803 49.7558 92.9675 49.9366 92.9675 50.1346Z" fill="white" fill-opacity="0.3"/>
<path d="M118.231 52.2594C118.231 54.7724 116.063 56.8187 113.357 56.893C113.274 56.8953 113.205 56.8344 113.205 56.7574V55.5259C113.205 55.4534 113.267 55.3939 113.346 55.3909C115.157 55.323 116.603 53.9471 116.603 52.2594C116.603 50.5808 115.172 49.2107 113.374 49.1295C113.28 49.1252 113.205 49.0542 113.205 48.9671V47.7902C113.205 47.6978 113.288 47.6238 113.388 47.6271C116.079 47.7161 118.231 49.7562 118.231 52.2594Z" fill="white" fill-opacity="0.3"/>
<path d="M108.522 52.2115C108.55 54.7404 106.34 56.8429 103.599 56.8919C101.273 56.9338 99.2989 55.5174 98.6788 53.5669C98.6527 53.485 98.7029 53.3954 98.7907 53.3678L100.001 52.9874C100.097 52.9571 100.2 53.0089 100.227 53.0993C100.624 54.4217 101.939 55.3921 103.499 55.3921C105.374 55.3921 106.895 53.9904 106.895 52.26C106.895 50.5296 105.374 49.1273 103.499 49.1273C102.859 49.1273 102.26 49.2906 101.749 49.575C101.657 49.6262 101.54 49.6204 101.457 49.5581L100.543 48.8775C100.414 48.7813 100.418 48.5972 100.553 48.5072C101.381 47.9532 102.398 47.627 103.499 47.627C106.256 47.627 108.493 49.6749 108.522 52.2115Z" fill="white" fill-opacity="0.3"/>
<path fill-rule="evenodd" clip-rule="evenodd" d="M102.771 65.3252V78.1168H78.1758V74.5347L81.2822 72.7046L83.1819 73.6196L88.3583 69.4404L91.5525 70.1575L95.8672 68.9184L97.6791 69.5199L102.771 65.3252Z" fill="#5DBBFF"/>
<path d="M102.771 65.3252V78.1168H78.1758V74.5347L81.2822 72.7046L83.1819 73.6196L88.3583 69.4404L91.5525 70.1575L95.8672 68.9184L97.6791 69.5199L102.771 65.3252Z" fill="white" fill-opacity="0.3"/>
<path d="M102.771 65.3252V78.1168H78.1758V74.5347L81.2822 72.7046L83.1819 73.6196L88.3583 69.4404L91.5525 70.1575L95.8672 68.9184L97.6791 69.5199L102.771 65.3252Z" fill="white" fill-opacity="0.3"/>
<path d="M102.827 64.8465C103.172 64.9106 103.329 65.3171 103.069 65.5647L97.9774 69.7602C97.7763 69.9048 97.751 69.8998 97.5271 69.8408L95.856 69.2861L91.6847 70.4834C91.6847 70.4834 91.6009 70.5152 91.4456 70.4904L88.4784 69.8247L83.4754 73.8624C83.4754 73.8624 83.2593 74.0341 82.9728 73.9177L81.3042 73.1131L78.4161 74.815C78.4161 74.815 78.0453 74.961 77.8356 74.7365C77.6683 74.5576 77.7201 74.2652 77.9338 74.1184L81.0406 72.2876C81.259 72.1766 81.2813 72.1847 81.4893 72.2696L83.1161 73.0539L88.0631 69.0614C88.0631 69.0614 88.2019 68.9292 88.4642 68.9709L91.5368 69.6601L95.7331 68.4556C95.7331 68.4556 95.775 68.3967 96.0181 68.4613L97.5795 68.9797L102.472 64.9482C102.472 64.9482 102.49 64.829 102.827 64.8465Z" fill="#000E87" fill-opacity="0.75"/>
<path d="M78.2384 64.9833C78.555 65.0469 78.6012 65.1137 78.6228 65.3924V77.6353H102.77C102.77 77.6353 102.998 77.6605 103.109 77.7781C103.325 78.0084 103.157 78.4364 102.77 78.462H78.1747C77.99 78.4498 77.9843 78.427 77.9325 78.3964C77.8138 78.326 77.7435 78.2658 77.7266 78.0486V65.3924C77.7602 64.9576 77.9432 64.9638 78.2384 64.9833Z" fill="#000E87" fill-opacity="0.75"/>
<path d="M113.336 69.8056C113.802 69.8508 113.922 70.6115 113.305 70.6313H107.766C107.511 70.623 107.459 70.538 107.394 70.4491C107.213 70.202 107.375 69.8174 107.766 69.8047H113.305C113.315 69.8051 113.326 69.8054 113.336 69.8056Z" fill="#000E87" fill-opacity="0.75"/>
<path d="M115.76 72.4067C116.118 72.4479 116.139 72.6059 116.165 72.7506C116.208 72.9889 116.045 73.2196 115.723 73.2319H107.783C107.54 73.2227 107.52 73.1652 107.453 73.0985C107.222 72.8665 107.398 72.42 107.783 72.4053H115.723C115.735 72.4058 115.747 72.4062 115.76 72.4067Z" fill="#000E87" fill-opacity="0.75"/>
<path d="M115.69 75.0059C116.139 75.0281 116.252 75.8042 115.69 75.8321C114.776 75.847 113.627 76.0178 113.789 75.3312C113.9 74.8624 114.893 74.9929 115.69 75.0059Z" fill="#000E87" fill-opacity="0.75"/>
<path d="M112.5 75.0065C112.926 75.0443 112.911 75.1744 112.919 75.4057C112.927 75.6277 112.723 75.8246 112.471 75.8322H107.733C107.407 75.8224 107.405 75.7319 107.336 75.6101C107.195 75.3614 107.4 75.0155 107.733 75.0056C109.322 75.0056 110.912 74.9595 112.5 75.0065Z" fill="#000E87" fill-opacity="0.75"/>
<path d="M118.285 77.6073C118.564 77.6444 118.603 77.7526 118.65 77.847C118.773 78.0957 118.557 78.4183 118.242 78.4321H107.757C106.882 78.3937 107.314 77.6249 107.757 77.6055H118.242C118.256 77.606 118.27 77.6068 118.285 77.6073Z" fill="#000E87" fill-opacity="0.75"/>
<path d="M95.3633 95.0938H98.77L101.911 112.165C102.014 112.729 101.543 113.244 100.923 113.244H96.6176C96.6176 113.244 97.499 112.822 97.448 110.993C97.4156 109.82 95.3633 95.0938 95.3633 95.0938Z" fill="#181818" fill-opacity="0.25" style="mix-blend-mode:overlay"/>
<path d="M119.99 94.2308C119.99 94.2308 122.838 94.3908 124.6 93.7343C126.022 93.2049 127.177 92.2023 127.956 91.1705C128.45 90.5173 128.74 89.5384 128.886 88.9078C128.968 88.5537 129.007 88.1929 129.007 87.8307V82.916H125.245V87.5123C125.279 89.7194 124.751 92.0585 122.65 93.4027C122.19 93.6968 121.38 93.9845 119.99 94.2308Z" fill="#181818" fill-opacity="0.25" style="mix-blend-mode:overlay"/>
<path d="M87.1222 101.339C87.199 101.349 87.2474 101.361 87.3203 101.435L90.5449 104.933C90.6909 105.103 90.6319 105.151 90.5819 105.239C90.4901 105.401 90.2418 105.444 90.0897 105.29L86.8651 101.792C86.775 101.687 86.7909 101.65 86.7946 101.596C86.8049 101.446 86.8763 101.325 87.1222 101.339Z" fill="#000E87" fill-opacity="0.75"/>
<path d="M89.3268 101.46C89.6472 101.471 89.9966 102.029 90.3504 102.427C90.5268 102.641 90.179 103.06 89.8954 102.784C89.4267 102.293 88.7289 101.745 89.166 101.5C89.2143 101.473 89.2695 101.46 89.3268 101.46Z" fill="#000E87" fill-opacity="0.75"/>
<path d="M86.4473 102.918C86.5251 102.922 86.5967 102.952 86.6521 103.004C87.2469 103.616 87.8073 104.257 88.3849 104.883C88.5733 105.099 88.2257 105.516 87.9399 105.251C87.345 104.638 86.7847 103.998 86.2071 103.371C86.0571 103.2 86.1654 102.913 86.4473 102.918Z" fill="#000E87" fill-opacity="0.75"/>
<path d="M90.5607 88.5073C90.5607 89.6267 89.5771 90.5341 88.3635 90.5341C87.1498 90.5341 86.166 89.6267 86.166 88.5073C86.166 87.3879 87.1498 86.4805 88.3635 86.4805C89.5771 86.4805 90.5607 87.3879 90.5607 88.5073Z" fill="white"/>
<path d="M51.2812 87.6207C51.6629 87.6593 51.6179 88.2801 51.8128 88.744C52.1735 89.6023 52.838 90.345 53.6799 90.8391C53.6799 90.8391 53.8644 90.9946 53.802 91.1616C53.666 91.5244 52.9695 91.1002 52.5011 90.68C51.687 89.9491 51.1419 88.9732 50.9634 87.9386C50.9634 87.9386 50.9429 87.6073 51.2812 87.6207Z" fill="#000E87" fill-opacity="0.75"/>
<path d="M133.65 41.3478C133.8 41.3581 133.923 41.4708 133.934 41.6095C133.949 42.1738 133.934 42.7385 133.934 43.303C133.927 43.5721 133.368 43.7058 133.337 43.3164C133.322 42.7521 133.336 42.1874 133.336 41.6231C133.341 41.4683 133.452 41.3434 133.65 41.3478Z" fill="#000E87" fill-opacity="0.75"/>
<path d="M127.425 28.2362C130.839 28.2669 133.921 31.0748 133.932 34.3902V40.1225C133.893 40.6969 133.353 40.384 133.335 40.1225C133.335 38.1998 133.341 36.2771 133.335 34.3542C133.306 31.4796 130.716 28.7968 127.383 28.7871H123.365C123.158 28.7752 123.134 28.7055 123.095 28.6289C123.011 28.4638 123.15 28.2485 123.365 28.236C124.719 28.236 126.072 28.2322 127.425 28.2362Z" fill="#000E87" fill-opacity="0.75"/>
<path d="M176.551 113.214C176.821 113.241 176.845 113.312 176.914 113.397C177.125 113.656 176.932 114.105 176.551 114.13C176.539 114.131 176.527 114.131 176.515 114.131L170.141 114.133C169.63 114.116 169.439 113.238 170.14 113.214L176.515 113.213C176.527 113.213 176.539 113.214 176.551 113.214Z" fill="#000E87" fill-opacity="0.75"/>
<path d="M167.585 113.278C167.746 113.377 167.747 113.379 167.855 113.527L167.893 113.702L167.855 113.878L167.747 114.027L167.586 114.127L167.395 114.162L12.5618 114.201L12.3712 114.166L12.2097 114.066L12.1017 113.917C12.064 113.743 12.064 113.74 12.1016 113.566L12.2095 113.417L12.371 113.317L12.5615 113.282L167.395 113.243C167.458 113.255 167.522 113.267 167.585 113.278Z" fill="#000E87" fill-opacity="0.75"/>
<path d="M8.22636 113.283C8.48348 113.311 8.49923 113.37 8.56597 113.442C8.80961 113.705 8.60762 114.185 8.18761 114.2L0.458645 114.202C-0.048207 114.184 -0.249621 113.309 0.458363 113.284L8.18732 113.281C8.20027 113.282 8.21341 113.282 8.22636 113.283Z" fill="#000E87" fill-opacity="0.75"/>
</svg>
