<svg width="193" height="147" viewBox="0 0 193 147" fill="none" xmlns="http://www.w3.org/2000/svg">
<path d="M8.68067 103.395C8.98311 103.433 8.97183 103.524 8.97942 103.717C8.98657 103.901 8.8695 104.058 8.65443 104.067H3.18541C3.01283 104.06 2.99874 104.015 2.95083 103.963C2.7776 103.777 2.90053 103.406 3.18541 103.394C5.01716 103.394 6.85043 103.319 8.68067 103.395Z" fill="#181818" fill-opacity="0.2"/>
<path d="M11.0943 106.015C11.418 106.037 11.4999 106.658 11.0943 106.687C10.5382 106.699 9.98165 106.687 9.42534 106.687C9.09103 106.679 9.02816 106.041 9.41082 106.015C9.9719 106.002 10.5332 106.002 11.0943 106.015Z" fill="#181818" fill-opacity="0.2"/>
<path d="M8.22061 106.015C8.50701 106.049 8.49747 106.122 8.51872 106.312C8.53975 106.5 8.3908 106.679 8.19568 106.687H3.18389C3.01869 106.68 3.00546 106.64 2.95842 106.593C2.77522 106.41 2.89446 106.026 3.18389 106.014C4.8628 106.014 6.54301 105.949 8.22061 106.015Z" fill="#181818" fill-opacity="0.2"/>
<path d="M6.77051 108.634C7.09918 108.668 7.20996 109.29 6.74926 109.306H3.18592C2.93031 109.297 2.93096 109.212 2.88543 109.099C2.80435 108.896 2.95524 108.641 3.18592 108.634C4.38071 108.634 5.57637 108.594 6.77051 108.634Z" fill="#181818" fill-opacity="0.2"/>
<path d="M53.5153 108.734V129.433C53.5153 131.065 52.2358 132.388 50.6572 132.388H4.737C3.15868 132.388 1.87891 131.065 1.87891 129.433V93.9834H53.5153V108.734Z" fill="white"/>
<path fill-rule="evenodd" clip-rule="evenodd" d="M53.8415 93.9827C53.8233 93.8164 53.7368 93.7086 53.5887 93.655L53.5163 93.6465H1.87989C1.71577 93.6655 1.58656 93.6911 1.55469 93.9827V129.434C1.56574 131.231 3.04715 132.691 4.697 132.723C20.0307 132.827 35.3655 132.827 50.6992 132.723C52.4191 132.69 53.8101 131.175 53.8413 129.475C53.8903 121.584 53.874 113.693 53.8577 105.802C53.8496 101.862 53.8415 97.9224 53.8415 93.9827ZM2.18965 106.023C2.19756 102.121 2.20547 98.2201 2.20547 94.3188H53.1915V129.431C53.1826 130.854 52.0101 132.025 50.6913 132.051C35.363 132.154 20.0339 132.154 4.70562 132.051C3.47137 132.026 2.39495 131.017 2.22996 129.799C2.22901 129.792 2.22809 129.785 2.2272 129.778C2.2148 129.686 2.20892 129.642 2.20568 129.466C2.15796 121.652 2.1738 113.837 2.18965 106.023Z" fill="#181818" fill-opacity="0.2"/>
<path d="M44.0258 90.9443H52.8804C53.6921 90.9443 54.3503 91.6246 54.3503 92.4639C54.3503 93.3031 53.6921 93.9836 52.8804 93.9836H2.34882C1.53711 93.9836 0.878906 93.3031 0.878906 92.4639C0.878906 91.6246 1.53711 90.9443 2.34882 90.9443H41.2488" fill="white"/>
<path d="M52.9273 90.6088C54.2721 90.6534 55.2193 92.5907 54.1952 93.7283C53.8663 94.0934 53.3937 94.31 52.9043 94.3196C36.0452 94.4252 19.1855 94.4252 2.32635 94.3196C1.03118 94.2938 0.0583941 92.5322 0.91129 91.3532C1.2443 90.8928 1.78782 90.6119 2.34847 90.6081H41.2495C41.5806 90.6496 41.73 91.2203 41.2495 91.2806C28.2729 91.2806 15.2941 91.0295 2.31985 91.281C1.23714 91.3169 0.661535 93.614 2.33459 93.6474C19.1931 93.7527 36.0552 93.9834 52.9108 93.6469C53.8836 93.6153 54.4794 91.9118 53.352 91.385C53.2044 91.316 53.0427 91.2817 52.8801 91.2806H44.0265C43.7005 91.2395 43.5077 90.6733 44.0265 90.6081C46.9935 90.6081 49.9608 90.5512 52.9273 90.6088Z" fill="#181818" fill-opacity="0.2"/>
<path d="M29.785 90.9442H25.6152V90.3136C25.6152 89.1232 26.5486 88.1582 27.7002 88.1582C28.8516 88.1582 29.785 89.1232 29.785 90.3136V90.9442Z" fill="white"/>
<path fill-rule="evenodd" clip-rule="evenodd" d="M30.1075 90.2817C30.083 88.9359 28.9662 87.8465 27.7287 87.8223C26.4821 87.8142 25.4542 88.7971 25.3068 89.9968C25.3039 90.0207 25.3008 90.0451 25.2977 90.0701C25.2415 90.5189 25.165 91.1305 25.4991 91.2592C25.5015 91.2601 25.5037 91.261 25.5058 91.2619C25.5318 91.2721 25.5469 91.278 25.6127 91.2805H29.7825C30.1397 91.2674 30.1266 90.8901 30.1128 90.493C30.1103 90.4226 30.1079 90.3515 30.1075 90.2817ZM25.9385 90.3148C25.9445 89.3241 26.7654 88.5124 27.6755 88.4947C27.6983 88.4945 27.721 88.4947 27.7438 88.4952C28.7937 88.5295 29.4578 89.5323 29.4578 90.608H25.9385V90.3148Z" fill="#181818" fill-opacity="0.2"/>
<path d="M48.6922 99.9216C48.86 99.942 48.8701 99.9855 48.9139 100.038C49.0726 100.23 48.9413 100.582 48.6666 100.593H43.603C43.2595 100.579 43.131 99.9398 43.603 99.9205C45.2994 99.9205 46.997 99.8526 48.6922 99.9216Z" fill="#181818" fill-opacity="0.2"/>
<path d="M42.3079 102.346C42.6285 102.371 42.7304 102.984 42.3079 103.017C41.6083 103.035 40.908 103.018 40.2082 103.018C39.8808 103.009 39.7542 102.379 40.1919 102.346C40.897 102.327 41.6029 102.327 42.3079 102.346Z" fill="#181818" fill-opacity="0.2"/>
<path d="M48.6896 102.346C48.9348 102.375 48.9253 102.446 48.968 102.559C49.0448 102.761 48.8949 103.009 48.6653 103.018H44.0247C43.6759 103.004 43.5556 102.364 44.0247 102.345C45.5796 102.345 47.1358 102.286 48.6896 102.346Z" fill="#181818" fill-opacity="0.2"/>
<path d="M48.6969 104.773C49.0269 104.822 49.1015 105.422 48.6659 105.444H41.2483C40.6016 105.412 40.9264 104.787 41.2483 104.771H48.6659C48.6764 104.772 48.6865 104.773 48.6969 104.773Z" fill="#181818" fill-opacity="0.2"/>
<path d="M20.2566 101.595C20.4821 101.626 20.6201 101.895 20.5043 102.107L16.7927 108.295C16.6185 108.559 16.5394 108.498 16.3815 108.424C16.2107 108.343 16.1286 108.145 16.24 107.941L19.9516 101.753C20.0501 101.603 20.1234 101.589 20.2566 101.595Z" fill="#181818" fill-opacity="0.2"/>
<path fill-rule="evenodd" clip-rule="evenodd" d="M17.2088 104.736C18.6846 104.707 18.3141 101.958 17.209 101.925C15.8644 101.911 15.9524 104.495 17.0438 104.721C17.098 104.733 17.1537 104.737 17.2088 104.736ZM17.0748 104.011C16.6709 103.668 16.7106 102.612 17.1919 102.597C17.2452 102.596 17.2909 102.627 17.3289 102.663C17.8208 103.131 17.4167 104.302 17.0748 104.011Z" fill="#181818" fill-opacity="0.2"/>
<path fill-rule="evenodd" clip-rule="evenodd" d="M19.578 108.094C21.0538 108.064 20.6831 105.314 19.578 105.282C18.2386 105.268 18.3176 107.851 19.4131 108.079C19.4673 108.09 19.523 108.095 19.578 108.094ZM19.56 105.955C18.9094 105.973 19.3872 108.129 19.8263 107.164C20.0385 106.697 19.8263 105.952 19.56 105.955Z" fill="#181818" fill-opacity="0.2"/>
<path fill-rule="evenodd" clip-rule="evenodd" d="M16.2594 117.406C16.2418 117.166 16.234 117.061 15.8462 117.035C15.8344 117.035 15.8285 117.035 15.8226 117.035C15.8167 117.035 15.8108 117.036 15.7989 117.036C15.7989 117.036 15.2138 117.111 14.814 117.148C14.679 117.16 14.5387 117.168 14.3997 117.176C13.7807 117.211 13.185 117.246 13.1748 117.671C13.1748 118.128 13.1711 118.584 13.1675 119.041C13.1601 119.96 13.1528 120.879 13.1752 121.797C13.1958 122.075 13.3929 122.245 13.6331 122.251C13.8747 122.251 14.1163 122.253 14.3579 122.255C14.847 122.259 15.3361 122.263 15.8249 122.25C16.0897 122.229 16.2577 122.026 16.2638 121.777C16.2638 121.299 16.2679 120.821 16.2721 120.343C16.2804 119.381 16.2888 118.419 16.2633 117.458C16.2619 117.44 16.2606 117.423 16.2594 117.406ZM13.8949 117.888C14.4573 117.858 15.0184 117.809 15.5768 117.742L15.6143 117.737V121.578H13.8262V117.891L13.8949 117.888Z" fill="#181818" fill-opacity="0.2"/>
<path fill-rule="evenodd" clip-rule="evenodd" d="M19.6788 116.297C19.6393 116.279 19.6189 116.269 19.5409 116.26C19.4733 116.257 19.4576 116.26 19.4353 116.265C19.4301 116.266 19.4245 116.268 19.4177 116.269C19.4177 116.269 18.8504 116.43 18.4608 116.527C18.3214 116.561 18.1778 116.592 18.0363 116.621C17.4203 116.75 16.8442 116.871 16.8343 117.326C16.8343 117.823 16.8303 118.321 16.8263 118.818C16.8183 119.819 16.8103 120.819 16.8348 121.82C16.8543 122.085 17.0422 122.246 17.2712 122.252C17.5174 122.252 17.7637 122.254 18.0099 122.256C18.5083 122.26 19.0068 122.264 19.5051 122.252C19.7624 122.231 19.9177 122.037 19.9233 121.801V116.684C19.9185 116.517 19.8221 116.364 19.6788 116.297ZM17.5224 117.427C18.0948 117.31 18.6639 117.174 19.2289 117.019C19.2438 117.015 19.2586 117.011 19.2735 117.007V121.58H17.4854L17.5224 117.427Z" fill="#181818" fill-opacity="0.2"/>
<path fill-rule="evenodd" clip-rule="evenodd" d="M23.314 114.953C23.2693 114.934 23.2448 114.924 23.1594 114.918C23.1522 114.918 23.1457 114.918 23.1397 114.918C23.1009 114.917 23.08 114.917 22.9964 114.945C22.9964 114.945 22.4726 115.178 22.1101 115.327C21.9454 115.395 21.7719 115.455 21.6022 115.513C21.0299 115.71 20.5003 115.892 20.4921 116.321C20.4921 116.927 20.4872 117.532 20.4824 118.138C20.4726 119.356 20.4628 120.573 20.4925 121.79C20.5136 122.074 20.7141 122.246 20.9584 122.252C21.1982 122.252 21.438 122.254 21.6778 122.256C22.1635 122.26 22.6492 122.264 23.1347 122.251C23.4102 122.229 23.5748 122.022 23.5811 121.77V115.364C23.5754 115.184 23.4694 115.021 23.314 114.953ZM21.1952 116.396C21.7682 116.19 22.3343 115.965 22.8925 115.723L22.9309 115.706V121.579H21.1427V116.415L21.1952 116.396Z" fill="#181818" fill-opacity="0.2"/>
<path fill-rule="evenodd" clip-rule="evenodd" d="M27.2381 113.456C27.2251 113.197 27.0126 112.983 26.7664 112.973C26.4666 112.97 26.2903 113.114 26.1117 113.26C26.0368 113.321 25.9614 113.383 25.8764 113.434C25.4959 113.663 25.11 113.882 24.7195 114.093C24.4054 114.262 24.1552 114.446 24.1502 114.745C24.1502 115.528 24.1439 116.311 24.1376 117.095C24.125 118.667 24.1123 120.24 24.1506 121.812C24.1706 122.082 24.362 122.246 24.5942 122.252C24.8388 122.252 25.0834 122.254 25.328 122.256C25.8231 122.26 26.3181 122.264 26.813 122.252C27.0738 122.231 27.2325 122.034 27.2383 121.793C27.2383 120.868 27.2435 119.943 27.2486 119.018C27.2523 118.357 27.2559 117.697 27.2577 117.036C27.5491 115.358 27.7263 113.89 27.241 113.637C27.2401 113.577 27.2391 113.516 27.2381 113.456ZM27.241 113.637C27.0915 113.559 26.8791 113.597 26.5877 113.78C26.5029 113.832 26.4177 113.885 26.3323 113.937C25.8369 114.238 25.3309 114.525 24.8179 114.797L24.8006 121.58H26.5879C26.5879 120.713 26.8268 119.408 27.0658 118.103C27.1314 117.744 27.1971 117.386 27.2577 117.036C27.2608 115.903 27.2584 114.77 27.241 113.637Z" fill="#181818" fill-opacity="0.2"/>
<path fill-rule="evenodd" clip-rule="evenodd" d="M30.8954 110.649C30.882 110.399 30.6808 110.191 30.4414 110.175C30.2986 110.171 30.2346 110.202 30.1464 110.263C29.855 110.482 29.5677 110.732 29.2764 110.987C29.0046 111.224 28.7294 111.464 28.444 111.684C28.1123 111.938 27.8127 112.246 27.8066 112.653V121.735C27.8134 122.012 28.0401 122.245 28.3062 122.252C28.5378 122.252 28.7695 122.254 29.0013 122.256C29.4734 122.26 29.9457 122.264 30.4176 122.251C30.7133 122.228 30.8889 122.007 30.8956 121.735C30.8956 120.505 30.9029 119.274 30.9101 118.044C30.9247 115.579 30.9392 113.114 30.8954 110.649ZM29.1469 111.978C29.5189 111.683 29.8831 111.378 30.2404 111.065C30.2415 111.063 30.2426 111.063 30.2437 111.062C30.2442 111.061 30.2447 111.061 30.2452 111.06V121.579H28.457V112.658C28.457 112.658 28.581 112.415 28.7684 112.272C28.8954 112.175 29.0216 112.077 29.1469 111.978Z" fill="#181818" fill-opacity="0.2"/>
<path fill-rule="evenodd" clip-rule="evenodd" d="M34.5529 106.473C34.5386 106.229 34.3393 106.03 34.1052 106.019C33.9643 106.018 33.8385 106.079 33.7481 106.183C33.5529 106.429 33.3626 106.678 33.1727 106.926C32.7714 107.45 32.3713 107.972 31.9278 108.466C31.6982 108.72 31.4765 108.993 31.4643 109.332C31.4155 113.442 31.4155 117.553 31.4643 121.663C31.4758 121.975 31.7342 122.239 32.0339 122.251C32.6836 122.26 33.3336 122.26 33.9833 122.251C34.2849 122.239 34.5416 121.973 34.5529 121.663C34.6151 116.6 34.6513 111.535 34.5529 106.473ZM32.4596 108.846C32.9522 108.276 33.4445 107.707 33.8964 107.1C33.8976 107.098 33.8989 107.096 33.9003 107.095C33.901 107.094 33.9017 107.093 33.9024 107.092V121.579H32.1143V109.358C32.1143 109.358 32.1294 109.232 32.1841 109.165C32.2758 109.059 32.3677 108.952 32.4596 108.846Z" fill="#181818" fill-opacity="0.2"/>
<path d="M33.0283 102.79C33.3259 102.852 33.3271 103.221 33.0736 103.562C28.6178 109.513 21.7731 113.403 14.631 114.916C14.1827 115.011 13.5273 115.119 13.5273 115.119C13.1265 115.145 13.0421 114.516 13.5714 114.433C21.1202 113.199 28.1866 109.13 32.7288 102.921C32.7288 102.921 32.8649 102.782 33.0283 102.79Z" fill="#181818" fill-opacity="0.2"/>
<path d="M33.0039 102.787C33.4907 102.821 33.2121 103.868 33.0993 104.663C33.044 105.004 32.4071 104.969 32.4559 104.566L32.582 103.674L31.6871 104.079C31.4471 104.182 31.3948 104.089 31.3138 103.995C31.1811 103.84 31.2288 103.568 31.4141 103.469C31.8911 103.241 32.377 103.033 32.8585 102.815C32.9051 102.795 32.9534 102.786 33.0039 102.787Z" fill="#181818" fill-opacity="0.2"/>
<path d="M38.379 125.766C38.7083 125.795 38.8141 126.424 38.3602 126.438H35.5326C35.1955 126.428 35.0787 125.779 35.5326 125.765C36.4814 125.765 37.4307 125.737 38.379 125.766Z" fill="#181818" fill-opacity="0.2"/>
<path d="M9.03782 99.2825C9.2724 99.3473 9.28779 99.391 9.30665 99.6136V125.765H34.2295C34.2295 125.765 34.7845 126.059 34.4385 126.359C34.381 126.409 34.3069 126.431 34.2295 126.438H8.98145C8.71804 126.414 8.67728 126.351 8.65625 126.101V99.6136C8.68097 99.3219 8.75273 99.2567 9.03782 99.2825Z" fill="#181818" fill-opacity="0.2"/>
<path d="M8.99451 101.837C9.30388 101.859 9.44827 102.477 8.99451 102.509C8.43668 102.522 7.87863 102.509 7.32059 102.509C6.99734 102.502 6.86444 101.868 7.30606 101.837C7.86866 101.824 8.43191 101.824 8.99451 101.837Z" fill="#181818" fill-opacity="0.2"/>
<path d="M8.9946 104.688C9.3133 104.711 9.42083 105.331 8.9946 105.36C8.43677 105.373 7.87873 105.361 7.32068 105.361C6.99743 105.353 6.86453 104.719 7.30615 104.688C7.86875 104.675 8.432 104.675 8.9946 104.688Z" fill="#181818" fill-opacity="0.2"/>
<path d="M8.99518 119.742C9.31886 119.765 9.40081 120.386 8.99518 120.414C8.43735 120.427 7.8793 120.414 7.32126 120.414C6.99801 120.407 6.86511 119.773 7.30673 119.742C7.86933 119.729 8.43258 119.729 8.99518 119.742Z" fill="#181818" fill-opacity="0.2"/>
<path d="M8.99451 116.732C9.30388 116.753 9.44827 117.372 8.99451 117.403C8.43668 117.416 7.87863 117.404 7.32059 117.404C7.00536 117.396 6.83929 116.764 7.30606 116.732C7.86866 116.718 8.43191 116.718 8.99451 116.732Z" fill="#181818" fill-opacity="0.2"/>
<path d="M8.99451 113.721C9.30388 113.742 9.44827 114.361 8.99451 114.393C8.43668 114.405 7.87863 114.393 7.32059 114.393C6.99734 114.385 6.86444 113.752 7.30606 113.721C7.86866 113.708 8.43191 113.708 8.99451 113.721Z" fill="#181818" fill-opacity="0.2"/>
<path d="M8.99559 110.71C9.32469 110.733 9.37022 111.356 8.99559 111.382C8.43776 111.395 7.87971 111.382 7.32167 111.382C7.00644 111.375 6.84037 110.743 7.30714 110.71C7.86974 110.697 8.43299 110.697 8.99559 110.71Z" fill="#181818" fill-opacity="0.2"/>
<path d="M8.99451 107.699C9.30388 107.721 9.44827 108.339 8.99451 108.371C8.43668 108.384 7.87863 108.371 7.32059 108.371C7.00536 108.364 6.83929 107.732 7.30606 107.699C7.86866 107.686 8.43191 107.686 8.99451 107.699Z" fill="#181818" fill-opacity="0.2"/>
<path d="M8.99518 125.765C9.31886 125.787 9.40081 126.408 8.99518 126.436C8.43735 126.449 7.8793 126.437 7.32126 126.437C6.99801 126.429 6.86511 125.796 7.30673 125.765C7.86933 125.752 8.43258 125.752 8.99518 125.765Z" fill="#181818" fill-opacity="0.2"/>
<path d="M8.99559 122.754C9.32469 122.777 9.37022 123.4 8.99559 123.426C8.43776 123.439 7.87971 123.426 7.32167 123.426C6.99842 123.419 6.86552 122.785 7.30714 122.754C7.86974 122.741 8.43299 122.741 8.99559 122.754Z" fill="#181818" fill-opacity="0.2"/>
<path d="M27.7147 89.719C28.0995 89.7448 28.0321 90.4267 28.0238 90.9548C28.0082 91.2883 27.394 91.3829 27.3739 90.9548C27.3652 90.4018 27.2282 89.7027 27.7147 89.719Z" fill="#181818" fill-opacity="0.2"/>
<path d="M50.832 128.783C50.6153 129.598 49.8937 130.196 49.0372 130.196L50.832 128.783Z" fill="white"/>
<path d="M50.8526 128.448C51.5652 128.511 50.6109 130.523 49.0392 130.532C48.8591 130.529 48.8402 130.472 48.7956 130.421C48.6176 130.216 48.7705 129.875 49.12 129.858C49.778 129.818 50.2801 129.286 50.5345 128.648C50.5925 128.52 50.6834 128.441 50.8526 128.448Z" fill="#181818" fill-opacity="0.2"/>
<path d="M191.265 23.9783V44.6773C191.265 46.3093 189.986 47.6323 188.407 47.6323H142.487C140.908 47.6323 139.629 46.3093 139.629 44.6773V9.22754H191.265V20.7967" fill="white"/>
<path d="M191.449 23.7019C191.528 23.7739 191.576 23.8662 191.589 23.9785C191.589 30.8923 191.629 37.8062 191.589 44.7199C191.558 46.4123 190.167 47.9349 188.447 47.9685C173.113 48.0703 157.779 48.0703 142.445 47.9685C140.788 47.936 139.314 46.4555 139.303 44.6787V9.22783C139.335 8.93621 139.464 8.91065 139.628 8.8916H191.264C191.438 8.912 191.559 8.9519 191.589 9.22783V20.7969C191.549 21.1392 190.997 21.2937 190.939 20.7969V9.56406H139.953C139.953 21.2798 139.882 32.9959 139.953 44.7114C139.979 46.0639 141.103 47.2696 142.453 47.2961C157.781 47.3979 173.111 47.3979 188.439 47.2961C189.753 47.2703 190.931 46.1041 190.939 44.6764V23.9785C190.984 23.5977 191.144 23.5365 191.449 23.7019Z" fill="#181818" fill-opacity="0.2"/>
<path d="M190.63 9.22774H140.099C139.287 9.22774 138.629 8.54744 138.629 7.70822C138.629 6.869 139.287 6.18848 140.099 6.18848H190.63C191.442 6.18848 192.1 6.869 192.1 7.70822C192.1 8.54744 191.442 9.22774 190.63 9.22774Z" fill="white"/>
<path fill-rule="evenodd" clip-rule="evenodd" d="M191.944 8.9722C192.981 7.81939 192.001 5.87869 190.653 5.85224C173.794 5.74196 156.934 5.74196 140.075 5.85224C139.304 5.86726 138.593 6.42719 138.377 7.1781C138.05 8.31611 138.976 9.542 140.075 9.56351C156.934 9.6738 173.794 9.6738 190.653 9.56351C191.141 9.5541 191.614 9.33802 191.944 8.9722ZM139.157 8.38106C138.645 7.61783 139.28 6.5298 140.099 6.52442C145.715 6.52442 151.331 6.51219 156.948 6.49996C168.18 6.4755 179.413 6.45104 190.645 6.52442C190.807 6.52778 190.966 6.56387 191.113 6.6347C192.224 7.17132 191.633 8.85895 190.659 8.89078C176.622 9.16687 162.58 9.05975 148.54 8.95264C145.721 8.93114 142.902 8.90963 140.083 8.89123C139.717 8.88383 139.364 8.68994 139.157 8.38106Z" fill="#181818" fill-opacity="0.2"/>
<path d="M167.533 6.18832H163.363V5.55778C163.363 4.36731 164.297 3.40234 165.448 3.40234C166.599 3.40234 167.533 4.36731 167.533 5.55778V6.18832Z" fill="white"/>
<path fill-rule="evenodd" clip-rule="evenodd" d="M167.858 5.52585C167.833 4.17982 166.724 3.09089 165.479 3.06646C164.185 3.05794 163.188 4.06035 163.054 5.27233C163.001 5.7482 162.921 6.5083 163.363 6.52466H167.533C167.89 6.51153 167.877 6.13429 167.863 5.73719C167.861 5.66672 167.858 5.59564 167.858 5.52585ZM163.688 5.55891C163.695 4.56793 164.513 3.75673 165.425 3.7388C165.448 3.73857 165.471 3.7388 165.494 3.73925C166.544 3.77354 167.208 4.77057 167.208 5.8521H163.688V5.55891Z" fill="#181818" fill-opacity="0.2"/>
<path d="M165.465 4.96317C165.849 4.98895 165.782 5.67082 165.774 6.19892C165.758 6.52618 165.146 6.66403 165.124 6.19892C165.115 5.64594 164.978 4.94681 165.465 4.96317Z" fill="#181818" fill-opacity="0.2"/>
<path d="M188.58 44.0273C188.363 44.8416 187.642 45.44 186.785 45.44L188.58 44.0273Z" fill="white"/>
<path d="M188.601 43.6919C189.313 43.7552 188.362 45.7679 186.787 45.7763C186.606 45.773 186.588 45.7154 186.544 45.6649C186.366 45.4602 186.519 45.1189 186.868 45.1016C187.526 45.0622 188.028 44.5309 188.283 43.8924C188.341 43.7644 188.43 43.6851 188.601 43.6919Z" fill="#181818" fill-opacity="0.2"/>
<path d="M158.209 20.4309C158.399 20.5221 158.39 20.5777 158.419 20.688C159.178 25.0731 159.595 29.5337 160.514 33.8481L160.562 34.0857C160.562 34.3502 160.508 34.3953 160.474 34.5417C159.881 37.0925 159.134 39.7664 157.306 41.5379C156.898 41.9339 156.412 42.2989 155.893 42.3836L155.839 42.3881H146.482C146.171 42.3587 146.079 42.0158 146.367 41.6903C147.186 40.7459 147.721 39.5422 148.207 38.3446C150.828 31.8718 150.585 24.5329 152.423 17.5138C152.912 15.6444 153.63 13.2094 155.544 13.7151C156.652 14.0076 157.185 15.3424 157.491 16.3258C157.693 16.9758 157.844 17.6366 157.981 18.3077C158.038 18.5857 157.869 18.9822 157.534 18.7971C157.387 18.7155 157.358 18.5108 157.32 18.3257C156.948 16.5544 156.477 14.1547 154.981 14.3349C154.036 14.4487 153.586 15.8714 153.246 16.994C150.997 24.432 151.767 32.7386 148.182 40.0026C147.893 40.5895 147.573 41.1631 147.197 41.6959L155.812 41.7156C157.216 41.4215 158.178 39.4461 158.859 37.6789C159.302 36.5272 159.63 35.3307 159.901 34.1241C159.901 34.1241 159.54 32.3443 159.313 30.9185C158.776 27.558 158.365 24.1957 157.778 20.8063C157.778 20.8063 157.803 20.3197 158.209 20.4309Z" fill="#181818" fill-opacity="0.2"/>
<path fill-rule="evenodd" clip-rule="evenodd" d="M160.71 34.6372C160.637 34.2087 160.571 33.8215 160.269 33.7759C159.933 33.7588 159.881 34.2121 159.881 34.2121C159.614 35.3886 159.291 36.5553 158.858 37.679C158.193 39.4043 157.311 41.2659 155.87 41.7009C155.575 41.7861 155.429 42.0686 155.59 42.2676C155.595 42.2736 155.599 42.2795 155.604 42.2853C155.643 42.3358 155.676 42.3797 155.839 42.388H163.64C164.063 42.3667 163.873 41.8171 163.873 41.8171C162.187 40.0295 161.399 37.5237 160.793 35.0658C160.759 34.9257 160.734 34.7792 160.71 34.6372ZM157.113 41.7156C158.744 40.2899 159.605 37.864 160.224 35.5496C160.245 35.4714 160.237 35.5276 160.237 35.5276C160.793 37.6911 161.523 39.8515 162.819 41.5882C162.851 41.6308 162.884 41.6734 162.917 41.7156H157.113Z" fill="#181818" fill-opacity="0.2"/>
<path fill-rule="evenodd" clip-rule="evenodd" d="M166.874 26.9791C166.426 25.9511 165.539 24.6046 164.239 24.5733C163.394 24.5703 162.846 25.068 162.397 25.6584C162.343 25.7297 162.291 25.8023 162.241 25.8765C161.068 27.6078 160.71 29.6868 160.359 31.7301C160.311 32.0079 160.263 32.2851 160.213 32.5607C160.085 33.2748 159.92 34.1846 159.92 34.1846C160.56 37.0946 161.381 40.0854 163.326 42.1992C163.348 42.2233 163.362 42.2462 163.375 42.2671C163.412 42.3286 163.439 42.3736 163.64 42.3874H165.352C165.363 42.3868 165.372 42.3865 165.381 42.3862C165.436 42.3844 165.469 42.3834 165.568 42.3029C165.568 42.3029 165.757 42.1115 165.874 41.9696C167.245 40.3069 167.996 38.1741 168.611 36.0543C168.779 35.4764 168.912 34.7369 168.912 34.7369C168.557 33.5935 168.303 32.4306 168.05 31.2771C167.779 30.0417 167.511 28.817 167.124 27.6381C167.051 27.4144 166.968 27.1943 166.874 26.9791ZM162.505 26.7066C162.845 26.0844 163.371 25.2779 164.185 25.2461C165.398 25.2243 166.306 26.9025 166.676 28.4469C166.791 28.9416 166.902 29.4357 167.013 29.9289C167.265 31.0524 167.517 32.1709 167.814 33.2803C168.015 34.0292 168.256 34.8834 168.256 34.8834C167.614 37.3625 166.851 39.9869 165.221 41.7151L163.761 41.6954C161.957 39.6854 161.175 36.8546 160.571 34.1097L160.583 34.055C160.71 33.4617 160.818 32.842 160.927 32.2112C161.251 30.3414 161.593 28.374 162.505 26.7066Z" fill="#181818" fill-opacity="0.2"/>
<path fill-rule="evenodd" clip-rule="evenodd" d="M168.999 35.0032C168.931 34.783 168.858 34.5422 168.641 34.5056C168.407 34.4895 168.289 34.7537 168.289 34.7537C167.636 37.3147 166.882 39.989 165.187 41.7508C164.93 42.0122 165.066 42.3729 165.353 42.3872H173.091C173.615 42.3616 173.245 41.7546 173.245 41.7546C171.011 40.5146 169.885 37.7289 169.026 35.0902C169.017 35.0619 169.008 35.0328 168.999 35.0032ZM166.081 41.7054C167.291 40.0696 168.026 38.0591 168.612 36.0539C168.663 35.8793 168.652 36.0223 168.652 36.0223C169.421 38.2013 170.393 40.3359 172.028 41.7146L166.081 41.7054Z" fill="#181818" fill-opacity="0.2"/>
<path fill-rule="evenodd" clip-rule="evenodd" d="M176.817 23.3072C176.443 21.5815 175.498 19.7834 173.983 19.7578C173.948 19.7578 173.913 19.7583 173.878 19.7596C172.143 19.8407 171.369 21.5882 170.932 23.1869C170.391 25.1643 169.974 27.1671 169.557 29.1677C169.189 30.9391 168.82 32.7088 168.366 34.4579C168.309 34.6764 168.293 34.9441 168.293 34.9441C169.196 37.8114 170.394 40.8554 172.83 42.2868C172.84 42.2923 172.849 42.2981 172.859 42.304C172.917 42.3394 172.985 42.3803 173.091 42.387H176.531C176.979 42.3539 177.297 41.8231 177.592 41.3317C177.659 41.2209 177.724 41.112 177.789 41.0114C178.676 39.6443 179.508 37.4877 179.508 37.4877C179.346 36.9935 179.179 36.4165 179.179 36.4165C178.383 33.5467 177.773 30.6076 177.384 27.6392C177.321 27.1575 177.271 26.674 177.222 26.1908C177.122 25.2226 177.022 24.2557 176.817 23.3072ZM171.274 24.5055C171.712 22.6123 172.439 20.4533 173.947 20.4302C174.257 20.4288 174.554 20.5409 174.804 20.722C174.822 20.7351 174.837 20.7454 174.852 20.755C174.917 20.7983 174.963 20.829 175.15 21.054C176.111 22.2095 176.304 23.8135 176.477 25.331C176.916 29.2792 177.542 33.2947 178.711 37.1342L178.72 37.1647C178.744 37.2398 178.767 37.3149 178.791 37.3899C178.814 37.4632 178.837 37.5363 178.861 37.6096C178.861 37.6096 178.787 37.6874 178.557 38.1908C177.995 39.4591 177.382 40.7791 176.406 41.7145H173.173C170.917 40.4072 169.792 37.534 168.941 34.8321L168.951 34.7983C169.512 32.6708 169.969 30.525 170.425 28.3819C170.7 27.0872 170.976 25.7935 171.274 24.5055Z" fill="#181818" fill-opacity="0.2"/>
<path d="M166.132 26.0159C166.758 26.0997 166.434 26.5746 166.212 26.667L161.784 28.3176C161.458 28.4253 161.128 27.8659 161.563 27.685L165.991 26.0344C166.026 26.0228 166.039 26.0105 166.132 26.0159Z" fill="#181818" fill-opacity="0.2"/>
<path d="M167.101 28.6585C167.284 28.6866 167.3 28.7486 167.336 28.8047C167.449 28.9769 167.402 29.217 167.173 29.3107L160.878 31.554C160.7 31.6083 160.669 31.5647 160.604 31.5243C160.392 31.3922 160.393 31.0293 160.666 30.9182L166.961 28.6749C167.017 28.6578 167.033 28.6541 167.101 28.6585Z" fill="#181818" fill-opacity="0.2"/>
<path d="M167.75 31.3383C168.373 31.4008 168.058 31.9025 167.84 31.9922L160.449 34.6264C160.123 34.7248 159.804 34.1689 160.237 33.9906L167.628 31.3564C167.649 31.3501 167.672 31.3384 167.75 31.3383Z" fill="#181818" fill-opacity="0.2"/>
<path d="M168.448 33.9426C169.07 34.0062 168.755 34.5073 168.537 34.5966L161.15 37.2133C160.819 37.3124 160.521 36.7489 160.939 36.5771L168.326 33.9604C168.417 33.9332 168.42 33.9425 168.448 33.9426Z" fill="#181818" fill-opacity="0.2"/>
<path d="M168.006 36.7902C168.191 36.812 168.214 36.8744 168.257 36.9451C168.362 37.1152 168.319 37.3441 168.095 37.441L161.993 39.7709C161.698 39.869 161.672 39.7704 161.592 39.6112C161.505 39.4393 161.558 39.2307 161.768 39.1401L167.87 36.8102C167.924 36.7921 167.94 36.7883 168.006 36.7902Z" fill="#181818" fill-opacity="0.2"/>
<path d="M166.507 40.1503C166.808 40.184 166.931 40.6601 166.595 40.8008L163.494 41.9845C163.179 42.0936 162.835 41.5355 163.269 41.3537L166.369 40.17C166.469 40.1357 166.457 40.1478 166.507 40.1503Z" fill="#181818" fill-opacity="0.2"/>
<path fill-rule="evenodd" clip-rule="evenodd" d="M179.624 37.8349C179.545 37.6025 179.458 37.3441 179.239 37.3222C179.23 37.322 179.22 37.3214 179.211 37.3208C179.146 37.3166 179.082 37.3125 178.968 37.4461C178.968 37.4461 178.832 37.6526 178.748 37.8066C178.739 37.8222 178.732 37.8361 178.725 37.849C178.68 37.9311 178.656 37.9743 178.557 38.1914C178.105 39.212 177.579 40.2256 176.914 41.1215C176.829 41.2371 176.726 41.351 176.627 41.4617C176.352 41.7673 176.1 42.0478 176.284 42.2699C176.288 42.2753 176.292 42.2807 176.297 42.286C176.338 42.3373 176.372 42.3808 176.531 42.3873H181.715C181.904 42.3797 182.008 42.2665 182.035 42.11C182.067 41.9271 181.895 41.7709 181.895 41.7709C180.711 40.9601 180.141 39.3319 179.625 37.8359L179.624 37.8349ZM177.324 41.6708C178.073 40.7025 178.649 39.5983 179.147 38.4749L179.147 38.4749C179.149 38.4704 179.151 38.4659 179.153 38.4614C179.563 39.5862 180.031 40.7023 180.777 41.6188C180.804 41.6511 180.831 41.6832 180.858 41.7148H177.29L177.324 41.6708Z" fill="#181818" fill-opacity="0.2"/>
<path fill-rule="evenodd" clip-rule="evenodd" d="M182.423 38.1822C182.024 37.4437 181.443 36.4491 180.528 36.4258C179.965 36.4233 179.483 36.7791 179.14 37.2085C178.915 37.4889 178.912 37.7671 178.912 37.7671C179.369 39.1427 179.885 40.5257 180.776 41.6189C180.802 41.6512 180.829 41.6833 180.857 41.7149H176.529C176.403 41.7209 176.307 41.8056 176.305 41.8072C176.085 42.0096 176.235 42.3911 176.51 42.4046H184.344C184.512 42.3963 184.659 42.2591 184.669 42.0885C184.677 41.9457 184.573 41.8296 184.573 41.8296C183.879 41.1175 183.412 40.1666 182.944 39.2112C182.774 38.8651 182.604 38.5184 182.423 38.1822ZM179.59 37.7032C179.806 37.4183 180.11 37.1126 180.491 37.0985C180.791 37.0936 181.043 37.2843 181.231 37.5031C181.263 37.5396 181.293 37.5775 181.322 37.6163C181.797 38.2535 182.141 38.9699 182.486 39.6871C182.825 40.3928 183.165 41.0993 183.629 41.7321L181.832 41.7274C180.734 40.9189 180.098 39.2479 179.582 37.7136L179.59 37.7032Z" fill="#181818" fill-opacity="0.2"/>
<path d="M186.133 41.7155C186.473 41.7549 186.579 42.3357 186.133 42.3879L144.581 42.3875C144.233 42.3471 144.142 41.7661 144.581 41.715C158.432 41.7151 172.282 41.7152 186.133 41.7155Z" fill="#181818" fill-opacity="0.2"/>
<path d="M148.088 15.7943C148.199 15.8077 148.292 15.8707 148.349 15.9705L150.41 19.9353C150.562 20.2585 150.079 20.6761 149.837 20.2536L147.868 16.4659L144.555 16.4647C144.36 16.4403 144.325 16.3544 144.288 16.2738C144.194 16.0698 144.311 15.8046 144.581 15.7934C145.75 15.7934 146.92 15.7479 148.088 15.7943Z" fill="#181818" fill-opacity="0.2"/>
<path d="M186.268 13.2462C186.602 13.3026 186.679 13.8917 186.233 13.9166H176.53C176.237 13.9002 176.231 13.7731 176.209 13.6348C176.178 13.4423 176.338 13.2549 176.53 13.2441H186.233C186.245 13.2448 186.257 13.2455 186.268 13.2462Z" fill="#181818" fill-opacity="0.2"/>
<path d="M186.26 15.7941C186.35 15.806 186.373 15.8214 186.415 15.8506C186.643 16.0099 186.568 16.4506 186.233 16.4654H180.188C179.947 16.4549 179.947 16.3814 179.898 16.2805C179.797 16.0732 179.925 15.8046 180.188 15.793H186.233C186.242 15.7934 186.251 15.7939 186.26 15.7941Z" fill="#181818" fill-opacity="0.2"/>
<path d="M186.254 18.1647C186.496 18.1874 186.499 18.2743 186.538 18.381C186.612 18.5828 186.461 18.8293 186.234 18.8365H183.212C182.869 18.8257 182.764 18.1779 183.212 18.164C184.226 18.164 185.24 18.1329 186.254 18.1647Z" fill="#181818" fill-opacity="0.2"/>
<path fill-rule="evenodd" clip-rule="evenodd" d="M73.7372 68.8953C75.1807 65.7464 77.2754 62.9257 79.9576 60.7274C81.3391 59.5932 82.9584 58.5375 84.8511 57.661C85.8648 57.1926 86.9547 56.7756 88.13 56.426C88.6277 56.2758 89.1437 56.139 89.6729 56.0158C90.5072 55.823 91.3796 55.6638 92.2923 55.545C92.918 55.4599 93.5595 55.3926 94.2234 55.35C94.3803 55.3366 94.5395 55.3254 94.6988 55.3164H102.405C102.564 55.3254 102.723 55.3366 102.88 55.35C103.544 55.3926 104.185 55.4599 104.811 55.545C105.724 55.6638 106.596 55.823 107.43 56.0158C107.96 56.139 108.475 56.2758 108.973 56.426C110.149 56.7756 111.239 57.1926 112.252 57.661C114.145 58.5375 115.764 59.5932 117.146 60.7274C120.012 63.0765 122.207 66.1362 123.654 69.5478C125.204 73.2014 127.805 80.3429 128.274 88.0492C128.527 92.2206 127.933 100.077 123.862 106.62C122.212 109.279 120.267 110.857 117.139 110.857H80.3847C77.2561 110.857 74.8914 109.279 73.2407 106.62C69.1705 100.077 68.576 92.2206 68.8295 88.0492C69.2982 80.3429 71.8996 73.2014 73.4493 69.5478C73.5423 69.3288 73.6381 69.1111 73.7372 68.8953Z" fill="#5DBBFF"/>
<path fill-rule="evenodd" clip-rule="evenodd" d="M120.883 63.7679C116.394 58.0581 109.463 55.191 102.496 54.7613L102.42 54.7568H94.6839C94.4053 54.773 94.359 54.7769 94.2934 54.7825C94.2498 54.7862 94.1977 54.7907 94.0634 54.7999C93.2431 54.8566 92.4322 54.9516 91.6205 55.0751C83.5369 56.3046 76.5741 61.3915 73.2481 68.6553C70.9702 73.6297 69.4281 78.9723 68.6572 84.4089C67.6011 91.8572 68.6602 100.13 72.6402 106.688C74.3681 109.536 77.2453 111.405 80.3839 111.418C84.4701 111.418 88.5563 111.423 92.6425 111.428C100.834 111.439 109.025 111.45 117.217 111.418C118.117 111.407 119.025 111.273 119.876 110.96C123.854 109.497 125.794 104.927 127.151 100.756C129.944 92.1697 128.862 83.1494 126.232 74.9378C124.953 70.9446 123.429 67.0049 120.883 63.7679ZM77.0019 64.5512C81.2724 59.0713 88.0095 56.2668 94.7143 55.8776H102.39C102.39 55.8776 102.508 55.8846 102.606 55.8915C102.685 55.8971 102.763 55.9032 102.841 55.9099C111.795 56.5062 119.436 61.5455 122.919 69.2299C125.444 74.8003 127.105 80.8111 127.647 86.932C128.208 93.2627 127.016 100.188 123.726 105.791C123.045 106.949 122.261 108.087 121.217 108.929C120.056 109.865 118.642 110.28 117.208 110.297C104.911 110.345 92.6133 110.345 80.3161 110.297C75.1419 110.235 72.4022 104.989 70.8542 100.003C68.3346 91.8869 69.3358 83.2983 71.9007 75.2903C73.1263 71.4631 74.5728 67.6682 77.0019 64.5512Z" fill="#000E87" fill-opacity="0.75"/>
<path d="M113.967 110.273C115.673 110.275 117.29 110.272 117.953 110.261C119.613 110.232 121.08 109.231 122.27 107.857C123.46 106.484 123.903 105.825 125.564 101.812C127.224 97.7977 127.557 93.5783 127.557 93.5783C127.75 92.033 127.916 86.8822 127.114 82.9047C126.311 78.9273 125.758 77.0673 125.758 77.0673C124.872 73.6907 122.824 68.8836 121.855 67.195C121.084 65.8517 119.807 63.8186 116.873 61.2431C113.939 58.6679 110.203 57.4375 110.203 57.4375C110.203 57.4375 118.506 63.9045 121.011 73.948C121.011 73.948 128.323 98.0136 113.967 110.273Z" fill="#181818" fill-opacity="0.25" style="mix-blend-mode:overlay"/>
<path fill-rule="evenodd" clip-rule="evenodd" d="M105.552 49.2488V55.1485C105.552 55.2001 105.548 55.2516 105.539 55.2989C105.494 55.5437 105.35 55.7658 105.133 55.9364C105.088 55.9723 105.044 56.0036 104.995 56.033C102.873 57.299 100.767 57.7121 98.8867 57.6875C98.8084 57.6875 98.728 57.6852 98.6499 57.6807C95.8859 57.5998 93.6407 56.5963 92.6029 56.0487C92.568 56.0285 92.529 56.0083 92.4986 55.9812C92.39 55.9162 92.3009 55.8333 92.2272 55.7456C92.212 55.73 92.2012 55.7143 92.1923 55.6983C92.1316 55.6311 92.0926 55.5547 92.0644 55.474C92.0535 55.4628 92.0492 55.4516 92.0492 55.4381C92.0295 55.3953 92.0186 55.3482 92.0078 55.2989C91.9948 55.2449 91.9883 55.1889 91.9883 55.1328V49.2441C91.9883 49.2441 91.9904 49.2441 91.9904 49.2466C92.9264 49.7673 93.8578 50.2163 94.7241 50.5868C96.4938 51.3478 98.0071 51.7721 98.7735 51.7721C99.195 51.7721 99.8419 51.6464 100.632 51.4038C101.983 50.9932 103.763 50.2479 105.552 49.2488Z" fill="#FFE7C2"/>
<path fill-rule="evenodd" clip-rule="evenodd" d="M93.3618 49.3413C92.7654 49.0429 92.0482 48.6877 92.0482 48.6877C91.7183 48.6673 91.4627 48.9221 91.4473 49.2447V55.1374C91.4549 55.6816 91.5842 55.8337 91.7157 55.9882C91.7409 56.0179 91.7662 56.0476 91.7907 56.0802C91.7907 56.0802 92.0409 56.357 92.2733 56.5C92.329 56.5342 92.387 56.5641 92.4449 56.594C92.4508 56.597 92.4567 56.6001 92.4625 56.6031C95.6339 58.2414 99.5795 58.7778 102.995 57.5845C104.401 57.0936 106.081 56.4579 106.095 55.1522V49.2494C106.084 49.0048 105.932 48.782 105.71 48.7128C105.511 48.6509 105.297 48.7558 105.297 48.7558C103.914 49.5253 102.478 50.1969 100.99 50.7026C100.975 50.7078 100.959 50.7131 100.944 50.7183C100.103 51.0041 99.2149 51.3058 98.3465 51.174C96.6173 50.9117 94.9601 50.1408 93.3618 49.3413ZM92.7866 55.5454C92.6854 55.547 92.5373 55.5494 92.5314 55.1295V50.1682L92.5366 50.1709C93.8149 50.8288 95.1291 51.4133 96.4904 51.8547C97.3954 52.1481 98.33 52.418 99.2492 52.2994C101.242 52.0419 103.162 51.1329 105.012 50.1733V55.1461C105.012 55.1461 104.95 55.3692 104.83 55.472C104.8 55.4976 104.768 55.5211 104.735 55.542C102.914 56.6457 100.773 57.2034 98.6734 57.1216C96.6517 57.0429 94.6598 56.4998 92.8575 55.5541C92.8407 55.5445 92.8155 55.5449 92.7866 55.5454Z" fill="#000E87" fill-opacity="0.75"/>
<path d="M102.176 56.6675C102.988 56.4102 103.637 56.1529 104.511 55.6835C104.549 55.6631 104.799 55.5156 104.831 55.4883C104.928 55.4051 104.957 55.3616 105.003 55.2031C105.014 55.165 105.006 54.9454 105.006 54.9021L105.007 50.1523C104.183 50.6336 103.416 50.9142 102.684 51.2605L102.692 55.0332C102.692 55.3887 102.643 55.744 102.528 56.0832C102.437 56.3526 102.364 56.5216 102.176 56.6675Z" fill="#181818" fill-opacity="0.25" style="mix-blend-mode:overlay"/>
<path d="M119.861 146.007H77.2227L79.7397 118.017L80.3836 110.857H117.138L118.179 124.278L118.417 127.366L119.861 146.007Z" fill="#D5D4EA"/>
<path fill-rule="evenodd" clip-rule="evenodd" d="M117.679 110.812C117.623 110.464 117.6 110.402 117.228 110.304L117.139 110.297H80.3842C79.909 110.337 79.8446 110.805 79.8446 110.805L79.2007 117.965L76.6837 145.955C76.6808 146.261 76.7589 146.342 76.8888 146.447C76.8986 146.455 76.9072 146.463 76.9155 146.47C76.9643 146.514 77.0013 146.548 77.2233 146.567H119.862C120.154 146.542 120.225 146.455 120.315 146.314C120.322 146.303 120.328 146.294 120.335 146.285C120.373 146.231 120.401 146.19 120.402 145.962L118.958 127.321L118.719 124.233L117.679 110.812ZM80.2794 118.069L80.8775 111.418H116.638L117.638 124.322L117.877 127.411L119.274 145.446H77.8174L80.2794 118.069Z" fill="#000E87" fill-opacity="0.75"/>
<path d="M99.5211 125.16H97.5658C97.0968 125.16 96.7168 124.767 96.7168 124.282V111.425H100.37V124.282C100.37 124.767 99.9901 125.16 99.5211 125.16Z" fill="#181818" fill-opacity="0.25" style="mix-blend-mode:overlay"/>
<path d="M112.897 145.452H119.272L116.643 111.4H112.27L112.897 145.452Z" fill="#181818" fill-opacity="0.25" style="mix-blend-mode:overlay"/>
<path d="M88.4425 115.151C88.9159 115.22 88.5486 116.041 88.2183 116.663C86.8407 119.257 84.3505 121.37 81.5553 121.731C81.5553 121.731 81.3114 121.73 81.2205 121.565C81.1043 121.353 81.2532 121.099 81.5697 121.05C84.4664 120.563 86.9219 118.197 88.1133 115.352C88.1133 115.352 88.2166 115.14 88.4425 115.151Z" fill="#000E87" fill-opacity="0.75"/>
<path d="M108.701 115.151C108.892 115.177 108.981 115.379 109.05 115.537C110.271 118.323 112.687 120.719 115.618 121.065C115.618 121.065 115.821 121.112 115.884 121.274C115.976 121.514 115.794 121.771 115.452 121.72C112.345 121.231 109.682 118.693 108.401 115.684C108.401 115.684 108.312 115.135 108.701 115.151Z" fill="#000E87" fill-opacity="0.75"/>
<path fill-rule="evenodd" clip-rule="evenodd" d="M108.032 8.3879C104.737 7.13938 101.827 7.05869 100.171 7.15732C99.2061 7.21559 98.2437 7.21559 97.2768 7.15732C95.6246 7.05869 92.7151 7.14162 89.4219 8.3879C90.0137 3.97213 93.9552 0.560547 98.727 0.560547C103.501 0.560547 107.44 3.97213 108.032 8.3879Z" fill="#7C76BB"/>
<path fill-rule="evenodd" clip-rule="evenodd" d="M108.547 8.1456C107.829 3.43618 103.343 0.0382738 98.7871 0.000168113C98.748 -5.60378e-05 98.7088 -5.60378e-05 98.6696 0.000168113C94.0688 0.0387221 89.8741 3.32724 88.9874 7.7094C88.8994 8.1438 88.8129 8.65038 89.132 8.86041C89.3267 8.98841 89.6086 8.91421 89.6086 8.91421C91.6716 8.13842 93.8449 7.71724 96.0293 7.689C96.5636 7.68216 97.1039 7.70125 97.6466 7.72044C98.3127 7.74398 98.9825 7.76765 99.6495 7.74369C102.367 7.63588 105.077 7.90867 107.622 8.83038C108.354 9.09891 108.621 8.63133 108.547 8.1456ZM90.1455 7.51731C91.1569 3.66214 94.8839 1.15254 98.6753 1.12094C98.7282 1.12071 98.7811 1.12094 98.834 1.12139C102.695 1.17518 106.369 3.83586 107.318 7.54421L107.279 7.53166C105.027 6.80967 102.67 6.47658 100.305 6.58866C99.4119 6.63537 98.5047 6.63567 97.5924 6.63598C95.6899 6.63663 93.766 6.63728 91.9046 7.05893C91.1237 7.23578 90.1455 7.51731 90.1455 7.51731Z" fill="#000E87" fill-opacity="0.75"/>
<path fill-rule="evenodd" clip-rule="evenodd" d="M98.7478 46.8161C80.9311 46.8161 68.6146 41.497 75.3964 23.9168C75.5501 23.5223 75.7062 23.1345 75.8688 22.7579C76.9073 20.3326 78.0672 18.2772 79.2945 16.5378C81.872 12.8863 84.7577 10.6246 87.5002 9.23491C88.1506 8.9054 88.7945 8.62522 89.4232 8.38761C92.7164 7.14133 95.6259 7.0584 97.2781 7.15703C98.2451 7.2153 99.2075 7.2153 100.172 7.15703C101.829 7.0584 104.738 7.13909 108.033 8.38761C108.589 8.59832 109.157 8.8404 109.731 9.12283C112.476 10.47 115.376 12.6868 117.978 16.2845C119.272 18.0754 120.495 20.2138 121.586 22.7579C121.746 23.1345 121.902 23.5223 122.056 23.9168C128.838 41.497 116.567 46.8161 98.7478 46.8161Z" fill="#7C76BB"/>
<path fill-rule="evenodd" clip-rule="evenodd" d="M118.037 15.4416C113.952 10.0504 107.755 6.62959 101.333 6.5666C100.825 6.56442 100.318 6.58112 99.8109 6.59782C99.0665 6.62234 98.3221 6.64685 97.5753 6.61165C94.34 6.44713 91.1357 6.98486 88.1959 8.28786C81.0822 11.4408 76.2863 18.6396 73.9911 26.3356C72.7377 30.5378 72.4084 35.6646 74.788 39.4126C77.7972 44.1523 83.3484 45.8081 88.6902 46.667C95.3523 47.7385 102.331 47.7503 109.068 46.6233C113.336 45.9092 117.866 44.6225 121.081 41.4024C124.164 38.3156 124.874 33.9505 124.281 29.9485C123.52 24.8154 121.252 19.6855 118.037 15.4416ZM99.1866 7.67708C99.8366 7.68413 100.486 7.69118 101.134 7.68698C103.89 7.68406 106.63 8.29241 109.132 9.45396C114.295 11.8513 118.123 16.588 120.576 21.8383C122.402 25.745 124.003 30.4058 123.223 34.9521C122.535 38.9711 119.695 41.7035 116.451 43.2728C113.266 44.8145 109.849 45.4748 106.398 45.8637C100.04 46.5801 93.368 46.5561 86.9871 45.2144C83.3776 44.4554 79.5183 43.1726 76.8439 40.2864C74.4814 37.7369 73.7861 34.1893 74.1495 30.8543C74.7298 25.5292 77.106 20.1778 80.5098 15.8194C83.5389 11.9407 87.7715 9.0543 92.4772 8.07924C94.6549 7.62796 96.9214 7.65253 99.1866 7.67708Z" fill="#000E87" fill-opacity="0.75"/>
<path d="M79.0188 35.125C79.5093 35.2339 79.1284 36.2669 79.036 37.1532C78.4595 42.6853 81.0124 48.4101 85.4088 51.6839C85.4088 51.6839 85.6192 51.9273 85.495 52.1341C85.2206 52.5908 84.3759 51.7543 83.6835 51.1146C79.5333 47.2811 77.4862 41.161 78.6387 35.4637C78.6387 35.4637 78.6909 35.0998 79.0188 35.125Z" fill="#000E87" fill-opacity="0.75"/>
<path d="M94.0046 1.45891C97.4685 1.72546 101.154 3.51228 102.42 7.0914C102.66 7.76932 102.01 7.86695 101.867 7.494C101.762 7.1744 101.735 7.11559 101.66 6.93939C100.384 3.93109 96.7884 2.34744 93.9564 2.12939C93.9564 2.12939 93.6843 2.05808 93.6578 1.83509C93.6346 1.63906 93.8003 1.45349 94.0046 1.45891Z" fill="#000E87" fill-opacity="0.75"/>
<path d="M98.4459 16.5253C98.7331 16.5603 98.6933 16.6773 98.8035 16.8245C100.229 18.6899 102.552 19.7639 104.876 20.5141C106.467 21.0284 108.111 21.3541 109.768 21.5635C109.768 21.5635 110.016 21.6427 110.049 21.8406C110.132 22.3454 109.124 22.1676 108.273 22.0228C104.653 21.4056 100.881 20.1958 98.5457 17.5483C98.3783 17.3585 98.1634 17.0587 98.1634 17.0587C97.9069 16.6547 98.2904 16.5251 98.4459 16.5253Z" fill="#000E87" fill-opacity="0.75"/>
<path d="M82.5807 23.7193C83.0151 23.7685 82.9214 24.4941 83.0122 25.1012C83.0991 25.682 83.2127 26.2587 83.3547 26.8276C83.6232 27.9055 83.9954 28.9563 84.4715 29.9536C84.4715 29.9536 84.5457 30.1749 84.4288 30.3187C84.2568 30.5305 83.9663 30.4219 83.7912 30.0448C82.9425 28.2002 82.4421 26.1995 82.2425 24.1686C82.2425 24.1686 82.2491 23.7099 82.5807 23.7193Z" fill="#000E87" fill-opacity="0.75"/>
<path d="M115.287 24.1826C115.367 24.1902 115.38 24.1995 115.413 24.2165C115.729 24.3762 115.536 24.9247 115.426 25.4118C115.05 27.0743 114.453 28.6717 113.676 30.1932C113.553 30.4341 113.098 30.6442 113.008 30.2326C112.98 30.105 113.05 29.9779 113.101 29.8789C113.968 28.1723 114.629 26.3566 114.95 24.4604C114.95 24.4604 115.045 24.1796 115.287 24.1826Z" fill="#000E87" fill-opacity="0.75"/>
<path d="M113.275 12.0728C114.916 13.3681 116.778 15.2154 118.432 17.9198C118.432 17.9198 120.609 21.1881 121.643 24.5185C122.676 27.8492 123.249 28.525 123.377 32.3513C123.506 36.1775 122.128 38.2691 121.569 39.1045C120.573 40.5924 118.358 42.4237 116.661 43.1486C114.963 43.8735 114.078 44.1788 114.078 44.1788C114.078 44.1788 118.858 41.5973 119.724 37.502C120.35 34.5415 120.609 29.9858 118.284 23.0896C115.96 16.1933 110.535 10.2031 110.535 10.2031C110.535 10.2031 111.556 10.6981 112.971 11.8152L113.275 12.0728Z" fill="#181818" fill-opacity="0.25" style="mix-blend-mode:overlay"/>
<path d="M118.795 35.1245C119.16 35.2003 119.083 35.4455 119.118 35.6179C120.303 41.7761 117.728 48.4485 112.754 52.1863C112.754 52.1863 112.591 52.3167 112.443 52.2864C112.16 52.2286 112.093 51.8543 112.485 51.5572C117.198 47.947 119.665 41.4677 118.435 35.5282C118.435 35.5282 118.452 35.1022 118.795 35.1245Z" fill="#000E87" fill-opacity="0.75"/>
<path d="M107.318 7.56106C107.318 7.56106 105.477 6.99396 104.807 6.88861C104.822 3.70342 100.933 1.4507 100.781 1.36328C100.87 1.37897 102.318 1.67261 103.628 2.53111C104.504 3.10494 104.705 3.28426 105.434 4.07327C106.006 4.69417 106.652 5.67371 106.902 6.31254C107.151 6.95137 107.318 7.56106 107.318 7.56106Z" fill="#181818" fill-opacity="0.25" style="mix-blend-mode:overlay"/>
<path fill-rule="evenodd" clip-rule="evenodd" d="M84.1792 30.1028V36.5956C83.302 36.6601 82.3624 36.3571 81.5932 35.6837C80.1465 34.4114 79.8605 32.3069 80.9514 30.9774C81.7278 30.0331 82.992 29.7377 84.1792 30.1028Z" fill="#FFE7C2"/>
<path fill-rule="evenodd" clip-rule="evenodd" d="M84.303 29.5567C83.9559 29.4545 83.5967 29.3978 83.2353 29.3917C81.967 29.3812 80.7613 30.0635 80.1697 31.1686C78.7332 33.8519 81.18 37.0817 83.833 37.1633C84.1486 37.1729 84.465 37.1505 84.6228 36.9201C84.632 36.9066 84.6407 36.8954 84.6487 36.8849C84.6898 36.8317 84.7158 36.7978 84.7225 36.5962V30.1034C84.7108 29.7425 84.303 29.5567 84.303 29.5567ZM80.8465 32.6167C80.9681 31.4187 82.0406 30.522 83.1758 30.512C83.2938 30.512 83.4113 30.5191 83.5281 30.533C83.5652 30.5377 83.602 30.5431 83.6389 30.5489L83.6196 36.0241C81.9914 35.8169 80.6852 34.2042 80.8465 32.6167Z" fill="#000E87" fill-opacity="0.75"/>
<path d="M82.5914 32.4304C83.1882 32.4816 82.5911 34.2124 83.9555 34.6014C83.9555 34.6014 84.1708 34.7084 84.1855 34.8964C84.2247 35.4009 83.1666 35.2285 82.6499 34.4963C82.2885 33.9843 82.156 33.3368 82.2528 32.7051C82.2863 32.5407 82.3938 32.4238 82.5914 32.4304Z" fill="#000E87" fill-opacity="0.75"/>
<path fill-rule="evenodd" clip-rule="evenodd" d="M115.91 35.7393C115.141 36.4126 114.201 36.7159 113.324 36.6511V30.1586C114.512 29.7932 115.776 30.0889 116.552 31.033C117.643 32.3624 117.357 34.4672 115.91 35.7393Z" fill="#FFE7C2"/>
<path fill-rule="evenodd" clip-rule="evenodd" d="M117.748 33.2063C117.88 31.2128 116.206 29.4633 114.334 29.4464C113.711 29.4463 112.802 29.5559 112.782 30.1584L112.782 36.651C112.795 37.0467 113.072 37.2011 113.381 37.2158C115.576 37.3197 117.602 35.4066 117.748 33.2063ZM113.866 30.6043C113.866 30.6043 114.111 30.5702 114.283 30.5673C115.059 30.561 115.792 30.8971 116.236 31.5236C117.512 33.3232 115.876 35.7764 113.956 36.07L113.956 36.07C113.926 36.0741 113.896 36.0781 113.866 36.0816L113.866 30.6043Z" fill="#000E87" fill-opacity="0.75"/>
<path d="M114.905 32.485C115.537 32.528 115.266 34.1732 114.575 34.8285C114.142 35.2389 113.391 35.54 113.286 35.0513C113.198 34.6469 113.86 34.6549 114.21 34.2547C114.532 33.8871 114.626 33.3583 114.57 32.8684C114.543 32.666 114.67 32.4812 114.905 32.485Z" fill="#000E87" fill-opacity="0.75"/>
<path fill-rule="evenodd" clip-rule="evenodd" d="M108.38 21.9777C111.091 21.9129 113.323 24.1677 113.323 26.9716L113.319 37.4583C113.319 42.2439 109.397 46.4958 105.555 49.2506C105.555 49.2506 105.553 49.2506 105.553 49.2531V49.2486C103.764 50.2483 101.985 50.9923 100.634 51.4049C99.8447 51.6468 99.1965 51.7723 98.7757 51.7723C98.0082 51.7723 96.4951 51.3489 94.7239 50.589C93.8588 50.2167 92.9285 49.7684 91.9922 49.2461C91.9922 49.2441 91.99 49.2441 91.99 49.2441C88.1459 46.4893 84.2263 42.2369 84.2263 37.4583L84.2083 27.9646L84.207 27.3526C84.2023 24.7717 85.6176 22.4061 87.8627 21.2783C89.6247 20.3934 91.2047 19.2823 92.0015 18.6892C92.3241 18.4491 92.7531 18.4381 93.0879 18.6596C93.9176 19.2085 95.7133 20.2349 98.5534 21.0488C101.108 21.7811 103.759 22.0882 106.408 22.0248L108.38 21.9777Z" fill="#FFE7C2"/>
<path fill-rule="evenodd" clip-rule="evenodd" d="M93.5816 18.3181C93.2632 18.1162 92.939 17.9478 92.5807 17.9404C92.2882 17.9398 92.002 18.0249 91.7555 18.1839C91.6406 18.261 91.5253 18.3387 91.4095 18.4167C90.1676 19.2528 88.871 20.1259 87.5116 20.8322C85.152 22.0861 83.6708 24.6798 83.6641 27.3523C83.6665 28.5102 83.6658 29.6681 83.6651 30.826C83.6638 33.0765 83.6625 35.327 83.684 37.5772C83.6864 37.7159 83.6907 37.8545 83.6988 37.993C83.9322 42.0851 86.5378 45.3696 89.4938 47.9695C90.5627 48.9096 91.8279 49.7914 91.9127 49.8378C92.0472 49.9116 92.1841 49.9872 92.3231 50.064C94.427 51.2257 97.021 52.6582 99.4225 52.2732C101.55 51.9323 103.55 50.9642 105.468 49.929C105.655 49.8275 105.855 49.7157 105.855 49.7157C106.812 49.1145 107.659 48.3441 108.492 47.577C111.239 45.0455 113.822 41.4898 113.859 37.5178C113.862 36.8366 113.865 36.1553 113.867 35.4741C113.879 32.6155 113.891 29.7568 113.864 26.8984C113.828 24.5547 112.296 22.4376 110.217 21.7086C109.211 21.3558 108.12 21.3986 107.014 21.442C106.768 21.4517 106.52 21.4614 106.273 21.4668C101.893 21.543 97.3418 20.6807 93.5816 18.3181ZM92.1571 19.2593C92.2818 19.162 92.404 19.0667 92.5531 19.0613C92.6945 19.0589 92.8144 19.1396 92.9343 19.2204C92.9617 19.2388 92.989 19.2572 93.0166 19.2747C93.1782 19.3767 93.3416 19.4751 93.5068 19.5703C98.1024 22.222 103.316 22.6421 108.42 22.5372C110.779 22.5045 112.744 24.5875 112.78 26.9131C112.807 29.7656 112.795 32.6185 112.783 35.4714C112.781 36.1511 112.778 36.8308 112.775 37.5105C112.732 42.1287 109.231 45.8518 105.51 48.5975C105.437 48.6513 105.363 48.7048 105.29 48.758C103.93 49.5154 102.518 50.1757 101.056 50.6796L100.999 50.6992C100.135 50.9969 99.2339 51.3079 98.3461 51.1736C96.2112 50.8506 94.1986 49.8359 92.278 48.7692L92.2093 48.7198C91.0856 47.9044 90.0124 47.0087 89.0279 46.0182C86.8471 43.8239 84.7992 40.8185 84.7676 37.5103C84.7655 36.8743 84.7632 36.2389 84.761 35.6036C84.7511 32.8392 84.7412 30.0784 84.7483 27.2959C84.771 25.2279 85.8314 23.2314 87.496 22.131L87.501 22.1277C87.6746 22.0131 87.7528 21.9614 88.0506 21.8067C89.4611 21.0899 90.7918 20.2535 92.0686 19.3269C92.0985 19.305 92.1279 19.2821 92.1571 19.2593Z" fill="#000E87" fill-opacity="0.75"/>
<path d="M112.8 27.4776L112.787 37.0735C112.805 40.4849 111.276 43.1449 109.08 45.483C106.983 47.7167 105.061 49.5173 100.133 50.9265C102.341 50.3338 105.528 47.3044 107.039 45.6296C108.938 43.5235 110.579 40.6906 110.579 37.0807L110.554 23.0898C110.554 23.0898 111.172 23.357 111.818 24.1676C112.463 24.9785 112.657 25.9608 112.657 25.9608C112.657 25.9608 112.77 26.2154 112.784 26.616C112.797 27.0165 112.8 27.4776 112.8 27.4776Z" fill="#181818" fill-opacity="0.25" style="mix-blend-mode:overlay"/>
<path d="M92.0069 32.364C93.2624 32.364 93.2646 30.3467 92.0069 30.3467C90.7514 30.3467 90.7492 32.364 92.0069 32.364Z" fill="#000E87" fill-opacity="0.75"/>
<path d="M105.558 32.364C106.813 32.364 106.815 30.3467 105.558 30.3467C104.302 30.3467 104.3 32.364 105.558 32.364Z" fill="#000E87" fill-opacity="0.75"/>
<path d="M99.5386 34.8112C99.9645 34.8364 100.168 35.509 99.4973 35.7521C98.8341 35.9927 97.7985 35.9419 97.6924 35.3439C97.6295 34.9886 98.0282 34.7528 98.4095 34.9106C98.8232 35.0755 99.2929 34.8056 99.5386 34.8112Z" fill="#000E87" fill-opacity="0.75"/>
<path d="M94.5664 23.7576C95.0797 23.796 95.3377 24.675 94.6692 24.8621L90.3566 25.9354C89.855 26.045 89.8165 25.8556 89.7204 25.5819C89.6167 25.2865 89.7952 24.9318 90.103 24.8457L94.4155 23.7725C94.4771 23.759 94.4945 23.7563 94.5664 23.7576Z" fill="#000E87" fill-opacity="0.75"/>
<path d="M103.656 23.96C103.686 23.9631 103.714 23.9676 103.743 23.9741L107.772 24.973C108.31 25.1225 108.248 26.2221 107.519 26.0628L103.49 25.0639C102.972 24.9197 102.905 23.9245 103.656 23.96Z" fill="#000E87" fill-opacity="0.75"/>
<path d="M93.1624 36.3641C93.1624 37.3461 91.9875 38.1421 90.5382 38.1421C89.0889 38.1421 87.9141 37.3459 87.9141 36.3639C87.9143 35.3819 89.0891 34.5859 90.5382 34.5859C91.9875 34.5859 93.1624 35.3821 93.1624 36.3641Z" fill="white" fill-opacity="0.3"/>
<path d="M109.559 36.3641C109.559 37.3461 108.384 38.1421 106.934 38.1421C105.485 38.1421 104.311 37.3459 104.311 36.3639C104.311 35.3819 105.485 34.5859 106.934 34.5859C108.384 34.5859 109.559 35.3821 109.559 36.3641Z" fill="white" fill-opacity="0.3"/>
<path fill-rule="evenodd" clip-rule="evenodd" d="M103.658 38.8965C103.658 41.5536 101.492 43.7074 98.8193 43.7074C96.1467 43.7074 93.9805 41.5536 93.9805 38.8965H103.658Z" fill="#FF9490"/>
<path fill-rule="evenodd" clip-rule="evenodd" d="M103.708 41.1443C104.244 39.9861 104.493 38.4397 103.704 38.338L103.659 38.3359H93.9815C93.5418 38.3548 93.4395 38.9311 93.4395 38.9311C93.457 40.7267 94.4073 42.4195 95.8464 43.3735C98.4927 45.1279 102.398 43.9805 103.708 41.1443ZM100.714 42.7132C98.1708 43.9505 94.9112 42.1335 94.5604 39.4567H103.08L103.075 39.4886C102.874 40.8908 101.944 42.1143 100.714 42.7132Z" fill="#000E87" fill-opacity="0.75"/>
<path d="M102.172 42.3109C101.36 43.21 100.072 43.7067 98.7902 43.7067C97.6179 43.7067 96.4947 43.2947 95.7012 42.5286L95.7287 42.2607C95.7287 42.2607 96.896 40.1055 98.7592 41.4775L98.8474 41.443C99.0807 41.352 99.3046 41.2361 99.5264 41.118C100.994 40.3444 101.978 42.0316 101.978 42.0316L102.172 42.3109Z" fill="white" fill-opacity="0.3"/>
<path fill-rule="evenodd" clip-rule="evenodd" d="M102.436 41.7302C101.976 40.9795 101.203 40.3846 100.34 40.3557C99.8247 40.349 99.4918 40.517 99.1213 40.704C99.0565 40.7367 98.9905 40.77 98.9221 40.8031C98.8883 40.8192 98.8545 40.8349 98.8205 40.8504C97.6066 40.116 96.1163 40.6735 95.3659 41.8088C95.2505 41.9835 95.2196 42.013 95.2087 42.0486C95.2005 42.0752 95.2036 42.1052 95.1908 42.202L95.1632 42.4699C95.145 42.7294 95.3536 42.9592 95.3536 42.9592C96.7006 44.2333 98.7166 44.5592 100.454 44.0127C101.673 43.6292 103.044 42.7561 102.634 42.0164L102.436 41.7302ZM99.5301 41.7443C99.7767 41.6103 100.01 41.4833 100.279 41.4756C100.955 41.4705 101.444 42.2465 101.444 42.2465C100.052 43.3856 97.8687 43.469 96.4118 42.4049C96.2623 42.2944 96.49 42.108 96.6668 41.9631C96.6868 41.9468 96.7061 41.931 96.7242 41.9158C97.3159 41.4201 97.784 41.6478 98.1973 41.8488C98.4409 41.9673 98.6654 42.0765 98.885 42.023C99.1249 41.9645 99.3317 41.8521 99.5301 41.7443Z" fill="#000E87" fill-opacity="0.75"/>
<path d="M98.4276 41.8491C98.5825 41.6942 98.8613 41.4356 99.0797 41.3444L98.4276 41.8491Z" fill="white"/>
<path d="M99.0911 40.7845C99.5925 40.8019 99.7593 41.5735 99.2277 41.8934C98.8302 42.1433 98.4516 42.6666 98.0439 42.246C97.6036 41.7916 98.3727 40.7757 99.0911 40.7845Z" fill="#000E87" fill-opacity="0.75"/>
<path d="M87.2422 56.5671L91.7978 54.0234L98.6635 57.5825L96.7572 58.5997C94.9881 59.5436 92.8875 59.5481 91.1145 58.612L87.2422 56.5671Z" fill="white"/>
<path fill-rule="evenodd" clip-rule="evenodd" d="M92.0411 53.5232C91.9643 53.4878 91.9435 53.4813 91.8607 53.4676C91.7466 53.4591 91.6391 53.4817 91.5405 53.531L86.9848 56.0747C86.4237 56.4228 86.9959 57.0668 86.9959 57.0668L90.869 59.1124L90.9135 59.1355C91.8217 59.6017 92.8267 59.8581 93.8399 59.8714C95.5282 59.8934 97.0915 59.0562 98.6396 58.2272C98.7305 58.1785 98.8215 58.1298 98.9124 58.0813C99.2898 57.8565 99.2614 57.2878 98.9067 57.0822L92.0411 53.5232ZM89.5 57.1596C89.137 56.9533 88.7734 56.7467 88.4082 56.5539C89.5408 55.9217 90.6733 55.2893 91.8058 54.6569L91.8079 54.6558L97.4688 57.5903L96.5103 58.1019C95.3315 58.725 93.9499 58.9093 92.6621 58.6031C91.5933 58.349 90.5488 57.7555 89.5 57.1596Z" fill="#000E87" fill-opacity="0.75"/>
<path d="M109.972 56.5671L105.416 54.0234L98.5508 57.5825L100.457 58.5997C102.226 59.5436 104.327 59.5481 106.1 58.612L109.972 56.5671Z" fill="white"/>
<path fill-rule="evenodd" clip-rule="evenodd" d="M105.475 53.4665C105.466 53.4658 105.458 53.4651 105.448 53.4641C105.293 53.4616 105.251 53.4829 105.203 53.508C105.194 53.5128 105.184 53.5177 105.173 53.5226L98.3078 57.0816C97.9555 57.2858 97.9353 57.8189 98.2592 58.0549L100.254 59.1216C101.221 59.6235 102.296 59.8849 103.375 59.8707C105.278 59.8461 107.058 58.8384 108.846 57.8257C109.303 57.5674 109.759 57.3088 110.219 57.0662C110.583 56.8517 110.578 56.2899 110.23 56.0741L105.674 53.5304C105.561 53.4739 105.525 53.4708 105.475 53.4665ZM99.9965 57.7239C99.9134 57.6791 99.8303 57.6343 99.7471 57.5899L105.408 54.6553L108.808 56.5534L105.855 58.1126C104.678 58.7285 103.292 58.9088 102.005 58.597C101.299 58.4258 100.648 58.0751 99.9965 57.7239Z" fill="#000E87" fill-opacity="0.75"/>
<path d="M136.484 82.1647V110.906C136.484 113.279 134.624 115.203 132.329 115.203H68.5187C66.2239 115.203 64.3633 113.279 64.3633 110.906V65.8588C64.3633 63.4862 66.2239 61.5625 68.5187 61.5625H132.329C134.624 61.5625 136.484 63.4862 136.484 65.8588V77.7211" fill="white"/>
<path d="M132.36 61.0018C134.804 61.0255 137.018 63.2132 137.027 65.8575V77.7207C136.957 78.0852 136.812 78.156 136.693 78.2385L136.485 78.2811L136.278 78.2385L136.102 78.117C135.985 77.9364 135.984 77.9337 135.943 77.7207C135.943 73.7506 135.979 69.78 135.943 65.81C135.914 63.8839 134.304 62.1416 132.353 62.1225C111.06 62.0521 89.7658 61.9165 68.4733 62.1227C66.6119 62.1537 64.9251 63.8178 64.9067 65.8342C64.8603 80.8741 64.7706 95.9149 64.9069 110.954C64.9364 112.878 66.5459 114.623 68.4967 114.642C89.7901 114.718 111.084 114.848 132.377 114.642C134.244 114.611 135.937 112.932 135.943 110.905V82.1643C135.971 82.0186 135.979 81.853 136.278 81.6465L136.485 81.6039L136.693 81.6465L136.869 81.768C136.985 81.9487 136.986 81.9514 137.027 82.1643C137.027 91.7656 137.114 101.368 137.027 110.968C136.989 113.457 134.92 115.721 132.39 115.762C111.081 115.969 89.769 115.969 68.4597 115.762C66.0495 115.723 63.863 113.584 63.8231 110.968C63.6866 95.9115 63.6866 80.8528 63.8231 65.7959C63.8611 63.3051 65.9302 61.0441 68.4597 61.0022C89.7589 60.7958 111.06 60.9314 132.36 61.0018Z" fill="#000E87" fill-opacity="0.75"/>
<path fill-rule="evenodd" clip-rule="evenodd" d="M85.7189 101.398V95.9765C85.7189 95.8172 85.6053 95.6809 85.4523 95.6605C81.2264 95.0972 77.8794 91.6358 77.3339 87.2667C77.314 87.1087 77.1824 86.9912 77.0282 86.9912H71.7853C71.6036 86.9912 71.4625 87.1526 71.4777 87.34C72.0956 94.9838 77.9884 101.076 85.3814 101.716C85.5626 101.731 85.7189 101.586 85.7189 101.398Z" fill="#5DBBFF"/>
<path fill-rule="evenodd" clip-rule="evenodd" d="M77.931 87.902C77.7847 87.2193 77.6321 86.5077 77.0468 86.487C75.2857 86.4646 73.5244 86.4608 71.7636 86.487C71.119 86.5135 70.9638 87.2191 71.0453 87.9339C71.9101 95.5176 78.1726 101.535 85.2512 102.211C85.7509 102.255 86.1999 101.886 86.2066 101.401C86.2066 100.798 86.209 100.195 86.2114 99.5926C86.2161 98.3808 86.2209 97.169 86.2064 95.9574C86.1969 95.6665 86.0369 95.391 85.7919 95.2531C85.7108 95.2074 85.6668 95.1857 85.5328 95.1628C81.9745 94.647 78.8703 91.8218 78.0085 88.2495C77.9814 88.137 77.9563 88.0199 77.931 87.902ZM85.2313 101.195C78.1674 100.481 72.6334 94.3853 71.9812 87.4955H76.8721L76.8792 87.546C77.5268 91.9113 81.0106 95.4242 85.0791 96.1139C85.1298 96.1222 85.1805 96.1303 85.2313 96.1381V101.195Z" fill="#000E87" fill-opacity="0.75"/>
<path fill-rule="evenodd" clip-rule="evenodd" d="M78.5888 79.9378L74.4253 76.9536C74.2467 76.8259 74.0008 76.8759 73.8825 77.0641C72.5611 79.1613 71.7103 81.6048 71.484 84.2332C71.4638 84.4663 71.6416 84.6678 71.8679 84.6678H76.9619C77.154 84.6678 77.3166 84.5212 77.3426 84.3242C77.5273 82.9253 77.9991 81.6211 78.6944 80.4773C78.8043 80.2969 78.7583 80.0593 78.5888 79.9378Z" fill="#7C76BB"/>
<path fill-rule="evenodd" clip-rule="evenodd" d="M74.6849 76.5251C74.5479 76.4349 74.3902 76.3841 74.2285 76.378C73.8441 76.3731 73.5983 76.588 73.4112 76.89C72.0934 79.0154 71.2666 81.4808 71.0164 83.9974C70.9548 84.6416 71.3297 85.1641 71.8656 85.1715C72.432 85.1715 72.9985 85.1736 73.5649 85.1758C74.7043 85.1801 75.8437 85.1844 76.983 85.1712C77.3788 85.1569 77.7318 84.852 77.8166 84.4535C78.0451 83.2465 78.3865 81.9901 79.017 80.8985C79.3008 80.4143 79.28 79.8411 78.8852 79.5354C77.4968 78.5146 76.0984 77.508 74.6849 76.5251ZM71.9812 84.1581C72.2093 81.7738 72.985 79.4543 74.2321 77.4343C74.2325 77.4335 74.233 77.4328 74.2335 77.432C74.234 77.4313 74.2345 77.4306 74.2349 77.4298L78.2141 80.3216C77.5576 81.4414 77.1092 82.6897 76.8998 83.9806C76.8903 84.0414 76.8812 84.1021 76.8725 84.1629L71.9812 84.1581Z" fill="#000E87" fill-opacity="0.75"/>
<path fill-rule="evenodd" clip-rule="evenodd" d="M85.7183 75.6226V70.3334C85.7183 70.1061 85.5292 69.9279 85.3102 69.9478C81.6086 70.2861 78.2865 71.9916 75.8226 74.5734C75.6595 74.7444 75.6849 75.0266 75.8759 75.1636L80.1514 78.228C80.2893 78.3266 80.4747 78.3192 80.6028 78.2073C81.9349 77.0435 83.5834 76.2577 85.3965 76.0046C85.581 75.9788 85.7183 75.8152 85.7183 75.6226Z" fill="#FF9490"/>
<path fill-rule="evenodd" clip-rule="evenodd" d="M86.2059 70.3095C86.1877 69.8379 85.8016 69.4573 85.3601 69.4425L85.353 69.4425C85.3145 69.4423 85.3123 69.4422 85.27 69.4456C81.5917 69.7926 78.1212 71.4908 75.5352 74.1573C75.1265 74.5832 75.1664 75.2597 75.5952 75.5764C76.0703 75.9169 76.5441 76.2592 77.0179 76.6016C77.9716 77.2906 78.9252 77.9797 79.889 78.6535C80.1979 78.86 80.6165 78.8398 80.9036 78.6051C82.1409 77.5471 83.6849 76.7895 85.3012 76.5288C85.7942 76.4517 86.1903 76.1177 86.2059 75.6436C86.2261 73.8657 86.2293 72.0875 86.2059 70.3095ZM76.2822 74.8114C78.6738 72.3719 81.8657 70.8195 85.1856 70.4669L85.2305 70.4624L85.1975 75.5249C83.4198 75.8028 81.7471 76.5743 80.3574 77.7623L76.2822 74.8114Z" fill="#000E87" fill-opacity="0.75"/>
<path fill-rule="evenodd" clip-rule="evenodd" d="M101.867 86.9912H96.6317C96.4756 86.9912 96.3424 87.11 96.3223 87.2703C95.7755 91.6367 92.4307 95.0954 88.2074 95.6603C88.0526 95.6809 87.9375 95.8187 87.9375 95.9801V101.393C87.9375 101.584 88.0958 101.732 88.2794 101.715C95.6688 101.074 101.559 94.9847 102.178 87.3445C102.194 87.1546 102.051 86.9912 101.867 86.9912Z" fill="#FFCE93"/>
<path fill-rule="evenodd" clip-rule="evenodd" d="M101.844 91.3746C102.568 89.2313 103.123 86.5367 101.889 86.4868C100.13 86.461 98.3718 86.4646 96.6135 86.4868C96.1368 86.5034 95.8881 86.9395 95.7903 87.5427C95.2236 91.0451 92.5496 94.0481 89.2477 94.9384C89.1142 94.9744 88.9742 95.0064 88.8337 95.0386C88.1575 95.1934 87.4701 95.3507 87.4502 95.9607C87.4287 97.7788 87.4274 99.5974 87.4502 101.415C87.4593 101.646 87.5592 101.869 87.727 102.019C87.7408 102.031 87.7539 102.043 87.7667 102.055C87.879 102.16 87.9697 102.244 88.3185 102.218C94.4841 101.664 99.8629 97.2409 101.844 91.3746ZM96.7604 87.6558C96.7686 87.6023 96.7769 87.5487 96.7842 87.4951H101.675C100.988 94.728 95.1658 100.432 88.5724 101.18C88.556 101.181 88.5396 101.183 88.5232 101.185C88.4904 101.188 88.4576 101.192 88.4248 101.195L88.4252 96.1379C92.6531 95.4895 96.0859 91.8934 96.7604 87.6558Z" fill="#000E87" fill-opacity="0.75"/>
<path fill-rule="evenodd" clip-rule="evenodd" d="M101.941 84.6666H96.571C96.4469 84.6666 96.3442 84.5697 96.3288 84.4424C95.8011 80.0316 92.4203 76.5355 88.1541 75.9906C88.0309 75.9749 87.9375 75.8686 87.9375 75.74V70.1875C87.9375 70.0409 88.0578 69.9239 88.1992 69.9353C95.6528 70.5417 101.599 76.6895 102.185 84.3958C102.196 84.5419 102.082 84.6666 101.941 84.6666Z" fill="#33FAE3"/>
<path fill-rule="evenodd" clip-rule="evenodd" d="M89.9231 69.6652C89.1171 69.5078 88.1983 69.4307 88.1983 69.4307C87.7688 69.4258 87.4655 69.7643 87.4503 70.168C87.4341 71.4092 87.4394 72.6506 87.4448 73.8922C87.4474 74.5101 87.4501 75.1282 87.4501 75.7462C87.462 76.2853 88.0886 76.4908 88.0886 76.4908C91.6851 76.9602 94.7823 79.8322 95.646 83.4C95.6777 83.5309 95.7059 83.6687 95.7341 83.8072C95.8704 84.4741 96.0101 85.1579 96.5657 85.1713C97.1634 85.1713 97.761 85.174 98.3587 85.1768C99.5594 85.1823 100.76 85.1878 101.961 85.1711C102.156 85.1632 102.345 85.0767 102.477 84.9308C102.485 84.9218 102.493 84.913 102.501 84.9044C102.606 84.7905 102.693 84.6963 102.672 84.3596C102.106 77.1787 96.5941 70.967 89.9231 69.6652ZM88.5803 75.5446C88.5287 75.5361 88.4773 75.5278 88.4257 75.52V70.4627C95.4193 71.1771 101.019 77.2791 101.676 84.1628H96.7849C96.1618 79.8183 92.667 76.2393 88.5803 75.5446Z" fill="#000E87" fill-opacity="0.75"/>
<path d="M89.3625 81.2354C89.6619 81.276 89.847 81.6347 89.6927 81.9182L84.7206 90.2068C84.5393 90.4822 84.4589 90.4304 84.3139 90.417C84.0156 90.3898 83.8114 90.0507 83.9837 89.7342L88.9557 81.4456C89.0442 81.3114 89.131 81.2244 89.3625 81.2354Z" fill="#000E87" fill-opacity="0.75"/>
<path fill-rule="evenodd" clip-rule="evenodd" d="M89.5591 89.1146C90.1071 87.91 89.5064 86.2455 88.4397 86.2129C86.8811 86.1977 86.6097 89.1244 87.9111 89.842C88.6053 90.2248 89.2865 89.714 89.5591 89.1146ZM88.2325 88.9851C87.739 88.5027 87.8036 87.1282 88.4157 87.1096C88.5262 87.1085 88.6125 87.1995 88.6739 87.2829C89.2414 88.052 88.6008 89.3451 88.2325 88.9851Z" fill="#000E87" fill-opacity="0.75"/>
<path fill-rule="evenodd" clip-rule="evenodd" d="M86.3834 84.6175C86.9315 83.4129 86.3244 81.7473 85.2641 81.7159C83.7115 81.7006 83.4338 84.6274 84.7355 85.3449C85.4297 85.7277 86.1109 85.2169 86.3834 84.6175ZM85.0571 84.488C84.5634 84.0056 84.6268 82.6306 85.2403 82.6125C85.3465 82.6114 85.4291 82.6918 85.4985 82.7857C86.0663 83.5553 85.4254 84.8477 85.0571 84.488Z" fill="#000E87" fill-opacity="0.75"/>
<path d="M132.113 64.3689C132.344 64.3848 132.55 64.5514 132.754 64.7024C133.298 65.108 133.737 65.7194 133.825 66.4083C133.829 66.4386 133.829 66.4695 133.825 66.4998C133.783 66.8047 133.275 66.9022 133.171 66.4605C133.005 65.7993 132.469 65.3127 131.93 64.9925C131.685 64.8313 131.749 64.3611 132.113 64.3689Z" fill="#000E87" fill-opacity="0.75"/>
<path d="M129.983 71.5517C130.479 71.6358 130.599 72.5201 129.931 72.5575H115.582C115.064 72.5286 114.873 71.5885 115.582 71.5488H129.931C129.948 71.5497 129.966 71.5508 129.983 71.5517Z" fill="#000E87" fill-opacity="0.75"/>
<path d="M129.977 79.0267C130.281 79.0719 130.323 79.204 130.374 79.3192C130.508 79.6227 130.274 80.0163 129.93 80.0331H118.307C117.969 80.0165 117.898 79.8509 117.846 79.6937C117.746 79.3949 117.978 79.0406 118.307 79.0244H129.93C129.946 79.0251 129.961 79.026 129.977 79.0267Z" fill="#000E87" fill-opacity="0.75"/>
<path d="M114.331 79.0255C114.775 79.0717 114.758 79.2167 114.784 79.4783C114.811 79.7572 114.587 80.0232 114.298 80.0331H108.674C108.178 80.0161 107.985 79.0482 108.674 79.0244H114.298C114.309 79.0249 114.32 79.0251 114.331 79.0255Z" fill="#000E87" fill-opacity="0.75"/>
<path d="M67.4363 110.113C67.7478 110.129 67.7709 110.584 67.9232 110.892C68.2642 111.58 69.1995 111.823 69.155 112.234C69.1168 112.586 68.6019 112.526 68.1442 112.174C67.6107 111.765 67.1588 111.147 67.103 110.478C67.0876 110.292 67.2398 110.112 67.4363 110.113Z" fill="#000E87" fill-opacity="0.75"/>
<path d="M101.051 104.199C101.144 104.205 101.226 104.247 101.288 104.317L104.169 107.821C104.381 108.096 103.977 108.603 103.674 108.257L100.793 104.753C100.431 104.283 100.832 104.199 101.051 104.199Z" fill="#000E87" fill-opacity="0.75"/>
<path d="M103.044 104.321C103.364 104.34 103.671 104.904 103.995 105.311C104.188 105.57 103.809 106.089 103.5 105.747C103.05 105.217 102.423 104.597 102.884 104.356C102.933 104.331 102.988 104.319 103.044 104.321Z" fill="#000E87" fill-opacity="0.75"/>
<path d="M100.474 105.782C100.557 105.79 100.632 105.828 100.689 105.888C101.22 106.504 101.723 107.144 102.239 107.772C102.441 108.03 102.074 108.558 101.753 108.22C101.223 107.604 100.72 106.963 100.204 106.335C100.039 106.125 100.17 105.768 100.474 105.782Z" fill="#000E87" fill-opacity="0.75"/>
<path d="M129.96 86.7558C130.442 86.8013 130.601 87.7428 129.93 87.7636H125.379C124.868 87.7477 124.708 86.776 125.379 86.7549C126.905 86.7549 128.433 86.7081 129.96 86.7558Z" fill="#000E87" fill-opacity="0.75"/>
<path d="M121.511 86.7576C121.817 86.806 121.846 86.9255 121.899 87.0371C122.043 87.3395 121.819 87.7447 121.461 87.7636H108.673C108.171 87.7373 107.943 86.7932 108.673 86.7549H121.461C121.478 86.7558 121.494 86.7567 121.511 86.7576Z" fill="#000E87" fill-opacity="0.75"/>
<path d="M129.994 94.4896C130.473 94.588 130.627 95.4467 129.93 95.494H108.673C108.17 95.46 107.91 94.5371 108.673 94.4854H129.93C129.952 94.4867 129.973 94.4883 129.994 94.4896Z" fill="#000E87" fill-opacity="0.75"/>
<path d="M141.766 58.5332C142.054 58.5554 142.179 59.0169 141.893 59.1707C141.307 59.4513 140.709 59.7039 140.117 59.9703C139.825 60.0936 139.432 59.5819 139.844 59.3605C140.482 59.0546 141.108 58.514 141.766 58.5332Z" fill="#000E87" fill-opacity="0.75"/>
<path d="M136.561 54.8765C136.727 54.89 136.862 55.0342 136.868 55.2074C136.863 55.8322 136.83 56.4566 136.811 57.0812C136.793 57.4065 136.178 57.5577 136.161 57.0753C136.166 56.4505 136.199 55.8261 136.218 55.2015C136.228 55.0163 136.35 54.8694 136.561 54.8765Z" fill="#000E87" fill-opacity="0.75"/>
<path d="M139.439 56.0954C139.665 56.1133 139.819 56.3992 139.696 56.6105C139.332 57.1796 138.944 57.7319 138.567 58.2924C138.377 58.5625 137.795 58.3189 138.025 57.9214C138.389 57.3523 138.778 56.8 139.154 56.2395C139.219 56.1467 139.322 56.0918 139.439 56.0954Z" fill="#000E87" fill-opacity="0.75"/>
<path d="M127.059 16.2441C127.287 16.2603 127.388 16.5201 127.501 16.7333C128.066 17.8077 128.582 18.9102 129.052 20.0341C129.052 20.0341 129.112 20.2786 128.977 20.4111C128.826 20.5597 128.55 20.5101 128.455 20.3011C127.946 19.0845 127.385 17.8983 126.763 16.7438C126.763 16.7438 126.68 16.2422 127.059 16.2441Z" fill="#000E87" fill-opacity="0.75"/>
<path d="M117.717 5.64728C117.82 5.66299 117.794 5.65891 117.862 5.69998C120.836 7.70056 123.375 10.3133 125.422 13.2859C125.422 13.2859 125.609 13.5634 125.476 13.7562C125.156 14.2173 124.487 13.0688 123.846 12.2407C122.066 9.94188 119.948 7.91515 117.567 6.30399C117.567 6.30399 117.073 5.61187 117.717 5.64728Z" fill="#000E87" fill-opacity="0.75"/>
<path fill-rule="evenodd" clip-rule="evenodd" d="M133.626 113.843C133.621 113.681 133.613 113.509 133.596 113.328C133.583 113.156 133.563 112.974 133.541 112.786C133.509 112.55 133.473 112.307 133.426 112.064C133.344 111.619 133.235 111.178 133.1 110.793C133.057 110.669 133.013 110.549 132.961 110.436C132.734 109.911 132.446 109.541 132.098 109.502C131.679 109.454 131.328 109.833 131.065 110.455C130.94 110.754 130.835 111.11 130.753 111.503C130.614 112.183 130.542 112.974 130.559 113.762C130.564 113.992 130.575 114.21 130.589 114.417C130.625 114.946 130.69 115.403 130.773 115.785C130.792 115.876 130.814 115.964 130.841 116.041C131.005 116.55 131.287 116.823 131.539 116.968C131.8 117.114 132.098 117.153 132.383 117.092C132.399 117.089 132.416 117.085 132.432 117.079C132.922 116.962 133.405 116.57 133.531 115.996C133.637 115.497 133.651 114.693 133.626 113.843Z" fill="#FFE7C2"/>
<path fill-rule="evenodd" clip-rule="evenodd" d="M132.47 109.026C132.396 108.986 132.329 108.949 132.051 108.938C131.399 108.935 131.045 109.348 130.771 109.821C130.146 110.905 130.023 112.206 130.015 113.464C130.007 114.716 129.999 116.158 130.791 117.06C131.464 117.825 132.586 117.618 132.586 117.618C133.204 117.465 133.753 116.994 133.983 116.381C134.413 115.232 134.118 113.004 134.082 112.734C134.081 112.725 134.08 112.718 134.079 112.714C134.067 112.622 133.935 111.711 133.751 111.052C133.543 110.31 133.259 109.408 132.517 109.051C132.5 109.042 132.485 109.034 132.47 109.026ZM131.152 114.654C130.976 112.748 131.32 110.099 132.024 110.059C132.123 110.056 132.235 110.227 132.317 110.366C133.205 111.872 133.23 113.765 133.055 115.511C132.997 116.096 132.699 116.449 132.275 116.543C131.723 116.666 131.358 116 131.255 115.422C131.209 115.168 131.176 114.911 131.152 114.654Z" fill="#000E87" fill-opacity="0.75"/>
<path fill-rule="evenodd" clip-rule="evenodd" d="M130.575 114.426C130.578 114.403 130.575 114.38 130.575 114.358C130.534 112.99 130.079 110.555 129.211 110.458C128.346 110.36 127.809 112.354 127.85 114.286C127.852 114.477 127.861 114.662 127.875 114.834C127.905 115.317 127.962 115.735 128.036 116.086C128.291 117.272 129.181 117.282 129.211 117.282C129.321 117.275 129.422 117.259 129.512 117.236C129.948 117.13 130.287 116.734 130.397 116.225C130.49 115.791 130.591 115.152 130.575 114.426Z" fill="#FFE7C2"/>
<path fill-rule="evenodd" clip-rule="evenodd" d="M130.664 111.573C130.458 110.925 129.992 109.917 129.172 109.894C129.153 109.894 129.133 109.894 129.113 109.894C127.54 109.967 127.276 112.436 127.309 114.297C127.31 114.317 127.31 114.338 127.31 114.358C127.327 115.284 127.348 116.457 127.969 117.211C128.852 118.284 130.447 117.73 130.846 116.629C131.151 115.789 131.119 114.374 131.119 114.374C131.082 113.418 130.951 112.474 130.664 111.573ZM128.554 115.905C128.17 113.986 128.494 111.208 129.15 111.015C129.154 111.014 129.207 111.056 129.237 111.091C129.847 111.793 129.929 112.872 130.003 113.854C130.006 113.9 130.01 113.946 130.013 113.992C130.105 115.184 129.848 116.859 129.161 116.713C128.793 116.634 128.628 116.27 128.554 115.905Z" fill="#000E87" fill-opacity="0.75"/>
<path fill-rule="evenodd" clip-rule="evenodd" d="M127.745 114.247C127.71 113.061 127.315 111.411 126.565 111.326C125.847 111.245 125.39 112.396 125.379 113.955C125.379 114.03 125.379 114.108 125.382 114.186C125.395 114.811 125.455 115.333 125.543 115.745C125.762 116.779 126.543 116.786 126.562 116.786C126.658 116.779 126.746 116.763 126.825 116.744C127.203 116.653 127.496 116.309 127.592 115.865C127.649 115.596 127.713 115.236 127.737 114.821C127.748 114.639 127.751 114.448 127.745 114.247Z" fill="#FFE7C2"/>
<path fill-rule="evenodd" clip-rule="evenodd" d="M127.984 112.34C127.78 111.68 127.296 110.799 126.532 110.763C124.737 110.727 124.624 113.521 124.955 115.553C125.171 116.884 126.383 117.366 126.646 117.341C127.321 117.278 127.849 116.82 128.057 116.215C128.474 115.004 128.37 113.59 127.984 112.34ZM125.926 114.284C125.895 113.297 126.074 111.897 126.492 111.883C126.541 111.883 126.629 111.981 126.688 112.074C127.598 113.484 127.231 116.357 126.541 116.221C125.952 116.106 125.942 115.307 125.932 114.589C125.931 114.485 125.929 114.382 125.926 114.284Z" fill="#000E87" fill-opacity="0.75"/>
<path fill-rule="evenodd" clip-rule="evenodd" d="M125.375 114.365C125.37 114.229 125.354 114.08 125.332 113.927C125.23 113.295 124.967 112.611 124.417 112.569C124.239 112.556 124.069 112.601 123.918 112.692C123.486 112.958 123.195 113.6 123.22 114.329C123.231 114.696 123.261 115.02 123.368 115.243C123.658 115.856 124.299 115.856 124.299 115.856C124.384 115.853 124.464 115.843 124.535 115.834C124.655 115.814 124.765 115.778 124.861 115.723C125.044 115.632 125.178 115.487 125.236 115.315C125.313 115.088 125.395 114.751 125.375 114.365Z" fill="#FFE7C2"/>
<path fill-rule="evenodd" clip-rule="evenodd" d="M125.867 113.84C125.741 113.072 125.224 112.024 124.373 112.006C124.115 112.005 123.861 112.075 123.642 112.209C122.007 113.212 122.654 116.506 124.359 116.414C125.144 116.371 125.684 115.851 125.839 115.173C125.889 114.957 125.917 114.736 125.92 114.513C125.922 114.293 125.919 114.212 125.867 113.84ZM124.633 115.214C123.512 115.792 123.444 113.162 124.349 113.127C124.424 113.125 124.463 113.161 124.502 113.205C124.967 113.739 125.056 114.996 124.633 115.214Z" fill="#000E87" fill-opacity="0.75"/>
<path fill-rule="evenodd" clip-rule="evenodd" d="M63.925 80.1535C64.0818 80.1591 64.248 80.1676 64.4236 80.1846C64.5897 80.1988 64.7653 80.2185 64.9472 80.2414C65.1762 80.2752 65.4112 80.312 65.6464 80.3602C66.0761 80.4451 66.5026 80.5585 66.8757 80.6973C66.9949 80.7426 67.1109 80.7878 67.2206 80.8414C67.7286 81.0765 68.0861 81.3738 68.1238 81.7335C68.1706 82.1666 67.8038 82.5293 67.2017 82.8012C66.9134 82.9314 66.5685 83.039 66.1888 83.1239C65.5304 83.2683 64.7653 83.342 64.0035 83.3248C63.7808 83.3192 63.5708 83.3077 63.37 83.2938C62.859 83.2571 62.4167 83.1889 62.0466 83.104C61.9591 83.084 61.8743 83.0616 61.7991 83.0334C61.3067 82.8632 61.0433 82.5716 60.9021 82.3112C60.761 82.0422 60.7235 81.7335 60.7831 81.439C60.7862 81.422 60.7894 81.4051 60.7955 81.3881C60.9084 80.8811 61.2878 80.3828 61.8428 80.2526C62.3259 80.1421 63.1033 80.1279 63.925 80.1535Z" fill="#FFE7C2"/>
<path fill-rule="evenodd" clip-rule="evenodd" d="M67.8052 80.5206C66.4648 79.7102 64.8587 79.5894 63.3233 79.582C62.2217 79.5814 61.0549 79.7351 60.53 80.6084C60.4607 80.7241 60.4017 80.8462 60.3542 80.9733C60.3502 80.9841 60.3463 80.9944 60.3425 81.0044C60.3131 81.0816 60.2895 81.1437 60.2554 81.3136C60.0715 82.2286 60.6404 83.1512 61.4612 83.5004C62.8535 84.0926 64.4691 84.0027 65.9652 83.7385C67.0122 83.5533 68.1413 83.2133 68.5493 82.3447C68.891 81.618 68.3867 80.872 67.8052 80.5206ZM62.925 80.7016C63.0107 80.7026 63.0959 80.7037 63.1795 80.703C63.9024 80.7001 64.9139 80.8016 65.0406 80.8213C65.8622 80.9484 66.7633 81.0881 67.4119 81.5928C67.7458 81.8526 67.57 81.9562 67.3968 82.0582C67.3681 82.0751 67.3395 82.092 67.3133 82.1095C66.4387 82.6932 65.2517 82.7748 64.1515 82.7663C64.0951 82.7658 64.0382 82.7655 63.9808 82.7652C62.8725 82.7587 61.5904 82.7513 61.3322 81.9293C61.2118 81.5464 61.4213 81.0683 61.7833 80.8684C62.104 80.6916 62.5207 80.6967 62.925 80.7016Z" fill="#000E87" fill-opacity="0.75"/>
<path fill-rule="evenodd" clip-rule="evenodd" d="M63.3621 83.3065C63.3842 83.3036 63.4061 83.3065 63.428 83.3065C64.7514 83.3489 67.1062 83.8189 67.2003 84.7167C67.2942 85.6112 65.3658 86.1665 63.4969 86.1239C63.312 86.1212 63.1331 86.1127 62.9671 86.0983C62.4999 86.0672 62.0953 86.0078 61.7567 85.9313C60.6089 85.668 60.5996 84.7478 60.5996 84.7167C60.6059 84.6032 60.6215 84.4986 60.6434 84.4051C60.7468 83.955 61.1295 83.6037 61.6218 83.4903C62.042 83.3944 62.6597 83.2895 63.3621 83.3065Z" fill="#FFE7C2"/>
<path fill-rule="evenodd" clip-rule="evenodd" d="M63.2947 82.7419C63.2949 82.7434 63.295 82.7449 63.2685 82.7446C62.2311 82.7386 60.8766 82.8374 60.3086 83.7954C59.6577 84.8935 60.4612 86.1506 61.5103 86.4456C63.2319 86.9295 66.0401 87.068 67.3819 85.6433C68.0395 84.9451 67.5898 83.9799 66.9596 83.5941C66.0213 83.0194 64.8067 82.8233 63.6512 82.7558C63.2942 82.735 63.2945 82.7384 63.2947 82.7419ZM62.0655 83.971C62.4306 83.9051 62.8004 83.8697 63.1707 83.8652C63.1917 83.8652 63.2132 83.8651 63.2348 83.865C63.2901 83.8647 63.3453 83.8644 63.3918 83.8661C64.2192 83.8953 65.0588 84.0228 65.8445 84.3019C65.8603 84.3075 65.8763 84.3131 65.8923 84.3188C66.3219 84.4709 66.8243 84.6487 66.5881 84.8788C65.8987 85.5509 64.4919 85.6051 63.3127 85.5585C62.2903 85.5184 61.0586 85.3453 61.1503 84.6489C61.2108 84.1887 61.6603 84.0439 62.0655 83.971Z" fill="#000E87" fill-opacity="0.75"/>
<path fill-rule="evenodd" clip-rule="evenodd" d="M63.5373 86.2343C64.6848 86.271 66.2809 86.6788 66.3624 87.4545C66.4409 88.1967 65.3276 88.6694 63.8196 88.6809C63.7474 88.6809 63.6722 88.6809 63.5967 88.678C62.9916 88.6638 62.4869 88.6018 62.0886 88.511C61.0883 88.2844 61.082 87.4774 61.082 87.4575C61.0883 87.3586 61.1039 87.2678 61.1228 87.1858C61.2106 86.7949 61.543 86.4918 61.9727 86.393C62.2328 86.3333 62.5808 86.2681 62.9823 86.2428C63.1579 86.2314 63.3428 86.2287 63.5373 86.2343Z" fill="#FFE7C2"/>
<path fill-rule="evenodd" clip-rule="evenodd" d="M66.8887 87.7385C67.1645 86.1488 65.0019 85.6875 63.3954 85.671C62.9761 85.6692 62.5559 85.7075 62.1425 85.7853C60.9499 86.0097 60.5291 87.2604 60.5392 87.4942C60.598 88.8575 62.0783 89.1668 63.2926 89.2273C64.7693 89.3011 66.673 88.9814 66.8887 87.7385ZM61.6275 87.4263C61.7066 86.8359 62.579 86.7964 63.3222 86.7917C64.6313 86.7906 66.0333 87.3034 65.7831 87.6094C65.771 87.6242 65.7578 87.6381 65.7437 87.6513C65.6947 87.6975 65.6385 87.7352 65.5809 87.7686C64.6974 88.2798 63.539 88.1947 62.4912 88.0198C62.1077 87.9559 61.5778 87.7961 61.6275 87.4263Z" fill="#000E87" fill-opacity="0.75"/>
<path fill-rule="evenodd" clip-rule="evenodd" d="M63.4228 88.6846C63.5544 88.6902 63.6988 88.7072 63.8463 88.7299C64.4576 88.8345 65.1193 89.1064 65.1601 89.6756C65.1726 89.8596 65.1286 90.0351 65.0408 90.1911C64.7837 90.6383 64.163 90.9387 63.4573 90.9129C63.1031 90.9017 62.7896 90.8705 62.5732 90.7602C61.9805 90.4599 61.9805 89.7973 61.9805 89.7973C61.9835 89.7094 61.993 89.6274 62.0024 89.5538C62.0212 89.4292 62.0557 89.3158 62.109 89.2169C62.1968 89.0271 62.338 88.8883 62.504 88.8289C62.7237 88.7496 63.0497 88.6646 63.4228 88.6846Z" fill="#FFE7C2"/>
<path fill-rule="evenodd" clip-rule="evenodd" d="M65.6857 89.969C65.8585 88.8839 65.0132 88.1679 63.3638 88.1213C62.3221 88.1092 61.5734 88.6111 61.4611 89.511L61.4395 89.8401C61.5587 92.0637 65.3881 91.8386 65.6857 89.969ZM62.5262 89.749C62.5643 89.2918 62.9487 89.249 63.2917 89.242C63.8753 89.2391 64.5307 89.3319 64.6157 89.6926C64.7111 90.0969 64.0867 90.3226 63.652 90.3502C62.882 90.3991 62.5056 89.994 62.5262 89.749Z" fill="#000E87" fill-opacity="0.75"/>
<path d="M56.8014 62.8332C56.9426 62.8512 56.9497 62.8811 56.9894 62.918C57.1623 63.0788 57.0432 63.353 56.8891 63.6436C56.3328 64.7013 55.8263 65.7854 55.3646 66.889C55.3646 66.889 55.2111 67.1255 55.0065 67.0862C54.3925 66.9682 55.1756 65.6285 55.7106 64.5232C55.9586 64.0108 56.2182 63.5049 56.4876 63.0044C56.4876 63.0044 56.5728 62.8191 56.8014 62.8332Z" fill="#000E87" fill-opacity="0.75"/>
<path d="M66.1637 52.2347C66.4794 52.2797 66.6622 52.61 66.0724 53.0139C63.2546 54.9559 60.8246 57.4902 58.8733 60.3423C58.8733 60.3423 58.6995 60.5257 58.517 60.471C57.9646 60.3054 58.8446 59.205 59.5224 58.3349C61.3354 56.0069 63.4855 53.96 65.8963 52.3286C65.8963 52.3286 65.9729 52.2265 66.1637 52.2347Z" fill="#000E87" fill-opacity="0.75"/>
<path d="M186.264 145.448C186.61 145.501 186.657 145.656 186.712 145.791C186.846 146.126 186.588 146.547 186.211 146.566H172.327C171.835 146.541 171.808 146.275 171.787 146.061C171.758 145.75 172.016 145.461 172.327 145.445H186.211C186.229 145.446 186.246 145.447 186.264 145.448Z" fill="#000E87" fill-opacity="0.75"/>
<path d="M167.146 145.488C167.321 145.609 167.323 145.611 167.44 145.791L167.481 146.006L167.44 146.22L167.322 146.402L167.146 146.523L166.939 146.566H20.2959L20.0884 146.523C19.9139 146.403 19.912 146.401 19.7951 146.22L19.7539 146.006L19.7951 145.791L19.9126 145.609C20.0873 145.489 20.0899 145.488 20.2959 145.445H166.939C167.008 145.459 167.077 145.474 167.146 145.488Z" fill="#000E87" fill-opacity="0.75"/>
<path d="M15.4687 145.447C15.6176 145.467 15.6564 145.493 15.7262 145.541C16.1047 145.806 15.9742 146.542 15.4227 146.566H5.10599C4.95596 146.56 4.91521 146.537 4.84171 146.495C4.43239 146.259 4.52301 145.471 5.10599 145.445H15.4227C15.4381 145.446 15.4533 145.447 15.4687 145.447Z" fill="#000E87" fill-opacity="0.75"/>
</svg>
