<svg width="24" height="28" viewBox="0 0 24 28" fill="none" xmlns="http://www.w3.org/2000/svg">
<path opacity="0.12" d="M2.68997 8.60545C3.57755 4.16759 7.47414 0.973145 11.9999 0.973145C16.5256 0.973145 20.4222 4.16759 21.3098 8.60544L22.9363 16.7378C23.3682 18.8972 22.221 21.078 20.2086 21.9724C15.0188 24.279 8.98098 24.279 3.79116 21.9724C1.77882 21.078 0.631623 18.8972 1.0635 16.7378L2.68997 8.60545Z" fill="#334BFA"/>
<path fill-rule="evenodd" clip-rule="evenodd" d="M12.0002 0.223145C7.11692 0.223145 2.91251 3.66993 1.95482 8.45836L0.32835 16.5907C-0.173331 19.0991 1.15843 21.6229 3.48685 22.6578C4.39371 23.0608 5.3254 23.396 6.27357 23.6633L6.45054 24.0614C7.42528 26.2546 9.60017 27.668 12.0002 27.668C14.4002 27.668 16.5751 26.2546 17.5498 24.0614L17.7268 23.6633C18.6749 23.396 19.6066 23.0608 20.5135 22.6578C22.8419 21.6229 24.1737 19.0991 23.672 16.5907L22.0455 8.45836C21.0878 3.66993 16.8834 0.223145 12.0002 0.223145ZM17.0902 22.2827C17.0281 22.291 16.9675 22.3071 16.9097 22.3303C13.6991 23.1597 10.3012 23.1597 7.09067 22.3303C7.03287 22.3071 6.97223 22.291 6.91018 22.2827C5.95137 22.0251 5.00998 21.6933 4.09605 21.2871C2.39977 20.5332 1.43715 18.6953 1.79922 16.8849L3.4257 8.75253C4.24315 4.66524 7.83194 1.72314 12.0002 1.72314C16.1684 1.72314 19.7572 4.66524 20.5746 8.75253L22.2011 16.8849C22.5632 18.6953 21.6006 20.5332 19.9043 21.2871C18.9904 21.6933 18.049 22.0251 17.0902 22.2827ZM8.17741 24.1051C10.7011 24.5681 13.2993 24.5681 15.8229 24.1051C14.9869 25.3788 13.5564 26.168 12.0002 26.168C10.4439 26.168 9.01343 25.3788 8.17741 24.1051Z" fill="#334BFA"/>
</svg>
