<svg width="12" height="12" viewBox="0 0 12 12" fill="none" xmlns="http://www.w3.org/2000/svg">
<path fill-rule="evenodd" clip-rule="evenodd" d="M5.81042 0.1521C6.00933 0.1521 6.2001 0.23112 6.34075 0.37177C6.4814 0.51242 6.56042 0.70319 6.56042 0.9021V5.1521H10.8104C11.0093 5.1521 11.2001 5.23112 11.3407 5.37177C11.4814 5.51242 11.5604 5.70319 11.5604 5.9021C11.5604 6.10101 11.4814 6.29178 11.3407 6.43243C11.2001 6.57308 11.0093 6.6521 10.8104 6.6521H6.56042V10.9021C6.56042 11.101 6.4814 11.2918 6.34075 11.4324C6.2001 11.5731 6.00933 11.6521 5.81042 11.6521C5.61152 11.6521 5.42074 11.5731 5.28009 11.4324C5.13944 11.2918 5.06042 11.101 5.06042 10.9021V6.6521H0.810425C0.611515 6.6521 0.420745 6.57308 0.280095 6.43243C0.139445 6.29178 0.0604248 6.10101 0.0604248 5.9021C0.0604248 5.70319 0.139445 5.51242 0.280095 5.37177C0.420745 5.23112 0.611515 5.1521 0.810425 5.1521H5.06042V0.9021C5.06042 0.70319 5.13944 0.51242 5.28009 0.37177C5.42074 0.23112 5.61152 0.1521 5.81042 0.1521Z" fill="#181818" fill-opacity="0.2"/>
</svg>
