<svg width="16" height="16" viewBox="0 0 16 16" fill="none" xmlns="http://www.w3.org/2000/svg">
<path fill-rule="evenodd" clip-rule="evenodd" d="M7.57031 0.499268C7.82976 0.499268 8.07859 0.602337 8.26205 0.785794C8.4455 0.96925 8.54857 1.21808 8.54857 1.47753V7.02101H14.0921C14.3515 7.02101 14.6004 7.12408 14.7837 7.30753C14.9673 7.49099 15.0703 7.73982 15.0703 7.99927C15.0703 8.25872 14.9673 8.50755 14.7837 8.691C14.6004 8.87446 14.3515 8.97753 14.0921 8.97753H8.54857V14.521C8.54857 14.7804 8.4455 15.0293 8.26205 15.2127C8.07859 15.3962 7.82976 15.4993 7.57031 15.4993C7.31086 15.4993 7.06203 15.3962 6.87858 15.2127C6.69512 15.0293 6.59205 14.7804 6.59205 14.521V8.97753H1.04857C0.789126 8.97753 0.540295 8.87446 0.356839 8.691C0.173382 8.50755 0.0703125 8.25872 0.0703125 7.99927C0.0703125 7.73982 0.173382 7.49099 0.356839 7.30753C0.540295 7.12408 0.789126 7.02101 1.04857 7.02101H6.59205V1.47753C6.59205 1.21808 6.69512 0.96925 6.87858 0.785794C7.06203 0.602337 7.31086 0.499268 7.57031 0.499268Z" fill="#334BFA"/>
</svg>
