<svg width="221" height="137" viewBox="0 0 221 137" fill="none" xmlns="http://www.w3.org/2000/svg">
<g clip-path="url(#clip0_3646_24439)">
<path fill-rule="evenodd" clip-rule="evenodd" d="M96.8577 125.544H85.593C83.3283 125.544 81.4922 123.717 81.4922 121.464V110.257C81.4922 108.004 83.3283 106.178 85.593 106.178H96.8577C99.1224 106.178 100.958 108.004 100.958 110.257V121.464C100.958 123.717 99.1224 125.544 96.8577 125.544Z" fill="#FA7F33"/>
<path fill-rule="evenodd" clip-rule="evenodd" d="M103.186 121.983H95.0333C92.2685 121.983 90.0273 119.753 90.0273 117.002V108.892C90.0273 106.142 92.2685 103.912 95.0333 103.912H103.186C105.95 103.912 108.192 106.142 108.192 108.892V117.002C108.192 119.753 105.95 121.983 103.186 121.983Z" fill="#FAE233"/>
<path fill-rule="evenodd" clip-rule="evenodd" d="M171.973 33.622C171.892 33.622 171.811 33.5904 171.75 33.5275L168.37 30.0295L164.954 33.4045C164.745 33.6097 164.407 33.6084 164.2 33.4026L160.813 30.0323C160.797 30.0169 160.78 30.0137 160.768 30.0137C160.755 30.0137 160.738 30.0169 160.723 30.0323L157.341 33.4036C157.22 33.524 157.024 33.5241 156.903 33.404C156.782 33.2841 156.782 33.0893 156.903 32.969L160.285 29.5974C160.414 29.469 160.585 29.3984 160.768 29.3984C160.95 29.3984 161.121 29.469 161.25 29.5972L164.578 32.9084L167.97 29.5579C168.192 29.3398 168.551 29.3403 168.772 29.558L168.778 29.5634L172.196 33.1011C172.314 33.2236 172.31 33.4184 172.187 33.5361C172.127 33.5935 172.05 33.622 171.973 33.622Z" fill="#FFE4DC"/>
<path fill-rule="evenodd" clip-rule="evenodd" d="M152.859 28.2589C152.723 28.2589 152.586 28.2072 152.482 28.1038L149.094 24.7335C149.078 24.7181 149.061 24.7149 149.049 24.7149C149.037 24.7149 149.019 24.7181 149.004 24.7335L145.622 28.1048C145.501 28.2251 145.305 28.2253 145.185 28.1053C145.064 27.9853 145.064 27.7904 145.184 27.6701L148.566 24.2986C148.695 24.1702 148.867 24.0996 149.049 24.0996C149.231 24.0996 149.402 24.1702 149.531 24.2984L152.86 27.6098L156.12 24.4069C156.242 24.2876 156.437 24.2887 156.558 24.4096C156.678 24.5305 156.676 24.7253 156.555 24.8447L153.235 28.1063C153.131 28.2081 152.995 28.2589 152.859 28.2589Z" fill="#FAE233"/>
<path fill-rule="evenodd" clip-rule="evenodd" d="M130.317 19.3413C128.7 19.3413 127.384 20.6501 127.384 22.2588V33.1738C127.384 34.7823 128.7 36.0911 130.317 36.0911H141.289C142.906 36.0911 144.221 34.7823 144.221 33.1738V22.2588C144.221 20.6501 142.906 19.3413 141.289 19.3413H130.317ZM141.289 38.2029H130.317C127.53 38.2029 125.262 35.9468 125.262 33.1738V22.2588C125.262 19.4856 127.53 17.2295 130.317 17.2295H141.289C144.076 17.2295 146.344 19.4856 146.344 22.2588V33.1738C146.344 35.9468 144.076 38.2029 141.289 38.2029Z" fill="#FA7F33"/>
<path fill-rule="evenodd" clip-rule="evenodd" d="M143.497 38.0182V91.7637C143.497 97.3214 138.952 101.843 133.366 101.843H110.516C104.929 101.843 100.385 97.3214 100.385 91.7637V38.0182C100.385 32.4604 104.929 27.9385 110.516 27.9385H133.366C138.952 27.9385 143.497 32.4604 143.497 38.0182Z" fill="white"/>
<path fill-rule="evenodd" clip-rule="evenodd" d="M143.497 38.0182V91.7637C143.497 97.3214 138.952 101.843 133.366 101.843H110.516C104.929 101.843 100.385 97.3214 100.385 91.7637V38.0182C100.385 32.4604 104.929 27.9385 110.516 27.9385H133.366C138.952 27.9385 143.497 32.4604 143.497 38.0182Z" fill="#FFE4DC"/>
<path fill-rule="evenodd" clip-rule="evenodd" d="M142.878 91.7637C142.878 96.9823 138.611 101.228 133.366 101.228H110.516C105.27 101.228 101.003 96.9823 101.003 91.7637V38.0182C101.003 32.7996 105.27 28.5538 110.516 28.5538H133.366C138.611 28.5538 142.878 32.7996 142.878 38.0182V91.7637ZM133.366 27.9385H110.516C104.929 27.9385 100.385 32.4604 100.385 38.0182V91.7637C100.385 97.3214 104.929 101.843 110.516 101.843H133.366C138.952 101.843 143.497 97.3214 143.497 91.7637V38.0182C143.497 32.4604 138.952 27.9385 133.366 27.9385Z" fill="#1D1D1B"/>
<path fill-rule="evenodd" clip-rule="evenodd" d="M130.053 33.9462L130.89 33.1131C130.973 33.03 131.116 33.0888 131.116 33.2064V34.8726C131.116 34.9901 130.973 35.049 130.89 34.9659L130.053 34.1328C130.001 34.0813 130.001 33.9977 130.053 33.9462Z" fill="#03A8A9"/>
<path fill-rule="evenodd" clip-rule="evenodd" d="M129.331 35.5616H126.494C126.165 35.5616 125.898 35.2965 125.898 34.9693V33.2554C125.898 32.9283 126.165 32.6631 126.494 32.6631H129.331C129.659 32.6631 129.926 32.9283 129.926 33.2554V34.9693C129.926 35.2965 129.659 35.5616 129.331 35.5616Z" fill="#03A8A9"/>
<path fill-rule="evenodd" clip-rule="evenodd" d="M130.874 34.6135L130.297 34.0395L130.874 33.4656V34.6135ZM129.684 34.9693C129.684 35.1639 129.525 35.3223 129.329 35.3223H126.492C126.297 35.3223 126.137 35.1639 126.137 34.9693V33.2553C126.137 33.0608 126.297 32.9024 126.492 32.9024H129.329C129.525 32.9024 129.684 33.0608 129.684 33.2553V34.9693ZM131.125 32.8635C130.985 32.8057 130.825 32.8374 130.718 32.944L130.165 33.4944V33.2553C130.165 32.7969 129.79 32.4238 129.329 32.4238H126.492C126.031 32.4238 125.656 32.7969 125.656 33.2553V34.9693C125.656 35.4279 126.031 35.8009 126.492 35.8009H129.329C129.79 35.8009 130.165 35.4279 130.165 34.9693V34.5846L130.718 35.1352C130.79 35.2063 130.885 35.2441 130.982 35.2441C131.03 35.2441 131.078 35.2347 131.125 35.2156C131.265 35.1579 131.355 35.0233 131.355 34.8726V33.2065C131.355 33.0558 131.265 32.9211 131.125 32.8635Z" fill="#1D1D1B"/>
<path fill-rule="evenodd" clip-rule="evenodd" d="M110.533 94.5852H109.072V93.1631C109.072 93.0121 108.949 92.8896 108.797 92.8896C108.645 92.8896 108.522 93.0121 108.522 93.1631V94.5852H107.103C106.951 94.5852 106.828 94.7077 106.828 94.8587C106.828 95.0097 106.951 95.1322 107.103 95.1322H108.522V96.575C108.522 96.726 108.645 96.8485 108.797 96.8485C108.949 96.8485 109.072 96.726 109.072 96.575V95.1322H110.533C110.684 95.1322 110.807 95.0097 110.807 94.8587C110.807 94.7077 110.684 94.5852 110.533 94.5852Z" fill="#1D1D1B"/>
<path fill-rule="evenodd" clip-rule="evenodd" d="M116.213 96.703H114.009C113.634 96.703 113.33 96.4007 113.33 96.0277V93.8354C113.33 93.4626 113.634 93.1602 114.009 93.1602H116.213C116.587 93.1602 116.891 93.4626 116.891 93.8354V96.0277C116.891 96.4007 116.587 96.703 116.213 96.703Z" fill="#03A8A9"/>
<path fill-rule="evenodd" clip-rule="evenodd" d="M116.213 96.4637H115.802C115.779 96.2979 115.803 96.077 116.048 95.7855C116.229 95.5713 116.477 95.496 116.651 95.4701V96.0278C116.651 96.2682 116.454 96.4637 116.213 96.4637ZM113.571 96.0278V93.8355C113.571 93.595 113.767 93.3995 114.009 93.3995H116.213C116.454 93.3995 116.651 93.595 116.651 93.8355V94.9872C116.393 95.0146 115.983 95.1178 115.68 95.478C115.343 95.877 115.296 96.2182 115.317 96.4637H114.009C113.767 96.4637 113.571 96.2682 113.571 96.0278ZM116.213 92.9209H114.009C113.502 92.9209 113.09 93.3312 113.09 93.8355V96.0278C113.09 96.532 113.502 96.9423 114.009 96.9423H116.213C116.72 96.9423 117.132 96.532 117.132 96.0278V93.8355C117.132 93.3312 116.72 92.9209 116.213 92.9209Z" fill="#1D1D1B"/>
<path fill-rule="evenodd" clip-rule="evenodd" d="M134.359 32.5539C134.279 32.4374 134.104 32.4409 134.03 32.5616C133.778 32.9728 133.388 33.8435 133.952 34.6563C134.502 35.4489 135.404 35.4612 136.028 35.37C136.178 35.3481 136.249 35.1749 136.156 35.0563L135.559 34.2946C135.495 34.2122 135.377 34.1949 135.291 34.2552L135.176 34.3362C135.088 34.3984 134.965 34.3777 134.903 34.2901L134.69 33.9923C134.628 33.9055 134.647 33.7853 134.733 33.722L134.867 33.6235C134.952 33.561 134.972 33.4427 134.912 33.3559L134.359 32.5539Z" fill="#03A8A9"/>
<path fill-rule="evenodd" clip-rule="evenodd" d="M134.198 32.6823C133.956 33.0814 133.636 33.8405 134.121 34.5398C134.496 35.0798 135.123 35.2915 135.983 35.1692L135.403 34.428L135.295 34.5037C135.115 34.6308 134.863 34.5883 134.735 34.409L134.522 34.1112C134.396 33.9346 134.435 33.686 134.61 33.5571L134.737 33.4642L134.198 32.6823ZM135.523 35.6138C134.755 35.6139 134.17 35.3322 133.782 34.7728C133.567 34.4625 133.143 33.6153 133.854 32.4548C133.926 32.3388 134.05 32.2674 134.186 32.2638C134.324 32.2604 134.452 32.3253 134.529 32.4379L135.082 33.24C135.205 33.4187 135.165 33.6596 134.99 33.7884L134.863 33.8811L135.065 34.1631L135.172 34.0878C135.348 33.9639 135.59 33.9995 135.722 34.1684L136.318 34.9302C136.407 35.0438 136.428 35.1914 136.375 35.3249C136.32 35.4591 136.202 35.5518 136.058 35.5729C135.871 35.6002 135.693 35.6138 135.523 35.6138Z" fill="#1D1D1B"/>
<path fill-rule="evenodd" clip-rule="evenodd" d="M114.996 44.7243C114.996 47.54 112.701 49.8227 109.871 49.8227C107.041 49.8227 104.746 47.54 104.746 44.7243C104.746 41.9086 107.041 39.626 109.871 39.626C112.701 39.626 114.996 41.9086 114.996 44.7243Z" fill="#03A8A9"/>
<path fill-rule="evenodd" clip-rule="evenodd" d="M109.87 39.9337C107.214 39.9337 105.054 42.0828 105.054 44.7244C105.054 47.366 107.214 49.5151 109.87 49.5151C112.525 49.5151 114.685 47.366 114.685 44.7244C114.685 42.0828 112.525 39.9337 109.87 39.9337ZM109.87 50.1304C106.873 50.1304 104.436 47.7053 104.436 44.7244C104.436 41.7435 106.873 39.3184 109.87 39.3184C112.866 39.3184 115.304 41.7435 115.304 44.7244C115.304 47.7053 112.866 50.1304 109.87 50.1304Z" fill="#1D1D1B"/>
<path fill-rule="evenodd" clip-rule="evenodd" d="M106.314 44.8764C106.314 44.8764 105.819 42.2417 107.938 41.119C109.392 40.3478 111.114 41.3823 111.697 42.2075C112.53 43.3878 113.462 43.0503 113.903 43.8931C114.344 44.7359 113.55 45.7894 113.55 45.7894L106.314 44.8764Z" fill="#422B90"/>
<path fill-rule="evenodd" clip-rule="evenodd" d="M106.559 44.6319L113.415 45.497C113.587 45.2194 113.935 44.5467 113.659 44.0197C113.496 43.7092 113.248 43.6035 112.906 43.4573C112.483 43.2771 111.957 43.0527 111.471 42.3649C110.954 41.6312 109.373 40.6682 108.066 41.3606C106.468 42.2078 106.501 44.033 106.559 44.6319ZM113.674 46.081L106.08 45.1228L106.043 44.9268C106.038 44.898 105.912 44.2098 106.06 43.3716C106.26 42.2403 106.864 41.3779 107.808 40.8778C109.348 40.0617 111.218 41.0533 111.921 42.0507C112.317 42.6113 112.726 42.7858 113.122 42.9546C113.501 43.1162 113.893 43.2834 114.146 43.7671C114.662 44.7512 113.806 45.9051 113.769 45.9537L113.674 46.081Z" fill="#1D1D1B"/>
<path fill-rule="evenodd" clip-rule="evenodd" d="M108.787 42.5088C107.749 42.9787 107.012 44.1659 107.012 45.5571C107.012 47.3599 108.249 48.8213 109.775 48.8213C111.301 48.8213 112.539 47.3599 112.539 45.5571C112.539 45.5143 112.383 44.973 112.007 44.8959C109.803 44.9157 109.24 43.6056 108.787 42.5088Z" fill="white"/>
<path fill-rule="evenodd" clip-rule="evenodd" d="M109.775 48.548C108.403 48.548 107.286 47.2064 107.286 45.5573C107.286 44.4333 107.821 43.4022 108.643 42.8951C108.668 42.9534 108.695 43.0103 108.722 43.0644C108.725 43.0709 108.729 43.0767 108.733 43.0827C109.183 44.0762 109.919 45.1699 111.958 45.1698H111.973C112.119 45.2203 112.235 45.4715 112.263 45.5817C112.252 47.2196 111.14 48.548 109.775 48.548ZM112.062 44.6282L112.034 44.6224L112.004 44.6226C109.97 44.6439 109.476 43.4575 109.043 42.4108C108.911 42.0407 108.824 41.6763 108.823 41.6713C108.789 41.5243 108.641 41.433 108.493 41.4671C108.345 41.5014 108.253 41.6484 108.288 41.7954C108.292 41.8133 108.352 42.0657 108.45 42.3727C107.401 42.9605 106.736 44.1817 106.736 45.5573C106.736 47.508 108.099 49.095 109.775 49.095C111.45 49.095 112.813 47.508 112.813 45.5573C112.813 45.4258 112.609 44.7402 112.062 44.6282Z" fill="#1D1D1B"/>
<path fill-rule="evenodd" clip-rule="evenodd" d="M107.601 46.7865C106.594 46.7865 106.012 46.309 106.012 45.7482C106.012 45.1874 106.463 44.7393 107.426 44.7393" fill="white"/>
<path fill-rule="evenodd" clip-rule="evenodd" d="M107.6 47.06C106.32 47.06 105.736 46.38 105.736 45.7482C105.736 45.3758 105.897 45.0456 106.187 44.8184C106.487 44.5844 106.903 44.4658 107.425 44.4658C107.577 44.4658 107.7 44.5883 107.7 44.7393C107.7 44.8903 107.577 45.0128 107.425 45.0128C106.701 45.0128 106.286 45.2809 106.286 45.7482C106.286 46.1985 106.827 46.513 107.6 46.513C107.752 46.513 107.875 46.6355 107.875 46.7865C107.875 46.9375 107.752 47.06 107.6 47.06Z" fill="#1D1D1B"/>
<path fill-rule="evenodd" clip-rule="evenodd" d="M111.9 44.8936C112.907 44.8936 113.49 45.371 113.49 45.9318C113.49 46.4926 113.039 46.9408 112.076 46.9408" fill="white"/>
<path fill-rule="evenodd" clip-rule="evenodd" d="M112.077 47.2143C111.925 47.2143 111.802 47.0918 111.802 46.9408C111.802 46.7898 111.925 46.6673 112.077 46.6673C112.801 46.6673 113.216 46.3992 113.216 45.9319C113.216 45.4816 112.676 45.1671 111.902 45.1671C111.75 45.1671 111.627 45.0446 111.627 44.8936C111.627 44.7426 111.75 44.6201 111.902 44.6201C113.183 44.6201 113.766 45.3001 113.766 45.9319C113.766 46.3043 113.606 46.6345 113.315 46.8617C113.016 47.0957 112.599 47.2143 112.077 47.2143Z" fill="#1D1D1B"/>
<path fill-rule="evenodd" clip-rule="evenodd" d="M109.227 45.3564C109.227 45.4939 109.115 45.6054 108.977 45.6054C108.839 45.6054 108.727 45.4939 108.727 45.3564C108.727 45.2189 108.839 45.1074 108.977 45.1074C109.115 45.1074 109.227 45.2189 109.227 45.3564Z" fill="#1D1D1B"/>
<path fill-rule="evenodd" clip-rule="evenodd" d="M110.508 45.3691C110.508 45.5066 110.396 45.6181 110.258 45.6181C110.12 45.6181 110.008 45.5066 110.008 45.3691C110.008 45.2316 110.12 45.1201 110.258 45.1201C110.396 45.1201 110.508 45.2316 110.508 45.3691Z" fill="#1D1D1B"/>
<path fill-rule="evenodd" clip-rule="evenodd" d="M109.693 46.493C109.195 46.493 108.87 46.3769 108.852 46.3703C108.745 46.3313 108.69 46.2134 108.729 46.1071C108.769 46.001 108.887 45.9466 108.993 45.985C108.998 45.9868 109.493 46.1593 110.177 46.041C110.29 46.0216 110.396 46.0963 110.416 46.2079C110.435 46.3195 110.36 46.4257 110.248 46.4451C110.047 46.4799 109.86 46.493 109.693 46.493Z" fill="#1D1D1B"/>
<path fill-rule="evenodd" clip-rule="evenodd" d="M107.101 46.1846C107.047 46.1846 106.993 46.1633 106.952 46.1211C106.799 45.9619 106.772 45.8026 106.776 45.6971C106.784 45.4561 106.956 45.2938 106.976 45.276C107.06 45.1998 107.191 45.206 107.267 45.2898C107.343 45.3731 107.338 45.5016 107.255 45.578C107.167 45.6621 107.166 45.7496 107.251 45.8379C107.329 45.9198 107.326 46.0497 107.244 46.1279C107.204 46.1658 107.153 46.1846 107.101 46.1846Z" fill="#1D1D1B"/>
<path fill-rule="evenodd" clip-rule="evenodd" d="M112.41 46.4348C112.368 46.4348 112.325 46.422 112.288 46.3953C112.197 46.3284 112.177 46.2001 112.244 46.1087C112.382 45.9201 112.237 45.7462 112.207 45.7133C112.131 45.6305 112.135 45.5011 112.217 45.4241C112.299 45.3471 112.428 45.3498 112.506 45.4309C112.653 45.5829 112.856 45.9708 112.577 46.3507C112.536 46.4057 112.474 46.4348 112.41 46.4348Z" fill="#1D1D1B"/>
<path fill-rule="evenodd" clip-rule="evenodd" d="M139.357 76.0436C139.357 78.8595 137.063 81.142 134.232 81.142C131.402 81.142 129.107 78.8595 129.107 76.0436C129.107 73.2279 131.402 70.9453 134.232 70.9453C137.063 70.9453 139.357 73.2279 139.357 76.0436Z" fill="#03A8A9"/>
<path fill-rule="evenodd" clip-rule="evenodd" d="M134.231 71.253C131.576 71.253 129.415 73.4022 129.415 76.0437C129.415 78.6854 131.576 80.8345 134.231 80.8345C136.886 80.8345 139.046 78.6854 139.046 76.0437C139.046 73.4022 136.886 71.253 134.231 71.253ZM134.231 81.4498C131.235 81.4498 128.797 79.0246 128.797 76.0437C128.797 73.0628 131.235 70.6377 134.231 70.6377C137.227 70.6377 139.665 73.0628 139.665 76.0437C139.665 79.0246 137.227 81.4498 134.231 81.4498Z" fill="#1D1D1B"/>
<path fill-rule="evenodd" clip-rule="evenodd" d="M130.675 76.1956C130.675 76.1956 130.18 73.561 132.299 72.4383C133.754 71.6671 135.313 72.395 136.015 73.2283C136.891 74.2686 137.823 74.3696 138.264 75.2124C138.705 76.0551 137.911 77.1087 137.911 77.1087L130.675 76.1956Z" fill="#DB5F2C"/>
<path fill-rule="evenodd" clip-rule="evenodd" d="M130.92 75.951L137.776 76.8161C137.948 76.5385 138.296 75.8658 138.02 75.3389C137.823 74.9625 137.504 74.7537 137.1 74.4894C136.701 74.2285 136.249 73.9327 135.804 73.404C135.238 72.7321 133.821 71.9414 132.428 72.6797C131.632 73.1012 131.141 73.8042 130.966 74.7689C130.876 75.2643 130.896 75.7081 130.92 75.951ZM138.035 77.4001L130.441 76.442L130.405 76.2459C130.399 76.2172 130.273 75.5289 130.421 74.6907C130.621 73.5595 131.226 72.697 132.169 72.197C133.667 71.4031 135.377 72.0455 136.225 73.0527C136.619 73.5199 137.017 73.7805 137.402 74.0324C137.835 74.316 138.245 74.5837 138.508 75.0863C139.023 76.0703 138.167 77.2242 138.131 77.2729L138.035 77.4001Z" fill="#1D1D1B"/>
<path fill-rule="evenodd" clip-rule="evenodd" d="M133.708 73.7852C132.67 74.255 131.373 75.4856 131.373 76.8768C131.373 78.6796 132.61 80.141 134.137 80.141C135.663 80.141 136.9 78.6796 136.9 76.8768C136.9 76.834 136.745 76.2927 136.369 76.2156C134.998 75.354 134.445 74.6816 133.708 73.7852Z" fill="white"/>
<path fill-rule="evenodd" clip-rule="evenodd" d="M134.136 79.8675C132.764 79.8675 131.647 78.5258 131.647 76.8768C131.647 76.0167 132.341 74.791 133.632 74.1254C134.308 74.9438 134.902 75.6172 136.221 76.4468L136.264 76.4733L136.313 76.4834C136.469 76.5154 136.595 76.7857 136.625 76.9012C136.614 78.539 135.502 79.8675 134.136 79.8675ZM136.478 75.961C135.376 75.2635 134.829 74.6989 134.249 74.0092C134.244 73.9992 134.24 73.9891 134.234 73.9795C133.954 73.5325 133.78 73.0296 133.779 73.0245C133.73 72.8817 133.574 72.8048 133.43 72.8535C133.286 72.902 133.209 73.0572 133.258 73.2003C133.262 73.2129 133.321 73.3836 133.425 73.6179C132.267 74.2101 131.098 75.5072 131.098 76.8768C131.098 78.8274 132.461 80.4144 134.136 80.4144C135.812 80.4144 137.175 78.8274 137.175 76.8768C137.175 76.7497 136.984 76.1056 136.478 75.961Z" fill="#1D1D1B"/>
<path fill-rule="evenodd" clip-rule="evenodd" d="M131.962 78.1058C130.955 78.1058 130.373 77.6284 130.373 77.0675C130.373 76.5068 130.824 76.0586 131.787 76.0586" fill="white"/>
<path fill-rule="evenodd" clip-rule="evenodd" d="M131.962 78.3793C130.681 78.3793 130.098 77.6994 130.098 77.0676C130.098 76.6952 130.258 76.3649 130.549 76.1377C130.848 75.9038 131.265 75.7852 131.787 75.7852C131.938 75.7852 132.062 75.9076 132.062 76.0586C132.062 76.2097 131.938 76.3321 131.787 76.3321C131.073 76.3321 130.647 76.607 130.647 77.0676C130.647 77.5179 131.188 77.8324 131.962 77.8324C132.114 77.8324 132.237 77.9548 132.237 78.1058C132.237 78.2569 132.114 78.3793 131.962 78.3793Z" fill="#1D1D1B"/>
<path fill-rule="evenodd" clip-rule="evenodd" d="M136.262 76.2129C137.269 76.2129 137.851 76.6903 137.851 77.2512C137.851 77.8119 137.4 78.2601 136.437 78.2601" fill="white"/>
<path fill-rule="evenodd" clip-rule="evenodd" d="M136.438 78.5336C136.287 78.5336 136.163 78.4112 136.163 78.2601C136.163 78.1091 136.287 77.9867 136.438 77.9867C137.162 77.9867 137.577 77.7186 137.577 77.2511C137.577 76.8008 137.037 76.4864 136.263 76.4864C136.111 76.4864 135.988 76.364 135.988 76.2129C135.988 76.0619 136.111 75.9395 136.263 75.9395C137.544 75.9395 138.127 76.6194 138.127 77.2511C138.127 77.6235 137.967 77.9538 137.676 78.181C137.377 78.415 136.96 78.5336 136.438 78.5336Z" fill="#1D1D1B"/>
<path fill-rule="evenodd" clip-rule="evenodd" d="M133.721 76.667C133.721 76.8045 133.609 76.916 133.471 76.916C133.333 76.916 133.221 76.8045 133.221 76.667C133.221 76.5295 133.333 76.418 133.471 76.418C133.609 76.418 133.721 76.5295 133.721 76.667Z" fill="#1D1D1B"/>
<path fill-rule="evenodd" clip-rule="evenodd" d="M134.715 76.6699C134.715 76.8075 134.603 76.9189 134.465 76.9189C134.327 76.9189 134.215 76.8075 134.215 76.6699C134.215 76.5324 134.327 76.4209 134.465 76.4209C134.603 76.4209 134.715 76.5324 134.715 76.6699Z" fill="#1D1D1B"/>
<path fill-rule="evenodd" clip-rule="evenodd" d="M133.85 77.8605C133.517 77.8605 133.303 77.8014 133.288 77.7972C133.179 77.766 133.115 77.6525 133.147 77.5436C133.178 77.4348 133.292 77.372 133.401 77.4025C133.411 77.4053 133.921 77.5397 134.573 77.342C134.682 77.309 134.797 77.3699 134.83 77.4783C134.864 77.5866 134.802 77.7013 134.693 77.7343C134.373 77.8315 134.082 77.8605 133.85 77.8605Z" fill="#1D1D1B"/>
<path fill-rule="evenodd" clip-rule="evenodd" d="M131.463 77.5039C131.408 77.5039 131.354 77.4826 131.314 77.4404C131.161 77.2812 131.133 77.1219 131.137 77.0163C131.146 76.7754 131.318 76.613 131.337 76.5953C131.422 76.5191 131.552 76.5254 131.629 76.6091C131.705 76.6924 131.699 76.8209 131.616 76.8973C131.529 76.9814 131.527 77.0689 131.612 77.1572C131.691 77.2391 131.688 77.3689 131.605 77.4471C131.565 77.4851 131.514 77.5039 131.463 77.5039Z" fill="#1D1D1B"/>
<path fill-rule="evenodd" clip-rule="evenodd" d="M136.771 77.7541C136.729 77.7541 136.687 77.7414 136.65 77.7146C136.558 77.6478 136.538 77.5194 136.605 77.4279C136.744 77.2394 136.599 77.0656 136.568 77.0326C136.492 76.9498 136.496 76.8204 136.578 76.7435C136.661 76.6665 136.789 76.669 136.868 76.7502C137.014 76.9023 137.217 77.29 136.938 77.6701C136.898 77.725 136.835 77.7541 136.771 77.7541Z" fill="#1D1D1B"/>
<path fill-rule="evenodd" clip-rule="evenodd" d="M83.2666 70.2634H88.4815L88.3523 68.1322C88.3407 67.9422 88.6028 67.8431 88.749 67.9822L91.1458 70.2634H119.975C122.718 70.2634 124.942 72.2397 124.942 74.6776V85.1711C124.942 87.609 122.718 89.5853 119.975 89.5853H83.2666C80.5229 89.5853 78.2988 87.609 78.2988 85.1711V74.6776C78.2988 72.2397 80.5229 70.2634 83.2666 70.2634Z" fill="white"/>
<path fill-rule="evenodd" clip-rule="evenodd" d="M83.2672 70.571C80.6985 70.571 78.6088 72.4131 78.6088 74.6774V85.1709C78.6088 87.4353 80.6985 89.2774 83.2672 89.2774H119.975C122.544 89.2774 124.634 87.4353 124.634 85.1709V74.6774C124.634 72.4131 122.544 70.571 119.975 70.571H91.0223L88.6752 68.337L88.8106 70.571H83.2672ZM119.975 89.8928H83.2672C80.3575 89.8928 77.9902 87.7746 77.9902 85.1709V74.6774C77.9902 72.0738 80.3575 69.9556 83.2672 69.9556H88.1537L88.0442 68.1506C88.0317 67.9436 88.1501 67.7515 88.3457 67.6613C88.5561 67.5642 88.7986 67.6029 88.9634 67.7597L91.2706 69.9556H119.975C122.885 69.9556 125.252 72.0738 125.252 74.6774V85.1709C125.252 87.7746 122.885 89.8928 119.975 89.8928Z" fill="#1D1D1B"/>
<path fill-rule="evenodd" clip-rule="evenodd" d="M104.142 85.2022H84.2604C84.0896 85.2022 83.9512 85.0645 83.9512 84.8946C83.9512 84.7247 84.0896 84.5869 84.2604 84.5869H104.142C104.313 84.5869 104.451 84.7247 104.451 84.8946C104.451 85.0645 104.313 85.2022 104.142 85.2022Z" fill="#1D1D1B"/>
<path fill-rule="evenodd" clip-rule="evenodd" d="M160.754 66.8757H155.118L155.49 69.4952C155.513 69.6552 155.332 69.7642 155.2 69.6698L151.301 66.8757H123.938C121.215 66.8757 119.008 64.6799 119.008 61.9712V44.4143C119.008 41.7056 121.215 39.5098 123.938 39.5098H160.754C163.477 39.5098 165.684 41.7056 165.684 44.4143V61.9712C165.684 64.6799 163.477 66.8757 160.754 66.8757Z" fill="white"/>
<path fill-rule="evenodd" clip-rule="evenodd" d="M123.938 39.8175C121.391 39.8175 119.318 41.8796 119.318 44.4143V61.9712C119.318 64.506 121.391 66.5681 123.938 66.5681H151.401L155.143 69.2499L154.762 66.5681H160.755C163.303 66.5681 165.376 64.506 165.376 61.9712V44.4143C165.376 41.8796 163.303 39.8175 160.755 39.8175H123.938ZM155.308 70.0122C155.207 70.0122 155.106 69.9811 155.02 69.9196L151.202 67.1834H123.938C121.05 67.1834 118.699 64.8452 118.699 61.9712V44.4143C118.699 41.5403 121.05 39.2021 123.938 39.2021H160.755C163.644 39.2021 165.994 41.5403 165.994 44.4143V61.9712C165.994 64.8452 163.644 67.1834 160.755 67.1834H155.474L155.797 69.4522C155.825 69.6473 155.733 69.8393 155.564 69.9412C155.485 69.9886 155.396 70.0122 155.308 70.0122Z" fill="#1D1D1B"/>
<path fill-rule="evenodd" clip-rule="evenodd" d="M158.962 46.8087H124.467C124.297 46.8087 124.158 46.6709 124.158 46.501C124.158 46.3311 124.297 46.1934 124.467 46.1934H158.962C159.133 46.1934 159.272 46.3311 159.272 46.501C159.272 46.6709 159.133 46.8087 158.962 46.8087Z" fill="#1D1D1B"/>
<path fill-rule="evenodd" clip-rule="evenodd" d="M158.962 51.0489H124.467C124.297 51.0489 124.158 50.9112 124.158 50.7413C124.158 50.5714 124.297 50.4336 124.467 50.4336H158.962C159.133 50.4336 159.272 50.5714 159.272 50.7413C159.272 50.9112 159.133 51.0489 158.962 51.0489Z" fill="#1D1D1B"/>
<path fill-rule="evenodd" clip-rule="evenodd" d="M153.056 60.1759H124.467C124.297 60.1759 124.158 60.0381 124.158 59.8682C124.158 59.6983 124.297 59.5605 124.467 59.5605H153.056C153.227 59.5605 153.365 59.6983 153.365 59.8682C153.365 60.0381 153.227 60.1759 153.056 60.1759Z" fill="#1D1D1B"/>
<path fill-rule="evenodd" clip-rule="evenodd" d="M138.603 55.6124H124.467C124.297 55.6124 124.158 55.4746 124.158 55.3047C124.158 55.1348 124.297 54.9971 124.467 54.9971H138.603C138.774 54.9971 138.913 55.1348 138.913 55.3047C138.913 55.4746 138.774 55.6124 138.603 55.6124Z" fill="#1D1D1B"/>
<path fill-rule="evenodd" clip-rule="evenodd" d="M172.143 88.2501L168.389 101.439C168.287 101.797 168.143 102.132 167.965 102.44C166.973 104.159 164.9 105.055 162.897 104.491L150.905 101.111C148.541 100.445 147.168 97.999 147.837 95.6477L151.592 82.4592C152.262 80.1079 154.72 78.742 157.084 79.4078L165.468 81.7701L169.076 82.7867C171.439 83.4533 172.813 85.8989 172.143 88.2501Z" fill="#422B90"/>
<g style="mix-blend-mode:multiply">
<path fill-rule="evenodd" clip-rule="evenodd" d="M172.142 88.2505L168.388 101.439C168.286 101.797 168.143 102.132 167.965 102.441L163.605 98.9313C163.605 98.9313 164.867 94.5029 165.757 90.6653C166.647 86.8277 164.348 82.6948 164.348 82.6948L165.467 81.7705L169.075 82.7872C171.439 83.4538 172.813 85.8993 172.142 88.2505Z" fill="#FFD1C3"/>
</g>
<path fill-rule="evenodd" clip-rule="evenodd" d="M155.874 79.548C154.069 79.548 152.405 80.7329 151.889 82.5435L148.135 95.7319C147.513 97.9164 148.793 100.197 150.989 100.815L162.981 104.195C164.812 104.711 166.751 103.927 167.697 102.287C167.866 101.995 167.999 101.681 168.091 101.355L171.846 88.1666C172.468 85.9829 171.188 83.7025 168.992 83.0831L156.999 79.7042C156.624 79.5985 156.246 79.548 155.874 79.548ZM164.115 104.968C163.683 104.968 163.245 104.909 162.813 104.787L150.82 101.408C148.297 100.696 146.825 98.0751 147.54 95.5642L151.294 82.3757C152.01 79.8653 154.645 78.4013 157.168 79.1122L169.16 82.4911C171.685 83.2031 173.156 85.8244 172.441 88.3344L168.686 101.523C168.58 101.897 168.428 102.258 168.234 102.594C167.369 104.091 165.785 104.968 164.115 104.968Z" fill="#1D1D1B"/>
<path fill-rule="evenodd" clip-rule="evenodd" d="M162.074 65.9511C162.074 65.9511 162.442 61.0683 167.725 60.7436C170.981 60.5435 173.386 65.18 173.812 66.0802C173.853 66.1682 173.942 66.2229 174.04 66.2204C174.689 66.2043 177.078 66.1882 177.277 66.8194C177.465 67.4179 176.143 67.9459 175.657 68.1175C175.576 68.1464 175.549 68.2476 175.606 68.3125C176.024 68.787 177.347 70.3718 176.955 71.0222C176.721 71.4112 175.945 70.9501 175.597 70.7125C175.507 70.6514 175.385 70.7083 175.374 70.8158C175.273 71.8552 174.674 75.8354 171.411 77.1417C167.646 78.6493 165.659 77.7376 165.659 77.7376L162.074 65.9511Z" fill="#FA7F33"/>
<g style="mix-blend-mode:multiply">
<path fill-rule="evenodd" clip-rule="evenodd" d="M176.015 68.3133C176.835 69.2793 177.635 70.4915 177.221 71.18C177.132 71.3277 176.994 71.4255 176.822 71.4631C176.53 71.5266 176.137 71.4097 175.652 71.1144C175.572 71.7317 175.368 72.8571 174.862 74.0023C174.115 75.6876 172.994 76.8396 171.527 77.4269C169.782 78.1257 168.404 78.3199 167.411 78.3199C166.428 78.3199 165.823 78.1298 165.611 78.0498C165.403 77.8146 165.367 77.6109 165.574 77.4577C165.642 77.4078 165.735 77.3634 165.857 77.3251C165.995 77.2806 166.171 77.2451 166.387 77.2177C170.57 76.6927 172.756 74.2936 173.396 73.2434C174.037 72.1939 173.914 70.1329 173.5 69.4204C173.085 68.7087 174.301 68.4445 173.698 67.4696C173.095 66.4953 172.417 67.0197 170.758 65.3706C169.74 64.3567 169.418 62.5777 169.322 61.358C169.312 61.2384 169.305 61.1242 169.299 61.0162V61.0155C169.293 60.8938 169.289 60.781 169.286 60.6777C170.228 61.0237 171.158 61.7334 172.066 62.7999C173.153 64.0778 173.858 65.4616 174.074 65.9114C174.406 65.9046 175.161 65.8984 175.86 65.9709C176.914 66.0803 177.442 66.3134 177.572 66.7271C177.699 67.1325 177.521 67.7273 176.015 68.3133Z" fill="#FFD1C3"/>
</g>
<path fill-rule="evenodd" clip-rule="evenodd" d="M176.691 70.8625C176.617 70.8857 176.299 70.8181 175.772 70.4591C175.639 70.3683 175.472 70.3544 175.326 70.4222C175.179 70.4899 175.083 70.6259 175.067 70.7866C175.021 71.2597 174.853 72.4959 174.296 73.7552C173.617 75.288 172.608 76.3313 171.297 76.8565C168.233 78.083 166.385 77.6537 165.911 77.5018L165.857 77.3254L162.388 65.9214C162.417 65.6787 162.57 64.6477 163.197 63.6057C164.142 62.038 165.671 61.1786 167.745 61.0508C168.297 61.0166 168.825 61.1355 169.322 61.3584C171.667 62.4072 173.318 65.7587 173.532 66.2113C173.626 66.4096 173.83 66.5347 174.048 66.5279C175.906 66.4821 176.898 66.7302 176.982 66.9113C177.029 67.0605 176.608 67.455 175.554 67.8275C175.419 67.8754 175.317 67.9862 175.281 68.1243C175.245 68.2617 175.28 68.408 175.374 68.5154C176.434 69.718 176.838 70.6034 176.691 70.8625ZM177.572 66.7275C177.443 66.3139 176.914 66.0807 175.86 65.9713C175.162 65.8988 174.406 65.905 174.074 65.9119C173.859 65.462 173.153 64.0782 172.066 62.8003C171.158 61.7337 170.228 61.0241 169.286 60.6782C168.763 60.4846 168.236 60.404 167.707 60.4368C164.843 60.6125 163.377 62.0975 162.653 63.3124C161.872 64.6203 161.77 65.8756 161.766 65.9283L161.762 65.9856L165.403 77.9593L165.53 78.0173C165.538 78.0208 165.566 78.0331 165.612 78.0502C165.823 78.1302 166.428 78.3203 167.411 78.3203C168.404 78.3203 169.783 78.126 171.527 77.4274C172.994 76.8401 174.116 75.688 174.862 74.0027C175.368 72.8575 175.573 71.7322 175.652 71.1147C176.137 71.4101 176.53 71.5271 176.822 71.4635C176.994 71.4258 177.132 71.3281 177.221 71.1804C177.636 70.4919 176.836 69.2797 176.015 68.3137C177.521 67.7278 177.7 67.1329 177.572 66.7275Z" fill="#1D1D1B"/>
<path fill-rule="evenodd" clip-rule="evenodd" d="M169.525 72.9435C168.095 75.5997 165.607 77.1879 163.353 77.1127C162.71 77.0915 162.086 76.9349 161.511 76.6286C158.921 75.2496 158.159 71.2781 160.149 67.9505C162.036 64.7938 164.544 63.6213 167.203 63.1406C167.095 64.318 167.519 66.2747 169.103 67.6503C169.513 68.0058 170.001 68.323 170.576 68.5775C170.641 69.9667 170.304 71.4968 169.525 72.9435Z" fill="white"/>
<g style="mix-blend-mode:multiply">
<path fill-rule="evenodd" clip-rule="evenodd" d="M169.524 72.9436C168.094 75.5998 165.606 77.188 163.352 77.1128C164.514 76.2268 166.822 73.8352 167.746 72.1075C168.511 70.6786 169.135 68.838 169.102 67.6504C169.511 68.0059 169.999 68.3231 170.575 68.5776C170.64 69.9668 170.302 71.4969 169.524 72.9436Z" fill="#FFD1C3"/>
</g>
<path fill-rule="evenodd" clip-rule="evenodd" d="M164.296 66.5101C164.296 66.7218 164.123 66.8932 163.911 66.8932C163.698 66.8932 163.525 66.7218 163.525 66.5101C163.525 66.2985 163.698 66.127 163.911 66.127C164.123 66.127 164.296 66.2985 164.296 66.5101Z" fill="#1D1D1B"/>
<path fill-rule="evenodd" clip-rule="evenodd" d="M166.069 67.4495C166.069 67.6612 165.897 67.8327 165.684 67.8327C165.471 67.8327 165.299 67.6612 165.299 67.4495C165.299 67.2379 165.471 67.0664 165.684 67.0664C165.897 67.0664 166.069 67.2379 166.069 67.4495Z" fill="#1D1D1B"/>
<path fill-rule="evenodd" clip-rule="evenodd" d="M169.252 72.798C168.395 74.3906 167.123 75.6357 165.67 76.3038C164.246 76.9584 162.821 76.9772 161.656 76.357C160.651 75.8218 159.904 74.8344 159.552 73.5768C159.064 71.8326 159.378 69.839 160.414 68.1072C161.934 65.5639 163.934 64.1371 166.86 63.5208C166.86 63.5583 166.868 63.5939 166.881 63.627C166.923 65.0631 167.612 67.3841 170.04 68.6601C170.061 68.6798 170.083 68.698 170.109 68.7121C170.162 68.7411 170.217 68.768 170.273 68.7933C170.297 70.1284 169.946 71.5085 169.252 72.798ZM171.909 68.5421C171.902 68.5417 171.326 68.5125 170.79 68.3347L170.701 68.2956C167.917 67.066 167.396 64.404 167.51 63.1682L167.529 62.9628C167.614 62.4914 167.773 62.1606 167.775 62.1562C167.85 62.0039 167.788 61.8198 167.635 61.7447C167.482 61.6696 167.296 61.732 167.22 61.8844C167.209 61.9066 167.013 62.3074 166.915 62.8819C163.747 63.5086 161.508 65.0733 159.882 67.7927C158.761 69.6682 158.423 71.8365 158.956 73.7417C159.354 75.1628 160.209 76.2842 161.364 76.8995C162.023 77.25 162.749 77.4253 163.507 77.4253C164.293 77.4253 165.113 77.2375 165.929 76.8623C167.504 76.1384 168.877 74.7982 169.797 73.0884C170.503 71.7772 170.877 70.3744 170.891 69.0043C171.402 69.1333 171.852 69.1555 171.88 69.1567C171.885 69.1569 171.89 69.1571 171.895 69.1571C172.059 69.1571 172.196 69.0284 172.203 68.8635C172.211 68.6939 172.079 68.55 171.909 68.5421Z" fill="#1D1D1B"/>
<path fill-rule="evenodd" clip-rule="evenodd" d="M164.93 69.6559C164.915 69.6559 164.901 69.6548 164.886 69.6526C163.3 69.4237 162.475 68.4176 162.441 68.3749C162.334 68.2421 162.356 68.0486 162.489 67.9424C162.622 67.8365 162.816 67.8577 162.923 67.9896C162.934 68.0033 163.645 68.8517 164.974 69.0437C165.143 69.0681 165.261 69.2243 165.236 69.3924C165.214 69.5456 165.081 69.6559 164.93 69.6559Z" fill="#1D1D1B"/>
<path fill-rule="evenodd" clip-rule="evenodd" d="M170.01 71.0459C171.185 71.6908 171.719 73.0529 171.182 74.0289C170.644 75.0048 169.321 75.1567 167.984 74.5119" fill="white"/>
<g style="mix-blend-mode:multiply">
<path fill-rule="evenodd" clip-rule="evenodd" d="M170.01 71.0459C171.185 71.6908 171.719 73.0529 171.182 74.0289C170.644 75.0048 169.321 75.1567 167.984 74.5119" fill="#FFD1C3"/>
</g>
<path fill-rule="evenodd" clip-rule="evenodd" d="M169.531 75.2057C169.008 75.2057 168.432 75.0694 167.85 74.7888C167.697 74.7147 167.632 74.5307 167.707 74.3778C167.781 74.2247 167.966 74.1611 168.12 74.2352C169.347 74.8268 170.469 74.6846 170.911 73.8811C171.367 73.0531 170.887 71.8781 169.861 71.3154C169.712 71.2331 169.657 71.0461 169.74 70.8973C169.822 70.7486 170.011 70.6946 170.16 70.7766C171.478 71.5 172.07 73.0571 171.454 74.1769C171.082 74.8515 170.375 75.2056 169.531 75.2057Z" fill="#1D1D1B"/>
<path fill-rule="evenodd" clip-rule="evenodd" d="M169.315 74.0783C169.105 74.0783 168.916 74.0312 168.787 73.9761C168.63 73.9092 168.557 73.7283 168.625 73.5722C168.692 73.416 168.874 73.3436 169.031 73.4106C169.116 73.445 169.563 73.5997 169.836 73.1709C170.086 72.7756 169.658 72.4693 169.57 72.4119C169.427 72.3194 169.386 72.1293 169.478 71.9871C169.57 71.8448 169.76 71.8029 169.903 71.8936C170.326 72.1614 170.796 72.8099 170.358 73.4994C170.075 73.9463 169.666 74.0782 169.315 74.0783Z" fill="#1D1D1B"/>
<path fill-rule="evenodd" clip-rule="evenodd" d="M161.51 76.6284L160.717 79.9658C160.717 79.9658 161.348 81.9755 163.116 81.9755C164.883 81.9755 165.851 81.0543 165.851 81.0543L167.03 75.9883L166.803 76.0145C165.089 77.1759 163.109 77.48 161.51 76.6284Z" fill="white"/>
<g style="mix-blend-mode:multiply">
<path fill-rule="evenodd" clip-rule="evenodd" d="M162.971 81.375L163.89 77.2464L166.762 76.2422L165.82 80.6386C165.82 80.6386 164.586 82.2006 162.971 81.375Z" fill="#FFD1C3"/>
</g>
<path fill-rule="evenodd" clip-rule="evenodd" d="M161.039 79.9502C161.167 80.2952 161.763 81.6685 163.116 81.6685C164.481 81.6685 165.339 81.0728 165.573 80.8867L166.59 76.5153C164.955 77.4853 163.188 77.6868 161.723 77.0708L161.039 79.9502ZM163.116 82.2838C161.144 82.2838 160.45 80.149 160.422 80.0582L160.396 79.9777L161.302 76.169L161.656 76.3577C163.091 77.1219 164.95 76.8988 166.629 75.761L166.692 75.7184L167.43 75.6328L166.132 81.2138L166.065 81.2773C166.022 81.3184 164.986 82.2838 163.116 82.2838Z" fill="#1D1D1B"/>
<path fill-rule="evenodd" clip-rule="evenodd" d="M163.652 83.7572C163.119 83.7572 162.538 83.6667 161.918 83.4417C159.681 82.63 159.284 81.5094 159.193 81.0119C159.076 80.3684 159.284 79.2328 160.918 78.915C160.918 78.915 160.516 80.9611 162.613 81.5397C164.271 81.9971 165.732 81.0779 166.011 80.2746C166.011 80.2746 166.788 80.3479 166.878 81.3074C167.008 82.6926 165.784 83.7572 163.652 83.7572Z" fill="#422B90"/>
<g style="mix-blend-mode:multiply">
<path fill-rule="evenodd" clip-rule="evenodd" d="M163.953 81.8314C163.953 81.8314 164.628 82.7221 164.041 83.5544C163.454 84.3867 166.185 82.9481 166.507 82.6199C167.065 82.0505 166.61 79.9332 166.213 80.3128C165.352 81.1379 163.953 81.8314 163.953 81.8314Z" fill="#FFD1C3"/>
</g>
<path fill-rule="evenodd" clip-rule="evenodd" d="M160.571 79.3241C159.348 79.7449 159.458 80.7439 159.498 80.9568C159.612 81.5818 160.143 82.4701 162.024 83.1527C162.567 83.3497 163.115 83.4496 163.652 83.4496C164.76 83.4496 165.648 83.1472 166.151 82.5982C166.47 82.2498 166.615 81.8134 166.57 81.336C166.531 80.9194 166.333 80.7314 166.176 80.6472C165.666 81.5078 164.201 82.2973 162.531 81.8362C160.969 81.4053 160.57 80.1851 160.571 79.3241ZM163.652 84.0649C163.042 84.0649 162.423 83.9524 161.812 83.7307C159.655 82.9482 159.032 81.8502 158.889 81.0669C158.848 80.8425 158.79 80.2584 159.133 79.6841C159.36 79.3045 159.844 78.8105 160.858 78.6132L161.309 78.5254L161.221 78.974C161.208 79.0453 160.907 80.7497 162.696 81.2433C164.261 81.6749 165.514 80.7633 165.719 80.174L165.798 79.9455L166.04 79.9683C166.397 80.002 167.096 80.3193 167.186 81.279C167.247 81.9334 167.047 82.533 166.608 83.0126C165.986 83.6912 164.937 84.0649 163.652 84.0649Z" fill="#1D1D1B"/>
<path fill-rule="evenodd" clip-rule="evenodd" d="M162.28 103.369C162.023 103.463 159.682 104.301 156.807 104.59C156.146 104.656 155.521 104.688 154.93 104.688C150.399 104.688 147.9 102.857 146.569 101.211C144.908 99.1554 144.742 95.6502 145.996 89.1126C146.744 85.2088 147.741 81.6897 147.783 81.5413C148.321 79.6523 150.296 78.5543 152.195 79.0897C152.272 79.1115 152.348 79.1355 152.422 79.1615C154.181 79.7835 155.176 81.6664 154.66 83.4789C154.645 83.5357 153.829 86.4203 153.164 89.6931C152.201 94.4421 152.284 96.3646 152.364 96.9745C153.012 97.4797 154.295 97.6807 155.969 97.5277C156.042 97.5208 156.116 97.5132 156.189 97.505C158.059 97.3027 159.669 96.7461 159.806 96.6983L162.28 103.369Z" fill="#422B90"/>
<g style="mix-blend-mode:multiply">
<path fill-rule="evenodd" clip-rule="evenodd" d="M156.189 97.5047L155.884 101.034C155.884 101.034 151.122 101.361 149.481 97.8766C148.127 95.0038 151.275 83.212 152.422 79.1611C154.181 79.7833 155.176 81.6662 154.66 83.4787C154.645 83.5354 153.829 86.4199 153.164 89.6928C152.201 94.4418 152.284 96.3643 152.364 96.9742C153.012 97.4794 154.295 97.6804 155.969 97.5273C156.042 97.5204 156.116 97.5129 156.189 97.5047Z" fill="#FFD1C3"/>
</g>
<path fill-rule="evenodd" clip-rule="evenodd" d="M151.217 79.2611C150.667 79.2611 150.123 79.4007 149.63 79.675C148.869 80.098 148.319 80.7906 148.081 81.6253C148.039 81.7722 147.048 85.2664 146.299 89.17C145.065 95.6086 145.213 99.0412 146.811 101.018C149.056 103.797 152.466 104.38 154.931 104.38C155.522 104.38 156.143 104.348 156.776 104.284C159.138 104.046 161.134 103.434 161.882 103.182L159.62 97.0837C159.015 97.2753 157.573 97.6891 155.997 97.8335C154.247 97.9941 152.889 97.7749 152.174 97.2162L152.075 97.1388L152.058 97.0146C151.975 96.3926 151.888 94.4282 152.862 89.6318C153.527 86.3538 154.355 83.4245 154.363 83.3953C154.6 82.5604 154.497 81.6837 154.072 80.9263C153.647 80.169 152.95 79.6218 152.112 79.3855C151.816 79.3023 151.516 79.2611 151.217 79.2611ZM154.931 104.995C152.331 104.995 148.728 104.372 146.329 101.404C144.604 99.2694 144.419 95.6917 145.692 89.0547C146.445 85.1249 147.444 81.6055 147.486 81.4576C147.769 80.4648 148.423 79.641 149.328 79.1377C150.234 78.6345 151.282 78.5123 152.28 78.7934C153.278 79.0745 154.106 79.7254 154.612 80.6263C155.118 81.5271 155.241 82.5699 154.958 83.5627C154.95 83.5913 154.128 86.4983 153.468 89.7537C152.574 94.1578 152.587 96.0898 152.656 96.804C153.273 97.2052 154.457 97.3569 155.94 97.2209C157.926 97.0386 159.694 96.4115 159.711 96.4052L159.817 96.6942L160.097 96.5914L162.678 103.551L162.388 103.658C162.126 103.754 159.75 104.603 156.838 104.896C156.184 104.962 155.542 104.995 154.931 104.995Z" fill="#1D1D1B"/>
<path fill-rule="evenodd" clip-rule="evenodd" d="M165.798 103.334C165.821 103.348 168.386 102.599 168.482 102.597C168.945 102.585 169.416 102.281 169.483 101.802C169.611 100.886 168.369 100.71 168.369 100.71C168.467 100.735 168.565 100.745 168.661 100.743C169.127 100.731 169.622 100.43 169.669 99.9482C169.782 98.8039 168.415 98.6735 168.415 98.6735C168.415 98.6735 168.656 98.7011 168.772 98.6969C169.235 98.6851 169.612 98.5102 169.733 98.042C169.878 97.4768 169.535 96.9015 168.967 96.757C166.977 96.2505 164.039 96.3028 163.917 96.3092C163.917 96.3092 162.384 96.3092 160.674 96.5158C160.674 96.5158 163.059 101.557 165.798 103.334Z" fill="white"/>
<path fill-rule="evenodd" clip-rule="evenodd" d="M168.498 102.904C168.495 102.904 168.492 102.904 168.489 102.904C168.492 102.904 168.495 102.904 168.498 102.904ZM161.146 96.7724C161.752 97.9561 163.702 101.529 165.858 103.003C166.073 102.946 166.546 102.812 166.943 102.7C168.331 102.306 168.401 102.291 168.474 102.289C168.783 102.281 169.131 102.081 169.176 101.76C169.198 101.605 169.185 101.376 168.826 101.183C168.678 101.104 168.522 101.058 168.424 101.035C168.38 101.028 168.336 101.019 168.292 101.008L168.412 100.405C168.456 100.412 168.504 100.42 168.554 100.431C168.587 100.435 168.62 100.436 168.653 100.435C168.97 100.427 169.331 100.227 169.361 99.9183C169.383 99.6954 169.335 99.5163 169.214 99.3708C168.958 99.0618 168.457 98.9888 168.392 98.9805C168.386 98.9799 168.382 98.9794 168.379 98.9791L168.443 98.3672C168.446 98.3673 168.452 98.368 168.462 98.3692C168.554 98.3793 168.7 98.3919 168.76 98.3893C169.263 98.3765 169.384 98.1562 169.433 97.9656C169.482 97.7719 169.453 97.5705 169.351 97.3986C169.248 97.2266 169.085 97.1045 168.89 97.0549C167.069 96.5917 164.289 96.599 163.933 96.6164L163.917 96.6168C163.903 96.6168 162.636 96.6189 161.146 96.7724ZM165.775 103.643C165.716 103.643 165.681 103.625 165.628 103.591C164.455 102.83 163.216 101.427 161.947 99.4224C161.008 97.9411 160.418 96.6989 160.393 96.6468L160.211 96.2617L160.636 96.2104C162.336 96.0049 163.886 96.0014 163.916 96.0014C164.156 95.996 167.045 95.9504 169.043 96.4588C169.776 96.6452 170.219 97.3895 170.032 98.1181C169.952 98.4272 169.779 98.6618 169.526 98.8118C169.585 98.862 169.64 98.9178 169.692 98.9796C169.919 99.2538 170.015 99.5896 169.977 99.978C169.946 100.295 169.746 100.629 169.408 100.839C169.672 101.067 169.852 101.394 169.789 101.845C169.707 102.425 169.161 102.876 168.513 102.903C168.375 102.934 167.648 103.14 167.112 103.291C166.799 103.38 166.493 103.467 166.265 103.53C165.984 103.608 165.857 103.643 165.775 103.643Z" fill="#1D1D1B"/>
<path fill-rule="evenodd" clip-rule="evenodd" d="M168.697 99.1451C168.676 99.1451 168.655 99.143 168.633 99.1386C168.613 99.1343 166.558 98.713 164.723 98.713C164.552 98.713 164.414 98.5752 164.414 98.4053C164.414 98.2354 164.552 98.0977 164.723 98.0977C166.623 98.0977 168.673 98.5183 168.76 98.5362C168.927 98.5709 169.034 98.7338 168.999 98.9002C168.969 99.0453 168.84 99.1451 168.697 99.1451Z" fill="#1D1D1B"/>
<path fill-rule="evenodd" clip-rule="evenodd" d="M168.369 101.336C168.347 101.336 168.326 101.334 168.304 101.329C167.278 101.113 164.803 101.016 164.778 101.016C164.607 101.009 164.474 100.866 164.481 100.696C164.487 100.526 164.632 100.396 164.802 100.401C164.905 100.405 167.355 100.5 168.432 100.727C168.599 100.762 168.706 100.926 168.671 101.092C168.64 101.237 168.512 101.336 168.369 101.336Z" fill="#1D1D1B"/>
<path fill-rule="evenodd" clip-rule="evenodd" d="M175.74 98.2778C175.269 100.978 174.548 103.259 173.595 105.055C171.767 108.505 169.307 109.739 167.566 110.167C167.084 110.285 166.519 110.369 165.89 110.369C164.443 110.369 162.65 109.925 160.713 108.431C159.349 107.38 157.997 105.866 156.693 103.931C155.131 101.615 153.992 99.2226 153.51 98.1492C153.429 97.9694 153.367 97.8265 153.324 97.7274C153.283 97.6289 153.203 97.5524 153.103 97.5134C152.837 97.4103 152.319 97.1811 152.267 96.9534C151.914 95.3898 153.131 89.8375 153.131 89.8375C153.131 89.8375 154.73 89.7787 156.753 91.1113C157.803 91.8032 158.602 92.7877 159.128 93.5746C159.615 94.3041 159.868 94.8641 159.868 94.8641C159.876 94.8839 160.855 97.2201 162.334 99.5235C164.201 102.43 165.526 103.202 165.878 103.256C166.783 103.004 167.994 101.03 168.682 97.1551C169.324 93.537 169.227 89.9825 169.225 89.9469C169.167 87.9861 170.716 86.3466 172.687 86.2859C174.656 86.2262 176.306 87.7639 176.369 89.7247C176.375 89.8956 176.494 93.9527 175.74 98.2778Z" fill="white"/>
<path fill-rule="evenodd" clip-rule="evenodd" d="M152.566 96.8685C152.611 96.9288 152.819 97.0717 153.216 97.226C153.395 97.2961 153.535 97.4312 153.61 97.6065C153.651 97.7036 153.713 97.8448 153.793 98.0225C154.321 99.1991 155.433 101.508 156.95 103.759C158.235 105.666 159.566 107.156 160.903 108.187C162.515 109.43 164.194 110.06 165.89 110.06C166.43 110.06 166.969 109.995 167.493 109.867C169.172 109.454 171.548 108.259 173.322 104.911C174.26 103.143 174.971 100.893 175.436 98.2244L175.741 98.277L175.436 98.2244C176.185 93.926 176.066 89.9029 176.06 89.7338C176.004 87.9473 174.496 86.537 172.697 86.5924C170.9 86.6479 169.482 88.1483 169.535 89.937C169.536 89.9691 169.636 93.5511 168.987 97.2078C168.665 99.0199 168.199 100.573 167.639 101.7C167.116 102.751 166.536 103.392 165.961 103.552L165.897 103.57L165.831 103.56C165.308 103.479 163.928 102.573 162.074 99.6884C160.613 97.4139 159.637 95.1098 159.585 94.986C159.564 94.9413 159.318 94.4136 158.871 93.7441C158.397 93.0349 157.614 92.0467 156.583 91.367C155.118 90.4021 153.879 90.1979 153.379 90.1552C153.022 91.8424 152.313 95.6834 152.566 96.8685ZM165.89 110.676C164.053 110.676 162.248 110.002 160.524 108.674C159.134 107.602 157.759 106.064 156.436 104.102C154.893 101.813 153.764 99.468 153.228 98.2739C153.146 98.0924 153.084 97.9478 153.041 97.8475C153.031 97.8247 153.013 97.8078 152.991 97.7989C152.157 97.4755 152.007 97.1997 151.966 97.0202C151.602 95.4085 152.779 90.0006 152.829 89.7712L152.88 89.538L153.12 89.5292C153.189 89.5266 154.842 89.4824 156.924 90.8539C158.042 91.5904 158.88 92.6468 159.386 93.4033C159.882 94.1457 160.14 94.7136 160.15 94.7375L160.154 94.7455C160.164 94.7686 161.136 97.0846 162.595 99.357C164.299 102.009 165.516 102.81 165.864 102.935C166.455 102.686 167.648 101.208 168.377 97.1007C169.012 93.5268 168.918 89.9915 168.917 89.9568C168.853 87.8278 170.541 86.0434 172.678 85.9774C174.82 85.9127 176.611 87.5891 176.679 89.7141C176.684 89.8857 176.805 93.9699 176.045 98.3295C175.569 101.062 174.837 103.373 173.869 105.198C171.988 108.748 169.444 110.021 167.641 110.464C167.069 110.605 166.48 110.676 165.89 110.676Z" fill="#1D1D1B"/>
<path fill-rule="evenodd" clip-rule="evenodd" d="M175.742 98.2769C175.271 100.977 174.55 103.258 173.597 105.054C171.768 108.504 169.309 109.738 167.568 110.166C167.085 110.284 166.521 110.368 165.892 110.368C164.444 110.368 162.652 109.924 160.715 108.43C159.351 107.379 157.999 105.865 156.694 103.93C155.133 101.614 153.993 99.2217 153.512 98.1483C154.399 97.721 155.191 97.2295 155.887 96.7208C157.432 95.592 158.51 94.3757 159.13 93.5737C159.617 94.3032 159.869 94.8632 159.869 94.8632C159.878 94.883 160.856 97.2192 162.336 99.5226C164.203 102.429 165.528 103.202 165.879 103.256C166.784 103.003 167.995 101.029 168.683 97.1542C169.326 93.5361 169.228 89.9816 169.227 89.946C169.169 87.9852 170.718 86.3457 172.689 86.285C173.179 86.2698 173.649 86.3539 174.08 86.52C175.38 87.0172 176.324 88.2511 176.371 89.7238C176.376 89.8947 176.496 93.9518 175.742 98.2769Z" fill="#422B90"/>
<g style="mix-blend-mode:multiply">
<path fill-rule="evenodd" clip-rule="evenodd" d="M175.742 98.2774C175.271 100.978 174.55 103.258 173.597 105.055C171.768 108.505 169.309 109.738 167.568 110.166C167.085 110.284 166.521 110.369 165.892 110.369C164.444 110.369 162.652 109.924 160.715 108.431C159.351 107.379 157.999 105.866 156.694 103.931C155.133 101.615 153.993 99.2222 153.512 98.1488C154.399 97.7215 155.191 97.23 155.887 96.7213C157.287 99.6762 161.513 107.247 167.599 106.13C173.96 104.963 174.17 90.8833 174.08 86.5205C175.38 87.0177 176.324 88.2516 176.371 89.7243C176.376 89.8952 176.496 93.9523 175.742 98.2774Z" fill="#FFD1C3"/>
</g>
<path fill-rule="evenodd" clip-rule="evenodd" d="M153.914 98.2922C154.481 99.529 155.541 101.669 156.949 103.759C158.235 105.666 159.565 107.156 160.903 108.187C162.515 109.43 164.193 110.061 165.89 110.061C166.429 110.061 166.969 109.995 167.492 109.867C169.172 109.454 171.547 108.259 173.322 104.911C174.259 103.143 174.97 100.893 175.436 98.2245L175.74 98.277L175.436 98.2245C176.185 93.9261 176.065 89.903 176.06 89.7339C176.018 88.4261 175.197 87.2775 173.968 86.8074C173.562 86.6511 173.135 86.5789 172.697 86.5926C170.9 86.648 169.481 88.1484 169.534 89.9371C169.536 89.9692 169.636 93.5511 168.986 97.208C168.664 99.02 168.198 100.573 167.638 101.7C167.116 102.751 166.535 103.392 165.961 103.552L165.897 103.57L165.83 103.56C165.307 103.479 163.927 102.573 162.074 99.6885C160.613 97.4146 159.637 95.1113 159.584 94.9862C159.568 94.9505 159.402 94.5952 159.101 94.1036C158.439 94.9103 157.433 95.9723 156.068 96.9689C155.38 97.4715 154.657 97.9158 153.914 98.2922ZM165.89 110.676C164.053 110.676 162.247 110.002 160.524 108.674C159.134 107.602 157.758 106.064 156.436 104.102C154.893 101.813 153.764 99.4681 153.228 98.2739L153.105 98.0015L153.375 97.8716C154.179 97.4846 154.962 97.0141 155.702 96.473C157.211 95.3707 158.265 94.186 158.883 93.3863L159.147 93.0454L159.386 93.4036C159.882 94.1458 160.139 94.7137 160.15 94.7376L160.153 94.7456C160.163 94.7687 161.135 97.0847 162.595 99.3571C164.298 102.009 165.515 102.81 165.864 102.935C166.454 102.686 167.648 101.208 168.377 97.1008C169.012 93.5269 168.917 89.9916 168.916 89.9569C168.853 87.8279 170.54 86.0435 172.678 85.9775C173.2 85.9614 173.708 86.0475 174.19 86.2333C175.652 86.7921 176.629 88.1586 176.678 89.7142C176.684 89.8858 176.805 93.9699 176.045 98.3296C175.569 101.062 174.837 103.373 173.869 105.198C171.987 108.748 169.443 110.021 167.641 110.464C167.068 110.605 166.479 110.676 165.89 110.676Z" fill="#1D1D1B"/>
<path fill-rule="evenodd" clip-rule="evenodd" d="M81.1448 74.8945C80.8174 74.8945 80.5158 74.6813 80.4195 74.353L78.7492 68.6613C78.6322 68.2626 78.8623 67.845 79.2631 67.7286C79.6638 67.6121 80.0836 67.8411 80.2006 68.2397L81.8708 73.9314C81.9878 74.3302 81.7577 74.7478 81.3569 74.8642C81.2863 74.8847 81.2149 74.8945 81.1448 74.8945Z" fill="#DB5F2C"/>
<path fill-rule="evenodd" clip-rule="evenodd" d="M79.477 67.972C79.4318 67.972 79.3862 67.9785 79.3415 67.9914C79.0869 68.0654 78.9402 68.3317 79.0145 68.585L80.6847 74.2767C80.7443 74.4796 80.934 74.6214 81.1462 74.6214C81.1915 74.6214 81.237 74.6148 81.2814 74.602C81.5359 74.528 81.6826 74.2617 81.6083 74.0084L79.938 68.3167C79.9021 68.194 79.8202 68.0926 79.7075 68.0311C79.6357 67.992 79.5568 67.972 79.477 67.972ZM81.1462 75.1683C80.6913 75.1683 80.2846 74.8646 80.1569 74.43L78.4867 68.7383C78.3274 68.1955 78.6418 67.6249 79.1874 67.4664C79.4517 67.3896 79.7302 67.4198 79.9717 67.5515C80.2132 67.6831 80.3887 67.9005 80.4658 68.1634L82.1361 73.8551C82.2954 74.3979 81.981 74.9685 81.4354 75.127C81.3408 75.1544 81.2436 75.1683 81.1462 75.1683Z" fill="#1D1D1B"/>
<path fill-rule="evenodd" clip-rule="evenodd" d="M83.116 83.8554L81.6262 78.7539C81.5092 78.3552 81.7392 77.9376 82.14 77.8212C82.541 77.7052 82.9606 77.9337 83.0775 78.3325L84.5272 83.2805C84.6224 83.6049 84.3684 84.5115 84.2705 84.8379C84.2531 84.8958 84.1829 84.9179 84.1352 84.8804C83.8766 84.6772 83.1939 84.121 83.116 83.8554Z" fill="#DB5F2C"/>
<path fill-rule="evenodd" clip-rule="evenodd" d="M83.3792 83.778C83.4068 83.8559 83.6177 84.1015 84.0844 84.4879C84.2526 83.8703 84.2972 83.4742 84.2628 83.3571L82.8131 78.4089C82.7389 78.156 82.4712 78.0101 82.2163 78.0837C81.9619 78.1576 81.8152 78.4239 81.8895 78.6772L83.3792 83.778ZM84.1878 85.1724C84.1078 85.1724 84.0289 85.1458 83.9643 85.095C82.9615 84.3065 82.8788 84.0246 82.8516 83.9319L82.8515 83.9317L81.3617 78.8301C81.2025 78.2877 81.5168 77.7172 82.0624 77.5586C82.6086 77.4005 83.1818 77.7134 83.3409 78.2558L84.7907 83.204C84.8954 83.5609 84.7085 84.3321 84.5334 84.9161C84.4991 85.0302 84.4106 85.1198 84.2965 85.1556C84.2609 85.1668 84.2242 85.1724 84.1878 85.1724Z" fill="#1D1D1B"/>
<path fill-rule="evenodd" clip-rule="evenodd" d="M85.6448 37.3917C85.6448 37.3917 86.765 33.1001 84.0093 31.3377C81.6385 29.8216 79.4499 30.1894 78.8846 30.3218C78.8442 30.3313 78.8156 30.2839 78.8431 30.253C79.0973 29.9681 79.7117 29.1724 79.1375 28.6941C78.4102 28.0883 77.1956 30.0801 74.807 30.7992C72.5957 31.465 69.6461 33.7222 69.6426 34.8527C69.6403 35.5669 70.3954 35.6977 70.8954 35.5535C70.9883 35.5268 71.093 35.6184 71.0248 35.6865C70.233 36.4764 69.3957 39.2904 70.4678 40.7982C71.7132 42.55 85.6448 37.3917 85.6448 37.3917Z" fill="#422B90"/>
<g style="mix-blend-mode:multiply">
<path fill-rule="evenodd" clip-rule="evenodd" d="M85.943 37.4691L85.9032 37.6243L85.752 37.6804C85.743 37.6838 85.5094 37.7699 85.1067 37.9149L84.9658 37.638L84.8256 37.3611L84.3665 36.4545C84.3665 36.4545 84.2071 34.5169 82.5068 32.8254C80.8073 31.1347 76.6206 31.9599 76.6206 31.9599C76.6206 31.9599 77.4913 31.2584 76.9525 30.9289C76.7574 30.8092 76.0241 30.8735 75.1678 31.0048C74.6551 31.0827 74.0984 31.1846 73.5864 31.2851C73.1981 31.3616 72.836 31.4375 72.5391 31.5011C73.2717 31.0663 74.0352 30.7101 74.7169 30.505C75.833 30.1686 76.6818 29.5416 77.3635 29.0371C78.1215 28.4771 78.7765 27.9931 79.3352 28.458C79.5421 28.631 79.6616 28.8573 79.6809 29.1136C79.7015 29.3919 79.6012 29.6715 79.4665 29.9143C80.4712 29.8069 82.267 29.8582 84.1754 31.0793C85.3898 31.8553 86.0791 33.2151 86.1685 35.0105C86.2344 36.3355 85.9554 37.4233 85.943 37.4691Z" fill="#FFD1C3"/>
</g>
<path fill-rule="evenodd" clip-rule="evenodd" d="M85.3792 37.1608C85.2582 37.2052 85.0699 37.2736 84.8252 37.3611C83.6212 37.7911 81.055 38.6861 78.4318 39.458C76.3323 40.0754 74.6101 40.4938 73.3132 40.7016C71.2 41.0401 70.7931 40.7249 70.7189 40.6209C69.7293 39.2289 70.5849 36.5598 71.2426 35.9041C71.367 35.7804 71.3903 35.5971 71.3017 35.4481C71.2247 35.3182 71.079 35.2409 70.9285 35.2409C70.8886 35.2409 70.8481 35.2464 70.8082 35.258C70.5512 35.3326 70.2509 35.3004 70.0935 35.1821C70.0317 35.1363 69.9499 35.0522 69.9506 34.854C69.9533 33.9768 72.6542 31.7684 74.8953 31.0936C74.9874 31.0656 75.0781 31.0362 75.1674 31.0048C76.2553 30.6233 77.1013 29.997 77.7322 29.5314C78.2799 29.126 78.7535 28.7766 78.9376 28.9304C79.018 28.9967 79.0572 29.0672 79.0634 29.1588C79.0799 29.3762 78.906 29.7174 78.6105 30.0489C78.5088 30.1638 78.493 30.3286 78.572 30.4605C78.6504 30.5918 78.8043 30.6568 78.9541 30.6212C79.5314 30.4858 81.5897 30.157 83.8411 31.5968C86.0918 33.036 85.5372 36.4019 85.3792 37.1608ZM86.1681 35.0105C86.0788 33.2151 85.3895 31.8553 84.1751 31.0793C82.2666 29.8582 80.4709 29.8069 79.4661 29.9143C79.6008 29.6715 79.7012 29.3919 79.6805 29.1136C79.6613 28.8573 79.5417 28.631 79.3349 28.458C78.7761 27.9931 78.1212 28.4771 77.3632 29.0371C76.6814 29.5416 75.8327 30.1686 74.7166 30.505C74.0348 30.7101 73.2713 31.0663 72.5387 31.5011C70.8563 32.4986 69.3348 33.9091 69.332 34.8519C69.3307 35.2888 69.543 35.5404 69.721 35.6737C69.9409 35.8385 70.211 35.9048 70.466 35.9116C69.7327 37.1033 69.2042 39.5557 70.2145 40.9758C70.4481 41.3053 70.9443 41.468 71.7415 41.468C72.1978 41.468 72.7524 41.4147 73.4129 41.3087C74.7358 41.0968 76.4849 40.6722 78.6098 40.0473C81.2983 39.2563 83.927 38.3367 85.1063 37.9149C85.509 37.7699 85.7427 37.6838 85.7516 37.6804L85.9028 37.6243L85.9427 37.4691C85.9551 37.4233 86.2341 36.3355 86.1681 35.0105Z" fill="#1D1D1B"/>
<path fill-rule="evenodd" clip-rule="evenodd" d="M93.7736 54.7834C93.2162 57.1647 91.2452 59.0784 88.6667 59.4503L74.1253 61.5486C70.7654 62.034 67.6467 59.717 67.1587 56.3744L65.9004 47.7434C65.4131 44.4008 67.7415 41.2982 71.1014 40.8128L82.4897 39.1692L85.6428 38.7145C89.0027 38.2298 92.1214 40.5461 92.6087 43.8887L93.8677 52.5204C93.9811 53.2978 93.9419 54.0621 93.7736 54.7834Z" fill="#F1B61D"/>
<g style="mix-blend-mode:multiply">
<path fill-rule="evenodd" clip-rule="evenodd" d="M93.7741 54.7834L86.8082 57.1338C86.8082 57.1338 86.8137 50.3045 85.8908 47.3208C84.9678 44.3378 82.4902 44.2668 82.4902 44.2668V39.1692L85.6433 38.7145C89.0032 38.2298 92.1219 40.5461 92.6092 43.8887L93.8682 52.5204C93.9816 53.2978 93.9424 54.0621 93.7741 54.7834Z" fill="#FFD1C3"/>
</g>
<path fill-rule="evenodd" clip-rule="evenodd" d="M86.5379 38.9572C86.2558 38.9572 85.9719 38.9775 85.6876 39.0185L82.5345 39.4731L71.1463 41.1168C67.9607 41.577 65.7449 44.5297 66.2069 47.6988L67.4652 56.3298C67.6893 57.8651 68.5009 59.2219 69.7505 60.15C71.0001 61.0782 72.5382 61.4667 74.0813 61.2437L88.6227 59.1454C89.8082 58.9744 90.8956 58.4556 91.7673 57.6451C92.6195 56.8529 93.2092 55.839 93.4728 54.7134C93.6372 54.0085 93.6673 53.2854 93.562 52.5642L92.303 43.9324C92.0792 42.3971 91.2679 41.0405 90.0184 40.1124C88.9991 39.3553 87.7875 38.9572 86.5379 38.9572ZM73.2289 61.9206C71.8472 61.9206 70.5077 61.4804 69.3804 60.6431C67.9985 59.6166 67.1009 58.1162 66.8531 56.4181L65.5947 47.7871C65.0838 44.2823 67.5344 41.0169 71.0574 40.5079L82.4458 38.8642L85.5988 38.4095C87.3055 38.1634 89.0065 38.593 90.3884 39.6194C91.7703 40.6458 92.6677 42.1462 92.9151 43.8441L94.1742 52.4758C94.2905 53.2732 94.2572 54.0728 94.0752 54.8526V54.8527C93.7838 56.0977 93.1318 57.2188 92.1896 58.0947C91.2253 58.9913 90.0225 59.5652 88.7114 59.7544L74.1701 61.8526C73.8555 61.8981 73.5412 61.9206 73.2289 61.9206Z" fill="#1D1D1B"/>
<path fill-rule="evenodd" clip-rule="evenodd" d="M85.1095 39.8978C85.1095 43.4462 82.9303 46.3929 80.0652 46.9713C79.7298 47.0397 79.3848 47.0753 79.0329 47.0753C75.6771 47.0753 72.957 43.8619 72.957 39.8978C72.957 37.2321 74.1872 34.9061 76.0132 33.668C76.9685 35.0736 78.9278 37.0639 82.2802 36.8437C82.9234 36.802 83.6175 36.679 84.3659 36.4547C84.8401 37.4768 85.1095 38.6501 85.1095 39.8978Z" fill="white"/>
<g style="mix-blend-mode:multiply">
<path fill-rule="evenodd" clip-rule="evenodd" d="M85.1108 39.8972C85.1108 43.4456 82.9315 46.3923 80.0664 46.9707C81.2604 45.5009 82.1762 43.6495 82.4663 42.0652C82.8247 40.1077 82.5267 37.7559 82.2814 36.8431C82.9246 36.8014 83.6188 36.6784 84.3672 36.4541C84.8414 37.4762 85.1108 38.6495 85.1108 39.8972Z" fill="#FFD1C3"/>
</g>
<path fill-rule="evenodd" clip-rule="evenodd" d="M79.0341 46.7671C75.8541 46.7671 73.267 43.6852 73.267 39.8972C73.267 37.5527 74.2803 35.3664 75.9305 34.1075C75.9464 34.1313 75.9625 34.155 75.9787 34.1788C76.002 34.2127 76.031 34.2404 76.0634 34.2617C77.2957 35.8642 79.7303 37.882 83.8169 36.9197C83.8388 36.9188 83.8609 36.9162 83.8829 36.9104C83.992 36.8821 84.095 36.8533 84.1927 36.8245C84.5914 37.7732 84.8012 38.8295 84.8012 39.8972C84.8012 43.6852 82.2141 46.7671 79.0341 46.7671ZM84.7809 36.6313C84.9989 36.5515 85.1275 36.4945 85.1378 36.4899C85.2936 36.4204 85.3631 36.2385 85.2933 36.0835C85.2235 35.9285 85.0404 35.8592 84.8847 35.9285C84.8808 35.9302 84.5554 36.0737 84.0507 36.2245C82.1711 36.743 80.4759 36.6461 79.0091 35.9351C77.6811 35.2913 76.7904 34.2585 76.2757 33.5025C75.8741 32.8514 75.6342 32.274 75.6313 32.2673C75.5665 32.1101 75.3859 32.0348 75.228 32.0992C75.07 32.1636 74.9943 32.3432 75.0589 32.5004C75.0696 32.5263 75.2648 32.9973 75.6038 33.5826C73.7743 34.951 72.6484 37.3407 72.6484 39.8972C72.6484 44.0246 75.5131 47.3824 79.0341 47.3824C82.5551 47.3824 85.4197 44.0246 85.4197 39.8972C85.4197 38.765 85.1991 37.6434 84.7809 36.6313Z" fill="#1D1D1B"/>
<path fill-rule="evenodd" clip-rule="evenodd" d="M78.3678 39.2199C78.3678 39.4395 78.1888 39.6175 77.9681 39.6175C77.7473 39.6175 77.5684 39.4395 77.5684 39.2199C77.5684 39.0003 77.7473 38.8223 77.9681 38.8223C78.1888 38.8223 78.3678 39.0003 78.3678 39.2199Z" fill="#1D1D1B"/>
<path fill-rule="evenodd" clip-rule="evenodd" d="M80.6881 39.3654C80.6881 39.585 80.5091 39.7631 80.2884 39.7631C80.0676 39.7631 79.8887 39.585 79.8887 39.3654C79.8887 39.1458 80.0676 38.9678 80.2884 38.9678C80.5091 38.9678 80.6881 39.1458 80.6881 39.3654Z" fill="#1D1D1B"/>
<path fill-rule="evenodd" clip-rule="evenodd" d="M79.198 41.8448C77.688 41.8448 77.0174 41.0389 76.9862 41.0004C76.8792 40.868 76.9004 40.6743 77.0335 40.5678C77.166 40.4619 77.3594 40.4823 77.4667 40.6129C77.4974 40.6494 78.1545 41.4012 79.7265 41.1934C79.8955 41.1714 80.0513 41.2895 80.0738 41.4579C80.0962 41.6264 79.9772 41.7811 79.8079 41.8034C79.5911 41.832 79.3879 41.8448 79.198 41.8448Z" fill="#1D1D1B"/>
<path fill-rule="evenodd" clip-rule="evenodd" d="M84.4238 37.3706C85.5428 37.1805 86.5841 37.7708 86.6343 38.6691C86.6763 39.423 86.2166 40.4389 84.8483 40.4808" fill="white"/>
<g style="mix-blend-mode:multiply">
<path fill-rule="evenodd" clip-rule="evenodd" d="M84.4238 37.3706C85.5428 37.1805 86.5841 37.7708 86.6343 38.6691C86.6763 39.423 86.2166 40.4389 84.8483 40.4808" fill="#FFD1C3"/>
</g>
<path fill-rule="evenodd" clip-rule="evenodd" d="M84.8469 40.789C84.6805 40.789 84.5431 40.6575 84.5379 40.4909C84.5327 40.321 84.6668 40.1791 84.8376 40.1738C85.3238 40.1589 85.7034 40.0071 85.9659 39.7224C86.2116 39.4559 86.3456 39.0687 86.3243 38.6867C86.3054 38.3493 86.1037 38.1217 85.9378 37.99C85.571 37.6991 85.0241 37.581 84.4746 37.6744C84.3063 37.703 84.1465 37.5904 84.1177 37.4229C84.089 37.2554 84.2022 37.0965 84.3706 37.0679C85.0911 36.9457 85.821 37.1104 86.3234 37.5089C86.6976 37.8058 86.9172 38.2119 86.9418 38.6525C86.9727 39.2048 86.7831 39.7464 86.4217 40.1384C86.0476 40.5441 85.5064 40.769 84.8566 40.7889C84.8534 40.789 84.8501 40.789 84.8469 40.789Z" fill="#1D1D1B"/>
<path fill-rule="evenodd" clip-rule="evenodd" d="M73.6238 42.302C72.4239 42.5742 71.5308 41.6594 71.4604 40.7624C71.39 39.8654 72.0152 39.0107 73.3417 39.0107" fill="white"/>
<path fill-rule="evenodd" clip-rule="evenodd" d="M73.3416 38.6807C73.5247 38.6807 73.6732 38.8284 73.6732 39.0105C73.6732 39.1927 73.5247 39.3404 73.3416 39.3404C72.3042 39.3404 71.7283 39.9392 71.7909 40.7365C71.8533 41.5319 72.6249 42.1636 73.5065 41.9894L73.5499 41.9802C73.7285 41.9397 73.9062 42.0508 73.9469 42.2284C73.9877 42.4061 73.8759 42.5829 73.6974 42.6234C72.389 42.9203 71.2236 41.9844 71.1297 40.7878C71.0367 39.6019 71.9227 38.6807 73.3416 38.6807Z" fill="#1D1D1B"/>
<path fill-rule="evenodd" clip-rule="evenodd" d="M85.1422 39.8759C85.0271 39.8759 84.9198 39.8034 84.8814 39.6888C84.8334 39.5455 84.9113 39.3907 85.0552 39.3429C85.1114 39.3221 85.3039 39.2284 85.2586 38.9518C85.2077 38.6405 84.8607 38.5948 84.8212 38.5906C84.6712 38.5748 84.5608 38.4414 84.5755 38.292C84.5902 38.1425 84.7221 38.0325 84.8722 38.0461C85.1514 38.0708 85.7048 38.2735 85.8013 38.864C85.9003 39.4703 85.4703 39.7818 85.2292 39.8618C85.2003 39.8714 85.171 39.8759 85.1422 39.8759Z" fill="#1D1D1B"/>
<path fill-rule="evenodd" clip-rule="evenodd" d="M73.2546 41.6331C73.2319 41.6331 73.2088 41.6302 73.1858 41.6244C72.8506 41.5383 72.2793 41.2443 72.264 40.6881C72.2487 40.131 72.8137 39.8061 73.1501 39.7019C73.295 39.657 73.4491 39.7376 73.4943 39.8817C73.5393 40.0257 73.4587 40.1787 73.3143 40.2239C73.1822 40.2658 72.8071 40.4383 72.8136 40.6731C72.8203 40.9163 73.2172 41.0675 73.3232 41.0948C73.4702 41.1325 73.5585 41.2816 73.5206 41.4279C73.4886 41.5512 73.377 41.6331 73.2546 41.6331Z" fill="#1D1D1B"/>
<path fill-rule="evenodd" clip-rule="evenodd" d="M84.4086 75.2785L81.606 74.0314L78.277 72.5608C78.2344 72.5205 73.9611 68.3519 72.3118 63.4293C71.6142 61.3475 71.3249 58.305 71.2369 55.4055C71.2266 55.0718 71.2197 54.7402 71.2149 54.4121C71.2094 54.0388 71.2067 53.6703 71.2067 53.3093C71.2067 51.0886 71.305 49.1353 71.395 48.0222C71.5682 45.8966 69.9758 44.0336 67.8392 43.8606C65.7012 43.6876 63.8284 45.2717 63.6546 47.398C63.645 47.517 63.4168 50.353 63.4436 53.9718C63.4484 54.665 63.4628 55.3385 63.4855 55.9921C63.6291 60.0888 64.1178 63.4061 64.9445 65.8722C67.2207 72.6675 72.6733 77.9183 72.9042 78.1391L77.8612 81.28C77.4599 82.3172 78.0234 83.2538 78.7121 83.3899C78.7485 83.3967 79.1911 83.5341 80.112 83.5341C81.9414 83.5341 82.9496 83.1191 83.1619 82.3076C83.5076 80.9826 82.5757 80.4794 82.5421 80.4575C82.5805 80.465 84.1241 80.8869 84.4897 79.5728C84.8209 78.3832 83.7344 77.9312 83.7344 77.9312C83.7344 77.9312 84.7852 77.8089 85.0773 77.1457C85.1281 77.0301 85.1632 76.9112 85.1831 76.7922C85.2876 76.1802 84.9969 75.5568 84.4086 75.2785Z" fill="white"/>
<g style="mix-blend-mode:multiply">
<path fill-rule="evenodd" clip-rule="evenodd" d="M85.0783 77.1457C83.0455 76.3964 79.1651 74.8558 77.9159 74.2635C68.1528 69.634 68.2266 54.4805 68.2266 54.4805L71.216 54.4121C71.2208 54.7403 71.2276 55.0719 71.2379 55.4055C71.3259 58.3051 71.6152 61.3475 72.3128 63.4294C73.9622 68.352 78.2354 72.5206 78.2781 72.5608L81.6071 74.0315L84.4096 75.2785C84.9979 75.5569 85.1828 76.5339 85.0783 77.1457Z" fill="#FFD1C3"/>
</g>
<path fill-rule="evenodd" clip-rule="evenodd" d="M84.7947 77.0231C84.6381 77.3785 84.1078 77.5502 83.8128 77.6081L81.7771 76.8598C81.6168 76.8008 81.4391 76.8824 81.3799 77.0418C81.3207 77.2012 81.4026 77.3782 81.5628 77.437L83.231 78.0501L83.614 78.2153C83.6993 78.2521 84.4401 78.6003 84.1921 79.4915C83.9407 80.3948 82.9464 80.2377 82.6333 80.1636L80.6634 79.4204C80.5037 79.3601 80.3251 79.4402 80.2646 79.599C80.204 79.7579 80.2844 79.9355 80.4441 79.9958L82.4063 80.7361C82.5973 80.8561 83.1117 81.2782 82.8627 82.2312C82.6476 83.0543 81.2482 83.2271 80.1121 83.2271C79.5909 83.2271 79.1407 83.1824 78.8103 83.098C78.7902 83.0927 78.7769 83.0897 78.773 83.089C78.5509 83.0451 78.3362 82.8706 78.1986 82.622C78.0511 82.3558 78.0046 82.0363 78.061 81.7123C78.9938 82.1234 80.0495 82.4388 80.0993 82.4535C80.1288 82.4623 80.1586 82.4664 80.1879 82.4664C80.321 82.4664 80.444 82.3802 80.484 82.2467C80.5329 82.0839 80.4398 81.9126 80.2762 81.864C80.2631 81.86 78.9601 81.4707 78.0138 81.0125L73.0972 77.8972C72.6591 77.4741 67.4347 72.3323 65.2386 65.7758C64.4234 63.3444 63.9378 60.0494 63.7952 55.9824C63.7722 55.3186 63.7581 54.6417 63.7535 53.9704C63.727 50.3904 63.9538 47.5431 63.9635 47.4239C64.1232 45.4698 65.8508 44.009 67.8147 44.1681C69.7784 44.3271 71.2465 46.0453 71.0873 47.9985C71.0429 48.5476 70.8981 50.5532 70.8981 53.3102C70.8981 54.032 70.9082 54.7403 70.9284 55.4157C71.0359 58.9594 71.4029 61.6886 72.019 63.5276C73.7068 68.5648 78.0214 72.7439 78.0645 72.7847L78.1033 72.8213L81.4804 74.3131L84.2794 75.5586C84.8173 75.8148 85.0436 76.4574 84.7947 77.0231ZM84.542 75.0016L81.7322 73.7512L78.4551 72.3036C78.0349 71.884 74.1375 67.9044 72.6058 63.333C72.0171 61.576 71.6509 58.8319 71.5467 55.3972C71.5267 54.7282 71.5166 54.0259 71.5166 53.3102C71.5166 51.1377 71.6134 49.1674 71.7039 48.048C71.8905 45.757 70.1684 43.7413 67.8649 43.5548C65.5608 43.3692 63.5344 45.0817 63.347 47.3743C63.3372 47.4948 63.1082 50.3682 63.135 53.9748C63.1397 54.6516 63.1538 55.3342 63.1771 56.0037C63.3217 60.1298 63.8179 63.483 64.6518 65.9703C66.9438 72.8132 72.4569 78.1384 72.6905 78.3618L72.7127 78.3831L77.4942 81.4128C77.3547 81.9369 77.4106 82.4744 77.6568 82.919C77.8833 83.3279 78.2429 83.6088 78.6469 83.6914L78.6562 83.6937C79.1363 83.8167 79.713 83.8424 80.1121 83.8424C82.1097 83.8424 83.2052 83.366 83.4613 82.3859C83.6297 81.7416 83.5349 81.2188 83.3169 80.8289C83.9578 80.7755 84.5664 80.4525 84.7882 79.6557C84.9883 78.9369 84.753 78.4065 84.4355 78.0633C84.7857 77.9249 85.1791 77.6835 85.3612 77.2699C85.7455 76.3967 85.3856 75.4004 84.542 75.0016Z" fill="#1D1D1B"/>
<path fill-rule="evenodd" clip-rule="evenodd" d="M71.395 48.0222C71.305 49.1353 71.2067 51.0886 71.2067 53.3093C71.2067 53.9882 71.2156 54.6924 71.2369 55.4055C70.0995 55.3316 69.0735 55.3214 68.1601 55.3522C65.9321 55.428 64.3714 55.7494 63.4855 55.9921C63.4628 55.3385 63.4484 54.665 63.4436 53.9718C63.4168 50.353 63.645 47.517 63.6546 47.398C63.8058 45.5466 65.2455 44.106 67.0276 43.879C67.2915 43.8455 67.5629 43.838 67.8392 43.8606C69.9758 44.0335 71.5682 45.8966 71.395 48.0222Z" fill="#F1B61D"/>
<g style="mix-blend-mode:multiply">
<path fill-rule="evenodd" clip-rule="evenodd" d="M71.3948 48.0222C71.3047 49.1353 71.2065 51.0886 71.2065 53.3093C71.2065 53.9882 71.2154 54.6924 71.2367 55.4055C70.0993 55.3316 69.0733 55.3214 68.1599 55.3521C68.228 53.5896 68.2912 50.7666 68.1524 48.2314C68.0232 45.8768 67.4699 44.5655 67.0273 43.879C67.2912 43.8455 67.5627 43.838 67.839 43.8606C69.9756 44.0335 71.568 45.8966 71.3948 48.0222Z" fill="#FFD1C3"/>
</g>
<path fill-rule="evenodd" clip-rule="evenodd" d="M67.5226 44.1562C65.6822 44.1562 64.1153 45.5672 63.9635 47.4238C63.9538 47.5431 63.727 50.3903 63.7535 53.9704C63.7573 54.5128 63.7672 55.0588 63.783 55.5987C65.0883 55.2819 67.4854 54.8899 70.9193 55.0791C70.9052 54.5065 70.8981 53.913 70.8981 53.3101C70.8981 50.5532 71.043 48.5475 71.0874 47.9984V47.9982C71.2466 46.0453 69.7784 44.3271 67.8147 44.1681C67.7168 44.1601 67.6192 44.1562 67.5226 44.1562ZM63.1906 56.393L63.1771 56.0036C63.1539 55.3342 63.1397 54.6515 63.135 53.9748C63.1083 50.3682 63.3372 47.4947 63.347 47.3742C63.5345 45.0817 65.5609 43.3691 67.8649 43.5548C70.1684 43.7413 71.8906 45.7569 71.7039 48.048C71.6133 49.1675 71.5166 51.1378 71.5166 53.3101C71.5166 54.0259 71.5267 54.7281 71.5467 55.3973L71.5569 55.7354L71.2174 55.7134C67.3204 55.4602 64.7523 55.9657 63.5682 56.2896L63.1906 56.393Z" fill="#1D1D1B"/>
<path fill-rule="evenodd" clip-rule="evenodd" d="M98.1229 57.9875C95.7787 62.2783 81.3507 62.0097 81.3507 62.0097C78.0362 61.8305 75.4556 62.6906 75.4308 62.6995C75.3058 62.7419 75.18 62.7617 75.0549 62.7617C74.5732 62.7617 74.0357 62.4814 73.9567 61.9816C73.9526 61.9543 73.9491 61.9276 73.9478 61.9016C73.879 61.0156 75.0542 60.5274 75.1607 60.4843C75.0391 60.5253 74.9147 60.5438 74.7931 60.5438C74.3106 60.5438 73.7732 60.2642 73.6942 59.7637C73.5395 58.7771 74.6769 58.3423 74.8762 58.2739C74.7621 58.3088 74.6453 58.3266 74.5305 58.3266C74.0488 58.3266 73.5973 58.0257 73.4323 57.5465C73.2248 56.9441 73.545 56.2885 74.1505 56.0806C74.2715 56.0389 77.162 55.0633 80.9521 55.2691L82.6208 55.3518C82.6373 55.3532 84.644 55.4592 86.9236 55.2944C88.8018 55.1597 89.9846 54.9101 90.702 54.692C91.1213 54.5642 91.3776 54.1437 91.2999 53.715C91.2278 53.3144 91.1006 52.7879 90.8807 52.1131C90.6849 51.5088 90.4134 50.7854 90.0416 49.9287C89.1166 47.7997 88.1084 46.0959 88.0988 46.0795C87.0452 44.306 87.6363 42.0204 89.4183 40.973C91.1996 39.9262 93.4977 40.5129 94.5506 42.2857C94.6097 42.3841 95.9979 44.7313 97.1669 47.5508C97.2803 47.825 97.3889 48.0951 97.492 48.3603C97.6398 48.7432 97.7772 49.1165 97.9023 49.4809C99.162 53.138 99.2665 55.8926 98.1229 57.9875Z" fill="white"/>
<g style="mix-blend-mode:multiply">
<path fill-rule="evenodd" clip-rule="evenodd" d="M98.1243 57.9875C95.7802 62.2784 81.3522 62.0097 81.3522 62.0097C78.0376 61.8306 75.457 62.6906 75.4323 62.6995C75.3072 62.7419 75.1814 62.7617 75.0564 62.7617C74.5746 62.7617 74.0372 62.4814 73.9582 61.9816C73.954 61.9543 73.9506 61.9276 73.9492 61.9017C75.534 61.1872 79.5373 60.4701 81.6198 60.424C84.4418 60.3616 94.4314 59.6828 95.5777 57.6447C96.724 55.6059 94.093 49.8043 94.093 49.8043L97.4935 48.3604C97.6412 48.7432 97.7787 49.1165 97.9037 49.4809C99.1635 53.138 99.2679 55.8926 98.1243 57.9875Z" fill="#FFD1C3"/>
</g>
<path fill-rule="evenodd" clip-rule="evenodd" d="M97.8514 57.8412L97.8515 57.8411C96.9432 59.5035 93.8227 60.7003 88.8272 61.302C85.0599 61.7558 81.519 61.7054 81.3619 61.7027C77.9784 61.5211 75.3512 62.4017 75.3314 62.4088C75.2418 62.4392 75.1489 62.4547 75.0553 62.4547C74.706 62.4547 74.314 62.26 74.2629 61.9368C74.2603 61.9195 74.2578 61.9025 74.2569 61.886L74.2564 61.8785C74.2047 61.2116 75.2337 60.7877 75.2775 60.7699L75.275 60.7633C75.2901 60.7609 75.3052 60.7575 75.3202 60.7529C76.2087 60.4774 79.4039 60.0019 79.4361 59.9971C79.605 59.9721 79.7215 59.8155 79.6963 59.6475C79.6711 59.4794 79.5144 59.3635 79.3448 59.3885C79.2116 59.4083 76.07 59.8759 75.1362 60.1654C75.1099 60.1736 75.0863 60.1858 75.0641 60.1998L75.0618 60.1935C74.9768 60.2222 74.8865 60.2367 74.7934 60.2367C74.4438 60.2367 74.0514 60.0422 74.0001 59.7169C73.8845 58.9796 74.7939 58.6283 74.9774 58.5653L74.9766 58.5632C74.9839 58.5615 74.991 58.5605 74.9982 58.5583C75.8867 58.2827 79.0818 57.8072 79.114 57.8025C79.283 57.7774 79.3995 57.6209 79.3743 57.4528C79.3491 57.2847 79.1924 57.1687 79.0228 57.1939C78.8895 57.2136 75.7479 57.6812 74.8142 57.9708C74.8043 57.9738 74.7957 57.9786 74.7864 57.9825L74.7857 57.9804C74.7009 58.0063 74.6152 58.0194 74.5309 58.0194C74.1667 58.0194 73.843 57.7896 73.7252 57.4473C73.5732 57.0062 73.8094 56.5239 74.2522 56.3719C74.3706 56.3311 77.1949 55.3739 80.937 55.5769L82.6057 55.6597V55.6596C82.7607 55.6679 84.725 55.7624 86.9461 55.6018C88.5298 55.4883 89.824 55.2814 90.793 54.9868C91.3613 54.8135 91.7102 54.2435 91.6047 53.6613C91.5179 53.1796 91.3734 52.6269 91.1754 52.0193C90.9594 51.3527 90.6735 50.6084 90.3259 49.8072C89.4328 47.7519 88.4735 46.1072 88.3654 45.9235C87.8979 45.1366 87.7664 44.2159 87.9951 43.3312C88.2237 42.4465 88.7851 41.7032 89.5759 41.2384C91.2083 40.2792 93.3207 40.8194 94.2854 42.4439C94.2993 42.4671 95.7088 44.8406 96.8813 47.6684C96.9955 47.9446 97.104 48.2148 97.2036 48.4712C97.3583 48.872 97.4913 49.235 97.6101 49.5813C98.8639 53.2213 98.9406 55.846 97.8514 57.8412ZM98.1953 49.382C98.074 49.0288 97.9385 48.6587 97.7808 48.25C97.6793 47.9889 97.5691 47.7145 97.4532 47.4341C96.2637 44.5652 94.8306 42.1521 94.8172 42.1297C93.6797 40.2144 91.1874 39.5769 89.2613 40.7086C88.3282 41.2571 87.6658 42.134 87.396 43.1779C87.1262 44.2219 87.2813 45.3082 87.8334 46.2374C87.9378 46.4149 88.8796 48.0295 89.758 50.0512C90.0979 50.8344 90.3767 51.5601 90.5869 52.2086C90.7764 52.7903 90.914 53.3155 90.9959 53.7701C91.0459 54.0463 90.8808 54.3164 90.612 54.3984C89.9765 54.5916 88.8168 54.8508 86.9015 54.9881C84.64 55.1515 82.6599 55.0465 82.6462 55.0457L80.9693 54.9625C77.1085 54.7527 74.1726 55.7481 74.05 55.7904C73.2859 56.0527 72.8777 56.8854 73.1401 57.6467C73.2705 58.0256 73.547 58.3249 73.8944 58.4908C73.4853 58.8574 73.3107 59.3126 73.389 59.812C73.46 60.2617 73.7923 60.5735 74.184 60.7318C73.795 61.0823 73.6072 61.4915 73.6395 61.9225C73.6417 61.9616 73.6466 61.9975 73.6515 62.03C73.7584 62.7054 74.4545 63.07 75.0553 63.07C75.2169 63.07 75.377 63.0435 75.5326 62.9907C75.5576 62.9822 78.0729 62.1412 81.3343 62.3174L81.3453 62.3179C81.3817 62.3187 85.0186 62.38 88.8952 61.9136C94.1761 61.2783 97.3722 60.007 98.3949 58.1349L98.395 58.1349C99.5726 55.9777 99.5091 53.1963 98.1953 49.382Z" fill="#1D1D1B"/>
<path fill-rule="evenodd" clip-rule="evenodd" d="M97.9036 49.4809C96.613 49.6997 95.376 50.0791 94.2791 50.501C92.8414 51.0534 91.6436 51.679 90.8821 52.1131C90.6862 51.5087 90.4148 50.7854 90.043 49.9287C89.1179 47.7997 88.1098 46.0959 88.1001 46.0795C87.0583 44.3251 87.6253 42.0703 89.3619 41.0078C89.3812 40.9962 89.4004 40.9846 89.4196 40.973C91.201 39.9262 93.4991 40.5129 94.552 42.2857C94.6111 42.3841 95.9993 44.7313 97.1683 47.5508C97.4459 48.2202 97.6913 48.8635 97.9036 49.4809Z" fill="#F1B61D"/>
<g style="mix-blend-mode:multiply">
<path fill-rule="evenodd" clip-rule="evenodd" d="M97.9031 49.4809C96.6124 49.6997 95.3754 50.0791 94.2785 50.501C93.7927 49.1534 92.9865 47.0346 91.9405 44.6943C91.0464 42.6938 90.0905 41.5999 89.3613 41.0078C89.3806 40.9962 89.3998 40.9846 89.4191 40.973C91.2004 39.9262 93.4985 40.5129 94.5514 42.2857C94.6105 42.3841 95.9987 44.7313 97.1677 47.5508C97.4454 48.2202 97.6907 48.8635 97.9031 49.4809Z" fill="#FFD1C3"/>
</g>
<path fill-rule="evenodd" clip-rule="evenodd" d="M91.32 40.7611C90.7125 40.7611 90.1138 40.9226 89.577 41.2381C88.7862 41.7027 88.2248 42.4459 87.996 43.3308C87.7673 44.2156 87.8987 45.1361 88.3661 45.9229C88.3746 45.9369 89.3958 47.6644 90.3263 49.8065C90.6127 50.4661 90.8576 51.0885 91.0566 51.6624C92.438 50.9031 94.8331 49.7575 97.4924 49.2432C97.3119 48.7387 97.1072 48.2104 96.8822 47.6681C95.7067 44.8338 94.3 42.4671 94.2862 42.444C93.8184 41.6561 93.0714 41.0977 92.182 40.8702C91.8966 40.7972 91.6072 40.7611 91.32 40.7611ZM90.705 52.5687L90.5878 52.2078C90.3764 51.5569 90.0974 50.8311 89.7585 50.0506C88.8442 47.9456 87.8441 46.2534 87.8342 46.237C87.2822 45.3077 87.1272 44.2216 87.397 43.1775C87.6669 42.1335 88.3294 41.2566 89.2624 40.7083C90.1951 40.1601 91.2866 40.0059 92.336 40.2742C93.3855 40.5426 94.2669 41.2016 94.8179 42.1298C94.8312 42.1519 96.2615 44.5583 97.4539 47.4334C97.7345 48.1095 97.9842 48.7651 98.1962 49.3817L98.3137 49.7237L97.9556 49.7845C95.0212 50.2832 92.3607 51.6248 91.0359 52.3801L90.705 52.5687Z" fill="#1D1D1B"/>
</g>
<path fill-rule="evenodd" clip-rule="evenodd" d="M44.5224 80.3182C44.3124 80.3182 44.0999 80.2591 43.9112 80.1353C43.3978 79.7991 43.2556 79.1122 43.5938 78.6013L54.2751 62.4651C54.6447 61.9067 55.2656 61.5742 55.937 61.5742H55.9469C56.6225 61.5777 57.2439 61.9168 57.61 62.4811L68.0492 78.5954C68.3822 79.1095 68.2332 79.7949 67.7165 80.1262C67.1999 80.4577 66.511 80.3093 66.1778 79.7952L55.935 63.9845L45.4533 79.8196C45.2393 80.1427 44.8843 80.3182 44.5224 80.3182Z" fill="#FFD1C3"/>
<path fill-rule="evenodd" clip-rule="evenodd" d="M215.248 59.2123H207.096C204.331 59.2123 202.09 56.9827 202.09 54.2319V46.122C202.09 43.3715 204.331 41.1416 207.096 41.1416H215.248C218.013 41.1416 220.254 43.3715 220.254 46.122V54.2319C220.254 56.9824 218.013 59.2123 215.248 59.2123Z" fill="#33FAE3"/>
<path d="M63.0069 0.875C52.099 17.1273 24.4183 50.0635 0.958984 51.7894" stroke="#DB5F2C" stroke-width="2"/>
<defs>
<clipPath id="clip0_3646_24439">
<rect width="126.473" height="119.066" fill="white" transform="translate(51.3105 17.208)"/>
</clipPath>
</defs>
</svg>
