<svg width="20" height="22" viewBox="0 0 20 22" fill="none" xmlns="http://www.w3.org/2000/svg">
<path fill-rule="evenodd" clip-rule="evenodd" d="M9.76789 0.25H9.8H10.2H10.2321H10.2321C11.0449 0.249993 11.7006 0.249987 12.2315 0.293364C12.7781 0.338026 13.2582 0.432386 13.7025 0.658726C14.4081 1.01825 14.9817 1.59193 15.3413 2.29754C15.5676 2.74175 15.662 3.2219 15.7066 3.76853C15.75 4.29944 15.75 4.95505 15.75 5.76788V5.8V6.35652C16.2684 6.42746 16.7283 6.54954 17.1565 6.76772C18.0502 7.22312 18.7769 7.94978 19.2323 8.84355C19.5131 9.39472 19.6347 9.99835 19.693 10.7117C19.75 11.4094 19.75 12.2748 19.75 13.367V13.4V14.6V14.633C19.75 15.7252 19.75 16.5906 19.693 17.2883C19.6347 18.0017 19.5131 18.6053 19.2323 19.1565C18.7769 20.0502 18.0502 20.7769 17.1565 21.2323C16.6053 21.5131 16.0017 21.6347 15.2883 21.693C14.5907 21.75 13.7252 21.75 12.6331 21.75H12.633H12.6H7.4H7.36698H7.36691C6.27481 21.75 5.40934 21.75 4.71173 21.693C3.99834 21.6347 3.39472 21.5131 2.84355 21.2323C1.94978 20.7769 1.22312 20.0502 0.767719 19.1565C0.486882 18.6053 0.365274 18.0017 0.306988 17.2883C0.24999 16.5906 0.249994 15.7251 0.25 14.633V14.6V13.4V13.367C0.249994 12.2749 0.24999 11.4094 0.306988 10.7117C0.365274 9.99835 0.486882 9.39472 0.767719 8.84355C1.22312 7.94978 1.94978 7.22312 2.84355 6.76772C3.27175 6.54954 3.73161 6.42746 4.25 6.35652V5.8L4.25 5.7679C4.24999 4.95506 4.24999 4.29944 4.29336 3.76853C4.33803 3.2219 4.43238 2.74175 4.65873 2.29754C5.01825 1.59193 5.59193 1.01825 6.29754 0.658726C6.74175 0.432386 7.2219 0.338026 7.76853 0.293364C8.29944 0.249987 8.95505 0.249993 9.76788 0.25H9.76789ZM14.25 5.8V6.2597C13.7739 6.24999 13.2383 6.25 12.633 6.25H12.633H12.6H7.4H7.367H7.36699C6.76171 6.25 6.22605 6.24999 5.75 6.2597V5.8C5.75 4.94755 5.75058 4.35331 5.78838 3.89068C5.82546 3.43681 5.8946 3.17604 5.99524 2.97852C6.21095 2.55516 6.55516 2.21095 6.97852 1.99524C7.17604 1.8946 7.4368 1.82547 7.89068 1.78838C8.35331 1.75058 8.94755 1.75 9.8 1.75H10.2C11.0525 1.75 11.6467 1.75058 12.1093 1.78838C12.5632 1.82547 12.824 1.8946 13.0215 1.99524C13.4448 2.21095 13.789 2.55516 14.0048 2.97852C14.1054 3.17604 14.1745 3.43681 14.2116 3.89068C14.2494 4.35331 14.25 4.94755 14.25 5.8ZM4.83388 7.80201C4.21325 7.85271 3.829 7.94909 3.52453 8.10423C2.913 8.41582 2.41582 8.913 2.10423 9.52453C1.94909 9.829 1.85271 10.2133 1.80201 10.8339C1.75058 11.4633 1.75 12.2675 1.75 13.4V14.6C1.75 15.7325 1.75058 16.5367 1.80201 17.1661C1.85271 17.7867 1.94909 18.171 2.10423 18.4755C2.41582 19.087 2.913 19.5842 3.52453 19.8958C3.829 20.0509 4.21325 20.1473 4.83388 20.198C5.46326 20.2494 6.26752 20.25 7.4 20.25H12.6C13.7325 20.25 14.5367 20.2494 15.1661 20.198C15.7867 20.1473 16.171 20.0509 16.4755 19.8958C17.087 19.5842 17.5842 19.087 17.8958 18.4755C18.0509 18.171 18.1473 17.7867 18.198 17.1661C18.2494 16.5367 18.25 15.7325 18.25 14.6V13.4C18.25 12.2675 18.2494 11.4633 18.198 10.8339C18.1473 10.2133 18.0509 9.829 17.8958 9.52453C17.5842 8.913 17.087 8.41582 16.4755 8.10423C16.171 7.94909 15.7867 7.85271 15.1661 7.80201C14.5367 7.75058 13.7325 7.75 12.6 7.75H7.4C6.26752 7.75 5.46326 7.75058 4.83388 7.80201ZM10.75 13C10.75 12.5858 10.4142 12.25 10 12.25C9.58579 12.25 9.25 12.5858 9.25 13V15C9.25 15.4142 9.58579 15.75 10 15.75C10.4142 15.75 10.75 15.4142 10.75 15V13Z" fill="#334BFA"/>
</svg>
