<svg width="24" height="24" viewBox="0 0 24 24" fill="none" xmlns="http://www.w3.org/2000/svg">
<path opacity="0.12" d="M2 10C2 7.19974 2 5.79961 2.54497 4.73005C3.02433 3.78924 3.78924 3.02433 4.73005 2.54497C5.79961 2 7.19974 2 10 2H14C16.8003 2 18.2004 2 19.27 2.54497C20.2108 3.02433 20.9757 3.78924 21.455 4.73005C22 5.79961 22 7.19974 22 10V19.1708C22 20.1969 22 20.71 21.8373 21.0302C21.5642 21.5676 20.996 21.8893 20.3947 21.847C20.0363 21.8218 19.5964 21.5578 18.7165 21.0299C18.1917 20.715 17.9293 20.5576 17.6542 20.4347C17.1972 20.2306 16.7122 20.0963 16.2154 20.0362C15.9163 20 15.6103 20 14.9983 20H10C7.19974 20 5.79961 20 4.73005 19.455C3.78924 18.9757 3.02433 18.2108 2.54497 17.27C2 16.2004 2 14.8003 2 12V10Z" fill="#1BD2A4"/>
<path fill-rule="evenodd" clip-rule="evenodd" d="M9.96644 1.25H10H14H14.0336C15.4053 1.25 16.4807 1.24999 17.3451 1.32061C18.2252 1.39252 18.9523 1.54138 19.6104 1.87671C20.6924 2.42798 21.572 3.30762 22.1233 4.38955C22.4586 5.04769 22.6075 5.77479 22.6794 6.65494C22.75 7.51926 22.75 8.59466 22.75 9.96632V9.96637V9.96642V10V19.1708V19.1978C22.75 19.6879 22.75 20.0941 22.7279 20.4165C22.7057 20.74 22.6574 21.0718 22.5059 21.37C22.0963 22.1761 21.2439 22.6586 20.342 22.5952C20.0084 22.5717 19.699 22.4424 19.4102 22.295C19.1224 22.1481 18.774 21.9391 18.3538 21.6869L18.3306 21.673C17.7908 21.3491 17.5727 21.2197 17.3484 21.1195C16.9599 20.946 16.5476 20.8318 16.1253 20.7807C15.8814 20.7512 15.6277 20.75 14.9983 20.75H10H9.96642H9.96637H9.96632C8.59466 20.75 7.51926 20.75 6.65494 20.6794C5.77479 20.6075 5.04769 20.4586 4.38955 20.1233C3.30762 19.572 2.42798 18.6924 1.87671 17.6104C1.54138 16.9523 1.39252 16.2252 1.32061 15.3451C1.24999 14.4807 1.25 13.4053 1.25 12.0336V12V10V9.96644C1.25 8.59472 1.24999 7.51929 1.32061 6.65494C1.39252 5.77479 1.54138 5.04769 1.87671 4.38955C2.42798 3.30762 3.30762 2.42798 4.38955 1.87671C5.04769 1.54138 5.77479 1.39252 6.65494 1.32061C7.51929 1.24999 8.59472 1.25 9.96644 1.25ZM6.77708 2.81563C5.9897 2.87996 5.48197 3.00359 5.07054 3.21322C4.27085 3.62068 3.62068 4.27085 3.21322 5.07054C3.00359 5.48197 2.87996 5.9897 2.81563 6.77708C2.75058 7.57322 2.75 8.58749 2.75 10V12C2.75 13.4125 2.75058 14.4268 2.81563 15.2229C2.87996 16.0103 3.00359 16.518 3.21322 16.9295C3.62068 17.7291 4.27085 18.3793 5.07054 18.7868C5.48197 18.9964 5.9897 19.12 6.77708 19.1844C7.57322 19.2494 8.58749 19.25 10 19.25H14.9983L15.0473 19.25H15.0473C15.6128 19.25 15.961 19.2499 16.3054 19.2916C16.8768 19.3607 17.4346 19.5152 17.9601 19.7499C18.2768 19.8914 18.5754 20.0706 19.0603 20.3615L19.1023 20.3868C19.5516 20.6563 19.8557 20.8383 20.0921 20.9589C20.3328 21.0818 20.4226 21.0971 20.4473 21.0989C20.748 21.12 21.0321 20.9592 21.1686 20.6905C21.1799 20.6684 21.2129 20.5835 21.2314 20.3139C21.2496 20.0491 21.25 19.6948 21.25 19.1708V10C21.25 8.58749 21.2494 7.57322 21.1844 6.77708C21.12 5.9897 20.9964 5.48197 20.7868 5.07054C20.3793 4.27085 19.7291 3.62068 18.9295 3.21322C18.518 3.00359 18.0103 2.87996 17.2229 2.81563C16.4268 2.75058 15.4125 2.75 14 2.75H10C8.58749 2.75 7.57322 2.75058 6.77708 2.81563ZM6.25 8C6.25 7.58579 6.58579 7.25 7 7.25H15C15.4142 7.25 15.75 7.58579 15.75 8C15.75 8.41421 15.4142 8.75 15 8.75H7C6.58579 8.75 6.25 8.41421 6.25 8ZM7 11.25C6.58579 11.25 6.25 11.5858 6.25 12C6.25 12.4142 6.58579 12.75 7 12.75H11C11.4142 12.75 11.75 12.4142 11.75 12C11.75 11.5858 11.4142 11.25 11 11.25H7Z" fill="#1BD2A4"/>
</svg>
