<svg width="37" height="36" viewBox="0 0 37 36" fill="none" xmlns="http://www.w3.org/2000/svg">
<circle cx="18.6045" cy="18" r="17.3" transform="rotate(-180 18.6045 18)" stroke="#334BFA" stroke-width="1.4"/>
<path fill-rule="evenodd" clip-rule="evenodd" d="M18.3733 12.499C18.8092 12.1067 19.516 12.1067 19.952 12.499L26.2775 18.192C26.7135 18.5844 26.7135 19.2205 26.2775 19.6128L19.952 25.3058C19.516 25.6982 18.8092 25.6982 18.3733 25.3058C17.9374 24.9135 17.9374 24.2774 18.3733 23.8851L22.7933 19.9071H11.7208C11.1043 19.9071 10.6045 19.4573 10.6045 18.9024C10.6045 18.3476 11.1043 17.8978 11.7208 17.8978H22.7933L18.3733 13.9198C17.9374 13.5274 17.9374 12.8914 18.3733 12.499Z" fill="#334BFA"/>
</svg>
