<svg width="23" height="22" viewBox="0 0 23 22" fill="none" xmlns="http://www.w3.org/2000/svg">
<path fill-rule="evenodd" clip-rule="evenodd" d="M15.5527 2.62268e-06C13.3436 2.23643e-06 11.5527 1.79086 11.5527 4C11.5527 6.20914 13.3436 8 15.5527 8C17.4166 8 18.9827 6.72523 19.4267 5L21.5527 5C22.105 5 22.5527 4.55229 22.5527 4C22.5527 3.44772 22.105 3 21.5527 3L19.4267 3C18.9827 1.27478 17.4166 2.94857e-06 15.5527 2.62268e-06ZM17.5527 4C17.5527 2.89543 16.6573 2 15.5527 2C14.4482 2 13.5527 2.89543 13.5527 4C13.5527 5.10457 14.4482 6 15.5527 6C16.6573 6 17.5527 5.10457 17.5527 4ZM0.552732 11C0.552733 10.4477 1.00045 10 1.55273 10L3.67875 10C4.12279 8.27478 5.68889 7 7.55273 7C9.76187 7 11.5527 8.79086 11.5527 11C11.5527 13.2091 9.76187 15 7.55273 15C5.68889 15 4.12279 13.7252 3.67875 12L1.55273 12C1.00045 12 0.552732 11.5523 0.552732 11ZM5.55273 11C5.55273 12.1046 6.44816 13 7.55273 13C8.6573 13 9.55273 12.1046 9.55273 11C9.55273 9.89543 8.6573 9 7.55273 9C6.44816 9 5.55273 9.89543 5.55273 11ZM15.5527 22C17.4166 22 18.9827 20.7252 19.4267 19L21.5527 19C22.105 19 22.5527 18.5523 22.5527 18C22.5527 17.4477 22.105 17 21.5527 17L19.4267 17C18.9827 15.2748 17.4166 14 15.5527 14C13.3436 14 11.5527 15.7909 11.5527 18C11.5527 20.2091 13.3436 22 15.5527 22ZM0.552734 18C0.552734 17.4477 1.00045 17 1.55273 17L9.55273 17C10.105 17 10.5527 17.4477 10.5527 18C10.5527 18.5523 10.105 19 9.55273 19L1.55273 19C1.00045 19 0.552734 18.5523 0.552734 18ZM13.5527 10C13.0004 10 12.5527 10.4477 12.5527 11C12.5527 11.5523 13.0004 12 13.5527 12L21.5527 12C22.105 12 22.5527 11.5523 22.5527 11C22.5527 10.4477 22.105 10 21.5527 10L13.5527 10ZM0.552734 4C0.552734 3.44772 1.00045 3 1.55273 3L9.55273 3C10.105 3 10.5527 3.44772 10.5527 4C10.5527 4.55229 10.105 5 9.55273 5L1.55273 5C1.00045 5 0.552734 4.55229 0.552734 4ZM15.5527 16C14.4482 16 13.5527 16.8954 13.5527 18C13.5527 19.1046 14.4482 20 15.5527 20C16.6573 20 17.5527 19.1046 17.5527 18C17.5527 16.8954 16.6573 16 15.5527 16Z" fill="#334BFA"/>
</svg>
