<svg width="22" height="22" viewBox="0 0 22 22" fill="none" xmlns="http://www.w3.org/2000/svg">
<path fill-rule="evenodd" clip-rule="evenodd" d="M18.7489 1.73647C18.2661 1.82509 17.6335 2.00143 16.7234 2.25625L6.49754 5.1195C5.06896 5.5195 4.04439 5.80704 3.32213 6.07566C2.55666 6.36035 2.3377 6.55612 2.28126 6.64872C2.05965 7.01233 2.03838 7.46374 2.22482 7.84657C2.27231 7.94407 2.47189 8.15956 3.2072 8.51496C3.901 8.8503 4.894 9.23291 6.27864 9.76546L8.94126 10.7895C8.96576 10.799 8.98997 10.8083 9.01388 10.8174C9.43201 10.978 9.76107 11.1043 10.0455 11.3065C10.296 11.4847 10.5149 11.7036 10.6931 11.9541C10.8953 12.2385 11.0216 12.5676 11.1821 12.9857C11.1913 13.0096 11.2006 13.0338 11.21 13.0583L12.234 15.7208C12.7665 17.1055 13.1491 18.0985 13.4845 18.7923C13.8399 19.5276 14.0553 19.7272 14.1528 19.7747C14.5357 19.9611 14.9871 19.9399 15.3507 19.7183C15.4433 19.6618 15.6391 19.4429 15.9238 18.6774C16.1924 17.9551 16.48 16.9305 16.88 15.502L19.7433 5.27612C19.9981 4.36608 20.1745 3.73348 20.2631 3.25065C20.3526 2.7628 20.3258 2.55281 20.2838 2.44202C20.1569 2.10707 19.8925 1.84262 19.5576 1.71576C19.4468 1.6738 19.2368 1.64693 18.7489 1.73647ZM18.4781 0.261115C19.0397 0.158043 19.5849 0.12216 20.0888 0.312998C20.8257 0.592083 21.4075 1.17386 21.6866 1.91076C21.8774 2.41465 21.8415 2.95988 21.7384 3.52145C21.6359 4.08015 21.4401 4.77927 21.1981 5.64375L21.1877 5.68058L18.3244 15.9064L18.3139 15.9438C17.9266 17.3271 17.6228 18.4123 17.3297 19.2003C17.05 19.9521 16.7114 20.6456 16.1313 20.9991C15.3314 21.4867 14.3383 21.5334 13.4961 21.1233C12.8853 20.8258 12.483 20.1673 12.1339 19.445C11.7681 18.6881 11.3635 17.6362 10.8479 16.2955L10.834 16.2593L9.81 13.5968C9.6082 13.0721 9.54916 12.9338 9.47059 12.8233C9.38961 12.7095 9.29011 12.61 9.17623 12.529C9.06573 12.4504 8.92748 12.3914 8.40279 12.1896L5.74017 11.1655L5.70398 11.1516C4.36326 10.6359 3.31139 10.2313 2.55444 9.86548C1.8322 9.5164 1.17367 9.11406 0.876246 8.50334C0.466072 7.66111 0.512864 6.668 1.00041 5.86806C1.35394 5.28801 2.04739 4.94938 2.79925 4.66975C3.58724 4.37668 4.67247 4.07282 6.05573 3.68552L6.09309 3.67505L16.319 0.811801L16.3558 0.801485C17.2203 0.559421 17.9194 0.363658 18.4781 0.261115Z" fill="#334BFA"/>
</svg>
