<svg width="60" height="59" viewBox="0 0 60 59" fill="none" xmlns="http://www.w3.org/2000/svg">
<path fill-rule="evenodd" clip-rule="evenodd" d="M3.28955 29.3249C3.28955 14.6027 15.2243 2.66797 29.9465 2.66797C44.6688 2.66797 56.6035 14.6027 56.6035 29.3249C56.6035 44.0472 44.6688 55.9819 29.9465 55.9819C15.2243 55.9819 3.28955 44.0472 3.28955 29.3249ZM29.9465 0.167969C13.8436 0.167969 0.789551 13.222 0.789551 29.3249C0.789551 45.4279 13.8436 58.4819 29.9465 58.4819C46.0495 58.4819 59.1035 45.4279 59.1035 29.3249C59.1035 13.222 46.0495 0.167969 29.9465 0.167969ZM41.9932 21.8367C42.4814 21.3486 42.4814 20.5571 41.9932 20.069C41.505 19.5808 40.7136 19.5808 40.2254 20.069L27.1558 33.1386L22.4583 28.4411C21.9702 27.9529 21.1787 27.9529 20.6906 28.4411C20.2024 28.9292 20.2024 29.7207 20.6906 30.2088L26.2719 35.7902C26.5064 36.0246 26.8243 36.1563 27.1558 36.1563C27.4874 36.1563 27.8053 36.0246 28.0397 35.7902L41.9932 21.8367Z" fill="white"/>
</svg>
