<svg width="24" height="25" viewBox="0 0 24 25" fill="none" xmlns="http://www.w3.org/2000/svg">
<path fill-rule="evenodd" clip-rule="evenodd" d="M9 3.25C7.20507 3.25 5.75 4.70507 5.75 6.5C5.75 8.29493 7.20507 9.75 9 9.75C10.7949 9.75 12.25 8.29493 12.25 6.5C12.25 4.70507 10.7949 3.25 9 3.25ZM4.25 6.5C4.25 3.87665 6.37665 1.75 9 1.75C11.6234 1.75 13.75 3.87665 13.75 6.5C13.75 9.12335 11.6234 11.25 9 11.25C6.37665 11.25 4.25 9.12335 4.25 6.5ZM1.25 19.3C1.25 16.2348 3.73482 13.75 6.8 13.75H11.2C14.2652 13.75 16.75 16.2348 16.75 19.3C16.75 21.4815 14.9815 23.25 12.8 23.25H11.5C11.0858 23.25 10.75 22.9142 10.75 22.5C10.75 22.0858 11.0858 21.75 11.5 21.75H12.8C14.1531 21.75 15.25 20.6531 15.25 19.3C15.25 17.0632 13.4368 15.25 11.2 15.25H6.8C4.56325 15.25 2.75 17.0632 2.75 19.3C2.75 20.6531 3.8469 21.75 5.2 21.75H6.5C6.91421 21.75 7.25 22.0858 7.25 22.5C7.25 22.9142 6.91421 23.25 6.5 23.25H5.2C3.01848 23.25 1.25 21.4815 1.25 19.3ZM20.75 7.5C20.75 7.08579 20.4142 6.75 20 6.75C19.5858 6.75 19.25 7.08579 19.25 7.5V9.75H17C16.5858 9.75 16.25 10.0858 16.25 10.5C16.25 10.9142 16.5858 11.25 17 11.25H19.25V13.5C19.25 13.9142 19.5858 14.25 20 14.25C20.4142 14.25 20.75 13.9142 20.75 13.5V11.25H23C23.4142 11.25 23.75 10.9142 23.75 10.5C23.75 10.0858 23.4142 9.75 23 9.75H20.75V7.5Z" fill="#334BFA"/>
</svg>
